<svg xmlns="http://www.w3.org/2000/svg" xml:space="preserve" id="Layer_1" x="0" y="0" viewBox="0 0 498.5 711.3"><style>.st0,.st1,.st2,.st3,.st6,.st7,.st8{fill-rule:evenodd;clip-rule:evenodd}.st1{fill:#fff}.st2,.st3,.st6,.st7,.st8{stroke:#000;stroke-miterlimit:22.9256}.st2{stroke-width:1.08;stroke-linejoin:bevel}.st3,.st6{fill:#ee3524;stroke-width:2.8346}.st6{fill:none}.st7,.st8{fill:none;stroke-width:2.2677}.st8{fill:#00483a}.st14{fill:#0082c4;stroke:#000;stroke-width:3.685;stroke-miterlimit:22.926}.st14,.st15,.st19,.st22,.st23{fill-rule:evenodd;clip-rule:evenodd}.st15{fill:#00483a}.st19,.st22{stroke:#000;stroke-miterlimit:22.926}.st23{stroke:#000}.st19{fill:#ffd38c;stroke-width:1.4173;stroke-linecap:round;stroke-linejoin:round}.st22,.st23{fill:#d1d3d4;stroke-width:2.2677}.st23{stroke-miterlimit:22.9256}.st24,.st25,.st26{stroke:#000;stroke-miterlimit:22.926}.st24{fill-rule:evenodd;clip-rule:evenodd;fill:#00ab67;stroke-width:2.2677}.st25,.st26{stroke-linecap:round;stroke-linejoin:round}.st25{fill-rule:evenodd;clip-rule:evenodd;fill:#00ab67;stroke-width:2.2677}.st26{fill:none;stroke-width:2.3241}.st26,.st27,.st28,.st33{fill-rule:evenodd;clip-rule:evenodd}.st27{fill:none;stroke:#000;stroke-width:3.9039;stroke-linecap:round;stroke-linejoin:round;stroke-miterlimit:22.926}.st28{fill:#fecc91}.st33{fill:#d1d3d4}.st38{fill-rule:evenodd;clip-rule:evenodd;fill:#00aeef}</style><path d="m143.2 232.2.5.4 1.1.5 1.1.1 1.2-.1 1.1-.2.4-.2.3-.4.2-.5-.2-.4-.3-.7-.6-.6-.9-.5-1.1-.4-1-.2h-.8l-1 .2-.9.4-1.2.7-.9.8-.6.7-.4.6-.3.8-.2.7v1.6l.3 1.1.4.9.7 1.3 1 1.6.7 1.2.6 2.5-.1 1.3-.7 1.3-.8.9-.9.7-.8.3-.8.2h-.9l-3.2-.3-1.3.2-1.1.5-1 .7-.7 1-.2.9v.6l.2.4.3.2v-.8l.1-.4.2-.5.4-.4.4-.4.6-.3.7-.2 1.1-.2 1.8.4 1.5.4h.9l1.3-.1.9-.2 1-.6 1.2-1 1-1.1.5-.8.3-.9.3-.9v-1.1l-.7-2.9-.8-1.4-.6-1.1-.9-1.6-.4-.9-.1-1 .2-.8.3-.9.5-.6.6-.4.3-.1z" class="st0"/><path d="m152.9 242-.4-.4-.2-.5-.3-.7-.1-1 .1-1.3.3-1 .5-.6.6-.3.4.2.7.3.6.6.3.5.3.6.3.9.1 1v.8l-.2.9-.4.9-.5 1-.4.6-.6.6-.7.5-.6.3-.9.4-.6.2-.9.1-1.1-.1-.9-.3-.9-.4-.9-.6-1.9-1.2-1.5-.9-2-.4-1.3.1-1.3.7-1 .7-.7.9-.3.8-.2.8-.1.9.3 2.1.1 1.2-.4 1.5-.5 1.1-.6.8-1 .6-.9.2h-.6l-.4-.2-.3-.3.1-.1h.1l.6.1.4-.1.6-.2.6-.5.4-.5.2-.6.2-.5v-.9l-.5-2.3-.1-1.1-.1-1.1.2-1.2.3-1 .5-1 .9-1.1.9-.7 1.1-.7.9-.3.9-.3h1.1l2.9.8 1.4.7 1.1.7 1.6.9.9.4.9.2.9-.2.9-.4.6-.5.4-.6z" class="st0"/><path d="M146.3 231.2c-.2.2-.6.2-.8 0a.6.6 0 0 1 0-.8c.2-.2.6-.2.8 0s.2.5 0 .8m8.5 8.6c-.2.2-.6.2-.8 0a.6.6 0 0 1 0-.8c.2-.2.6-.2.8 0s.2.6 0 .8" class="st1"/><path d="m154.1 223.2-13.5-13.6-.3.4-.3.5-.3.7-.2.9.2.8.3.9.5.8.6.8-.4 1-.3 1v.7l.1.7.2.8.3.8.6.9.6.8.6.7 7.8 7.9 3-3.2-.1-.4-.2-.7V225l.2-.7.3-.6zm7.9 8.2 13.4 13.6-.7.5-.6.3-.7.2-.8.1-.8-.2-.8-.3-.6-.4-.8-.7-.8.3-1 .2-1.1.1-1.3-.3-.8-.3-.8-.5-.8-.6-.8-.8-7.8-7.9 3.2-2.9.8.2.8.2h.8l.7-.2.8-.3z" class="st2"/><path d="M159.6 229.3c-1 1-2.6 1-3.6 0s-1-2.6 0-3.6 2.6-1 3.6 0 1 2.6 0 3.6" class="st0"/><path d="M154.1 228.6 129 255.4l.6.6 27.1-24.8-.5-.4-.8-.7-.8-.8z" class="st2"/><path d="M416.1 454.3c3.1 12.3-3.8 19.9-7.8 29.1 6.4-.7 11.3.4 14.9 1.3 1.2.4 12.6-22.5 8.4-36.3l-5.2-4.6z" class="st3"/><path d="m411.7 337.6-16.4.5-5.4 4.8-3 9-5.5-1.7-.7-2.7-5.5-1.1-1.5 6.3-3.2.9-3.1 5.1c-17 9.4-34.8 19.9-50.8 32.9l-11.8 4-11.8 12.7 32.3 8.1c23.2 8.3 41.1 6.6 55.8-.7l24.1 8.6c10.2-4.1 7.5.4 5.9-19.8l.4-12.7z" style="fill-rule:evenodd;clip-rule:evenodd;fill:#ee3524;stroke:#000;stroke-width:2.2677;stroke-miterlimit:10"/><path d="m308.9 368.7 3.8-.9 4.8-4.1-8.8 1.6zm12.3-6.6 5.9-3.5-6 1.5zm10.3-4.8 1.9-.8 3.1-1 3.2-3.3-7.2.8zm14.9-9.5 2.5-.8 4.9-3.5-1.9-.5-2.2-.1-3.5 1.4zm-57.8 28.1-1.3-.7 3.8-34.9 1.3 1.2.5 21 1 10.3c-.5 1.7-3 2.5-4.5 3.4zm8.4-3.7-1.6-12.5 1.6-1.2 4.6-1 .7-2.5-1-5.4 3.2-.2 1 .4.6 1 1-.1c2.5-7.4 1.3-14.5 2.3-21.7v-4.5l1.9-.1 1.9 15.2 1 8 2 .1 2.3.1 4.9-.8 1-1.1-.7-5.6 8-.8.6-.4.3-3.1-.9-10.2-.7-12.3-.4-10.9.9-12.5 2.8-.2 2.9 31.6.4 6.8 1 5.9.7.8 7.2-.3 1-.1 2.1 1.1.9-.1.7-2.8-.3-1.4.2-5.3.7-.8.1-4.1.3-14.3 2-.1 3.4 16.5.9 2.1-1.1.1 2.7 11.3-.8 2.1-1.6.8-2.2 2.2-.9-.9-8.2.5-1-.4h-.6l-1.5.5-.7.4-.2 1.7 1.8 6.5-1.4.4-1.3-.6-11.4.3-1.3 5.6-7.2.9-1.3-.7-1.5.4-.9 1.2v3.5l-11.3 1.6-1 .8.6 5.5-2.4 1-1 .5-.9.1-4 1.4z" style="fill-rule:evenodd;clip-rule:evenodd;fill:#ee3524;stroke:#000;stroke-width:2.2677;stroke-miterlimit:22.9256"/><path d="M354.1 377.4c-.5 12.3-1 23.9 0 35.6m5.5-44.4c-.5 9.1-1 17.6 0 26.2m-18.5-14.2c-.5 9.1-1 17.6 0 26.2m-5.8-20.3c-.5 10.8-1 20.9 0 31.1m-7.8-22.4c-.5 5.1-1 9.8 0 14.6" class="st6"/><path d="m375.8 354 .2 21.9 15.1.5 1.6-15.2L394 347h12.2l-.5 12.7 4.8 2" class="st7"/><path d="M376.3 372.7c-.9 15.3.1 28.4 0 41.5m7.3-56c-.5 6-1 11.7 0 17.4m20.3-4.2c-.5 16.3-1 31.6 0 47" class="st6"/><path d="M80 357c1.7-4.3 4.8-5.8 9.8-5 6.1.6 4.7-6.1 18.8-5.4 3.8-.1 6.7 3.3 10 3.9 3.9 4 7.7 2.1 11.2.5 2.5-2.1 5.2-2.5 7.4-1 2.8 1.3 4.1 5.6 7.2 5.1 16.2 1.5 14.9-6.8 23.1-15.1 5.1-4.9 10.1-1.3 14.7-.3 7.9 1.7 8.1-5.7 14.8-1.7 6.5 2.7 5.3 9.2 16 12.5 5.4 1.7 12.8-6.4 21.1 6l7.3 43.5-159.8 1z" class="st8"/><path d="M79.6 372.5c7.4-6.5 12.2-6.9 17.9-5.8 6.3 1.3 13-4.5 19.6-3.4 9 1.1 15.6-11.9 25.6-8.3" class="st7"/><path d="M85.4 387.3c6.2.5 12.5 2.8 18.9 1.6 6.1-1.2 13.3-2.8 19 .6 5.4 3.2 10.3 1.8 15.6 2.2 2.6.2 2.9-2.8 5.4-2 14.1 4.1 30.6 5.9 44.8 6.2 37.9 13.6 38.4 51.2 40.3 73.9-1.9 8.3-3.8 16.6-5.8 25-7.8-1.4-17-1.6-27.4-.5-8.3-5.5-18.2-7.4-31.7-1.4-11-4.4-23.9-6-41.3-1.4-10.4 3-22.6.8-35.5-3.8-10.2 5.8-20.5 11.5-30.7 17.3-2.9-13.4-5.8-26.9-8.6-40.3 12.4-25.9 24.7-51.6 37-77.4z" style="fill-rule:evenodd;clip-rule:evenodd;fill:#00a65e;stroke:#000;stroke-width:3.685;stroke-miterlimit:22.9256"/><path d="m85.5 436.8 1.8 45.3 7.1.4-7.3-51.8zm29.5 45.7 9.7-.3-34.2-75.4v7.2zm54 1.1-15.6-1.9-63.2-88zm35.9 1.8-12.8.2-101.4-93zm21.5-19.6-3.9 8.4-123.7-82.7zm19.4-8.6-11.4 3.9L103 392zm23.2-12-11.5 3.9-150-59.9zm10.3-16.7-14.8 7.5-140.3-46.5z" class="st0"/><path d="M38 488.6c4.1-1.3 8.4-.3 12.6-2.9 3.6-2.2 8.4-5.1 12.4-2.9 3.9 2.1 7.3-.5 11-1.6 1.3.4.3-2.7 1.5-2.2 7.2 2.8 17.4-1.6 25.4 2.7 8 4.4 17.9 2.4 26 .6 9.6-2.1 12.4 2.4 21.9.7 8.5-1.5 21.5 4.4 23.9 1.5 1.2-1.4 6-.1 9-.1 6.1 0 15.4 5.8 22.9.6 24.2-16.8 51 20.1 80.3 22.2 4.8-.5 10.9-23.7 17.6-15.9 7.5-5.3 18.9-3.8 28.3-7.2 3.4.3 6.7.6 10.1 1 2.7.8 5.4 1.6 8.2 2.4h9.1c6.6.6 13.1 1.3 19.7 1.9 3.7-.3 7.4-.6 11-1 3.5-1.1 7-2.2 10.6-3.4 5.6-1.1 7.1.5 12.7-.6 13.9 1 26.9 8 47.8 1.6-3.2 15.2-10.1 41.9-13.3 57.1-12.5 1.6-19.9-1.9-32.4-.3l-32.4 10.6c-7 0-18.5-2.1-27.5-.4-6.5-2.3-10.2-2.7-18.7-1.1-8.1 1.9-19.6-1.4-24-2.9-9.6 2.1-13.1.5-22.5-2.7l-41.8-48.4-21.1 59.3c-13.6-.6-27-8-35.5-3.5-12.2.5-29.9-.4-42 .1-13.6 2.6-62.7.1-76.3 2.6-20.5-7-19.8-13.6-27.8-25.7-2.2-13.9-4.4-28-6.7-42.1z" style="fill-rule:evenodd;clip-rule:evenodd;fill:#f99d27;stroke:#000;stroke-width:3.685;stroke-miterlimit:22.9256"/><path d="M57.2 557.2c8.2-.8 16.5.3 24.9-2.1 7.9-2.3 16.8-5.5 25-2.9 7.1 2.3 13.7 0 20.6-.5 1.7-.1 1-3.5 2.6-3.1 9 2.1 20.4 1.3 29.4.5l9.5-.9c7.2-.7 14.3-1.4 21.4-2.2 19.3-2.1 38.9 1.9 58.2 0 4-.4 7.7-6.9 11.7-7.3 12.4.4 22.8 8.4 35.2 8.8 5.4.2 10.6 1.8 16.1 1.9 11.9.3 20 3.2 32.1 3.4 3.1 0 7.5.5 10.7.6 4.8.1 17.6 13.6 15.9-2.5-.3-2.3 15.6 4.8 18.1 4.9 2.7.2-.8-6.6 1.9-6.4 21.9 1.9 40.5-5.4 61.2-4.8-16.6 63.4-136.3 77.5-201.2 128.3-47.8-47.2-165.6-51.2-193.3-115.7z" style="fill-rule:evenodd;clip-rule:evenodd;fill:#dde2e7;stroke:#000;stroke-width:3.685;stroke-miterlimit:10"/><path d="M282 562.2c-3.7-1.1-6.9-2-9.3-1-2.8 1.2-4.7 4.1-6.8 2-1-1-2.5.3-3.4.4-1.1.1-4.6.3-5.7-2.3-2.1-5.3-8.5 3.8-22.1 4.6-8.8-.1-13.2-5.7-26.5-1.5-6.4 2-19.9 2.1-29.4 3.3-12.2-.2-24.4-.5-36.6-.7-10.7 2.5-20 3.5-28.4 3.3-8.4-.1-15.8-1.4-22.6-3.3.6-2.8 1.3-5.7 1.9-8.5 17.2-.2 32.3-.6 44.3 0 15.8-.1 37.8-12.9 48.2-7.1 7.9 4.4 19.4-3.8 28.9-4.7 9 .7 18 1.5 27 2.2 16.7-1 12.7-10.4 54.3-1.6 20.2 4.3 34.1 3.9 49.3.6 4.5-1 17.9-2.5 18.1-1.2 3.8 5.2 39 0 64.3 0-3.9 1.2-7.7 2.5-11.6 3.7-10.6 4.6-21.2 9.1-31.8 13.7-15.3.8-26.7-3.2-45.7-4.2-8.6-.4-22.3 1.9-32.5 1.9-7.4-.1 34.1-7.4-23.9.4z" style="fill-rule:evenodd;clip-rule:evenodd;fill:#008cd1;stroke:#000;stroke-width:3.685;stroke-miterlimit:22.9256"/><path d="M162 619.6c11.6 4.3 22.9 10.7 33.8 14 11.3 3.5 23 7.4 31.8 15.2 8.1 7.2 15.4 10 23 14.9 3.2-2.1 3.7-7.3 7-8.8 16.9-7.9 35.7-16.6 51.5-23.3-3.4-1.3-8.8-10.4-10.1-3.5-2 10.2-19.1-5-26.9-4.2-9.1 3.3-18.1 2.1-27.2-3.6-12.4-3.6-41.5-4.5-44.6 3.2-10.2-5.9-9.6.5-16.8-1.8z" style="fill-rule:evenodd;clip-rule:evenodd;fill:#0082c4;stroke:#000;stroke-width:3.685;stroke-miterlimit:22.9256"/><path d="M265.7 589.1c9-.5 15.5 2.2 20.5 1.5 4.9-.6 9.3-.7 11.5 1.8 2.8 3.1 4.8 1 7.5-.4.5-.2-1.2-3.4-.8-3 3.1 3.1 10.2 7.3 16.1 6.8-1.3-2.8 5.1-3.8 6.9-3 4.7 2.2 16.4 9.3 16 4.9-.2-2.8 8.3-4.6 17-1.4 5.2 1.9 20.8 6.5 17.3 3-7.2-7.3 11.7-.1 15.9-.4L366.4 615c-36.9-10-33.5 2.3-41.6-3.8-1.9-1.4-5.8-.1-9.6.2 5.1-13.7-10.6 2.5-12.9.2-6.1-6.2-21.8-4.8-36-4.4-14.9.5-36.7 1.9-53.3 5.7-1.7.4-4 4.7-5.6 5.1-3.1.7-5.6-7.6-8.3 1.7-.6 1.9-5.1-1.6-7.4-3-19.2-11.6-7.5.5-11.2.6-2.2 0-6.8-2.2-9-2.2-7.3 0-13 3.4-19.8 2-10.9-2.3-16.8 1.2-24.5 1.4-11.9-4.5-29.9-12.2-36.5-18.8 7.4-.5 21.7-11.1 27.5-2.9 2.5 3.6 6.7.9 10.7 1.9 2.6.7 6.3-.5 7.8 1.1 4.1 4 8.1-1.8 13.7-2.3 9.3 7.1 4.5-7.6 13.7-.2 3.6 2.7 7.9 2.1 9.9-.9 7.3-.6-20.7-12.1 21.8-1.9 2.2-3.2 12 4.8 10.1 1-4.7-9.4 18.2-4.2 25.2-4.3z" class="st14"/><path d="M271.4 572.4c-2.4 0-4.8-.7-6.7.2-2.3 1.1-4 3.4-6.3.7-1-1.2-2.9-.7-4.2-.9-.9-.1-4.3-.2-5.4-2.9-2-5.3-10.7 4.1-14.7 2.9-3.9-1.2-10.8 0-15.5 0H211c-24.7-8.5-8.9 3.8-12 3.8l-12.7-6.2c-3.2 0-5.5 4.6-9.3 4.6h-7.7c-7.3-10.1-7.9 9.4-13.9 0h-1.5c-13.6-4.5-9.6 3.3-15.5 0-1.9-2.2-3.8 2.2-7.7 0l-3 1.6-3.4-1.9c-4.3-2.7-7.6 2.4-10.6 2.4H85.9l-1.5.7H56.5l-1.5.7v1.4h6c0 .7 1.5.7 3.1.7h9.3c-9.7 0 20.5 9.5 35.3 9.5 3.1-4 17.2 1.3 18.8 1.3h6.2c1.5 0 6.5-2.6 9.5-2.6l11.8 1.3h19.5c3.1 0 5.7 4 7.3 4 2.3.8 4 .8 5.1.5 3-.8 3.1-3.9 4.2-3.8 8.1-10.5 19.1-6.7 30.7-2.5l3.1-1.3H245c1.5 0 13.9.1 15.5 0 6.2-.6 7.4-1.3 10.4-1.4 34.4-2.1 54.2 4.3 88.3 2.1 47.6-3.2 33.2 4 77.9 1.8l1.4-10.6c-6.4-.8-16.9-7.3-20.9-4-12.8 10.8-26-5.6-39.7-5.8-3.6 0-11.8 11.5-11.2 5 .1-1.2-5.3.1-7.9.2-7.8.4-16-4.8-22.6-.2-3.9 2.8-10.2 3-18 2.3-12.9-.8-29.9-4.6-46.8-3.6z" class="st14"/><path d="m366.8 214.7-25.3 35.7-8.8-.2-1.6 1.7 58.8 39.6 22.2-30.8v-18.6z" class="st15"/><path d="M236.7 375.1c-4.7-5.6-5.3-11.7-4.9-17.6-4.5-3.5-4.8-5.9.2-7.9.6-3.2.2-5.5 2.2-8.2.7-3.9 3.8-6.2 7.9-9.3 6.8-2.7 13.8-1.7 20.3 0 4.3 1.7 7.6 5.6 10.1 11.3.4 2.4.7 5.5.1 8.1 3 .7 2.2 5.2-1.5 6.3.3 5.9-.9 14.7-6 17.7z" class="st0"/><path d="M123.9 316.4v-15.1l1.9-5.4v-18.5q-10.05 1.8-21.6-2.7l-9.3 8.5.8 4.3c5.7 5.3 11.4 9.9 18.2 13.1l8.5 15.6z" style="fill-rule:evenodd;clip-rule:evenodd;fill:#00ab67"/><path d="M338.4 107.4c-1.6-3.1-3.1-6.3-4.6-9.4 7.7-5.1 1.7-11.1 9.1-15.5C356.8 72 357 69.2 359.6 63.8c-20.7 9.5-15.4 15.9-34.5 23.7-2-1.8-3.9-5.2-5.8-7 2.6-7 5.2-14.2 7.9-21.3-5.5 9.7-11.6 4-17.4 15.4-2.5-1.7-5-3.4-7.4-5 4-5.6 5.9-9.4 4.5-16.7 1.2-13.2 9.1-10.5 7.4-23.4-4.1 11-9.5 9.6-13.3 15.7-3.1 5.2 1.3 8.6-8.6 18.6-2.4-.6-6.1-1.4-8.4-2.1-5.6-7.7-4.4-17 .8-25.5-16.5 8.5-10.5 14.2-14 23.8-2.5-.5-5-1-7.5-1.7-.8-6.1-3.6-12.4-4.3-18.3-.9-7.9 3.3-13.4-1.5-23.8.7 12.5-4.6 12-5.9 19.1-1.3 6.9 3.5 10.1-2.4 22.2h-7.4c-9.4-5.1-2.6-13.6-10.8-25.1 4.2 11.6-6.1 19.3-2.1 26.3-2.8.7-5.6 1.5-8.3 2.1-3.7-10.6-10.2-8.8-11.4-15.4-1.6-8.7-1.6-13.6-8.1-17.6-.6 31 3.6 15.8 8.7 37.5-2.8 1.3-3.5 2.5-6.2 3.8-12.5-4.5-12.2-16.7-19.2-17.1 8.1 13.8-3.6 11 8.3 23.3-2.5 1.8-4.6 3.6-7 5.3-19.2-6.6-18.9-23.9-29.8-24 6.8 8.1 3.8 12.6 6.7 17.6 3.8 6.7 8.8 2.8 13.1 16.1-2.6 2-3.6 4.7-6.2 6.6-4.7-8.2-10.1-3.3-17.3-6.9 1.3 5.8 8.4 6.6 8.5 17.1H177v16.3h144.1v-16z" style="fill-rule:evenodd;clip-rule:evenodd;fill:#e82c2e;stroke:#000;stroke-width:3.4016;stroke-linejoin:round;stroke-miterlimit:22.926"/><path d="M249.2 696.7c66.4-55.3 127.3-56.5 188.7-112.3 27.6-22.7 41.4-64.3 47.2-116.6-41.6-9.3-51.1-30.7-51-68.5V216.4l19.5.1V109.2H320.3v15.7H177.1v-15.7H43.7v107.4l19.5-.1v182.9c.1 37.7-9.3 59.1-51 68.5 5.8 52.3 19.6 93.8 47.2 116.6 61.5 55.7 123.4 56.9 189.8 112.2m0-28.7c-61.3-50.1-116.8-44.7-171.7-95.6C53.2 551 39.6 517 37.3 482.7c29.9-12.8 47.9-37.2 47.6-67.6V196.9l-19.5.1v-64.6h91.4v20.3h183.7v-20.3h91.4V197l-19.5-.1v218.2c-.3 30.4 17.7 54.8 47.6 67.6-2.3 34.3-15.9 68.3-40.2 89.6-54.9 51-109.3 45.5-170.6 95.7" style="fill-rule:evenodd;clip-rule:evenodd;fill:#f99d27"/><path d="m351.5 471.5.3-.9z" class="st1"/><path d="M129.5 349.9c-4.1-1.3-4.7 1.2-9-2.7l-2.1-1-2.5-2.2-3.2-2.5-1.3-1.3-.3-.6-4.3-4.2-2.1-3.1c-.5-1.5-.3-2.4.2-3.1l6.5 5.8 1.6 1.5 1.5.4h1.1l-7-6.3-1.5-1-2.9-3-.3-1.9.6-.6 9.2 6.9 3.8 3.4.5-.5.5-.5-13.8-11.2.1-1.6.5-2.5 2.5 1.6 3.5 3 3.7 3.1 4.9 3.9 1.1.5.3-.8-5.4-4.4-2.5-2.2-6.6-5.6 2.5-1 3.8 1.9 13.5 11.5.3-.7-6.3-5.5 2.3-1.6 2.5.7 3.3 2.7 4.4 4.7.8 2.1.2 1.3.7 2.7.5 1.6c1.3 1.2.8 1.3 2.5 2.1-2.5 4.1-5.6 7.2-7.5 10.8z" class="st19"/><path d="m346.8 321.1-5.4.1-.6 1.1-1.6-1.4.6-.6.8-1.3.6-.6 1.7.7 2.9-.7.6-.5 1.6 1 .4.5-.4 1.6zm-25.4 1.4-7.7.6-1.3.1.4-1.8c3.8-2.6 8-.8 11.9-1.8l2.5.7.1 1-.5 1zm38-14.5-1.2-1.4-.9.7-1.6-.1 2.6-4.2 1.9.7v.5l1.4.3 2.8.7 3.1-1.1 3.8.4.9-.1 1.7-.6c3-2.6 5.9.3 9.1-.2l1.4-.3 1.3 1.2-1.1 1.5H381c-4.5-2.1-9.1 2.9-13.6.8l-1.5.7-1.7.3-2.3-.3zm-22.6-15.5-.3-.5-.2-1.8.3-2.9 1.2.3 1.2.1.5 1.3 1.4-.6h.7l.8.7h.9l1.3-1.4 1.2-.1 2.6.1.5-.1h1.6l4.3.4c3.1 1.9 6-2 9-1.3l2.8 1.3.9-.3h.8l2.1-.1 2.3 1.4.9-.3c2.4-2.3 4.9-.6 7.3-1.1l1.2 1.4-.5 1.3c-3.9-.6-7.8 1.5-11.7.1l-3.1.6h-2.4l-1-1.1-1.9-.3-.7.3c-2.3 2.9-4.7.4-7 .3l-2.7-.6-.7.6-1 .1h-3.8l-2 1.7-.3.5-2.4-.8-1.2.5h-1.4l-.1-.6-.9 1.3zM321.5 93.7l-2.4 3.8-1.8-2.1zm-9.7 1.5 1.5 1.8 2.2-.8 2.6 3-1.3 1.9 1.6 1.9 5.8-9.9-1.7-2zm-2.5-2 1.7 1.5 7.2-8-1.7-1.5zm-4.9-11c.5-.7 1.1-1.2 1.7-1.6s1.2-.7 1.8-.8 1.3-.1 1.9.1q.9.3 1.8.9c.7.5 1.2 1.1 1.6 1.8.3.7.5 1.4.5 2.1s-.2 1.4-.6 2l-1.8-1.4c.5-1.2.3-2.1-.7-2.9-.7-.5-1.5-.7-2.3-.4s-1.6.9-2.3 1.8v.1c-.4.5-.6 1-.8 1.6-.2.5-.2 1.1-.1 1.6s.4.9.8 1.2c1.1.8 2.1.8 3.2-.1l1.8 1.4c-.6.5-1.2.9-1.9 1.2-.7.2-1.4.3-2.1.2q-1.05-.15-2.1-.9c-.8-.6-1.3-1.3-1.7-2-.4-.8-.5-1.6-.3-2.6.2-.9.6-1.9 1.3-2.9.1-.2.2-.3.3-.4m-6.3 2.6L300 86l5.9-9-1.9-1.2zm-5.6-3.1 4.2-7.8-2.9-1.5.9-1.7 7.7 4.1-.9 1.7-2.9-1.5-4.2 7.8zm-10.2-7.8c-.7 2.3.3 3.9 3.2 5 .3.1.6.2 1.1.3.4.1.9.1 1.4 0q.75-.15 1.5-.6c.5-.3.8-.9 1.1-1.6.2-.6.3-1.1.2-1.5q-.15-.6-.6-1.2t-1.5-1.2q-.3-.15-.9-.6c-.4-.3-.8-.6-1.3-.9-.5-.4-.6-.8-.4-1.3.2-.4.5-.6.8-.7.4-.1.8 0 1.3.2 1.3.5 1.8 1.2 1.6 2.3l2 .7c.1-.4.2-.8.2-1.2s-.1-.9-.3-1.3q-.3-.6-.9-1.2c-.4-.4-1-.7-1.8-1s-1.5-.4-2.2-.4-1.2.2-1.7.6-.8.8-1.1 1.5c-.2.7-.3 1.3-.2 1.8s.4 1 .8 1.3c.4.4.9.8 1.5 1.1q.3.15.9.6c.5.3.8.5 1 .7.2.1.3.3.4.5s.1.5 0 .8c-.3.8-1.2 1-2.7.4-.4-.1-.7-.3-.9-.5-.3-.2-.4-.5-.5-.8s-.1-.7 0-1zm-9.8-3.2 2-6.9 2.2.6-1.9 6.7c-.1.5-.2.9-.1 1.3s.3.7.5.9.5.4.8.4c1.4.4 2.3-.1 2.6-1.4l2-6.8 2.2.6-2 6.8c-.2.7-.5 1.3-.9 1.7s-.8.7-1.3.9-1 .3-1.5.2c-.5 0-1.1-.1-1.7-.3-.7-.2-1.4-.5-1.9-1-.6-.4-.9-1-1.2-1.6-.1-.4-.1-1.2.2-2.1m-8.7-1.9 2.1.4c-.1.6-.2 1-.2 1.4 0 .3 0 .6.2.9.1.2.4.4.7.5q.6.15.9 0c.2-.1.4-.2.5-.4q.15-.3.3-.9l1.4-7.5 2.2.4-1.5 7.7q-.15.9-.6 1.5c-.3.4-.7.8-1.3 1-.5.2-1.2.2-2 .1-.6-.1-1.2-.3-1.6-.5s-.7-.5-1-.9c-.2-.4-.3-.8-.4-1.3 0-.5 0-1.1.2-1.9zm-11.3 3.5.1-4.1-3.5-6.8 2.6.1 2.1 4.8 2.3-4.6 2.6.1-3.8 6.6-.1 4zM235 67.9c.1 1.2.5 2.1 1 2.8q.75 1.05 2.4.9a2.64 2.64 0 0 0 2.4-2.2c.1-.6.2-1.1.1-1.7-.1-1-.4-1.8-.8-2.6-.5-.8-1.3-1.1-2.5-1-.4 0-.9.2-1.3.5a4 4 0 0 0-1 1.2q-.45.9-.3 2.1m-2.1 1v-.4c-.1-1.1 0-2.2.2-3.1.3-.9.8-1.6 1.5-2.2s1.7-.9 2.9-1.1c.7-.1 1.3 0 1.9.1s1.2.4 1.7.8 1 1 1.3 1.7c.4.7.6 1.6.7 2.5s.1 1.7-.1 2.4-.5 1.3-.9 1.9c-.4.5-.9 1-1.5 1.3q-.9.45-2.1.6c-1 .1-2 0-2.8-.4s-1.5-.9-2-1.7c-.4-.6-.7-1.4-.8-2.4m-8.6 3 .1.3q.3 1.05.6 1.8c.2.5.5.8.9 1 .3.2.8.4 1.2.4.5 0 1 0 1.7-.2q1.2-.3 1.8-.9c.4-.4.7-.9.8-1.4s.1-1.1-.1-1.7l-1.8-7.6-2.2.5 1.7 7.4c.1.4.1.7.1.9q0 .3-.3.6c-.2.2-.4.3-.8.4s-.6 0-.9-.1c-.2-.2-.4-.4-.5-.7s-.3-.8-.4-1.3zm-6.5-2.4V74l2.6-.8zm-2.4 9.5.5-11.4 2.5-.8 6.8 9.2-2.4.7-1.3-1.9-3.8 1.2-.1 2.3zm-7.5 1.8-1.4-2.6 2.6-1.4c.4-.2.7-.3 1.1-.2.4 0 .7.3.9.7.2.5.3.9.1 1.2s-.4.6-.8.8zm-3.3-6.2 1.1 2.1 2.4-1.3c.4-.2.7-.5.8-.8s.1-.6-.1-.9-.4-.5-.7-.6-.7 0-1.3.3zm6.6 6.6c.5-.3 1-.6 1.4-.9s.6-.7.8-1.1q.3-.6.3-1.2c0-.4-.1-.9-.3-1.4-.3-.6-.7-1-1.2-1.3s-1-.4-1.6-.3q.9-1.05 0-2.7c-.3-.4-.6-.7-1-1-.4-.2-.9-.3-1.4-.3s-1.1.2-1.7.5l-4.7 2.5 5.1 9.5zm-14.4-1.3 3.6 2.7-2.2 1.6zm.7 9.8-3.1-11 2.1-1.5 9.3 6.6-2 1.4-1.8-1.4-3.3 2.3.6 2.3zm-9.7.2 2.1-1.9c.4-.4.7-.8.7-1.1 0-.4-.2-.7-.5-1.1-.3-.3-.6-.4-.9-.5-.4 0-.7.1-1.1.5l-2.1 1.9zm2.4 6 1.6-1.5-2.8-3.1 1.8-1.6q.6-.45.9-.6c.3-.1.5 0 .7.1s.4.3.7.6c.2.2.4.5.7.7l.7.7c.2.2.4.3.7.5l1.9-1.7-.2-.2c-.2.1-.4.1-.6-.1-.2-.1-.5-.4-.8-.7-.1-.1-.2-.2-.3-.4l-.3-.3c-.4-.5-.8-.8-1.2-1s-.9-.1-1.4.1c.2-.3.3-.7.3-1 0-.4 0-.7-.2-1.1-.1-.3-.3-.7-.6-1-.4-.4-.8-.7-1.3-.8-.5-.2-1-.2-1.6-.1s-1.1.4-1.7.9l-4.1 3.7zm-4.5 4.7-6.7-5.8-2.1 2.4-1.4-1.3 5.7-6.6 1.4 1.2-2.1 2.5 6.7 5.8zm84.5 13.5v-11.4h2.4v9.4h5.7v2.1h-8.1zm-6.6-8.8-1.4 4.6h2.9zm-5.4 8.8 4.1-11.4h2.8l4 11.4h-2.6l-.7-2.4h-4.2l-.8 2.4zm-3.2-11.4h2.4v11.4H255zm-11.4 5.5c0-.9.2-1.7.4-2.4.3-.7.6-1.3 1.1-1.8s1-.9 1.6-1.1c.6-.3 1.4-.4 2.1-.4.9 0 1.7.2 2.5.5.7.4 1.3.8 1.7 1.5.4.6.7 1.3.7 2.1h-2.4c-.3-1.3-1.1-2-2.4-2-1 0-1.7.4-2.2 1.1s-.8 1.7-.8 3v.1q0 1.05.3 1.8c.2.6.5 1 .9 1.4.4.3.9.5 1.5.5 1.4 0 2.3-.7 2.6-2.2h2.4c-.2.8-.4 1.5-.9 2.2-.4.6-1 1.1-1.6 1.5q-1.05.6-2.4.6c-1 0-1.9-.2-2.7-.7-.8-.4-1.4-1.1-1.9-2s-.7-2-.7-3.3c.2-.2.2-.3.2-.4m-9.6-.1c0 1.2.2 2.3.7 3.1q.75 1.2 2.4 1.2 1.05 0 1.8-.6c.5-.4.8-.9 1-1.5q.3-.9.3-1.8c0-1-.2-2-.6-2.9s-1.3-1.3-2.6-1.3c-.5 0-.9.1-1.4.4-.4.2-.8.6-1.1 1.2s-.4 1.4-.5 2.2m-2.3.9v-.4c0-1.2.2-2.3.6-3.2s1-1.6 1.8-2.2c.8-.5 1.9-.8 3.1-.8.7 0 1.4.1 2 .3s1.2.6 1.7 1.1.9 1.1 1.2 1.9.4 1.7.4 2.8a6.6 6.6 0 0 1-1.5 4.4c-.5.5-1.1.9-1.7 1.2-.7.3-1.4.4-2.2.4-1.1 0-2.1-.2-2.9-.7s-1.4-1.1-1.9-2c-.4-.8-.6-1.8-.6-2.8m-10.3 1.6h2.3c0 .4.1.8.3 1.1s.5.5.8.6.7.2 1.1.2c1.7 0 2.5-.5 2.5-1.4 0-.3-.1-.6-.3-.8s-.4-.3-.6-.4q-.3-.15-1.2-.3c-.5-.1-.8-.2-1.1-.3-.8-.1-1.4-.3-2-.6-.5-.2-1-.6-1.3-1a3.5 3.5 0 0 1 0-3.6q.45-.75 1.5-1.2c.6-.3 1.4-.4 2.3-.4q1.2 0 2.1.3c.6.2 1 .5 1.4.9.3.4.6.8.8 1.2s.2.9.3 1.3H228c-.1-1.1-.9-1.7-2.4-1.7-.5 0-1 .1-1.4.3s-.6.5-.6 1q0 .9.9 1.2c.6.1 1.1.3 1.6.4s.9.2 1.1.3c.8.2 1.5.4 2 .7.5.2.8.5 1.1.9.2.4.3.9.3 1.6 0 .8-.2 1.4-.5 2-.3.5-.8.9-1.3 1.2s-1 .4-1.4.5c-.5.1-.8.1-1.1.1-3.2-.3-4.8-1.6-4.9-4.1" class="st0"/><path d="M162.3 87.1c-5.8 1.4-12.3-4.1-22.2-7-5.6-3.9-12.6-7.7-28.4.1-10.3 2.7-19.1 3.1-32.3 21.5h-43v125.2l18.5-.1v22.7c-18-1.5-31.9 6.7-37.6 26.9-2.5 20 4.9 35.1 20.1 42-22.2 10.9-27.3 31.9-12.2 43.4-7.7 10.6-6.5 31.6 5.1 36.8-6.3 15.4-9.5 33.2-8.1 54.9-6.2 3.7-12.4 5.6-18.8 5.8 1.3 26.3 7.3 55.8 15.9 78.5-11.2 25.8 4 55.6 32.4 49.1 60.7 60 122.1 57.7 197.5 121.3C324.6 644.7 385.1 647 445.8 587c28.4 6.5 43.6-23.3 32.4-49.1 8.6-22.8 14.7-52.2 15.9-78.5-6.4-.2-12.6-2.1-18.8-5.8 1.5-21.7-1.8-39.5-8.1-54.9 11.6-5.2 12.8-26.2 5.1-36.8 15.1-11.5 10.1-32.5-12.2-43.4 15.2-6.9 22.6-22 20.1-42-5.8-20.2-19.6-28.4-37.6-26.9v-22.7l18.5.1V101.7h-46.8c-7-14.4-14.9-7.4-19.8-12.5-4.2-4.3-10.4-3.2-14.3-2.7-10.1 1.4-16.9 4.7-30.1 14-6.7-12.9 28.6-24.3 13.8-48.5-11.4 12.8-21.3 8.5-36 26.8-1.9-10.8 14.7-19.6.1-33.5 2.4 11.6-8.3 8.3-14.2 18.5-.3-18.6 16.1-21.4 0-46.8-.7 18.3-16.4 12.1-23.6 39.8-7.4-10.8 8-23.8-11.5-33.2 4.1 16.9-9.1 12.6-11.1 24.6-5.2-14.3 10-27.5-17.3-43.4 5.9 20.4-10.7 26.4-6.1 45.7-5.1-20.3-11.1-18.5-16.5-27.8 1.3 12.5-7.2 12.7-6 27.2-16.8-10.5-3.2-25.7-30-30.6 8.1 17.8-2.5 27.3 6.4 39.3-3.3-8.8-10.7-14-26.4-10.5 14.2 11.1 5 16.1 10.1 23.3-14.5-5.8-10.4-25.2-39.5-19.2 10.8 4.3.6 20.2 20 34.9z" style="fill-rule:evenodd;clip-rule:evenodd;fill:none;stroke:#000;stroke-width:4.252;stroke-miterlimit:22.926"/><path d="M249.3 696.2c66.4-55.3 127.3-56.5 188.7-112.3 27.6-22.7 41.4-64.3 47.2-116.6-41.6-9.3-51.1-30.7-51-68.5V215.9l19.5.1V108.6H320.4v15.7H177.2v-15.7H43.9V216l19.5-.1v182.9c.1 37.7-9.3 59.1-51 68.5 5.8 52.3 19.6 93.8 47.2 116.6 61.4 55.8 123.4 57 189.7 112.3zm0-28.8c-61.3-50.1-116.8-44.7-171.7-95.6-24.2-21.4-37.8-55.4-40.2-89.6C67.3 469.4 85.3 445 85 414.6V196.4l-19.5.1v-64.6H157v20.3h183.7v-20.3h91.4v64.6l-19.5-.1v218.2c-.3 30.4 17.7 54.8 47.6 67.6-2.3 34.3-15.9 68.3-40.2 89.6-54.9 51-109.3 45.5-170.7 95.6z" style="fill-rule:evenodd;clip-rule:evenodd;fill:none;stroke:#000;stroke-width:3.532;stroke-miterlimit:22.926"/><path d="M451.4 451.5c-.1-19.5-1.9-37.3-10.2-59.3l10.2 1.6c8.6 27.5 9.2 42.8 5.4 63.6z" class="st22"/><path d="M454.4 290.3c-14.7 2.2-15.1 9.9-11 16.9 3.8 6.9 13.7 3.4 21.2-2.4 10.9-9.6 10.1-26.4 3.7-38.8-11.6-14.3-31.9-15.5-45.8-2.3-11.7 9.3-13.5 28.6-9.8 41.9 4.2 19.3 9.1 47.5 23.1 64 2.8-1.7 7-3.4 9.9-5-7.8-14.8-14.4-30.4-17.9-48-4.9-17.6 13-34.5 26.6-26.3z" class="st23"/><path d="M465.9 352.1c3.7-1.9 4-5.3 5.8-8.4-1-8-7.9-18.3-18-24.3-4.2-.9-10.2.9-12.8 4.4 8.3 9.4 16.7 18.8 25 28.3z" class="st24"/><path d="M441.1 288.6c-14.7 2.2-14.5 13.9-10.4 21 3.8 6.9 17.7 7.3 25.2 1.6 10.9-9.6 11.4-25.1 5-37.4-11.6-14.3-32.6-15.5-46.6-2.3-11.7 9.3-14.2 28.6-10.4 41.9 4.2 19.3 16.9 39.3 26.4 56.2 2.8-1.7 5.7-3.4 8.5-5-7-14.8-17-32.1-20.5-49.7-2.4-9.2.2-18.5 5.5-23.8 4.5-4.6 11-6.2 17.3-2.5z" class="st23"/><path d="M451.3 395.1c8.6 23.7 9.2 40.9 7 61.3 1.2 1.3 6 3.4 8.1 4.1 3.8-20.8 1-41.9-7.5-69.4z" class="st22"/><path d="M428 320.1c-14.3-.3-14.3 7-5.7 14.1.5.6-2.5.4-1.6 1 8.3 5.7 30.2 13 33.5 26.3 3.2 1.2 6.5 2.4 9.7 3.7 7.2-17.5-.8-28.2-8.7-35.1-8.8-7.1-16.2-9.2-27.2-10" class="st25"/><path d="M439.4 334.6c4.6 1.5 8.5 4.5 7.8 7.8-1.4 4-7.4 3-11.3 1.3m1.2-4.4 5.7 2zm-9.5-.3c5.2-1 8.1-4.4 9.9-11.1-1.8 6.7-4.6 10-9.9 11.1" class="st26"/><path d="m429.6 327.1.6-.6z" class="st27"/><path d="M431.2 384.5c1-13.3 8.5-21.9 19.5-23.6 10.2-.4 16.4 4.9 17.7 14.2 2.3 13.4-9.5 21.3-19.1 15.1-2.8-5-2.6-11.8 4.9-13.7-5.8-2.2-9 .5-12.1 10.1-3.7.5-7.3-.1-10.9-2.1z" class="st22"/><path d="M440.7 384.2c-8.1 5.2-14 6-20.4-1.4-3.5 6.8-1.4 13.3 5.3 13.7-2.2 2.9-3.4 8.3 3 11.5 2.4-7.2 4.3-12.4 12.7-15.8 0-2.3-.5-5.8-.6-8z" class="st24"/><path d="M424.7 385.7c-.6-13.3 6.1-20.1 17.1-21.8 10.2-.4 16.4 4.9 17.7 14.2 2.3 13.4-9.5 21.3-19.1 15.1-2.8-5-2.6-13.2 4.9-15.1-4.7-2.2-10.8.3-10.4 8.4-4.7 1.6-6.3 2.9-10.2-.8zM44.4 451.5c.1-19.5 1.9-37.3 10.2-59.3l-10.2 1.6c-8.6 27.5-9.2 42.8-5.4 63.6z" class="st22"/><path d="M41.5 290.3c14.7 2.2 15.1 9.9 11 16.9-3.8 6.9-13.7 3.4-21.2-2.4-10.9-9.6-10.1-26.4-3.7-38.8 11.6-14.3 31.9-15.5 45.8-2.3 11.7 9.3 13.5 28.6 9.8 41.9-4.2 19.3-9.1 47.5-23.1 64-2.8-1.7-7-3.4-9.9-5 7.8-14.8 14.4-30.4 17.9-48 4.8-17.6-13.1-34.5-26.6-26.3z" class="st23"/><path d="M30 352.1c-3.7-1.9-4-5.3-5.8-8.4 1-8 7.9-18.3 18-24.3 4.2-.9 10.2.9 12.8 4.4-8.4 9.4-16.8 18.8-25 28.3z" class="st24"/><path d="M54.8 288.6c14.7 2.2 14.5 13.9 10.4 21-3.8 6.9-17.7 7.3-25.2 1.6-10.9-9.6-11.4-25.1-5-37.4 11.6-14.3 32.6-15.5 46.6-2.3 11.7 9.3 14.2 28.6 10.4 41.9-4.2 19.3-16.9 39.3-26.4 56.2-2.8-1.7-5.7-3.4-8.5-5 7-14.8 17-32.1 20.5-49.7 2.4-9.2-.2-18.5-5.5-23.8-4.5-4.6-11-6.2-17.3-2.5z" class="st23"/><path d="M44.5 395.1c-8.6 23.7-9.2 40.9-7 61.3-1.2 1.3-6 3.4-8.1 4.1-3.8-20.8-1-41.9 7.5-69.4z" class="st22"/><path d="M67.9 320.1c14.3-.3 18 6.3 9.4 13.4-13.9 12.4-32.4 13.6-35.6 28-3.2 1.2-6.5 2.4-9.7 3.7-7.2-17.5.8-28.2 8.7-35.1 8.8-7.1 16.2-9.2 27.2-10" class="st25"/><path d="M56.5 334.6c-4.6 1.5-8.5 4.5-7.8 7.8 1.4 4 7.4 3 11.3 1.3m-1.2-4.4-5.7 2zm9.4-.3c-5.2-1-8.1-4.4-9.9-11.1 1.9 6.7 4.7 10 9.9 11.1" class="st26"/><path d="m66.2 327.1-.6-.6z" class="st27"/><path d="M64.7 384.5c-1-13.3-8.5-21.9-19.5-23.6-10.2-.4-16.4 4.9-17.7 14.2-2.3 13.4 9.5 21.3 19.1 15.1 2.8-5 2.6-11.8-4.9-13.7 5.8-2.2 9 .5 12.1 10.1 3.6.5 7.3-.1 10.9-2.1z" class="st22"/><path d="M55.1 384.2c8.1 5.2 14 6 20.4-1.4 3.5 6.8 1.4 13.3-5.3 13.7 2.2 2.9 3.4 8.3-3 11.5-2.4-7.2-4.3-12.4-12.7-15.8.1-2.3.5-5.8.6-8z" class="st24"/><path d="M71.2 385.7c.6-13.3-6.1-20.1-17.1-21.8-10.2-.4-16.4 4.9-17.7 14.2-2.3 13.4 9.5 21.3 19.1 15.1 2.8-5 2.6-13.2-4.9-15.1 4.7-2.2 10.8.3 10.4 8.4 4.7 1.6 6.3 2.9 10.2-.8z" class="st22"/><path d="M75.6 556c7.4 2.9 13.3 4.3 46.4 16.1-26.9-3.4-43.8-6.9-62.9-16.4-7.9-4.2-18.2-4.4-18.8 6.4 12.3-5.7 19.3 6 15 11.8-9.3 11.8-22.3 6.1-28.6-2.3-6.4-9.1-1.2-22.2 10-25.7 14.5-2.9 25.7 2.6 38.9 10.1z" class="st23"/><path d="M50.6 477.9c1.8 10.5 4 21.3 9.9 32.3-1.3-11.7 7.8-17.4 16.1-15.5 14.8 4.2 15.1 22.7 1.7 21.8.9-8.1-5.6-8.7-7.3-3.8-5.5 17.6 23.7 49.3 56.8 61.1-26.9-3.4-50.2-14.2-69.3-23.6-7.9-4.2-19.2-4-20 4.8 12.3-5.7 19.3 6 15 11.8-10.6 11.1-22.3 6.1-28.6-2.3-6.4-9.1-1.2-22.2 10-25.7 14.5-3 25.7 2.5 39.1 9.9-15.2-13.9-26-32.6-35.8-52.2-1.3-3.7-1.9-7-2.3-10.7.7-.5 2.6-1.8 3.4-2.2 3.1 8.8 6 14.6 10.8 21-2.3-5.9-4.7-15-6.2-23.6 1.7-.9 4.9-2.2 6.7-3.1zM421.9 556c-7.4 2.9-13.3 4.3-46.4 16.1 26.9-3.4 43.8-6.9 62.9-16.4 7.9-4.2 18.2-4.4 18.8 6.4-12.3-5.7-19.3 6-15 11.8 9.3 11.8 22.3 6.1 28.6-2.3 6.4-9.1 1.2-22.2-10-25.7-14.5-2.9-25.7 2.6-38.9 10.1z" class="st23"/><path d="M447 477.9c-1.8 10.5-4 21.3-9.9 32.3 1.3-11.7-7.8-17.4-16.1-15.5-14.8 4.2-15.1 22.7-1.7 21.8-.9-8.1 5.6-8.7 7.3-3.8 5.5 17.6-23.7 49.3-56.8 61.1 26.9-3.4 50.2-14.2 69.3-23.6 7.9-4.2 19.2-4 20 4.8-12.3-5.7-19.3 6-15 11.8 10.6 11.1 22.3 6.1 28.6-2.3 6.4-9.1 1.2-22.2-10-25.7-14.5-3-25.7 2.5-39.1 9.9 15.2-13.9 26-32.6 35.8-52.2 1.3-3.7 1.9-7 2.3-10.7-.7-.5-2.6-1.8-3.4-2.2-3.1 8.8-6 14.6-10.8 21 2.3-5.9 4.7-15 6.2-23.6-1.8-.9-5-2.2-6.7-3.1z" class="st23"/><path d="M129.5 97.4h-24.7l-37.2 56.8-.4 40.2 20 .1c0 10.3.2 44.2-.7 60.2-.7 11.8 6.7 9.9 9.8 10.5 3.1 5 12.7 12.5 23.6 11.9 5.3-.3 13.4-1.6 16.3-8 2-3.5 3.8-7.1 3.3-11.4 1.6-2.4 1.6-4.9 0-7.3 2-1.6-.2-6.2-5.5-6.6-.2-6 3.7-12.8 3.5-18.8l15.1-16.3L189 217l11.4 5.3 26.7 7.3 4 14.7 4 14.7 22.7-.7 12-4.7 2-10.7 10-2c10.5 2 19.3-2.3 27.4-9.3l10.7-8.7q10.5 1.5 23.4-9.3l3.4 3.8c.1.7 2.1-4.1 5.7-5 6-1.5 13.5.9 14.5 1.7l30 24.9c-13.3 1.9-10.2-6.9-39.8 5.8l-5.4 3.9.2 3.8 2.9-.6 2.3 3.5-13.8 3.6c-1.7 5.2.8 8.8 7.3 10.7-1.8 2.7 1.3 5.3 9.3 8 .5 4.3 5.4 6.4 18.1 2.7 7.1-5.3 14.9-10.1 22-15.4 5.8-3.3 5.1-6.1 10.8-9.5l.1-60.9 19.3.2.2-40.1-11.5 3.3-3.3-5.2-1.3-17.4 1.7-3.2-3.2-13.1-15.4-15.7h-20.7l-17.2 19.3 6.2 13.7 4.3 16.2 5.2 3.3 1.4-2.2 7.5 10.3-11.1 9.2-19.3-3c-10.3-.9-21.4 6.4-33.2 16.2q-12.45 2.55-14.7 11.1c-14.4.8-24.3 4-29.9 9.6l-7.3 3.8-13 7.1-4.6-2q-1.8-10.8-15.3-6.9c-5.2-11.5-24.7-14.2-37.7-16.9l-17.5-11.6-17.7-5.9-17.4-8.6-21.5-.8 19.8-41.1z" class="st28"/><path d="M119.3 298.7h4.2l1-.5.3-2.7v-5.2l.2-4.9-.3-7.3c-9 1.5-13.4.5-19.5-2.9l-.8 1.1-4.9 3.7-1 1.3-1.6 1.4h-.5l-.5 1.9.5 1.3 7.8 7.3 1.8.5 2.6 2.1 4.2 2.2zm2.6-3.2-1.6-.3-.3-1.1v-.6l-8.6-5.2.5-1.6 5 1.4 5.2 3.9.9.9.6.9zm-17.5-9.9-1-.6-3.9-1.7.5-.8 4 .3 2.3.5v.7l-.6 1.6zm16.9 26.6.9.3.7-10.8-7.3-.5 1.4 2.2zm.6 6L117 308l-1.9-2.6v-.6l-1-1.3v-.5l-1-1.4-.3-.9-1.9-1.3-2.3-.4-3.7-3.1-4.5-2.6-2.3-1.7-.3-.9-1.7-.7-1.9-2.2-.2-.8.3-5.6 1.6-1.7 7.2-5.6c-1.4-1.1-7.8-7.1-8.5-8.5l-5.4-1.6-2.2-1.4.7-1.7 3.4 1.7 5 1.4c4.7 7.2 12.5 10.8 20.3 12.2 9.2.6 20.6-4.7 18.2-8.3-2.9 1.9-5 2.7-8.2 2.9-2.4-.1-3-2.6 0-2.7 3.8.3 12.2-3.4 11.9-7.5-3.4 1.9-6.3 3.5-12.5 3.3-1.3-.2-2.3-2.2.2-2.3 6.7-.1 9.4-1.5 12-3.4 4-2.5 2.3-6.3-1.1-4.4-3.9 1.4-6.2 2.7-9.6 2.6-2.4 0-2.2-1.5.3-1.9 4 .1 7.5-2 11-3.8 2.7-1.7.7-5.5-2-3.9-10.7 4.9-16.8.9-19.9-1.7l-.6-2.6.7.2 1.3.6.3.4 1.4-1.9c-7.8-5.2-15.4 2.3-23.3-1.7l-7.5-2.8 12.2-10.3.5-.6.5-.6v-.9c-1-5.4 4.5-10.5 10.7-8.2l8.8-7.2-2-5 2 1.4 1 .7 1.5.2 9.6-8.2-2.5 46.3 6.3-20.1c9.8-12.7 9-14.4 17.6-17.5l9 2.4 15.6 3 4 1.3h4.4c3.9 3.3 8.3 5.9 12.5 7.2l2.6 1.3 20 5.6 3.4.4-.2-4.6c1.9-4 1.6-7.6 2.6-11.5l4.2-4.2c-1.6-3.3-4.8-5.2-7.1-6.3l-2.1-1.3c-6.8-2.3-13.9-4.9-20.6-6.3l-7.4-.8-4.9-4-3.1-2.3-6.7-4.2-.6-.7-5.2-1.9-10.4-3.4-2.3.4-2.6-1.5-.6-1.6-4.6-1.9-1.1-1-4.4-1.6c-3.7-3-7.8-1.7-11.7-2.6l-12.1-.4-1.9.4-4.6 3.6-1.6.3-1 .3a5.8 5.8 0 0 1-2.3-4.6l-.6-3.9.6-7.2-1.9 1.6-2.1.4v2.2l-1.6 1.7-3.7 3-3.9 2.6-1 1.3-2.2 1.6-.7.6-1.3-.8.4-.7 2.9-2.6 2.3-2.3 1.6-1.3 1.6-1.3 1-1.5 1-.8c-4 1.9-8.7 1.8-12.3-.2l-1.6-1.4-1-.8-1.1-1.4-.4-2-2.3-5.8V143l-2.3 3.7c-3.8 4.2-7.3 5.4-11.6 7.5l-.7.5-2.8-.8-3.3-2.7-1.4-6.1-.8-.6.2-2.6 1-.6.6-.9 1.7-2.3.3-3.4 1.1-7.1 1-2.3 1.6-2 1-1.7 5.8-4.1 1.9-2.5 3-5.7.2-1.7 1-2.8 1.9-2.9 6.6-5.7 1.7-.9 2.1-2.2 1.4-.8 1.3-.4 1.4-1 3.7-1.5 1.7-1.6.9-1.9 9.4-1h2.6l2.8.6 5.9-.5 4.6 2.9.3.7.3.5 1.3.3.7.4 3.2.9v.6l2.3.6 1.6 2.3 1.4 1.8 1.5 1.2-.2 1.5.5 1.3.2 2.5 3.2 3.1.7 2.9.5 1.7-3.2 13.4-1.5 3.9c-1.1 5.2-1.6 10.1-6 15.3l-1.3 1.8c-5.7 6.5-5.7 9.7-11 16.6v2.6l2.6.4 6.2.3 1.9.2 5.8-.5 6.7 2.6-.2.3 1 .5 4.7 1.8 4.5 3.1 2 1.1c5.8 2.3 12.6 2.3 18.9 6.3l14 9.1 1 1.3 5.8.1 12.3 3.9 4.6 1.7 11.5 5.8 3.7 4.3.5.6 1.9-.2.4-.7-.2-.6-1-1.3-5.7-8.9-.7 4.7-5.7-14-1.1 3.6-24.8-40.4 24.4 29 2.5-4.5 17.7 29 2.6 4-.2.6 1.1 1 1.7.6.9.9.4 2.6 1 2.1 1.2.5 2.5 1 .6 1 2-1.4 1.4-.9h.5l.3-2.1 10-27.8 2.6 3.1-1.7-10.1c-3.9 8.1-11.1 25.2-14.6 33.5l-1.8 3-1.6-.4v-1.7l-1.6-.5-.5-1.4-.2-2-1.4-8.6-.7-1.2-.5 1.3-.7 1.7-1.9-.4v-2l-5-24.6-3.4 5-8-61.5 11.5 41.5 2.3-5.9 6.1 28.2 4-9.2 3 32.7 13.8-33.1 2.9 3.8 3.1-10.8-1.4 1.4-.5.3-.4.1-1.7-.4-.2-.6 16.5-53.6-8.2 43.2-.4 1.8 11.4-13.9-18.3 49.7-1.9-4.7-7.6 23.6 2.3-.5h.4l.8-1.5-.2-.8 15.6-18.4-5.5-.4c-.6-2 1.1-2 .8-3.6l4.9-4.6 2.1-2.2 41-35.2L288 184l9.5.1-16.3 17.5c4.2-2 7.8-3.3 12-3.9l8.2-.7h1.4l1.1-.3 1.7-4.2 1-.7 1.4-2.2 1.6-.4 1.6-1.3 2.6-.9 3.2-1.6 1.3-.1 3-2 1.7-1.6.9-.3 3.5-2.7 7.9-5.1 1.1-.4 4.4-2.2 1.6-.1.7-.6 5.8-1.3 1.9-.7 7.2 1 10.4 2 3.3.3.8-.6 3.7-2.7 1-1.2 2.3-1.8 1.1-.3.4-.5.6-.4-1-1.7-1.6-2.4-2.6-3.5-1 1.2-2.3-1.2-3.8-2.6-1.5-6-3.1-.7-1.7-1.2-.7-1.5-1.6-1.6-.5-1.7-.2-.5-.5-.4-1-.6-1-2.6-1.1-.7-.1-3.9v-2.2l-.6-1.8-1-4.5-.2-.4-.6-.6.6-1.3-.6-7.6 3.2-6.2 5.4-5.4 2.1-.8 2.3-1.8h.6l2.8-2.2.7-.7 5-.9 1.9-.6.5-.3h1.5c4.2-.7 8.5.3 12.6 1.9l9.6 3 2.4 2.5.3 2 1.8 3.4.5 1.7 2.3 3.1.3.7 1.6 1 .5 2.9 1.3.9v1.7l.8.8.2 2 .5.6 1.4 5.7.7 4-2.1 3.5.6 1c1 4.2 1.5 8.6 1.5 12.8l1.1 3.4 1 1.6 5.2-.3 2 .3 4.9-1v2.6h-1.7l-2.9.7h-1.6l-4.4.9.7 2 .3 1.6-1 .6-1.6-.6v-1.3l-.9-1.4-1.5-2.3-.5-1.9-1.6 2.6-2.4 3.6-6.8 7.2-1.6-.7.3-1.6 3.9-3.3-1.6.3v-1.1l1.3-1.6 1.4-.6 3.8-3.9 1-2.3c1.6-5.2 0-10.3.2-15.5l-.5-.6v-.6l-1-.7v-1.2l1.6-2.1-1.2-8.4-.8-1.5-1 1-.3.9-.7 2.1h-2.2l-1.5-1.4-1.9-3-.5-1.6-1-1.4-2.3-1.3-4.2-1.9-.7-2.6-1.7-1.8-1.6-3.5-.3-.4H390l-4.8-.6H384l-1.8 1-.8.5-2.8.6-2.4 1.5 1.1.5.1 2.1-2.7 4.8-5.2 2.6-4.3.7-.8.8-.4 2.1 2 3.9 1 .7 1.3 10.5 2.4-2.9.8-.3 1.6-1.4 1.5-.9 1.6-.4 1.7-1.6h.9l2.9 2 1 .6 1.3 1.7 1 2.5.3 2 1 3.3-.7 1.8-.6.2-1.5-.9v-1.4l-.8-.8v-1.8l-.4-1.6-.3-.6-1.4.6-.5.3-1 .7.3.8.3.4-.9 2.2-.9.1-1.9-.1-.7.7h-1.9l1.1-2.9.9-1.6 3.7-2.7h1.6l-1.9-2.2-4.2 1.6-3.3 4.6-2.3.6v.6l1 6.6.7 1.3.8.9.4.4 2.2 1.7 1-.3v-.7l.9-.3 1.7 1.4 4.9 6.5 1.3 1.4.3.5 2.1 1.4 2.1.4 5 1.3c3.1.9 5.7-.1 8.8-1.7l2.2.7-.8 1.9c-2.9-.3-5.6 2.3-8.6 1.3l-1.4.3v1.4l1 3.9.3.4-.6 1.9-2.6-.3.6-3.6-.8-1.7-.7-1.3-.3-.7h-.7l-1.9-1.3-2.3-1.3h-1l-3.7 2.5-1.6.7-5.5 4.9h-1.6l-13.5-1.3c-6.2-1.4-11.8-1.8-17.5 1.3l-1.7.6-5.9 3.6-1.6 1.1-.7.3-1.6 1.1-5.8 4.2-2.3 1.9c-3.9 2.3-8.3 2-11.7 6.3l-.7.7-1.1 2.2-.7 1.7 1.6.6v1.6c-7.1 0-13.7 0-20.4 1.8l-1.6.5-4.5 2.3-1.6 1.4-.4.3-2.9.3-.3.6c3.3 1.7 7.1 2.9 9.9 6.6l1.6 2.6v5.9l-2.1 2.3-.5.3-2.1.1-1.9 1.6-.9 1.9-2.4.7-1.6-.3-1 10.5-2.6 2.2h-2.1v.7l1.1 1.4 1.3-1.4 2.1.3.9-.6 1.7-1.3h.5l4.4-4 1.6.6-.5 2.6-.5.6 3.7-.6h3.3l1.6-.6 2.6-.7 1.4-.5 6.5-4 .9-.1 1.7-1.2 4.5-5.2v-.7l1.4-1.6 1-.3-.6 3.9.6.3 5.2-3.9.5-.7 1.4-1.7.7-.2 6.5-1.7 7.1-3 3.7-2.3 1.8-1.6.8-.3 3.7-3.3 1.3.3 1 4.2v.6l.5.4 1-1 .6-.5 2.6-2.7 3.3-.3-1.7-4.9-1.7-2.5-1.1-2.3-1.8-1.4-2.6-3-4-2.6-1.6-1.9v-.7l1-1.3 7.1 4.9 1.6 1.6 2.6 2.3 2.3 4 1.7 2.3.7 2.9.5 2.5 3.4.1 2.1.5 1.1 1.2-.9 1.7-1.9-.9-21.1 32.4-1.6.2.2-2.6-.5.3-1 1.8-1.6-1-.7 1-.6 2.2h3.2l2 .4 2.1-2.3 23.6-32.8V212l2.6-.3.4 1.6 3.5 2.3c6.7 5.9 10.5 11.4 17.3 16.1 1.7 2.2 4.8 3.7 6.6 5.9l11-2.3 5.5-2v2.9l-2.2.3-1.3.7-5.4 1.3-6.8 2.4c-7.4.9-14.2-3.3-21.4-1.3-6.6 1.5-13.6 3.9-19.4 7.7l-2.2 1.5-.3 2.2h1.6l1.8 1.7c4.7-.3 11.4-3 14.6-7.6l2.3.3-10.1 9.3-8.9 3.1-2.6.6-4.7.9c-6.9 1.6-1.2 9.1 6.1 7.9 1.1 1.5-3.7 2.8-1.8 5.6 5.8 3.8 6.8 2.2 10.2 2.8.4 1.4-1.3 2.1-.3 4.1 3.3 2.3 7.6 1.8 11.9 1l6.4-2.3 6.5-3.4 15.1-12.8 2.8-1.9 6.6-3.4v.3l1.6-.8v2.2l-5.5 3.3-1.6 1-1.3 1-2.9 2.2-.4.3-2.5 1.7-1 1.4-8.6 7.5-8 4 8 6.6h1.8l.6-.7-6.6-5.2.7-1.9 6.8 4.5c1.7-.6 2.6-3.3 4-4.9l3.1-4.9 2.4-2.6 5.4-7.8.7-.1 1.9.6-.5 2.1-4.1 4.8-.6.7-3.9 6.1-1 1.4-8.3 11.1-.7.6-1.1-.6-13-8.8-.7.4c-8.2 3-21-.3-17.5-4.9-5 .2-11.6-4.8-8.9-7.7-5-.8-8.5-5.2-6.6-9.9l-3-2.9-7.6-5.8-1.4-1.4-.1-.4.4-1.3 1.9-2.6 13-24.9-1.4-3-1.6-2.9-2.3 2.4-.6.2-4.2 2.4-1 .8-1.3.4-3.7 1.9-1.6.3-5.9 1.4-7.5 6.6-2.6 1.4-2.2-.1-4.2 3.6-.7.3-1 .7-1.4 1-5.7 2.8-3 .7-4.5 1.3h-1.9l-6.6.9-.7-.8-3.3 2.2-.5.3-1.7-.3-.4 1.6 17.7 29.3H287l14.4 26.2-30.9-34.3 7.5 1.4-8.2-9.8-1.4-.9c-2.7 2.7-5.1 4.4-9.1 4.3l-1.4.3.6 10 5.1-3.1-.4 46.1-4.5-27-4.3 2.6c-.1-10.2-.6-20.3-1.4-30.4l.7-.1.9.1.8-.7 4.9-1.4h-2.1l-2.1-1.3-1.6 1.6c-2.5 1.7-4.8 1.8-7.4 2.3l-7.3-.6-17.2 31.1V284l-19.4 21.2 25.1-41.5 1 5.9 5.6-7.9 1-1.4-1.3-.7-1.4-2.3-.1-1.6c-1.7-1.9-5.8-2.9-5.5-5.9l1.3-6.8v-1.1l-1.3-1.3-2.2-5-.4-3.9-2.9-.7-8.6-2.9-12.3-3.1-14.9-8.2-30.9-7.4-15.7 15.5-6.2 18.8c7.3-2.4 7.9 5.6 7.1 6.8 1.7 1.5 1.5 5.5-.8 8.3 1.1 1.3-.4 6-3.2 7.8.8 3.7-2 8.4-9.5 10.6-.5 5.7-1.1 12.1-.4 17.9l-1.9 6-.7 11.8v3.3l-1.6 2.3z" class="st0"/><path d="m120.9 245.6.9-23-18.2 16.1c-3.7 1.7-8.6-1.6-12.2-2.4l40.3-34.5-3.4 44.9c-2.5.6-4.9.6-7.4-1.1" style="fill-rule:evenodd;clip-rule:evenodd;fill:#f3cf1e"/><path d="m120.9 245.6.9-23-18.2 16.1c-3.7 1.7-8.6-1.6-12.2-2.4l40.3-34.5-3.4 44.9c-2.5.6-4.9.6-7.4-1.1z" style="fill-rule:evenodd;clip-rule:evenodd;fill:#f99d27;stroke:#000;stroke-width:.735;stroke-miterlimit:22.926"/><path d="m131.3 245.6-.1-.5zm-12.2-6.7c-3.5-1.5-7.4-1.6-12-.8l12.8-11.5z" class="st1"/><path d="M103.1 224.1c-.9-5.7 4.7-8.5 8.9-6.8l-3 2.2c-1.8-.7-3.3.9-3 2.5z" style="fill-rule:evenodd;clip-rule:evenodd;fill:#f57e20"/><path d="m86.9 204.7-.6-.8 1.8-2.6 2.4-.9 1.6-.7.4-.3h2.2l.1 1-.9 2-3.7.7zM87 182v-.3l-.1-1.1 2.6-4.2 1.5-.3.3.8-1.4 2.5-1.2 1.7zm3.2-6.5-.7-.4.7-1.3 1.3-1 5.9-.4h2.2l7 .4 1.1.7-.8 1.6-12.2.3-2.6-.3zm-5.2-2.7-8.4-6.1-.8-1.4.8-1.2 8.7 6 1.3 1.5zm2.3-10.5v-.3l-.7-1.6.4-4v-5.9l1.1-1.2.8 1.3v11z" class="st0"/><path d="m100.3 157.1-3-1.3-3.2-1.4-2.1-2.6-2.6-7.5-.6-3.5 1.3-5.6 1.5-8.6 2.8-7.1 1.7-1.8.9-.9v-1.3l1.7-1.7 4.2.3 4.1 3 1.9.9 1 1.7.5.8h.7l.6-2.2-.3-.4-4.2-3.8-1.8-1.1-3.4-1.7.9-1.4 3.5-6.5 3.5-2.2c3.3-.7 8.2 3.5 12.4 2.4l4.1-1.3.4 4.4 2 2.6 3.1 2.6 3.3 4 .3.9.2 2.6-1.6 2.3-2.6 7.2v1.4c-1.6-.1-3.3-2.3-4.6-4l-1.4-1.4-6.5-1.3-.6 1.3 6.6 2.6 4.7 4.1.5 1.2c-1.4 5.2-7 9.3-10.4 13.9l-1.7 1.9-.7.7-2 1.1-1.6.8-2.2 1.8-1.4.8-5.2 2-1.5.3z" class="st28"/><path d="m103.8 151.5-4.5-2.6-3.2-2.7-.1-1.2.9-.5 1.1.6.7.4-.3-1.3-1.9-.4-2-1.7-.9-.8-.1-1.4 1.3-.3 2.8 1.8 2.7 1.3 1.4 2.4 1.1-.6 2 1.3 2.5 2.6 1.6.9-.8 1.5-4-1.4 1 1.3zm2.1-9.4-2.8-1.8-1.1-2.3-.3-2.2 2.6 1.1 1 1.5v1l3.2.9-.2 2.1zm17.4-6.8-2.4-1.3h-1.6l-1.9-1.6.4-1-1.4-.6-1.9-.3-.7-.5.7-1.2 2.6.3 4 .6.3 1.4.5.6 2.6 2-.5 1.3zm-19.5-.6-.7-1.1 1.5-1.7 3.9-4.8-1.3-1.4-1.1-1h-.4l-.7.6h-.7l-1.9-1.2v-2.6l-2-.7 1.3-1.4 3.6.7 1.9 1.3.4 1 1.1 1 1.2 1.6.7-.3 1-.2.9.8v1.4l-.9 1.3-2.6 1.7-.7 1.6-3.7 3.7z" class="st0"/><path d="M105 239.1c5.3-4.8 10.6-9.7 15.9-14.5-.2 5.5-.5 11.1-.7 16.6-2.8-3.1-8.8-2.8-15.2-2.1" class="st28"/><path d="M105 239.1c5.3-4.8 10.6-9.7 15.9-14.5-.2 5.5-.5 11.1-.7 16.6-2.8-3.1-8.8-2.8-15.2-2.1z" style="fill-rule:evenodd;clip-rule:evenodd;fill:none;stroke:#000;stroke-width:1.406;stroke-miterlimit:22.926"/><path d="m263.8 235.7-.5-4 4.5-5.2 2 1.4 4.7.9 1.1.3v4.4L273 240h-3.3l-1.9-2.6h-1l.9 1.9.7 1.4.7 1.3zm14.1-9.6.4-3.6 1.1-2.5 2.1 1.3v3.6l-1.7 1.3h-1.9zm-20.5 3.7 1.4-2.9-.5-.4-.9-1.9.7-1.4 1.3.3 2.3 2.6v1.4l-.7 2.6h1l4.5-6.9.4-.2.6.5h.7l6.5 2.6 1.4-2.2.8-4.9-1.6-4.6-2.6-1.9-3.4.5-4.7 2.1-1.6.5-1.8 1.4-2.2 1-1.7 2c-1.4 3-1.1 6.5-.6 9.9h.7zm-12.1 30.1-2.1-.2-5.9-2.4-.6-.2-.4-1-4.5-4.5c-1.6-2.6-.4-5.2.5-7.9l.3-1.8-1.3-.8-1.9-2.7-.7-1.4v-5.9l1.5-2-.7-1.9-.3-.6.3-2.6 1.9-3.6.7-5.6 2.3-3.4 5.5-2.3.7.7.8.5.7-.3.5-.5 2.6.5 2.4 2.1v3.1h-2.1l-.5.3-.6.3-.1 1.1 1.7.7 8.1 2.3-.3 8.7h-9.1l-.4.3-.3 1.4 1 .9 8.6.4 7 .9.2.7.3.5-.8 1.7-1.6 2.3-1.4 2h-7.1l-6.9-.7-1.3.7v.9l.8.6 11.8 1.4 4-.7-.2 1.8-.8 3.5-1.8 1-3 .4-5.9.3-5.1-.7-.1 1.3 2.3 1.7 11.9.4v2.2l-.5 1.3-1.3 1.8-2.3 2.2zm16.3-.5v-1l-3.9-.4v-1.3c1.6-2.5 1-4.3 1.3-6.5l1.7-3 .5-1.9 1.5 1.4 1.1 2.2-1.1 1.3-.7.1v1.3l1 .1.5-.4 1-1.4 1.9 2.1 2.3 2.8-1.3 2.4-1 .8z" class="st28"/><path d="m271.5 183.2.8 2.7 12.2-32.3-9.5 8.8 4.4-1.4zm-23.6 11.2-6.2-25.2-2.8 3-3.4-21.2 4.7 16.1 2.1-6.1 6.2 26 2.8-5.6 1.8 22.5-2.5-14.7zm-22-17.3L224 181l-8.2-9.7 8.2 12.8 2.2-3.3 4.3 11.4.7-3 9.4 15.5 3-.2zm60 44.1c-2.3-2.6-4.6-5.1-7.5-7.2l-.8-1.6-2.4-2.3-.9-1.1-5.2-.3 2-2.6 15.3-18.6-7.8-.3 1.6-.4 22.4-20.4-18.6 19.5h8.3l-17.8 20.9v.7l3.3.6 4.5 2.3 3.3 3 1 1.3.6 2.9-.6 2.6z" class="st33"/><path d="m253 218 15.9-42.7 3.9 8.8-1.2 5-1.9-4.3-11.2 30.4z" class="st33"/><path d="m221.1 325.8 12.1-37.6 2.9 3.7 3-9.6-3.5 1.6 6.1-16.3-.5 10.4 7.9-13.8-12.6 42.3-.9-7.5z" class="st0"/><path d="m289.3 287.2-12.7-14.8 4.9.8z" class="st33"/><path d="m223.9 280.5-8.8 9.4 12-18.5.5 3.4 6.7-7.7-9.5 17.2zm32.2 8 2.4-2.4 2.4 6-.1-15.8-3.2 2.4-2.1-9.7zm7-42.5-2.5-2.7.3-2-.5-.6-.2-.6 2.6-4-.5-4 6.5 8.3-1.9-2.6h-1l.9 1.9.7 1.4.7 1.3 17.8 31.8-5.1-3.6z" style="fill-rule:evenodd;clip-rule:evenodd;fill:#d1d3d4;stroke:#000;stroke-width:.216;stroke-miterlimit:22.9256"/><path d="m252.5 210.4-.5-.9-.4-2.7 1.8.5 1.1-.1-.8 1.9z" class="st1"/><path d="m243.6 277.5-6.2 22-1.3-2.6-5.9 8 4-13.2 2.4 2 4-12.9z" class="st33"/><path d="m351.5 255.7-3.7-2.3-5.7-3.3 5-7.2 1-1.4 6.8-10.1 1.8-2.3 2.6-4.2 2.2-2.3 4.1-5.7 1.3-1.3 2.2.9 1.6.9 6.6 5.9 2.3 2.6 1 1 5.4 5.2 3.7 2.9 4.7 3-1.5.5-10.7-2.6-6.1.7-13.6 4.2c-5.5 2.3-6.4 3.1-11.7 6.9l-.8 1.7-.2 2.6.2.6 1.9 1.3 2-.5v1.3z" class="st15"/><path d="m393.3 236.1-.3-.3.8-1.9 1.7-1.1.9-.4 1.7-1.2 5.2-2.3.9-1.4 2.1-1.3.8-.7-.5-7.9-1.8-4.8-1.1-4.7-.7-1.1-1.6-11.1.5-.7c2.9 5 2.9 9.9 4.4 14.8l2.2 6c.7 2.3 2 4.8 1.3 7.1l.3.7.4.5v.7c-1.3 2.6-3.7 4.2-5.6 5.9l-4.1 2.3-1.3.6-1.4.6-.4.3-1.4.3zm-7.8-53.1-7.3-1.5.5-1.1 1.3-.3 7.4.6-.6-.6 2.6-7.9.6-.1.4 4.4-1.2 3.6h1.8l1 1-.8 1.6zm27.2-5.5h-1.3l-.8-1.3 5.5-.4.7-1 2.2-.4v.8l-.6 2.2zm-20.9-15.1-.2-.3 2.8-3.7 4.5-2.3 1.2-.5 1.4-.8 2.1-.3.7.7v1.9h-2.1v.8l.2.5-1.2 2-3.7 1.3-.5.4-1.8-.8-.3-.5-1 1.3zm-4.7-7.9-.8-.6.5-1 1.3-.4 2.2-.3 1.7-1.1 1.6-3.4.8-.3 2.1.5-2.3 5.6-2.4.4z" class="st0"/><path d="m368.1 145.3.4-.6z" class="st1"/><path d="m389.2 138-.2-.3-1.2-4.8-.1-1 3.9-4.7.4-.3 4.5-.9 4.2-1.4v1.4l-.9 1.2-3.3 1.1-2.9.6-.7.4-1.9 1.6-1 1.3.4 2 1.9-1.3 2.1-1.3h1.9l1.5-1.3h.4l1.9.6.3.7-2.9 2.2-1 .8v1.5l-1 1.9h-2.2l-.7-1.1-.8 1.1z" class="st0"/><path d="m338.6 236.7.7-.4zm-3.7 9.8-.8-.8 15.7-31 1.3.2zm11.2-15.8 2.6-4zm3-4.9 1.1-.9zm-12.3 21-.1-1.5 18.1-31.1 1.8.3z" style="fill:#fff;stroke:#fff;stroke-width:.216;stroke-miterlimit:22.9256;fill-rule:evenodd;clip-rule:evenodd"/><path d="m308.3 207.7-1.5-.4-.3-1.9-1.3-2 .7-1.4c1.2 0 2.6 2.1 3.1 3l.5.9v.9zm26.9 0h-.5l-.4-1.3 1.5-2.3 1.6-2.1.5-.3 2.1.7-3.3 5.6zm-22.1 9.1-1-.9-.8-2.3.3-1.6h1.6l1 2.3.5.5v1z" class="st0"/><path d="M364.3 346.6c4.3 0 4.1 2.5 9.4 0l2.3-.4 3-1.4 3.8-1.5 1.6-.8.5-.5 5.3-2.8 2.9-2.4c.9-1.3 1-2.2.7-3.1l-7.9 3.6-1.9.9h-1.5l-1.1-.3 8.5-4 1.7-.6 3.7-2 .9-1.7-.4-.8-10.8 3.9-4.6 2.1-.3-.7-.3-.7 16.5-6.7.4-1.5.2-2.6-2.9.8-4.3 1.9-4.4 1.9-5.8 2.3-1.3.2-.1-.9 6.5-2.6 3-1.4 7.9-3.4-2.1-1.7-4.1.7-16.3 7.1-.1-.8 7.6-3.4-1.7-2.2h-2.6l-4 1.6-5.6 3.2-1.4 1.8-.6 1.1-1.5 2.4-1 1.4c-1.5.7-1.2 1-3 1.3 1.2 4.7 3.3 8.6 4 12.5z" class="st19"/><path d="M247.3 381.9c-6.9-.7-15.5 1.4-17.3 6.3m30.6-7.8c-1.2 2-.5 4 2.8 6" class="st6"/><path d="m373.5 321.1-9.7.1-1 1.1-2.9-1.4 1.1-.6 1.5-1.3 1.1-.6 2.9.7 5.1-.7 1.2-.5 2.8 1 .6.5-.7 1.6z" class="st0"/><path d="M391.3 507.7c.8-.3.3-.7 1.3-1.3.6-.4 2 0 2-1 0-1.3 4.7-2 5.2-3.1l1.3-2.9 3-2.9c.4-.1.6-2.7.7-3.3.2-3 .8-6.2 1-9.2l-8.9-1-1.6-11.9 24.8-22.7-7-17.4-22.6 20-5.3-6.3 16.7-33.5 10.8 9.6-4.6-19.2-14-4.7-11.9-1.3h-6.9l-11.9 1.3-5.3 2.3-8.9 2-2.3 3.6-5.9.7-5.9 5.9-2.7.3-5.5 5.9v2.3l-4 .7-4.3 5.6 1 4.9-3.3-.7-5.9 7.3 1.6 3.3-2 4.6-4.6.7-3.6 7.3 1.6 4.3-2.3 5.9h-3.3l-3.3 7.3 3 4-2.5 5.9-3.3.7-2.3 7.3 1.6 4-1 5.9-3 1.3-2 7.3 2.6 2.6-1 5.3 2 .7 9.2-4.3 3-1.3 9.9.3 7.9-3.2 7.3 2.4c2.2-.4 3.9-.4 6.1-.4l7.3 3.3 9.4-.8 21.2 2.9 10.6-2z" class="st3"/><path d="M403.6 413.3c-6.4-7.5-23.3-3.7-38.4 10a147 147 0 0 0-26.1 45.2c-4.4 14.3-7.7 26.6-9.7 39.9" class="st6"/><path d="m319 506.9-1-4.6 5.1-2.9 1-3.8-2.5-5.4 1.2-5.3h4.6l1.7-6.8-2.4-6.5 2.7-5.8h4.8l2.4-6.5-2.4-6.6 2-4.6 3.8 1.3 3.9-6.3-2.4-5.8 3.4-4.6 5.3.2 3.4-3.9-1-6.3 4.8-5.3 3.4 1.7 4.9-4.3v-4.6l4.3-4.9 2.9 3.9 5.4-2.9.2-5.3 3.4-3.2 2.6-.5 3.7 4.9 4.6.9 1.9-6 6.2 2.5.5 6.5 8.2 2.5m-30.9-8.8-10.4-2.9m-8.7 2.1 10.9 3.3-19.6-.4" class="st6"/><path d="M339.5 407.7c10.7-1 19.7-.4 25.9 2.4m-32.1 2.2c4.7 3.8 15.9 3.5 23.5 5.6m-19-9.7c6.5 3.5 17.7 4.2 26.6 6.3m-12.5 9.2-24.7-5.8m-4.4 2.7 30.5 9.2m-8.9 3.1c-6.9-2.1-14.9-7.1-25.6-7m.7 5.3 22.5 5.3m.7 6.8-31-6.5m0 4.1 27.1 7.2m-4.6 3.2c-5.5-1.7-17-2.7-24.4-5.1m-6.1 3.9 31.2 4.6m1 4.1c-10.6.1-22.7-.7-33.4-2.9m-.7 6.3c11.9-.1 22.1 1.1 30.7 3.6m-5.8 6.8c-9.5-1.5-20.2-1.9-31.7-1.5m2.2 3.9 31.7 4.1m-5.8 5.6c-9.6-1.3-19.8-1.9-30.7-1.9m-2.9 5.5q16.2 1.2 32.4 1.5m1.7 6.5c-10.1-1-20.8-1.8-32.2-2.2m-3.2 5.8c9.2 2.6 20.1.1 30.5 2.7m-.9 3.9c-10.6 1-20.8-1-31.9 1m61.9-59.4 12.1 14.8 12.1-12.3 2.9-6.1 4.8-31m-37.5 48 10.9 12.5-4.1 13.1-15.5 4.8m14.8-17.6h4.6m-7.5 8.9 3.1 3.7m20.3-38.8 3.9-.4m17.7 3.1 6-5.6" class="st6"/><path d="m349.5 448.5 8.2 9.8 10.5-11 6.2-29.2c-11 5.1-18 18.7-24.9 30.4zM330 504.1l15.5-2.5 1 10.1-6.8.9-7.4-2.9-3.2-.1zm3.7-17.6L340 466l7.9 8.4-2.4 8.8z" style="fill-rule:evenodd;clip-rule:evenodd;fill:#fff;stroke:#000;stroke-width:2.8346;stroke-miterlimit:22.9256"/><path d="m365.1 355.6-9.1-27.3c-12.4 10.3-27.1 22.5-39.7 33.3l-10.9 6.1c-2.6 1.6-6.2 3.3-9.1 5.1-6.2 2-12.2 3.7-18.8 5.9-10-4.1-29.5-12.6-55.5 2-7.5.4-14.9-.6-22.1-4.1-10.5-7-18.5-14.4-27.1-21.8-9.4-7.8-17.4-15.2-30.3-22.5-7.5 5.7-11.8 13.8-13.7 23.5 9.3 13.7 28.9 21.4 42.5 34.1 9.3 7.8 21.9 18 30.4 24.6 8.8 5.6 10 14.9 11.9 24.1 2.7 12.5 2.2 28.2 11 37.8-6.8 13.9-6.3 29.7-6.6 41.7.8 27 .3 54.1 1 81.1l.4 47.5c9.7 6.6 21.8 14 29.4 20.6 12-10.6 22.8-17.7 36.7-25.3 1.4-44.2 3.1-90.7.5-135.5-.5-1.4-2.1-2.1-2.8-3.3-2.4-11.7-1.6-29.7-7.9-35.3 6.8-8.4 7.6-22.5 8.7-31.5.7-5.9 1.9-11.5 3.7-16 6.9-7.9 16.6-16.9 21-24.9 3.5-1.2 7.5-2.5 9.9-3.7 14.2-12.5 30.3-24.2 46.5-36.2" style="fill-rule:evenodd;clip-rule:evenodd;fill:#93393a;stroke:#000;stroke-width:3.685;stroke-linecap:round;stroke-linejoin:round;stroke-miterlimit:22.9256"/><path d="M225.8 497.2c.9 44 1 82.5.7 125.6-1.5 9 4 15.3 7.5 17.3m12.4-238.4c-.5 20-.9 38.8 0 57.9m14.7-39.1c-.2 11 1.2 23.6-5.6 31.6m-24.8 1.7c-.9 10.1 8.6 13.7 12.8 20.5m-19.5-18c1.2 7.6 5.8 12.9 11.9 17.5m10.2 2.6c-5.9 1.3-12.8.7-18.9-.3m39.3-28.5c2.3 17.5-6.7 18.6-11.4 26.8m15.8-18.1c.1 9-6.1 12.5-10.3 18" class="st6"/><path d="M271.8 471.4c-4.7 4.1-12.3 7.2-18.4 4.5m13.5 3.5c1.6 6.2 5 13.1-.4 18.3m9.1 50.6c-.9 27.5-.1 51.5.2 78.4 1.5 5.6-4 9.5-7.5 10.8m-2.1-80.7c-.9 27.5-.1 51.5.2 78.4m-5.3-28.8c-.9 12-.3 22.5 0 34.3m-10.3-80.9c-.9 30.3-.1 56.8.2 86.5m-14.2-74.7c-.5 16.1-.2 18.3-.1 33.3.1 13.2 2.7 22.2 2.9 36.1" class="st6"/><path d="M131 455.5c-.2.1.5 1.3.4 2.3-.1.9-.5 2.3-.2 3.2.6 2.1-.5 3.1 2.3 2.1 1.7-.6 4.8 4.8 4.2 5.9-.8 1.5-.4 1.7.6 2.5 1.1.9.6 3.6.6 5.1l2.8-1.5c.9 1.1 2.5 1.8 3.2 2.5.2.2.4 1.6.4 1.7.3 1.4.6 2.4.6 4v4c-.3 1.4-.2 2.6-.2 4 0 1.6-1.5 2.8-1.5 4.7l-2.2 1h-1.9l-.4 2.5.2 3v1.1c0 .1.2.1.2.2v.2h.4c.3 0 .1.2.6.2h14.6l1.7-.2 3.6.4 3-.4 3 .4 3.2 2.8 2.8.4 4 2.3-.2 1.9c-.4.1-1.1-.1-1.1.2v.2c0 .2-1.2 0-1.5 0l-3.2-.6h-5.1l-5.1.2-7.2-.2c-5.2 0-8.1 2.9-11.9 3.4s-10.6-2.7-14.2-.4c-2.8 1.7-9.1 1.1-12.7 1.1l-4.7 2.3-4.2 1.7-4.9.8-1.9-1.3c.2-2.3.9-2.9 3.2-3.2.7-.1 1-.8 1.7-1.3.8-.5 2-1.1 3-1.5l1.9-1.1 3.6-1.5 3.4-1.1 4.7-1.1 3-.8 3-2.5 1.7-3v-3.6l-1.1-2.3.2-4.7.4-3.8-.2-4.7v-3.4l-3.2-.4-1.5-1.7-1.5-1.3-.8-2.5v-14.6l.4-3.6c2.2-3.1 10.9-5.1 10.6-2.8-.1.5.1 1 0 1.5 0 .2-.2.3-.2.4-.1.1.1.5 0 .6-.2.4-.3.3-.4.3z" class="st8"/><path d="M363 517.2c0-.9.7-1.6 1.7-1.6h1.3v2.3l-2.9.4zm-14.6 3.5c2.1 0 2.3-.4 2.5 1.6h3.8l6.3-1.2 2.1-.4c2.5-1.5 4.5-1 4.6-3.4V516l1.9-1.3-2.7-.2-3.9-.5c-2.2 8.8-9.8 3.9-14.6 6.7" class="st0"/><path d="M347 521h2.9l.2.4-2.2 1c-.3 1.5-2.9 2.5-4.7 2.5H342v-2.3h.8v-.8h1.3c1.5 0 2-.2 2.9-.8m-15.9 4.7c2.4 0 6.9-.6 7.9.8-1.2 1.5-2.4.4-4.9.9s-1.1 1-3.1 2.2l-.8-1.9c-2.7 0-3.6.7-3.8-1.5l-1.3.4-.8 2 4-.2 2.3 1.3v2.7l.8-1.2h1.3c1.1 0 1.2.6 1.7 1.2 1 0 2.5-.2 2.5.8 0 1.3-.8.8-.8 1.6 0 1.5 2 3.1 3.8 3.1v1.1l-2.9.4 6.3-.8h6.3c.9 0 .9.3 1.7.8v-1.6c-2.2 0-4.5-.4-7.5-.4-5.7 0-3.4-.8-6.3-1.6.1-2.9 1.3-1.4 1.3-3.1 0-2.2-4.6-.6-4.6-2.7v-.4c0-.9.3-1.2 1.3-1.2h3.3l2.6-2.6 4-.1 3.7-2.7-.3-.4h1.3c.8 0 .7-.1 1.3-.4-.2-1.9-.4-1.6-2.5-1.6l-1.9.4c-6.4 0-4 .4-6.3 3.5z" class="st0"/><path d="M313.2 540.5v-1.2c1.5-.3 3.3-.3 3.3-1.9V535c0-1.9-1-.1-1.7-2.3.9-.2 1-.4 2.1-.4h1.3c1.6 0 1.3 1.3 1.3 2.7.6-.9 1.1-3.9-.8-3.9h-5.8c.1 3.6 3.3 2.1 3.3 4.3v1.6l-3.6 2.1-.2 1.3h.8z" class="st38"/><path d="M319.5 535c-.6.9-1.7 1.4-1.7 2.3v3.1h-5.4l.2-1.3 3.6-2.1v-1.6c0-2.2-3.3-.7-3.3-4.3h5.8c1.8 0 1.4 3 .8 3.9m65.5 8.6c-3.3-.1-5.9-1.6-8.3-1.6h-.4c-1.3 0-1.4.7-1.7 1.5l-3.9.2-2.8-3.5-9.6-.2h-.8c-4.8 0-5.1-2.8-7.5-4.2l-11.7-.4v-1.2c.9-.2 1.3-.1 1.3-1.2v-1.2c0-2.6-4.3-.1-5-2.7h3.3c1.5 0 .9-1.2 3.6-1.7 1.7-.3 3.3-.2 4.7-.7 1.5-.5 1.8-1.7 2.8-2.4.7-.5 2.5-1.2 3.5-1.7l2.5-.4h-3.8c-.5.3-.4.4-1.3.4h-1.3l.3.4-3.7 2.7-4 .1-2.6 2.6h-3.3c-1 0-1.3.3-1.3 1.2v.4c0 2.1 4.6.5 4.6 2.7 0 1.7-1.2.2-1.3 3.1 2.9.7.5 1.6 6.3 1.6 3 0 5.3.3 7.5.4v1.6c-.8-.5-.7-.8-1.7-.8h-6.3l-6.3.8h-2.5c-.8.5-.7.8-1.7.8h-.6c-1.3 0-1.2-.5-1.3-1.6v-5.9l-1.7.4-.4 3.1c0 2.8.5 3.4-2.9 3.1-1.3-.1-4.8-.2-5.8-.8-1.4-.5-.5-2.7.8-3.1v-1.2c0-2.6 1.9-3.2 2.9-4.7-.5-.3-.4-.4-1.3-.4h-.8c-.2 0-2.6 1.1-4.3 1.4-2.2.4-3.6.1-5.7.5.2 1.9 1.2 2.7 2.9 3.1v2.7h-.8l-2.9 2.3v1.2h.8v.8c2.5.2.9.8 2.5.8h1.7c.2 0 5.3-1.6 8.3-1.6 3.7 0 7 .7 10.4.4 3.2-.3 5.3-1.5 9.6-1.5h5.8c.3.9.4 1.6 1.7 1.6h2.9v1.2c2.3.2 4.1.4 7.1.4 6 0 3.2.9 5.8 1.6v1.6l1.6-1.2.9 1.5h2.5c6.8-4.3 7.6 0 14.8-1.2l1.9 3 3 .7 4.3-.9h2.2l-1-2.3c-.6-.7 1.6-.1-12.5-1.6" class="st0"/><path d="M363 517.2v1.2l2.9-.4v-2.3h-1.3c-.9-.1-1.6.6-1.6 1.5m-16 3.8c-.9.6-1.4.8-2.9.8h-1.3v.8h-.8v2.3h1.3c1.9 0 4.4-1 4.7-2.5l2.2-1-.2-.4zm-20.4 5.1c.2 2.2 1.1 1.6 3.8 1.5l.8 1.9c1.9-1.2.6-1.7 3.1-2.2 2.4-.5 3.7.6 4.9-.9-1.1-1.4-5.5-.8-7.9-.8z" class="st38"/><path d="M313.6 537h.8v-2.7c-1.7-.4-2.7-1.2-2.9-3.1 2.1-.4 3.5-.2 5.7-.5 1.8-.3 4.1-1.4 4.3-1.4h.8c.8 0 .7.1 1.3.4-1 1.4-2.9 2.1-2.9 4.7v1.2c-1.3.4-2.2 2.6-.8 3.1l.1-1.1 2-2c0-1.9-.4-3.3 1.1-4l3.5-1.8h1.7v2.7c0 1.8-.8 1.6-1.2 3l1.6.9.4-3.1 1.7-.4v-3.1l-2.3-1.3-4 .2.8-2-1.3.8h-2c-2.2 3.8-11.7 2.2-11.7 4.3v2.7c.9.2 1 .4 2.1.4h1.7v1.2c-.1 1.2.1-.2-.5.9" class="st0"/><path d="M330.7 533.9v4.7l.8.2 7.1-.2c-1.4-1.2-3.3-1.1-3.3-3.5 0-1 .2-1.1.4-1.9l-2.5-.8z" class="st38"/><path d="M330.7 532.3v1.6l2.5-1.6 2.5.8c-.2.9-.4.9-.4 1.9 0 2.4 1.9 2.3 3.3 3.5l-7.1.2-.8-.2c.1 1.1 0 1.6 1.3 1.6h.8c.9 0 .9-.3 1.7-.8h2.5l2.9-.4v-1.1c-1.8 0-3.8-1.6-3.8-3.1 0-.7.8-.3.8-1.6 0-1-1.5-.8-2.5-.8-.4-.6-.6-1.2-1.7-1.2h-1.3z" class="st0"/><path d="M313.2 540.5h4.6v-3.1c0-1 1-1.5 1.7-2.3 0-1.4.4-2.7-1.3-2.7H317c-1.1 0-1.1.2-2.1.4.6 2.2 1.7.5 1.7 2.3v2.3c0 1.6-1.9 1.6-3.3 1.9v1.2z" class="st38"/><path d="M325.4 525.7h1.7l.4-1.2 12.1-.4 2.6-3.8c2.9.4 7.3-1.3 8.6-1l6.3-.4c1.1-.2 2.2-.8 3-1.4.5-.2 1.1-.3 1.7-.3l.8-2.3.8-.8c-1.3 5.7-4.9 5.8-11.4 5.7-1.2 0-2.2.5-3.2.9l-1.8.3-4 .2-1.2 1.3-1.1 2.3-14.2 1.1-1.3.4v-.6z" style="fill-rule:evenodd;clip-rule:evenodd;stroke:#000;stroke-width:.216;stroke-miterlimit:22.9256"/><path d="M380.5 472.6c4.7.9 6.9 8.9 5 17.9s-7.3 15.5-12 14.6-6.9-8.9-5-17.9c2-9 7.3-15.5 12-14.6z" style="fill-rule:evenodd;clip-rule:evenodd;fill:#fff;stroke:#000;stroke-width:2.0001;stroke-miterlimit:22.9256"/><path d="M384.8 476.5c1 12.4-2.3 22.2-9.6 28.5" style="fill-rule:evenodd;clip-rule:evenodd;fill:none;stroke:#000;stroke-width:2.0001;stroke-miterlimit:22.9256"/><path d="M125.3 244.8c-.1 2.2 12.6-28.2 14.7-31 2.1-2.7 4.2-3.3 7.3-2.7 2.1 1 2.7 1.7 2.7 3.1 0 1.7-.6 4.2-1.8 6.1-.1-2.4-.2-5.3-2-5.9-1.7-.7-3 .3-3.8 1.6l-14.1 30.6s-5.9 2.4-4.3.2c1.5-2 1.3-2 1.3-2z" style="fill-rule:evenodd;clip-rule:evenodd;fill:#00ac5b;stroke:#000;stroke-width:2.0001;stroke-miterlimit:22.9256"/></svg>