<svg xmlns="http://www.w3.org/2000/svg" width="512" height="512" viewBox="0 0 512 512"><title>Coat_of_arms_of_Baja_California_Sur-svg</title><defs><clipPath id="cp1" clipPathUnits="userSpaceOnUse"><path d="M263.74 26.55c-4.4 2.91-8.46 5.81-10.42 7.79-17.6 2.68-35.67 6.75-41.23 7.56-8.22 1.28-17.02 5-31.14 2.56-2.43-.47-8.22-5.47-18.99-8.03-7.18-1.74-19.57-3.72-18.64-2.55C148.76 40.39 163 50.39 163 52.25c0 4.77-22.12 17.91-17.37 18.14 14.13.47 33.23-9.53 41.34-10.47 3.01-.34 6.25-.58 9.61-.69 4.63-.12 8.57 2.21 12.39 4.42 4.05 2.44 7.64 4.88 11.35 4.42 4.28-.59 14.01-3.38 14.47-3.49.35.11.58.23.93.23 3.59 1.16 7.64 2.44 12.39 3.6 0 0 1.62 4.31 1.62 10.24 0 0 15.4-.58 25.24-6.05 10.88.7 23.5.35 38.32-1.86a27 27 0 0 0-3.35 4.07c-2.09 3.14-3.71 8.14 5.32 3.26 9.38-5 22.81-15.35 22.81-15.35.47 0 1.05.11 1.62.11 14.59.35 32.43-10.12 25.59-12.44-.92-.35-3.24-.23-3.24-.23 6.02-3.26 8.11-6.86 5.91-7.21-.81-.12-2.09.11-3.59.58 0 0-17.49-11.86-72.83-11.86 0 0-3.82-7.33-18.07-13.73-.34 0-2.89 4.07-9.72 8.61"/></clipPath><clipPath id="cp2" clipPathUnits="userSpaceOnUse"><path d="M0 0h512v512H0z"/></clipPath><clipPath id="cp3" clipPathUnits="userSpaceOnUse"><path d="M0 0h512v512H0z"/></clipPath><clipPath id="cp4" clipPathUnits="userSpaceOnUse"><path d="M0 0h512v512H0z"/></clipPath><clipPath id="cp5" clipPathUnits="userSpaceOnUse"><path d="M220.67 429.64c-55.37.12-72.86 11.82-72.86 11.82-1.51-.47-2.78-.7-3.59-.58-2.2.34-.12 3.93 5.9 7.18 0 0-2.31 0-3.24.23-6.83 2.32 10.89 12.74 25.6 12.39.58 0 1.04 0 1.62-.11 0 0 13.44 10.31 22.82 15.29 9.04 4.86 7.42-.12 5.33-3.24a27 27 0 0 0-3.36-4.06c14.83 2.2 27.57 2.55 38.34 1.85 9.73 5.45 25.26 6.03 25.26 6.03 0-5.91 1.62-10.2 1.62-10.2 4.63-1.15 8.8-2.43 12.39-3.59.35-.11.58-.23.93-.23.35.12 10.19 2.9 14.48 3.48 3.59.46 7.3-1.97 11.35-4.4 3.71-2.21 7.76-4.52 12.4-4.41 3.36.12 6.6.35 9.61.7 8.23.92 27.22 10.89 41.35 10.42 4.64-.11-17.37-13.2-17.37-18.07 0-1.73 14.25-11.81 19.69-18.3 1.04-1.16-11.47.81-18.65 2.55-10.77 2.55-16.56 7.64-19 7.99-14.13 2.43-23.05-1.27-31.16-2.55-5.56-.81-23.63-4.86-41.23-7.53-1.97-1.97-6.14-4.86-10.43-7.76-6.83-4.51-9.38-8.57-9.38-8.57-14.6 6.37-18.42 13.67-18.42 13.67"/></clipPath><clipPath id="cp6" clipPathUnits="userSpaceOnUse"><path d="M0 0h512v512H0z"/></clipPath><clipPath id="cp7" clipPathUnits="userSpaceOnUse"><path d="M0 0h512v512H0z"/></clipPath><clipPath id="cp8" clipPathUnits="userSpaceOnUse"><path d="M0 0h512v512H0z"/></clipPath><clipPath id="cp9" clipPathUnits="userSpaceOnUse"><path d="M50.97 144.1c-.12.81.11 2.09.58 3.59 0 0-11.82 17.49-11.82 72.86 0 0-7.3 3.83-13.67 18.07 0 0 4.17 2.55 8.58 9.39 2.89 4.4 5.79 8.45 7.76 10.42 2.66 17.61 6.71 35.68 7.53 41.24 1.27 8.23 4.98 17.03 2.54 31.16-.46 2.43-5.44 8.23-7.99 19-1.74 7.18-3.71 19.57-2.55 18.65 6.49-5.45 16.45-19.69 18.31-19.69 4.74 0 17.83 22.12 18.07 17.37.46-14.13-9.5-33.24-10.43-41.35-.35-3.01-.58-6.26-.69-9.62-.12-9.5 9.73-16.68 8.8-23.63-.58-4.28-3.36-14.01-3.48-14.48.12-.35.24-.58.24-.92a178 178 0 0 0 3.59-12.4s4.28-1.62 10.19-1.62c0 0-.58-15.41-6.02-25.25.69-10.89.34-23.52-1.86-38.35a27 27 0 0 0 4.06 3.36c3.13 2.09 8.11 3.71 3.24-5.32-4.98-9.39-15.29-22.82-15.29-22.82 0-.47.12-1.05.12-1.63.34-14.59-10.08-32.31-12.4-25.6-.35.93-.23 3.25-.23 3.25-2.32-4.4-4.98-6.72-6.37-6.72-.46.23-.7.46-.81 1.04"/></clipPath><clipPath id="cp10" clipPathUnits="userSpaceOnUse"><path d="M0 0h512v512H0z"/></clipPath><clipPath id="cp11" clipPathUnits="userSpaceOnUse"><path d="M0 0h512v512H0z"/></clipPath><clipPath id="cp12" clipPathUnits="userSpaceOnUse"><path d="M0 0h512v512H0z"/></clipPath><clipPath id="cp13" clipPathUnits="userSpaceOnUse"><path d="M469.95 143.41c-6.49 5.44-16.45 19.69-18.3 19.69-4.75 0-17.84-22.13-18.07-17.38-.47 14.14 9.5 33.25 10.42 41.36.35 3.01.58 6.25.7 9.61.11 9.5-9.73 16.68-8.8 23.63.57 4.29 3.35 14.02 3.47 14.48-.12.35-.23.58-.23.93a171 171 0 0 0-3.59 12.39s-4.29 1.62-10.2 1.62c0 0 .58 15.41 6.03 25.26-.7 10.89-.35 23.51 1.85 38.34a27 27 0 0 0-4.05-3.36c-3.13-2.08-8.11-3.71-3.25 5.33 4.98 9.38 15.29 22.82 15.29 22.82 0 .46-.11 1.04-.11 1.62-.35 14.6 10.08 32.43 12.39 25.6.35-.93.23-3.24.23-3.24 3.25 6.02 6.84 8.11 7.19 5.9a10 10 0 0 0-.58-3.59s11.81-17.49 11.81-72.86c0 0 7.3-3.82 13.67-18.07 0 0-4.17-2.55-8.57-9.38-2.9-4.4-5.79-8.46-7.76-10.43-2.67-17.6-6.72-35.67-7.53-41.23-1.28-8.23-4.98-17.03-2.55-31.16.46-2.44 5.44-8.23 7.99-19 1.62-6.95 3.59-18.65 2.67-18.65 0-.35-.12-.35-.12-.23"/></clipPath><clipPath id="cp14" clipPathUnits="userSpaceOnUse"><path d="M0 0h512v512H0z"/></clipPath><clipPath id="cp15" clipPathUnits="userSpaceOnUse"><path d="M0 0h512v512H0z"/></clipPath><clipPath id="cp16" clipPathUnits="userSpaceOnUse"><path d="M0 0h512v512H0z"/></clipPath><clipPath id="cp17" clipPathUnits="userSpaceOnUse"><path d="M0 0h512v512H0z"/></clipPath><clipPath id="cp18" clipPathUnits="userSpaceOnUse"><path d="M0 0h512v512H0z"/></clipPath><clipPath id="cp19" clipPathUnits="userSpaceOnUse"><path d="m201.79 214.18-48.42 84.56c-2.2 3.94-.47 12.98 5.1 17.03 6.25 4.4 14.47 2.32 14.47 2.32s1.51 8.34 8.11 13.2c6.61 4.87 16.45 2.21 16.45 2.21s3.13 8.22 11.24 12.39 18.18.35 18.18.35 5.33 6.6 13.44 7.76c8.23 1.16 15.64-5.91 15.64-5.91s7.41 7.07 15.64 5.91 13.44-7.76 13.44-7.76 10.07 3.82 18.18-.35 11.24-12.39 11.24-12.39 9.84 2.66 16.45-2.21 8.11-13.2 8.11-13.2 8.34 2.08 14.47-2.32c5.57-3.94 7.3-13.09 5.1-17.03l-48.42-84.56c-5.67-9.84-24.56-38.11-54.21-38.11s-48.54 28.27-54.21 38.11"/></clipPath><clipPath id="cp20" clipPathUnits="userSpaceOnUse"><path d="M0 0h512v512H0z"/></clipPath><clipPath id="cp21" clipPathUnits="userSpaceOnUse"><path d="M0 0h512v512H0z"/></clipPath><linearGradient id="g1" x2="1" gradientTransform="matrix(226.296 0 0 61.738 143.7 49)" gradientUnits="userSpaceOnUse"><stop offset="0" stop-color="#fff"/><stop offset="1"/></linearGradient><linearGradient id="g2" x2="1" gradientTransform="matrix(226.379 0 0 61.929 142.86 446.9)" gradientUnits="userSpaceOnUse"><stop offset="0" stop-color="#fff"/><stop offset="1"/></linearGradient><linearGradient id="g3" x2="1" gradientTransform="matrix(62.975 0 0 230.398 25.48 256)" gradientUnits="userSpaceOnUse"><stop offset="0" stop-color="#fff"/><stop offset="1"/></linearGradient><linearGradient id="g4" x2="1" gradientTransform="matrix(62.983 0 0 230.858 423.46 256)" gradientUnits="userSpaceOnUse"><stop offset="0" stop-color="#fff"/><stop offset="1"/></linearGradient><linearGradient id="g5" x2="1" gradientTransform="matrix(234.27 0 0 217.437 138.98 255.99)" gradientUnits="userSpaceOnUse"><stop offset="0" stop-color="#fff"/><stop offset="1"/></linearGradient></defs><style>.s1{fill:#fff}.s6{fill:#939598}.s7{fill:#000}</style><g id="Layer"><path d="M492.4 11.5H19.5v349.6c0 68.1 55.2 123.3 123.3 123.3h47.1c25.7 0 30.3 1.1 34.6 2.9l31.4 13.2 31.4-13.2c4.3-1.8 9-2.9 34.6-2.9h47c68.2 0 123.4-55.2 123.4-123.3V11.5z" style="fill:#1f2d5e"/><path d="M417.4 86.5H94.5v274.6a48.4 48.4 0 0 0 48.3 48.3h68c17.5 0 20.8.7 23.7 1.9l21.4 9.1 21.4-9.1c3-1.2 6.2-1.9 23.6-1.9h68c26.7 0 48.3-21.7 48.3-48.3V86.5z" class="s1"/><path d="M96.3 361.1c0 25.7 20.9 46.6 46.6 46.6h67.9c17.5 0 21 .7 24.3 2.1l20 8.5v-330H96.3z" style="fill:#fd0"/><path d="M256.8 88.3v329.9l19.9-8.5c3.4-1.4 6.9-2.1 24.4-2.1h68c25.7 0 46.6-20.9 46.6-46.7V88.3z" style="fill:#e1251b"/><path d="M0 0h512v512H0z" style="fill:none"/><g id="Clip-Path" clip-path="url(#cp1)"><path d="M141 17.9h231V83H141z" class="s1"/></g><g clip-path="url(#cp2)"><path d="M368.7 42.9h-.3c-.8 0-2 .2-3.3.7 0 0-17.5-11.9-72.8-11.9 0 0-3.9-7.3-18.1-13.6 0 0-2.6 4.1-9.4 8.5-4.4 2.9-8.5 5.8-10.4 7.8-17.6 2.7-35.7 6.7-41.3 7.5-6.2 1-12.9 3.4-22 3.4-2.7 0-5.8-.2-9.1-.8-2.5-.5-8.2-5.5-19-8-5.7-1.3-14.6-2.9-17.6-2.9-.7 0-1.1.1-1.1.2 0 0 0 .1.1.1 5.5 6.5 19.7 16.5 19.7 18.3 0 4.3-18 15.4-18 17.6q0 .4.7.4h.9c14 0 32.4-9.6 40.4-10.4 3-.4 6.3-.6 9.6-.7h.3c9 0 15.8 8.8 22.6 8.8.3 0 .5 0 .9-.1 4.3-.6 14-3.4 14.5-3.5.3.1.5.2.9.2 3.6 1.2 7.6 2.5 12.4 3.6 0 0 1.6 4.3 1.6 10.2 0 0 15.4-.6 25.3-6q4.65.3 9.9.3c8.5 0 18-.5 28.4-2.2-1.3 1.3-2.4 2.7-3.4 4.1-.8 1.3-1.6 2.9-1.6 3.9 0 .8.4 1.3 1.4 1.3s2.8-.6 5.6-2c9.3-5 22.8-15.3 22.8-15.3.5 0 1 .2 1.6.2h.8c12.3 0 26.3-7.2 26.3-10.8 0-.7-.4-1.2-1.5-1.5-.7-.3-2.3-.3-3-.3h-.4c4.5-2.3 6.8-4.9 6.8-6.3-.4-.4-.6-.7-1.2-.8.6.1.8.3.8.8 0 1.4-2.3 3.9-6.7 6.3h.3c.7 0 2.3 0 3.1.3 1 .3 1.5.9 1.5 1.5 0 3.6-14 10.8-26.3 10.8h-.8c-.6 0-1.1 0-1.7-.2 0 0-13.4 10.3-22.8 15.3-2.6 1.4-4.5 2-5.5 2-1.1 0-1.4-.6-1.4-1.3 0-1 .8-2.6 1.6-3.9.9-1.4 2.1-2.8 3.4-4.1-10.6 1.5-20 2.2-28.4 2.2-3.5 0-6.9-.1-10-.3-9.7 5.4-25.2 6-25.2 6 0-5.9-1.7-10.2-1.7-10.2-4.6-1.1-8.8-2.4-12.4-3.6-.3-.1-.5-.2-.9-.2-.3.1-10.2 2.9-14.5 3.5-.3 0-.5.1-.9.1-6.7 0-13.5-8.8-22.6-8.8h-.2c-3.4.1-6.6.3-9.6.7-8 .9-26.4 10.4-40.5 10.4h-.9q-.7 0-.7-.4c0-2.2 18.1-13.3 18.1-17.6 0-1.7-14.3-11.8-19.7-18.3l-.1-.1c0-.1.3-.2 1-.2 3 0 12 1.5 17.6 2.9 10.8 2.5 16.6 7.6 19 8 3.4.6 6.4.8 9.2.8 9.1 0 15.7-2.4 22-3.4 5.6-.8 23.6-4.8 41.2-7.5 2-2 6.2-4.9 10.5-7.8 6.8-4.5 9.3-8.5 9.3-8.5 14.3 6.3 18.1 13.6 18.1 13.6 55.4.2 72.9 11.9 72.9 11.9 1.2-.4 2.4-.7 3.2-.7z" style="fill:url(#g1)"/></g><g clip-path="url(#cp3)"><path fill-rule="evenodd" d="M363 49.8c.7 0 1.4.1 2 .2 1 .4 1.7 1.1 1.7 1.9-.1 2.2-3.7 4.7-8.8 7.1-5.1 2.2-11.8 4-17.9 4h-.8c-.5-.1-1-.1-1.4-.1-1.3.9-13.9 10.4-22.8 15.2-2.7 1.5-4.6 2.1-5.7 2.1-.6 0-1.1-.2-1.4-.5l-.1-.1c-.1-.4-.3-.7-.3-1.1 0-1.2.9-2.9 1.8-4.1.8-1.2 1.7-2.3 2.6-3.4-10 1.4-19.2 2-27.4 2-3.5 0-6.7-.1-9.9-.4-9.9 5.5-25.3 6.1-25.3 6.1-.1 0-.1 0-.3-.2-.1 0-.1-.1-.1-.2 0-5.1-1.2-9-1.5-9.8-4.5-1.2-8.5-2.5-12.1-3.6-.3-.1-.6-.1-.8-.3-1.2.4-10.4 2.9-14.4 3.5-.2.1-.6.1-.9.1-1.8 0-3.6-.7-5.4-1.5-5.2-2.4-10.6-7.3-17.1-7.3h-.4q-4.8.2-9.3.7c-7.9.8-26.4 10.4-40.6 10.4h-.9c-.5 0-1.1-.2-1.1-.8.2-.9 1.3-1.8 3.1-3.3.2-.1.5-.4.8-.6 1.6-1.3 3.4-2.8 5.4-4.3 4.5-3.6 9.1-7.6 8.9-9.4.2-.1-.8-1.1-2.2-2.4s-3.3-2.9-5.4-4.6c-4.2-3.5-9.2-7.7-11.9-10.9 0 0-.2-.1-.2-.4q.3-.6.6-.6c.3-.1.5-.1.8-.1 3.2 0 12.1 1.7 17.8 2.9 10.7 2.6 16.8 7.7 19 8 3.3.6 6.3.8 9.1.8 9 0 15.6-2.4 22-3.3 5.6-.8 23.5-4.9 41.1-7.6 1.7-1.6 4.7-3.7 8-6 .8-.6 1.7-1 2.5-1.6 3.3-2.2 5.6-4.3 7.1-5.9 1.5-1.5 2.1-2.6 2.1-2.6.1-.1.3-.2.5-.1 13.1 5.8 17.5 12.3 18.2 13.6 52.3.1 70.8 10.6 72.6 11.8 1.2-.4 2.3-.6 3.1-.6h.5c.7.1 1.2.6 1.2 1.3 0 1.5-2 3.8-6.1 6m5.6-6.4c-.1-.2-.1-.3-.6-.4h-.3c-1.4 0-4.3 1-6.8 1.9-2.4 1.1-4.5 2-4.5 2-.1 0-.3 0-.4-.2 0-.1 0-.4.2-.5 0 0 3.9-1.8 7.4-3-.6-.3-1.5-.8-2.9-1.4a88 88 0 0 0-12.1-4c-11.4-2.9-29.7-5.9-57.6-5.9-4.4 0-8.9.1-13.8.2-21.2.7-56.5 8.8-64.8 10.1-6.2.9-12.9 3.3-22.1 3.3-2.9 0-5.9-.2-9.2-.8-2.7-.5-8.4-5.4-19-8-5.6-1.4-14.6-2.9-17.5-2.9h-.5c1.4 1.5 3.1 3.3 5.1 5h.7c2.1 0 8.3.6 23 6.5.3 0 .4.2.3.5 0 .1-.3.2-.4.2h-.1c-14.4-5.8-20.6-6.5-22.7-6.5 1.9 1.6 3.9 3.4 5.8 4.9h.3c1.2 0 4.8.4 14.1 3.9.2 0 .3.2.2.5 0 .1-.2.2-.4.2h-.1c-8-3-11.7-3.7-13.2-3.8 1.8 1.4 3.4 2.8 4.5 3.8 1.2 1 2 1.9 2.4 2.5 1.7 0 10.4-.4 16.9-.4 2.4 0 4.5.1 5.9.2.2.1.3.2.3.5-.1.2-.2.3-.4.3-1.3-.2-3.4-.2-5.8-.2-6.4 0-15.1.3-16.8.5-.4 1.7-2.5 3.8-5 6.1 2.5-.2 8.5-.8 11.2-1.3.3 0 .5.1.5.4 0 .2-.1.4-.4.4-3.4.6-11.3 1.3-12.3 1.4-2.6 2.2-5.5 4.4-7.8 6.3 2-.1 7.5-.9 21.1-4.8.2-.1.3 0 .4.3.2.2 0 .4-.2.4-15.5 4.4-20.6 4.9-22 4.9h-.2c-.1.1-.4.3-.6.5-1.5 1.2-2.7 2.5-2.7 2.7h1.2c13.9 0 32.3-9.5 40.4-10.4 2.9-.3 6-.6 9.3-.7h.1c1.3-.1 2.4-.1 3.7-.1 10.9 0 23 1.5 35.7 5.7 11 3.6 26.6 8 49 8 8.4 0 17.8-.6 28.2-2.1 5.5-5.7 12.8-10.1 14.6-11.1-2.2-2.2-2.7-5-2.7-7.5 0-3.1 1-5.6 1-5.6 0-.3.2-.4.5-.3.2 0 .3.3.2.5.1 0-.9 2.4-.9 5.4.1 2.5.7 5.1 2.9 7.2 1.9 2 5.4 3.4 11.1 3.5h.7c6 0 12.6-1.8 17.6-4 5-2.3 8.4-5 8.3-6.4 0-.5-.3-.8-1.2-1.2-.7-.2-2.3-.2-2.9-.2h-.3c-.8.3-1.6.8-2.4 1.1a34 34 0 0 1-12.8 2.6h-.4q-.4 0-.4-.4 0-.3.4-.3h.4c1.6 0 7.2-.1 12.4-2.4.9-.4 1.7-.7 2.5-1.2 4.3-2.4 6.5-5 6.7-6.4m-23.9 15.8q0 .3-.3.3s-7.3 0-10.3-4.6c-1.1-1.5-1.3-3.5-1.3-5.2 0-2.7.6-5.1.6-5.1 0-.1.2-.2.4-.2s.3.2.3.4c0 0-.6 2.3-.6 4.9 0 1.7.3 3.6 1.2 4.9 1.2 2 3.7 3.1 5.7 3.7 2.1.5 3.9.5 3.9.5.2 0 .3.3.4.4m.6-16.1c0 1.7-2 3-4.2 3.2h-.7c-2.2 0-3.7-1.2-3.8-3v-.2c0-.9.4-1.6 1.1-2.2.7-.5 1.8-.8 3.2-.8 1.3 0 4.4.7 4.4 3m-74.7-21.4c1.7 1.1 8.7 5.6 11.8 9.7 2.8-.1 5.6-.1 8.2-.1-.1-.1-.2-.4-.4-.6-.5-.7-1.4-1.9-2.8-3.1-2.7-2.6-7.1-5.9-14-9.1-.4.5-1.2 1.7-2.8 3.2m-3.9 3.4c1.2 1 5.2 3.4 7.4 6.5.9 0 1.9-.1 2.9-.1 1.5 0 3-.1 4.5-.1-1.8-2.1-4.4-4.3-6.9-6-2-1.7-3.9-2.8-4.5-3.2-1 1-2.2 1.9-3.4 2.9m-4.6 3.3c.9.6 2.5 1.9 3.7 4q3.9-.5 7.3-.7c-2.3-3-6.2-5.4-7.1-6-.6.5-1.2.8-1.9 1.3s-1.4.8-2 1.4m-7.5 5.4c3.5-.6 7.1-1 10.4-1.4-1.2-1.9-3-3.2-3.6-3.7-2.7 1.9-5.2 3.7-6.8 5.1m-21.2 30.5c-11.3-3.5-22.1-4.9-32.1-5 3 .9 5.8 2.6 8.5 4.2.6-.3 2.9-.9 5.2-1.4.2 0 .5.1.5.3 0 .3-.2.5-.4.5-1.7.3-3.6.8-4.5 1.2 1.3.7 2.4 1.3 3.6 1.9.8-.2 4.4-1.7 6.7-2.3.2-.1.5 0 .5.2.1.3 0 .5-.3.5-1.7.5-4.5 1.5-5.9 2.1q2.1 1 4.2 1h.9c3.4-.4 10.3-2.3 13.1-3.2m40.1 8.4c-9.6-.6-17.8-2-24.8-3.8.2.7.6 2 .8 3.6.8-.1 2.6-.4 4-.8.2-.1.4 0 .4.2.1.3 0 .5-.2.5-1.4.3-3.1.7-4 .8.2.8.2 1.6.3 2.4 1.5-.1 7.2-.4 10.5-1.8.1-.1.4 0 .5.2 0 .1 0 .4-.3.5-3.5 1.4-9.2 1.7-10.7 1.8.1.6.1 1.2.1 1.8 1 0 4.3-.3 8.4-1 4.7-.8 10.4-2 15-4.4m63.7-9.8c-4.2-.5-7.1-1.7-8.9-3.4-.8.5-3.6 2.1-6.9 4.4-3.8 2.8-8.4 6.8-11.2 10.9-.8 1.2-1.5 2.8-1.5 3.7v.3c2-1.4 10.2-7.6 18.1-13.1.2-.1.4 0 .6.1.1.2 0 .5-.2.6-8 5.5-16.2 11.7-18 13.1.1.1.3.1.5.1 1 0 2.7-.6 5.4-2 8-4.3 19-12.4 22.1-14.7m7.4-19.8c0-.7-.6-1.3-1.4-1.6-.4-.3-.9-.4-1.4-.5.6.2 1.2.7 1.2 1.5 0 1.1-.9 2.1-2.2 2.1-1 0-2.3-.7-2.4-2 0-.6.1-1.1.5-1.5-1 .4-1.5 1.1-1.5 1.9v.2c.1 1.3 1.2 2.3 3.2 2.3h.5c1.9-.1 3.5-1.4 3.5-2.4" class="s6"/></g><g clip-path="url(#cp4)"><path d="M340.6 41.6c-.4 0-.6 0-.7.1.4 0 1.2.2 1.2.8 0 .5-.5.9-1.2.9-.3 0-.4 0-.6-.1.3.4.9.6 1.4.6.8 0 1.5-.7 1.5-1.3 0-.7-1.2-1-1.6-1" class="s7"/></g><path id="SVGID_00000032649774945744866260000008903113935045313697_" d="M220.7 429.6c-55.4.2-72.9 11.9-72.9 11.9-1.5-.5-2.8-.7-3.6-.6-2.2.3-.1 3.9 5.9 7.2 0 0-2.3 0-3.2.2-6.9 2.3 10.9 12.7 25.6 12.4.6 0 1 0 1.6-.1 0 0 13.4 10.3 22.8 15.3 9.1 4.8 7.4-.2 5.4-3.3-1-1.4-2.1-2.8-3.4-4 14.8 2.2 27.6 2.5 38.3 1.8 9.8 5.5 25.3 6 25.3 6 0-5.9 1.6-10.2 1.6-10.2 4.6-1.1 8.8-2.4 12.4-3.5.4-.2.6-.3.9-.3.4.1 10.2 2.9 14.5 3.5 3.6.5 7.3-2 11.4-4.4 3.7-2.2 7.7-4.5 12.4-4.4 3.3.1 6.6.3 9.6.7 8.2.9 27.2 10.9 41.3 10.4 4.7-.1-17.4-13.2-17.4-18.1 0-1.7 14.3-11.8 19.7-18.3 1.1-1.1-11.4.9-18.6 2.6-10.8 2.5-16.6 7.6-19 8-14.1 2.4-23.1-1.3-31.2-2.6-5.5-.8-23.6-4.8-41.2-7.5-2-2-6.1-4.9-10.4-7.8-6.9-4.5-9.4-8.5-9.4-8.5-14.6 6.3-18.4 13.6-18.4 13.6" class="s1"/><g clip-path="url(#cp5)"><path d="M139.9 416H371v64.7H139.9z" class="s1"/></g><g clip-path="url(#cp6)"><path d="M144.1 440.9h.3c.9 0 2 .2 3.3.7 0 0 17.5-11.8 72.9-11.8 0 0 3.8-7.3 18-13.7 0 0 2.6 4.2 9.4 8.6 4.4 2.9 8.5 5.8 10.4 7.7 17.6 2.7 35.7 6.7 41.3 7.5 6.2 1 12.9 3.4 22 3.4 2.8 0 5.8-.2 9.1-.8 2.5-.5 8.3-5.4 19-8 5.7-1.3 14.6-2.9 17.6-2.9.7 0 1.1.1 1.1.2 0 0 0 .2-.1.2-5.5 6.4-19.7 16.4-19.7 18.3 0 4.2 18 15.4 18 17.6q0 .3-.7.3h-.9c-14 0-32.4-9.6-40.4-10.4-3-.4-6.3-.6-9.6-.7h-.3c-9 0-15.8 8.8-22.5 8.8h-1c-4.3-.6-14-3.4-14.4-3.5-.4.1-.6.3-1 .3-3.6 1.1-7.6 2.4-12.4 3.5 0 0-1.6 4.3-1.6 10.2 0 0-15.4-.5-25.2-6-3.2.2-6.5.4-10 .4-8.5 0-18-.6-28.4-2.2 1.3 1.2 2.4 2.6 3.4 4 .8 1.3 1.6 2.9 1.6 4 0 .8-.4 1.2-1.4 1.2s-2.8-.6-5.6-1.9c-9.3-5-22.8-15.3-22.8-15.3-.4 0-1 .1-1.6.1h-.8c-12.3 0-26.3-7.2-26.3-10.8 0-.7.5-1.1 1.5-1.5.7-.2 2.3-.2 2.9-.2h.3c-4.4-2.3-6.7-5-6.7-6.4.5-.6.7-.9 1.3-.9-.6.1-.8.3-.8.8 0 1.4 2.3 3.9 6.7 6.4h-.3c-.7 0-2.2 0-2.9.2-1.1.3-1.5.9-1.5 1.5 0 3.6 14 10.8 26.3 10.8h.8c.5 0 1 0 1.6-.1 0 0 13.4 10.3 22.8 15.2 2.7 1.4 4.5 2 5.6 2 1 0 1.4-.6 1.4-1.3 0-1-.9-2.6-1.7-3.9-.9-1.4-2-2.8-3.3-4.1 10.5 1.6 19.9 2.2 28.4 2.2 3.4 0 6.8-.1 9.9-.3 9.7 5.4 25.3 6 25.3 6 0-5.9 1.6-10.2 1.6-10.2 4.6-1.1 8.8-2.4 12.4-3.6.3-.1.6-.2.9-.2.4.1 10.2 2.9 14.5 3.5h.9c6.7 0 13.6-8.8 22.6-8.8h.2c3.4.1 6.6.3 9.7.7 7.9.9 26.4 10.4 40.4 10.4h.9q.7 0 .7-.3c0-2.3-18.1-13.4-18.1-17.7 0-1.7 14.3-11.8 19.7-18.3l.1-.1c0-.1-.3-.2-1-.2-3 0-11.9 1.5-17.6 2.9-10.8 2.5-16.6 7.6-19 8-3.4.6-6.4.8-9.2.8-9.1 0-15.7-2.4-22-3.4-5.5-.8-23.6-4.8-41.2-7.5-2-2-6.1-4.9-10.4-7.8-6.9-4.5-9.4-8.5-9.4-8.5-14.3 6.3-18.1 13.6-18.1 13.6-55.2.2-72.8 11.9-72.8 11.9-1.3-.4-2.5-.7-3.3-.7-.5 0-.7 0-.8.1" style="fill:url(#g2)"/></g><g clip-path="url(#cp7)"><path fill-rule="evenodd" d="M142.6 441.7c0-.7.5-1.2 1.2-1.3h.4c.8 0 1.9.2 3.1.6 1.8-1.2 20.3-11.7 72.7-11.8.7-1.2 5.1-7.8 18.2-13.6.1-.1.3 0 .4.1 0 0 .6 1 2.1 2.6 1.5 1.5 3.8 3.7 7.2 5.9.8.6 1.6 1 2.4 1.6 3.4 2.2 6.4 4.4 8 6 17.6 2.7 35.6 6.8 41.1 7.6 6.4.9 13 3.3 22 3.3 2.8 0 5.8-.2 9.2-.8 2.2-.3 8.2-5.4 19-8 5.7-1.2 14.6-2.9 17.7-2.9.4 0 .6.1.8.1.3.2.6.2.6.6 0 .1 0 .3-.1.4-2.8 3.2-7.7 7.4-11.9 10.9-2.1 1.7-4.1 3.3-5.5 4.6s-2.3 2.3-2.2 2.4c-.1 1.9 4.4 5.9 8.9 9.4 2 1.5 3.9 3 5.5 4.3.3.1.6.3.8.6 1.7 1.5 2.9 2.4 3 3.3 0 .6-.6.8-1 .8h-1c-14.2 0-32.6-9.6-40.5-10.4q-4.5-.5-9.4-.7h-.3c-6.5-.1-12 4.8-17.2 7.3-1.7.9-3.6 1.5-5.3 1.5-.2 0-.6-.1-.9-.1-4.1-.6-13.2-3.1-14.4-3.5-.2.2-.6.2-.8.3-3.5 1.1-7.5 2.4-12.2 3.6-.3.9-1.5 4.7-1.5 9.8 0 .1 0 .1-.1.2 0 .2-.1.2-.2.2s-15.4-.6-25.4-6.1c-3.1.3-6.4.4-9.8.4-8.3 0-17.4-.6-27.5-2 1 1.1 1.9 2.2 2.7 3.4.9 1.2 1.7 2.9 1.7 4.1 0 .4 0 .7-.2 1.1l-.1.1c-.4.3-.9.5-1.4.5-1.2 0-2.9-.6-5.7-2.1-8.9-4.8-21.6-14.3-22.8-15.2-.5.1-1 .1-1.4.1h-.8c-6.3 0-12.9-1.7-18-4-5.1-2.4-8.7-4.9-8.8-7.1 0-.8.7-1.5 1.7-1.9.5-.1 1.3-.2 2-.2-3.7-2.2-5.7-4.5-6-6m7.6 6.4c.7.3 1.5.8 2.5 1.1 5.2 2.2 10.7 2.4 12.4 2.4h.4c.1 0 .4.2.4.4 0 .1-.1.3-.4.3h-.4c-1.7 0-7.3-.2-12.8-2.5q-1.35-.6-2.4-1.2h-.2c-.6 0-2.2 0-2.8.3-1.1.3-1.3.7-1.3 1.1-.1 1.3 3.4 4.2 8.3 6.4 5 2.3 11.6 4.1 17.7 4.1h.6c5.7-.3 9.1-1.7 11.2-3.5 2.3-2.1 2.9-4.8 2.9-7.2.1-3-1-5.4-1-5.4 0-.2 0-.4.3-.5.1 0 .3 0 .4.2 0 0 1.1 2.6 1.1 5.7 0 2.4-.6 5.2-2.8 7.4 1.9 1.1 9.1 5.5 14.6 11.1 10.4 1.5 19.8 2.1 28.3 2.1 22.3 0 38-4.4 49-8 12.6-4.1 24.7-5.7 35.6-5.7 1.3 0 2.6.2 3.7.2h.2c3.2.1 6.2.3 9.2.7 8.2.9 26.5 10.4 40.5 10.4h1.1c0-.4-1-1.5-2.7-2.8l-.5-.5h-.3c-1.4 0-6.5-.4-22-4.8-.1 0-.2-.3-.2-.5s.2-.3.5-.2c13.4 3.8 19 4.6 21 4.7-2.3-1.8-5.2-4-7.7-6.2-1.1-.1-9.1-.8-12.4-1.4-.2-.1-.4-.2-.4-.5.2-.2.3-.3.5-.3 2.8.4 8.7 1 11.2 1.2-2.6-2.3-4.6-4.4-4.9-6.1-1.8 0-10.4-.5-16.8-.5-2.5 0-4.6.2-5.8.3-.3 0-.5-.1-.5-.4 0-.2.1-.4.3-.4 1.4-.3 3.5-.3 6-.3 6.4 0 15.2.4 16.9.5.2-.7 1.1-1.4 2.3-2.6 1.1-1 2.8-2.4 4.5-3.8-1.5.1-5.2.8-13.2 3.8h-.1c-.1 0-.4-.1-.4-.2-.1-.2 0-.3.3-.4 9.2-3.5 12.7-4 14-4h.3c1.9-1.5 4-3.2 5.8-4.9-2.1 0-8.3.9-22.7 6.5h-.1c-.1 0-.2-.1-.3-.2 0-.1 0-.3.2-.5 14.6-5.8 21-6.4 23-6.4h.7c2-1.8 3.9-3.5 5.1-5h-.4c-2.9 0-11.8 1.6-17.5 2.9-10.7 2.4-16.4 7.5-19 8-3.4.5-6.5.8-9.3.8-9.3 0-15.9-2.5-22.1-3.4-8.2-1.3-43.6-9.4-64.8-10.1-4.8-.1-9.3-.2-13.8-.2-27.9 0-46.2 2.9-57.5 5.9-5.7 1.5-9.6 2.9-12.2 4.1-1.4.5-2.3 1-2.9 1.4 3.5 1.1 7.4 3 7.4 3 .3 0 .4.2.3.4 0 .3-.3.4-.5.3 0 0-2.1-1.1-4.5-2-2.4-1-5.3-2-6.7-2h-.4c-.4.1-.6.1-.6.5 0 1 2.2 3.7 6.6 6.4m17.6 8.8s1.8 0 3.9-.6 4.5-1.6 5.8-3.7c.9-1.4 1.1-3.2 1.1-4.9 0-2.5-.6-4.9-.6-4.9-.1-.2 0-.4.3-.4.2-.1.4 0 .4.2 0 0 .6 2.4.6 5.1 0 1.7-.3 3.7-1.3 5.2-3 4.7-10.3 4.7-10.3 4.7q-.3 0-.3-.4c0-.2.1-.3.4-.3M171 438c1.4 0 2.5.2 3.2.8s1.1 1.4 1.1 2.2v.2c-.2 1.8-1.7 3-3.9 3h-.7c-2-.2-4.1-1.5-4.1-3.2.1-2.3 3.2-3 4.4-3m67.5-21.6c-6.9 3.2-11.3 6.5-14 9.1q-1.9 1.9-2.8 3.1c-.2.2-.3.3-.5.6 2.7 0 5.5.1 8.3.1 3.1-4.1 10.1-8.6 11.8-9.7-1.5-1.5-2.3-2.7-2.8-3.2m3.5 3.9c-.6.4-2.4 1.6-4.5 3.1-2.4 1.7-5.1 3.9-6.9 6 1.5 0 3 .1 4.5.1 1 0 1.9 0 2.9.1 2.2-3.1 6.1-5.6 7.5-6.4-1.4-1.1-2.7-2.1-3.5-2.9m5.9 4.5c-.7-.5-1.3-.8-1.9-1.3-.9.6-4.8 3-7.1 6q3.4.4 7.3.7c1.1-2 2.8-3.5 3.7-4-.6-.5-1.3-.8-2-1.4m2.7 1.8c-.6.5-2.4 1.8-3.6 3.7q5 .6 10.4 1.4c-1.6-1.4-4.1-3.2-6.8-5.1m41 38.9h.9c1.4 0 2.8-.4 4.2-1-1.4-.6-4.1-1.6-5.9-2.1-.2 0-.3-.2-.3-.4s.3-.3.5-.3c2.3.6 5.9 2 6.7 2.3 1.2-.5 2.3-1.2 3.6-1.9-.9-.4-2.8-.8-4.5-1.2-.3-.1-.4-.2-.4-.4.1-.3.3-.4.5-.4 2.3.5 4.5 1.2 5.2 1.4 2.7-1.6 5.4-3.2 8.5-4.2-10 .1-20.8 1.5-32.1 5 2.9.8 9.8 2.8 13.1 3.2m-38.1 9.7c4 .7 7.4.8 8.4.9 0-.6.1-1.2.1-1.7-1.5-.2-7.2-.5-10.7-1.9-.3 0-.4-.2-.3-.5 0-.2.3-.3.5-.2 3.3 1.3 9 1.6 10.5 1.7q0-1.35.3-2.4c-.7-.1-2.6-.5-4-.8-.1 0-.2-.2-.2-.5 0-.1.2-.2.4-.2 1.4.5 3.2.7 4 .8.2-1.6.6-2.9.8-3.6-7 1.8-15.1 3.2-24.8 3.8 4.6 2.4 10.3 3.6 15 4.6m-56.5.4c2.7 1.4 4.4 2 5.4 2 .2 0 .4-.1.5-.1-1.8-1.4-10.1-7.5-18-13.1-.3-.1-.3-.5-.1-.6.1-.2.4-.2.5-.1 7.9 5.6 16.3 11.7 18.1 13.1v-.2c.1-1-.7-2.5-1.5-3.8-2.8-4.2-7.4-8.1-11.2-10.8-3.4-2.4-6.1-4-6.9-4.4-1.9 1.7-4.7 2.9-8.9 3.3 3 2.2 14 10.3 22.1 14.7m-26.1-32.2h.5c2 0 3.1-1 3.2-2.3v-.2c0-.7-.5-1.5-1.5-1.9.4.4.5.9.5 1.5-.1 1.3-1.4 2-2.4 2-1.3 0-2.2-1-2.2-2.1 0-.7.6-1.3 1.2-1.5-.5.1-1 .2-1.4.5-.8.3-1.4.9-1.4 1.6-.1 1 1.5 2.3 3.5 2.4" class="s6"/></g><g clip-path="url(#cp8)"><path d="M171.4 439.5c.4 0 .6 0 .7.1-.4 0-1.2.2-1.2.8 0 .5.5.9 1.2.9.3 0 .4 0 .6-.1-.3.4-.9.6-1.4.6-.8 0-1.5-.7-1.5-1.3 0-.7 1.2-1 1.6-1" class="s7"/></g><g clip-path="url(#cp9)"><path d="M26.1 139.9h64.7V371H26.1z" class="s1"/></g><g clip-path="url(#cp10)"><path d="M51 144.1v.3c0 .9.2 2 .7 3.3 0 0-11.9 17.5-11.9 72.9 0 0-7.2 3.8-13.6 18 0 0 4.1 2.6 8.6 9.4 2.8 4.4 5.7 8.5 7.7 10.4 2.7 17.6 6.7 35.7 7.5 41.3 1 6.2 3.4 12.9 3.4 22 0 2.8-.2 5.8-.8 9.1-.5 2.5-5.5 8.3-8 19-1.3 5.7-2.9 14.6-2.9 17.6 0 .7.1 1.1.2 1.1 0 0 .1 0 .1-.1 6.5-5.5 16.5-19.7 18.4-19.7 4.2 0 15.4 18 17.6 18q.3 0 .3-.7v-.9c0-14-9.6-32.4-10.4-40.4-.4-3-.6-6.3-.7-9.6v-.3c0-9 8.8-15.8 8.8-22.5v-1c-.6-4.3-3.4-14-3.5-14.4.1-.4.2-.6.2-1 1.2-3.6 2.5-7.6 3.6-12.4 0 0 4.3-1.6 10.2-1.6 0 0-.5-15.4-6-25.2.2-3.2.4-6.5.4-10 0-8.5-.6-18-2.2-28.4 1.2 1.3 2.6 2.4 4 3.4 1.3.8 2.9 1.6 3.9 1.6.9 0 1.3-.4 1.3-1.4s-.6-2.8-1.9-5.6c-5-9.3-15.3-22.8-15.3-22.8 0-.4.1-1 .1-1.6v-.8c0-12.3-7.2-26.3-10.8-26.3q-1.05 0-1.5 1.5c-.2.7-.2 2.3-.2 3v.4c-2.4-4.4-5-6.8-6.4-6.8-.6.4-.8.6-.9 1.2.1-.6.3-.8.9-.8 1.4 0 3.9 2.3 6.4 6.7v-.3c0-.7 0-2.2.2-3.1.3-1 .9-1.5 1.5-1.5 3.6 0 10.8 14.1 10.8 26.3v.8c0 .6 0 1.1-.1 1.7 0 0 10.3 13.4 15.3 22.8 1.5 2.7 1.9 4.5 1.9 5.6 0 1-.6 1.3-1.3 1.3-1 0-2.6-.8-3.9-1.6-1.4-.9-2.8-2.1-4-3.3 1.5 10.5 2.2 19.9 2.2 28.3 0 3.5-.2 6.9-.4 10 5.5 9.7 6 25.3 6 25.3-5.9 0-10.2 1.6-10.2 1.6-1.1 4.6-2.4 8.8-3.6 12.4-.1.3-.2.6-.2.9.1.3 2.9 10.2 3.5 14.5v.9c0 6.7-8.8 13.6-8.8 22.6v.2c.1 3.4.3 6.6.7 9.6.9 8 10.4 26.4 10.4 40.5v.9q0 .7-.3.7c-2.2 0-13.4-18.1-17.6-18.1-1.8 0-11.9 14.3-18.4 19.7l-.1.1c-.1 0-.2-.3-.2-1 0-3 1.5-11.9 2.9-17.6 2.5-10.8 7.6-16.6 8-19 .6-3.4.8-6.4.8-9.2 0-9.1-2.4-15.7-3.4-22-.8-5.5-4.8-23.6-7.5-41.2-2-2-4.9-6.2-7.7-10.4-4.6-6.9-8.6-9.4-8.6-9.4 6.4-14.3 13.6-18.1 13.6-18.1.2-55.4 11.9-72.9 11.9-72.9-.4-1.2-.7-2.4-.7-3.2z" style="fill:url(#g3)"/></g><g clip-path="url(#cp11)"><path fill-rule="evenodd" d="M57.9 149c0-.7.1-1.4.3-2 .3-1 1-1.7 1.8-1.7 2.2.1 4.8 3.7 7.1 8.8 2.2 5.1 4 11.8 4 17.9v.8c-.1.5-.1 1-.1 1.4.9 1.3 10.4 13.9 15.2 22.8 1.5 2.7 2.1 4.6 2.1 5.7 0 .6-.1 1.1-.5 1.4l-.1.1c-.4.1-.7.3-1.1.3-1.2 0-2.8-.9-4.1-1.8-1.2-.8-2.3-1.7-3.4-2.6 1.4 10 2 19.2 2 27.4 0 3.5-.1 6.7-.4 9.9 5.5 9.9 6.1 25.3 6.1 25.3 0 .1 0 .1-.2.3 0 .1-.1.1-.2.1-5.1 0-9 1.2-9.8 1.5-1.2 4.5-2.5 8.5-3.6 12.1-.1.3-.1.6-.3.8.4 1.2 2.9 10.4 3.5 14.4.1.2.1.6.1.9 0 1.8-.7 3.6-1.5 5.4-2.4 5.2-7.3 10.6-7.3 17.1v.4q.2 4.8.7 9.3c.8 7.9 10.5 26.4 10.5 40.6v.9c0 .5-.3 1.1-.9 1.1-.9-.2-1.8-1.3-3.3-3.1-.1-.3-.4-.5-.6-.8-1.3-1.6-2.8-3.4-4.3-5.4-3.6-4.5-7.6-9.1-9.4-8.9-.1-.2-1.1.8-2.4 2.2s-2.9 3.3-4.6 5.4c-3.5 4.2-7.7 9.2-10.9 11.9 0 0-.1.2-.4.2-.4-.2-.5-.4-.5-.6-.2-.3-.2-.5-.2-.8 0-3.2 1.7-12.1 2.9-17.8 2.6-10.7 7.7-16.8 8-19 .6-3.3.8-6.3.8-9.1 0-9-2.4-15.6-3.3-22-.8-5.6-4.9-23.5-7.6-41.1-1.6-1.7-3.7-4.7-6-8-.6-.8-1-1.7-1.6-2.5-2.2-3.3-4.3-5.6-5.9-7.1-1.5-1.5-2.6-2.1-2.6-2.1-.1-.1-.2-.3-.1-.5 5.8-13.1 12.3-17.5 13.6-18.2.1-52.3 10.6-70.8 11.8-72.6-.3-1.2-.6-2.3-.6-3.1v-.5c.1-.7.6-1.2 1.3-1.2 1.5 0 3.7 2 6 6.1m-6.5-5.5c-.2.1-.3.1-.4.6v.3c0 1.4 1 4.3 1.9 6.8 1.1 2.4 2 4.5 2 4.5 0 .1 0 .3-.2.4-.1 0-.4 0-.5-.2 0 0-1.8-3.9-3-7.4-.3.6-.8 1.5-1.4 2.9-1.1 2.5-2.5 6.5-4 12.2-2.9 11.3-6 29.6-6 57.5 0 4.4.2 9 .3 13.8.7 21.2 8.8 56.5 10.1 64.8.9 6.2 3.3 12.9 3.3 22.1 0 2.9-.2 5.9-.8 9.3-.5 2.6-5.4 8.3-8 19-1.4 5.5-2.9 14.6-2.9 17.5v.4c1.5-1.4 3.3-3.1 5-5.1v-.7c0-2.1.6-8.3 6.5-23 0-.3.2-.4.4-.3.2 0 .3.3.3.4v.1c-5.8 14.4-6.5 20.6-6.5 22.7 1.6-1.8 3.4-3.9 4.9-5.8v-.3c0-1.2.4-4.8 3.9-14 0-.3.2-.4.5-.3.1 0 .2.3.2.4v.1c-3 8-3.7 11.7-3.8 13.2 1.4-1.7 2.7-3.4 3.8-4.5 1-1.2 1.8-2 2.5-2.3 0-1.8-.4-10.5-.4-17 0-2.4.1-4.5.2-5.9.1-.2.2-.3.5-.3.2.1.3.2.3.4-.2 1.3-.2 3.4-.2 5.8 0 6.4.3 15.1.5 16.8 1.7.4 3.8 2.5 6.1 5-.2-2.5-.8-8.4-1.3-11.2 0-.2.1-.5.4-.5.2 0 .4.1.4.4.6 3.4 1.3 11.3 1.4 12.4 2.2 2.5 4.4 5.4 6.3 7.7-.1-1.9-1-7.5-4.8-21.1-.1-.2 0-.4.3-.4.2-.1.4 0 .4.2 4.4 15.5 4.9 20.6 4.9 22v.2c.1.2.3.4.4.6 1.3 1.5 2.6 2.7 2.8 2.7v-1.2c0-13.9-9.5-32.3-10.4-40.4-.3-2.9-.6-6-.7-9.3v-.1c-.1-1.2-.1-2.4-.1-3.7 0-10.9 1.5-23 5.7-35.7 3.6-11 8-26.6 8-49 0-8.4-.6-17.8-2.1-28.2C72.4 193.3 68 186 67 184.2c-2.2 2.2-5 2.8-7.5 2.8-3.1 0-5.6-1.1-5.6-1.1-.3 0-.4-.2-.3-.4 0-.3.3-.4.5-.3 0-.1 2.4 1 5.4 1 2.5-.2 5.1-.7 7.2-2.9 2-2 3.4-5.5 3.5-11.2v-.7c0-6-1.9-12.6-4.1-17.6-2.2-4.9-4.9-8.4-6.3-8.3-.5 0-.8.3-1.2 1.3-.2.5-.2 2.1-.2 2.7v.3c.3.8.8 1.6 1.1 2.4a34 34 0 0 1 2.6 12.8v.4q0 .4-.4.4-.3 0-.3-.4v-.4c0-1.6-.1-7.2-2.4-12.4-.4-.9-.7-1.7-1.2-2.5-2.3-4.3-5-6.5-6.4-6.6m15.9 23.8q.3 0 .3.3s0 7.3-4.6 10.3c-1.5 1.1-3.5 1.3-5.2 1.3-2.7 0-5.1-.6-5.1-.6-.1 0-.2-.2-.2-.4s.2-.3.4-.3c0 0 2.4.6 4.9.6 1.7 0 3.6-.3 4.9-1.2 2.1-1.2 3.1-3.7 3.7-5.7.6-2.1.6-3.9.6-3.9 0-.2.1-.3.3-.4m-16.1-.6c1.7 0 3 2 3.2 4.2v.7c0 2.2-1.2 3.7-3 3.8h-.2c-.9 0-1.6-.4-2.2-1.1-.5-.7-.8-1.8-.8-3.2 0-1.3.6-4.4 3-4.4m-21.5 74.7c1.1-1.7 5.6-8.7 9.7-11.8-.1-2.8-.1-5.6-.1-8.2-.1.1-.4.2-.6.4-.7.5-1.9 1.4-3.1 2.8-2.6 2.7-5.9 7.1-9.1 14 .6.4 1.8 1.2 3.2 2.8m3.4 3.9c1-1.2 3.4-5.2 6.5-7.4 0-.9-.1-1.9-.1-2.9 0-1.5-.1-3-.1-4.5-2.1 1.8-4.3 4.4-6 6.9-1.7 2-2.8 3.9-3.2 4.5 1 .9 2 2.2 2.9 3.4m3.3 4.6c.6-.9 1.9-2.5 4-3.7q-.5-3.9-.7-7.3c-3 2.3-5.4 6.2-6 7.1.5.6.8 1.2 1.3 1.9.4.7.9 1.4 1.4 2m5.5 7.5c-.5-3.5-1-7.1-1.4-10.4-1.9 1.2-3.2 3-3.7 3.6 1.9 2.7 3.6 5.2 5.1 6.8m30.5 21.2c-3.5 11.3-4.9 22.1-5 32.1.9-3 2.6-5.8 4.2-8.5-.2-.6-.9-2.9-1.4-5.2 0-.2.1-.5.3-.5.3 0 .5.2.5.4.4 1.7.8 3.6 1.2 4.5.7-1.3 1.4-2.4 1.9-3.6-.2-.8-1.7-4.4-2.3-6.7-.1-.2 0-.5.3-.5.2-.1.4 0 .4.3.5 1.7 1.5 4.5 2.1 5.9q1-2.1 1-4.2v-.9c-.4-3.4-2.3-10.3-3.2-13.1m8.3-40.1c-.7 9.6-2 17.8-3.8 24.8.7-.2 2-.6 3.6-.8-.1-.8-.5-2.6-.8-4-.1-.2 0-.4.2-.4.3-.1.5 0 .5.2.3 1.4.7 3.1.8 4 .8-.2 1.6-.2 2.4-.3 0-1.5-.3-7.2-1.7-10.5-.1-.1 0-.4.2-.5.1 0 .4 0 .5.3 1.4 3.5 1.7 9.2 1.8 10.7.6-.1 1.2-.1 1.8-.1 0-1-.2-4.3-.9-8.4-.9-4.7-2.2-10.4-4.6-15m-9.8-63.7c-.5 4.2-1.7 7.1-3.4 8.9.5.8 2.1 3.6 4.4 6.9 2.8 3.8 6.8 8.4 10.9 11.2 1.2.8 2.8 1.5 3.7 1.5h.3c-1.4-2-7.6-10.2-13.1-18.1-.1-.2 0-.4.1-.6.2-.1.5 0 .6.2 5.5 8 11.7 16.2 13.1 18 .1-.1.1-.3.1-.5 0-1-.6-2.7-2-5.4-4.2-8-12.4-19-14.7-22.1m-19.7-7.4c-.7 0-1.3.6-1.6 1.4-.3.4-.4.9-.5 1.4.2-.6.7-1.2 1.5-1.2 1.1 0 2.1.9 2.1 2.2 0 1-.7 2.3-2 2.4-.5 0-1.1-.1-1.5-.5.4 1 1.1 1.5 1.9 1.5h.2c1.3-.1 2.3-1.2 2.3-3.2v-.5c-.1-2-1.4-3.6-2.4-3.5" class="s6"/></g><g clip-path="url(#cp12)"><path d="M49.6 171.4c0 .4 0 .6.1.7 0-.4.2-1.2.8-1.2.5 0 .9.5.9 1.2 0 .3 0 .4-.1.6.4-.3.6-.9.6-1.4 0-.8-.7-1.5-1.3-1.5-.7 0-1 1.2-1 1.6" class="s7"/></g><g clip-path="url(#cp13)"><path d="M421.2 141h64.7v231.1h-64.7z" class="s1"/></g><g clip-path="url(#cp14)"><path d="M461 367.8v-.4c0-.8-.2-1.9-.7-3.2 0 0 11.9-17.5 11.9-72.9 0 0 7.2-3.8 13.6-18 0 0-4.1-2.6-8.6-9.4-2.8-4.4-5.7-8.5-7.7-10.4-2.7-17.7-6.7-35.7-7.5-41.3-1-6.2-3.4-13-3.4-22 0-2.8.2-5.8.8-9.1.5-2.5 5.5-8.3 8-19 1.3-5.7 2.9-14.6 2.9-17.7 0-.6-.1-1-.2-1 0 0-.1 0-.1.1-6.5 5.5-16.5 19.7-18.4 19.7-4.2 0-15.4-18.1-17.6-18.1q-.3 0-.3.7v1c0 14 9.6 32.4 10.4 40.4.4 3 .6 6.2.7 9.6v.2c0 9.1-8.8 15.9-8.8 22.6 0 .4 0 .6.1 1 .6 4.2 3.4 14 3.5 14.4-.1.4-.2.6-.2 1-1.2 3.6-2.5 7.6-3.6 12.4 0 0-4.3 1.6-10.2 1.6 0 0 .6 15.4 6 25.2a176 176 0 0 0 1.9 38.4 26 26 0 0 0-4.1-3.4c-1.3-.8-2.9-1.6-3.9-1.6-.8 0-1.3.3-1.3 1.4 0 1 .6 2.8 2 5.5 4.9 9.4 15.3 22.9 15.3 22.9 0 .4-.2 1-.2 1.6v.8c0 12.3 7.2 26.3 10.8 26.3q1.05 0 1.5-1.5c.2-.7.2-2.3.2-3v-.4c2.4 4.4 5 6.7 6.4 6.7.4-.2.7-.5.8-1.1-.1.6-.3.8-.8.8-1.4 0-3.9-2.3-6.4-6.7v.3c0 .7 0 2.2-.2 3-.3 1.1-.9 1.5-1.5 1.5-3.6 0-10.8-14-10.8-26.3v-.8c0-.5 0-1 .2-1.6 0 0-10.4-13.4-15.3-22.8-1.4-2.7-2-4.5-2-5.6 0-1 .6-1.4 1.3-1.4 1 0 2.6.9 3.9 1.7 1.4.9 2.8 2 4.1 3.3-1.5-10.5-2.2-19.9-2.2-28.4 0-3.4.1-6.8.3-9.9-5.4-9.7-6-25.3-6-25.3 5.9 0 10.2-1.6 10.2-1.6 1.1-4.6 2.4-8.8 3.6-12.4.1-.3.2-.6.2-.9-.1-.4-2.9-10.2-3.5-14.5 0-.3-.1-.6-.1-.9 0-6.7 8.8-13.6 8.8-22.6v-.2c-.1-3.4-.3-6.6-.7-9.7-.9-7.9-10.4-26.4-10.4-40.4v-.9q0-.7.3-.7c2.2 0 13.4 18.1 17.6 18.1 1.8 0 11.9-14.3 18.4-19.7l.1-.1c.1 0 .2.3.2 1 0 3-1.5 11.9-2.9 17.6-2.5 10.8-7.6 16.6-8 19-.6 3.4-.8 6.4-.8 9.2 0 9.1 2.4 15.7 3.4 22 .8 5.5 4.8 23.6 7.5 41.2 2 2 4.9 6.1 7.7 10.4 4.6 6.9 8.6 9.4 8.6 9.4-6.4 14.3-13.6 18.1-13.6 18.1-.2 55.4-11.9 72.8-11.9 72.8.4 1.3.7 2.5.7 3.3z" style="fill:url(#g4)"/></g><g clip-path="url(#cp15)"><path fill-rule="evenodd" d="M454.1 363c0 .7-.1 1.4-.3 2-.3 1-1 1.7-1.8 1.7-2.2-.1-4.8-3.7-7.1-8.8-2.2-5.1-4-11.8-4-17.9v-.8c.1-.5.1-1 .1-1.4-.9-1.3-10.4-13.9-15.2-22.8-1.5-2.7-2.1-4.6-2.1-5.7 0-.6.1-1.1.5-1.4l.1-.1c.4-.1.7-.3 1.1-.3 1.2 0 2.8.9 4.1 1.8 1.2.8 2.3 1.7 3.4 2.6-1.4-10-2-19.2-2-27.4 0-3.5.1-6.7.4-9.9-5.5-9.9-6.1-25.3-6.1-25.3 0-.1 0-.1.2-.3 0-.1.1-.1.2-.1 5.1 0 9-1.1 9.8-1.5 1.2-4.5 2.5-8.5 3.6-12.1.1-.3.1-.6.3-.8-.4-1.2-2.9-10.4-3.5-14.4-.1-.2-.1-.6-.1-.9 0-1.8.7-3.6 1.5-5.4 2.4-5.2 7.3-10.6 7.3-17.1v-.4q-.2-4.8-.7-9.3c-.8-7.9-10.5-26.4-10.5-40.6v-.9c0-.5.3-1.1.9-1.1.9.2 1.8 1.3 3.3 3.1.1.3.4.5.6.8 1.3 1.6 2.8 3.4 4.3 5.4 3.6 4.5 7.6 9.1 9.4 8.9.1.2 1.1-.8 2.4-2.2s2.9-3.3 4.6-5.4c3.5-4.2 7.7-9.2 10.9-11.9 0 0 .3-.2.4-.2.4.2.5.4.5.6.2.3.2.5.2.8 0 3.2-1.7 12.1-2.9 17.8-2.6 10.7-7.7 16.8-8 19-.6 3.3-.8 6.3-.8 9.1 0 9 2.4 15.6 3.3 22 .8 5.6 4.9 23.5 7.6 41.1 1.6 1.7 3.7 4.7 6 8 .6.8 1 1.7 1.6 2.5 2.2 3.3 4.3 5.6 5.9 7.1 1.5 1.5 2.6 2.1 2.6 2.1.1.1.2.4.1.5-5.8 13.1-12.3 17.5-13.6 18.2-.1 52.3-10.6 70.8-11.8 72.6.3 1.2.6 2.3.6 3.1v.5c-.1.7-.6 1.2-1.3 1.2-1.5 0-3.7-2-6-6.1m6.5 5.5c.2-.1.3-.1.4-.6v-.3c0-1.4-1-4.3-1.9-6.8-1.1-2.4-2-4.5-2-4.5 0-.1 0-.3.2-.4.1 0 .4 0 .5.2 0 0 1.8 3.9 3 7.4.3-.6.8-1.5 1.4-2.9 1.1-2.5 2.5-6.5 4-12.2 2.9-11.3 6-29.6 6-57.5 0-4.4-.2-9-.3-13.8-.7-21.2-8.8-56.5-10.1-64.8-.9-6.2-3.3-12.9-3.3-22.1 0-2.9.2-5.9.8-9.3.5-2.6 5.4-8.3 8-19 1.4-5.5 2.9-14.6 2.9-17.5v-.4c-1.5 1.4-3.3 3.1-5 5.1v.7c0 2.1-.6 8.3-6.5 23 0 .3-.2.4-.4.3-.2 0-.3-.3-.3-.4v-.1c5.8-14.4 6.5-20.6 6.5-22.7-1.6 1.8-3.4 3.9-4.9 5.8v.3c0 1.2-.4 4.8-3.9 14 0 .3-.2.4-.5.3-.1 0-.2-.3-.2-.4v-.1c3-8 3.7-11.7 3.8-13.2-1.4 1.7-2.7 3.4-3.8 4.5-1 1.2-1.8 2-2.5 2.3 0 1.8.4 10.5.4 17 0 2.4-.1 4.5-.2 5.9-.1.2-.2.3-.5.3-.2-.1-.3-.2-.3-.4.2-1.3.2-3.4.2-5.8 0-6.4-.3-15.1-.5-16.8-1.7-.4-3.8-2.5-6.1-5 .2 2.5.8 8.4 1.3 11.2 0 .2-.1.5-.4.5-.2 0-.4-.1-.4-.4-.6-3.4-1.3-11.3-1.4-12.4-2.2-2.5-4.4-5.4-6.3-7.7.1 1.9 1 7.5 4.8 21.1.1.2 0 .4-.3.4-.2.1-.4 0-.4-.2-4.4-15.5-4.9-20.6-4.9-22v-.2c-.1-.2-.3-.4-.4-.6-1.3-1.5-2.6-2.7-2.8-2.7v1.2c0 13.9 9.5 32.3 10.4 40.4.3 2.9.6 6 .7 9.3v.1c.1 1.2.1 2.4.1 3.7 0 10.9-1.5 23-5.7 35.7-3.6 11-8 26.6-8 49 0 8.4.6 17.8 2.1 28.2 5.7 5.5 10.1 12.8 11.1 14.6 2.2-2.2 5-2.8 7.5-2.8 3.1 0 5.6 1.1 5.6 1.1.3 0 .4.2.3.4 0 .3-.3.4-.5.3 0 .1-2.4-1-5.4-1-2.5.2-5.1.7-7.2 2.9-2 2-3.4 5.5-3.5 11.2v.7c0 6 1.9 12.6 4.1 17.6 2.2 4.9 4.9 8.4 6.3 8.3.5 0 .8-.3 1.2-1.3.2-.5.2-2.1.2-2.7v-.3c-.3-.8-.8-1.6-1.1-2.4a34 34 0 0 1-2.6-12.8v-.4q0-.4.4-.4.3 0 .3.4v.4c0 1.6.1 7.2 2.4 12.4.4.9.7 1.7 1.2 2.5 2.3 4.3 5 6.5 6.4 6.6m-15.9-23.8q-.3 0-.3-.3s0-7.3 4.6-10.3c1.5-1.1 3.5-1.3 5.2-1.3 2.7 0 5.1.6 5.1.6.1 0 .2.2.2.4s-.2.3-.4.3c0 0-2.4-.6-4.9-.6-1.7 0-3.6.3-4.9 1.2-2.1 1.2-3.1 3.7-3.7 5.7-.6 2.1-.6 3.9-.6 3.9 0 .2-.2.3-.3.4m16.1.6c-1.7 0-3-2-3.2-4.2v-.7c0-2.2 1.2-3.7 3-3.8h.2c.9 0 1.6.4 2.2 1.1.5.7.8 1.8.8 3.2 0 1.3-.6 4.3-3 4.4m21.5-74.7c-1.1 1.7-5.6 8.7-9.7 11.8.1 2.8.1 5.6.1 8.2.1-.1.4-.2.6-.4.7-.5 1.9-1.4 3.1-2.8 2.6-2.7 5.9-7.1 9.1-14-.6-.4-1.8-1.2-3.2-2.8m-3.4-3.9c-1 1.2-3.4 5.2-6.5 7.4 0 .9.1 1.9.1 2.9 0 1.5.1 3 .1 4.5 2.1-1.8 4.3-4.4 6-6.9 1.7-2 2.8-3.9 3.2-4.5-1-1-2-2.2-2.9-3.4m-3.3-4.6c-.6.9-1.9 2.5-4 3.7q.5 3.9.7 7.3c3-2.3 5.4-6.2 6-7.1-.5-.6-.8-1.2-1.3-1.9-.4-.7-.9-1.4-1.4-2m-5.5-7.5c.5 3.5 1 7.1 1.4 10.4 1.9-1.2 3.2-3 3.7-3.6-1.9-2.7-3.6-5.2-5.1-6.8m-30.5-21.2c3.5-11.3 4.9-22.1 5-32.1-.9 3-2.6 5.8-4.2 8.5.2.6.9 2.9 1.4 5.2 0 .2-.1.5-.3.5-.3 0-.5-.2-.5-.4-.4-1.7-.8-3.6-1.2-4.5-.7 1.3-1.4 2.4-1.9 3.6.2.8 1.7 4.4 2.3 6.7.1.2 0 .5-.3.5-.2.1-.4 0-.4-.3-.5-1.7-1.5-4.5-2.1-5.9q-1 2.1-1 4.2v.9c.4 3.4 2.3 10.3 3.2 13.1m-8.3 40.1c.7-9.6 2-17.8 3.8-24.8-.7.2-2 .5-3.6.8.1.8.5 2.6.8 4 .1.2 0 .4-.2.4-.3.1-.5 0-.5-.2-.3-1.4-.7-3.1-.8-4-.8.2-1.6.2-2.4.3 0 1.5.3 7.2 1.7 10.5.1.1 0 .4-.2.5-.1 0-.4 0-.5-.3-1.4-3.5-1.7-9.2-1.8-10.7-.6.1-1.2.1-1.8.1 0 1 .2 4.3.9 8.4.9 4.7 2.2 10.4 4.6 15m9.8 63.8c.5-4.2 1.7-7 3.4-8.9-.5-.8-2.1-3.6-4.4-6.8-2.8-3.9-6.8-8.5-10.9-11.3-1.2-.9-2.8-1.6-3.7-1.6h-.3c1.4 2 7.6 10.2 13.1 18.1.1.2 0 .4-.1.6-.2.1-.5 0-.6-.2-5.5-8-11.7-16.2-13.1-18-.1.1-.1.3-.1.5 0 1 .6 2.7 2 5.4 4.2 8 12.3 19 14.7 22.2m19.7 7.3c.7 0 1.3-.6 1.6-1.4.3-.4.4-.9.5-1.4-.2.6-.7 1.2-1.5 1.2-1.1 0-2.1-.9-2.1-2.2 0-1 .7-2.3 2-2.4.5 0 1.1.1 1.5.5-.4-1-1.1-1.5-1.9-1.5h-.2c-1.3.1-2.3 1.2-2.3 3.2v.5c.1 1.9 1.4 3.5 2.4 3.5" class="s6"/></g><g clip-path="url(#cp16)"><path d="M462.4 340.6c0-.4 0-.6-.1-.7 0 .4-.2 1.2-.8 1.2-.5 0-.9-.5-.9-1.2 0-.3 0-.4.1-.6-.4.3-.6.9-.6 1.4 0 .8.7 1.5 1.3 1.5.7 0 1-1.2 1-1.6" class="s7"/></g><g clip-path="url(#cp17)"><path d="M312.1 193.1s20.9-1.4 20.9-22.9c0-12.3-8.7-22.6-18.4-22.6s-19.8 4.5-58.6 4.5-48.9-4.5-58.6-4.5-18.4 10.2-18.4 22.6c0 21.5 20.9 22.9 20.9 22.9L141.1 296c-2.1 3.6-3.3 17.5 5.1 25.7 8.7 8.7 18.6 7.7 18.6 7.7s5.4 10.8 12.5 14.6c8.4 4.4 18.2 1 18.2 1s4.7 9.1 12.9 11.9 17.5-.1 17.5-.1 7.4 6.6 15.4 7.5 14.7-3.4 14.7-3.4 6.7 4.3 14.7 3.4 15.4-7.5 15.4-7.5 9.3 2.9 17.5.1 12.9-11.9 12.9-11.9 9.8 3.4 18.2-1c7.1-3.8 12.5-14.6 12.5-14.6s9.9 1 18.6-7.7c8.4-8.4 7.2-22.1 5.1-25.7z" class="s1"/></g><g clip-path="url(#cp18)"><path d="M312.2 193s20.9-1.4 20.9-23c0-12.3-8.6-22.5-18.4-22.5-9.7 0-19.8 4.5-58.7 4.5s-49-4.5-58.7-4.5c-9.8 0-18.4 10.3-18.4 22.5 0 21.7 20.9 23 20.9 23l-58.9 103.1c-.9 1.4-1.5 4.5-1.5 8.1 0 5.5 1.6 12.6 6.6 17.6a25.4 25.4 0 0 0 17.8 7.8h.8s5.3 10.7 12.6 14.6c3.3 1.7 6.7 2.2 9.9 2.2 4.7 0 8.4-1.3 8.4-1.3s4.7 9.1 12.9 11.9c2.7.9 5.4 1.2 8 1.2 5.3 0 9.5-1.4 9.5-1.4s7.4 6.6 15.4 7.5c.8.1 1.5.1 2.3.1 7 0 12.5-3.5 12.5-3.5s5.5 3.5 12.5 3.5c.7 0 1.5 0 2.3-.1 8-.9 15.4-7.5 15.4-7.5s4.3 1.4 9.5 1.4c2.6 0 5.4-.4 8-1.2 8.3-2.8 12.9-11.9 12.9-11.9s3.7 1.3 8.5 1.3c3 0 6.6-.6 9.8-2.2 7.2-3.9 12.6-14.6 12.6-14.6h.8c2.6 0 10.7-.6 17.9-7.8 5-5 6.6-12.1 6.6-17.6 0-3.7-.7-6.7-1.5-8.1zl58.9 103.1c.9 1.4 1.5 4.5 1.5 8.1 0 5.5-1.6 12.6-6.6 17.6a25.4 25.4 0 0 1-17.8 7.8h-.8s-5.3 10.7-12.6 14.6c-3.3 1.7-6.7 2.2-9.9 2.2-4.7 0-8.4-1.3-8.4-1.3s-4.7 9.1-12.9 11.9c-2.7.9-5.4 1.2-8 1.2-5.3 0-9.5-1.4-9.5-1.4s-7.4 6.6-15.4 7.5c-.8.1-1.5.1-2.3.1-7 0-12.5-3.5-12.5-3.5s-5.5 3.5-12.5 3.5c-.7 0-1.5 0-2.3-.1-8-.9-15.4-7.5-15.4-7.5s-4.3 1.4-9.5 1.4c-2.6 0-5.4-.4-8-1.2-8.3-2.8-12.9-11.9-12.9-11.9s-3.7 1.3-8.5 1.3c-3 0-6.6-.6-9.8-2.2-7.2-3.9-12.6-14.6-12.6-14.6h-.8c-2.6 0-10.7-.6-17.9-7.8-5-5-6.6-12.1-6.6-17.6 0-3.7.7-6.7 1.5-8.1l59-103.1s-21-1.4-21-23c0-12.3 8.7-22.5 18.4-22.5 9.8 0 19.8 4.5 58.8 4.5 38.9 0 49-4.5 58.7-4.5s18.4 10.3 18.4 22.5c.2 21.6-20.7 23-20.7 23" style="fill:url(#g5)"/></g><g clip-path="url(#cp19)"><path d="M134.4 146.9H395v222.5H134.4z" class="s1"/></g><g clip-path="url(#cp20)"><path fill-rule="evenodd" d="M360 302.8c0 4.4-2.1 10-6.2 13-3.3 2.3-7.1 2.9-10 2.9-2.1 0-3.7-.4-4.4-.5-.3 1.7-2.2 8.7-8.1 13-3.2 2.4-7.2 3-10.4 3-2.9 0-5.2-.5-6.1-.7-.6 1.6-3.9 8.6-11.2 12.3-3 1.5-6.1 1.9-9 1.9-4.4 0-8.1-1.1-9.2-1.5-1 1.2-6 6.6-13.5 7.7-.6.1-1.3.1-1.9.1-6.7 0-12.5-4.8-13.8-5.9-1.2 1.1-7 5.9-13.8 5.9-.5 0-1.2 0-1.8-.1-7.5-1.1-12.5-6.5-13.6-7.7-1 .4-4.7 1.5-9.1 1.5-2.9 0-6-.4-9-1.9-7.2-3.7-10.6-10.7-11.3-12.3-.8.2-3.1.7-6 .7-3.2 0-7.2-.6-10.4-3-5.9-4.3-7.8-11.3-8.1-13-.7.2-2.4.5-4.4.5-2.9 0-6.8-.6-10-2.9-4.2-2.9-6.3-8.6-6.3-13 0-1.7.4-3.4 1.1-4.5 21.6-38 23.8-41.7 24.1-42.2.1-.2.7-1.1 3-5.2 3-5.3 9-15.9 21.1-36.9 5.6-9.9 24.5-38.3 54.4-38.3s48.8 28.4 54.5 38.3c22.5 39.5 23.9 42 24.1 42.1v.1c.1.1.1.3.3.6.3.7 1.2 2 2.7 4.6 3 5.4 9 15.9 21 37 .7 1.2 1.1 2.8 1.3 4.4m-.8.1c0-1.6-.3-3-.9-4-21.1-37-23.8-41.6-24.1-42.2v-.1L310 214.3c-5.7-9.8-24.5-37.9-53.9-37.9s-48.3 28.1-53.8 37.9L178 256.6c-.2.2-1.9 3.5-24.2 42.3-.5 1-.9 2.4-.9 4 0 4.3 2.1 9.6 5.9 12.4 3 2.2 6.7 2.8 9.5 2.8 2.3 0 4.1-.4 4.5-.5l16.1-31.5c.1-.2.4-.3.6-.2s.4.3.2.6l-16.1 31.6c.2.5.5 2.2 1.5 4.5 1.2 2.7 3.2 5.9 6.4 8.2 3 2.2 6.9 2.8 10 2.8 2.9 0 5.2-.6 5.9-.7l11.5-37.1c0-.2.2-.3.4-.2.2 0 .4.2.2.5L198 333.3c.1.4.9 2.2 2.4 4.4 1.7 2.5 4.5 5.5 8.5 7.6 2.7 1.5 5.9 2 8.6 2 4.4 0 8-1.2 9-1.5l6.4-44.6c0-.3.3-.4.5-.4s.4.3.4.5l-6.5 44.7c.3.4 1.5 1.7 3.4 3.2 2.4 1.8 5.6 3.6 9.7 4.2.5.1 1.1.1 1.7.1 3.6 0 7.1-1.5 9.5-3 2.1-1.3 3.6-2.5 3.9-2.9v-84.8c0-.2.3-.4.5-.4s.5.2.5.4v84.8c.4.5 1.8 1.6 3.9 2.9 2.4 1.5 5.9 3 9.5 3 .6 0 1.2 0 1.7-.1 4.1-.4 7.3-2.4 9.7-4.2 1.9-1.5 3.1-2.7 3.4-3.2l-6.5-44.7c0-.2.2-.5.4-.5s.5.1.5.4l6.4 44.6c.4.1 1.2.4 2.5.7 1.7.4 3.9.8 6.5.8 2.7 0 5.9-.6 8.6-2 4-2.1 6.8-5.1 8.5-7.6 1.5-2.2 2.2-4 2.4-4.4l-11.5-37.2c-.2-.1 0-.4.2-.5.1-.1.3 0 .4.2l11.5 37.1c.2.1.8.2 1.5.4 1.2.1 2.7.3 4.4.3 3.1 0 7-.6 10-2.8 3.2-2.3 5.2-5.5 6.4-8.2 1-2.2 1.3-4 1.5-4.5l-16.1-31.6c0-.3 0-.5.2-.6.2 0 .5 0 .6.2l16.1 31.5c.6.1 2.3.5 4.5.5 2.8 0 6.4-.6 9.5-2.8 3.8-2.7 5.9-8.1 6-12.4M191 169.7a10.52 10.52 0 0 1 15.8-9.1 10.45 10.45 0 0 1 3.9 14.3c-.1.2-.2.4-.3.5L200.3 193c-.1.1-.2.2-.4.2h-.2c-.1 0-.2-.2-.1-.4l8.3-14.6c-1.8 1.3-4.1 2.2-6.5 2.2-1.7 0-3.6-.5-5.2-1.4-3.4-1.9-5.3-5.5-5.2-9.3m.7.1a9.5 9.5 0 0 0 9.6 9.6c3.4 0 6.6-1.7 8.4-4.8.8-1.5 1.2-3.2 1.2-4.8 0-3.3-1.7-6.6-4.8-8.3-1.5-.8-3.2-1.3-4.8-1.3-3.3 0-6.6 1.7-8.3 4.9-.8 1.5-1.3 3.2-1.3 4.7m109.8 5.5c-.9-1.7-1.4-3.5-1.4-5.3 0-3.7 2-7.1 5.4-9.1 1.6-.9 3.4-1.4 5.2-1.4a10.54 10.54 0 1 1-6.5 18.9l8.3 14.6c.1.1.1.3-.1.4h-.2c-.1 0-.3-.1-.4-.2l-10-17.6c0-.2-.2-.3-.3-.3m-.6-5.5a9.6 9.6 0 0 0 9.7 9.6c1.6 0 3.2-.4 4.7-1.2 3.1-1.8 4.9-5 4.9-8.4 0-1.6-.5-3.2-1.3-4.7-1.7-3.2-5-4.9-8.3-4.9a9.8 9.8 0 0 0-9.7 9.6" class="s6"/><path fill-rule="evenodd" d="M269.8 354.8c-6.4 0-11.8-4-13.8-5.7-2 1.7-7.4 5.7-13.8 5.7-.6 0-1.3 0-2-.1-7.1-1-12.1-6-13.6-7.5-1.4.4-4.9 1.4-9.1 1.4-3.4 0-6.6-.7-9.2-2.1-6.9-3.6-10.2-9.8-11.4-12.2-1 .2-3.1.6-5.7.6-4.2 0-7.9-1.1-10.7-3.1-5.6-4.1-7.6-10.4-8.3-12.9-.9.1-2.3.3-4 .3-4.1 0-7.5-1-10.3-3-4.4-3.2-6.5-9-6.5-13.4 0-1.9.3-3.6 1-4.8 20.1-34.9 23.4-40.8 24-41.9l.4-.3 24.1-42.1c5.2-9 24.4-38.4 54.9-38.4 30.4 0 49.8 29.4 54.9 38.4l48.3 84.5c.7 1.2 1 2.9 1 4.7 0 4.4-1.9 10.3-6.5 13.5-2.7 1.9-6.3 3-10.3 3-1.7 0-3.1-.3-4-.4-.6 2.6-2.7 8.8-8.3 12.9q-4.1 3.1-10.7 3.1c-2.6 0-4.7-.3-5.7-.6-1 2.5-4.5 8.6-11.4 12.2-2.6 1.4-5.7 2.1-9.2 2.1-4.1 0-7.7-1-9.1-1.4-1.6 1.8-6.4 6.6-13.6 7.5zm-12.9-7.3c.7.6 2 1.6 3.6 2.7 2.2 1.2 5.6 2.9 9.2 2.9.5 0 1.1 0 1.7-.1 4.1-.6 7.3-2.6 9.4-4.1 1.6-1.3 2.8-2.4 3.2-3l-6.3-44.5c-.2-.6.3-1 .8-1h.1c.5 0 .9.3.9.8l6.4 44.2c.4.1 1.1.4 2.1.6 2.2.5 4.3.8 6.3.8a19 19 0 0 0 8.5-1.8c3.9-2.1 6.7-5.2 8.2-7.5 1.3-1.8 2.1-3.4 2.3-4.1l-11.4-37c-.1-.2 0-.4.1-.7.1-.2.3-.3.6-.4.4-.1 1 .1 1.1.7l11.5 36.7c.3.1.7.1 1.3.2 1.4.2 2.9.4 4.3.4 2.6 0 6.4-.5 9.6-2.8s5.2-5.7 6.2-8c.9-2 1.3-3.6 1.4-4.3l-16.1-31.4q-.2-.3 0-.7c.1-.2.2-.4.5-.6.4-.2 1 0 1.2.5l16 31.3c.7.1 2.2.3 4.1.3 2.5 0 6.1-.4 9.3-2.6 3.7-2.7 5.6-8 5.6-12 0-1.5-.2-2.9-.8-3.8l-48.4-84.6c-5-8.8-23.7-37.6-53.3-37.6s-48.4 28.7-53.4 37.6L179 256.2l-.5.7c0 .1-.5 1-3.4 5.9l-20.7 36.4c-.6.9-.8 2.3-.8 3.8 0 4 2 9.3 5.7 12 3 2.2 6.7 2.6 9.2 2.6 2 0 3.5-.2 4.1-.3l16-31.3c.2-.5.8-.7 1.3-.5.4.3.7.8.4 1.3l-16.1 31.4c.4 1.4.8 2.9 1.4 4.3 1.1 2.3 3 5.7 6.3 8 3.1 2.2 6.9 2.8 9.6 2.8 2.4 0 4.5-.4 5.5-.6l11.5-36.9c.1-.4.7-.8 1.2-.5.2.1.4.2.5.4.2.3.2.5.2.7l-11.5 37c.3.8 1.2 2.3 2.3 4.1 1.6 2.4 4.3 5.5 8.2 7.5a19 19 0 0 0 8.5 1.8c3.8 0 7.2-.9 8.4-1.3l6.4-44.2c.1-.5.5-.8.9-.8h.2q.3 0 .7.3c.1.3.2.5.2.7l-6.4 44.5c.5.6 1.6 1.7 3.3 3 2 1.6 5.3 3.6 9.3 4.1.6.1 1.2.1 1.7.1 3.6 0 7-1.6 9.1-2.9 1.9-1.1 3.1-2.2 3.6-2.7v-84.4c0-.6.5-.9.9-.9.6 0 1 .4 1 .9v84.3zm55.2-153.6c-.3 0-.7-.2-.8-.5l-10.2-17.7c-.1-.1-.1-.2-.2-.3-1-1.6-1.5-3.6-1.5-5.5 0-3.9 2.1-7.6 5.5-9.6 1.7-.9 3.6-1.5 5.5-1.5 3.9 0 7.6 2.1 9.6 5.6a10.85 10.85 0 0 1-4.1 15c-3.1 1.8-7 1.9-10.3.4l7.3 12.7c.1.3.1.5.1.7-.1.2-.2.5-.4.6-.1 0-.3.1-.5.1m-1.6-33.1c-1.6 0-3.1.4-4.5 1.1-2.8 1.7-4.7 4.7-4.7 7.9 0 1.6.5 3.1 1.2 4.5 1.6 2.8 4.6 4.7 7.9 4.7 1.6 0 3.1-.5 4.5-1.2l.2-.1a9.1 9.1 0 0 0 4.4-7.8c0-1.6-.4-3.1-1.1-4.5a8.9 8.9 0 0 0-7.9-4.6m-110.7 33.1c-.2 0-.4 0-.5-.1-.2-.1-.4-.4-.5-.6s0-.4.1-.7l7.3-12.7c-3.2 1.6-7.1 1.5-10.3-.4-3.4-1.9-5.5-5.6-5.5-9.6 0-2 .4-3.8 1.5-5.4a10.85 10.85 0 0 1 15-4.1c3.5 2 5.6 5.7 5.6 9.6 0 2-.5 3.9-1.5 5.5-.1.1-.1.2-.2.3l-.2.1-10 17.6c-.3.3-.5.5-.8.5m1.6-33.1c-3.3 0-6.3 1.7-7.9 4.6q-1.2 2.1-1.2 4.5c0 3.3 1.8 6.3 4.7 7.9q2.1 1.2 4.5 1.2c3.2 0 6.2-1.8 7.9-4.7.8-1.4 1.1-2.9 1.1-4.5 0-3.2-1.7-6.2-4.6-7.9-1.4-.7-3-1.1-4.5-1.1" class="s6"/></g><g clip-path="url(#cp21)"><path fill-rule="evenodd" d="M374 304.2c0 4.3-.9 12.4-6.9 18.4-7.5 7.5-16.1 8.1-18.5 8.1h-.3c-1.6 2.9-6.3 11-12.7 14.4-3 1.6-6.5 2.4-10.3 2.4-3.5 0-6.5-.7-7.9-1-1.6 2.6-6 9.2-13.1 11.7-2.5.8-5.3 1.2-8.3 1.2-4.3 0-7.9-.9-9.3-1.2-1.9 1.5-8.5 6.6-15.6 7.4-.9.1-1.7.1-2.5.1-5.9 0-10.7-2.3-12.5-3.4-1.7 1.1-6.6 3.4-12.5 3.4-.8 0-1.6 0-2.4-.1-7.3-.8-13.8-5.9-15.7-7.4-1.4.4-4.9 1.2-9.2 1.2-3 0-5.9-.4-8.4-1.2-7-2.5-11.6-9.1-13.1-11.7-1.2.3-4.2 1-7.8 1-3.9 0-7.3-.8-10.3-2.4-6.5-3.4-11.4-11.8-12.8-14.4h-.2c-2.5 0-11-.6-18.6-8.1-6-6-6.9-14.1-6.9-18.4 0-3.6.6-7 1.6-8.7l57.7-100.8.6-.9c-2-.4-5.7-1.3-9.3-3.4-5-2.9-11-8.8-11-20.5 0-12.7 8.9-23.6 19.5-23.6 3.3 0 6.7.5 11.1 1.2 8.7 1.4 21.8 3.3 47.6 3.3s38.9-2.1 47.6-3.3c4.3-.6 7.8-1.2 11.1-1.2 10.6 0 19.5 10.8 19.5 23.6 0 11.7-6 17.6-11 20.5-3.6 2.2-7.2 3-9.3 3.4l6.6 11.5c7.3 12.9 22 38.7 51.6 90.2 1 1.7 1.6 5.1 1.9 8.7m-2.3.1c.1-3.7-.6-6.7-1.4-8l-58.9-103.1q-.2-.2 0-.3c.1-.1.2-.3.3-.3 0 0 1.3-.1 3.3-.5 1.8-.5 4.5-1.3 7-2.8 5.2-3 10.3-8.6 10.3-19.3 0-6.1-2-11.7-5.4-15.7-3.4-3.9-7.9-6.5-12.6-6.5-9.6 0-19.8 4.5-58.8 4.5-38.9 0-49.1-4.5-58.7-4.5-4.7 0-9.3 2.4-12.6 6.5-3.4 4-5.5 9.6-5.5 15.7 0 10.7 5.1 16.3 10.3 19.3 5.1 3 10.4 3.3 10.4 3.3.1 0 .2.2.3.3q.2.1 0 .3l-59 103.1c-.7 1.4-1.3 4.4-1.3 8 0 5.6 1.5 12.5 6.4 17.4 7.2 7 15.1 7.6 17.6 7.6h.9q.15 0 .3.3s1.4 2.6 3.6 5.7c2.3 3.2 5.4 6.8 8.9 8.6 3.1 1.8 6.6 2.2 9.6 2.2 4.8 0 8.4-1.3 8.4-1.3.2 0 .3.2.4.3 0 0 1.2 2.3 3.4 4.8 2.2 2.7 5.3 5.6 9.4 7 2.6.8 5.3 1.2 7.9 1.2 5.2 0 9.3-1.3 9.3-1.3.2 0 .3 0 .4.1.1 0 7.4 6.5 15.3 7.4.7.1 1.5.1 2.2.1 3.3 0 6.5-.9 8.7-1.7 2.2-.9 3.6-1.8 3.6-1.8.2-.1.3-.1.4 0 0 0 1.4 1 3.6 1.8 2.2.9 5.2 1.7 8.7 1.7.7 0 1.4 0 2.2-.1 3.9-.5 7.8-2.3 10.5-4 2.8-1.8 4.7-3.4 4.7-3.4.1-.1.2-.1.3-.1 0 0 4.2 1.3 9.4 1.3 2.5 0 5.2-.3 7.9-1.2 4-1.4 7.2-4.3 9.4-7 2.2-2.6 3.3-4.8 3.3-4.8.1-.3.3-.4.5-.3a31 31 0 0 0 8.3 1.2c3 0 6.4-.5 9.6-2.2 3.6-1.8 6.8-5.4 9-8.6 2.3-3.1 3.5-5.8 3.5-5.8 0-.1.3-.2.4-.2h.8c2.6 0 10.5-.6 17.6-7.6 4.9-4.9 6.5-11.9 5.9-17.3" class="s6"/><path fill-rule="evenodd" d="M268.5 366.3c-5.8 0-10.5-2.2-12.5-3.3-2 1.1-6.7 3.3-12.5 3.3-.8 0-1.6 0-2.4-.1-7.1-.8-13.6-5.6-15.7-7.3-1.5.3-5 1.1-9.1 1.1-3.2 0-5.9-.4-8.5-1.3-6.9-2.3-11.3-8.5-13.2-11.5-1.6.4-4.4.9-7.6.9-4 0-7.6-.8-10.6-2.4-6.4-3.4-11.2-11.5-12.7-14.4-2.7 0-11.3-.7-18.9-8.2-6.1-6.2-7.1-14.4-7.1-18.8 0-3.7.7-7.1 1.8-8.9l57.8-101c-2.1-.5-5.5-1.3-8.7-3.3-5.2-3-11.4-9-11.3-20.9 0-13.1 9.2-24.2 20.1-24.2 3.3 0 6.8.5 11.2 1.1 8.7 1.3 21.8 3.4 47.5 3.4 25.8 0 38.8-2 47.5-3.4 4.4-.7 7.8-1.1 11.2-1.1 10.9 0 20.1 11.1 20.1 24.2 0 11.9-6.2 17.9-11.3 20.9-3.3 2-6.6 2.8-8.6 3.3l6.1 10.9c7.4 12.8 22.1 38.7 51.5 90.2 1.1 1.9 1.8 5.3 1.8 8.9 0 4.4-.9 12.6-7.1 18.8-7.5 7.5-16.2 8.2-18.9 8.2-1.8 3.5-6.4 11-12.7 14.4q-4.65 2.4-10.5 2.4c-3.3 0-6.1-.6-7.7-.9-1.7 2.9-6.2 9.1-13.1 11.6-2.5.8-5.4 1.2-8.4 1.2-4.2 0-7.7-.8-9.2-1.1-2.1 1.7-8.6 6.5-15.6 7.3-1.1-.1-1.9 0-2.7 0m-42.8-8.7.2.2c1.8 1.5 8.2 6.5 15.3 7.3.8.1 1.5.1 2.3.1 5.8 0 10.4-2.3 12.3-3.2l.2-.1.2.1c1.8.9 6.5 3.2 12.3 3.2.8 0 1.5 0 2.3-.1 7-.8 13.5-5.8 15.3-7.3l.2-.2.3.1c1.3.4 4.8 1.2 9.1 1.2 3 0 5.7-.5 8.1-1.3 6.9-2.3 11.3-8.8 12.8-11.5l.2-.3.5.1c1.4.3 4.3 1 7.7 1 3.7 0 7.2-.8 10.1-2.3 6.4-3.3 11.1-11.7 12.5-14.2l.1-.4h.5c2.4 0 10.8-.6 18.2-8 5.9-5.9 6.7-13.8 6.7-18 0-3.5-.6-6.8-1.6-8.5-29.5-51.5-44.3-77.3-51.6-90.2l-6.9-12.2c.6-.1 1.5-.2 2.5-.5 1.1-.2 2.3-.6 3.7-1.1 1.2-.5 2.5-1 3.8-1.8 4.8-2.7 10.7-8.5 10.7-20 0-12.5-8.7-23.1-19-23.2-3.3 0-6.7.6-11 1.2-8.7 1.3-21.8 3.4-47.7 3.4-25.8 0-39-2-47.7-3.4-4.3-.7-7.8-1.2-11-1.2-10.3 0-18.9 10.7-19 23.2 0 11.5 5.8 17.1 10.7 20 3.6 2.1 7.3 2.9 9.2 3.3l.8.1-.9 1.6-57.7 100.8c-.9 1.7-1.5 4.9-1.6 8.5 0 4.1.9 12.1 6.7 18 7.4 7.4 15.9 7.9 18.2 8h.4l.2.4c1.3 2.4 6.1 10.9 12.5 14.2 2.9 1.5 6.2 2.3 10 2.3 3.5 0 6.4-.7 7.8-1l.5-.1.2.3c1.5 2.7 5.9 9.1 12.7 11.5 2.5.8 5.3 1.3 8.2 1.3 4.2 0 7.7-.8 9.1-1.2zm87.4-164.5q-.3.1-.5.1l58.8 102.9c.8 1.3 1.5 4.4 1.5 8.2 0 3.4-.7 11.8-6.6 17.7-7.3 7.3-15.6 7.9-17.9 7.9h-.7c-.3.5-1.5 2.9-3.5 5.8-2.1 2.9-5.3 6.8-9 8.8-2.9 1.5-6.3 2.3-10 2.3-2 0-3.9-.2-6-.7-.8-.2-1.6-.3-2.3-.5-.3.5-1.4 2.5-3.4 4.8-2 2.5-5.3 5.7-9.6 7.1-2.4.8-5.1 1.1-8 1.1-4.4 0-8.1-.9-9.5-1.2-.6.6-2.4 1.9-4.6 3.3-2.7 1.7-6.6 3.7-10.8 4.2-.9-.1-1.7-.1-2.4-.1q-4.35 0-9-1.8c-1-.3-1.9-.8-2.7-1.2v.1l-.8-.5c-.4.3-1.7 1-3.6 1.8-3.1 1.1-6.1 1.7-9 1.7-.8 0-1.6 0-2.3-.1-6.9-.8-13.4-5.8-15.4-7.4l-.1-.1c-.6.2-4.6 1.2-9.5 1.2-2.9 0-5.7-.4-8-1.1-4.3-1.5-7.6-4.7-9.6-7.1-1.7-2.1-2.8-3.9-3.2-4.7v-.2c-.7.3-4.1 1.3-8.4 1.3-3.7 0-7.1-.8-9.9-2.3-3.9-2-7.1-5.9-9.1-8.8-1.8-2.6-3-4.9-3.5-5.8h-.7c-2.3 0-10.6-.6-17.9-7.9-6-6-6.6-14.5-6.6-17.7 0-3.8.8-6.9 1.5-8.2l58.8-102.9c-1.1-.1-5.8-.7-10.3-3.3-6.9-4.1-10.5-10.8-10.5-19.7 0-6.1 2-11.7 5.5-16.1 3.5-4.3 8.3-6.8 13-6.8 3.3 0 6.5.5 10.9 1.2 8.7 1.3 21.9 3.4 47.9 3.4 25.9 0 39-2 47.8-3.4 4.4-.7 7.6-1.2 10.9-1.2 4.7 0 9.5 2.5 13.1 6.8 3.6 4.4 5.5 10 5.5 16.1 0 9-3.6 15.6-10.5 19.7-1.3.7-2.5 1.3-3.6 1.7-2.3.8-4.2 1.3-5.4 1.5l-.9.1zm-56.6 167.1.2.2c1.1.5 2.2 1.1 3.5 1.6 2.9 1.1 5.8 1.7 8.4 1.7.7 0 1.4 0 2.2-.1 4-.5 7.9-2.4 10.4-3.9 2.4-1.5 4.1-2.9 4.5-3.3l.1-.1c.2-.2.5-.2.8-.2h.1c1.1.3 4.8 1.2 9.2 1.2 2.7 0 5.4-.3 7.6-1.1 4.1-1.4 7.2-4.4 9.2-6.7 2-2.6 3.2-4.8 3.2-4.8.2-.3.6-.6 1-.4h.2c.7.2 1.5.4 2.3.5 2 .5 3.8.6 5.8.6 3.4 0 6.7-.7 9.4-2.2 3.5-1.8 6.7-5.7 8.6-8.4 2-2.8 3.3-5.3 3.5-5.7.1-.4.5-.5.8-.5h.8c2.4 0 10.2-.6 17.2-7.5 5.7-5.7 6.4-13.8 6.4-17 0-3.6-.7-6.5-1.4-7.7l-59-103.1c-.1-.2-.1-.6 0-.9.1-.2.2-.4.5-.5h.3c.5 0 1.5-.1 3.1-.6 1.8-.4 4.3-1.1 7-2.7 6.6-3.9 10-10.2 10.1-18.8 0-5.7-1.9-11.1-5.4-15.3-3.3-4-7.7-6.4-12.1-6.4-3.3 0-6.4.5-10.8 1.2-8.8 1.3-22 3.4-47.9 3.4-26 0-39.2-2-48-3.4-4.4-.7-7.7-1.2-10.8-1.2-4.4 0-8.9 2.4-12.1 6.4a23.8 23.8 0 0 0-5.4 15.3c0 8.6 3.4 14.9 10.1 18.8 5 2.9 10.1 3.2 10.1 3.2.3 0 .6.2.8.5.1.2.1.6 0 .9l-59 103.1c-.7 1.2-1.4 4-1.4 7.6 0 3.3.6 11.4 6.4 17.1 7 6.9 15 7.5 17.2 7.5h.8c.3 0 .7.1.8.3l.1.2c.3.7 1.6 3 3.5 5.6 1.9 2.8 5.1 6.6 8.7 8.5 2.6 1.4 5.9 2.2 9.3 2.2 4.4 0 8-1.2 8.2-1.3.3-.1.8 0 1 .3l.1.2c.4.7 1.5 2.5 3.3 4.7 1.9 2.3 5.1 5.4 9.1 6.8 2.3.8 4.9 1.1 7.6 1.1 4.9 0 8.9-1.1 9.3-1.3.2-.1.5 0 .7 0l.2.3c1.8 1.5 8.2 6.5 14.9 7.3a21 21 0 0 0 10.7-1.7c2-.8 3.3-1.5 3.5-1.6l.1-.1c-.1.1.2.1.4.2" class="s6"/></g></g></svg>