<svg xmlns="http://www.w3.org/2000/svg" id="svg2626" width="200" height="341.47"><defs id="defs2628"><style id="style6" type="text/css">.str0{stroke:#1f1a17;stroke-width:.0762}.fil7{fill:none}.fil6{fill:#00923f}.fil9{fill:#1f1a17}.fil12{fill:#28166f}.fil14{fill:#96aebe}.fil0{fill:#da251d}.fil3{fill:#e77817}.fil4{fill:#f5c491}.fil5{fill:#f8c300}.fil2{fill:#fff500}.fil10{fill:#fff}.fil11{fill:#f9d7a3}</style></defs><g id="layer1" transform="translate(420 -144.49)"><g id="Capa_x0020_1" style="stroke:#000;stroke-opacity:1;stroke-width:.17024307;stroke-miterlimit:4;stroke-dasharray:none" transform="translate(-468.27 34)scale(1.76219)"><g id="_138794280" style="stroke:#000;stroke-opacity:1;stroke-width:.17024307;stroke-miterlimit:4;stroke-dasharray:none"><path id="_138675496" d="M79.63 132.38v-.08q2.3.1 4.57.1 3.14 0 6.26-.2l-2.1.21c-1.54 2.23-2.53 4.66-2.38 6.88l-1.69 3.16-2-3.85c-.05-2.02-.98-4.19-2.37-6.19zm7.33 9.75c5.94 8.78 16.92-.9 8.57-6.62q-.5-.35-1.1-.67l-.19-.1c4.52-.78 13.1 4.47 18.65 4.45 7.1-.03 12.34-4.36 16.2-3.22l-.53.52c-3.15 3.28-1.98 6.77.62 8.78a15 15 0 0 0-.35 2.95c.05 7.07 4.33 12.34 3.2 16.2l-.23-.25c-7.62-7.93-16.6 8.01-5.78 11.33a11 11 0 0 0 2.55.49c-1.86 6.06-7.67 11.96-4.63 21.46a8.4 8.4 0 0 0 6.16 5.83c-7.15 49.78-79.1 54.7-91.86-.02a8.4 8.4 0 0 0 6.1-5.8c3.02-9.5-2.75-15.4-4.65-21.47a10 10 0 0 1 2.6-.49c10.72-3.3 1.89-19.1-5.71-11.45l-.35.37c-1.12-3.86 3.18-9.12 3.21-16.2q.02-1.37-.34-2.95l-.01.01c2.64-2.05 3.81-5.62.44-8.97l-.37-.34c3.87-1.14 9.13 3.19 16.2 3.22 5.58.02 14.14-5.23 18.68-4.45l-.15.08q-.65.35-1.18.72c-8.31 5.76 2.79 15.44 8.66 6.48l.25-.41 2.62 5.19zm46.2 4.8-.14-.01zm-.34-.05-.13-.02zm-.29-.05zm-.37-.09zm-.32-.09-.2-.06zm-.38-.12zm-.35-.14-.17-.07zm-36.69-11.55q.57.22 1.1.67m-57.25 10.33-.1.05zm-1.32.64h-.03zm-1.82.45zm38.76-12.1a4 4 0 0 0-1.18.71m-33.6 40.47h-.22m-.04 0h-.04zm90.66 0h-.1zm-90.98-30.34-.08.06zM38.35 176h-.04z" class="fil0 str0" style="fill:#da251d;stroke:#000;stroke-width:.17024307;stroke-opacity:1;stroke-miterlimit:4;stroke-dasharray:none"/><path id="_139541960" d="m81.63 141.58.12.35 2.48 4.86 2.68-4.72c5.94 8.9 16.99-.82 8.62-6.56q-.5-.34-1.1-.66l-.19-.1c4.52-.8 13.1 4.46 18.65 4.44 1.46 0 2.84-.2 4.15-.48v54.5c-3.14 46.58-65.38 43.19-65.38 0v-54.4q1.77.35 3.7.38c5.58.02 14.14-5.23 18.68-4.45l-.16.09q-.64.35-1.18.71c-8.3 5.76 2.8 15.44 8.67 6.48q.14-.21.26-.44zm12.8-6.73a4 4 0 0 1 1.1.66m-21.65-.68q-.6.23-1.18.71" class="str0" style="fill:#75c5f0;stroke:#000;stroke-width:.17024307;stroke-opacity:1;stroke-miterlimit:4;stroke-dasharray:none"/><circle id="_139538016" cx="84.44" cy="195.32" r="22.38" class="fil2 str0" style="fill:#fff500;stroke:#000;stroke-width:.17024307;stroke-opacity:1;stroke-miterlimit:4;stroke-dasharray:none"/><path id="_139537472" d="M102.95 154.9h10.91c1.1 0 1.98.62 1.98 1.38v.96c0 .75-.89 1.37-1.98 1.37h-12.7v-.47c0-1.41 1.15-1.44 1.6-2.66l.18-.58z" class="fil3 str0" style="fill:#e77817;stroke:#000;stroke-width:.17024307;stroke-opacity:1;stroke-miterlimit:4;stroke-dasharray:none"/><path id="_139539504" d="M83.61 169.05c-1.13-.3-1.26-1.17-.46-2.87q3.2-.22-.02-.47l-.03-1.64c-.74-.13-2.2-.4-.99-1.45 2.2-3.04 1.98-4.34 1.85-5.28q.42.11.81.13c.34-.08.92-1.08 1.34-1.24.58-.25 1-.5 1.66-.5 8.36 0 4.72 11.81 1.08 11.81-1.25 0-2.5-.5-3.74-.5-1.17 0-1.83-.25-1.83.92q0 .73.33 1.09z" class="fil4 str0" style="fill:#f5c491;stroke:#000;stroke-width:.17024307;stroke-opacity:1;stroke-miterlimit:4;stroke-dasharray:none"/><path id="_139539336" d="M84.2 127.7c16.12-.23 34.62-4.97 44.11-14.97 3.21-3.37 6.94-1.43 2.7 3.2-10.1 10.93-28.43 16.54-46.8 16.47-18.4.07-36.73-5.54-46.8-16.48-4.26-4.62-.52-6.56 2.68-3.19 9.5 10 28 14.74 44.11 14.97z" class="fil5 str0" style="fill:#f8c300;stroke:#000;stroke-width:.17024307;stroke-opacity:1;stroke-miterlimit:4;stroke-dasharray:none"/><path id="_139538400" d="M62.32 120.06q21.76-12.26 43.52 0v4.67a89 89 0 0 1-21.64 2.97 89 89 0 0 1-21.88-3.04z" class="fil5 str0" style="fill:#f8c300;stroke:#000;stroke-width:.17024307;stroke-opacity:1;stroke-miterlimit:4;stroke-dasharray:none"/><path id="_139536640" d="m109.93 117.52.07.05-4.18 2.42h-.1a46 46 0 0 0-16.23-5.68q1.28-2.52 2.83-4.94c-1.48.6-4.63 3.44-6.01 4.63l-.24-.01.65-.72v-.3c0-1.88-.52-3.58-1.1-4.77 8.1.19 16.2 3.2 24.31 9.32zm-30.77-3.27a46 46 0 0 0-16.71 5.74h-.2l-3.41-2.2v-.21c7.94-5.65 15.9-8.83 23.84-9.32a11 11 0 0 0-1.07 4.6c2.82 2.87-3.68-2.86-5.23-3.5a68 68 0 0 1 2.78 4.89z" class="fil0 str0" style="fill:#da251d;stroke:#000;stroke-width:.17024307;stroke-opacity:1;stroke-miterlimit:4;stroke-dasharray:none"/><path id="_139536048" d="M58.76 112.1c17.06-12.85 34.12-13.68 51.17 0v5.42c-8.1-6.12-16.21-9.13-24.32-9.32-.54-1.08-1.13-1.75-1.44-1.78-.32-.02-.94.69-1.49 1.84-7.95.48-15.9 3.67-23.84 9.31v.22h-.08z" class="fil5 str0" style="fill:#f8c300;stroke:#000;stroke-width:.17024307;stroke-opacity:1;stroke-miterlimit:4;stroke-dasharray:none"/><path id="_139535184" d="M36.5 94.36c8.63-1.04 14.1 1.8 24.26 16.64l-2.15 1.49z" class="fil6 str0" style="fill:#00923f;stroke:#000;stroke-width:.17024307;stroke-opacity:1;stroke-miterlimit:4;stroke-dasharray:none"/><g id="g21" style="stroke:#000;stroke-opacity:1;stroke-width:.17024307;stroke-miterlimit:4;stroke-dasharray:none"><path id="_139534800" d="M135.72 130.1c-8.73-4.04-17.3 2.97-31.2.22q-8.07 1.34-16.16 2.09c-2.23 3.2-3.28 6.83-1.46 9.6 6.16 9.4 18.06-1.69 7.33-7.27 4.55-.78 13.1 4.47 18.68 4.45 7.07-.03 12.34-4.36 16.2-3.22-8.52 7.67 7.72 16.93 11.08 6.05 1.48-4.78.65-9.54-4.47-11.91z" class="fil5 str0" style="fill:#f8c300;stroke:#000;stroke-width:.17024307;stroke-opacity:1;stroke-miterlimit:4;stroke-dasharray:none"/><path id="_139473864" d="M131.59 139.62c-2.8 4.87 5.35 4.21 3.35-1.5-.43-1.23-4.1-4.32-6.63-1.36" class="fil7 str0" style="fill:none;stroke:#000;stroke-width:.17024307;stroke-opacity:1;stroke-miterlimit:4;stroke-dasharray:none"/><path id="_139473368" d="M94.1 137.93c4.77 3.9-6.34 5.55-3.44-1.24 1-2.34 3.2-2.67 4.97-1.1" class="fil7 str0" style="fill:none;stroke:#000;stroke-width:.17024307;stroke-opacity:1;stroke-miterlimit:4;stroke-dasharray:none"/><path id="_138777344" d="M137.9 169.9c3.35-10.54-2.01-16.41-2.14-23.13a7.7 7.7 0 0 1-6.58-1.5 13 13 0 0 0-.35 2.95c.04 7.08 4.34 12.34 3.22 16.2-7.68-8.51-16.95 7.72-6.06 11.08 4.78 1.48 10.21-.23 11.92-5.6z" class="fil5 str0" style="fill:#f8c300;stroke:#000;stroke-width:.17024307;stroke-opacity:1;stroke-miterlimit:4;stroke-dasharray:none"/><path id="_138776960" d="M123.93 197.45c-3.02-9.5 2.75-15.4 4.65-21.46a9.1 9.1 0 0 0 7.52-2.86q.23 1.2.24 2.28c-.03 7.08-7.68 12.7-6.55 16.57 7.68-8.51 16.93 7.72 6.05 11.08-4.78 1.48-10.2-.23-11.9-5.6z" class="fil5 str0" style="fill:#f8c300;stroke:#000;stroke-width:.17024307;stroke-opacity:1;stroke-miterlimit:4;stroke-dasharray:none"/><path id="_139474848" d="M128.4 166.9c-4.34-.9-4.04 5.98 1.5 3.35 1.17-.56 4.32-4.09 1.36-6.63" class="fil7 str0" style="fill:none;stroke:#000;stroke-width:.17024307;stroke-opacity:1;stroke-miterlimit:4;stroke-dasharray:none"/><path id="_139474584" d="M133.44 194.46c4.34-.9 4.04 5.98-1.5 3.35-1.18-.56-4.32-4.09-1.36-6.63" class="fil7 str0" style="fill:none;stroke:#000;stroke-width:.17024307;stroke-opacity:1;stroke-miterlimit:4;stroke-dasharray:none"/></g><path id="_139472480" d="M84.77 157.47c-.73-.05-1.71-.21-1.98-1.24-.2-.8-.35-1.59-1.1-2.33-.4-.42-1.32-.59-1.32-1.5 0-1.67.5-1.91 2.32-1.91.84 0 1.67.16 2.5.16.25 0 2.16.17 1.83-.16 2.59 0 3-1.92 4.83-1.92 1.74 0 3.4.74 5.07.74 1.25 0 2.74-.62 4.16-.66 3.05-.09 2.5 4.58 1.68 6.83-.45 1.22-1.6 1.25-1.6 2.66 0 2.74-.56 5.5-.56 8.24 0 1.5 1.56 1.74 2.06 2.83 0-.6-.42-3.43 0-4 3.22-1.9 9.62-2.85 9.24 2.97-.1 9.25 2.7 27.87-5.46 31.35 2.64-24.27-19.83-26.3-19.83-26.5 0-1 .58-3.4-.67-3.4-1.41 0-2.66-.1-2.66-1.67 0-1.17.66-.92 1.83-.92 1.25 0 2.5.5 3.74.5 3.64 0 7.28-11.81-1.08-11.81-.67 0-1.08.25-1.66.5-.42.16-1 1.16-1.34 1.24z" class="str0" style="fill:#fddc00;stroke:#000;stroke-width:.17024307;stroke-opacity:1;stroke-miterlimit:4;stroke-dasharray:none"/><path id="_138777744" d="M58.14 154.77h24.19c.23.48.34.97.46 1.46.12.46.57.6.71.93.62 1.43-.06 1.34-.24 2.67H58.14c-4.44-.17-4.87-4.94 0-5.06z" class="fil3 str0" style="fill:#e77817;stroke:#000;stroke-width:.17024307;stroke-opacity:1;stroke-miterlimit:4;stroke-dasharray:none"/><path id="_138775040" d="M85.6 158.74c1.28-2.06 3.95-.1 3.8.87a1 1 0 0 1-.17.34c-1.52-1.87-2.2-1.62-3.27-1.2-.13.04-.3-.1-.36-.01 0 0 .06-.06 0 0z" class="fil9 str0" style="fill:#1f1a17;stroke:#000;stroke-width:.17024307;stroke-opacity:1;stroke-miterlimit:4;stroke-dasharray:none"/><path id="_138628672" d="M86.46 159.49c1.97 1.47 1.94 1.01-.26 2.25" class="fil7" style="fill:none;stroke:#000;stroke-width:.17024307;stroke-linecap:round;stroke-linejoin:round;stroke-opacity:1;stroke-miterlimit:4;stroke-dasharray:none"/><ellipse id="_138628192" cx="86.39" cy="160.66" class="fil9 str0" rx=".37" ry=".87" style="fill:#1f1a17;stroke:#000;stroke-width:.17024307;stroke-opacity:1;stroke-miterlimit:4;stroke-dasharray:none"/><ellipse id="_138627808" cx="85.49" cy="162.86" class="fil9" rx=".58" ry=".26" style="fill:#1f1a17;stroke:#000;stroke-width:.17024307;stroke-opacity:1;stroke-miterlimit:4;stroke-dasharray:none"/><path id="_138627096" d="M82.48 154.84s-.1.75 2.76-.85" class="fil7 str0" style="fill:none;stroke:#000;stroke-width:.17024307;stroke-opacity:1;stroke-miterlimit:4;stroke-dasharray:none"/><path id="_138626488" d="M94.89 153.68c.25.08.83.9 1.05 1.62.22.71-.64 1.56-1.05 1.63s-.83-.73-1.05-1.63.8-1.7 1.05-1.62z" class="fil9 str0" style="fill:#1f1a17;stroke:#000;stroke-width:.17024307;stroke-opacity:1;stroke-miterlimit:4;stroke-dasharray:none"/><path id="_138625896" d="M97.9 157.24c.27.07.84.8 1.06 1.42s-.64 1.37-1.05 1.42c-.41.06-.83-.64-1.05-1.42s.8-1.5 1.05-1.42z" class="fil9 str0" style="fill:#1f1a17;stroke:#000;stroke-width:.17024307;stroke-opacity:1;stroke-miterlimit:4;stroke-dasharray:none"/><path id="_138608480" d="M94.54 160.46c.26.08.87.84 1.1 1.5.23.64-.67 1.42-1.1 1.48s-.87-.67-1.1-1.49.83-1.56 1.1-1.49z" class="fil9 str0" style="fill:#1f1a17;stroke:#000;stroke-width:.17024307;stroke-opacity:1;stroke-miterlimit:4;stroke-dasharray:none"/><path id="_138608120" d="M98.16 162.54c.27.08.87.84 1.1 1.5.23.65-.66 1.43-1.1 1.48-.43.06-.86-.67-1.1-1.49s.83-1.56 1.1-1.49z" class="fil9 str0" style="fill:#1f1a17;stroke:#000;stroke-width:.17024307;stroke-opacity:1;stroke-miterlimit:4;stroke-dasharray:none"/><path id="_138607512" d="M94.25 166.78c.77.08 2.38 1.06 2.08 1.79-.3.72-.51 1.46-.92 1.52s-1.13-.74-1.68-1.66c-.56-.9-.25-1.74.52-1.65z" class="fil9 str0" style="fill:#1f1a17;stroke:#000;stroke-width:.17024307;stroke-opacity:1;stroke-miterlimit:4;stroke-dasharray:none"/><path id="_138606904" d="M88.76 171.46c.59-.5 2.41-.99 2.73-.27s.7 1.38.46 1.72-1.31.3-2.36.07-1.42-1.02-.83-1.52z" class="fil9 str0" style="fill:#1f1a17;stroke:#000;stroke-width:.17024307;stroke-opacity:1;stroke-miterlimit:4;stroke-dasharray:none"/><path id="_138606296" d="M98.83 170.65c.6-.5 2.42-.99 2.73-.27s.7 1.38.47 1.72c-.24.35-1.32.3-2.36.07s-1.43-1.02-.84-1.52z" class="fil9 str0" style="fill:#1f1a17;stroke:#000;stroke-width:.17024307;stroke-opacity:1;stroke-miterlimit:4;stroke-dasharray:none"/><path id="_138605688" d="M94.97 174c.59-.5 2.9-1.2 3.21-.48s.61 1.77.37 2.11-1.7.12-2.74-.1c-1.05-.23-1.43-1.03-.84-1.53z" class="fil9 str0" style="fill:#1f1a17;stroke:#000;stroke-width:.17024307;stroke-opacity:1;stroke-miterlimit:4;stroke-dasharray:none"/><path id="_138614016" d="M103.29 174.6c.2.14.5.45.8.82q.13 0 .28.08c.58.28 2.04 1.65 1.71 2.02s-.89.82-1.21.74l-.15-.09q-.18.07-.55.07-.22.16-.39.1a.4.4 0 0 1-.14-.11c-.5-.03-1.1-.11-1.59-.19-1.04-.16-1.42-.74-.83-1.1.28-.17.97-.38 1.63-.49l-.2-.61c-.3-1.01.06-1.6.64-1.23z" class="fil9 str0" style="fill:#1f1a17;stroke:#000;stroke-width:.17024307;stroke-opacity:1;stroke-miterlimit:4;stroke-dasharray:none"/><path id="_138613408" d="M106.04 170.48c.43-.5 1.73-1 1.96-.27.22.72.5 1.38.33 1.72s-.94.3-1.69.07c-.74-.23-1.02-1.02-.6-1.52z" class="fil9 str0" style="fill:#1f1a17;stroke:#000;stroke-width:.17024307;stroke-opacity:1;stroke-miterlimit:4;stroke-dasharray:none"/><path id="_138613048" d="M104.26 166.52c.34-.5 1.41-.98 1.6-.26s.41 1.38.27 1.72-.77.3-1.38.07a1.04 1.04 0 0 1-.5-1.53z" class="fil9 str0" style="fill:#1f1a17;stroke:#000;stroke-width:.17024307;stroke-opacity:1;stroke-miterlimit:4;stroke-dasharray:none"/><path id="_138612688" d="M110.15 167.32c-.38-.5-1.52-.99-1.72-.27s-.44 1.38-.3 1.72c.16.35.83.3 1.49.07s.9-1.02.53-1.52z" class="fil9 str0" style="fill:#1f1a17;stroke:#000;stroke-width:.17024307;stroke-opacity:1;stroke-miterlimit:4;stroke-dasharray:none"/><path id="_138612064" d="M110.1 176.31c.51-.35 1.05-1.47.34-1.7s-1.36-.5-1.7-.37c-.36.14-.34.82-.14 1.48.2.67.98.94 1.5.6z" class="fil9 str0" style="fill:#1f1a17;stroke:#000;stroke-width:.17024307;stroke-opacity:1;stroke-miterlimit:4;stroke-dasharray:none"/><path id="_138661624" d="M110.25 182.24c.23-.3.48-1.24.15-1.43-.32-.2-.62-.42-.78-.3s-.15.68-.06 1.23c.1.56.45.8.69.5z" class="fil9 str0" style="fill:#1f1a17;stroke:#000;stroke-width:.17024307;stroke-opacity:1;stroke-miterlimit:4;stroke-dasharray:none"/><path id="_138661304" d="M105.84 180.33c.18.11.46.37.74.68q.12 0 .25.07c.53.23 1.87 1.37 1.57 1.69-.3.3-.81.68-1.11.61l-.14-.08q-.16.06-.5.07-.2.12-.36.08a.3.3 0 0 1-.13-.1c-.47-.03-1-.09-1.45-.15-.96-.14-1.31-.62-.77-.92.26-.14.33-.48.94-.57-.06-.18.44-.19.38-.35-.28-.85.04-1.34.58-1.03z" class="fil9 str0" style="fill:#1f1a17;stroke:#000;stroke-width:.17024307;stroke-opacity:1;stroke-miterlimit:4;stroke-dasharray:none"/><path id="_138660944" d="M107.14 187.42c.37-.44 1.53-.88 1.73-.24s.44 1.22.29 1.52-.83.27-1.5.06c-.65-.2-.9-.9-.52-1.34z" class="fil9 str0" style="fill:#1f1a17;stroke:#000;stroke-width:.17024307;stroke-opacity:1;stroke-miterlimit:4;stroke-dasharray:none"/><path id="_138660072" d="M108.25 191.77c.55-.18 1.76.07 1.6.72-.18.65-.29 1.27-.57 1.44-.3.18-.85-.22-1.3-.74s-.28-1.25.27-1.42z" class="fil9 str0" style="fill:#1f1a17;stroke:#000;stroke-width:.17024307;stroke-opacity:1;stroke-miterlimit:4;stroke-dasharray:none"/><path id="_138659712" d="M90.55 151.24c.1-.22.92-.65 1.59-.77s1.34.75 1.35 1.13-.75.66-1.58.77-1.46-.9-1.36-1.13z" class="fil10 str0" style="fill:#fff;stroke:#000;stroke-width:.17024307;stroke-opacity:1;stroke-miterlimit:4;stroke-dasharray:none"/><path id="_138659352" d="M90.69 151.3c.05-.1.43-.3.75-.36s.64.35.65.53c0 .19-.36.32-.76.37s-.69-.43-.64-.53z" class="fil9 str0" style="fill:#1f1a17;stroke:#000;stroke-width:.17024307;stroke-opacity:1;stroke-miterlimit:4;stroke-dasharray:none"/><path id="_139094248" d="M89.32 151.7c.14.01 1.3-.12 1.38-.24" class="fil7 str0" style="fill:none;stroke:#000;stroke-width:.17024307;stroke-opacity:1;stroke-miterlimit:4;stroke-dasharray:none"/><path id="_139094184" d="M99.56 150.47c.6.08.9.85 1.33 1.7.43.84-.62 2.36-.93 2.42-.3.06.05-1.6-.79-2.5s-.2-1.7.4-1.62z" class="fil9 str0" style="fill:#1f1a17;stroke:#000;stroke-width:.17024307;stroke-opacity:1;stroke-miterlimit:4;stroke-dasharray:none"/><path id="_139099960" d="M109.03 151.07c.45.03.8.32.77.66l-.4 4.82c-.02.33-.42.6-.87.57-.45-.02-.8-.31-.77-.65l.4-4.82c.03-.34.42-.6.87-.58zm-5.17 1.83c.31.02.55.29.53.59l-.27 4.34c-.02.3-.3.54-.6.52a.56.56 0 0 1-.54-.59l.28-4.34c.01-.3.29-.54.6-.52zm1.69-.4c.4.03.72.38.7.79l-.37 5.82a.74.74 0 0 1-.79.7.74.74 0 0 1-.69-.8l.36-5.81c.03-.4.38-.72.79-.7zm1.67-.1c.38.02.66.34.64.72l-.33 5.36a.7.7 0 0 1-.72.64.7.7 0 0 1-.64-.72l.33-5.37a.7.7 0 0 1 .72-.64z" class="fil4 str0" style="fill:#f5c491;stroke:#000;stroke-width:.17024307;stroke-opacity:1;stroke-miterlimit:4;stroke-dasharray:none"/><path id="_139099376" d="M109.94 151.51c.86 0 2.03 1.47 2.03 2.9q0 .25-.03.49h-2.4l.24-2.87c.07-.19-.07-.52.16-.52z" class="fil4 str0" style="fill:#f5c491;stroke:#000;stroke-width:.17024307;stroke-opacity:1;stroke-miterlimit:4;stroke-dasharray:none"/><path id="_139187216" d="M111.55 155.58c.21 1.52 1.26 2.52 1.05 3.86a6.8 6.8 0 0 1-3.06 4.56c-1.44-.48-3.33-.23-4.98.34-1.01-.48-1.74-1.45-2.33-3.21-.34-1.03-.25-1.84.15-2.44l7.8-.27-.67-2.67c-.28-1.14 1.72-.95 2.04-.17z" class="fil4 str0" style="fill:#f5c491;stroke:#000;stroke-width:.17024307;stroke-opacity:1;stroke-miterlimit:4;stroke-dasharray:none"/><path id="_25063048" d="M104.35 192.19H64.53a20.2 20.2 0 0 1 19.9-17.03 20.2 20.2 0 0 1 19.92 17.03z" class="fil0 str0" style="fill:#da251d;stroke:#000;stroke-width:.17024307;stroke-opacity:1;stroke-miterlimit:4;stroke-dasharray:none"/><path id="_139208216" d="M103.5 188.8H78.07l-3.18 6.96-3.34-6.96h-6.17q-.6 1.76-.88 3.65l6.81-.08v6.04h15.62V195h-5.07v-2.88h15.09v6.18h7.43a20 20 0 0 0-.86-9.5z" class="fil6 str0" style="fill:#00923f;stroke:#000;stroke-width:.17024307;stroke-opacity:1;stroke-miterlimit:4;stroke-dasharray:none"/><path id="_139207872" d="M102.96 203.24h-7.43l-2.36-4-2.6 4H65.91q-.5-1.17-.86-2.41h24.88l3.24-5.78 3.83 5.78h6.83q-.36 1.24-.87 2.41z" class="fil0 str0" style="fill:#da251d;stroke:#000;stroke-width:.17024307;stroke-opacity:1;stroke-miterlimit:4;stroke-dasharray:none"/><path id="_25057824" d="M66.07 187.02h6.51l2.19 4.74 2.1-4.74h25.93q.4.87.7 1.78H78.07l-3.18 6.96-3.34-6.96h-6.17q.3-.91.7-1.78z" class="fil10 str0" style="fill:#fff;stroke:#000;stroke-width:.17024307;stroke-opacity:1;stroke-miterlimit:4;stroke-dasharray:none"/><path id="_140169176" d="M66.07 203.24a20.2 20.2 0 0 0 18.37 11.87 20.2 20.2 0 0 0 18.36-11.87h-7.28l-2.35-4-2.6 4z" class="fil5" style="fill:#f8c300;stroke:#000;stroke-opacity:1;stroke-width:.17024307;stroke-miterlimit:4;stroke-dasharray:none"/><path id="_139183064" d="M71.3 150.4c.83 0 1.5.9 1.5 2v10.41c0 1.1-.67 2-1.5 2-.82 0-1.5-.9-1.5-2V152.4c0-1.1.68-2 1.5-2zm-10.55 0c.83 0 1.5.9 1.5 2v10.41c0 1.1-.67 2-1.5 2-.82 0-1.5-.9-1.5-2V152.4c0-1.1.68-2 1.5-2zm5.15 0c.83 0 1.5.9 1.5 2v10.41c0 1.1-.67 2-1.5 2s-1.5-.9-1.5-2V152.4c0-1.1.67-2 1.5-2z" class="fil3 str0" style="fill:#e77817;stroke:#000;stroke-width:.17024307;stroke-opacity:1;stroke-miterlimit:4;stroke-dasharray:none"/><path id="_139182432" d="M102.58 169.07c4.91 6.43 7.34 15.06 8.41 24.56" class="fil7 str0" style="fill:none;stroke:#000;stroke-width:.17024307;stroke-opacity:1;stroke-miterlimit:4;stroke-dasharray:none"/><circle id="_139475472" cx="84.44" cy="195.32" r="20.16" class="fil7 str0" style="fill:none;stroke:#000;stroke-width:.17024307;stroke-opacity:1;stroke-miterlimit:4;stroke-dasharray:none"/><g id="g69" style="stroke:#000;stroke-opacity:1;stroke-width:.17024307;stroke-miterlimit:4;stroke-dasharray:none"><path id="_139475392" d="m85.83 217.65.45 9.16q-1.83.12-3.65.04l.22-9.21a23 23 0 0 0 2.98 0z" class="fil11 str0" style="fill:#f9d7a3;stroke:#000;stroke-width:.17024307;stroke-opacity:1;stroke-miterlimit:4;stroke-dasharray:none"/><path id="_139217120" d="m90.92 216.73 2.58 8.8q-1.74.52-3.52.83l-1.93-8.96q1.47-.24 2.87-.67z" class="fil0 str0" style="fill:#da251d;stroke:#000;stroke-width:.17024307;stroke-opacity:1;stroke-miterlimit:4;stroke-dasharray:none"/><path id="_139211624" d="m95.9 214.52 4.77 7.91a31 31 0 0 1-3.23 1.66l-4.17-8.22q1.36-.6 2.63-1.35z" class="fil6 str0" style="fill:#00923f;stroke:#000;stroke-width:.17024307;stroke-opacity:1;stroke-miterlimit:4;stroke-dasharray:none"/><path id="_139211008" d="m99.93 211.44 6.54 6.59q-1.34 1.27-2.78 2.37l-6.03-7.05q1.2-.89 2.27-1.91z" class="fil12 str0" style="fill:#28166f;stroke:#000;stroke-width:.17024307;stroke-opacity:1;stroke-miterlimit:4;stroke-dasharray:none"/><path id="_139209968" d="m103.2 207.49 7.9 4.87a32 32 0 0 1-2.14 2.97l-7.56-5.45q.98-1.14 1.8-2.4z" class="fil2 str0" style="fill:#fff500;stroke:#000;stroke-width:.17024307;stroke-opacity:1;stroke-miterlimit:4;stroke-dasharray:none"/><path id="_139209400" d="m80.71 217.38-1.89 9.1q-1.8-.3-3.55-.77l2.58-9.01q1.4.44 2.86.68z" class="fil2 str0" style="fill:#fff500;stroke:#000;stroke-width:.17024307;stroke-opacity:1;stroke-miterlimit:4;stroke-dasharray:none"/><path id="_139209232" d="m75.3 215.74-4.35 8.48a32 32 0 0 1-3.28-1.61l5.02-8.26q1.26.78 2.6 1.39z" class="fil12 str0" style="fill:#28166f;stroke:#000;stroke-width:.17024307;stroke-opacity:1;stroke-miterlimit:4;stroke-dasharray:none"/><path id="_139208672" d="m70.72 212.98-6.52 7.35a31 31 0 0 1-2.8-2.4l7.1-6.92q1.05 1.05 2.22 1.97z" class="fil11 str0" style="fill:#f9d7a3;stroke:#000;stroke-width:.17024307;stroke-opacity:1;stroke-miterlimit:4;stroke-dasharray:none"/><path id="_139208320" d="m66.74 208.99-8.4 5.52a31 31 0 0 1-2.06-3.1l8.8-4.9q.75 1.3 1.66 2.48z" class="fil2 str0" style="fill:#fff500;stroke:#000;stroke-width:.17024307;stroke-opacity:1;stroke-miterlimit:4;stroke-dasharray:none"/></g><path id="_24901040" d="m82.3 138.54 1.92 3.77 1.75-3.1q.08 1.51.9 2.81c.07.1-2.41 4.37-2.64 4.77l-2.48-4.86-.12-.35q.73-1.42.67-3.04zm37.89-.7v55.36c-3.43 51.08-71.68 47.36-71.68 0v-55.23c.38.12 3.17.83 3.15.83v54.4c0 43.2 62.24 46.6 65.38 0v-54.49c-1.17.26 3.03-.84 3.15-.88z" class="str0" style="fill:#0093dd;stroke:#000;stroke-width:.17024307;stroke-opacity:1;stroke-miterlimit:4;stroke-dasharray:none"/><path id="_24900840" d="M37.1 203.6q.7 0 1.3.27c13.08 53.78 83.84 49.05 91.58.16a3 3 0 0 1 1.6-.43 3.3 3.3 0 0 1 3.24 3.3 3.3 3.3 0 0 1-2.71 3.28c4.59 5.36 1.96 15.78-6.08 23.67-5.38 5.25-11.88 8.13-17.24 8.15v.08c0 7.9-10.94 14.36-24.37 14.36-13.42 0-24.37-6.45-24.37-14.36V242c-5.42.1-12.08-2.79-17.55-8.14-8.06-7.9-10.66-18.34-6.04-23.7a3.3 3.3 0 0 1-2.59-3.24 3.3 3.3 0 0 1 3.23-3.31z" class="fil5 str0" style="fill:#f8c300;stroke:#000;stroke-width:.17024307;stroke-opacity:1;stroke-miterlimit:4;stroke-dasharray:none"/><g id="g82" style="stroke:#000;stroke-opacity:1;stroke-width:.17024307;stroke-miterlimit:4;stroke-dasharray:none"><path id="_139858984" d="M32.55 130.1c8.73-4.04 17.3 2.97 31.2.22q8.08 1.34 16.17 2.09c2.23 3.2 3.27 6.83 1.45 9.6-6.16 9.4-18.05-1.69-7.33-7.27-4.54-.78-13.1 4.47-18.67 4.45-7.08-.03-12.34-4.36-16.2-3.22 8.51 7.67-7.73 16.93-11.09 6.05-1.47-4.78-.64-9.54 4.47-11.91z" class="fil5 str0" style="fill:#f8c300;stroke:#000;stroke-width:.17024307;stroke-opacity:1;stroke-miterlimit:4;stroke-dasharray:none"/><path id="_139858712" d="M36.69 139.62c2.79 4.87-5.36 4.21-3.35-1.5.43-1.23 4.09-4.32 6.63-1.36" class="fil7 str0" style="fill:none;stroke:#000;stroke-width:.17024307;stroke-opacity:1;stroke-miterlimit:4;stroke-dasharray:none"/><path id="_139604768" d="M74.18 137.93c-4.77 3.9 6.33 5.55 3.43-1.24-1-2.34-3.2-2.67-4.97-1.1" class="fil7 str0" style="fill:none;stroke:#000;stroke-width:.17024307;stroke-opacity:1;stroke-miterlimit:4;stroke-dasharray:none"/><path id="_25066736" d="M30.37 169.9c-3.35-10.54 2.02-16.41 2.15-23.13a7.7 7.7 0 0 0 6.58-1.5q.36 1.58.34 2.95c-.03 7.08-4.33 12.34-3.21 16.2 7.67-8.51 16.94 7.72 6.05 11.08-4.77 1.48-10.2-.23-11.91-5.6z" class="fil5 str0" style="fill:#f8c300;stroke:#000;stroke-width:.17024307;stroke-opacity:1;stroke-miterlimit:4;stroke-dasharray:none"/><path id="_25063944" d="M44.34 197.45c3.02-9.5-2.75-15.4-4.65-21.46a9.1 9.1 0 0 1-7.52-2.86q-.23 1.2-.23 2.28c.03 7.08 7.68 12.7 6.54 16.57-7.67-8.51-16.93 7.72-6.05 11.08 4.78 1.48 10.2-.23 11.91-5.6z" class="fil5 str0" style="fill:#f8c300;stroke:#000;stroke-width:.17024307;stroke-opacity:1;stroke-miterlimit:4;stroke-dasharray:none"/><path id="_138792712" d="M39.88 166.9c4.33-.9 4.03 5.98-1.5 3.35-1.18-.56-4.32-4.09-1.36-6.63" class="fil7 str0" style="fill:none;stroke:#000;stroke-width:.17024307;stroke-opacity:1;stroke-miterlimit:4;stroke-dasharray:none"/><path id="_138792096" d="M34.83 194.46c-4.33-.9-4.03 5.98 1.5 3.35 1.18-.56 4.32-4.09 1.36-6.63" class="fil7 str0" style="fill:none;stroke:#000;stroke-width:.17024307;stroke-opacity:1;stroke-miterlimit:4;stroke-dasharray:none"/></g><g id="g91" style="stroke:#000;stroke-opacity:1;stroke-width:.17024307;stroke-miterlimit:4;stroke-dasharray:none"><path id="_139235848" d="M84.51 62.74c2.34 0 4.24 10.83 4.24 24.1 0 6.9-.62 12.05-1.54 15.4h-.1l-.08-.01h-.1l-.92-.06h-.13l-.75-.02h-.85l-1.36.05-.3.02h-.02l-.44.03h-.02l-.09.01-.63.06c-.73-3.35-1.15-8.52-1.15-15.48 0-13.27 1.9-24.1 4.24-24.1zm.7 39.41h-.08" class="fil6 str0" style="fill:#00923f;stroke:#000;stroke-width:.17024307;stroke-opacity:1;stroke-miterlimit:4;stroke-dasharray:none"/><path id="_138794896" d="M72.12 67.6c2.14-.4 5.58 8.43 7.65 19.66a80 80 0 0 1 1.5 15.07 35 35 0 0 0-5.32.99 81 81 0 0 1-3.97-14.62c-2.06-11.23-2-20.71.14-21.1z" class="fil14 str0" style="fill:#96aebe;stroke:#000;stroke-width:.17024307;stroke-opacity:1;stroke-miterlimit:4;stroke-dasharray:none"/><path id="_139216536" d="M96.43 67.6c-2.14-.4-5.58 8.43-7.65 19.66a81 81 0 0 0-1.51 14.99q2.7.2 5.4.86a81 81 0 0 0 3.88-14.41c2.07-11.23 2.02-20.71-.12-21.1z" class="fil0 str0" style="fill:#da251d;stroke:#000;stroke-width:.17024307;stroke-opacity:1;stroke-miterlimit:4;stroke-dasharray:none"/><path id="_139215888" d="M98.26 104.98a96 96 0 0 0 4.17-10.94c3.57-10.86 4.8-20.24 2.9-20.86-1.96-.63-6.35 7.73-9.92 18.6a101 101 0 0 0-2.93 11.3q2.88.68 5.78 1.9z" class="fil2 str0" style="fill:#fff500;stroke:#000;stroke-width:.17024307;stroke-opacity:1;stroke-miterlimit:4;stroke-dasharray:none"/><path id="_139230968" d="M103.26 107.49a108 108 0 0 0 4.44-7.32c5.6-9.98 8.58-18.93 6.88-19.92-1.88-.99-7.83 6.35-13.3 16.32a106 106 0 0 0-4.04 8q3 1.17 6.02 2.92z" class="fil5 str0" style="fill:#f8c300;stroke:#000;stroke-width:.17024307;stroke-opacity:1;stroke-miterlimit:4;stroke-dasharray:none"/><path id="_139173304" d="M108.45 110.96q1.73-2.08 3.5-4.41c6.81-9.14 11.14-17.58 9.39-18.8-1.56-1.23-8.45 5.23-15.34 14.36a107 107 0 0 0-3.5 4.94q2.97 1.66 5.95 3.9z" class="fil14 str0" style="fill:#96aebe;stroke:#000;stroke-width:.17024307;stroke-opacity:1;stroke-miterlimit:4;stroke-dasharray:none"/><path id="_139172824" d="M69.9 105.44a97 97 0 0 1-4.42-11.4c-3.5-10.86-4.78-20.24-2.84-20.86 1.93-.63 6.37 7.73 9.88 18.6a98 98 0 0 1 3.03 11.65 41 41 0 0 0-5.64 2.01z" class="fil0 str0" style="fill:#da251d;stroke:#000;stroke-width:.17024307;stroke-opacity:1;stroke-miterlimit:4;stroke-dasharray:none"/><path id="_139172552" d="M65 107.94a105 105 0 0 1-4.75-7.77c-5.54-9.99-8.6-18.93-6.83-19.92 1.78-.99 7.75 6.34 13.3 16.32 1.64 2.97 3.07 5.84 4.22 8.44a49 49 0 0 0-5.93 2.93z" class="fil6 str0" style="fill:#00923f;stroke:#000;stroke-width:.17024307;stroke-opacity:1;stroke-miterlimit:4;stroke-dasharray:none"/><path id="_139219200" d="M59.82 111.32a112 112 0 0 1-3.79-4.77c-6.84-9.14-11.1-17.59-9.47-18.8 1.63-1.23 8.54 5.23 15.4 14.36q2.07 2.79 3.8 5.4a60 60 0 0 0-5.94 3.81z" class="fil5 str0" style="fill:#f8c300;stroke:#000;stroke-width:.17024307;stroke-opacity:1;stroke-miterlimit:4;stroke-dasharray:none"/><path id="_139218928" d="M131.21 94.36c-8.48-1.02-13.91 1.71-23.73 15.87q1.12.82 2.27 1.73z" class="fil5 str0" style="fill:#f8c300;stroke:#000;stroke-width:.17024307;stroke-opacity:1;stroke-miterlimit:4;stroke-dasharray:none"/></g><path id="_138693848" d="M71.25 123.39q13.08-5.48 25.84 0v3.2a91 91 0 0 1-12.89 1.11c-4.22-.06-8.6-.43-12.95-1.12v-3.2z" class="fil9 str0" style="fill:#1f1a17;stroke:#000;stroke-width:.17024307;stroke-opacity:1;stroke-miterlimit:4;stroke-dasharray:none"/><path id="_138786528" d="M84.17 106.43c.64.04 2.56 2.94 2.56 6.54v.3a20 20 0 0 0-2.38 3.2 19 19 0 0 0-2.74-3.61c.04-3.56 1.92-6.48 2.56-6.44z" class="fil6 str0" style="fill:#00923f;stroke:#000;stroke-width:.17024307;stroke-opacity:1;stroke-miterlimit:4;stroke-dasharray:none"/><path id="_138786504" d="M81.04 119.23c-.85-3.51-2.73-6.7-4.66-9.86a16 16 0 0 1 7.97 7.1c1.84-3.03 4.26-5.58 7.97-7.1-1.97 3.15-3.8 6.35-4.7 9.86v8.36q-1.72.1-3.42.11-1.56-.02-3.16-.1z" class="fil6 str0" style="fill:#00923f;stroke:#000;stroke-width:.17024307;stroke-opacity:1;stroke-miterlimit:4;stroke-dasharray:none"/></g></g></g></svg>