<svg xmlns="http://www.w3.org/2000/svg" xml:space="preserve" width="174.64" height="247.12"><defs><clipPath id="a" clipPathUnits="userSpaceOnUse"><path d="M0 288h216V0H0z"/></clipPath></defs><g clip-path="url(#a)" transform="matrix(1.25 0 0 -1.25 -47.68 337.5)"><path d="m0 0-.25-.16-.08-.06C-.4-3.48-.97-7.18-2.87-10.57c-1.44-2.53-1.71-4.08-1.72-4.74v-.04l.02-.33 2.19-1.43a1.89 1.89 0 0 0-.46-3.38l-3.1-1a8 8 0 0 0-2.41-.33c-1.06 0-2.51.19-3.91 1.1q-1.03.66-1.75 1.67-.32 0-.68.04-.62-.06-1.32-.06c-1.22 0-2.63.16-4.07.7a9 9 0 0 0-3.22 2.1 6 6 0 0 0-2.99 2.16c-1.36 1.8-2.02 4.3-2.07 7.86v.02l-.01.2q-.01.25-.07.65v.05l-1.39.73a1.9 1.9 0 0 0-.22 3.2l1.99 1.43.12.08s.51.37 1.34.66a10 10 0 0 0-.25 1.95l-.01.2q0 .48.07 1a9 9 0 0 0-2.25 5.1l-.22 1.63a1.9 1.9 0 0 0 1.78 2.13l1.5.08h.14l.04.01.2.02q.36.04.9.15c.63.12 1.5.49 1.72.69.23.15.16.16.18.16.09.3.18.87.18 1.6v.12c0 2.66-1.14 7.44-4.2 13.2a51 51 0 0 0-2.52 5.48q-.3.34-.42.79l-.8 3a59 59 0 0 0-2.23 15v.13c0 7.33 2.02 12.42 4.5 15.7q.84 1.12 1.7 1.97a14.7 14.7 0 0 0-4.9 11.34q0 1.34.2 2.82l.02.17.1.42.07.16.06.11h-.01l.02.05.14.33.34.6c.1.61.26 1.07.27 1.1l.06.2.04.11c.64 1.83 2.32 4.31 5.73 5.86 2.01.95 3.74 1.25 5 1.32 0 .99.2 1.72.25 1.87l.69 2.4a1.9 1.9 0 0 0 1.82 1.37q.18.06.37.07c.64.06 1.27-.21 1.66-.73l.63-.8q.43.35 1.04.89a13 13 0 0 0 3.96 2.45l.37.1h.02l.06.02.03.01q1.27.34 2.44.33a8.6 8.6 0 0 0 4.75-1.43 7.6 7.6 0 0 0 4.46-2 9 9 0 0 0 1.92-3.31 9 9 0 0 0 3.71.76c.67 0 1.21-.08 1.3-.09l1.09-.19a1.9 1.9 0 0 0 1.56-1.61l.15-1.12.05-.6a7 7 0 0 0 2.76-2.54q.81-1.26.94-2.65c2.39 5.61 5.05 8.24 5.34 8.51l.27.25.08.07A33 33 0 0 0 20 109.4c0 5.43 1.45 11.79 5.58 18.24l2.24 3.5a1.9 1.9 0 0 0 3.17.03l1.37-2.06v16.69a6.1 6.1 0 0 0-.78 6.17l-.41.55a1.9 1.9 0 0 0-.3 1.65l4.46 15.62a1.88 1.88 0 0 0 3.63 0l1.76-6.13 2.7-9.49c.17-.57.05-1.17-.3-1.65l-.4-.55q.1-.22.17-.47c1.91.25 4.16.43 6.58.43 3.4 0 7.18-.36 10.94-1.47l1.11-.33a1.9 1.9 0 0 0 1.36-1.88l-.13-4.08q.4-.31.97-.68a12.6 12.6 0 0 1 6.02-1.9l.6-.03h.19c2.32-.02 5.44.81 9.38.86h.21c4.5.02 9.86-1.38 15.87-6.08l3.76-2.89a1.9 1.9 0 0 0-1.23-3.39l-4.75.2-.48.02h-1.4l-.13.01c-1.05 0-2.44-.03-3.8-.14q.52-.3 1.02-.64a25 25 0 0 0 6.67-6.76l2.07-3.07a1.88 1.88 0 0 0-1.95-2.9l-3.62.74-.87.16c-.58.1-1.42.25-2.42.38-2 .28-4.69.56-7.26.56-1.17 0-2.34-.06-3.38-.2-3.28-.4-7.66-.81-11.9-.81-2.2 0-4.38.1-6.4.42-1.99.31-3.9.8-5.59 1.83l-.72.45c-.57.35-.9.97-.9 1.64l.03 1.7a42 42 0 0 1-5.93.04l.25-.1c.56-.3.95-.86 1.01-1.5l.4-3.79.01-.1.02-.23a14 14 0 0 0 1.89-.91 7.8 7.8 0 0 0 3.78-4.6h.75q1.2 0 2.47-.1l3.7-.3a1.9 1.9 0 0 0 1.52-2.78l-1.75-3.26-.08-.14a11 11 0 0 0 .9-1.57c.53-1.08.85-2.27.85-3.5a6.6 6.6 0 0 0-.85-3.24l.53-.44.18-.15q.29.15.6.21l1.16.2c.03 0 .57.09 1.25.08a9 9 0 0 0 3.7-.76 9 9 0 0 0 1.97 3.34 7.5 7.5 0 0 0 4.4 1.97 8.6 8.6 0 0 0 7.2 1.1l.04-.02h.06l.03-.02q.17-.03.34-.1a13 13 0 0 0 3.98-2.46l1-.87.57.75a1.9 1.9 0 0 0 1.76.74 1.9 1.9 0 0 0 2.17-1.34l.7-2.44c.05-.2.24-.89.26-1.89a14 14 0 0 0 4.97-1.32c3.5-1.58 5.19-4.15 5.78-5.96l.06-.17.06-.2.01-.02.09-.34q.07-.25.12-.6l.17-.27c.22-.4.34-.72.39-.84l.06-.15.1-.38.02-.19q.2-1.46.2-2.81v-.06a14.7 14.7 0 0 0-4.9-11.28q.84-.84 1.66-1.92c2.5-3.3 4.54-8.4 4.54-15.77v-.02c0-4.23-.66-9.2-2.23-15.1l-.75-2.8a2 2 0 0 0-.4-.76 52 52 0 0 0-2.6-5.72c-3.07-5.75-4.2-10.55-4.2-13.2v-.04c0-.76.1-1.35.2-1.67l.12-.11c.13-.11.51-.33.92-.48.8-.3 1.95-.43 1.96-.42h.16l1.5-.09a1.9 1.9 0 0 0 1.79-2.14l-.22-1.6a9 9 0 0 0-2.26-5.12q.07-.52.07-1v-.07a10 10 0 0 0-.25-2.08c.64-.22 1.09-.5 1.3-.63l.02-.02.13-.09 2-1.42a1.9 1.9 0 0 0-.22-3.21l-1.39-.73a8 8 0 0 1-.08-.93v-.01c-.05-3.54-.71-6.03-2.07-7.83a6 6 0 0 0-3-2.18 9 9 0 0 0-3.22-2.1 12 12 0 0 0-4.07-.69q-.7 0-1.32.06l-.67-.04a6 6 0 0 0-1.74-1.66 7 7 0 0 0-3.92-1.11c-1.34 0-2.32.3-2.5.36l-3 .97a1.9 1.9 0 0 0-.46 3.38l2.18 1.42.02.24v.08c0 .65-.26 2.2-1.72 4.8-1.9 3.39-2.48 7.09-2.54 10.36l-.08.04-.25.17A39.15 39.15 0 0 0 0 0" style="fill:#fff;fill-opacity:1;fill-rule:nonzero;stroke:none" transform="translate(70.94 98.84)"/><path d="M0 0c-4.7 4.12-6.44 9.93-7.07 13.77l.34-.16c1.37-5 4.66-11.56 9.59-14.57 6.5-3.96 11.82-.15 11.82-.15S7.6-6.66 0 0m6.47-11.32C1.01-11.4 1.94-9.2 1.94-9.2s-2.66-2 0-4.66c0 0-2.08-.66-3.41-4.92l-.05-.14s.75-.69 1.94-1.2H-5.5s-.27-2.27.52-3.07c0 0-3.45-1.2-3.32-5.05 0 0 1.73-1.6 3.86-.54 0 0-.27-1.46.93-2.8 0 0 2.4 4.67 6 5.86 0 0-2.53-8.12-11.72-7.06 0 0-1.34-2.13.13-3.99 0 0-.67-.1-1.43-.71V-8.2a5 5 0 0 1 1.1-.68s-.55 3.01 5 3.1c0 0-2.06-1.36-2.06-3.42s2.46-2.86 4.6-2.46c0 0-1.75.87-.08 2.78C-.83-7.57 7.6-8.9 13.49-4.11c-.22-1.85-1.36-7.14-7.02-7.21M-12.67 9.93l.35.61s-2.56.4-4.48 3.5c-1.22 1.99-1.94 3.33-2.69 4.26q1.84-.54 3.57-1.13l-.34-.44s3.02-.47 4.13-3.57c.28-.79.77-1.93 1.4-3.23zm2.13-11.7c2.56.4 5.74.06 7.92-.69 3.5-1.19 7.22-1.9 7.22-1.9-2.06-.8-8 1.11-11.5 1.9a10 10 0 0 1-3.64.1zm0 11.32c1.8-3.58 4.7-8.17 7.84-9.94l.49-.25-.5.25C-3.93.24-7.3 1.82-9.6 1.82q-.49 0-.94.07zm11.52.19c-.07-2.37.3-5 1.48-6.8 0 0-3.24 3.58-4.25 8.3q1.46-.75 2.77-1.5m6.72-4.3c4.63-3.34 6.7-5.79 6.7-5.79-2.67-.98-5.83.73-6.39 2.25a6.6 6.6 0 0 0-.31 3.55m-63.35 6.74-.25.07-.32-.76q-.36-.89-.73-1.57h-10.6c-.25 2.28-.05 7.28 5.96 10.29l1.07.4c1.11-2.13 2.75-4.74 4.32-5.47 0 0 .5.07 1.38.36.02-.66 0-2.24-.83-3.33m-20.11 1.86c-1.91-3.1-4.47-3.5-4.47-3.5l.34-.6h-1.94a32 32 0 0 1 1.4 3.22c1.11 3.1 4.13 3.57 4.13 3.57q-.16.24-.34.44a104 104 0 0 0 3.57 1.13c-.75-.93-1.46-2.27-2.7-4.26m-6.25-12.15q-.45-.06-.95-.07c-2.29 0-5.65-1.58-6.88-2.2q-.25-.15-.49-.25l.49.24c3.12 1.77 6.03 6.36 7.83 9.94zm0-39.36c-.75.6-1.43.71-1.43.71 1.47 1.86.14 4 .14 4-9.19-1.07-11.72 7.05-11.72 7.05 3.6-1.2 5.99-5.86 5.99-5.86 1.2 1.34.93 2.8.93 2.8 2.13-1.06 3.87.54 3.87.54.13 3.85-3.33 5.05-3.33 5.05.8.8.53 3.07.53 3.07h-5.94c1.2.51 1.94 1.2 1.94 1.2l-.04.14c-1.34 4.26-3.42 4.92-3.42 4.92 2.66 2.66 0 4.66 0 4.66s.93-2.2-4.53-2.13c-5.66.07-6.8 5.36-7.01 7.21 5.87-4.8 14.31-3.46 15.46-4.77 1.67-1.9-.07-2.78-.07-2.78 2.13-.4 4.6.4 4.6 2.46s-2.07 3.41-2.07 3.41c5.55-.08 5-3.1 5-3.1q.67.34 1.1.7zm-18.24 42.92a6.5 6.5 0 0 0-.31-3.55c-.55-1.52-3.71-3.23-6.39-2.25 0 0 2.07 2.45 6.7 5.8m6.72 4.29q1.31.75 2.78 1.5c-1.02-4.72-4.25-8.3-4.25-8.3 1.17 1.8 1.54 4.43 1.47 6.8m104.87 11.4-.22.12s9.11 2.61 7.61 13.48c0 0-.26.66-.68 1 .03.72-.19 1.32-.19 1.32v.03c-.33 1.05-1.28 2.87-4.05 4.15-4.12 1.9-5.47.32-6.42 1.58 0 0-1.2-1.9.55-2.77 0 0-2.38-1.11-2.06-4.12 0 0 1.83-1.12 3.97-.4 0 0-1.2-1.83.95-3.57 0 0 .71 3.49 3.33 3.25 0 0 1.98-8.49-14.91-9.28 0 0 5.63 2.07 7.53 4.52 0 0-.48 1.43-2.45 1.43 0 0 1.34 2.54.7 4.52 0 0-2.53.48-4.43-1.59 0 0-.16 2.3-2.3 2.86 0 0 .08-5.32-5.24-6.03 0 0 3.02 2.98 3.47 7.14 1 .44 1.62 1.2 1.62 1.2C-.92 37.53 2.5 37 2.5 37c2.46 2.37 1.31 5.44 1.31 5.44 3.96.44 2.9 4.13 2.9 4.13l-.04.1-.05-.08c-.84-.6-1.56-.68-2.24-.48q-.4.15-.8.38c-1.32.82-2.6 2.49-4.45 3.28q-.17.09-.33.14l-.26.07-.12.04a5.3 5.3 0 0 1-5.06-1.15c-1.4.01-2.6-.4-3.26-1.07-1.93-1.93-2.63-9.4-2.63-9.4-.44 6.77-6.15 5.8-6.15 5.8a8 8 0 0 1 .35-2.99c-.88.36-2.54.18-3.69-1.58-1.14-1.75.45-3.16.45-3.16-.54.97 1.22 2.46 2.63 1.32 1.4-1.14 1.66-3.52-1.58-4.3-2.48-.61-7.43 2.4-9.64 3.86a12 12 0 0 1-.67 3.07c.87-.07 1.54 0 1.54 0-1.43-2.1 2.63-4.05 3.24-.44.57 3.3-1.16 4.68-1.45 4.88 2.06-1.5 3.67-.73 3.67-.73a19 19 0 0 1-7.63 4.03q.44.17.8.38l.24.12q.49.28.88.54a2.6 2.6 0 0 1 1.68-1.14 3 3 0 0 1 2.1.3 2.8 2.8 0 0 1 1.45 1.8c.23.84.09 1.81-.41 2.83l-.17.34a8 8 0 0 1-2.36 2.83c1.22.66 1.7 1.53 1.76 1.63l.67 1.25-1.4.1c-2.6.22-4.93.05-7.03-.37q.31.33.53.73c.37.71.5 1.62.18 2.5a4.4 4.4 0 0 1-2.1 2.28l-.36.2a9 9 0 0 1-3.83 1.08c.68 1.34.6 2.41.58 2.54l-.16 1.52-1.32-.76a28 28 0 0 1-5.08-3.69v1c.7.2 1.3.61 1.73 1.12.61.73.95 1.65.95 2.61 0 .97-.37 2.02-1.2 2.78q-.6.57-1.48.89v2.64c10.05 2.08 17.66.64 17.66.64l-.07-3.93c4.14-2.58 15.18-1.76 21.68-.95s15.04-.94 15.04-.94c-2.92 4.33-7.74 8.33-14.1 8.66-7.71.4-9.47 1.5-9.47 1.5 4.94-.35 10.36.87 14.15 1.9 3.8 1 10.5.73 10.5.73C-.66 92.49-7.1 87.96-13.8 88.36s-10.24 4.54-10.24 4.54l.15 4.47c-8.43 2.5-17.55.86-20.82.11a2.67 2.67 0 0 1-.23 4.59l1.55 2.07-2.5 8.76-.3 1.06-.31-1.06-2.51-8.76 1.56-2.07a2.67 2.67 0 0 1-.14-4.64V73.95a11 11 0 0 1-4.48-1 6 6 0 0 1-.8 3.05l-1.03 1.54-1-1.56c-3.78-5.93-5.05-11.6-5.04-16.45 0-6.64 2.32-11.7 3.62-14.02q-.75-.41-1.23-.72c-.43.17-.96.27-1.54.1 0 0-2.87-2.72-5.19-8.95a4 4 0 0 1-1.8-.79s-2.72-2.46-5.97-1.66c-3.25.78-3 3.16-1.58 4.3 1.4 1.14 3.16-.35 2.63-1.32 0 0 1.58 1.4.44 3.16s-2.81 1.94-3.69 1.58c0 0 .53 1.67.35 2.99 0 0-5.7.97-6.15-5.8 0 0-.7 7.47-2.63 9.4-.66.66-1.87 1.08-3.26 1.07a5.3 5.3 0 0 1-5.18 1.1l-.26-.05-.33-.15c-1.85-.8-3.12-2.46-4.45-3.28a6 6 0 0 0-.8-.38c-.68-.2-1.4-.11-2.24.48l-.05.07-.03-.1v.01s-1.06-3.69 2.9-4.13c0 0-1.15-3.07 1.31-5.44 0 0 3.43.52 4.39 2.99 0 0 .62-.77 1.63-1.21.44-4.16 3.46-7.14 3.46-7.14-5.31.72-5.23 6.03-5.23 6.03-2.14-.55-2.3-2.85-2.3-2.85-1.9 2.06-4.44 1.58-4.44 1.58-.64-1.98.7-4.52.7-4.52-1.97 0-2.45-1.43-2.45-1.43 1.9-2.45 7.53-4.52 7.53-4.52-16.89.8-14.9 9.28-14.9 9.28 2.61.24 3.32-3.25 3.32-3.25 2.14 1.74.96 3.57.96 3.57 2.14-.71 3.97.4 3.97.4.31 3-2.07 4.12-2.07 4.12 1.74.87.56 2.78.56 2.78-.95-1.27-2.3.31-6.43-1.6-2.77-1.27-3.71-3.09-4.04-4.14l-.01-.03s-.21-.6-.18-1.31a3 3 0 0 1-.69-1.01c-1.5-10.87 7.62-13.48 7.62-13.48l-.24-.12c-2.03-.82-13.48-6.69-6.72-32.02a41 41 0 0 1 3.47-8.57c4.2-7.95 5.2-14.25 4.26-17.44-.93-3.2-6.13-3.47-6.13-3.47.54-3.99 3.07-4.12 3.07-4.12-2-2.4.13-5.86.13-5.86a6.8 6.8 0 0 1 5.06 2.8c.54-2.8 2.26-2.54 2.26-2.54 3.07 3.2 1.6 11.2 1.6 11.2 2.27-5.47.27-10.4.27-10.4 4-.53 4.4 1.6 4.4 1.6 1.06-2.8.13-6 .13-6-4.26-2.52-5.33 1.48-5.33 1.48-2.53-5.33 2.8-5.73 2.8-5.73-2.71-2.96-4.89-3-6.16-2.6-.7.95-.28 2.53.59 2.93 1 .48 2.12-.1 2.12-.1-.43 3.71-3.13 3.29-3.13 3.29a5 5 0 0 1-.63 3.76c-3.18-.26-4.03-2.54-4.03-2.54-1.7 1.95-3.55.63-3.55.63 1.11-.58 1.11-3.5 1.11-3.5.09-6.44 2.57-6.95 3.48-6.93l.12-.17c1.73-2.3 4.58-2.51 6.7-2.26 1.44-.2 2.71.16 2.71.16.93-4.13 5.06-2.8 5.06-2.8s-3.06 2 1.07 9.33.93 18.1.93 18.1c2-1.86 2.8-6.52 2.8-6.52 2.66 1.74 2.13 4.13 2.13 4.13.6-.15 1.23-.13 1.77-.04a35.74 35.74 0 0 1 70.53 0 4 4 0 0 1 1.77.04s-.54-2.4 2.13-4.13c0 0 .8 4.66 2.8 6.53 0 0-3.2-10.79.93-18.11s1.06-9.32 1.06-9.32 4.13-1.34 5.06 2.8c0 0 1.27-.37 2.7-.17 2.13-.25 4.98-.04 6.71 2.26l.12.17c.91-.02 3.4.5 3.48 6.93 0 0 0 2.92 1.12 3.5 0 0-1.86 1.32-3.56-.63 0 0-.85 2.28-4.02 2.54 0 0-1.11-1.54-.64-3.76 0 0-2.7.42-3.13-3.3 0 0 1.12.6 2.12.11.87-.4 1.3-1.98.6-2.93-1.28-.4-3.46-.36-6.17 2.6 0 0 5.33.4 2.8 5.73 0 0-1.06-4-5.33-1.47 0 0-.93 3.2.14 6 0 0 .4-2.14 4.4-1.6 0 0-2 4.92.26 10.38 0 0-1.46-8 1.6-11.19 0 0 1.72-.26 2.26 2.54 0 0 1.6-2.54 5.06-2.8 0 0 2.13 3.46.13 5.86 0 0 2.53.13 3.07 4.12 0 0-5.2.27-6.13 3.47s.06 9.49 4.26 17.44a41 41 0 0 1 3.48 8.58c6.77 25.4-4.76 31.22-6.74 32.02" style="fill:#135c9e;fill-opacity:1;fill-rule:nonzero;stroke:none" transform="translate(154.28 148.66)"/><path d="M0 0q0 .16-.03.28V.3c-.13.7-.71 1.26-1.5 1.49.38.24.62.62.62 1.04 0 .72-.67 1.3-1.53 1.33q.28.34.28.75c0 .74-.72 1.34-1.62 1.34l-.26-.02q.13.24.13.51c0 .74-.73 1.33-1.62 1.33q-.3 0-.54-.07v.04c0 .74-.73 1.34-1.62 1.34q-.61-.02-1.06-.33v.1c0 .74-.71 1.33-1.61 1.33a1.7 1.7 0 0 1-1.4-.66c-.05.7-.75 1.25-1.6 1.25-.56 0-1.04-.23-1.33-.57-.26.46-.82.77-1.46.77h-.06c-.64 0-1.2-.31-1.46-.77-.3.34-.77.57-1.32.57-.86 0-1.56-.55-1.61-1.25-.28.4-.8.66-1.4.66-.9 0-1.62-.6-1.62-1.33v-.1q-.42.32-1.05.33c-.89 0-1.62-.6-1.62-1.34V8q-.25.07-.53.07c-.9 0-1.62-.6-1.62-1.33q0-.27.12-.5l-.27.01c-.89 0-1.61-.6-1.61-1.34q0-.41.28-.75c-.85-.03-1.53-.62-1.53-1.33 0-.42.24-.8.6-1.04-.77-.23-1.35-.8-1.48-1.49l-.03-.29V0q0-.15.03-.29c.13-.7.7-1.26 1.49-1.49a1.3 1.3 0 0 1-.61-1.05c0-.7.68-1.28 1.53-1.33a1.2 1.2 0 0 1-.28-.75c0-.73.72-1.34 1.61-1.34q.14 0 .27.03a1 1 0 0 1-.12-.51c0-.74.72-1.34 1.62-1.34q.28 0 .53.08v-.04c0-.74.73-1.34 1.62-1.34q.58.01 1 .29l.05-.02v-.04c0-.74.73-1.34 1.62-1.34.48 0 .92.18 1.22.46l.23-.06c.19-.56.82-.98 1.56-.98.55 0 1.02.22 1.32.56q.2-.32.55-.52.4-.23.91-.24h.06q.41 0 .76.16.46.2.7.6c.3-.34.78-.56 1.32-.56.74 0 1.36.41 1.55.97l.26.06c.3-.27.72-.45 1.2-.45.9 0 1.62.6 1.62 1.34v.02q.04 0 .07.03.42-.28.98-.28c.9 0 1.62.6 1.62 1.33V-8q.24-.08.54-.08c.89 0 1.62.6 1.62 1.34q0 .27-.13.5l.26-.02c.9 0 1.62.6 1.62 1.34q0 .43-.28.75c.86.04 1.53.62 1.53 1.33 0 .43-.24.8-.61 1.05.78.23 1.36.8 1.5 1.48v.01z" style="fill:#008c5b;fill-opacity:1;fill-rule:nonzero;stroke:none" transform="translate(124.23 133.85)"/><path d="M0 0c-7.54.2-12.7 2.95-12.7 2.95h.3c1.34-.03 7.14-.05 11.27.92C3.57 5 7.72 6.52 13.33 5.7l-.13.12c-.95.85-7.32 6.07-17.08 3.08-3.73-1.14-7.3-.25-10.05 1.01l-.41.23q-.8.4-1.48.77a24 24 0 0 0-2.84 1.96l-.01-.02q-.8.7-1.2 1.21l-.08.1.23 3.67c-8.49 2.02-16.4.7-19.63-.02l-.32-.07-.1-.03a2525 2525 0 0 1 .8-19.33 42.4 42.4 0 0 0 18.74-.03v-.01a9 9 0 0 0 1.87-.65l.08.1c.34.45.49 1.03.2 1.8-.91 2.41-1.5 4.68-1.23 9.95 0 0 .63-7.12 1.92-9.36.5-.87.55-1.83.24-2.73a5.4 5.4 0 0 0-3.17-3.11c1.13-.24 8.66-1.71 16.05-.26 8 1.58 17.27-.9 17.27-.9l-.13.15C12.02-5.71 6.88-.18 0 0" style="fill:#ef4138;fill-opacity:1;fill-rule:nonzero;stroke:none" transform="translate(148.82 227.4)"/><path d="m0 0 1.32.05.04-1.32 1.12.03L2.44.08l1.32.05-.04 1.12L2.4 1.2l-.05 1.31-1.12-.03.05-1.32-1.32-.05zm6.37.22L7.7.27l.04-1.33 1.12.04L8.81.31l1.33.04-.04 1.12-1.32-.05-.05 1.33L7.6 2.7l.05-1.33-1.32-.04zM-.06 6.38l1.32.05.04-1.32 1.12.03-.04 1.33 1.32.04-.04 1.12-1.32-.05-.05 1.32-1.12-.04.05-1.31L-.1 7.5zm-2.1-3.57.08-1.88 1.8.06-.07 1.88 4.58.16.15-4.58-1.87-.06.06-1.8 1.88.06 1.8.06 1.88.07-.06 1.8-1.89-.07-.15 4.58 4.57.16.07-1.88 1.8.06-.07 1.88-.06 1.8L12.28 7l-1.8-.06.06-1.88-4.57-.16-.16 4.58 1.87.07-.05 1.8-3.69-.13-1.88-.07.07-1.8L4 9.41l.15-4.58-4.57-.16-.06 1.88-1.8-.06.06-1.88zM7.6 7.77l-1.32-.05.03-1.12 1.33.05.04-1.32 1.13.04-.06 1.31 1.32.05-.04 1.12-1.31-.04-.05 1.32-1.12-.04z" style="fill:#ffd327;fill-opacity:1;fill-rule:nonzero;stroke:none" transform="translate(114.68 232.5)"/><path d="M0 0s-1.28-.52-.5-1.78c0 0 .26 1.53 1.76 1.24s1.86-3.63.3-5.73c-1.55-2.1-1.52-4.63.1-5.1a4 4 0 0 1 2.93.43c-.35-2.44-2.9-3.65-2.9-3.65.03-.62.56-.72.56-.72.14-1.5-.34-1.57-.34-1.57.51-1.2 2.33-2.33 2.65-2.38s.38-.46.38-.46c.44.3.22.85.22.85l.22.06c.94.2 1.25-.52 1.25-.52.12.6-.41.89-.41.89.29.22.7.05.7.05-.5 1.08-2.02.53-2.02.53-1.04.58-.51 1.92-.51 1.92 1.67.46 2.47 1.45 2.83 2.48l.2-.01c.93-1.74.04-3.78.04-3.78.38-.38.78-.14.78-.14.96-.9.68-1.23.68-1.23a5 5 0 0 1 3.1-.02c.23.14.5-.1.5-.1.11.46-.34.69-.34.69l.11.16c.5.67 1.1.38 1.1.38-.26.46-.77.35-.77.35.06.3.43.43.43.43-.94.42-1.62-.8-1.62-.8-1.01-.22-1.43.95-1.43.95 2.07 3.17-1.34 5.35-1.34 5.35-.5.9.4 1.58.4 1.58a4 4 0 0 1 .37.59c1.81.61 2.4 2.01 3.12 2.04.78.04 1.06-.6 1.06-.6 1.76 1.48 2.41 4.23 2.69 5.77-.42-6.85-.95-15.3-1.1-16.42-.23-1.94-.64-3-2.87-3.76S10.5-24.2 10.5-24.2c0 .53 1 1.46 2.17 1.46 1.18 0 2.58 1.06 2.58 1.06s.12-.88-1.87-1.87-1.47-3.35-1.47-3.35-.06 2.23 1.88 2.52a3.6 3.6 0 0 1 2.64 1.88l.2-.03c.02-.34.13-.85.46-1.3.57-.75 1.36-3.78.36-4.97 0 0 1.55 1.25.92 4.07a5 5 0 0 0-.11 2.2l.2.03s.7-1.58 2.64-1.88c1.93-.29 1.88-2.52 1.88-2.52s.53 2.35-1.47 3.35-1.88 1.87-1.88 1.87 1.41-1.06 2.58-1.06 2.17-.93 2.17-1.46c0 0 .42 1.4-1.81 2.17-2.24.76-2.65 1.82-2.88 3.76a842 842 0 0 0-1.1 16.42c.28-1.55.94-4.3 2.7-5.76 0 0 .27.63 1.06.6.72-.04 1.3-1.44 3.12-2.05q.05-.12.14-.24h-.03l.25-.35s.9-.67.4-1.58c0 0-3.4-2.18-1.34-5.35 0 0-.41-1.17-1.42-.96 0 0-.68 1.23-1.63.81 0 0 .37-.13.44-.43 0 0-.52.1-.78-.35 0 0 .6.29 1.1-.38l.12-.16s-.46-.23-.34-.68c0 0 .26.23.5.09a5 5 0 0 1 3.1.02s-.28.32.67 1.23c0 0 .4-.24.78.14 0 0-.88 2.04.04 3.78h.2a3.9 3.9 0 0 1 2.83-2.47s.53-1.34-.51-1.92c0 0-1.52.55-2.02-.53 0 0 .42.17.7-.05 0 0-.53-.3-.4-.89 0 0 .3.72 1.24.52l.22-.06s-.22-.54.23-.85c0 0 .05.4.37.46A6 6 0 0 1 33-16.88s-.49.07-.35 1.57c0 0 .54.1.57.72 0 0-2.55 1.2-2.9 3.65a4 4 0 0 1 2.91-.44c1.64.48 1.66 3.02.1 5.11s-1.18 5.42.32 5.72 1.75-1.23 1.75-1.23C36.2-.52 34.9 0 34.9 0c1.25.14 1.22 1.84.9 2.19-.35.34-.96.1-.96.1.57-.1.46-.74.46-.74-.23-.7-1.74-.5-1.74-.5-1.16 1.16-1.85.1-1.85.1.96 0 .76-.82.76-.82-1.45-2-.99-5.7.3-7.34 1.28-1.64 1.64-3.22.16-3.78-1.14-.43-2.2.17-2.63.47-.02.24-.16.63-.78 1.12-1 .78-1.12 2.64-.42 4.18q.19.42.36.86l.14-.3c.47.69.5 1.64.5 1.64l.26-.32c.35 1.14-.02 1.83-.02 1.83l.26-.14c-.17 1.3-.69 1.79-.69 1.79l.35-.13a3.4 3.4 0 0 1-1.61 1.57q-.26.17-.57.18l-1.72.06s-.5-.9-1.75-.64c0 0-.42-.82.53-1.24l.33-.42.04.36s1.33-.05 1.8-.96c0 0-.7-.5-1.48-.15l.01.46-.33-.41-.32.1s-.75-.48.1-1.28c0 0 .39.64 1.02.27v-.29h-.04s-.62-.42-1.42-.54l-.4.43c-.6.8-1.2 1.76-1.46 2.75 0 0 .41 1.32-.8 1.99 0 0 .4-.5.01-.98 0 0-.29.68-1.3.72 0 0 .43-.59.4-1.13 0 0-.51.08-.93-.19 0 0 .77-.1.91-.46.1-.24.27-2.32 1.1-4.28l.55-.63v.02q.13-.18.28-.35.07-.3.24-.65s-2.65 2.3-3.33 4.8c0 0 .41 1.31-.8 1.98 0 0 .39-.5 0-.98 0 0-.2.5-.89.66l-.1 1.8q-.36-.16-.77-.16h-.06q-.5.01-.91.23L16.47.98c-.68-.16-.9-.66-.9-.66-.37.48.02.98.02.98-1.22-.67-.8-1.99-.8-1.99-.68-2.5-3.34-4.79-3.34-4.79q.18.35.24.65.15.17.28.35v-.02l.56.63c.83 1.96 1 4.04 1.1 4.28.13.36.9.46.9.46-.4.28-.92.2-.92.2-.04.53.39 1.12.39 1.12-1-.04-1.3-.72-1.3-.72-.37.48.02.97.02.97-1.22-.66-.8-1.98-.8-1.98a9 9 0 0 0-1.47-2.75l-.4-.43c-.8.12-1.42.54-1.42.54H8.6a1 1 0 0 0-.01.3c.64.35 1.03-.28 1.03-.28.84.8.09 1.28.09 1.28l-.31-.1-.34.4.02-.45c-.78-.34-1.49.15-1.49.15.48.91 1.8.96 1.8.96l.04-.36.33.42c.95.42.53 1.24.53 1.24-1.25-.25-1.74.64-1.74.64l-1.73-.05q-.3-.02-.57-.19A3.5 3.5 0 0 1 4.64.22L5 .34s-.53-.48-.69-1.79l.26.15s-.38-.7-.02-1.84l.25.32s.03-.95.5-1.64l.15.3q.17-.45.36-.86c.7-1.53.58-3.4-.43-4.18-.62-.49-.76-.88-.77-1.12-.43-.3-1.5-.9-2.64-.47C.5-10.23.86-8.65 2.14-7s1.74 5.33.3 7.34c0 0-.2.83.75.83 0 0-.69 1.05-1.84-.1 0 0-1.51-.2-1.75.5 0 0-.1.63.47.72 0 0-.62.26-.96-.1C-1.22 1.85-1.25.15 0 0" style="fill:#ffd327;fill-opacity:1;fill-rule:nonzero;stroke:none" transform="translate(90.52 119.96)"/><path d="M0 0c0-7.19-2.9-13.66-7.61-18.37A26 26 0 0 0-25.98-26a26 26 0 0 0-18.38 7.61A26 26 0 0 0-51.96 0v37.4H0zm-31.4 41.52a12 12 0 0 0-1.87-.37l-.1-.01h.01a23 23 0 0 0-7.52.4s-.83.57 0 1.46q.26.27.69.51h-17.9V0a32.11 32.11 0 0 1 64.2 0v43.51h-31.05c-1.79-.91-4.58-1.6-6.46-2" style="fill:#ffd327;fill-opacity:1;fill-rule:nonzero;stroke:none" transform="translate(133.98 111.44)"/><path d="m0 0-.92-.92-.92.92-1.42-1.42.93-.92-.93-.92 1.42-1.42.92.93.92-.93 1.42 1.42-.93.92.93.92zm26.75 17.61-.92-.92-.93.92-1.41-1.42.92-.92-.92-.92 1.41-1.42.93.93.92-.93 1.41 1.42-.91.92.91.92zm2.34 25.74-.92-.93-.92.93-1.42-1.42.92-.92-.92-.92 1.42-1.42.92.93.92-.93 1.42 1.42-.93.92.93.92zm0 25.74-.92-.93-.92.93-1.42-1.42.92-.92-.92-.92 1.42-1.41.92.91.92-.92 1.42 1.42-.93.92.93.92zM-26.74 17.6l-.93-.92-.92.92-1.41-1.4.92-.92-.92-.92 1.41-1.42.92.93.93-.93 1.41 1.42-.92.92.92.92zm-.93 22.48-.92.92.92.92-1.42 1.42-.92-.93-.92.93-1.42-1.42.93-.92-.93-.92 1.42-1.42.92.93.92-.93zm-3.26 24.32.92.92.92-.92 1.42 1.42-.92.92.92.92-1.42 1.42-.92-.93-.92.93-1.42-1.42.93-.92-.93-.92z" style="fill:#ef4138;fill-opacity:1;fill-rule:nonzero;stroke:none" transform="translate(108.92 84.65)"/><path d="m0 0-.8-.5c.4-2.34.05-5-2.17-7.51 0 0 4.04 3.21 2.97 8.01m11.05-46.45c-.76.23-4.38 3.1-5.95 5.95 0 0 3.96-4.2 6.06-5.2 2.1-.98 2.86-2.44 2.86-2.44s-2.22 1.46-2.97 1.7m-4.96-3.22s1.63-3.61 1.1-5.65c0 0 .06 3.44-1.57 5.54S-3.06-34.56-3.7-32.93h.87zm-7.93 17.38 2.8-4.78-3.26 4.54zm-1.45-8.17a14.9 14.9 0 0 0-4.08-15.27c5.24 7.64 4.08 15.27 4.08 15.27m12.82 5.6c-3.85 3.56-9.62 4.72-9.62 4.72 8.4-.58 9.62-4.72 9.62-4.72m2-10.37s1.86.66 1.2 3.46c0 0-8.4-2.53-13.32 9.72 0 0 4.53 0 8.12-5.6 0 0 .54 1.87-.66 3.2 0 0 2.26-1.59 4.66-1.46 0 0 0 3.46-3.87 3.86 0 0 .94.94.8 2.53l-.02.32-.37-.15-6.66.75a6 6 0 0 0-2.53.42s1.06-4.13-4-4.4c0 0 1.74 2.26.27 3.6q-.29.25-.64.52l.27-2.73a22 22 0 0 0-.84 3.15l-.78.58c.38-1.9 1.22-4.43 1.22-4.43-1.12 1.58-1.88 3.9-2.27 5.28a8 8 0 0 0-2.42 3.62s.4-2.66 3.3-8.73c2.4-4.98 4.16-17.77-4.23-17.37 0 0 .26-3.46 3.99-2 0 0-2.93-3.33-1.33-6 0 0 3.33-.53 4.8 4.8 0 0-.14-3.6 1.2-4.66 0 0 .26 1.86 1.06 3.33s.66 9.59-2.4 15.58c0 0 6-9.99 6.26-14.11.27-4.14-1.2-4.27-1.2-4.27s3.06-1.2 2.93 4.13c0 0 2.53-4.66 1.6-7.86 0 0 4.13 5.86 2 9.33S1.93-41.1 1.93-39.23c0 0 4.26-7.06 6-7.86 1.73-.8 3.59-3.99 3.85-6.25 0 0 1.87 2.26-.53 5.05 0 0 1.33-.13 2.13-1.32 0 0 .67-.26 1.48-.36a35 35 0 0 0-.28 3.37 4 4 0 0 1-3.06 1.38M-2.2-64.84s-1.22 3.45-4.61.48c0 0 2.39 2.38 1.06 4.88 0 0-2.33.42-3.55-3.5 0 0-.42 2.33-2.54 2.07 0 0 .8-.9.85-2.92.04-1.9.1-5.27 2.21-6.22-1.8 3.58 1.07 6.54 1.07 6.54s-4.13-7.15 4.03-9.12l.34-.03c-1.12.73-2.03 2.12-2.11 4.7-.1.91.03 3 3.25 3.12M-9.69-19.6l.1-.12c1.81-2.08 4.6-3.92 8.86-5-.36.1-11.88 3.32-11.8 14.29a13 13 0 0 1 2.84-9.17m-.97 10.56s7.06-5.55 14.67 1.1C8.71-3.8 10.46 2 11.1 5.85l-.35-.16C9.37.68 6.09-5.88 1.15-8.88c-6.5-3.97-11.8-.16-11.8-.16m5.39 38.54s-.88.6-2.43.75h-.2c-3.68.13-5.55-2.23-5.55-2.23a8.9 8.9 0 0 0 8.18 1.48m1.18-23.3s1.76-1.94 2.76-4.71l.66.4a14 14 0 0 1-3.42 4.3M6.23-8.56l.49.24zm4.68-1.83c1.24.28 2.52.26 3.64.1v.6c-2.56.39-5.73.05-7.92-.7-3.5-1.19-7.21-1.9-7.21-1.9 2.06-.8 8 1.11 11.5 1.9m7.05 32.12s-6.71 2.6-7.91 9.03a3.3 3.3 0 0 0-1.71-.16 10.6 10.6 0 0 1 9.62-8.87M9.8 40.88c-.56.37-1.48.52-2.96-.23-2.61-1.32-3.33-4.78-3.48-5.87 1.2 4.08 3.97 5.78 6.44 6.1M1.56 26.1s5.07-6.26 13.68-6.1c0 0-9.2-2.36-13.68 6.1M-9.98 7.56q.27.59.53 1.08c2.74 2.1 7.83 2.88 7.83 2.88-3.13-.67-6.77-2.9-8.36-3.96m3.87-.17c-1.7-.62-3.75-2.05-5.11-3.09l.29.9a18 18 0 0 0 4.82 2.2m-5.77-6.24.1.78a15 15 0 0 0 5.41 2.34c-1.88-.64-4.22-2.2-5.51-3.12m-.09-1.54q0 .37.02.73c1.08.7 3.08 1.96 4.43 2.5 0 0-2.92-2.14-4.45-3.23m3.9.22a44 44 0 0 1-3.62-2.92q-.08.3-.12.64A19 19 0 0 0-8.07-.17m-3.88-1A20 20 0 0 0-8.66.57a35 35 0 0 1-3.23-2.45zm.49 4.6c1.15.7 3.38 1.95 4.96 2.4 0 0-3.52-2.07-5.14-3.15zm1.1 3.25a43 43 0 0 0 3.63 1.8 26 26 0 0 1-3.9-2.44zm-1.55 18.94q.3.23.59.38a7.4 7.4 0 0 1 2.92-4.92s-2.44.83-3.51 4.54m-.6-6.27q-.15.34-.3.8a5.4 5.4 0 0 1 4.26-1.37s-1.64-.74-3.97.57m-.72 2.79a6.2 6.2 0 0 1 3.8-2.93s-1.8-.1-3.62 1.84q-.13.53-.18 1.09m.11 1.7a7.4 7.4 0 0 1 4.26-4.06s-2.38.1-4.4 3.01q0 .55.14 1.06m.75 1.32c.24-1 1-3.22 3.47-4.69 0 0-2.46.56-3.94 4.03q.23.38.47.66m32.25 6.1s-1.76-8.62 7.12-8.18l-.62-.88s-9.05-.52-6.5 9.05m4.64-21.53c-.76-1.24-3.3-6.53-6.48-7.73h9.87c-1.65 7.04 3.52 10.52 7.45 12.12a26 26 0 0 0-.64 1.43c-6.66-3.02-8.11-8.5-8.11-8.5.85 4.95 4.64 7.7 7.77 9.16l-.63 1.07c-8.13-2.48-16.63-5.68-16.63-5.68 5.14 2.4 11.52 4.75 16.23 6.32l-.4.63c-7.28-2.52-14.66-5.48-14.66-5.48a168 168 0 0 0 14.25 6.09l-.25.38c-6.47-2.3-12.86-4.86-12.86-4.86 3.6 1.8 8.58 3.86 12.5 5.38l-.05.07c-1.14.02-1.63.12-1.63.12v.01c-4.46-1.7-8.45-3.3-8.45-3.3 2.2 1.1 5.57 2.6 8.56 3.9l.17.84c-3.64-1.4-7.03-2.76-7.03-2.76 1.74.87 4.66 2.19 7.14 3.28q.23 1.07.5 2.07c-2.61-.71-4.63-.73-6.13-.32q-.05 0-.08.02l-.06.01a5 5 0 0 0-2.96 2.13l-.01.02-.14.24-.02.06-.11.22-.03.06-.1.24-.01.05-.1.3-.06.28-.06.37v.1l-.02.28v.14a3 3 0 0 0 .04.58c.44 2.99 4.12 2.02 4.12 2.02-1.14 2.46-4.47.97-4.47.97.96 1.14.87 2.45.87 2.45s-2.9-.17-4.12-2.63c-1.24-2.46 1.31-5.97 1.31-5.97-4.12 1.67-3.69 7.11-4.22 10-.52 2.9-4.83 2.3-5.35-.6-.53-2.9 2.9-2.9 2.9-2.9a6 6 0 0 0-1.8-1.45c.7-2.34 3.45-8.94 12.53-8.68 0 0-2.86-1.66-8.17-1.66s-8.96 4.2-9.6 8.4c0 0-1.74-1.5-.79-3.96 0 0-1.5 2.38-4.84 2.22 0 0-.31-3.17 1.83-4.2 0 0-1.91.8-3.5-.56 0 0 5.8-4.75 16.19-4.28 0 0-9.76-3.01-19.6 1.19 0 0-5.7 2.3-5.47 7.7 0 0-2.93 0-3.1-3.73-.15-3.73 3.82-10.31 12.07-10.07 0 0-12.3-3.34-12.15-14.22.05-3.42 1.14-4.85 2-6.13q1.26 1.39 2.54 2.43 2.35 2.1 4.9 3.89a3 3 0 0 1-.9.6c-2.35-1.03-4.52-3.22-5.68-4.54l-.22.63C-8.76-1.5-6.68-.46-5.6-.06c-.74.32-1.72.45-2.98.3 0 0 0 2.85 3.4 3.17 0 0-1.35 1.43-.79 3.18.55 1.74-.4 2.13-.4 2.13s3.02 1.2 5.24-1.82c0 0-.16 2.78 2.22 3.57 0 0-.16-1.75.95-3.73a9 9 0 0 0 .82-2.86q1.62.87 3.23 1.63a7.7 7.7 0 0 1-3.34 6.47s3.26 3.09 6.83.15c0 0-.72 3.81 5.55 4.76 0 0-.64-.63.08-1.9.71-1.27 1.03-4.05-.24-5.24 0 0 1.46.77 2.99.56l.83.27c1.34.78 4.1 2.05 8.86 2.85l1.96.77s-4.23-3.1-5.09-4.47M3.28 34.46l-.02.01v-.05zm93.94.31c-.16 1.1-.87 4.56-3.49 5.88-1.47.75-2.4.6-2.96.23 2.47-.32 5.24-2.02 6.45-6.1m12.66-97.76c-1.22 3.92-3.54 3.5-3.54 3.5-1.33-2.5 1.05-4.88 1.05-4.88-3.39 2.97-4.6-.48-4.6-.48 3.22-.12 3.34-2.2 3.25-3.12-.09-2.58-.99-3.97-2.11-4.7l.34.03c8.16 1.97 4.03 9.12 4.03 9.12s2.87-2.96 1.07-6.54c2.1.94 2.16 4.31 2.21 6.22.05 2.02.85 2.92.85 2.92-2.12.26-2.55-2.07-2.55-2.07M66.41 26.46l-.02.01v-.01zm47.61 1.56s-1.86 2.37-5.55 2.24l-.2-.01c-1.54-.14-2.42-.75-2.42-.75a8.9 8.9 0 0 0 8.17-1.48m-31.4-6.3c7.92.94 9.4 7.57 9.62 8.88a3 3 0 0 0-1.71.16c-1.2-6.42-7.92-9.03-7.92-9.03m21.27-62.18s-1.16-7.63 4.08-15.27c0 0-6.82 5.66-4.08 15.27m-8.92-9.32c-1.63-2.1-1.57-5.54-1.57-5.54-.53 2.04 1.1 5.65 1.1 5.65l8.92 16.73h.88c-.64-1.63-7.7-14.74-9.33-16.84m7.47 17.49.46-.24-3.27-4.54zM89.54-46.45c-.76-.23-2.97-1.7-2.97-1.7s.76 1.47 2.86 2.46c2.1 1 6.06 5.19 6.06 5.19-1.58-2.86-5.19-5.72-5.95-5.95m1.52 11.6s1.22 4.14 9.62 4.72c0 0-5.78-1.16-9.62-4.72m13.31-17.43c1.47-5.33 4.8-4.8 4.8-4.8 1.6 2.67-1.33 6-1.33 6 3.72-1.46 3.99 2 3.99 2-8.4-.4-6.63 12.39-4.24 17.37 2.9 6.07 3.3 8.73 3.3 8.73a8 8 0 0 0-2.42-3.62 18 18 0 0 0-2.26-5.27s.83 2.53 1.22 4.42l-.78-.58c-.18-.87-.5-2.3-.85-3.15l.28 2.73a8 8 0 0 1-.64-.53c-1.46-1.33.27-3.59.27-3.59-5.06.27-4 4.4-4 4.4a6 6 0 0 0-2.53-.42l-6.66-.75-.37.15-.03-.32c-.13-1.6.8-2.53.8-2.53-3.86-.4-3.86-3.86-3.86-3.86 2.4-.13 4.66 1.47 4.66 1.47-1.2-1.34-.66-3.2-.66-3.2 3.6 5.6 8.12 5.6 8.12 5.6-4.93-12.26-13.32-9.73-13.32-9.73-.66-2.8 1.2-3.46 1.2-3.46-1.52-.1-2.46-.66-3.06-1.38a36 36 0 0 0-.29-3.37c.8.1 1.49.35 1.49.35a3.2 3.2 0 0 0 2.12 1.33c-2.4-2.79-.53-5.05-.53-5.05.27 2.26 2.13 5.45 3.86 6.25s6 7.86 6 7.86c0-1.86-3.6-8.13-5.73-11.58-2.13-3.47 2-9.33 2-9.33-.94 3.2 1.6 7.86 1.6 7.86-.13-5.33 2.93-4.13 2.93-4.13s-1.47.13-1.2 4.26c.26 4.13 6.26 14.12 6.26 14.12-3.07-6-3.2-14.12-2.4-15.58s1.06-3.33 1.06-3.33c1.34 1.07 1.2 4.66 1.2 4.66m-30.16 74.5-.61.88c8.87-.45 7.11 8.16 7.11 8.16 2.56-9.57-6.5-9.05-6.5-9.05m24.82 3.9C94.55 17.63 85.34 20 85.34 20c8.61-.16 13.69 6.1 13.69 6.1m11-17.46q.27-.5.53-1.08c-1.6 1.06-5.22 3.29-8.35 3.96 0 0 5.09-.78 7.82-2.88m.92-1.95.26-.65c-1.11.8-2.7 1.89-3.9 2.43.58-.25 2.25-1 3.64-1.79m.86-2.38c-1.36 1.04-3.41 2.47-5.11 3.09 0 0 2.3-.57 4.82-2.18zm.42-1.64c-1.62 1.08-5.15 3.15-5.15 3.15 1.58-.45 3.82-1.7 4.97-2.4zm.24-1.52c-1.29.92-3.64 2.48-5.52 3.12 0 0 2.84-.52 5.4-2.34zm.09-1.54c-1.53 1.09-4.46 3.22-4.46 3.22a30 30 0 0 0 4.43-2.49q.03-.36.03-.73m-.08-1.49c-1 .83-2.47 2-3.24 2.45 0 0 1.77-.7 3.3-1.74zm-.2-1.22a44 44 0 0 1-3.62 2.92s1.92-.84 3.74-2.28zM111.91 26q.3-.14.59-.38c-1.07-3.71-3.52-4.54-3.52-4.54A7.4 7.4 0 0 1 111.9 26m1.52-1.49c-1.47-3.47-3.94-4.03-3.94-4.03a7.4 7.4 0 0 1 3.47 4.7q.24-.29.47-.67m.28-.66q.14-.52.15-1.06c-2.02-2.9-4.4-3.01-4.4-3.01a7.4 7.4 0 0 1 4.25 4.07m-.06-2.8c-1.83-1.93-3.63-1.84-3.63-1.84a6.2 6.2 0 0 1 3.8 2.93q-.05-.56-.17-1.1m-.55-1.7c-2.33-1.3-3.96-.56-3.96-.56a5.4 5.4 0 0 1 4.25 1.38q-.15-.46-.29-.81m-27.7-4.36c.7 1.27.07 1.9.07 1.9 6.27-.95 5.55-4.76 5.55-4.76 3.57 2.94 6.82-.15 6.82-.15S94.47 9.95 94.5 5.5a83 83 0 0 0 3.24-1.63c.18 1.22.48 2.25.82 2.86 1.1 1.98.95 3.73.95 3.73 2.38-.8 2.22-3.57 2.22-3.57 2.22 3.02 5.23 1.82 5.23 1.82s-.95-.4-.4-2.13c.56-1.75-.79-3.18-.79-3.18 3.41-.32 3.41-3.17 3.41-3.17a6 6 0 0 1-2.98-.3c1.06-.4 3.15-1.43 5.82-3.95l-.21-.63c-1.16 1.32-3.33 3.51-5.7 4.54a3 3 0 0 1-.89-.6q2.56-1.8 4.9-3.88 1.29-1.05 2.55-2.44c.86 1.28 1.95 2.7 2 6.13.15 10.88-12.15 14.22-12.15 14.22 8.25-.24 12.21 6.34 12.06 10.07-.16 3.72-3.1 3.72-3.1 3.72.24-5.4-5.47-7.7-5.47-7.7-9.83-4.2-19.59-1.18-19.59-1.18 10.4-.47 16.18 4.28 16.18 4.28-1.58 1.35-3.5.56-3.5.56 2.15 1.03 1.83 4.2 1.83 4.2-3.32.16-4.83-2.22-4.83-2.22a3.6 3.6 0 0 1-.8 3.97c-.63-4.2-4.28-8.41-9.6-8.41-5.3 0-8.16 1.66-8.16 1.66 9.07-.26 11.83 6.34 12.52 8.68q-.85.42-1.8 1.45s3.44 0 2.91 2.9-4.83 3.5-5.36.6-.08-8.33-4.22-10c0 0 2.55 3.51 1.32 5.97s-4.13 2.64-4.13 2.64-.08-1.32.88-2.46c0 0-3.34 1.49-4.48-.97 0 0 3.69.97 4.13-2.02s-2.37-6.6-8.35-4.83c0 0-2.58 1.08-4.2 2.01l-.5-2.56a186 186 0 0 0 10.66-4.75s-5.61 2.31-10.77 4.23l-.11-.56-.33-.01a195 195 0 0 0 12.92-5.65s-7.3 2.92-13.54 5.14l-.32-.52A192 192 0 0 0 81 14.67s-9.18 3.7-16.63 6.21l-.23-.45c4.37-1.57 12.55-4.64 18-7.36 0 0-10.31 4.04-18.34 6.67l-.33-.7c4.56-1.43 13.64-4.54 19.83-7.44 0 0-11.52 4.13-20.19 6.61l-.31-.76c2.68-.72 9.97-3.3 11.2-10.4 0 0-1.93 7.24-11.49 9.66l-.4-1.1c1.02-.36 12.4-4.45 10.54-13.6h9.9c-3.18 1.2-5.72 6.49-6.48 7.72C75.22 11.1 71 14.2 71 14.2l1.95-.77c4.77-.8 7.53-2.07 8.87-2.85l.83-.27c1.52.21 3-.56 3-.56-1.28 1.2-.96 3.97-.25 5.24m8.48-23.3.49-.25zm3.46 42.8-.01-.02.01-.04zM86.03-9.7v-.6c1.13.17 2.4.2 3.64-.09 3.5-.79 9.44-2.7 11.5-1.9 0 0-3.72.71-7.21 1.9a18 18 0 0 1-7.93.7m18.63 15.88a14 14 0 0 1-3.41-4.31l.66-.4c1 2.77 2.75 4.7 2.75 4.7m-3.34-30.9c4.25 1.08 7.04 2.92 8.86 5l.1.12a12.8 12.8 0 0 1 2.83 9.17c.1-10.97-11.43-14.18-11.79-14.28m2.23 16.7a8.7 8.7 0 0 0-2.17 7.5l-.8.51c-1.07-4.8 2.97-8.01 2.97-8.01m7.7-1.03s-5.32-3.8-11.82.16c-4.93 3-8.22 9.56-9.6 14.56l-.33.16c.63-3.84 2.37-9.65 7.07-13.77 7.62-6.66 14.68-1.11 14.68-1.11m-68.9 47.58c-4.56 13.44-.88 20.03-.88 20.03-1.74-8.28.41-15.92 1.83-19.68l.79.25.25.07q-.15.51-.26 1.01c-.94 4.26.33 7.06 2 9.06.71.85 1.5 1.55 2.2 2.16l.07.06q.37.33.65.74.3.47.51 1 .4 1.07.48 2.18c.18 2.16-.3 4.2-.3 4.2a2.3 2.3 0 0 1 2.08-.1c1.68.77 2.23 3.64 0 4.8q-.79.44-2.09.48-.35.03-.68.01c-4.47-.08-6.2-2.5-6.6-3.2 1.84 3.48.3 5.79.3 5.79-8.71-13.65-3.47-25.53-1.36-29.29q.48.23 1 .43m8.28 12.02a27 27 0 0 0 2.43 3.51s-.52-.34-1.28-1.15a16 16 0 0 1-1.8-2.36c-1.43-2.24-3.01-5.73-3.9-10.92l.86.17c.4 2.67 1.39 6.75 3.7 10.75M44.95 43q0-.84.17-1.84c.12 1.82.5 4.27 1.53 6.9l-.38-.53A8 8 0 0 1 44.96 43m25.32 7.3c-4.43.36-8.06-.42-10.98-1.69l.07.14q.3.57.51 1.1l.07.17.21-.07c.68-.23 1.4-.17 2 .08a3.4 3.4 0 0 1 1.7 1.54c.37.71.5 1.62.18 2.5a4.4 4.4 0 0 1-2.1 2.28l-.36.2a9 9 0 0 1-3.83 1.08c.69 1.34.6 2.41.58 2.54l-.16 1.52-1.32-.76a28 28 0 0 1-5.08-3.69l-.54-.5.01-.31q0-.57-.06-1.18l.6.6c1.5 1.5 3.32 2.94 5.56 4.21 0 0 .24-2.28-2.45-4.12.6.37 2.98 1.58 6.57-.46 4.15-2.37-.06-6.5-2-3.8 0 0-.3-1.15-.94-2.4a9 9 0 0 0-1-1.54 4 4 0 0 0-2.37-1.54 15 15 0 0 1-2.29-.7c-1.94-.79-3.88-2.27-4.87-5.53a14 14 0 0 0 1.09.11q.24.7.53 1.25a6.7 6.7 0 0 0 3.6 3.23c-2-1.9-3.14-3.7-3.57-4.43l.98.04c7.47 7.93 13.26 7.8 13.26 7.8-5.8-1.66-10-5.42-12.2-7.79l1.2-.03.16-.02a7.4 7.4 0 0 0 6.53 1.32q1.06-.27 1.93-.64l.27-.09q.63-.16 1.28-.1.91.1 1.75.47c1.52.64 2.73 1.71 2.73 1.71.07-3.07 5.44-2.12 3.5 1.86-1.74 3.57-4.34 3.77-4.84 3.77 3.06-.02 4.1 1.87 4.1 1.87m-2.96-12.58s-2.9 2.18-9.5 1.6q.7-.2 1.39-.48c2.37.12 5.23-.1 8.1-1.12m-12.7 2.32-.07-.04q.45-.05.9-.13c.9.3 2.12.6 3.55.77q-.42.09-.86.13c-1.1.1-2.25-.05-3.53-.73m11.32.57a9 9 0 0 0-.8-.38c2.41-.6 5.02-1.82 7.63-4.02 0 0-1.62-.79-3.68.72.3-.2 2.02-1.57 1.45-4.88-.6-3.6-4.67-1.66-3.24.44 0 0-.67-.07-1.54 0q.15-.37.25-.78l.22-.01c-.03-.62.22-1.18.59-1.58.4-.44.95-.73 1.55-.82s1.3.07 1.84.52a3.4 3.4 0 0 1 1.1 2.1q0 .15.04.31a7 7 0 0 1-.23 3.04c1.15-.14 1.9.2 1.98.25l1.05.51-.9.76a20 20 0 0 1-7.08 3.94z" style="fill:#ffd327;fill-opacity:1;fill-rule:nonzero;stroke:none" transform="translate(57.7 156.6)"/><path d="M0 0s2.6-1.45 6.86-1.11l.5-1.1S3.04-4.16-.22-2.36c0 0-.33 1.43.23 2.36m-.76-5.63.1.01c7.24.5 15.02 2.36 16.66 2.77a3.2 3.2 0 0 0 4.82 1.98l6.79.28 1.19.05a11.6 11.6 0 0 1-1.4 6.5c-1.26 2.23-3.59 4.44-7.84 5.57a21 21 0 0 1-2.84.54l-.21.02-.26.03h-.85a31 31 0 0 1-2.91-.14h-.14l-1.05-.11-.92-.11-.89-.14-.07-.01-.7-.12-.5-.1-.49-.1-.47-.12-.06-.02a11 11 0 0 1-1.79-.78 8 8 0 0 1-.99-.69 5.4 5.4 0 0 1-1.56-2.07c2.28-5.12 13.76-8.76 13.76-8.76C1.91 1.84 1.17 8.64 1.17 8.64-.45 6.58-1.8 3.67-2.83 1a47 47 0 0 1-1.14-3.22 46 46 0 0 1-1-3.4l-.02-.12h1.34q1.17 0 2.37.08zM.47-8.76q.11.27.36.41l.1.06a.85.85 0 0 0 1.13-1.05 1 1 0 0 0-.37-.46l-.11-.06a.85.85 0 0 0-1.1.47.8.8 0 0 0 0 .63m2.26-2.85.08-.05q.17-.14.27-.35a.84.84 0 0 0-.47-1.1l-.03-.02a.85.85 0 0 0-1.08.48l-.01.05a.84.84 0 0 0 .48 1.06q.41.14.76-.07m1.12 2.32a.85.85 0 0 0 1.1-.46.85.85 0 1 0-1.1.47M.53-13.93l.2-.46a14 14 0 0 1 3.53-4.67h.05c7.92 3.3 12.96 9.74 14.72 12.27q-.54.02-1.04.2a37 37 0 0 0-9.64-8.78s5.36 4.92 8.71 9.33q-.5.42-.8 1.03c-3.34-1.13-8.4-1.28-8.4-1.28 2.94.46 6.99 1.49 8.19 1.8q-.1.3-.11.6A121 121 0 0 0-.92-6.72a38 38 0 0 0-2.63-.12l.24-.3.3-.35.45-.61.43-.63A27 27 0 0 0-.1-12.47l.3-.7zm26.9 12.56-5.75-.3c.4-.53.65-1.2.65-1.92v-.05l6.7.1.02.01.11.55.35 1.72zm-8.3-3.31a1.1 1.1 0 1 0 0 2.18 1.1 1.1 0 0 0 0-2.18m1.99 1.09a2 2 0 1 1-4 0 2 2 0 0 1 4 0m-1.98-6.6a.47.47 0 1 0-.95 0 .48.48 0 0 0 .95 0m-.66-7.15a.48.48 0 1 0 0 .95.48.48 0 1 0 0-.95m-.67 2.7a.48.48 0 1 0 .95 0 .48.48 0 0 0-.95 0m.67 2.7a.47.47 0 1 0 0-.95.47.47 0 1 0 0 .95m.19 3.68C13.74-15.09 9-17.89 6.29-19a10 10 0 0 0-1-3.8c1.54-.1 4.82.21 10.35 3.3 0 0 4.9 2.78 7.55 3.2.1 4.35 2.72 10.2 3.52 11.9l-4.52-.11a3 3 0 0 0-.62-1.13c.32-2-.68-3.8-.68-3.8-1.42-2.9-.36-6.84-.36-6.84s-1.4 4.2-.23 7.1a5 5 0 0 1 .32 2.78 3 3 0 0 0-.9-.32l-.54-.78a.48.48 0 0 0-.13-.93q-.25.01-.38.2m4.67-9.18c-.42-.09-1.21-.3-2.42-.74l2.38-4a17 17 0 0 0 3.44 1.06c-1.5.59-2.95 2.9-3.4 3.68m-2.62-4.04a.47.47 0 1 0-.47-.47c0 .26.2.47.47.47m-1.18.94a.48.48 0 0 0 0 .95c.27 0 .48-.21.48-.47s-.21-.48-.48-.48m-3.7.12c-5-2.5-8.67-3.66-11.2-3.16a6 6 0 0 0-.35-1.4 9 9 0 0 0-2.62-3.63q-.69-.6-1.6-1.15s4.58-.59 10.11 1.15q1.51.46 3.07 1.19 2.32 1.42 4.22 2.45c2.4 1.3 4.3 2.18 5.75 2.75l-3.02 3.77a52 52 0 0 1-4.37-1.97" style="fill:#bec0c2;fill-opacity:1;fill-rule:nonzero;stroke:none" transform="translate(94.1 183.55)"/></g></svg>