<svg xmlns="http://www.w3.org/2000/svg" xmlns:xlink="http://www.w3.org/1999/xlink" width="300" height="378.7"><defs><linearGradient id="a" x1="679.98" x2="943.52" y1="455.69" y2="455.69" gradientTransform="translate(-512.77 -40)" gradientUnits="userSpaceOnUse"><stop offset=".01" style="stop-color:#bebfc0"/><stop offset=".55" style="stop-color:#fff"/><stop offset="1" style="stop-color:#bebfc0"/></linearGradient><linearGradient xlink:href="#a" id="d" x1="679.98" x2="943.52" y1="455.69" y2="455.69" gradientTransform="translate(-512.77 -40)" gradientUnits="userSpaceOnUse"/><linearGradient id="b" x1="796.5" x2="823.38" y1="400.66" y2="400.66" gradientTransform="translate(-515.25 -39.36)" gradientUnits="userSpaceOnUse"><stop offset=".02" style="stop-color:#fce900"/><stop offset=".25" style="stop-color:#ffed00"/><stop offset=".53" style="stop-color:#fdc800"/><stop offset=".71" style="stop-color:#ffed00"/><stop offset=".96" style="stop-color:#fce900"/></linearGradient><linearGradient xlink:href="#b" id="c" x1="796.5" x2="823.38" y1="400.66" y2="400.66" gradientTransform="translate(-515.25 -39.36)" gradientUnits="userSpaceOnUse"/></defs><path d="M299.42 174.57H106.45v433.1h.02c.56 22.34 18.4 40.34 40.56 40.9v.04H287.4l11.57 12.1 11.8-12.1h140.15v-.03c22.15-.57 40-18.57 40.55-40.91h.03v-433.1z" style="fill:#e6e6e6" transform="translate(-81.73 -134.53)scale(.7751)"/><path d="M299.22 0H0v336.47c.46 17.77 14.6 32.03 32.21 32.48l108.49.02 9.3 9.73 9.47-9.73h108.3a33.2 33.2 0 0 0 32.21-32.48L300 0zM149.66 1.55h148.79v334.92c-.44 16.9-13.92 30.5-30.7 30.93l-108.94.02-8.8 9.04-8.65-9.04H32.23C15.47 366.97 2 353.38 1.57 336.45L1.55 1.55z"/><path d="M299.4 186.61H115.99v411.65h.02c.53 21.23 17.5 38.34 38.55 38.88v.02h133.41l11 11.5 11.2-11.5H443.4v-.02c21.06-.54 38.02-17.65 38.55-38.88h.02V186.6z" style="fill:#f2f2f2" transform="translate(-81.73 -134.53)scale(.7751)"/><path d="M291.83 9.33H7.4v319.84c.44 16.92 13.9 30.49 30.66 30.92l103.1.01c.42.46 8.84 9.26 8.84 9.26l9.02-9.26h102.92a31.6 31.6 0 0 0 30.66-30.9l.02-319.87zm-142.16 1.55h141.39v318.3c-.42 16.04-13.22 28.95-29.14 29.35l-103.56.02-8.36 8.58-8.2-8.58H38.07c-15.91-.42-28.7-13.33-29.1-29.4L8.93 10.88z"/><path d="M174.12 249.78v320.28c0 6.38 5.11 11.55 11.42 11.55H412.4c6.3 0 11.42-5.17 11.42-11.55V249.78z" style="fill:#b8cbda;fill-opacity:1" transform="translate(-81.73 -134.53)scale(.7751)"/><path d="M316.89 447.27c.14-3.36-3.09-12.2-2.2-17.52.9-5.34-3.53-7.37-5.45-7.79-1.51-.32-7.41 5.27-9.85 7.65l-.73-15.81c2.57-5.43 9.98-18.04 13.22 8.91 1.66-.51 1.48-12.14.3-17.41a21 21 0 0 0-.83-2.85c.92-3.48.64-13.68-.35-18.75-1.18-6.04-3.31-8.45-5.1-8.92-1.32-.34-6.15 5.12-8.67 8.1l-.8-17.06-1.57.52-.07 17.22c-1.28-2.56-5.12-6.96-16.19-4.63-5.7 2.96-4.98 23.15-3.14 23.08s3.48-17.34 9.32-16.31c6.98 1.23 9.43 7.83 9.96 9.58l-.04 9.34c-1.72-2.63-5.14-6.49-9.28-4.19-6 3.34-18.21 21.36-16.78 22.56 14.2-17.4 22.94-11.63 26.02-8.39l-.06 12.84c-4.37-6.25-15.7-18.73-24.39 4.46-.87 8.4-3.05 14.92-3.15 17.84-.09 2.86 11.6-41.33 27.48-7.63l-.04 9.07c-4.32-2.93-13.04-8.61-15.37-8.26-3.14.47-6.86 2.88-8.92 8.91s-2.35 19.35.53 19.94c5.96-32.47 19.98-14.78 23.72-9.3l-.12 27.65h7.87l-1.4-30.25c3.5-5.44 9.49-10.51 12.38 11.98 1.77-.51 1.58-12.14.32-17.41-1.25-5.27-3.53-7.37-5.45-7.79-1.15-.24-4.84 2.93-7.61 5.51l-.61-13.08c2.25-4.72 9.2-19.7 17.05 8.19zm-19.2-54.36c2.64-6.18 9.29-18.28 12.6 7.33-1-1.67-2.17-2.49-3.21-2.73-1.35-.3-6.38 4.7-8.84 7.25z" style="fill:green;stroke:#000;stroke-width:.5;stroke-miterlimit:4;stroke-dasharray:none;stroke-opacity:1" transform="translate(-81.73 -134.53)scale(.7751)"/><path d="M295.73 364.92c2.06-.66 3.48-3.57 5.3-4.86 2.76-1.96 4.3-.36 6.97.58-4.47-.06-8.83.2-11.32 4.58 1.33-1.4 4.77-.92 6.45-.47a5.8 5.8 0 0 1 4.22 3.86c-1.13-3.16-7.8-3.63-10.67-3.7 3.17 1.68 3.35 6.02 4.23 9.03.11-2.18-1.87-3.89-2.73-5.74-.4-.85-.62-1.95-1.38-2.59-2.22 2.54-1.52 7.7-2.5 10.42.18-1.86-1.04-3.9-.5-5.94.34-1.3 1.63-2.21 1.71-3.54-3.53 1.4-4.17 4.74-6.18 7.78.02-1.77-.43-3.16.66-4.76 1.08-1.58 2.98-2.1 4.62-2.72-5.02-2.43-7.85.33-9.97 4.64.31-3.1.73-6.5 4.5-6.57 2.17-.04 4.83.97 6.47 1.94-2.16-2.12-4.54-2.9-7.39-3.69-3.13-.86-4.74-.24-6.62 2.23 2.17-7.02 10.1-3.32 13.38.23.01-1.76-3-7.92-5.28-7.47-2.56.5-3.62 4.9-4.16 6.9.16-1.87-.44-2.96.76-4.6a4.8 4.8 0 0 1 3.71-1.96c3.95-.41 2.51 3 4.12 5.1-.09-5.72-1.11-11.27-.37-17.02 0 3.3-.04 6.6 0 9.9.02 1.96-.04 5.02.84 6.65 1.37-3.13 2.68-8.04 7-5.67-1.65.57-2.54-.08-3.73 1.88-.8 1.3-.83 2.92-1.57 4.28.25-1.47 1.6-3.38 3.38-2.45-1.3 1.05-3.96 1.54-3.42 3.93" style="fill:url(#c)" transform="translate(-81.73 -134.53)scale(.7751)"/><path d="M145.86 134.1q-.21 1.75-.2 3.49c0 1.46.1 2.9.2 4.34v.27c.01.9.04 1.97.17 2.96l.05.97q-.22-.44-.49-.87c-.2-.97-.49-1.84-1.75-1.99q-.56-.36-1.05-.29-.6.14-1.08.59-.96.36-1.6 1.23c-.21.27-.31.52-.4.77q-.18.01-.35.04-2.13.5-2.92 3.04l.17.1c.93-1.23 1.78-1.82 2.87-1.93l.01.42v1.17l.19.03.06-.23q.16-.62.4-1.4c.46.03.93.09 1.5.25 1.9.52 3.5 1.07 4.98 2.25a10 10 0 0 0-4.24-1.1c-3.07.07-3.36 2.9-3.59 5.19l.18.05c1.94-3.94 4.23-5.05 7.37-3.64l-.24.08c-1.18.43-2.4.88-3.14 1.97a3.4 3.4 0 0 0-.6 2.06q0 .38.04.75l.04 1.28.17-.29 1.14-2.01c.82-1.58 1.62-3.06 3.38-3.86l.02.01q-.16.65-.6 1.23c-.26.4-.54.8-.66 1.27q-.11.45-.1.89c0 .6.12 1.21.26 1.8.12.57.24 1.11.24 1.63l-.01.3.18.04c.3-.8.4-1.87.5-3 .17-1.76.37-3.73 1.36-4.94.35.35.56.83.74 1.32l.24.56.87 1.44q.47.66.83 1.33l.4 1.67.2-.03a3 3 0 0 0-.42-1.7c-.42-1.94-.95-4.07-2.65-5.17l.02-.02c2.32.08 7.03.51 7.84 2.78l.19-.06a4.6 4.6 0 0 0-3.34-3.05c-1.22-.32-3.38-.62-4.61.04 1.92-2.85 5.04-3.08 8.36-3.03l.04-.2-1.27-.51c-1.4-.63-2.52-1.13-4.23.08q-.48.35-.93.86h-.01a1.5 1.5 0 0 0-1.42-.05q-.33.18-.59.47v-.02c.17-.6.33-1.18.64-1.69.62-1.02 1.12-1.09 1.8-1.19l1.3-.28-.24-.12q-1.35-.75-2.41-.37c-1.38.49-2.13 2.31-2.78 3.93l-.28.65a6 6 0 0 1-.39-1.51l-.13-2.45-.04-.78v-7.83zm-.01 3.49v-.13.3zm-3.02 5.58q.23-.04.48.06l-.27.01q-.39.05-.73.14.25-.15.52-.21m-2.57 1.74a3.4 3.4 0 0 1 1.1-.98q-.56.69-.94 1.6-.25-.01-.5.02c.1-.2.17-.4.34-.64m-.85.89.19-.02q-.1.43-.11.85c-1 .1-1.82.6-2.64 1.54q.8-1.95 2.56-2.37m.93-.1-.33.9h-.32q0-.42.13-.85.26-.04.52-.05m-.39 1.09q-.15.47-.26.9v-.45l-.01-.44zm2.44 1.62c1.48-.03 3.26.6 4.54 1.28l-.16.08-.11-.05c-4.1-1.98-6.23.54-7.62 3.19.24-2.18.66-4.45 3.35-4.5m4.3-1.44.38-.9c.64-1.57 1.37-3.35 2.66-3.81q.88-.3 2 .25l-.73.15c-.71.1-1.27.18-1.94 1.28-.33.54-.5 1.15-.66 1.74l-.14.48c-.23.37-.37.78-.43 1.13l.06.02q-.14.3-.15.67l.01.1-.3.14.06.19.27-.13.02.2.19-.05-.03-.24a4 4 0 0 0 .73-.5l-.36.53h-.1l-.06.17.02.02-.06.09.16.11.08-.06c1.5.94 2.07 2.71 2.47 4.46l-.5-.78-.87-1.41-.23-.55a3.4 3.4 0 0 0-.87-1.5l-.07-.05-.06.07c-1.1 1.25-1.3 3.32-1.47 5.15q-.12 1.27-.34 2.31-.06-.63-.2-1.3a8 8 0 0 1-.26-1.76q0-.42.1-.84c.12-.44.39-.83.64-1.2q.43-.59.61-1.26h.02l.11-.14-.07-.06.03-.1.01-.16-.14.06-.08.04c-1.62-1.48-3.39-2.08-5.51-2.66a7 7 0 0 0-1.49-.24q.15-.45.34-.9c2.18.09 4.76 1.54 6.29 3.2l.16.18v-.26c0-.49-.27-1.35-.7-2.26v-.28q.1.37.23.67l.1.17zm2.57-1.52q.5-.22 1.05 0l-.76.46a5 5 0 0 0-1.33.94q.13-.3.22-.6.3-.53.82-.8m-6.67 9.21-.03-.75c0-.66.1-1.27.56-1.94.71-1.04 1.9-1.48 3.05-1.9l.2-.07c-1.34.87-2.07 2.17-2.8 3.56l-.96 1.7zm10.6-6.38c1.2.32 2.06.9 2.67 1.86-1.5-1.4-4.7-1.8-7-1.9 1.19-.54 3.19-.27 4.34.04m-3.54-2.2.64-.4-.4.46a8 8 0 0 1-1.95 1.85c0-.99.87-1.46 1.7-1.91m.39.19a10 10 0 0 1 1.6-1.64c1.62-1.15 2.7-.67 4.04-.07l.82.34c-2.5-.01-4.87.2-6.68 1.62zm-6.98-2.83q.42-.03.7.01l.26.17c.49.4.97 1.03 1.4 1.73v.05c.14.64.3 1.37.74 1.96l.2.25-.03-.47q.37.89.44 1.48c-1.56-1.6-4.01-2.95-6.15-3.07.3-.71.7-1.36 1.2-1.81q.53-.22 1.24-.3m1.15.09c.62.19.9.64 1.07 1.24q-.51-.75-1.07-1.24m1.56 2.44q.19.34.34.68l.01.2a4 4 0 0 1-.35-.88"/><path d="M297.35 487.87c-3.46 0-6.82-.28-9.22 2.4-2.92 3.25-1.87 4.5-6.67 4.78-3.94.21-7.78-.13-11.56 1.14-3.57 1.2-5.92 3.86-8.78 6.02-3.36 2.55-7.11 4.69-10.34 7.48-2.58 2.23-3.74 5.1-6.2 7.62-3.07 3.14-7.01 7.93-10.74 10.03-4.15 2.32-10.98 3.7-15.75 5.04-3.56 1-7.46.04-10.56 2.23-3.14 2.2-5.74 5.8-8.48 8.51-6.02 5.94-14.24 13.25-22.87 14.43-.96 1.75-2.14 3.26-2.68 5.32-.62 2.42-.48 1.87.14 4.24.91 3.44-3.42 14.65.66 14.43 6.57-.36 241.32.35 250.08-.05 1.07-3.1-.16-6.7-.31-9.93-.27-5.46-.54-5.76-4.68-9.13-2.12-1.73-3.84-4.52-5.71-6.53-2.75-2.95-5.45-5.39-7.77-8.62-6.93-9.65-18.26-11.83-29.17-16.62-6.56-2.88-12.74-5.9-18.4-10.05-3.93-2.9-7.07-6.88-11.02-9.7-3.84-2.74-8.69-3.54-12.73-5.8-4.7-2.64-9-6-13.78-8.55-3.56-1.9-7.34-3.59-11.13-5.2-3.32-1.4-9.04-5.46-12.33-3.5" style="fill:#814115;fill-opacity:1;stroke:#000;stroke-width:.5;stroke-miterlimit:4;stroke-dasharray:none;stroke-opacity:1" transform="translate(-81.73 -134.53)scale(.7751)"/><path d="M175.37 573.7c.46 3.77 4.06 6.09 7.89 6.07 6.02-.02 6.95-4.05 9.44-8.21 1.59-2.67 4.17-6.3 7.1-7.56 3.33-1.43 7.98-.82 7.96-5.92 1.83 1.1 3.43 2.32 6 2.75 1.65-3.75-3.13-8.51 1.59-10.57 2.67-1.16 5.8 1.4 8.47.66 1.28-.36 1.55-1.64 2.65-2.1 2.47-1 6.17-.03 8.62-1.18 1.52-.72 3.04-2.28 4.15-3.57 1.17-1.37 2.23-4.5 3.67-5.3 2.7-1.5 12.99 3.61 13.25.08-3.1-.19-9.5-6.03-3.96-7.23-.17-4.06 8.6-3.26 11.8-3.92.64-2.2-.23-7.15-.94-9.13 1.48-.1 4.02.44 5.4-.07 1.57-.59 1.24-1.73 2.57-2.5 3.75-2.17 4.86-1.06 4.95-6.4.06-3.2.4-7.51 3.14-9.72 2.98-2.4 7.09-1.87 8.01 1.7 2.77 10.72-6.8 15.54-11.79 22.69-1.67 2.4-1.27 3.19-4.12 4.56-1.94.93-4.3 1-6.18 2.05-1.77 1-5.93 3.66-6.92 5.15-1.59 2.38-.3 5.32-1.18 8.11-.95 2.99-3.3 4.5-6.1 5.78-3.94 1.82-9.91 3.44-13.32 6.08-2.46 1.9-4.56 4.66-7.24 6.65-3.2 2.37-8.76 4.19-11.36 6.86-.73.75-1.21 2.82-2.03 3.84-1.01 1.28-2.45 1.68-2.99 3.29-1.42 4.3 2.2 3.27 5.3 3.12a53 53 0 0 1 10.07.72c6.46.9 14.75 1.18 21.2 1.07 2.6-.04 6.62-1.2 6.47-4.36-.23-4.77-5.7-2.65-8.59-3.18-.39-3.8 4.54-5.49 7.6-5.64 1.76-.1 4.07-.02 5.67.78 1.7.84 2.45 2.88 4.23 3.1 1.54-4.53-1.5-7.21 1.24-11.28 3.52-5.23 9.6-8.08 12.1-13.34 2.66-5.56 5.44-9.09 10.74-12.31.9-.56 4.01-2.15 3.32-3.66-.55-1.21-4.78-.85-6.07-1.82-.25-3.37 6.4-3.09 7.5-6.7 1-3.33-.36-7.82 3.31-10.27 2.05-1.36 8.24-.33 5.3-3.7-2.6-3-7.43-.33-7.55-5.99-.1-4.77 2.54-5.14 6.4-5.7 3.24-.47 8.37-1.76 5.53-5.34-2.66-3.36-12.36-5-16.27-3.21-2.62 1.18-3.38 4.14-5.63 5.44-2.88 1.67-6.6.52-9.8.97-6.13.85-9.8 5.27-14.53 8.82-2.14 1.6-4.86 2.13-7.02 3.64-2.71 1.91-4.97 4.92-7.45 7.07-2.9 2.5-4.06 4.69-6.18 7.82-2.08 3.08-4.86 4-8.35 5.07-6.38 1.95-13.57 2.64-19.7 4.92-6.1 2.25-12.46 8.23-16.64 13.16-4.73 5.58-11.02 6.95-16.43 11.85-2.38 2.15-3.82 4.22-4.3 7.09-.45 2.6-1.53 9.78.36 11.42" style="fill:#520" transform="translate(-81.73 -134.53)scale(.7751)"/><path d="M309.4 521.6c7.55-2.63 10.08 7.27 15.62 9.63 3.15 1.35 4.72.02 6.74 2.58 1.48 1.87 1.6 4.6 2.18 6.82.67 2.53 1.15 10.73 5.4 10.43 6.22-.43.39-8.58-1.5-10.43 2.9-2.49 5.97.86 6.99 3.29 1.76 4.2 1.17 4.32 5.82 6.03 1.9.7 4.16.73 4.14 3.51-.02 2.88-3.12 2.14-5.91 2.24-3.66.13-8.51 1.26-12.09.3-4.62-1.25-7.61-6.11-8.5-10.34-.95-4.58-1.98-8.25-5.37-11.85-3.42-3.61-7.6-4.7-11.98-6.55-2.47-1.04-4.48-2.9-2.27-5.66m-42.02 55.63c2.65-9.16 15.34-1.58 21.58-4.28 1.45-.63 5.1-4.53 6.18-5.76 1.56-1.76 2.12-5.28 4.66-6.1 2.68 4.49.1 8.92-3.2 11.9-4.06 3.65-6.31 2.28-10.97 3.86-1.02.35-1.4 1.43-2.44 1.9a21 21 0 0 1-5.27 1.36c-4 .53-6.98-.88-10.47-1.86-.1-.45-.09-.9-.07-1.37m38.74.72c-.05-3.82 2.95-5.78 3.65-9.13.67-3.18-.94-6.85 1.52-9.5 8.73 2.57-3.3 11.54 2.05 14.67 3.35 1.97 10 .72 13.7.72 4.16 0 8.18-1.46 11.99-1.4.75 2.69-3.16 3.79-4.9 4.9-1.2.78-.5 1.17-2.45 1.89-1.45.53-3.9.27-5.48.36-6.54.36-13.5.28-20.03-.06-.06-.61-.2-1.48-.05-2.1" style="fill:#520;fill-opacity:1" transform="translate(-81.73 -134.53)scale(.7751)"/><path d="M167.7 243.02v333.32c0 6.64 5.38 12.02 12 12.02h238.55c6.62 0 12-5.38 12-12.02V243.02zm256.13 163.6v163.44c0 6.38-5.11 11.55-11.42 11.55H185.54c-6.3 0-11.42-5.17-11.42-11.55V249.78h249.7z" style="fill:url(#d)" transform="translate(-81.73 -134.53)scale(.7751)"/><path d="M251.75 53.06H47.48v259.13a10.1 10.1 0 0 0 10.07 10.09h184.9a10.1 10.1 0 0 0 10.07-10.1V53.07zm-.78 1.55V312.2a8.54 8.54 0 0 1-8.52 8.54H57.55a8.54 8.54 0 0 1-8.52-8.54V54.6z"/><path d="M246.77 58.3H52.45v249.02a9.7 9.7 0 0 0 9.62 9.72h175.86c5.3 0 9.62-4.36 9.62-9.72V58.3zm-.77 1.55v247.47c0 4.5-3.62 8.17-8.07 8.17H62.07a8.13 8.13 0 0 1-8.07-8.17V59.85z"/><path d="m298.98 269.91 4.6 9.52 10.47 1.44-7.63 7.32 1.87 10.4-9.31-4.99-9.32 4.99 1.86-10.4-7.62-7.32 10.47-1.44z" style="fill:#ffdb00;fill-opacity:1;stroke:#000;stroke-opacity:1" transform="translate(-81.73 -134.53)scale(.7751)"/><path d="M395.89 297.41c-15.53 9.96-51.05 19.7-96.91 19.72-45.87-.02-81.39-9.76-96.92-19.72l-17.45 22.98c15.7 11.7 51.6 23.39 114.37 22.82 62.76.57 98.65-11.12 114.36-22.82z" style="fill:#f2f2f2;fill-opacity:1;stroke:#000;stroke-width:1;stroke-miterlimit:4;stroke-dasharray:none;stroke-opacity:1" transform="translate(-81.73 -134.53)scale(.7751)"/><g font-size="20"><text style="font-size:20.0007px;fill:#1a171b;font-family:ArialMT" transform="rotate(29.07 -179.2 193.14)scale(.77512)">T</text><text style="font-size:20px;fill:#1a171b;font-family:ArialMT" transform="rotate(21.9 -260.54 267.58)scale(.77507)">I</text><text style="font-size:19.99909973px;fill:#1a171b;font-family:ArialMT" transform="rotate(17.14 -350.3 344.72)scale(.77506)">E</text><text style="font-size:20.00079918px;fill:#1a171b;font-family:ArialMT" transform="rotate(12.47 -509.07 504.76)scale(.77512)">R</text><text style="font-size:20.0007px;fill:#1a171b;font-family:ArialMT" transform="rotate(8.85 -749.52 765.87)scale(.77512)">R</text><text style="font-size:19.99900055px;fill:#1a171b;font-family:ArialMT" transform="rotate(5.88 -1169.91 1241.13)scale(.77505)">A</text><text style="font-size:20px;fill:#1a171b;font-family:ArialMT" transform="rotate(2.38 -3000.96 3324.42)scale(.77507)">Y</text><text style="font-size:20px;fill:#1a171b;font-family:ArialMT" transform="rotate(-1.27 5837.4 -6764.25)scale(.7751)">L</text><text style="font-size:20.00099945px;fill:#1a171b;font-family:ArialMT" transform="rotate(-3.1 2450.66 -2924.64)scale(.77513)">I</text><text style="font-size:20px;fill:#1a171b;font-family:ArialMT" transform="rotate(-5.26 1472.66 -1747.4)scale(.77511)">B</text><text style="font-size:20px;fill:#1a171b;font-family:ArialMT" transform="rotate(-8.58 932.17 -1120.34)scale(.77508)">E</text><text style="font-size:20.00090027px;fill:#1a171b;font-family:ArialMT" transform="rotate(-12.6 659.79 -792.98)scale(.77513)">R</text><text style="font-size:20px;fill:#1a171b;font-family:ArialMT" transform="rotate(-17.02 508.74 -608.92)scale(.7751)">T</text><text style="font-size:20px;fill:#1a171b;font-family:ArialMT" transform="rotate(-21.38 421.59 -493.39)scale(.77511)">A</text><text style="font-size:20px;fill:#1a171b;font-family:ArialMT" transform="rotate(-28.43 337.72 -376.28)scale(.77508)">D</text></g><g transform="translate(-81.73 -134.53)scale(.7751)"><circle cx="317.48" cy="214.93" r="4.11" style="fill:#1a171b"/><circle cx="389.34" cy="214.93" r="4.11" style="fill:#1a171b"/><path d="M206.65 230.77v.94h-13.19v-.94h.85q1.11 0 1.77-.56.5-.37.76-1.28.2-.63.19-3.35v-23.62q0-2.77-.2-3.46-.19-.7-.83-1.21a2.6 2.6 0 0 0-1.69-.52h-.84v-.94h13.19v.94h-.84q-1.08 0-1.76.56-.47.37-.76 1.28-.2.63-.2 3.35v23.62q0 2.77.22 3.46.21.7.83 1.21.62.52 1.67.52zm10.43-32.87v14.56h.53q2.45 0 3.56-2.14 1.1-2.13 1.4-6.3h.63v18.75h-.62a19 19 0 0 0-.98-5.01q-.72-1.95-1.7-2.63a5 5 0 0 0-2.83-.67v10.11q0 2.97.2 3.63.17.66.67 1.08.49.43 1.58.43h1.51q3.56 0 5.72-2.32t3.08-7.07h.68l-1.13 11.39h-21.93v-.94h.84q1.11 0 1.77-.56.51-.37.77-1.28.18-.63.18-3.35v-23.62q0-2.45-.07-3a3 3 0 0 0-.7-1.45 2.6 2.6 0 0 0-1.94-.74h-.85v-.94h21.25v10.5h-.62q-.54-3.84-1.54-5.51a6 6 0 0 0-2.8-2.46q-1.05-.46-3.98-.47zm23.7-2.07 12.44 22.15v-15.33q0-3.25-.65-4.4-.9-1.53-2.97-1.48v-.94h8.31v.94q-1.6.3-2.16.76-.55.46-.85 1.51t-.3 3.6v29.88h-.64l-17.05-30.02v22.96q0 3.12 1 4.22 1.01 1.1 2.32 1.1h.62v.93h-9.07v-.94q2.1-.03 2.93-1.23.82-1.2.82-4.08v-25.38l-.5-.9a7 7 0 0 0-1.44-1.9q-.6-.45-1.77-.5v-.95zm27.56 2.07v14.56h.54q2.45 0 3.56-2.14 1.1-2.13 1.4-6.3h.63v18.75h-.63a19 19 0 0 0-.97-5.01q-.72-1.95-1.7-2.63a5 5 0 0 0-2.83-.67v10.11q0 2.97.19 3.63.18.66.68 1.08.49.43 1.58.43h1.51q3.56 0 5.72-2.32t3.08-7.07h.68l-1.14 11.39h-21.92v-.94h.84q1.11 0 1.77-.56.51-.37.77-1.28.18-.63.18-3.35v-23.62q0-2.45-.07-3a3 3 0 0 0-.7-1.45 2.6 2.6 0 0 0-1.94-.74h-.85v-.94h21.25v10.5h-.62q-.54-3.84-1.54-5.51a6 6 0 0 0-2.8-2.46q-1.05-.46-3.98-.47zm32.14-2.88.19 11.94h-.75q-.55-4.49-2.67-7.21-2.12-2.73-4.58-2.73a3.6 3.6 0 0 0-3.02 1.44 5.3 5.3 0 0 0-1.1 3.31q0 1.2.36 2.11.55 1.25 1.74 2.46.87.86 4.03 3.09 4.43 3.09 6 5.83a12.6 12.6 0 0 1 1.55 6.3q0 4.48-2.48 7.72a7.6 7.6 0 0 1-8.57 2.9q-1.06-.36-2.68-1.31-.9-.54-1.49-.54-.46 0-1.02.54-.55.54-.88 1.65h-.63v-13.5h.63q.84 5.67 3.18 8.64 2.35 2.99 5.05 2.98a4 4 0 0 0 3.33-1.6 6 6 0 0 0 1.25-3.75q0-1.27-.48-2.46a8 8 0 0 0-1.43-2.25 21 21 0 0 0-3.44-2.79 30 30 0 0 1-4.93-4.1 12.2 12.2 0 0 1-3.1-8.37q0-4.27 2.21-7.29 2.22-3 5.6-3.01 1.2 0 2.37.42.88.31 2.14 1.16 1.26.86 1.76.86.48 0 .75-.42.28-.42.55-2.02zm52.36 24.06-.94 12.63h-22.44v-.94h.85q1.1 0 1.76-.56.51-.37.74-1.28.21-.63.21-3.35v-23.62q0-2.77-.2-3.46-.18-.7-.82-1.21a2.6 2.6 0 0 0-1.7-.52h-.84v-.94h13.57v.94h-1.14q-1.13 0-1.8.56-.5.37-.79 1.27-.21.65-.21 3.36v22.88q0 2.75.22 3.5t.88 1.13q.48.24 2.24.24h2.1a5.4 5.4 0 0 0 3.34-1.01 8 8 0 0 0 2.31-3.19q.98-2.18 1.85-6.43zm8.08.5 3.9-12.27 3.78 12.27zm9.65 6.4q.54 1.76.56 2 .1.5.1.98 0 .8-.4 1.22-.6.6-2.08.6h-.5v.93h12.26v-.94a2.5 2.5 0 0 1-1.8-.96q-.84-1.08-2.14-5.28l-9.15-29.38h-.35l-9.09 28.59q-1.26 4.11-2.15 5.43a3.6 3.6 0 0 1-2.23 1.6v.94h8.4v-.94q-1.98-.2-2.48-.64-.85-.72-.85-2.23 0-1.14.53-2.9l1.1-3.48h8.9zm56.63-30.15v9.7h-.63q-.6-3.36-1.33-4.82a6 6 0 0 0-2.03-2.34q-.72-.47-2.52-.47h-1.87v27.68q0 2.77.22 3.46.22.7.83 1.21.6.52 1.68.52h.83v.94h-13.19v-.94h.84q1.1 0 1.76-.56.5-.37.75-1.27.21-.65.21-3.36V197.9h-1.87q-2.61 0-3.8 1.53-1.65 2.13-2.07 6.1h-.63v-9.7z" style="fill:#1a171b"/><path d="M456.26 213.86q1.97 2.27 1.38 4.57t-3.67 4.96a12 12 0 0 1-3.93 2.43 4.6 4.6 0 0 1-3.15.06q-1.35-.53-3.04-2.49l-.7-.8 11.81-10.23zm-13.45 11.2-7.03 16.9 5.2 6 .76-.66a2.7 2.7 0 0 1-.48-1.92q.1-.75 1.1-3.2l5.22-12.56a7.6 7.6 0 0 0 4.21 1.1q3.28-.16 6.27-2.76a11.5 11.5 0 0 0 3.4-4.72q.95-2.6.24-4.8-.72-2.19-3.74-5.67l-7.7-8.9-.72.62q1.16 1.34 1.24 2.11.09.78-.32 1.47-.4.69-2.6 2.59l-17.66 15.3q-2.2 1.92-2.93 2.2-.72.3-1.48.13-.77-.18-1.94-1.53l-.7.61 8.55 9.87.7-.61q-1.14-1.33-1.23-2.11-.09-.79.32-1.47.4-.7 2.6-2.6l7.65-6.62z" style="fill:#1a171b"/></g><g transform="translate(-81.73 -134.53)scale(.7751)"><circle cx="456.31" cy="403.27" r="4.11" style="fill:#1a171b"/><circle cx="453.58" cy="488.9" r="4.11" style="fill:#1a171b"/><circle cx="456.31" cy="591.35" r="4.11" style="fill:#1a171b"/><path d="m447.93 248.75 12.27 3.9-12.27 3.78zm-6.4 9.65a24 24 0 0 1-2 .55q-.5.1-.98.1-.8 0-1.23-.39-.58-.6-.58-2.09v-.5h-.94v12.27h.94q.13-1.17.95-1.8 1.1-.85 5.29-2.14l29.38-9.16v-.34l-28.59-9.1q-4.11-1.26-5.43-2.15a3.6 3.6 0 0 1-1.6-2.23h-.94v8.4h.94q.2-1.98.64-2.48.72-.84 2.23-.85 1.14 0 2.9.53l3.48 1.1v8.9zm28.15 19.6q.02 2.71-.78 3.95a5 5 0 0 1-2.32 1.89 10 10 0 0 1-3.92.66q-2.4 0-3.93-.68a5.4 5.4 0 0 1-2.4-1.93q-.84-1.27-.84-3.93zM458 289.42a8.3 8.3 0 0 0 4.63 1.32q2.47 0 4.65-1.05a7.5 7.5 0 0 0 3.28-2.85q1.1-1.81 1.1-6.15v-12.14h-.93q0 1.76-.46 2.4-.45.65-1.21.9-.77.26-3.7.26H442.1q-2.94 0-3.69-.26-.74-.26-1.22-.9-.45-.64-.46-2.4h-.94v12.86q0 5.4 3.2 8.21a9.8 9.8 0 0 0 6.68 2.3q3.82 0 6.24-2.08 1.68-1.47 2.88-5.06 1.19 3.32 3.21 4.64m-5.3-7.16a5.5 5.5 0 0 1-2.8 2.27 12 12 0 0 1-4.5.83q-2.18 0-3.96-.67a6 6 0 0 1-2.71-1.96 4.6 4.6 0 0 1-.94-2.76q0-1.02.72-1.53a3.6 3.6 0 0 1 2.13-.52h1.3l11.54.03q.01 2.87-.78 4.3m-4.77 17.81 12.27 3.9-12.27 3.78zm-6.4 9.65a24 24 0 0 1-2 .56q-.5.1-.98.1-.8 0-1.23-.4-.58-.6-.58-2.08v-.5h-.94v12.26h.94q.13-1.15.95-1.8 1.1-.84 5.29-2.14l29.38-9.15v-.35l-28.59-9.09q-4.11-1.27-5.43-2.15a3.6 3.6 0 0 1-1.6-2.24h-.94v8.4h.94q.2-1.97.64-2.48.72-.84 2.23-.84 1.14 0 2.9.53l3.48 1.1v8.9zm29.21 14.77h.94v13.5h-.94v-.81q0-1.11-.56-1.8a2.7 2.7 0 0 0-1.28-.74q-.63-.2-3.35-.2h-17.57q-5.16 0-7.5-.74a8 8 0 0 1-3.92-2.57 6.6 6.6 0 0 1-1.57-4.45q0-3.2 2.38-5.16a8 8 0 0 1 5.27-1.96q1.86 0 3 .8 1.17.81 1.16 1.97a2.3 2.3 0 0 1-1.04 1.9q-1.03.75-2.54.76-.75 0-1.3-.12-.27-.09-1.35-.57a4 4 0 0 0-1.52-.5q-.69 0-1.2.48-.74.7-.74 1.84 0 .78.58 1.3.6.54 1.82.74 1.23.21 6.84.21h19.2q2.77 0 3.46-.22a2.5 2.5 0 0 0 1.73-2.58zm-22.81 20.46 12.27 3.9-12.27 3.78zm-6.4 9.65a24 24 0 0 1-2 .56q-.5.1-.98.1-.8 0-1.23-.4-.58-.6-.58-2.08v-.5h-.94v12.26h.94q.13-1.15.95-1.8 1.1-.84 5.29-2.14l29.38-9.15v-.35L443.77 342q-4.11-1.27-5.43-2.15a3.6 3.6 0 0 1-1.6-2.24h-.94v8.4h.94q.2-1.97.64-2.48.72-.84 2.23-.84 1.14 0 2.9.53l3.48 1.1v8.9z" style="fill:#1a171b"/><path d="m471.68 373.48-22.15 12.44h15.33q3.25 0 4.39-.65 1.54-.9 1.49-2.97h.94v8.31h-.94a5 5 0 0 0-.76-2.16 3 3 0 0 0-1.52-.85q-1.05-.3-3.6-.3H435v-.64l30-17.05h-22.95q-3.12 0-4.22 1a3 3 0 0 0-1.1 2.32v.62h-.93v-9.07h.94q.03 2.1 1.23 2.93 1.2.82 4.08.82h25.38l.9-.5a7 7 0 0 0 1.9-1.44q.45-.6.5-1.77h.95zm.81 68.6h-12.44v-.75q4.9-.82 7.51-3.06 2.62-2.24 2.62-5.09 0-2.36-1.94-4.34a11.4 11.4 0 0 0-5.06-2.9 32 32 0 0 0-8.9-1.17q-4.82 0-8.78.86t-5.99 2.69a6 6 0 0 0-2.02 4.74q0 2.4 1.48 4.4 1.48 1.98 5.1 4.18h-3.09a15 15 0 0 1-4.57-4.43 10 10 0 0 1-1.42-5.4q0-4.06 2.3-7.22a14.6 14.6 0 0 1 6.6-4.86 25 25 0 0 1 9.19-1.71q5.13 0 9.73 1.89a17 17 0 0 1 7.14 5.13 11 11 0 0 1 2.54 6.86q0 2.67-1.62 5.64-.94 1.72-.94 2.17 0 .6.6 1.05.63.44 1.96.57zm-2.25 8.72q-.99.46-4.63.46-4.49 0-6.02-.26a3 3 0 0 1-1.41-.53 1.2 1.2 0 0 1-.5-.96q0-.75 1.03-1.25t4.35-.5q4.65 0 6.24.27.98.12 1.46.55.48.4.48.99 0 .75-1 1.22m-.1-5.1q-2.22-1.5-5.72-1.5-3.45 0-5.62 1.5a4.5 4.5 0 0 0-2.19 3.84q0 2.33 2.17 3.8 2.18 1.5 5.72 1.49 3.5 0 5.68-1.51 2.18-1.5 2.18-3.83 0-2.28-2.22-3.78m1.54 18.76-22.15 12.44h15.33q3.25 0 4.39-.66 1.54-.9 1.49-2.97h.94v8.32h-.94a5 5 0 0 0-.76-2.16 3 3 0 0 0-1.52-.85q-1.05-.3-3.6-.3H435v-.64l30-17.05h-22.95q-3.12 0-4.22 1a3 3 0 0 0-1.1 2.32v.61h-.93v-9.06h.94q.03 2.1 1.23 2.93 1.2.82 4.08.82h25.38l.9-.51a7 7 0 0 0 1.9-1.43q.45-.6.5-1.77h.95zm.81 52.4-11.94.19v-.75q4.49-.56 7.2-2.68 2.74-2.1 2.74-4.57a3.6 3.6 0 0 0-1.44-3.02 5.3 5.3 0 0 0-3.31-1.1q-1.2 0-2.12.36-1.23.56-2.45 1.74-.86.87-3.09 4.03-3.09 4.41-5.83 6a12.6 12.6 0 0 1-6.3 1.55q-4.49 0-7.72-2.48a7.6 7.6 0 0 1-2.9-8.58q.35-1.06 1.31-2.67.54-.9.54-1.49 0-.48-.54-1.02t-1.65-.89v-.62h13.5v.62q-5.67.85-8.65 3.2-2.98 2.33-2.98 5.03a4 4 0 0 0 1.61 3.34 6 6 0 0 0 3.75 1.24q1.27 0 2.46-.47a8 8 0 0 0 2.25-1.44q1.06-.96 2.79-3.43a30 30 0 0 1 4.09-4.93 12.2 12.2 0 0 1 8.38-3.1q4.28 0 7.29 2.21t3 5.6q0 1.2-.41 2.37-.31.87-1.17 2.13-.85 1.28-.85 1.77 0 .48.42.75.42.29 2.02.54zm-.81 3.33v13.06h-.94v-.66q0-1.47-.44-2.02-.45-.56-1.21-.78-.77-.23-3.85-.23h-17.57q-4.8 0-6.37.51a6 6 0 0 0-2.6 1.67 4.2 4.2 0 0 0-1.02 2.9q0 2.02 1.3 3.46a8 8 0 0 0 3.62 2.14q2.3.7 8.01.7h14.63q2.4 0 3.45-.35a3 3 0 0 0 1.44-.87q.6-.84.6-2.34h.95v8.75h-.94v-.53q0-1.06-.61-1.77a3.5 3.5 0 0 0-1.84-1.03q-.84-.24-3.05-.24h-13.62q-6.31 0-9.12-.57a10.4 10.4 0 0 1-5.16-2.85q-2.35-2.28-2.35-6.19 0-3.25 1.24-5.04a9 9 0 0 1 4.34-3.41q2.64-1 7.11-1h17.56q3.1 0 3.86-.25t1.21-.85.43-2.21zm.81 43.62-11.94.2v-.76q4.49-.56 7.2-2.67 2.74-2.12 2.74-4.58a3.6 3.6 0 0 0-1.44-3.01 5.3 5.3 0 0 0-3.31-1.11q-1.2 0-2.12.37-1.23.54-2.45 1.73-.86.87-3.09 4.03-3.09 4.43-5.83 6a12.6 12.6 0 0 1-6.3 1.55q-4.49 0-7.72-2.48a7.6 7.6 0 0 1-2.9-8.57q.35-1.06 1.31-2.68.54-.9.54-1.48 0-.48-.54-1.02-.54-.55-1.65-.9v-.62h13.5v.63q-5.67.84-8.65 3.19-2.98 2.34-2.98 5.04a4 4 0 0 0 1.61 3.34 6 6 0 0 0 3.75 1.24q1.27 0 2.46-.48a8 8 0 0 0 2.25-1.43q1.06-.96 2.79-3.44a30 30 0 0 1 4.09-4.93 12.2 12.2 0 0 1 8.38-3.1q4.28 0 7.29 2.22 3 2.21 3 5.59 0 1.2-.41 2.37-.31.88-1.17 2.14t-.85 1.77q0 .46.42.75.42.27 2.02.54zm-46.15 42.36-.88 24.72-9.93 2.5-.23-.9.8-.2q1.05-.28 1.6-1 .34-.46.4-1.4.05-.67-.61-3.3l-5.77-22.92q-.68-2.68-1.05-3.3a2.5 2.5 0 0 0-1.11-.97 2.6 2.6 0 0 0-1.77-.09l-.8.2-.22-.9 12.79-3.23.23.91-.8.2a2.7 2.7 0 0 0-1.6.98q-.37.49-.4 1.42-.05.68.6 3.3l6.5 25.76 1.39-34.06.43-.1 17.48 29.03-6.16-24.48a28 28 0 0 0-.9-3.13 4 4 0 0 0-1.53-1.84q-.99-.6-2.67-.19l-.23-.9 8.37-2.1.23.9-.26.06a2.9 2.9 0 0 0-2.22 2.1 7 7 0 0 0-.09 2.05q.03.3.62 2.66l5.52 21.94q.67 2.69 1.05 3.3t1.11.96q.75.36 1.77.1l.8-.2.22.91-9.94 2.5z" style="fill:#1a171b"/><path d="M447.38 452.27c.38.36 6.88 2.03 15.04 2.34-1.26-.74-4.65-2.65-5.08-4.46-.43-1.82.65-3.79.65-3.79s-3.66 5.5-10.5 4.72c-.64.38-.5.82-.12 1.19" style="fill:#1a171b"/></g><g transform="translate(-81.73 -134.53)scale(.7751)"><circle cx="142.62" cy="510" r="4.11" style="fill:#1a171b"/><circle cx="142.62" cy="313.08" r="4.11" style="fill:#1a171b"/><circle cx="142.62" cy="258.29" r="4.11" style="fill:#1a171b"/><path d="M166.95 195.83h13.07v.94h-.66q-1.48 0-2.03.44-.56.45-.78 1.2-.22.78-.22 3.86v17.56q0 4.82.5 6.38a6 6 0 0 0 1.67 2.6 4.2 4.2 0 0 0 2.9 1.02q2.04 0 3.47-1.3a8 8 0 0 0 2.13-3.62q.7-2.3.7-8.01v-14.63q0-2.41-.35-3.45a3 3 0 0 0-.87-1.44 4 4 0 0 0-2.34-.61v-.94h8.75v.94h-.53q-1.05 0-1.77.61-.7.6-1.02 1.83-.24.86-.24 3.06v13.62q0 6.31-.58 9.12a10.4 10.4 0 0 1-2.85 5.16q-2.26 2.35-6.18 2.35-3.25 0-5.04-1.24a9 9 0 0 1-3.42-4.34q-1-2.64-1-7.11v-17.56q0-3.1-.25-3.87-.25-.75-.84-1.2-.6-.45-2.22-.43zm4.21 432.74 1.87-14.44-.53-.07a3.7 3.7 0 0 0-3.8 1.66q-1.38 1.98-2.21 6.07l-.62-.08 2.41-18.6.62.09q-.15 3.06.32 5.1t1.35 2.81q.87.8 2.72 1.04l1.3-10.03q.38-2.94.28-3.62a2 2 0 0 0-.53-1.17q-.44-.48-1.51-.62l-1.5-.2a7.4 7.4 0 0 0-5.97 1.57q-2.43 2.01-3.97 6.62l-.67-.1 2.6-11.14 21.73 2.82-.12.93-.84-.1q-1.1-.16-1.82.32-.54.3-.92 1.17-.27.6-.62 3.3l-3.04 23.42a32 32 0 0 0-.3 3q.05.94.49 1.5.6.84 1.84 1l.84.1-.13.94-21.07-2.74 1.35-10.41.62.08q.04 3.87.82 5.66a6 6 0 0 0 2.45 2.8q1 .6 3.9.98z" style="fill:#1a171b"/><path d="M131.8 603.48q-1.4-2.66-.31-4.76t4.7-4.01a12 12 0 0 1 4.37-1.48 4.6 4.6 0 0 1 3.09.65q1.2.82 2.4 3.1l.5.94-13.82 7.31zm15.63-7.88 10.66-14.87-3.72-7.03-.88.47q.4.93.04 1.99-.28.71-1.8 2.86l-7.92 11.06a7.6 7.6 0 0 0-3.85-2.03q-3.23-.56-6.73 1.3a11.5 11.5 0 0 0-4.38 3.82 7.2 7.2 0 0 0-1.3 4.61q.2 2.3 2.35 6.38l5.5 10.4.84-.43q-.83-1.57-.73-2.34.1-.79.64-1.36.55-.57 3.12-1.94l20.66-10.93q2.57-1.36 3.34-1.48t1.48.22 1.54 1.92l.83-.43-6.11-11.55-.83.44q.83 1.55.73 2.33t-.64 1.36q-.55.58-3.12 1.94l-8.95 4.74z" style="fill:#1a171b"/><path d="M125.16 566.77q0-3 1.95-4.36 1.94-1.35 6.02-1.35 2.82 0 4.57.74a4.6 4.6 0 0 1 2.42 2.02q.66 1.29.67 3.87v1.06h-15.63zm17.5.34 16.38-8.16V551h-1a2.7 2.7 0 0 1-.9 1.77q-.58.5-2.92 1.7l-12.18 6.07a7.6 7.6 0 0 0-2.45-3.6q-2.6-2-6.55-2-3.25 0-5.66 1.33a7.2 7.2 0 0 0-3.32 3.47q-.9 2.13-.9 6.73v11.78h.94q0-1.77.45-2.41t1.2-.9 3.66-.25h23.38q2.9 0 3.65.25.74.25 1.2.88t.46 2.43h.94v-13.06h-.94q0 1.75-.45 2.4t-1.2.9-3.66.26h-10.13z" style="fill:#1a171b"/><path d="m146.91 544.61-12.27-3.9 12.27-3.78zm6.4-9.65a24 24 0 0 1 2-.56q.5-.1.98-.1.8 0 1.22.4.6.6.6 2.08v.5h.93v-12.26h-.94q-.13 1.17-.95 1.8-1.1.84-5.29 2.14l-29.38 9.16v.34l28.59 9.1q4.11 1.26 5.43 2.15a3.6 3.6 0 0 1 1.6 2.23h.94v-8.4h-.94q-.2 1.98-.64 2.48-.72.84-2.23.85-1.14 0-2.9-.53l-3.48-1.1v-8.9zm-30.15-68.3h.94q.32 1.37 2.1 2.46 1.33.78 6.24 2.35l27.41 8.64v.63l-28.52 8.67q-5.18 1.55-6.09 2.08-.9.53-1.14 2.01h-.94v-12.1h.94v.42q0 1.64.59 2.24.4.42 1.18.42.48 0 1.14-.15.65-.16 3.5-1.02l17.84-5.38-15.87-4.97a56 56 0 0 0-3.9-1.12 8 8 0 0 0-1.68-.21q-.8 0-1.41.3t-.93.89q-.45.8-.46 2.11h-.94zm1.44-7.06q.99-.47 4.63-.47 4.49 0 6.02.26.9.13 1.4.54.51.4.51.95 0 .75-1.03 1.25-1.04.5-4.35.5-4.65 0-6.24-.26a2.7 2.7 0 0 1-1.46-.55q-.48-.41-.48-1 0-.74 1-1.22m.1 5.09q2.22 1.5 5.72 1.5 3.45 0 5.62-1.49a4.5 4.5 0 0 0 2.19-3.85q0-2.32-2.17-3.8-2.18-1.48-5.72-1.48-3.5 0-5.68 1.5t-2.18 3.84q0 2.27 2.22 3.78m21.71-33.39 12.63.94v22.44h-.94v-.84q0-1.11-.56-1.77a2.2 2.2 0 0 0-1.28-.74q-.63-.21-3.35-.21H129.3q-2.77 0-3.46.2-.69.19-1.21.83t-.52 1.69v.84h-.94v-13.56h.94v1.13q0 1.14.56 1.8.37.5 1.28.8.63.2 3.35.2h22.88q2.75 0 3.5-.22.75-.21 1.13-.88.24-.47.24-2.23v-2.1a5.4 5.4 0 0 0-1.01-3.35 8 8 0 0 0-3.19-2.31 33 33 0 0 0-6.43-1.84zm-23.25-24.09h.94q.32 1.38 2.1 2.46 1.33.8 6.24 2.35l27.41 8.65v.62l-28.52 8.67q-5.18 1.56-6.09 2.09-.9.53-1.14 2h-.94v-12.1h.94v.42q0 1.64.59 2.24.4.43 1.18.43.48 0 1.14-.16t3.5-1.02l17.84-5.38-15.87-4.96a56 56 0 0 0-3.9-1.13 8 8 0 0 0-1.68-.2q-.8 0-1.41.3t-.93.88q-.45.8-.46 2.11h-.94zm2.07-9.89h14.56v-.54q0-2.45-2.14-3.56-2.13-1.1-6.3-1.4v-.62h18.75v.62q-3.06.25-5.01.97-1.95.73-2.63 1.7-.67.98-.67 2.83h10.11q2.97 0 3.63-.19.66-.18 1.08-.67t.43-1.58v-1.52q0-3.56-2.32-5.71t-7.07-3.08v-.69l11.39 1.14v21.93h-.94v-.85q0-1.11-.56-1.77a2.4 2.4 0 0 0-1.28-.76q-.63-.2-3.35-.19H129.3q-2.44 0-3 .08-.93.18-1.45.69-.75.7-.74 1.95v.84h-.94V385.7h10.5v.63q-3.84.54-5.51 1.54a6 6 0 0 0-2.46 2.79q-.46 1.07-.47 3.98zm-.07-26.37q0-3 1.95-4.36 1.94-1.34 6.02-1.34 2.82 0 4.57.74a4.6 4.6 0 0 1 2.42 2.02q.66 1.28.67 3.87v1.05h-15.63zm17.5.35 16.38-8.17v-7.95h-1a2.7 2.7 0 0 1-.9 1.78q-.58.5-2.92 1.7l-12.18 6.06a7.6 7.6 0 0 0-2.45-3.6q-2.6-2-6.55-2-3.25 0-5.66 1.34a7.2 7.2 0 0 0-3.32 3.46q-.9 2.13-.9 6.74v11.77h.94q0-1.77.45-2.4.45-.66 1.2-.9.76-.26 3.66-.26h23.38q2.9 0 3.65.25.74.26 1.2.89t.46 2.42h.94v-13.06h-.94q0 1.75-.45 2.4t-1.2.9q-.75.27-3.66.26h-10.13z" style="fill:#1a171b"/><path d="m146.91 348.8-12.27-3.9 12.27-3.78zm6.4-9.65a24 24 0 0 1 2-.56q.5-.1.98-.1.8 0 1.22.4.6.6.6 2.08v.5h.93v-12.26h-.94q-.13 1.17-.95 1.8-1.1.84-5.29 2.14l-29.38 9.15v.35l28.59 9.09q4.11 1.27 5.43 2.15a3.6 3.6 0 0 1 1.6 2.24h.94v-8.4h-.94q-.2 1.97-.64 2.48-.72.84-2.23.84-1.14 0-2.9-.53l-3.48-1.1v-8.9zm-6.4-47.36-12.27-3.9 12.27-3.78zm6.4-9.66a24 24 0 0 1 2-.55q.5-.1.98-.1.8 0 1.22.39.6.6.6 2.09v.5h.93V272.2h-.94q-.13 1.15-.95 1.8-1.1.84-5.29 2.13l-29.38 9.16v.34l28.59 9.1q4.11 1.26 5.43 2.15a3.6 3.6 0 0 1 1.6 2.23h.94v-8.4h-.94q-.2 1.98-.64 2.48-.72.85-2.23.85-1.14 0-2.9-.53l-3.48-1.1v-8.9zm-18.39-68.08q4 .94 11.18 5.73 7.3 4.84 9.65 9.17 1.65 3 .1 5.34-1.56 2.34-5 1.94-4.98-.55-12.63-5.65-6.39-4.25-9-7.82-3.11-4.24-1.26-7.03 1.92-2.89 6.96-1.68m22.85 8.94q-2.66-5.32-8.47-9.2-6.67-4.43-13.21-4.25-6.54.2-9.77 5.05-3.25 4.88-.92 11t9.02 10.57q5.77 3.85 11.5 4.27 5.7.42 9.39-2.62 4.63 1.43 8.14.48a9.2 9.2 0 0 0 5.44-3.85q1.23-1.85 2-4.7l-1.35-.9q-.36.75-.78 1.39a6.3 6.3 0 0 1-3.98 2.81q-2.48.55-5.84-.68 1.48-4.05-1.17-9.37M147.6 463.75c-.38.37-6.88 2.04-15.04 2.35 1.26-.75 4.65-2.65 5.08-4.47s-.65-3.78-.65-3.78 3.66 5.48 10.5 4.72c.64.37.5.81.11 1.18" style="fill:#1a171b"/></g><path d="M363.09 553.9c2.32.14 4.3-1.01 3.7-3.53 2.52-.12 4.84-.17 7.23.56 2.54.78 3.3 2.45 5.44 3.4 1.8 5.8-16.8 4.82-17.42-.37.35-.1.7.03 1.04-.06m-19.71 26.2c2.4.21 4.53-.5 6.88-.8 1.36-.17 4.1.28 5.27-.26 2.32-1.07.96-3.98 3.62-4.7 2.5-.7 4.32 2.77 7.24 2.9 2.86.13 6.91-1.29 10.08-1.44 7.89-.38 16.18 2.52 23.87.65 5.09-1.23 8.02-7.99 13.83-5.25-2.22 3.07-5.64 4.97-7.24 8.55.73.07 1.58.55 2.45.43-3.4 2.12-14.02.98-18.53.64-5.73-.43-11.3-1.06-17.17-.28-3.55.47-29.74 3.29-29.94-1.15" style="fill:#520;fill-opacity:1" transform="translate(-81.73 -134.53)scale(.7751)"/><g transform="translate(-81.73 -134.53)scale(.7751)"><circle cx="311.29" cy="612.19" r="4.11" style="fill:#1a171b"/><circle cx="235.95" cy="612.19" r="4.11" style="fill:#1a171b"/><path d="m401.46 607-3.9 12.26-3.78-12.27zm-9.65-6.4a24 24 0 0 1-.56-2q-.1-.51-.1-.98 0-.81.4-1.23.6-.59 2.08-.59h.5v-.93h-12.26v.93q1.17.14 1.8.96.84 1.1 2.14 5.29l9.15 29.38h.35l9.1-28.6q1.26-4.1 2.15-5.42a3.6 3.6 0 0 1 2.23-1.6v-.94h-8.4v.93q1.97.22 2.48.64.84.72.84 2.24 0 1.13-.52 2.9l-1.11 3.47h-8.9zm-18.97 30.14L360.4 608.6v15.34q0 3.24.66 4.39.9 1.53 2.96 1.48v.94h-8.3v-.94a5 5 0 0 0 2.15-.75q.55-.47.85-1.52t.3-3.6v-29.88h.64l17.05 30.02v-22.95q0-3.14-1-4.22a3 3 0 0 0-2.32-1.1h-.62v-.93h9.07v.93q-2.1.03-2.93 1.23-.82 1.2-.82 4.09v25.37l.51.9q.82 1.45 1.43 1.9.6.46 1.77.51v.94zm-24.72-1.43q-.47-.99-.47-4.63 0-4.5.26-6.03.13-.9.54-1.4.4-.5.95-.5.76 0 1.25 1.03.5 1.03.5 4.35 0 4.65-.26 6.24a2.7 2.7 0 0 1-.55 1.46q-.41.48-1 .48-.74 0-1.22-1m5.09-.1q1.5-2.24 1.5-5.72 0-3.44-1.49-5.63a4.5 4.5 0 0 0-3.85-2.18q-2.32 0-3.8 2.17t-1.48 5.72q0 3.5 1.5 5.68 1.52 2.18 3.84 2.18 2.26 0 3.78-2.22m-27.19 2.34-.2-11.93h.76q.55 4.48 2.67 7.2 2.12 2.73 4.58 2.73a3.6 3.6 0 0 0 3.01-1.43 5.3 5.3 0 0 0 1.11-3.32q0-1.2-.37-2.1a9 9 0 0 0-1.73-2.46 37 37 0 0 0-4.03-3.09q-4.42-3.09-6-5.84a12.6 12.6 0 0 1-1.55-6.29q0-4.5 2.48-7.73a7.6 7.6 0 0 1 8.57-2.89q1.06.35 2.68 1.31.9.54 1.48.53.48 0 1.02-.54.55-.54.9-1.64h.62v13.5h-.63q-.84-5.67-3.19-8.65-2.34-2.98-5.04-2.98a4 4 0 0 0-3.34 1.61 6 6 0 0 0-1.24 3.75q0 1.26.48 2.45.47 1.2 1.43 2.26.96 1.07 3.44 2.78a30 30 0 0 1 4.93 4.1 12.2 12.2 0 0 1 3.1 8.37q0 4.29-2.22 7.3t-5.59 3q-1.2 0-2.37-.41-.87-.31-2.14-1.17-1.26-.85-1.77-.85a.9.9 0 0 0-.75.42q-.27.42-.54 2.02zm-52.5-24.05.94-12.63h22.44v.93h-.84q-1.11.01-1.77.56-.5.38-.74 1.28-.21.64-.21 3.35v23.63q0 2.77.2 3.46.19.69.83 1.2.63.53 1.68.53h.85v.93h-13.56v-.93h1.13q1.13-.01 1.8-.56.5-.38.79-1.28.21-.64.21-3.35v-22.88q0-2.76-.22-3.5-.22-.77-.88-1.13a6 6 0 0 0-2.24-.24h-2.1a5.4 5.4 0 0 0-3.34 1 8 8 0 0 0-2.31 3.2 33 33 0 0 0-1.84 6.42zm-8.08-.5-3.9 12.26-3.79-12.27zm-9.66-6.4a24 24 0 0 1-.55-2q-.1-.51-.1-.98 0-.81.39-1.23.6-.59 2.09-.59h.5v-.93h-12.27v.93q1.17.14 1.8.96.85 1.1 2.14 5.29l9.16 29.38h.34l9.1-28.6q1.26-4.1 2.15-5.42a3.6 3.6 0 0 1 2.23-1.6v-.94h-8.4v.93q1.98.22 2.48.64.85.72.85 2.24 0 1.13-.53 2.9l-1.1 3.47h-8.9zm-56.62 30.14v-9.69h.62q.6 3.36 1.33 4.82.75 1.46 2.02 2.33.73.48 2.53.48h1.87v-27.69q0-2.76-.22-3.46a2.6 2.6 0 0 0-.83-1.2q-.62-.53-1.68-.53h-.83v-.93h13.19v.93h-.84q-1.1 0-1.76.56-.5.38-.76 1.28a15 15 0 0 0-.2 3.35v27.69h1.87q2.6 0 3.8-1.53 1.64-2.14 2.07-6.1h.63v9.7zm-14.34-34.94v-.93h13.2v.93h-.85q-1.11.01-1.77.56-.51.38-.77 1.28-.18.64-.18 3.35v23.63q0 2.77.2 3.46.19.69.83 1.2.63.53 1.69.53h.84v.93h-13.19v-.93h.84q1.08-.01 1.76-.56.46-.38.76-1.28.2-.64.2-3.35v-23.63q0-2.76-.22-3.46a2.5 2.5 0 0 0-2.5-1.73z" style="fill:#1a171b"/><path d="M349.34 606.34c-.43.3-3.25 6.4-5.03 14.37.96-1.1 3.45-4.1 5.31-4.19s3.6 1.32 3.6 1.32-4.73-4.59-2.74-11.18c-.26-.7-.72-.63-1.15-.32" style="fill:#1a171b"/></g></svg>