<svg xmlns="http://www.w3.org/2000/svg" width="300" height="420.35"><path d="M-425.05 215.5c-6.95.68-3.75 10.57-9.6 12.2-4.68 1.36-9.84-4.34-12.61-5.77-1.84-.96-3.88-.85-6.23-1.49-3.53-1.03-6.86-2.39-8.73-5.14-.69-.96-1.8-2.43-1.28-4.5.6-2.62 3.45-4.35 2.6-8.14-.69-2.65-1.75-6.4-.47-9.39 1.32-3.1 4.35-4.47 7.88-5.37 1.71-.38 2.94.05 4.3-.4 5.34-1.73 10.28-4.07 14.33-7.06a33 33 0 0 0 5.16-4.92c.43-.64.6-1.52 1.28-1.92 1.02-.7 3.2-.8 4.47-1.09 1.62-.36 3.58.17 4.7.43 1.57.38 2.72-.05 4.04.42a12.5 12.5 0 0 1 7.93 8.36c.8 2.65-.6 6.23.64 9.21 1.4 3.33 5.2 6.31 8.35 7.9 6.52 3.32 14.1-2.12 22.25.23a27 27 0 0 1 6.44 2.57c1.15.73 2.43 1.93 3.8 2.54 2 .9 4.55 1.18 6.85 1.73 3.03.7 6.78-.27 8.78-.87 3.16-.88 11.04-2.37 14.75-1.5 4.94 1.17 7.54 4 11.76 5.57 3.29 1.24 7.55.73 10.66 1.28 1.79.32 4.3-.64 5.58-1.07 5.67-1.77 8.02-4.3 14.1-5.78.65-.14 3.5-.02 4.49.22 2.34.53 4.09.06 6.22.64 3.07.85 7.54 2.7 11.98 1.68 2.56-.55 5.28-.81 7.46-1.9 1.19-.58 2.34-1.68 3.45-2.37 2.6-1.58 5.84-2.19 9.17-2.98 4.55-1.07 9.71.69 13.25 1.51 1.96.45 6.1-1.09 7.29-1.72 3.03-1.58 6.35-4.63 7.71-7.9.56-1.36 1.02-4.15.64-6.01-.08-.42-.43-1.57-.21-2.36a12 12 0 0 1 8.35-8.74q1.34-.13 2.73-.24c1.53-.34 4.56-.92 6.65-.43.98.24 2.73.34 3.62.85.56.35.9 1.43 1.28 1.92q2.14 2.17 4.3 4.31c4.18 3.16 8.96 5.5 14.32 7.48 5.37 2 10.02.52 13.05 5.12 1.02 1.6 1.66 5.84.85 8.36-.34 1.13-1.4 2.92-.85 4.92.72 2.67 3.8 4.9 2.13 8.78-2.47 5.79-10.44 5.17-16.24 7.68-2.56 1.13-4.35 3.46-6.82 4.71-2.17 1.05-4.34.96-6.86.62q-1.1-1.03-2.14-2.13c-2.04-3.27-.33-5.5-3.66-8.34-.56-.49-1.79-1.73-2.56-1.25-1.1 1.4-1.32 3.49-2.34 4.9-2.52 3.44-7.03 5.86-11.76 7.04-2.3.59-4.74-.41-6.19-.84-3.83-1.1-9.97-.98-13.5.21-3.08 1.05-5.42 3.08-8.06 4.29-2.6 1.15-5.37 1.4-8.4 2.13-1.45.34-4.18.08-5.33-.23-1.24-.13-2.43-.28-3.66-.4-3.5-.99-10.1-2.9-14.76-1.71-3.7.94-5.87 2.94-8.99 4.26-1.78.79-3.91 1.17-5.75 1.7-4.18 1.2-9.12 1.28-14.1 1.28-1.84 0-5.8-.5-6.83.45-1.1-.83-4.17-.45-6-.45-4.48 0-9.43.28-13.26-.61-3.37-.8-6.86-1.11-9.85-2.37-3.28-1.43-5.62-3.5-9.59-4.48-4.99-1.25-14.2 1.58-17.77 2.33-1.58.36-4.35.1-5.54-.2-2.9-.68-4.94-.5-7.25-1.53-3.32-1.37-5.92-3.67-9.63-4.89-5.16-1.68-12.02-.14-16.5.84-1.74.38-4.17-.6-5.37-1.07-4.3-1.65-10.48-5.68-10.9-11.12" clip-rule="evenodd" style="fill:#009036;fill-rule:evenodd" transform="translate(464.29 180.65)"/><path stroke-miterlimit="2.61" d="M-180.6 187.5c5.36 2 10.01.51 13.04 5.11 1.02 1.6 1.66 5.84.85 8.36-.34 1.13-1.4 2.92-.85 4.92.72 2.67 3.8 4.9 2.13 8.79-2.47 5.78-10.44 5.16-16.24 7.67-2.56 1.13-4.35 3.46-6.82 4.71-2.17 1.05-4.35.96-6.86.62q-1.1-1.03-2.14-2.13c-2.04-3.26-.33-5.5-3.66-8.34-.56-.49-1.8-1.72-2.56-1.25-1.1 1.4-1.32 3.5-2.34 4.9-2.52 3.44-7.03 5.87-11.76 7.04-2.3.6-4.74-.4-6.19-.84-3.83-1.1-9.97-.97-13.5.22-3.08 1.04-5.42 3.07-8.06 4.28-2.6 1.15-5.37 1.4-8.4 2.13-1.45.35-4.18.09-5.33-.23l-3.67-.4c-3.49-.98-10.1-2.9-14.75-1.7-3.7.93-5.87 2.93-8.99 4.25-1.78.8-3.92 1.18-5.75 1.7-4.18 1.2-9.12 1.29-14.1 1.29-1.84 0-5.8-.51-6.83.45-1.1-.84-4.17-.45-6-.45-4.48 0-9.43.27-13.26-.62-3.37-.8-6.87-1.1-9.85-2.37-3.28-1.42-5.63-3.5-9.6-4.48-4.98-1.25-14.18 1.58-17.76 2.33-1.58.36-4.35.1-5.54-.2-2.9-.68-4.95-.5-7.25-1.53-3.33-1.37-5.92-3.67-9.63-4.88-5.16-1.69-12.02-.15-16.5.83-1.74.38-4.18-.6-5.37-1.07-4.3-1.66-10.48-5.7-10.9-11.13-6.96.69-3.76 10.58-9.6 12.2-4.69 1.37-9.85-4.33-12.62-5.76-1.83-.96-3.88-.85-6.22-1.49-3.54-1.03-6.86-2.39-8.74-5.14-.68-.96-1.79-2.43-1.28-4.5.6-2.62 3.46-4.35 2.6-8.14-.68-2.65-1.75-6.4-.47-9.38 1.33-3.11 4.35-4.48 7.89-5.38 1.7-.38 2.94.05 4.3-.4.47-.17 1.03-.34 1.54-.53 0 0 6.26-5 14.2-.11 7.88 4.88-24.43-2.43 16.44 10.98 40.84 13.4 70.12 28.65 105.5 23.8 35.33-4.91 81.07-3.08 99.35-18.34 18.33-15.23 23.19-17.65 23.19-17.65m0 0 8.35 1.86m0 0a61 61 0 0 1-11.85-5.76" style="fill:#e2001a;stroke:#000;stroke-width:1.3142206700000001;stroke-miterlimit:2.6131000499999999;fill-opacity:1" transform="translate(464.29 180.65)"/><path d="M-192.46 181.74c1.03.08-1.66-1.13-2.47-1.73q-2.16-2.13-4.3-4.3c-.39-.5-.72-1.58-1.28-1.92-.9-.51-2.64-.62-3.62-.85-2.09-.5-5.12.08-6.65.42l-2.73.24a12 12 0 0 0-8.35 8.74c-.21.79.13 1.94.21 2.36.38 1.86-.08 4.65-.64 6.02-1.36 3.26-4.68 6.3-7.71 7.89-1.2.63-5.33 2.17-7.29 1.73-3.54-.83-8.7-2.58-13.25-1.52-3.33.8-6.57 1.4-9.17 2.99-1.1.68-2.26 1.79-3.45 2.36-2.18 1.1-4.9 1.35-7.46 1.9-4.43 1.03-8.91-.83-11.98-1.68-2.13-.58-3.88-.1-6.22-.64a18 18 0 0 0-4.48-.21c-6.1 1.47-8.44 4-14.1 5.78-1.29.42-3.8 1.38-5.6 1.07-3.1-.56-7.36-.05-10.65-1.29-4.22-1.58-6.82-4.39-11.76-5.56-3.7-.87-11.6.61-14.75 1.49-2 .6-5.75 1.58-8.78.87-2.3-.55-4.85-.83-6.86-1.72-1.36-.62-2.64-1.82-3.8-2.54-1.83-1.11-4.34-2-6.43-2.58-8.14-2.35-15.73 3.09-22.25-.23-3.16-1.58-6.95-4.57-8.35-7.9-1.24-2.98.17-6.56-.64-9.2a12.5 12.5 0 0 0-7.93-8.36c-1.32-.47-2.47-.04-4.05-.43-1.1-.25-3.07-.79-4.69-.43-1.28.3-3.45.39-4.47 1.1-.68.4-.86 1.27-1.28 1.9a32 32 0 0 1-5.16 4.93s5.67 3.97 5.67 10.09c0 6.08 12.79 19.5 35.97 20.72 23.15 1.24 11.6 3.65 20.12 7.31 8.53 3.67 25.58 1.86 32.31 3.67 6.7 1.81 12.28 3.33 25.02 2.26 12.79-1.06 27.4-7.14 44.5-4.69 17.05 2.43 26.21-5.47 33.5-5.47 7.33 0 14.67 0 18.93-5.5 4.26-5.53 6.69-6.72 10.95-6.72s11.93-20.6 15.42-20.37" clip-rule="evenodd" style="fill:#009036;fill-rule:evenodd" transform="translate(464.29 180.65)"/><path stroke-miterlimit="2.61" d="M-447.64 186.96a50 50 0 0 0 12.78-6.52" style="fill:none;stroke:#000;stroke-width:1.31422067;stroke-miterlimit:2.61310005" transform="translate(464.29 180.65)"/><path d="M270.97 378.78h31.32v39.12h-31.32z" clip-rule="evenodd" style="fill:#bcc0c3;fill-rule:evenodd" transform="translate(-801.3 -970.64)scale(3.14708)"/><path d="M-404.25 84.39v37.42s9 26 37.25 26c28.3 0 48.93-1.52 48.93-1.52V97.37l-8.14 2s-4.09.28-7.16-7.35c-3.07-7.66-6.86-8.41-10.31-8.8-3.41-.4-8.01 7.27-8.01 7.27l-4.6 3.8-.73-3.8-15.3-9.18z" clip-rule="evenodd" style="fill-rule:evenodd" transform="translate(464.29 180.65)"/><path d="M275.33 383.88h11.91v8.75h-11.91z" clip-rule="evenodd" style="fill-rule:evenodd" transform="translate(-801.3 -970.64)scale(3.14708)"/><path d="M-407.5 118.37h1.54s1.92-6.5 5.72-6.5c3.83 0 4.6 6.9 4.6 6.9h4.22s1.87 7.26 11.04 7.26c9.2 0 7.29-6.9 7.29-6.9s6.09-1.52 6.09-6.86c0 0 6.9-.77 6.9-6.5h6.87s1.91-6.12 5.33-6.12c3.45 0 4.98 6.88 4.98 6.88h7.25s2.68 7.24 7.67 6.88c0 0 .77 6.89 3.8 6.89V95.45h8.81v61.54s-93.6 6.14-95.55-30.57l-.39-9.18zm50.82 5.37h-4.56v20.25h4.56zm23.7 0h-4.57v20.25h4.56zm-21.4 20.62h14.92v-20.25s.77-6.1-7.63-6.1c-8.44 0-7.3 6.1-7.3 6.1zm-5.71-22.91h3.4s4.6-5.73 11.09-5.73a8.7 8.7 0 0 1 8.4 5.32h3.83s-4.6-9.17-13.38-9.17-13.34 9.58-13.34 9.58" clip-rule="evenodd" style="fill:#f4d8ad;fill-rule:evenodd" transform="translate(464.29 180.65)"/><path d="M271.57 346.6h30.61v32.31h-30.61z" clip-rule="evenodd" style="fill:#e2b900;fill-rule:evenodd" transform="translate(-801.3 -970.64)scale(3.14708)"/><path d="M-392.32-41.74a4.97 4.97 0 1 1-9.9 0 4.97 4.97 0 0 1 9.9 0" clip-rule="evenodd" style="fill:#e2001a;fill-rule:evenodd" transform="translate(464.29 180.65)"/><path d="m275.83 350.37.11 1.03.29-1-.07 1.04.45-.93-.25 1 .63-.82-.45.93.76-.7-.6.84.88-.55-.74.72.96-.38-.85.58 1-.21-.94.42 1.05-.04-1.02.25 1.03.16-1.03.06.98.33-1.03-.12.89.5-.98-.29.8.65-.93-.48.68.8-.83-.64.53.9-.71-.77.36.97-.55-.88.18 1.03-.38-.97-.01 1.04-.21-1.02-.21 1.02v-1.04l-.39.97.17-1.03-.54.88.34-.97-.68.77.52-.9-.82.64.65-.8-.91.48.79-.65-.99.29.91-.5-1.02.12.98-.33-1.04-.06 1.03-.16-1.01-.25 1.03.04-.95-.42 1.02.21-.85-.58.96.38-.75-.72.87.55-.58-.84.76.7-.44-.93.63.82-.26-1 .46.93-.08-1.04.3 1z" clip-rule="evenodd" style="fill:#e2001a;fill-rule:evenodd" transform="translate(-801.3 -970.64)scale(3.14708)"/><path d="M-411.93-25.86s16.8-13.75 22.12-15.28c5.37-1.53 8.44-6.11 10.7-4.56 2.3 1.49 14.57 11.43 14.57 11.43l5.33-4.58s6.1-9.93 6.86-7.63c.77 2.27-2.3 8.41 0 9.18 2.3.74 4.6.74 5.33-1.55.81-2.3 4.65-9.17 4.65-6.08 0 3.01-.81 4.56 1.5 6.86 2.29 2.27.76-1.54 3.79-1.54 3.06 0 3.83 3.8 6.13 3.05 2.26-.74.77-3.05 3.03-3.05 2.34 0 13.76 11.48 13.76 11.48l-1.8 69.06h-96.03z" clip-rule="evenodd" style="fill:#50a026;fill-rule:evenodd" transform="translate(464.29 180.65)"/><path d="M-315.98-.58s-1.15-1.17-3.87-1.17-5.46-.78-8.53 0c-3.11.78-4.26 1.2-8.14.4-3.92-.78-8.95-.4-11.3.38-2.3.78-8.52 0-14.36 0s-24.08 0-34.56-.78-16.33-2.71-9.72-3.89c6.6-1.15 19.77-.38 26.04-.38 6.18 0 21.74 1.93 25.62 0 3.87-1.95 3.49-2.33 6.22-.77 2.73 1.55 5.03 3.49 7.38.77s3.49 0 6.6 0h3.11c4.26 0 5.8-.77 7.37-1.57 1.54-.76 3.88 5.06 6.61 3.5l2.7-1.55z" clip-rule="evenodd" style="fill:#e2b900;fill-rule:evenodd" transform="translate(464.29 180.65)"/><path d="M302.1 378.9h32.24v37.05H302.1z" clip-rule="evenodd" style="fill:#e2b900;fill-rule:evenodd" transform="translate(-801.3 -970.64)scale(3.14708)"/><path d="M-439.59-95.3h249.9v220.17s-3.1 39-49.7 50.47l-49.65.75s-12.23 0-19.86 11.47-6.9 8.4-6.9 8.4-3.03-11.45-8.4-11.45 1.53-6.89-25.96-8.42l-48.03-1.96s-42.16-13.33-42.16-52.33zm220.4 35.31h.44c.38 1.99-.18 5.23.2 7.5.4 2.09-.38 4.68 0 6.82.43 2.58.3 7 .18 10.09-.04 1.59-.21 4.13 0 5.54.38 2.06-.34 4.75-.17 6.43.21 2.14.21 3.4.17 5.97 0 .74-.26 1.5-.17 1.94.34 2.62.34 5.83 0 7.68v34.26c.55 4.02-.85 9.42 0 13.9.38 2.04.42 8.28 0 10.46-.21 1.18.13 1.9.17 2.57.21 1.7.13 4.52-.17 6.2.04.65.13 1.32.17 1.92V93.6c0 3.85.6 8.77-.17 12.2v6.2c-1.2 5.08-.72 10.32-2.35 14.77-2.04 5.53-5.45 11.11-9.84 14.3-5.46 3.99-10.61 5.46-18.42 7.3h-50c-2.9 0-6.09-.24-8.14.63a11 11 0 0 0-5.37 5.78c-.38 1.04-.04 2.75-.64 3.62-.04.23-.13.45-.17.66-2.82-.1-1.66-3.28-2.55-5.13a11.3 11.3 0 0 0-6.87-5.57h-3.2c-3.5-.77-9.63.17-14.57 0-8.48-.26-17.86-.21-26.68-.21-5.12 0-9.12.8-13.26-.22-8.9-2.17-16.5-5.24-21.18-11.55a38 38 0 0 1-5.76-11.33l-1.53-8.15c-.85-3.73.3-7.53-.43-11.53-.34-1.66.34-5.32 0-7.51-.17-1-.34-2.64-.21-3.4.08-.59.47-1.76.21-3-.38-1.93-.13-3.93 0-6.21V-36.87c0-7.65-.6-16.08.21-23.35h.22z" clip-rule="evenodd" style="fill:#004489;fill-rule:evenodd" transform="translate(464.29 180.65)"/><path d="M-401.95-86.76h-.8c-.05 1.48-.05 2.98-.22 4.09-.34.08-.51.13-1.07.18v-.84c-.42-.28-.38-.43-.85-.64-1.02-.94-2.43-.54-3.62-.2-.34.48-.72 1.42-1.1 1.92-.57-.58-.78-.34-.86-1.5-.21-.54-.04-1.53 0-2.8-.34-.1-.34-.12-.85-.2-.34 1.05-.26 2.9-.22 4.26.17.25.05.07.22.44.76.4 2.34.7 2.55 1.71-.8.58-1.79 2.2-2.34 3q-.07-.1-.21-.21c-.99-.78-1.16-2.28-2.56-2.54-.13.29-.18.33-.26.82.85.81 1.28 2.1 2.17 2.8-.64 1.02-2.68 3.63-2.17 4.89.21.65.13.6.64.84 1.02.84 1.96.29 3.03 0-.13 1.37-.22 2.37.25 3.45.34-.15.17-.03.38-.22.52-.86.39-2.9.86-3.85h.47c.38.62 1.44 1.47 2.09 1.09 1.02-.28 1.15-.85 2.13-1.09.3.54.42.62.46 1.5.3.49.22 2.02.43 2.57.35-.15.18-.03.43-.22.64-.87 0-2.42.42-3.23.86.7 2.14.4 2.99 0 .21-.5.38-.66.42-1.46a19 19 0 0 1-2.13-4.51c.94-.7 1.28-1.97 2.13-2.77v-.46c-.34-.09-.38-.1-.85-.15-.6.94-1.4 1.67-1.96 2.75h-.43c-.72-1.14-1.83-2.2-2.34-3.64 1.02-.4 2-.77 2.77-1.26zm12.02 0q.08.13.21.2c-.08 2.04-.3 3.64 1.07 4.31.34-1 .47-1.6 1.5-1.92.76-.59 1.48-.34 2.55-.24.72.72 1.24.94 1.5 2.16h.46c.17-.2.34-.32.6-.42 0-1.34-.09-3.08.21-4.09.47.09.55.11.85.2.13 4.14.3 4.5-2.77 5.57.34 1.72 1.66 2.4 2.13 3.65 1.07-.38 2.05-1.9 2.6-2.76h.39l.21.15c-.26 1.63-1.4 2.48-2.13 3.67.72.68 2.77 3.9 1.91 5.14-.2.5-.34.44-.63.87-1.07.01-2 .01-2.56-.47h-.22c.13.39.05.23.22.47a6 6 0 0 1-.43 2.98h-.39c-.38-1.09-.34-2.9-.68-3.85a4 4 0 0 1-.6-.22c-.42.62-1.02.8-1.53 1.3-1.53-.14-1.66-.9-2.77-1.3-.34.66-1.1 2.31-.42 3.22-.18.48-.26.47-.43.85h-.47c-.43-1.11-.3-1.98-.17-3.45-1.28.5-2.22.33-3.41 0-.51-2.5 1.02-3.93 1.92-5.73a6.7 6.7 0 0 1-1.92-3c-.22-.23-.09-.07-.26-.47q.13-.06.26-.15c1.2.21 2 1.83 2.56 2.75 1.23-.58 1.91-1.98 2.55-3.2q.08-.14.22-.22h-.22c-.34-.55-1.78-.83-2.38-1.06-.34-1.4-.47-3.88-.17-4.93zm28.86 16.27c1.02.1 2 .2 2.98 0q.26-.5.64-.87c-.34-1.68-1.28-3.9-2.34-4.92.5-.87 1.32-2.2 2.09-2.77v-.9h-.81c-.47.84-1.24 2.21-2.13 2.6-.81-1.18-2-1.92-2.4-3.64h.48c.89-.67 1.4-.6 2.34-1.5 0-1.46 0-3.12-.22-4.27h-.63c-.34 1-.22 2.74-.22 4.09-.46.22-.38.3-1.06.42-.13-.74-.26-.87-.43-1.51-1.06-.33-1.79-.65-3.45-.65-.51.51-.98.46-1.27 1.29-.18.25-.14.37-.22.87l-1.06-.24v-.41c-.47-.79-.13-2.97-.39-3.86-.38.13-.26.04-.42.2-.34.44-.3 1.41-.26 2.15-.34.66 0 1.66.26 2.59.8.32 2.3.42 2.55 1.48-.8.57-1.87 2.19-2.38 3h-.43c-.51-.91-1.28-2.4-2.35-2.76v.15l-.42.25a13 13 0 0 0 2.13 3.23c-.6 1.89-2 2.83-2.13 5.33.38.24.8.55 1.07.86 1.19.02 2-.13 2.77-.47v.47c-.52.8-.26 1.78-.22 2.76.34.13.38.16.9.23.08-.37.17-.66.17-1.3-.22-.46.04-2.2.64-2.55v-.23q.12.13.25.23c1.36.98 2.69 1.52 3.84-.23l.85.46c.13 1.32.21 2.49.43 3.62h.63q.08-.1.22-.23zm86.61-.65c.21-1.58 1.2-3.91 2.34-4.71a7 7 0 0 0-2.13-3.01v-.84l.6-.25c.63.95 1.57 1.7 1.96 2.8 1.79-.32 1.62-2 2.77-2.95-.13-.42.04-.7-.22-.89h-1.31l-1.24-1.07c-.05-1.44-.17-3.39.2-4.5h.65c.12.38.04.23.2.45-.04 1.52-.04 3.15.44 4.05 1.87-.6.38-2.15 4.47-2.12q.77.5 1.49 1.06v1.06c.47-.07.43-.04.65-.2h.42c.21-.88-.04-3.32.47-4.07v-.23c.47.17.47.24.85.45-.34 1.59.17 3.19-.43 4.05-.46 1.1-1.62.75-2.38 1.51a1 1 0 0 1-.22.2c1.02.99 1.32 2.4 2.6 3.2v.22a7 7 0 0 0 1.92-2.78c.55.04.72.09 1.06.23a8 8 0 0 1-2.13 3.2c.38 1.29 2.9 3.78 1.92 5.37-.04.16-.17.42-.21.63-.69.15-1.96.4-2.56 0h-.68c.17.37.04.23.25.4 0 1.25-.08 2.09-.46 2.79h-.43c-.34-1.07-.26-2.89-.64-3.82q-.31-.13-.64-.23c-.42.6-.98.79-1.53 1.27-1.11-.02-1.8-.39-2.26-1.04h-.68c-.17.8-.17 2.89-.64 3.62-.21.18-.05.08-.47.2-.43-.98-.3-1.9-.17-3.19-2.04.18-2.73.23-3.83-.86m33.96-5.14c.43 2.08 2.78 3.68 1.75 6-.93.23-1.91.64-2.81 0h-.43a14 14 0 0 1 0 2.99q-.07.1-.21.2c-.51-.07-.51-.07-.85-.2.17-1.04.34-2.22-.21-2.98-.09-.22-.13-.47-.22-.63a3.5 3.5 0 0 0-1.91 1.03c-1.37 0-1.84-.24-2.39-1.03-.43.08-.39.05-.6.16-.38.5-.64 1.96-.46 2.37 0 .62-.09.93-.18 1.28-.55-.07-.55-.07-.9-.2 0-.82-.07-2.1.26-2.58v-.4c-.89.08-2.26.47-3.02 0-2.3-1 .9-4.76 1.27-6-.8-.82-1.23-2.06-2.13-2.78v-.43c.09-.07.13-.15.21-.22 1.2.15 2.27 1.77 2.56 2.77h.22c.46-.65 2-2.77 2.6-3.17-.34-.93-1.8-1.13-2.6-1.52a4 4 0 0 0-.43-.87c-.04-1.52-.04-3.12.43-4.06h.46l.18.22c0 1.57-.09 3.34.46 4.28h.86c.04-.52.04-.61.2-.85.3-.85 2.05-1.89 3.16-1.08 1.12.12 1.07.42 1.75.86.09.37.13.7.22 1.06.68-.1.6-.2 1.06-.43-.04-1.26-.21-3.24.43-3.84a1 1 0 0 0 .2-.23c.18.17.3.31.48.45.08 4.58.3 3.62-2.4 5.34h-.42c.3 1.53 1.37 2.76 2.35 3.63q.14.09.2.21c.6-.9 1.59-1.67 1.93-2.77h.85c-.12 1.47-1.06 2.61-1.91 3.42m22.89-3.42h-.86q-.95 1.42-1.9 2.77l-.27-.21a5.7 5.7 0 0 1-2.3-3.4c2.86-1.39 2.9-1.2 2.77-5.57-.34-.1-.5-.2-1.06-.22v3.84c-.47.24-.39.32-1.07.43-.34-.88-.38-1.38-1.28-1.7-.8-.65-1.91-.33-3.02-.22-.34.48-.56.42-.86 1.08-.17.24-.17.33-.2.85h-.86c-.51-.94-.43-2.71-.43-4.28h-.42v-.22c-.09.05-.13.17-.21.22-.69.63-.47 2.77-.43 4.08.3.27.3.35.43.85q1.27.4 2.55.86v.44c-.64.41-2.09 2.49-2.55 3.17-.1-.09-.13-.14-.22-.21-.98-.8-1.02-2.24-2.6-2.56-.08.32-.08.37-.17.84a7.6 7.6 0 0 1 2.13 3.01c-1.19.94-2.13 3.07-2.13 5.11.39.23.39.3.86.47.85.63 1.83.16 2.98 0v.22c-.51.68-.51 2.12 0 2.76.2.16.2.13.68.2.09-.3.09-.35.17-.84-.55-.79.13-2.3.43-2.97h.43c.46.6 1.15.74 1.7 1.26 1.28-.3 1.58-1.04 2.77-1.26.13.05.18.12.26.16.13 1.34.33 2.12.2 3.45l.44.43a1 1 0 0 1 .2-.23c.4-.35.35-.3.44-1.05.25-.44 0-1.55-.22-2.13h.43c.98.66 2.1.22 2.99 0 .2-.66.33-.62.42-1.51-.26-.3-2.22-4.2-2.13-4.5.29-1.25 1.7-1.68 1.9-3.42" clip-rule="evenodd" style="fill:#e2b900;fill-rule:evenodd" transform="translate(464.29 180.65)"/><path d="M-433.1-18.5c.38-.34.97-.23 1.23-.66 1.2-1.66 1.36-4.05 2.17-5.99.9-2.2 1.66-4.72 2.77-7.06.3-.64 1.11-1.85 1.28-2.56.21-.97-1.75-4.46-2.13-5.35-1.57-3.76-2.52-7.4-4.09-11.15-.6-1.4-1.66-2.94-1.92-4.68-.56.2-.56.22-.85.63h-.22V-60c1.5.52 2.18 2.15 3.41 3-.3.5-.46.41-1.27.41 1.7 3.48 2.72 7.23 4.3 10.92.8 1.94 2.35 4.28 2.56 6.63h.21v-18.61c-.34.13-.21.04-.43.21h-.42a9 9 0 0 1 1.45-4.06v-.22c.98.47 1.87 3.02 1.96 4.28-.64-.14-.51-.03-.85-.42h-.22v18.82c.81-1.02.94-2.56 1.5-3.86 1.23-2.88 2.64-6.06 3.87-8.98.6-1.42.77-3.17 1.7-4.27v-.23c-.46.11-.42.07-.67.23h-.43c.34-1.66 2-2.38 2.82-3.65h.42v.23c.21.31.13 2.78 0 2.98v1.51c-.25-.23-.42-.45-.64-.65-1.28.73-2.72 6.43-3.45 8.13-1.23 2.92-2.3 6.1-3.62 9.2-.39.82-1.28 2.08-1.5 2.99-.2.98 1.75 4.46 2.13 5.36 1.5 3.54 2.14 7.08 3.84 10.48.38.74 1.1.56 1.75 1.08.46.37 1.57 3.61 1.7 4.48-.98-.14-1.36-.45-2.13-.66-.3.64-.47 1.3-.9 1.74q-.07.1-.2.2c-.52-1.14-1.41-2.72-1.71-3.84-.35-1.2.76-1.39.42-2.58-.98-3.77-4.22-7.87-4.68-11.97-.69 1.07-.22 4.05-.22 5.58v8.1c.39.3.73.55 1.07.87v4.94c-.85-.23-1.1-.67-1.54-1.3-.8.17-1.27.67-1.66 1.3h-.42v-4.94c.34-.32.72-.57 1.06-.87v-13.68c-1.06 1.29-1.24 3.47-1.92 5.12-.47 1.04-3.28 6.78-3.24 7.51.26.63.43 1.27.64 1.92-.25 1.28-1.36 2.61-1.7 4.05h-.17a6 6 0 0 1-.9-1.93c-.94.17-1.15.5-2.13.67.17-1.42.98-4.04 1.96-4.7" clip-rule="evenodd" style="fill:#bcc0c3;fill-rule:evenodd" transform="translate(464.29 180.65)"/><path d="M-357.7-1.19c.12 3.73-.35 4.75-1.24 8.14-.39 1.36.46 2.15 0 3.4-.17.51-.86 1.04-1.07 1.53-.6 1.36-.04 2.75-1.28 3.4-.98.55-1.62-.54-2.6-.23-.38.18-1.44 1.11-1.91 1.29-1.07.46-2.3-.6-2.77-.2q-.83.88-1.66 1.71c-1.24-.06-1.58-.53-2.18-.64-.55-.1-1.1.57-1.49.64-.17.04-.76-.4-.9-.42-.34-.07-2.98.95-3.2 1.28-.89 1.03-.33 4.37-.16 5.76l-.26 8.78c.56 2.2 1.32 3.81 2.17 5.56h-8.78v-.21c1.62-1.09 1.45-3.26 1.71-5.77.04-.38-.09-2.31-.22-3-.55-3.75.05-8.28-.2-11.76q-.22-.21-.43-.45c-1.2.6-2.77.53-3.63-.41q-.13-.32-.21-.65c-.38-.18-1.62.45-2.39.22-.17-.06-.47-.31-.8-.44-.22-.62-.31-.54-.44-1.3-.64-.05-1.32-.12-1.96-.2v.66c-.9.6-1.27.85-2.98.84-.21-.33-.64-.33-.85-.63-.26-.79-.43-1.56-.64-2.34h-1.07c-.42.36-1.57.58-2.13.2-.68-.2-.93-.53-1.28-1.06-1.02-1.4.39-3.64-.85-5.56-.68-.51-1.06-.22-1.32-1.3a25 25 0 0 0 1.06-4.05c-.12-.65-.46-.66-.38-1.53 1.07-.22 1.28-.53 1.28-1.9-.21-.22-.09-.06-.21-.44-1.24-.42-3.37-.25-4.95-.2-.34-1.04-.21-2.9-.21-4.28 1.5-.6 2.47-1.25 4.47-1.28v-1.29c1.03-.8 1.03-2.58 2.6-2.8.47.74 1.11 1.32 1.7 1.95l.65-.22c-.05-.9-.13-1.37.42-1.72.26-.16.99-.3 1.28-.42-1.24-1.13-2.51-1-2.81-3.2.76-.96 2.94-4.35 3.92-4.73.47-.31.9-.1 1.45 0 .13.38.04.22.21.44-.17.72-.34.83-.43 1.7 2.4-.07 2.6-1.5 4.74-1.92 1.36 1.75 3.91-1.15 6.18-1.27.43.36.8.54 1.49.65.21-.94.6-1.61 1.7-1.72.47 1.02.4 1.88 1.92 1.95 2.47 1.59 4.1-2.04 5.58-2.39 1.75 1.89 3.8 2.56 7.46 2.56.21.41.39 1.52.69 1.96.5.44 1.31.4 1.87.84 1.45 1.02 1.96 3.75 1.96 6.2.47-.06 1.02-.14 1.45-.18.26.4.34.36.47 1.02-.39.55 0 2.14.43 3.22.6-.35.93-.82 1.49-.63z" clip-rule="evenodd" style="fill:#007a25;fill-rule:evenodd" transform="translate(464.29 180.65)"/><path d="M-389.72-16.82q-.77.76-1.49 1.52c-.08 2.32.73 3.25 2.99 3.19.3-.24.34-.28.85-.42.51-.87.85-1.24.85-2.77a42 42 0 0 1-1.5-1.52zm14.92 0c-.85.92-1.45 1.08-1.45 3.04.26.26.3.37.43.84.9.52 1.28.82 2.77.83.98-1.04 1.54-1.2 1.5-3.41-.52-.43-1.03-.83-1.5-1.3zm-4.05 3.21c.04 1.71-.25 2.1-.85 3-.68.17-1.2.55-1.7.23-2.6-.16-2.1-2.37-1.45-4.07.5-.22 1.1-.43 1.66-.64 1.15.43 1.53.88 2.34 1.48" clip-rule="evenodd" style="fill:#ec7206;fill-rule:evenodd" transform="translate(464.29 180.65)"/><path d="M-207.97-12.74c-1.96 2.03-.17 1.17-.42 2.77-.09.38-.64.65-.64 1.94.8.48 1.06.74 1.06 2.13-1.28 2.23-.3 9.51-1.06 13.04-.77 3.4-.9 7.76-.9 10.48.08 5.14-1.28 9.51-1.28 15-1.32.3-1.91 1.06-1.91 2.78a6 6 0 0 1 1.53 1.69c-2.43 2.33-.56 7.38 1.45 8.57.94.54 2.17.5 3.03 1.09-.35.5-.09.9 0 1.48l1.27 1.08c1.07.06 1.8.32 2.6-.22.68-.23 1.07-.49 1.28-1.31.25-.44.13-.8 0-1.27 2.69-.12 6.39-3.22 5.71-6.42-.21-1.22-.9-2.35-1.24-3.43 1.2-.34 1.54-1.09 1.45-2.76-1.28-.87-1.96-1.29-1.92-3.65-.89-1.54-.12-5.17-.59-7.26-1.28-5.78-1.28-13.9-1.96-20.54-.17-1.73-1.06-8.94-.64-9.63 1.92-1.6.94-.95.64-2.79-.08-.49.42-1.02.42-1.9-.2-.28-.55-.56-.85-.87z" clip-rule="evenodd" style="fill:#bcc0c3;fill-rule:evenodd" transform="translate(464.29 180.65)"/><path d="M-369-11.64c-.86.8-1.5 1-1.7 2.52.5.76.33 1.37 1.27 1.72.47.46 1.15.46 2.13.45.73-.93 1.32-1.18 1.5-2.78-.39-.48-.69-1.06-1.07-1.51a5 5 0 0 0-2.13-.4m-17.95 1.25c-.2.14-.68.3-.85.42-.68.24-.85.42-1.07 1.08-.3.4-.21 1.22-.21 1.94.77.59.77 1.14 2.13 1.27.17.07.6.04 1.28 0 .34-.48.85-1.08 1.32-1.5v-1.29c-.98-1.08-1.02-1.36-2.6-1.92m10.49.66c.8.24 1.92 1.37 1.28 2.33-.17 1.53-.86 1.47-1.7 2.15-1.46-.06-1.76-.53-2.57-1.08-.13-.57-.38-1.23-.25-1.49.12-1.07.42-1.23.85-1.91.47-.12.8-.2 1.1-.44.6.07.9.14 1.29.44m-15.6 2.13c.13.7.6 1.3.21 1.92-.17 1.4-.72 1.29-1.53 1.91-.94.02-1.45 0-1.92-.4-.55-.26-.6-.57-1.06-.89-.05-2.2.47-2.37 1.49-3.4 1.53 0 1.91.33 2.8.86m25.84 1.27-1.5 1.52c0 1.2.22 1.73.43 2.55.86.4 1.28.65 2.6.66.43-.47.98-.87 1.5-1.31.04-1.07.04-1.07 0-2.14a8 8 0 0 1-1.5-1.28zm-4.27.86c1.07.34 1.93 2.18.9 3.2-.3.61-.68.67-1.1 1.08-.9.08-1.5.15-2.1-.41-.63-.29-.72-.66-1.1-1.09-.05-1.48.16-2.4 1.28-2.78.17-.14.63-.28.85-.43.6.09.9.15 1.28.43m-10.49 1.08c.56.55.98 1.1 1.54 1.7-.05.83-.13 1.27-.43 1.72-.34.82-.77.77-1.32 1.27-1.57-.02-1.88-.47-2.73-1.05-.17-.36-.08-.21-.25-.43-.05-2.18.42-2.24 1.53-3.2zm-9.21 1.7c-.21.16-.34.16-.85.22-1.79 2.46-1.58 4.8 2.39 4.5.6-.93 1.15-1.27 1.27-2.79-.72-.8-.68-1.55-2.17-1.71-.17-.15-.17-.14-.64-.22m13.05 1.5c-.21.15-.21.14-.6.22-.25.27-.42.59-.68.85-1.24 1.53.3 2.84 1.07 3.64 2.08.06 2.25-.56 3.2-1.48.08-2.11-.52-2.24-1.5-3.22zm8.14.86c-.21.16-.34.16-.86.21-1.28 1.8-2.17 4.54 1.5 4.7.3-.23.64-.33 1.06-.42.6-.92.9-1.3.9-2.98-.9-.67-1.15-1.33-2.6-1.51m-14.54 1.93c.81.32.77.9 1.28 1.49 0 1.77-1.87 4.04-3.62 2.35-.64-.25-.6-.48-1.07-.85-.04-1.97.3-2.2 1.07-3.2.42-.1.38-.07.64-.2.9 0 1.24.01 1.7.4m-12.19.21c-.55.52-.98.48-1.28 1.29-.34.44-.42.88-.42 1.7.51.62.98 1.16 1.53 1.72q1.34.01 2.3-.2c.47-.63 1.24-1.57.9-2.36-.17-.98-.43-1.31-1.07-1.71-.51-.39-1.06-.44-1.96-.44" clip-rule="evenodd" style="fill:#ec7206;fill-rule:evenodd" transform="translate(464.29 180.65)"/><path d="M-421.81-6.75v1.28h-.85v7.5c-1.37 4.78-5.76 7.67-8.14 11.55-1.75 2.84-2.18 6.5-2.99 10.25-.46 2.03.09 4.98.47 6.42 1.06 4.57 1.53 7.32 3.8 10.47 1.06 1.48 2.85 2.6 3.87 4.06.9 1.27 1.2 2.47 1.92 3.9.21.39.98 1.19 1.07 1.68.04.14-.17 1.03-.17 1.5-.05 2.34.04 3.68 0 5.58l.17.21h.64c-.05.82-.09.56 0 1.3h1.27a1 1 0 0 0 .22-.25v-1.05h.85c.08-2.43-.3-4.07.21-6.83a2.3 2.3 0 0 0-1.06-.24V1.6h1.06v-6.85c-.3-.11-.5-.2-1.06-.22v-1.28zm-.22 10.06v45.13h-.2v-.21c-.86-1-1.16-2.35-1.93-3.45-1.66-2.35-4-4.28-5.54-6.84-3.24-5.25-3.53-15.7-.85-21.8 2.05-4.84 7.07-7.58 8.52-12.83" clip-rule="evenodd" style="fill:#bcc0c3;fill-rule:evenodd" transform="translate(464.29 180.65)"/><path d="M-385.03 12.3v.85c-1.28-.43-1.96-1.49-2.98-2.16-1.11-.7-2.43-.9-3.41-1.7q-1.08 0-1.7.2c.3 1.4 1.91 1.48 2.93 2.17 1.8 1.12 3.33 3.41 5.16 4.29-.04.19-.17.39-.21.61-2.18.03-1.45-.63-2.13-1.9-.17-.35-1.07.71-1.28 1.05-1.45-.25-2.05-1.94-2.13-3.41-.6.38-.77.82-1.5 1.07-.25.17-.08.06-.42.2-.34-.53-.55-.69-.68-1.5-.6.25-.39.01-.64.64-.77-.13-.68-.17-1.07-.64h-.21c.17.58.34.93.64 1.3v1.68c-.6.13-.6.28-1.07 0-1.7-.36-.33-1.95-1.06-3.39-.6 1.05-1.62-.37-1.7-.87-.94.5-.69 1.35-1.92 1.72-.22.16-.09.07-.43.2a4 4 0 0 0-1.1-.65 3.8 3.8 0 0 1 1.74-3.2c-.34-.51-.64-.35-1.07-.64-.9-.54-.5-2.12-1.28-2.79 0-.53 0-.76.17-1.06.98.2 1.84 2.43 3.03 3 1.54.74 2.56.18 3.84 1.28 1.44-.15 1.91-.72 2.98-1.07.64-.19 1.15.62 1.96.85 1.2.35 2.05-.3 2.99-.44.16 1.73 1.57 3.3 2.55 4.3" clip-rule="evenodd" style="fill:#003e12;fill-rule:evenodd" transform="translate(464.29 180.65)"/><path d="M-374.97 6.95h.17c-.55.74-2.34 2.4-1.66 3.63 0 1.96-.51 1.9-1.07 3-.2.08-.46.15-.64.2l-.47-.41c-.46-2-1.06-4.26.47-5.78.39-.26 1.32-.18 1.45-.22.9-.08.94-.09 1.32-.63.35.12.22.03.43.2" clip-rule="evenodd" style="fill:#004b17;fill-rule:evenodd" transform="translate(464.29 180.65)"/><path d="M-383.92 8.66c.6-.61 1.16-.7 1.45-1.7q1.1.28 2.13.63c-.21.85-.81 1.43-1.07 2.14-.46 1.46.7 3.51.43 3.85-.17.08-.6.02-1.28 0-1.02-1.04-2.9-3.29-3.2-4.92zm15.82.21c-2.4-.04-2.95-1.06-5.8-1.08-.04.2-.17.44-.26.64-.77.92-.38 2.08-.17 3.45 2.26 0 2.64-1 4.47-1.3.05.2.17.41.26.66.13.22.13.33.17.83-2.56 1.38-6.69 1.4-7.29 4.71h.26c.43-.44.8-.83 1.28-1.28.55.35.72.57 1.66.64l.9-1.93c.46.78.93 1.4 2.13 1.5.25-.52.55-1.6 1.06-1.94.43.48 1.5 1.11 1.92.9.47-.42.47-1.32.64-1.95.55.56.47.97 1.28 1.26 1.06-.8 2.55-.42 3.87-.61.56-1.05 1.32-2.25 1.5-3.65-.43-.23-1.2-.49-1.5-.85.86-.27 1.11-.73 1.28-1.73h-.42c-.72.83-1.75.64-3.03.45v.4c.39.57.17 1.36 0 1.95-.9.64-1.02 1.05-2.77 1.05-.55-.48-.94-.43-1.28-1.27-.12-.25-.12-.36-.17-.85" clip-rule="evenodd" style="fill:#003e12;fill-rule:evenodd" transform="translate(464.29 180.65)"/><path d="M-434.22 62.34c-.04 1.39-.13 3.26.22 4.29.3-.25.55-.42.9-.62.25 2.1 1.53 4.18 2.3 5.97 1.27 2.97 1.95 5.76 3.23 8.77.38.96 2.05 3.13 1.7 4.49-.72 2.77-2.72 6.3-3.83 8.97-.68 1.57-.77 3.62-1.75 4.93l-1.28.64c-.8.78-1.4 2.89-1.66 4.07.04.09.13.13.17.21.68-.34.98-.57 1.92-.64.17.73.25 1.19.85 1.49v-.2c.64-.7 1.87-2.88 1.5-4.3-.05-.26-.48-.34-.43-.85.08-.6.85-1.6 1.06-2.13 1.2-2.79 2.52-5.65 3.24-8.56h.21v11.79c-1.1.71-1.06 3.82-.85 5.1h.64c.21-.75.43-.9 1.28-1.04.25.67.6.84 1.28 1.04v-4.47c-1.15-.82-.56-1.66-.86-3.43-.34-2.23.22-6.68-.25-9.19h.47c.46 3.64 3.1 6.88 4.09 10.27.3 1.13-.64 1.45-.47 2.35.26 1 1.24 2.65 1.75 3.62a.5.5 0 0 1 .21-.2c.43-.54.39-1.16 1.07-1.53.42.43 1.1.63 1.45.46h.25c-.56-1.29-1.02-2.57-1.53-3.86l-1.45-.85c-1.32-1.87-2.22-6.22-3.24-8.54-.64-1.52-2.13-3.67-2.35-5.37-.17-1.1 1.92-4.57 2.35-5.54 2-4.46 3.1-8.99 5.15-13.27.47.36.3.4.65.41.5-.79.2-3.08.17-4.28h-.4a12 12 0 0 1-2.8 2.99q.17.14.2.2c.65.47.52-.2.86.47-.81 1.05-.9 2.5-1.5 3.84-1.06 2.52-2.34 5.35-3.4 7.9-.51 1.2-.55 2.5-1.28 3.44v-16.7c.51.07.51.1.85.23v-.87c-.63-.89-.68-2.68-1.7-3.21-.34 1.1-1.62 3.04-1.28 3.86v.22q.4-.14.85-.22c-.3 1.72.43 2.89 0 5.12-.5 2.79-.04 7.22 0 11.57h-.21v-.44c-1.11-1.25-1.24-3.29-1.92-4.93-1.24-2.9-3.75-7.08-4.09-10.48.51.09.34.16.85 0-.04-.05-.13-.13-.17-.2-.47-1.2-1.75-1.8-2.38-2.8z" clip-rule="evenodd" style="fill:#bcc0c3;fill-rule:evenodd" transform="translate(464.29 180.65)"/><path d="M-213.77 112.2c-.08 1.8-.72 2.93-.8 4.7 1.96-.06.93-.6 2.3-1.07l3.02.22c1.53.4 8.06 1.4 9 2.14-2.35-.03-4.91.1-6.87.2-2.9.18-6.31-.34-8.57.43-.04 2.03-1.02 3.13-1.5 4.71h1.71c.56-.73 2.6-1.83 4.26-1.28 2.6.85 6.32 3.58 8.79 4.92 1.44.8 3.28.9 3.66 2.77-.3.34-.17.12 0 .44q.33.32.6.63c.43-.14.2-.04.46-.2.73-.83 1.66-2.9 1.92-4.06l-.68-.23c-.17-.16-.13-.15-.6-.22-.3.3-.55.6-.9.87-3.23-1.05-4.9-2.05-7.45-3.43-1.24-.64-3.24-.92-3.84-2.13q.08-.1.22-.21a92 92 0 0 0 11.33-1.93c1.45-.34 3.2.12 4.26-.65h.22v-1.5a136 136 0 0 1-18.37-3.22c-.26-.42-.69-1.44-1.11-1.68-.25-.2-.5-.2-1.06-.23m-214.86 23.5c-1.62-.23-1.24-1.5-1.75-2.76-.69-1.7-2.17-6.49-3.2-7.7.21-.7-.13-.33.47-.64.51-.21.9.29 1.24.86 2.6-.12 4.47-1.31 6.43-2.15 3.24-1.32 6.52-2.06 9.38-3.64.17-.42.21-1.38.25-1.49a1 1 0 0 1 .21-.43c1.37.33 1.2 1.77 1.71 2.98.8 2.01 1.57 5.45 2.98 7.11-.25 1.79-3.75 1.77-4.9 2.75-.51-.06-.6-.06-.9-.21h-.17c.39-1.05 1.07-.93 1.92-1.51.64-.48.94-1.32 1.45-1.92.05-1.3-.04-2.3-.64-3a4 4 0 0 1-.17-.64c-1.7.1-5.58 1.5-6.65 2.37h-.42c.17.73.25.64.42 1.27 1.07.27 2.35.78 3.46 0 .76.05.72-.11 1.06.42a.5.5 0 0 0 .22.21c-2.18 1.07-7.21 3.34-9.64 3.65.17-1.17 2.39-2.48 3.2-3.21 0-.62 0-1.19-.17-1.5-.51-.3-6.31 2.1-7.33 2.56v1.5c2.09 2.23 2.09 2.9 6.65 2.79l.21.22v.83c-1.44.1-4.3.52-5.32 1.29m215.5-8.11c-1.32.93-2.86 1.06-3.62 2.57-1.11 2.18.13 4.78 1.06 6.22 2.18 3.24 8.4 8.67 13.26 5.13 2.05-1.47 1.84-5.05.69-7.27a13 13 0 0 0-11.39-6.65m-2.34 2.79c-.05 4.04 4.9 6.93 7.5 8.56 1.02.66 3.11 2.48 4.73 1.29.51-.21.43-.3.81-.66-.25-4.38-7.54-9.3-11.72-10.07-.38.32-.94.63-1.32.88m-193.73 3.22c.86.83 2 1.38 2.56 2.56.38.8.21 1.48.68 2.14.34.55.85.27 1.24.85.09.07.13.14.21.22-1.4.85-3.7 2.1-4.69 3.42-.68-.17-.34.12-.64-.43-.46-1.32 3.58-3.59 1.71-5.98-.21-.67-.47-.6-.85-1.07-1.66.01-2.13.52-3.2 1.07-.77 3.87.08 8.92-2.56 10.88-3.83 2.9-9.33 1.56-9.63-3.83-.76-.26-1.06-.1-1.7-.45v-.41c1.36-.7 4.64-2.73 5.54-3.87h.47c.04.1.08.15.17.24-.47 1.97-4.1 3.85-2.56 6.83.26.51 1.06.85 1.49 1.28 1.58-.08 2.22-.64 3.2-1.28.68-2.62.04-7.43 1.7-9.82 1.24-1.71 3.37-1.45 5.16-2.58q.82.1 1.7.23m190.96 9.19c1.1 1.66 2.9 2.85 4.26 4.26.6.6.77 1.26 1.53 1.7l-.25.67c-1.15-.28-2.51-2.33-4.05-1.28q-.32.1-.64.23v.39c1.4 1.5 2.86 3.02 4.26 4.5 1.4-.11 2.26-1 2.56-2.16.77-.94.17-3.67-.64-4.48.09-.43.05-.43.22-.64v-.21c1.65.58 2.3 2.9 3.45 4.07-.34 1.64-6.4 6.98-7.93 7.92-.09.08-.13.17-.22.19l-.2-.4c-.22-.48 0-.73.42-1.07-.3-1.8-1.92-2.77-2.98-3.84-1.2-1.22-2.22-2.69-3.41-3.88-1.11-1.02-2.52-2-3.46-3.2-.72.08-.68.04-1.02.43-.5-.05-.63-.05-.9-.22h-.2c.89-2.45 6.1-5.32 7.71-7.7 1.83.37 2.51 2.46 3.84 3.44v.64a8 8 0 0 1-3.2-1.5c-1.92.16-2.43 1.16-3.66 1.92.42 2.22 2.98 3.27 4.09 4.9 2.3-.84 0-3.12-.21-4.68zm-175.53 5.11c-.68 1.92-2.47 3.07-3.45 4.74h-.47q-.05-.14-.17-.21c.3-1.94 2.43-4.3.17-5.8l-.17-.22c-1.91 3.16-4.64 5.8-6.86 8.79-1.02 1.4-2.51 2.24-2.99 4.26q.43.46.86.85c-.13.51-.09.39-.43.69-.43.33-4.65-3.52-5.54-4.1.17-.47.21-.47.42-.86.47.13.6.16.86.43 2.08-.13 2.68-1.91 3.62-3.22 2.26-2.98 5.33-5.52 7.29-8.76l.21-.2c-2.86-1.67-3.37.29-5.37 1.06-.21.17-.04.08-.43.2q-.07-.09-.21-.2c.38-1.84 2.3-3.03 3.2-4.5 2.6.45 6.95 5.6 9.46 7.05m164.19 18c2.81-.17 5.62-2.05 7.93-3 1.2-.54 2.3-.29 2.77-1.5q-.77-2.66-1.5-5.35c-.25.06-.42.13-.63.2-.39 2.95.2 6.5-4.31 6.43-1.1-4.59-4.56-8.45-4.9-13.5.55-.3 1.02-.6 1.28-1.28h-.22c-.34-.53.09-.25-.63-.42-1.32.98-5.37 1.28-5.8 3 .13.07.17.13.25.21q1.02-.02 1.71.2c1.4 3.1 2.38 6.48 3.84 9.64.38.89 1.45 2.77 1.06 3.66-.21.62-.3.53-.85.84zm-130.43-15.41c-.68.45-1.66.4-2.34.85-1.66 1.02-2.99 3.4-3.63 5.35-1.79 5.18 1.63 15.14 7.9 13.69 9.11-2.09 9.28-20.13-1.93-19.9m.39 1.3q.9.06 1.75.19c.68.91 1.53 1.79 1.91 3 1.16 3.46.73 12.76-1.91 13.67-.81.62-.98.3-2.14.23-.46-.66-1.19-1.17-1.49-1.91-1.36-3.16-1.23-11.73.43-14.12.46-.38 1.02-.72 1.45-1.06m-23.5-1.3a3 3 0 0 0-.2 1.06c.98.24 1.15.54 1.7 1.1 0 2.59-.04 5.66-.64 8.35-.55 2.56.73 5.07-.6 6.82-.76.6-1.36.13-1.49 1.5h.43c.85.55 2.6-.05 3.8.2 7.7 1.58 13.38-4.81 11.12-12.62-1.58-5.63-6.95-6.48-14.11-6.41m5.98 1.72c1.02 0 1.36.21 2.17.43 2.56 3.66 4.01 15.82-3.2 15.82-.08-.09-.16-.13-.25-.21-.55-4.66.3-11.22.9-15.82.33-.18.16-.07.38-.22m88.31.22v.83c-.47.04-.6.04-.81.21h-.47c-.43 2.3-.68 12.66.47 13.92.21.64.47.58.81 1.07.51-.07.64-.07.86-.21 3.32-.34 2.38-6.27 2.38-9.85 0-1.22.3-3.5-.25-4.29-.26-.66-.51-.7-1.24-.85 0-.55.08-.75.17-1.05 1.15-.08 3.24-.32 3.67.44h.2c-.25.65-.59.83-1.27 1.06-.17 4.25.85 11.15-2.13 15.82-1.11.3-3.24.85-4.3 0-3.24-1.15-2.57-6.91-2.57-11.34 0-1.53.26-3.59-.42-4.48-.04-.15-.17-.3-.21-.45h-.68v-1.05c1.83-.04 4.39-.3 5.8.22m8.14 0a.5.5 0 0 1 .21-.22c1.03 0 3.08.09 3.46 0 1.88-.04 4.65-.32 6.18.22.04 1.36.39 4.17-.22 5.11-.2.17-.2.15-.63.22-.13-.94-.34-2.4-.85-2.99-.26-.66-.52-.6-.86-1.06-.9-.09-1.74-.43-2.38 0h-.43v6.4c.43-.06.9-.14 1.28-.22.42-.83.55-2.35 1.1-3.2.22-.17.18-.13.65-.21.04 3.28.08 5.63 0 8.74h-.65c-.55-1.8-.25-3.52-2.38-3.82 0 2.2-.34 5.54.43 7.06 2.21 0 2.64-.69 3.87-1.5l.85-2.77c.48.04.6.04.86.2.21.36-.17 4.02-.64 4.7v.43c-3.58.09-5.54-.04-9.85 0 .13-1.17.43-.98 1.28-1.27.6-3.08.77-12.15-.21-14.78l-1.07-.21zm18.84 0c-2.34-.3-4.73-.13-6.82-.22-.17.3-.2.5-.25 1.05 1.87.62 1.66 2.28 2.34 4.05 1.11 3 2.26 6.29 3.41 9.19.55 1.4.26 3.39 1.92 3.67v-.43c.6-.73.55-1.83.9-2.77 1.19-3.29 1.91-6.87 3.2-10.28.2-.66.42-1.88.84-2.58.51-.85 1.24-.38 1.5-1.68-.09-.09-.13-.18-.21-.22-1.2.3-2.82-.08-4.48.22v.83a4 4 0 0 1 1.5.45c.2.32.2.85.2 1.5-.94 2.74-1.87 5.56-2.77 8.35v-.43c-.8-1.07-2.9-7.67-3.02-9.42.08-.09.12-.15.25-.24.55 0 .98 0 1.24-.21h.26zm-71.22.82v.86h.64l.21.45c.43.5.68 2.09.43 3.2-.22 1.08.3 4.85-.22 7.27h-.42c-.21.14-.21.14-.64.2.08.46.04.42.21.67.98.6 3.92.24 5.37.22.51-.3 1.8-.05 2.98-.43.13-1.2.3-2.43.39-3.67l-.17-.21h-.47a11 11 0 0 1-2.13 3.02l-2.1.2q-.12-.1-.2-.2v-4.73h.8c.48.86.73 1.71 1.07 2.8.39-.15.26-.07.43-.21.68-1 .43-5.35 0-6.42-.34.12-.17.04-.43.2-.42.65-.68 1.71-1.06 2.35h-.81v-4.47c3.1-.11 2.94.89 3.83 2.96.39-.13.17-.03.39-.2.2-.3.2-.68.2-1.27-.29-.52-.2-1.75-.2-2.58zm35.5 0h-5.32c-.18.37-.22.69-.26 1.3 1.24.39 1.88.47 1.96 2.14.56.85.34 9.6 0 10.7h-.47c-.8-1.11-7.7-7.14-8.95-7.29-.34-.15-.04-.05-.64 0-.68 1.47-1.75 2.34-2.6 3.66.72 0 1.23-.12 1.75.2.76 1.21.2 5.12.2 6.84v6.02c-.59 2.47-1.9 2.83-1.95 6.18h.47c.98-1.6 4.9-4.3 5.11-5.57-.72-.27-1.4-.49-1.7-1.28-.99-1.49-.47-8.37-.47-10.93h.25c1.28 1.96 5.67 4.92 7.67 6.46 1.03.74 1.03 1.6 2.82 1.68.38-1.28.17-3.5.17-5.11V156.9c.21-.3.21-.7.21-1.27.6-.4 1.11-.75 1.75-1.07zm48.72-1.27c-.85.53-2.17.32-2.98.87-2.3 1.5-3.07 4.84-3.58 7.46-.98 4.57 3.36 11.26 8.3 9.85 3.97-1.1 7-7.23 4.91-12.85-1.1-3.05-3.02-4.67-6.65-5.33m-.38 1.27c.98.05 1.2.22 1.87.46q.7 1.03 1.33 2.13c1.06 2.81 1.02 11.5-1.07 12.8-.51.33-1.53.24-2.34.24-2.9-4.37-2.56-9.25-1.11-14.77.43-.2.98-.51 1.32-.86m-93.69 12.86c5.97.17 8.57-.51 9.64-5.11a7 7 0 0 0-.22-2.6c-.94-3.67-2-5.17-6.6-5.15-.94 0-2.35.07-2.6.22-.13.23-.13.23-.22.64 1.75.78 1.16 8.16 1.11 10.92l-1.1.4zm3.88-1.08c-.17-1.99 0-3.18-.25-4.93l.25-1.28c-.25-1.2-.25-3.26 0-4.47h1.03c.25.15.08.04.47.2 1.1 1.84 2.98 9.1-.22 10.28-.3.2-.72.2-1.28.2m-59.24-4.27c1.79-2.45 3.36-4.84 5.15-7.29 1.15-1.64 2.9-3.03 3.8-4.88.6.02.77.04 1.1.17l-.25 18.63c.26.69.77.62.9 1.7-2.77-.2-4.56-1.61-7.08-2.12.04-.52.04-.64.21-.86.43-.25.9-.04 1.75 0 .08-.47.17-.8.42-1.08 0-.9.13-2.42-.25-3.01q-1.8-.72-3.63-1.5c-1.28.3-1.57 1.75-2.34 2.6.04 1.2.3 1.28 1.06 1.7v.86c-1.83-.2-2.77-1.07-4.52-1.3.18-.93 2.95-2.62 3.68-3.62m5.75-.23h.26c-.05-.8-.13-1.88.2-2.35v-3.62c-1.52 1.02-2.04 3.15-3.44 4.26v.64c1.06.17 2.38.49 2.98 1.07" clip-rule="evenodd" style="fill:#e2b900;fill-rule:evenodd" transform="translate(464.29 180.65)"/><path d="M-453.01 188.59c-2.43 4.5 1.15 7.37.21 11.5-.55 2.31-3.37 4.83-2.6 7.73 1.79 6.56 10.83 5.4 16.28 8.35 2.1 1.11 3.67 3.63 6.18 4.05v-.42c-.8-1-1.15-2.4-1.92-3.44-1.31-1.86-4.22-3.77-6.39-4.7-1.53-.65-4.99-.63-5.37-2.35 4.43-2.26 10.61-3.52 13.5-7.27-.2-.07-.46-.15-.67-.24-1.07-.8-2.6-.55-4.06-1.07a15 15 0 0 1-3.61-1.91c-4.73-3.37-2.69-10.23-11.55-10.23m257.83 13.87v.67c2.34.72 4.17 3.03 6.48 4.03 1.66.74 5.03 1.32 6.39 2.36.17.26.17.34.17.86-1.4.72-3.32.85-4.86 1.49-3.75 1.57-7.97 4.54-9.04 8.8h.47a25 25 0 0 1 8.74-5.37c3.45-1.15 6.86-.87 9.68-2.58 1.74-1.11 2.42-2.58 3.79-4.05.04-4.95-2.05-4.99-2.52-8.57-.21-1.35.64-3.58 1.02-4.9.51-1.76.09-3.89-.17-5.36h-1.07c-2.38-1.47-4.93 1-6.05 2.16-1.36 1.49-1.74 3.84-2.94 5.56-1.95 2.77-5.96 4.3-10.1 4.9" clip-rule="evenodd" style="fill:#fff;fill-rule:evenodd" transform="translate(464.29 180.65)"/><path d="M-426.07 209.95c.42 1.06.3 2.32.85 3.2-.3 1.28-1.58 1.06-2.35 1.73-1.45-.45-1.62-3.52-2.39-4.72-1.23-2.04-3.23-2.85-4.9-4.48-.17-.2-.04-.06-.21-.44 1.02-.5 2.22-1.24 2.77-2.11 2.86 1.3 4.99 3.92 6.23 6.82m232.37-4.27c-.46.93-1.48.93-2.34 1.48-2.3 1.62-4.05 4.86-4.64 8.14-1.2-.2-1.88-.83-3.03-1.09.17-3.66 2.22-7.5 4.48-9.19.76-.53 1.62-.78 2.17-1.49 1.36.4 2.13 1.51 3.37 2.15" clip-rule="evenodd" style="fill:#fff;fill-rule:evenodd" transform="translate(464.29 180.65)"/><path d="M-333.5 221.72h.43v.2c-.38-.11-.21-.03-.43-.2" clip-rule="evenodd" style="fill-rule:evenodd" transform="translate(464.29 180.65)"/><path d="M302.58 346.75h30.25v32.09h-30.25z" clip-rule="evenodd" style="fill:#bcc0c3;fill-rule:evenodd" transform="translate(-801.3 -970.64)scale(3.14708)"/><path d="M271.53 378.64h61.91v.81h-61.91z" clip-rule="evenodd" style="fill:#004489;fill-rule:evenodd" transform="translate(-801.3 -970.64)scale(3.14708)"/><path d="M301.93 345.01h.77v71.52h-.77z" clip-rule="evenodd" style="fill:#004489;fill-rule:evenodd" transform="translate(-801.3 -970.64)scale(3.14708)"/><path d="M-314.61 85.32s-.64-9.14-9-9.14h-12.23s-11.55-1.95-11.55-17V8.78h64.27v53.66s1.28 8.52-10.22 12.43l-10.96 1.97s-10.31-.66-10.31 8.48" clip-rule="evenodd" style="fill:#bcc0c3;fill-rule:evenodd" transform="translate(464.29 180.65)"/><path d="M-308.26 18.91v.89c.63.46.85 1.47 1.49 1.88 1.53 1.03 6.82 1.03 8.35 0 1.2-.78.94-2.55 2.77-2.77.43 2.89 2.52 2.23 3.41 3.87-.12.21-.08.18-.21.63-2.94.67-3.2 2.75-3.2 6.42 0 1.42-.26 2.3.43 3.42.68 1.18 2.47.95 2.77 2.58q.14.11.21.21c-3.1.62-3.32 2.66-3.41 6.4 0 1-.17 2.45.43 3.43.55 1 2.22 1.18 2.77 2.14.17.24.13.2.21.66-1.2.44-2.38.83-2.77 2.15h.21c.34.46.47.61 1.07.81.38-.6.6-.9 1.5-1.05-.3.93.03 1.23.42 1.93.38-.13.21-.05.42-.2q.33-.1.64-.25c0-.84-.08-1.17.43-1.48 1.5 1.59 1.37 2.87 1.28 5.98.6.4.77.8 1.5 1.09a33 33 0 0 0-.22-6.83c-1.06-.76-1.36-1.7-2.98-1.97V47.6h.85c.6-.7 1.7-1.11 2.13-1.95.77-1.44.77-6 0-7.47-.72-1.47-2.77-1.27-2.98-3.2 1.79-.46 2.17-1.5 3.2-2.59.3-4.26.6-8.17-3.2-8.99v-1.29c2.34-.18 2.26-1.71 3.4-2.98-.08-1.61-.33-3.9-2.12-4.47-1.24-1.2-3.33-.42-4.7 0-.46.8-1.19 2.62-2.33 2.76-2-3.7-4.44-3.9-9.64-3.22-.55.74-1.45 1.73-2.13 2.36v.64h-1.28c-.25-1.87-1.53-2.17-2.55-3.23-2.35-.01-4.82-.79-6.86.23-1.45.74-1.2 2.83-3.2 3-1.32-3.48-5.63-4.54-9.85-2.75v.38c.72.5.68.81 1.92.88 1.19-.81 4.34-.03 5.32.23.35.44.64.76.9 1.26-1.37-.05-1.84.03-1.92 1.3.47.18 1.62.37 1.92.84-.6.4-1.45.99-1.92 1.5h.17q.46.55.86 1.06c.38-.11.25-.02.47-.22 1.61-.59 1.27-2.59 3.2-2.77.63 2.92 2.76 3.43 6.43 3.43 1.1 0 2.13.03 2.77-.44 1.83-.62 1.57-2.8 3.62-2.99m-9-3.41c1.7-.03 3.54.05 4.9.22.43.58.86.75 1.11 1.49-1.15-.01-1.36.17-1.91.65.08.36.04.21.17.43q.14.32.2.62c.9 0 1.2-.09 1.54.43-.3.3-.55.6-.85.85-.72.63-4.82.91-5.8.23-.8-.26-1.15-.77-1.49-1.5 1.4.08 1.83.04 1.96-1.3-.47-.17-1.53-.32-1.96-.62.21-.22.09-.06.21-.43.39-.22.77-.54 1.07-.85.51-.04.6-.04.85-.22m11.98.22-1.28 1.06c.26.42 1.54.84 1.92 1.08v.43q-.18.19-.43.42c-.3.21-.85.21-1.49.2.21.78.51.97.85 1.5 1.8.39 3.75.33 5.8.2a12 12 0 0 1 1.5-1.27c-.3-.43-1.5-.63-1.96-.84.12-.43.08-.43.25-.65.3-.52.98-.6 1.7-.65-.38-.64-.89-.94-1.27-1.49l-4.73-.22c-.26.2-.35.2-.86.23m12.62 0h2.12c.86 1.06 1.5 1.14 1.5 3.2-.6.7-.81 1.24-1.7 1.7.04-1.4 0-1.8-1.29-1.91q-.07.3-.2.63c-.3.46-.13.72-.22 1.28l-.2-.2c-.65-.32-.82-.62-1.29-1.08v-.43c1.28.09 1.75.06 1.92-1.05l-.64-.43c-.34-.17-.9.23-1.28-.44.42-.42.89-.85 1.28-1.27m-41.05 50.66c.43 3.3 6.65 4.95 9.85 2.8 1.19-.78.98-2.54 2.77-2.8.34 1.6 1.44 3.1 3.2 3.24 2 1.3 6.98-.28 7.7-1.27.65-.93.26-1.68 1.71-1.97 1.5 3.83 5.12 4.18 9.85 3.03l1.5-1.51c.16-.49.25-1 .42-1.52h1.06c.39 1.97 1.54 3.22 3.62 3.47v-.22c-2.21-1.98-4.3-4.1-6.39-6.2-.6-.65-1.2-1.28-1.7-1.93-.51-.26-4.7-.22-5.37 0-1.97.6-2.14 3.16-3.88 3.4-1.07-2.78-3.58-4.38-7.68-3.4-.68.07-1.28.13-1.91.22-1.45.72-1.28 2.78-3.2 3-1.7-4.58-10.49-5.1-11.55 0H-335a3.6 3.6 0 0 0-3.24-3.22v-1.08c1.03-.4 2.26-.88 2.82-1.72 1.02-1.54 1.02-6.8 0-8.34-.86-1.22-2.56-.9-2.82-2.76 4.73-.98 4.99-10.94 0-11.55v-1.06c3.03-1.2 3.54-2.9 3.5-7.3-.69-.4-1.02-.99-1.75-1.28v.86c1.11 1.54-.09 5.51-1.75 5.77v-1.5a4 4 0 0 0-1.23-.19c-.18.43-.22 1-.22 1.7h-.68c-.94-1.44-2.13-4.84-.85-6.63.25-.81.6-1.12 1.53-1.27v1.5c.35.13.64.18 1.28.19.13-.48.17-1.16.17-1.92h.21a1 1 0 0 0-.2-.2c-.4-.63-.9-1.25-1.71-1.48-.81.6-1.96.82-2.56 1.68-1.02 1.54-1.02 6.8 0 8.34.77 1.14 2.52.94 2.81 2.59-3.75 1.65-3.92 4.26-3.23 9.41.5.34.47.86.9 1.27.5.57 1.49.57 2.08 1.09h.26v.84c-2.56 1.34-3.46 2.21-3.46 6.19v2.8c.56 1.67 2.1 2.28 3.46 3.2-.22.38-.05.19-.26.42-.51.94-1.92 1.03-2.56 1.93-1.36 2.04-.42 5.55 1.5 6.2.72.7 2.68.93 3.62.23 1.4-.44 2.05-1.7 2.64-3.03l1.02-.02m41.05-41.24h.42c-.34.99-.08 1.71 1.07 1.9.21-.43.42-1.61.85-1.9.34.46.85 1.07 1.28 1.5.04 1.32.43 4.18-.17 5.1a2.3 2.3 0 0 1-1.54 1.51c.05-1.42 0-1.84-1.28-1.9-.17.48-.33 1.59-.8 1.9-1.58-2.22-1.8-4.02-.9-7.28q.6-.36 1.07-.83m-20.5 11.95a1.2 1.2 0 0 0 0-1.26zm-27.2.65c.69.18.34-.1.69.45-.39.76.08 1.35 1.06 1.49.21-.48.39-1.66.85-1.94l.86.86c1.19 1.55.5 4.73 0 6.65-.51.23-.69.44-1.32.62.08-1.4.08-1.83-1.24-1.91q-.08.1-.21.22c0 .87.08 1.35-.43 1.7-.42-.55-.85-.55-1.1-1.29-.7-.92-.7-4.63 0-5.53.24-.7.54-.8.84-1.32m47.7 0c.25.36.33 1.26.42 1.72.38.11.51.18 1.07.22.21-.4.38-1.53.63-1.94q.79.74 1.5 1.49v5.36c-.6.47-.81 1-1.7 1.28 0-.6 0-1.18-.22-1.47q-.18-.23-.43-.45c-.38.14-.17.03-.42.23-1.07.83 0 1.34-1.02 1.69-1.58-2.04-1.62-4.23-.9-7.27q.6-.36 1.07-.86m-20.5 6.44c.2.37.16.48 0 .83zm0 1.26c.2.37.16.5 0 .85zm-28.26 6.2c-.09 1.54-.64 4.43.21 5.59.25.65.56.75.85 1.26.69-.24.69-1.12 1.07-1.92 1.15.2 1.15.59 1.06 1.92h.47c.39-.42.85-.84 1.28-1.26.08-1.6.73-4.47-.43-5.8-.25-.6-.5-.59-.85-1.07-.47.3-.64 1.48-.85 1.95a3 3 0 0 1-1.07-.24c-.08-.68.04-1.15-.42-1.71-.43.46-.9.87-1.32 1.28m28.64 7.9V60h-.21v-.45zm-19.01 4.3c-.13.35-.05.23-.22.43.3.5 1.07.57 1.75.63.13.39 0 .24.17.44-.17 1.13-.6 1.14-1.92 1.04.17.65.39.86.64 1.3 1.54.42 3.88.47 6.01.44.52-.48.99-.99 1.5-1.49-.43-.29-1.53-.45-1.92-.62.09-1.27.56-1.35 1.92-1.29-.26-.54-.55-.83-.9-1.3-1.45-.34-3.5-.46-5.5-.44q-.76.44-1.53.86m20.54 2.54v.67c-.3.23-.55.44-.85.63-.68.57-4.82.89-5.8.22a2.2 2.2 0 0 1-1.49-1.51c1.4.1 1.83.05 1.96-1.25a1 1 0 0 0-.3-.23 4 4 0 0 1-1.66-.4c.21-.25.09-.07.21-.44.9-.61 4.57-2.08 6.4-.85.9.26 1.36.73 1.53 1.68-.72-.06-.94-.2-1.54.24q-.18.22-.38.4c.08.39.04.25.17.47.39.43.81.4 1.75.37m10.49 1.74c1.45-.07 1.45-.68 2.34-1.29-.3-.46-1.5-.62-1.96-.82.21-1.14.64-1.14 1.96-1.11-.3-.87-.85-1.03-1.28-1.68-1.49-.14-4.47-.67-5.58.2-.64.21-.77.51-1.28.85v.63h1.49q.15.35.22.64l.2.25h-.2q-.08.35-.22.6h-1.49c.3 1.79 4.22 2.82 5.8 1.73m-39.34-4.9h.42c-.26.62-.21 1 0 1.68.34.13.21.04.39.24.38-.16.25-.07.42-.24.26-.03.47-.14.64-.18 0-.88-.08-1.22.47-1.5.34.45.6.41.85 1.05.18.23.05.08.18.45-1.37-.05-1.67.12-1.67 1.5q.05.09.17.16c.86 0 1.2-.08 1.5.45-.39.45-.35.62-1.03.85-.47.44-1.02.44-1.92.44-.68-.55-1.23-.55-1.53-1.49-.64-.83-.26-1.63 0-2.56a16 16 0 0 0 1.1-.85" clip-rule="evenodd" style="fill-rule:evenodd" transform="translate(464.29 180.65)"/><path d="m-339.68 8.14 55.41 55.46s2.43 4.36-4 8.23l-59.12-57.25v-5.8zM-226 51.48c2.3-5.74 1.92-8.79 1.92-8.79l-7.03.19s1.27 9.65-5.16 14.16c-6.44 4.5-10.96 19.28-11.6 25.73h-1.79v40.32h-4.98V83.22h-1.16s.77-8.8 3.46-12.23c2.68-3.44 14.5-13.76 16.79-19.51 2.3-5.74 1.92-8.79 1.92-8.79l-7.03.19s1.28 9.65-5.16 14.16-10.95 19.28-11.6 25.73h-1.79v40.32h-4.98V83.22h-1.2s.77-8.8 3.46-12.23c2.72-3.44 14.53-13.76 16.84-19.51 2.3-5.74 1.87-8.79 1.87-8.79l-7.03.19s1.32 9.65-5.11 14.16c-6.4 4.5-10.96 19.28-11.6 25.73h-1.83v40.32h-4.56V83.22h-1.15s.72-8.8 3.4-12.23c2.7-3.44 14.54-13.76 16.8-19.51 2.3-5.74 1.96-8.79 1.96-8.79l-7.08.19s1.33 9.65-5.1 14.16c-6.45 4.5-10.96 19.28-11.6 25.73h-1.84v40.32h-4.94V83.22h-1.2s.77-8.8 3.46-12.23c2.69-3.44 14.53-13.76 16.8-19.51 2.3-5.74 1.91-8.79 1.91-8.79l-6.99.19s1.24 9.65-5.2 14.16-10.87 19.28-11.55 25.73h-1.83v40.32h-3.33v2.27h1.4v2.97h-.76c-1.02 0-1.92.85-1.92 1.87 0 1.07.9 1.93 1.92 1.93h.77v11.46h41.25s11.47-.38 11.47-8.04v-3.42h1.92v4.6a1.51 1.51 0 0 0 3.02 0v-11.86c0-.73-.5-1.29-1.15-1.44v-.34h-12.18V83.22h-1.15s.76-8.8 3.45-12.23c2.64-3.44 14.49-13.76 16.79-19.51m-10.7 73.89h1.92v2.96h-1.92z" clip-rule="evenodd" style="fill-rule:evenodd" transform="translate(464.29 180.65)"/><path d="M-282.56 126.41h4.99s.76 3.04-2.3 3.04c-3.03 0-2.7-3.04-2.7-3.04m9.21-.38h4.95s1.15 3.04-2.69 3.04-2.26-3.04-2.26-3.04m9.51 0h4.22s1.53 3.42-2.3 3.42c-3.8 0-1.92-3.42-1.92-3.42" clip-rule="evenodd" style="fill:#f5a200;fill-rule:evenodd" transform="translate(464.29 180.65)"/><path stroke-miterlimit="2.61" d="m-254.64 126.03 4.98.38m0 0s.34 2.86-2.9 2.86" style="fill:none;stroke:#000;stroke-width:1.5716517;stroke-miterlimit:2.61310005" transform="translate(464.29 180.65)"/><path d="M-405.96-24.97s19.87-18.36 24.43-15.28c4.6 3.07 6.9 3.07 9.93 6.12 3.07 3.04 7.67 4.58 7.67 4.58s.77-2.28 6.9 1.53c6.1 3.82 12.2 6.11 6.1 6.89s-8.44-1.54-14.5-3.07c-6.17-1.52-2.3-.77-8.43-2.3s-6.86-6.12-10.7-5.33c-3.83.74-11.47 6.86-14.54 6.86s-8.4 7.65-6.86 0m52.73-17.58s-3.07 4.59 2.3 8.41c5.33 3.83 9.93 3.05 10.7 6.89.77 3.82 6.1 4.57 8.4 6.12 2.25 1.53 3.83 6.87-1.54 3.8-5.32-3.03-2.3 0-8.4-4.58-6.13-4.59-6.13-5.34-9.92-6.87-3.84-1.53-6.14-1.53-5.33-5.36.72-3.82 0-4.58 3.8-8.4" clip-rule="evenodd" style="fill:#007a25;fill-rule:evenodd" transform="translate(464.29 180.65)"/><path d="M-341-34.91s4.56-.76 6.86 2.29c2.3 3.07 2.3 6.13 5.33 7.65 3.07 1.55 9.2 3.06 5.37 3.84-3.8.77-7.63 3.04-8.4 0-.76-3.07.77-3.07-2.3-6.12s-6.09-6.13-6.86-7.66m-16.92 29.27s5.03-1.95 6.26-1.54c1.11.39 6.95 3.88 7.76 2.71.77-1.17 3.45-2.7 3.45-2.7l5.84 1.15 5.03-.38 5.45-1.2s.82 0 1.97 1.2c1.15 1.15 1.92 2.3 3.5 2.3 1.52 0 2.68-.75 2.68-.75s-.34-.4-2.3-2.33a8 8 0 0 0-7.76-1.96c-2.77.79-.81 1.53-3.92.79-3.12-.8 0-1.18-4.26-.8-4.27.4-5.46-2.71-7.38-.77-1.96 1.94-3.5 1.17-5.07 1.17s-14.75-1.57-14.75-1.57a41 41 0 0 0 3.5 4.68" clip-rule="evenodd" style="fill:#007a25;fill-rule:evenodd" transform="translate(464.29 180.65)"/><path d="M-401.44 52.44h-1.19v-1.6h8.14v1.78h5.5v-1.78h7.8v1.78h5.5v-1.6h7.12l1.74 1.76v1.79l1.45.89v-1.97l1.58 2.3v2.13l1.24.56v-1.24l1.4 1.58v26.44l1.24 1.43v6.73l-8.65-7.44h-37.26s-.72-.2-.72-1.6c0-1.43 1.23-2.5 1.23-2.5s-1.06-.69-1.06-1.97c0-1.21 1.4-2.1 1.4-2.1h3.2zm6.05 25.36h6.78V60.95s0-3.03-3.58-3.03c-3.54 0-3.2 3.37-3.2 3.37zm13.69 0h6.73V60.95s0-3.03-3.54-3.03c-3.58 0-3.2 3.37-3.2 3.37zm14.49 1.43 1.83 1.4V63.8s.17-3.56-1.06-3.56c-1.28 0-1.11 3.56-1.11 3.56zm3.07 3.03 1.75 1.4V66.8s.2-3.54-1.03-3.54c-1.27 0-1.06 3.54-1.06 3.54z" clip-rule="evenodd" style="fill:#f4d8ad;fill-rule:evenodd" transform="translate(464.29 180.65)"/><path d="m-404.68 89.68 34.4-.22 11.21 6.64s2.56-8.68 6.1-9.2c0 0 1.49-4.57 3.54-4.57 0 0 1.06-3.96 2.55-4.3v-2.6h-1.1v-1.67h1.1V72.5h1.45v1.09h1.28v1.85h-1.28v2.75s2.6.19 3.33 4.42c0 0 2.6.36 2.98 4.45 0 0 5.11 0 5.5 6.79 0 0 1.1 2.94 3.1 3.86 2.05.93 2.05 1.67 2.05 1.67l2.73-3.86s.77-.92.77.18v20.08h-.56s-.55-3.32-2.21-4.25c-1.67-.91-5.54-.91-6.1-5.7 0 0 .21-2.03-2.17-2.03H-341l-1.02-1.02h2.3V97.7s.21-3.87-1.83-3.87-1.45 3.7-1.45 3.7v2.96l-1.15-2.58v-4.8s0-.93-1.83-.93c-1.84 0-1.63 1.65-1.63 2.96v2.77l-1.5.55v-2.77s.4-1.66-2.2-1.66c-2.56 0-.94 5.53-.94 5.53s-2 1.84-2 4.05h-7.55s-.39 4.96-1.83 5.9c-1.5.9-5 2.22-5 2.22V94.6h-18.06v28.36l-3.11-4.24v-.92h-4.06s-.55-6.82-5.88-6.82c-5.37 0-5.7 2.04-5.7 2.04zm57.16-1.5h3.45s1.15-4.96-1.91-4.96c-3.03 0-1.54 4.96-1.54 4.96" clip-rule="evenodd" style="fill:#f4d8ad;fill-rule:evenodd" transform="translate(464.29 180.65)"/><path d="M-427.78 177.67c-.64.38-1.8.2-2.39.64-1.62.55-2.77 2.43-4.05 3.4-2.51 1.87-5.41 3.3-8.31 4.72q.05.12.17.2c1.32 1.34 2.99 2.08 4.05 3.64.55.7 1.45 3.22 1.96 3.64.72.6 3.5 1.07 4.48 1.5 3.45 1.53 7.33 4.1 9.41 7.05 1.88 2.67 1.46 5.31 2.56 8.77 1.5 4.43 4.1 8.23 8.36 9.85 5.63 2.17 10.87-2.54 16.45-1.28 2.98.66 5.84.64 8.35 1.7 2.39 1.03 4.3 2.86 6.61 3.84 2.3 1 5.2 1.41 7.93 1.94 3.92.77 9.04-1 12.4-1.94 1.58-.12 3.16-.3 4.7-.42.93-.22 3.02-.45 4.3-.22 1.66.34 4.6.82 6.4 1.73 1.27.66 2.42 1.94 3.87 2.54 2.82 1.28 6.14 1.77 9.42 2.6 1.92.13 3.8.26 5.75.43 5.33 1.09 20.13.9 25.66-.43 2.82-.68 5.12-.4 7.67-1.32 4.06-1.37 6.74-3.97 11.13-5.12 5.2-1.38 13.21.64 17.3 1.73 1.29.34 3.59.92 4.95.64 3.24-.64 6.31-.58 9-1.73 3.15-1.32 5.62-3.51 9.16-4.69 3.36-1.1 9.84-1.45 13.68-.4 3.37.87 7.46 1.98 10.74 0a15.4 15.4 0 0 0 6.4-7.53c.8-2.04.55-4.18 1.27-6.65.6-2.07 2.47-4.95 4.05-6.16 2-1.52 4.26-3.2 6.65-4.29.9-.43 4.6-1.28 5.11-1.7q.25-.65.43-1.28a46 46 0 0 1 2.56-3.63c.85-1.1 2.68-1.47 3.24-2.81-3.37-.85-6.65-3.46-9.21-5.33-.9-.85-1.7-1.7-2.6-2.58-1.02-.66-2.51-.36-4.05-.62-1.58-.27-6.95-.04-9.8 1.05-2.9 1.1-4.9 3.98-5.37 7.48-.26 1.92.9 4.84.2 7.06-.97 3.13-2.76 4.28-5.1 5.99-1.45 1.04-2.52 2.66-4.05 3.62-8.02 4.97-14.84-1.25-24.43 1.28-4.1 1.1-6.73 3.33-10.01 4.94-2.3 1.15-5.17 1.33-7.9 1.92-2.46.56-5.62-.17-7.28-.64-3.92-1.06-12.1-2.9-16.7-1.7-3.84 1-6.32 3.5-9.64 4.92-1.8.75-4.05 1.07-5.97 1.47h-3.45c-1.24.3-3.96.58-5.54.24-3.2-.7-6.48-.39-9.21-1.52-2.39-.93-4.22-2.72-6.4-3.83-1.83-.96-4.13-1.22-6.43-1.71-1.58-.34-4 .13-5.33.43q-1.91.23-3.88.42c-3.62 1.03-9.03 2.75-14.06 1.5-2.17-.53-4.48-1.07-6.44-1.92-1.06-.47-2.04-1.51-2.98-2.14-2.05-1.31-4.9-2.14-7.46-2.79-3.07-.74-8.18-.48-10.96.22-2.55.68-6.3 1.27-9.16.19-3.4-1.24-10.36-6.44-11.76-9.6-.65-1.4-1.37-4.05-.86-6.18.17-.79.73-2 .43-3.22-1.74-7.02-7.7-7.95-16.02-7.91" clip-rule="evenodd" style="fill:#fff;fill-rule:evenodd" transform="translate(464.29 180.65)"/><path d="M-396.8 206.96c2.73.03 4.44.3 6.61 0v.2c-.42.61-.42 1.28-1.02 1.73-1.66 1.27-4.39-.56-6.48-.64-.09.36-.13.64-.17 1.27 1.83 1.15 5.58 1.33 7.93 1.92.55 1.11 1.7 3.24.6 4.74-1.28 4.09-5.37.49-8.74 1.25-.98.24-1.7.81-2.56 1.1v-.46c.64-.85.6-1.94 1.5-2.58 1.74-1.34 5.32 1.15 7.7 1.3.18-.19.35-.27.65-.43.13-1.21.25-2.1-.64-2.76-1.97-1.39-6.01-.11-7.5-1.94-1.37-1.67.42-3.63 1.23-4.5.56-.03.64-.03.9-.2m170.2.43c.56.28.18-.1.47.43-.2.28-.2.51-.2 1.07-.48.23-1.03.72-1.54.85-1.58.43-2.73-.9-3.41.43-.17.34 0 .04 0 .63 1.91.18 5.5-1.21 6.43.65.64.85.47 1.47.43 2.77-1.58 1.68-1.66 1.6-4.94 1.5-.99.7-1.45.72-2.35 1.5v-1.5c.34-.4.43-.73.85-1.04 1.16-.89 3.55.05 5.12-.25v-.4c.94-1.46-1.02-1.82-2.56-1.73-.85.6-2.64.45-3.62.23-.04-.23-.17-.42-.21-.66-.72-.85-.26-2 0-2.98 1.35-.56 4.47-.52 5.54-1.5m-18.62 3.2c.3.49 1.02.64 1.53.85.21.96 1.07 5.59 1.5 6.23q.14.09.2.2v-.2a5 5 0 0 0 1.5-.24c-.13-1.17-.26-3.73-.85-4.7v-1.5c.38-.13.2-.02.42-.22.9.05.98.15 1.5.43.46 1.92 1.02 4.2 1.06 6.44q.84-.46 1.75-.85a19 19 0 0 0-1.75-7.51c-.72-.2-1.06-.4-2.13-.42-1.62 1.74-2.22.93-4.73 1.49m-140.66 7.93c1.24.81 1.58.34 2.56 1.7h2.6q.81-.65 1.7-1.27c.43-.64.55-1.54 1.03-2.16v-.83h-.18c-.51 1.37-1.87 1.83-2.81 2.75l-1.07-.2c-.08-.2-.08-.44-.21-.63 1.92-1.15 2.3-2.39 3.62-4.1 0-.89-.17-1.15-.38-1.68-.86-.38-2-.66-2.81 0-1.97.64-2.86 3.46-2.77 6.2-.43.1-.86.13-1.28.22m5.33-5.37c.08.06.17.17.21.23a3.4 3.4 0 0 1-1.49 2.8v.19h-.43c.09-1.47.56-2.28 1.07-3.22zm124.03 5.56c.39.28 1.2-.06 1.7.24.39.19.39 1.02.69 1.27.47.45 2.09.22 2.98.22.56-.54 1.45-.86 1.92-1.5.5-.7.55-1.7 1.02-2.36v-.41c-.51.4-.72 1.07-1.24 1.5-.64.46-1.4.72-1.96 1.27-.68-.12-.64-.19-1.02-.43v-.63c.13-.24.81-.26 1.02-.45 1.07-.8 1.54-2.03 2.39-3.01 0-1.32-.21-1.62-.64-2.32-.38-.15-.25-.07-.43-.24-3.66-.04-5.03 3.01-4.94 6.65zm5.75-5.33q.15.11.22.22a4.3 4.3 0 0 1-1.7 2.98v.21h-.43a6 6 0 0 1 1.27-3.41zm-21.14 8.55c-.76.09-1.06.26-1.75.43v-5.33c-.17-.3-.17-.51-.17-1.06-.38-.24-.38-.3-.85-.47-.21-.09-.43 0-1.1 0v6.22c-.27.13-.4.13-.86.22-.17-.13-.38 0-1.07 0a35 35 0 0 0-.38-6.64 8 8 0 0 1-1.54-.87h.22c1.24-.9 2.17.07 3.2.45.55-.83 1.15-1.15 2.38-1.28.43.3 1.15.43 1.5.84.89 1.4.47 5.36.42 7.5m-95.6.43c-.6.17-1.28.3-1.92.42v-6.2c-.17-.22-.09-.07-.17-.4-.77-.35-.9-.4-1.8-.22a6 6 0 0 0-.16 1.92c.13.28.3 3.71 0 4.05-.39.23-1.06.21-1.7.21.04-2.5.04-4.97-.65-6.65-.34-.15-.98-.38-1.27-.62h.2c1.24-1.04 2.14.47 3.2.22.6-.16.86-1 2.6-1.07.35.45.81 1.04 1.45 1.27.43-1.25 1.92-1.14 3.24-.87 1.07 1.88.85 5.3.85 8.36-.55.23-1.15.45-1.7.64v-6.84c-.6-.54-.43-.75-1.54-.86-.21.33-.21.2-.42.64-.68 1.07-.2 4.42-.2 6m9.63 2.34.43-.42c0-.99 0-2.35.43-2.99.38-.61 1.83.05 2.55-.42 1.62-.54 2.78-4.74 1.28-6.19-.17-.5-.34-.47-.6-.89-1.23 0-2.04.04-2.55.64-1.02-.26-1.88-.86-3.03-1.28-.08.06-.13.17-.26.23 2.48 3.35.6 6.82.26 11.11.64.04 1.07.09 1.5.21m1.07-4.9 1.7-.21c.43-1.24.77-2.42.43-4.1h-.43c-.25-.17-.5-.17-1.06-.2l-.17.2zm7.93.87c-.56.24-.69.37-1.5.4.35.26 1.2-.08 1.71.22.3.17.17.85.43 1.07.6.55 2.04.45 3.24.42.64-.68 1.57-1.1 2.09-1.91.33-.54.3-1.07.68-1.52v-.64c-.98.67-2.18 1.73-3.02 2.58a3 3 0 0 1-1.07-.2q-.08-.31-.21-.65c1.74-1.1 2.38-2.28 3.62-3.86 0-.57 0-.98-.21-1.28-.13-.49-.22-.45-.43-.87-.64-.04-1.28-.08-1.92-.21-2.05 1.64-3.5 2.68-3.41 6.45m4.26-4.94h-.86a7.4 7.4 0 0 0-1.06 3.22h.43c.46-.64 1.02-1.28 1.49-1.92zm59.03-.86c-1.4 1.41-3.33 3.65-2.17 6.85-.51.32-.64.53-1.45.64 1.24.72 1.45-.56 2.51 1.06h2.4c.5-.53 1.48-.85 1.9-1.5.3-.78.56-1.57.86-2.34v-1.06h-.21c-.47 1.45-1.58 2.1-2.34 3.2-.77-.02-.73.08-1.07-.43-.08-.17 1.83-3.09 2.34-3.62 0-.94 0-1.96-.2-2.58-.56-.24-.9-.38-1.76-.4-.21.16-.34.16-.81.18m1.06 1.3a1 1 0 0 0 .22.2c0 1.47-.26 2.39-1.11 2.98v.45h-.43c0-1.66.21-2.62.68-3.62zm21.83-4.06c-.43.65-.43 3.13-1.06 3.38-.6.26-1.24-.23-1.96.24-1.33.45-2.86 3.51-1.5 5.14 1.58 2.36 4.86.2 7.25 1.7h.68v-.21c-.72-.36-1.28-.85-1.96-1.28.21-1.02.81-1.5 1.1-2.37.78-2.42.23-5.73-.63-7.7-.34-.12-.38-.12-.85-.2-.3.44-.86.85-1.07 1.3m1.28.42c-.26 2.03-.85 4.2-.43 6.42h.43c.17-1.71.98-5.01 0-6.42m-2.82 4.05c-.2.15-.59.32-.8.45-.43.8-.68 1.21-.68 2.56.33.38.38.74.85 1.09.38.25.68.32 1.28.4a2 2 0 0 1 .63-.4c-.3-.77-.42-3.25-.8-3.88-.22-.2-.09-.07-.48-.22m-71.6 3.65c.25-.64.47-.6.85-1.07.64 0 1.16-.02 1.5.2.5.27.46.5.85.87-.09.76 0 .7-.43 1.06v.43c1.07-.36 1.7-1.77.85-2.77-.76-1.2-3.28-1.77-4.26-.43-.64-.25-.55-.34-.9-.85-.85-.07-.59-.05-1.49 0-.04.06-.13.12-.17.2.26.7.86.9 1.03 1.48.51 1.38-.9 5.07-1.28 5.99a5 5 0 0 0 1.92.43c.25-1.64.63-4.3 1.53-5.54m40.83-2.8c1.24.2 2.3.5 2.56 1.73-.21.2-.3.56-.38.81h-.47c-.39-.57-.68-1.26-1.5-1.45-.2.15-.04.09-.42.2-.26.42-.51.93-.85 1.25-.08 1.92.38 3.65 1.7 4.1 1.28.91 2.98-.11 4.05-.64v.44c-.17.2-.08.03-.21.41-1.53.77-2.52 1.28-5.12 1.28-2.38-2.2-2.85-3.03-1.91-6.85.68-.36 1.87-.74 2.55-1.28m-24.6 1.28q-.56 1.64-1.06 3.22c-1.02 2.43-2.17 5.27-3.45 7.5-.39.11-.85.3-1.24.44a15 15 0 0 0-1.28-1.5c-.17-.39-.04-.24-.25-.47v.47c-.94 1.73 2.26 3.92 3.88 2.34 1.45-.49 2.38-3.2 2.55-4.94.73-.13 2.9-.09 3.2-.21 3.03 0 1.96 1.79 2.82 3.87.34.97 1.27 1.24 1.87 1.92 2.26-.06 2.3-.93 3.2-2.13v-.86c-.51.52-.47.88-1.45 1.07-.38.17-.68.09-1.07-.21-1.1-.8-.85-2.37-1.27-3.88-.81-2.6-1.54-5.76-2.77-7.91l-1.5-.21c-.76.54-1.66.77-2.17 1.49m4.1 5.16c-.12.2-.17.4-.26.62-1.06.04-3.1.26-3.83-.21-.51-1.24 1.4-5.2 2.17-6.2 1.54 1.16.81 4.15 1.92 5.8m7.25-3.9c-.26 1.02-.6 1.96 0 2.82q.07.34.2.64c1.58.27 4.48-.39 5.55.44.21.2.47.41.64.62a3 3 0 0 1-.43 1.28c-.94.2-2.22.17-2.98-.43-2.9-.08-2.18.69-3.2 2.35v.21c.85-.36 2.73-1.88 4.26-.83 2.48.06 2.35-.53 3.45-1.73a6.5 6.5 0 0 0-.68-3.2c-.68-.21-1.79-.72-2.52-.21-1.4 0-2.64 0-3.45-.43.09-.5.13-.53.22-.83q2.06.05 4.05.2c.3-.26.55-.43.85-.65.08-.76.25-1.06 0-1.51-1.1 1-4.68.62-5.96 1.26" clip-rule="evenodd" style="fill-rule:evenodd" transform="translate(464.29 180.65)"/><path d="m-264.74-44.17 1 .2c.32.55.95 1.06 1.2 1.62l-.01.8 1.4 1.4c1.25 2.87.8 6.17 1.55 9.45.45 1.95-1.55 6.62-2.06 8.01-.31.85 1.3 4.28 1.38 4.42 1.06 1.14 2.68 1.52 4 2.43a10 10 0 0 1 1.78 1.62c.19.21.2.87.4 1l1.62.01c1.28.9 3.17.93 4.4 1.82 1.08.79 1.57 2.88 2.98 3.22 3.26-2.6 3.69-5.55 1.67-10.01-2.66-5.86-8.72-7.52-11.77-12.5-2.98-4.87-.7-12.88 4.09-14.23 4.36-1.22 6.67 2.78 9 3.46 1.6.47 2.4-1.19 3.03-1.19.3.4.34.73.39 1.42-.52.62-.63 1-1.43 1.4q.12.2.2.4c.7.32.96.55 2.02.6.26-.25.64-.41 1-.6v.81c-.38.32-.29.18-.42.8.36.12.63.18 1.2.22.22-.17.08-.07.4-.2v.6c-.46.26-1.33.7-1.6 1.2.9.97.83 2.9.77 4.8l-.2.2h-.4c.1-1.4.02-3.15-1.38-3.6a5 5 0 0 1-.42 2.4h-.4c0-2.2-1.47-2.62-2.8-3.44v.8c.19.2.27.35.41.6h-.6c-.96-1.05-2.16-1.84-2.6-3.42-.25-.94.49-2.42.22-3.01-.46-1.04-3.9-1.84-5.8-1.83-.73.65-1.88.96-2.42 1.78-.48.74-.35 1.43-.62 2.4-.95 3.72.46 6.19 1.97 8.44h.4v-.39c-.33-.47-.17-1.33 0-1.81h.2c.08.64.2.76.4 1.2l.2-.2c.19-.3.19-.98.41-1.6h.2c.32 2.62 2.79 2.31 3.8 4.24.29-.23.5-.83.79-1 .34-.17.66.14.81.2.3-.2.96-1.44 1.21-.99.32.52-.2.79.2 1.42.53.84 1.23.1 1.39 2h.8c.18.79.48 1.77.79 2.62.3-.2.44-.72.6-.4.9 1 .32 2.27.18 3.62h.4c.21-.17.06-.08.39-.2.08.73.47 1.86.2 2.8-.17.6-1.32 2.12-1.01 2.4.7.87 1.75.88 1.99 2.23-.42.28-.42.27-.61.8.52.3.97.6 1.2 1.22q-.56.29-1.2.59c.22.3.2.16.39.6-.36.2-1.77.63-2.01 1l-.42 2c-.93 1.9-2.5 2.89-4.42 3.78 1.48 5.85-5.47 9.44-5.71 15.22.52.28.71.39 1.6.4.67-.84 2.07-1.25 2.63-2.18.47-.8.16-1.19 1.02-1.6.52-.32 2.76.58 3.8.83 1.12 2.04 2.75 3.3 4.37 4.84-.01.92-.64 2.58-.6 2.6.53.84 1.88 2.2.98 3.81-.3.56-1.25.55-1.62 1-1.03 1.28-1.18 4.46-.84 6.41.52.2 1.48.28 2 .6 1.27.81.86 3.38-.41 3.83l-6.22-.04c-3.07.78-3.78.76-6.62.17-.65-.13-.38.39-.8.2l-.99-1.01c-.48.13-.45.2-.8.4l.01-1c.14-.2.06-.07.2-.4.71-.34 1.24-1.08 2-1.4.73-.3 1.43-.03 2.22-.4 1.66-.78 1.39-1.54 4.41-1.57-.05-1.47 1.28-8.15-.15-9.03l-.2-.2c-.85 4.22-4.91 4.34-8.22 2.57v.6c.44.9-.56 1.14-.43 2.2s.6 1.94.59 3.42c-.33.1-.5.15-1.01.19q.11.7.19 1.4h-.39c-.46-.82-1.61-.47-2.02.39-.3.5-.09 1.08-.6 1.4v-.2a3.3 3.3 0 0 1-.79-2h-.6c-.27-.44-.55-.73-.8-1.21-.3.17-.15.57-.4.19-.97-.61-3.52-5.86-2.36-7.63.4-1.07 1.5-1.44 1.81-2.6.4-1.41-.53-2.36-.78-3.2q-.08-2.02-.19-4.02c-1.96-.04-3.53-.6-5.2-.84.01 1.05.28 1.52.58 2.2.7-.21.73-.54 1.42-.79.05.9-.05.85.8 1.01.2-.15.19-.11.6-.2-.07 1.3.17.79.59 1.8-.32.34-.32.41-.4 1.02.58.33.82.4.98 1.21-.36.3-.28.17-.4.8.36.2.52.36.8.6-.12.35-.05.2-.2.4-.62.43-.79.05-1 1 .18.28.18.65.18 1.2-.78-.05-1.55-.35-1.8-.2-.52.81-.62 2.84-.83 3.8l-1.2.4c-.04.74-.06 2.69-.22 3-.42.48-.58.05-1.2.4-.86.49-1.02 1.72-2.22 1.98-1.48-1.4-4.75-.21-6.2.17-1.86.5-4.23-.42-5.63-.24-.16-.84-.39-.67-.79-1.2l-.62.4.01-1c.17-.2.07-.06.21-.4.7-.37.84-1.02 1.41-1.4.95-.6 1.28.02 2.4-.39 1.21-.42 2.43-1.6 3.83-1.98 1.87-.51 3.46.18 5.02.03 1.18-1.61 2.54-3.3 2.64-6a14 14 0 0 1-2.6-2.02c-2-.08-3.74.2-5.6-.24v-.4c.4-.25.37-.13.6-.6h-1.4l.2-1.01c-.7-.13-1.12-.23-1.4-.8.11-.15.3-.02.2-.41h-.19c-.38-.29-.55-.14-.8-.6.57-.22.36-.05.59-.6-.7-.14-1.23-.33-1.58-.82 1.48-.61 2.22-1.68 3.61-2.38-.36-.67-1.28-1.97-.58-3.01.23-.53 2.07-3.2 2.61-3.4 1.5-1.24 3.63.1 5.23-.38.88-.26 1.95-1.24 3-1.58l6.23-1.17v-.2c-.92-.12-2.25-.4-3.2-.62-2.43-.54-4.76.9-6.83-.04-1.97-.9-4.05-3.77-6.19-4.05-.49.35-1.53.46-2.21.6l.21.2c.35.34.37-.23.6.6-.32.17-2.75 1.28-2.83 1.39.65.16.3-.1.6.4h-.4c-.94.59-3.14.05-4 .19-.26.41-.44.45-.62 1 1.16-.05 1.5-.07 1.6 1-.16.2-.07.06-.21.4-1.58.71-5.18.65-5.82 2.38-.46.6-.54 2.08-.82 2.79-.6.39-1.25 1-2.01 1.2l-3.81-.02c-.97.43-.45.96-2.42 1-1.8-1.68-6.02-3.44-6.38-6.26.76-1.07.94-2.45 1.42-3.8.98-.4 1.86-.74 3.21-.79q.71.6 1.4 1.21c.6.85.33 1.8 1.4 2.22.34.26.84.34 1.4.41.49-.4.9-.37 1.2-1 .95-1.06.84-3.44 1.44-4.8 1.02-2.36 3-2.39 3.03-6a7 7 0 0 0 .62-3.02c-1.63.87-1.63 1.04-4.42.99v-.4c.4-.3.47-.44.63-1h-.4c-.5.49-1 .59-2.03.58.13-.68.23-.6.42-1.2h-.6c-.4.27-1.31.22-2 .2l-.22-.4 1.01-.6v-.21c-1.01 0-1.42-.21-2.2-.4l-.19-.6c.78-.08 1.12-.21 1.4-.8-1.93-.32-3.73-.82-3.79-3.03-.03-.1-.06-1.01-.2-1.41h-.4c-.2.48-.19.36-.6.6.13.7.41.82-.2 1.2-.77-.75-1.65-.78-1.8-2.2.27-.57-.27-1.22-.18-1.82.1-.85 1.07-.89 1.41-1.4l.01-1.4h.2c.24-.47 1.75-2.4 2.21-2.6.43-.28 1.64-.33 2.21-.39.46.4.86.48 1.2 1.01.82 1.15.35 2.98.97 4.43 1.11 2.5 4.73 3.07 8.43 3.05l1.4-1.4v-.2h-.6c-.33.35-.75.57-1.21.8v-.6c.54-.6.58-1.5 1.01-2.21.52-.83 1.45-1.2 1.82-2.2-.7.02-1.6.07-2.01-.2-.17-.21-.07-.06-.18-.41 1.25-1.34 1.6-2.54 3.42-3.4-.36-.82-.62-2.09-.99-3-.47.3-.93.97-1.41 1.19-2.77 1.27-5.08-1.57-7.01-2.05l-1.8.2c-.33.53-1 2.09-1.23 2.2v-.4c-.26-.41-.2-1.31-.17-2.02.59-.68.75-1.76 1.61-2.2 3.95-2.02 5.95 1.73 9.4 1.87l.02-.4c-2.1-.43-1.52-2.38-2.4-4.03-.43-.85-1.1-.29-1.18-1.82 2.3-1.62 2.34-2.8 6.62-2.76q.13-1.01.22-2.01c.35-.19.34-.25.8-.4.87-.48 5.65.41 7.22-.56.33-.5.24-1.78.22-2.6a45 45 0 0 1-1.8-2.81c.59-.2 1.55-.22 2.43-.2.48.39 1.26.43 1.78.8.78.57.63 1.37 1.8 1.62l2.22-.79 1.4-1.38c-.05 1.63.11 3.04.39 4.2.77.23 1.28-.2 2.2.01l1.8.6c.41.66.94 1 1.19 1.83l-.2.2c-1.08-.4-2.66-.12-3.82-.03-.33.42-.56.28-1 .6q-.49.7-1.01 1.39v.8c.83.22.9.54 1.4 1.02z" clip-rule="evenodd" style="fill:#e2001a;fill-rule:evenodd" transform="translate(464.29 180.65)"/><path d="m-274.3-50.57.83-2.07s-1.84-3.62-2.49-4.15c0 0 3.86-1.56 5.4 1.04 1.05 1.77 1.03 1.45 1.03 1.45s-.21-.83 1.24-1.45c1.46-.63 2.91-1.04 2.91-1.04l.41 2.9-.32 1.89s4.88-1.47 5.7 2.68c0 0-4.55 0-5.8 1.45-1.24 1.45-.62 1.45-.62 1.45s-6-.41-8.3-4.15" clip-rule="evenodd" style="fill:#e2b900;fill-rule:evenodd" transform="translate(464.29 180.65)"/><path d="M-207.12-37.78a10 10 0 0 0 1.5 3.65v.2h.2c0-1.7.56-5.59-.2-6.84-.43.93-.82 2.28-1.5 2.99m2.77-3.63c.9.78 1.79 3.02 1.92 4.5-.9.9-1.2 2.33-1.7 3.6h-.22zm-1.06 21.17h1.06v-9.81h.21v.2c1.8 2.15 2.26 6.32 3.2 9.22q.25 1.04.43 2.13c.34.38 6.4 2 7.29 2.14q.07-.34.2-.67c-1.14-.97-1.49-3-2.16-4.48-.86-1.99-2.65-4.24-3.16-6.41.04-1.15.13-2.3.17-3.44-.08-.4-.34-.56-.38-1.3.81-.19 1.5-.6 1.66-1.48-.85-.18-1.4-.45-1.66-1.28.6-.37.94-.62 1.06-1.49q-1.3-.66-2.6-1.29c-.59-.8-.59-2.01-1.06-3-.64-1.42-1.92-2.78-2.09-4.7.94-1.13 1.28-2.83 1.88-4.27 1.2-2.75 3.54-5.59 4.1-8.79-.7-.32-1.59-.91-2.18-.63-.64.7-.64 1.4-1.06 2.36-1.07 2.44-2.53 4.9-3.63 7.47h-.21v-6.19c1.62-.63 2.43-1.36 2.77-3.22-1.58-.52-4.43-.23-6.4-.23l-.2.23c.38 1.17.55 2.17 1.48 2.78l1.29.44v5.58h-.22v-.23c-1.27-1.7-3.36-8.8-5.15-9.21-.64.6-1.24.4-1.5 1.5 1.24 1.35 1.45 3.4 2.35 5.12 1.23 2.35 3.45 5.05 3.66 8.15-2.73 3-1.23 6.04-5.75 8.13.13.36 0 .21.17.4.25.76.6.8.85 1.53h-.21c-.43.54-1.15.57-1.5 1.27.69.4 1.33.86 1.92 1.28-.34.85-.93 1.93-.6 3.42.05.16.35.78.18 1.3-.17.65-.98 1.49-1.24 2.15-.94 2.1-1.58 3.96-2.6 5.98-.38.8-1.53 2.23-1.28 3v.22c1.45-.3 6.1-1.35 7.08-2.14 1.87-2.33 1.24-9.1 3.62-10.7q.1-.13.21-.23zm-6.44 77.02c-.43 1.29-2 1.88-2.73 3-3.88-.35-3.54-6.69-.9-8.35v-.2c1.33.41 3.08 1.95 3.88 3h1.46a3 3 0 0 0-.64-.87 6 6 0 0 1 1.27-3.2v-.2c.81.45.81 1.59 1.53 2.11 0 1.16 0 1.5-.63 1.93.38.28 1.4.24 2.13.24l.21.2c0 .87-.04 1.78-.2 2.34h-1.92v47.3a1 1 0 0 0-.22.2 5 5 0 0 1-1.32-.2v-47.3z" clip-rule="evenodd" style="fill:#bcc0c3;fill-rule:evenodd" transform="translate(464.29 180.65)"/><path d="M-203.07 54.23v2.34c.51.18 1.32.21 2.13.21v38.93h-.43c-.46-.71-1.23-1.21-1.49-2.13-.59-1.82-.21-4.86-.21-7.06V71.98h.43c.2.16.2.13.68.21v-3.01c-.68-.23-.81-.18-1.11-.83 0 0 .43-6.1 0-6.85-.3-.53-.8-.63-1.7-.68-.94 1.54-.86 4.05-.86 6.67h-.2c-.7-.85-1.37-1.5-1.97-2.6a1 1 0 0 1-.18.25c-.25.33-.25.87-.2 1.49.3.49.13 1.35.38 1.93.64 1.2 2.22 2.14 2.39 3.2.2 1.47-.39 2.47-.22 3.83.51 4.53-.25 8.33.22 12.2.17 1.38-.6 2.79-.22 4.26a6.4 6.4 0 0 0 2.14 3.24c.85.37 1.75.73 2.55 1.07v7.7c.38.14.72.18 1.28.2a.4.4 0 0 0 .2-.2V56.79h1.76q1.6 1.64 3.2 3.2.31-.08.64-.2c2.77-4.2 2.81-4.6-.22-8.55q-.14.1-.2.2c-1.8.92-2.3 2.72-4.95 2.8V54c.51-.39.6-.6.68-1.48-.68-.68-.94-1.6-1.28-2.56h-.42c-.3 1.1-1.45 2.4-1.11 3.18.17.57.25.54.43 1.1z" clip-rule="evenodd" style="fill:#bcc0c3;fill-rule:evenodd" transform="translate(464.29 180.65)"/><path stroke-miterlimit="2.61" d="M-211.38 61.28v.43h.17v-.43h-.17" style="fill:none;stroke:#bcc0c3;stroke-width:3.05487061;stroke-miterlimit:2.61310005" transform="translate(464.29 180.65)"/><path stroke-miterlimit="2.61" d="M-265.32-94.86s2.66-2.92-5.7-4.82c0 0-6.48-3.05-8.77-4.95l-3.8-1.91s.76-4.2-4.19-7.24-8.76-3.42-6.1-15.24c2.67-11.8 14.86-33.9-13.7-37.7 0 0-15.23-7.62-28.93 12.19 0 0-4.19 0-4.19 4.57l.76 1.52s-7.99 13.34-5.33 18.67 4.57 6.47 6.86 7.61c2.28 1.15 3.04 3.81 5.32 5.34 2.3 1.52 6.48 2.28 6.48 2.28l-1.52 3.43s-3.81-1.14-4.96 3.43c-1.13 4.57-.37 4.57-4.94 6.86a59 59 0 0 0-7.24 4.18s-6.34 1.15-7.87 6.86c-1.52 5.72-1.77 6.86.5 10.66 2.3 3.82 13.72 6.6 13.72 6.6s3.04 10.42 7.61 11.18 17.64-7.87 17.64-7.87 10.28 9.14 18.65 3.05c8.38-6.1 14.73-26.67 20.06-28.2 3.62-1.03-.45-.3 9.64-.5z" clip-rule="evenodd" style="fill:#bcc0c3;fill-rule:evenodd;stroke:#000;stroke-width:.49692395;stroke-miterlimit:2.61310005" transform="translate(464.29 180.65)"/><path stroke-miterlimit="2.61" d="M-310-180.4c3.5-.12 11.18 1.54 11.3 4.27.69 1.16.06 3.5.42 4.9.52 2 1.18 4.18 1.92 5.97h-.43c-1.45-1.16-3.42-1.68-4.91-2.78-3.61-2.68-6.85-7.57-8.3-12.36z" clip-rule="evenodd" style="fill:#bcc0c3;fill-rule:evenodd;stroke:#000;stroke-width:.49692395;stroke-miterlimit:2.61310005" transform="translate(464.29 180.65)"/><path stroke-miterlimit="2.61" d="M-310-180.4c3.5-.12 11.18 1.54 11.3 4.27.69 1.16.06 3.5.42 4.9.52 2 1.18 4.18 1.92 5.97h-.43c-1.45-1.16-3.42-1.68-4.91-2.78-3.61-2.68-6.85-7.57-8.3-12.36z" clip-rule="evenodd" style="fill:#bcc0c3;fill-rule:evenodd;stroke:#000;stroke-width:.49692395;stroke-miterlimit:2.61310005" transform="translate(464.29 180.65)"/><path stroke-miterlimit="2.61" d="M-310-180.4c3.5-.12 11.18 1.54 11.3 4.27.69 1.16.06 3.5.42 4.9.52 2 1.18 4.18 1.92 5.97h-.43c-1.45-1.16-3.42-1.68-4.91-2.78-3.61-2.68-6.85-7.57-8.3-12.36" style="fill:none;stroke:#000;stroke-width:.49692395;stroke-miterlimit:2.61310005" transform="translate(464.29 180.65)"/><path stroke-miterlimit="2.61" d="M-317.03-179.32q3 .2 5.97.42c.24.13 1.41 3.73 1.7 4.26 1.29 2.3 4.5 6.46 6.83 7.68v.2h-1.07c-1.45-.95-4.02-.98-5.55-1.92-3.17-1.96-4.68-5.06-6.81-8.1-.6-.84-1.54-1.46-2.14-2.34.55 0 .8-.02 1.07-.2z" clip-rule="evenodd" style="fill:#bcc0c3;fill-rule:evenodd;stroke:#000;stroke-width:.49692395;stroke-miterlimit:2.61310005" transform="translate(464.29 180.65)"/><path stroke-miterlimit="2.61" d="M-317.03-179.32q3 .2 5.97.42c.24.13 1.41 3.73 1.7 4.26 1.29 2.3 4.5 6.46 6.83 7.68v.2h-1.07c-1.45-.95-4.02-.98-5.55-1.92-3.17-1.96-4.68-5.06-6.81-8.1-.6-.84-1.54-1.46-2.14-2.34.55 0 .8-.02 1.07-.2z" clip-rule="evenodd" style="fill:#bcc0c3;fill-rule:evenodd;stroke:#000;stroke-width:.49692395;stroke-miterlimit:2.61310005" transform="translate(464.29 180.65)"/><path stroke-miterlimit="2.61" d="M-317.03-179.32q3 .2 5.97.42c.24.13 1.41 3.73 1.7 4.26 1.29 2.3 4.5 6.46 6.83 7.68v.2h-1.07c-1.45-.95-4.02-.98-5.55-1.92-3.17-1.96-4.68-5.06-6.81-8.1-.6-.84-1.54-1.46-2.14-2.34.55 0 .8-.02 1.07-.2" style="fill:none;stroke:#000;stroke-width:.49692395;stroke-miterlimit:2.61310005" transform="translate(464.29 180.65)"/><path stroke-miterlimit="2.61" d="M-296.14-169.1c1.14 3.76 3.26 6.48 5.11 9.39h.21c0-3.97.13-8.36 1.92-10.66-.03-3.42-5.94-6.74-8.52-7.88.64 2.83.44 6.43 1.28 9.15z" clip-rule="evenodd" style="fill:#bcc0c3;fill-rule:evenodd;stroke:#000;stroke-width:.49692395;stroke-miterlimit:2.61310005" transform="translate(464.29 180.65)"/><path stroke-miterlimit="2.61" d="M-296.14-169.1c1.14 3.76 3.26 6.48 5.11 9.39h.21c0-3.97.13-8.36 1.92-10.66-.03-3.42-5.94-6.74-8.52-7.88.64 2.83.44 6.43 1.28 9.15z" clip-rule="evenodd" style="fill:#bcc0c3;fill-rule:evenodd;stroke:#000;stroke-width:.49692395;stroke-miterlimit:2.61310005" transform="translate(464.29 180.65)"/><path stroke-miterlimit="2.61" d="M-296.14-169.1c1.14 3.76 3.26 6.48 5.11 9.39h.21c0-3.97.13-8.36 1.92-10.66-.03-3.42-5.94-6.74-8.52-7.88.64 2.83.44 6.43 1.28 9.15" style="fill:none;stroke:#000;stroke-width:.49692395;stroke-miterlimit:2.61310005" transform="translate(464.29 180.65)"/><path stroke-miterlimit="2.61" d="M-325.11-177.63c2.35-.02 5.05-.01 6.82.43.96 2.85 5.87 8.5 8.52 9.8v.23h-.43c-.95-.57-4.85-.52-6.2-1.08-3.5-1.48-5-4.24-7.02-7.24-.51-.78-1.36-1.17-1.69-2.14z" clip-rule="evenodd" style="fill:#bcc0c3;fill-rule:evenodd;stroke:#000;stroke-width:.49692395;stroke-miterlimit:2.61310005" transform="translate(464.29 180.65)"/><path stroke-miterlimit="2.61" d="M-325.11-177.63c2.35-.02 5.05-.01 6.82.43.96 2.85 5.87 8.5 8.52 9.8v.23h-.43c-.95-.57-4.85-.52-6.2-1.08-3.5-1.48-5-4.24-7.02-7.24-.51-.78-1.36-1.17-1.69-2.14z" clip-rule="evenodd" style="fill:#bcc0c3;fill-rule:evenodd;stroke:#000;stroke-width:.49692395;stroke-miterlimit:2.61310005" transform="translate(464.29 180.65)"/><path stroke-miterlimit="2.61" d="M-325.11-177.63c2.35-.02 5.05-.01 6.82.43.96 2.85 5.87 8.5 8.52 9.8v.23h-.43c-.95-.57-4.85-.52-6.2-1.08-3.5-1.48-5-4.24-7.02-7.24-.51-.78-1.36-1.17-1.69-2.14" style="fill:none;stroke:#000;stroke-width:.49692395;stroke-miterlimit:2.61310005" transform="translate(464.29 180.65)"/><path stroke-miterlimit="2.61" d="M-330.87-174.85c.65.83 2.01 1.22 2.55 2.13.78 1.3 1.19 2.35 2.35 3.2.88.64 1.9.86 2.55 1.7.9-.19 2.31-.37 3-.86l.2-.2c-2.37-1.42-4.28-4.73-5.75-7.03h-1.06c-.78.6-2.68 1-3.84 1.06z" clip-rule="evenodd" style="fill:#bcc0c3;fill-rule:evenodd;stroke:#000;stroke-width:.49692395;stroke-miterlimit:2.61310005" transform="translate(464.29 180.65)"/><path stroke-miterlimit="2.61" d="M-330.87-174.85c.65.83 2.01 1.22 2.55 2.13.78 1.3 1.19 2.35 2.35 3.2.88.64 1.9.86 2.55 1.7.9-.19 2.31-.37 3-.86l.2-.2c-2.37-1.42-4.28-4.73-5.75-7.03h-1.06c-.78.6-2.68 1-3.84 1.06z" clip-rule="evenodd" style="fill:#bcc0c3;fill-rule:evenodd;stroke:#000;stroke-width:.49692395;stroke-miterlimit:2.61310005" transform="translate(464.29 180.65)"/><path stroke-miterlimit="2.61" d="M-330.87-174.85c.65.83 2.01 1.22 2.55 2.13.78 1.3 1.19 2.35 2.35 3.2.88.64 1.9.86 2.55 1.7.9-.19 2.31-.37 3-.86l.2-.2c-2.37-1.42-4.28-4.73-5.75-7.03h-1.06c-.78.6-2.68 1-3.84 1.06" style="fill:none;stroke:#000;stroke-width:.49692395;stroke-miterlimit:2.61310005" transform="translate(464.29 180.65)"/><path stroke-miterlimit="2.61" d="M-287.2-172.09c2.9 1.94 5.65 7.58 6.18 11.94-2.47 2.34-5.26 4.64-6.82 7.9-.16-.23-.06-.07-.2-.44-.73-.92-.52-2.22-.85-3.63-.76-3.27-.56-8.09.41-11.08.5-1.5 1.2-2.61 1.28-4.69z" clip-rule="evenodd" style="fill:#bcc0c3;fill-rule:evenodd;stroke:#000;stroke-width:.49692395;stroke-miterlimit:2.61310005" transform="translate(464.29 180.65)"/><path stroke-miterlimit="2.61" d="M-287.2-172.09c2.9 1.94 5.65 7.58 6.18 11.94-2.47 2.34-5.26 4.64-6.82 7.9-.16-.23-.06-.07-.2-.44-.73-.92-.52-2.22-.85-3.63-.76-3.27-.56-8.09.41-11.08.5-1.5 1.2-2.61 1.28-4.69z" clip-rule="evenodd" style="fill:#bcc0c3;fill-rule:evenodd;stroke:#000;stroke-width:.49692395;stroke-miterlimit:2.61310005" transform="translate(464.29 180.65)"/><path stroke-miterlimit="2.61" d="M-287.2-172.09c2.9 1.94 5.65 7.58 6.18 11.94-2.47 2.34-5.26 4.64-6.82 7.9-.16-.23-.06-.07-.2-.44-.73-.92-.52-2.22-.85-3.63-.76-3.27-.56-8.09.41-11.08.5-1.5 1.2-2.61 1.28-4.69" style="fill:none;stroke:#000;stroke-width:.49692395;stroke-miterlimit:2.61310005" transform="translate(464.29 180.65)"/><path stroke-miterlimit="2.61" d="M-287.41-149.7c-.5 1.46-.7 3.85-.43 5.75.06.32.36.7.22 1.29-.18.74-1.74 5.2-2.14 5.76v.63c1.44-.93 2.5-2.42 3.84-3.43 4.3-3.2 7.98-7.42 7.25-14.26-.11-1.03.26-3.2-.43-4.27 0-.86.03-1.1-.42-1.48-1.96 3.78-6.2 5.19-7.9 10.01z" clip-rule="evenodd" style="fill:#bcc0c3;fill-rule:evenodd;stroke:#000;stroke-width:.49692395;stroke-miterlimit:2.61310005" transform="translate(464.29 180.65)"/><path stroke-miterlimit="2.61" d="M-287.41-149.7c-.5 1.46-.7 3.85-.43 5.75.06.32.36.7.22 1.29-.18.74-1.74 5.2-2.14 5.76v.63c1.44-.93 2.5-2.42 3.84-3.43 4.3-3.2 7.98-7.42 7.25-14.26-.11-1.03.26-3.2-.43-4.27 0-.86.03-1.1-.42-1.48-1.96 3.78-6.2 5.19-7.9 10.01z" clip-rule="evenodd" style="fill:#bcc0c3;fill-rule:evenodd;stroke:#000;stroke-width:.49692395;stroke-miterlimit:2.61310005" transform="translate(464.29 180.65)"/><path stroke-miterlimit="2.61" d="M-287.41-149.7c-.5 1.46-.7 3.85-.43 5.75.06.32.36.7.22 1.29-.18.74-1.74 5.2-2.14 5.76v.63c1.44-.93 2.5-2.42 3.84-3.43 4.3-3.2 7.98-7.42 7.25-14.26-.11-1.03.26-3.2-.43-4.27 0-.86.03-1.1-.42-1.48-1.96 3.78-6.2 5.19-7.9 10.01" style="fill:none;stroke:#000;stroke-width:.49692395;stroke-miterlimit:2.61310005" transform="translate(464.29 180.65)"/><path stroke-miterlimit="2.61" d="M-335.34-146.5c.94.12 1.24.37 2.33.42.47-.84 1.06-1.08 1.7-1.7.82 0 1.34.1 1.92.21.08.46.19 1.56.44 1.93.49.32 1.72.22 2.55.2.47-.81 1.07-1.26 1.69-1.91h1.71q.26.46.65.85v1.05h2.55c.05-.79.2-1.13.43-1.7.6-.27.93-.4 1.92-.42.56.8 1.26 2.04 2.55 2.12.4.28 1.23.25 1.93.23v-.42c-.41-.44-.42-.83-.42-1.71.59-.33 1.05-.43 2.13-.43 2.52 2.4 7.28 4.99 8.53 8.31 1.72 4.68-.05 11.53-2.14 14.5-.88 1.25-2.57 2-3.42 3.2-.7.98-1.07 2.42-2.11 2.98-1.32.7-2.18-.48-3.43 0-1.75.67-1.88 2.29-4.27 2.35-.42-.66-.58-.82-1.7-.85-.9.73-1.55 1.27-3.2 1.27-.53-.98-.92-1.12-2.53-1.06-1.36 1.7-3.68-.86-5.56-1.07-.14.36-.55.4-.2.64 3.04 2.92 10.94 2.73 15.33 1.27 7.97-2.62 12.95-6.1 15.77-13.85 1.21-3.35 1.52-9.01 0-12.36-2.62-5.72-10.88-7.1-18.1-5.76-4.7.88-14.52-.55-16.84-2.14-.88-.58-1.48-1.7-1.93-2.76-1.04.18-1.8.34-2.12 1.28-.6.86 0 2.23.2 2.99h.66c.33-.81.96-1.05 2.12-1.06.66.97.89 1.53.86 3.4zm44.31 13.64c-.56 1.01-.36 1.98-1.08 2.76v.65h.22c.62-1.17 3.75-5.07 3.4-5.97-.52.92-2.21 1.97-2.54 2.56z" clip-rule="evenodd" style="fill:#bcc0c3;fill-rule:evenodd;stroke:#000;stroke-width:.49692395;stroke-miterlimit:2.61310005" transform="translate(464.29 180.65)"/><path stroke-miterlimit="2.61" d="M-291.03-132.86c-.56 1.01-.36 1.98-1.08 2.76v.65h.22c.62-1.17 3.75-5.07 3.4-5.97-.52.92-2.21 1.97-2.54 2.56z" clip-rule="evenodd" style="fill:#bcc0c3;fill-rule:evenodd;stroke:#000;stroke-width:.49692395;stroke-miterlimit:2.61310005" transform="translate(464.29 180.65)"/><path stroke-miterlimit="2.61" d="M-291.03-132.86c-.56 1.01-.36 1.98-1.08 2.76v.65h.22c.62-1.17 3.75-5.07 3.4-5.97-.52.92-2.21 1.97-2.54 2.56" style="fill:none;stroke:#000;stroke-width:.49692395;stroke-miterlimit:2.61310005" transform="translate(464.29 180.65)"/><path stroke-miterlimit="2.61" d="M-293.37-113.67c-1.38.85-3.87.88-5.33 1.7-1.74.97-3.13 2.69-4.68 3.83-3.86 2.87-7.96 6.13-13.01 7.69-7.35 2.25-12.65-3.25-11.93-9.4-.4-.12-.82-.2-1.49-.2l-1.28 1.5c-.15 2.5-.63 4.7.22 7.03 1.81 4.98 7.97 7.6 14.48 5.32 6.06-2.1 11.16-5.55 16-8.96 1.78-1.26 3.34-3.45 5.32-4.47 3.67-1.87 7.52.6 10.43 1.3v-.44c-.4-.56-.44-1.35-.85-1.92-1.36-1.9-4.68-2.98-7.88-2.98z" clip-rule="evenodd" style="fill:#bcc0c3;fill-rule:evenodd;stroke:#000;stroke-width:.49692395;stroke-miterlimit:2.61310005" transform="translate(464.29 180.65)"/><path stroke-miterlimit="2.61" d="M-319.8-61.88v-.22h.22c.72-.9 1.9-1.35 2.77-2.12 1.14-1.01 2.18-2.3 3.19-3.41q.11.11.23.2c1.43.5 2.34 1.9 3.62 2.57s3.05 1.14 4.46 1.48c6.77 1.66 13-4.92 15.33-8.09a152 152 0 0 0 6.84-10.02c4.4-7 7.91-13.65 19.39-13.64v-.21c-2.63-2.6-3.25-3.03-8.53-3-.99.68-2.49.6-3.61 1.08-2.36 1-4.59 3.08-6.2 4.9-2.18 2.49-3.5 5.66-5.32 8.52-2.48 3.97-5.5 7.47-8.5 10.87-2.44 2.75-6.77 5.7-12.38 3.84a9.5 9.5 0 0 1-4.68-3.6c-.56-.95-.33-2.25-1.27-2.79-1.14 4.53-6.87 10.62-11.08 12.14a8.5 8.5 0 0 1-9.8-3.18c-2.17-3.36-.38-7.1 0-10.45h-.22c-1.7 1.23-5.74.55-7.47 0-5.45-1.71-5.58-3.95-6.8-9.81a8 8 0 0 1 0-3.62c.55-1.97 1.74-3.2 2.33-4.9h-.85c-.74.53-1.79.56-2.56 1.07-1.66 1.08-3.26 3.6-4.04 5.53-2.32 5.73 1.42 12.05 4.46 14.08 1.56 1.02 4.04 1.6 5.98 2.12 1.36.38 2.86.14 3.83.86.65 1.08.26 4.14.65 5.53.44 1.69 1.33 2.98 2.11 4.27 0 0 7.19 7.32 17.9 0zm-17.47-86.76c-2.83 4.68-9.69 14.1-5.54 20.9 1.7 2.76 4.22 4.1 6.82 5.96 1.26.91 2.35 2.86 4.05 3.2.12-.34.19-.52.23-1.07-3.58-2.68-10.94-10.58-8.75-17.47 1.21-3.82 3.67-6.9 4.05-11.31l-.2-.21z" clip-rule="evenodd" style="fill:#bcc0c3;fill-rule:evenodd;stroke:#000;stroke-width:.49692395;stroke-miterlimit:2.61310005" transform="translate(464.29 180.65)"/><path stroke-miterlimit="2.61" d="M-331.3-146.92c-1.95 2.87-7.27 10.2-5.54 15.55 1.06 3.32 3.31 5.39 5.12 7.88 1.37 1.92 2.41 5.92 5.32 6.2.12-.35.17-.52.2-1.07-1.14-1.27-1.42-3.2-2.33-4.7-2.42-3.92-4.36-6.75-4.7-12.36-.2-3.34 2.68-8.23 3.41-11.3l-.2-.2zm18.75 0c.25 1.39 1.19 2.3 1.7 3.4 1.02 2.15.96 4.97 1.5 7.47 1.39 6.42-2.49 11.65-2.57 16.62l1.29-.2c2.68-4.18 6.73-11.52 4.47-18.98-1.23-4.05-2.92-5.5-5.1-8.31zm-5.11.21c4.27 6.72 5.36 21.7.85 29.41h-1.06c-.5-2.6.96-5.92.2-9.17-.78-3.38-.62-8.03-.62-11.29-.02-3.1-1.22-6.7-.23-8.95z" clip-rule="evenodd" style="fill:#bcc0c3;fill-rule:evenodd;stroke:#000;stroke-width:.49692395;stroke-miterlimit:2.61310005" transform="translate(464.29 180.65)"/><path stroke-miterlimit="2.61" d="m-323.42-146.5.21.2c0 2.5-1.35 6.48-.83 8.97.28 1.42.03 3.3.4 4.9.57 2.3 1.15 5.12 1.71 7.46.4 1.59 1.03 6.82.2 7.89l-.2.43c-1.85-.7-1.83-4.1-2.56-5.97-.95-2.48-2.37-5.04-3.2-7.68-1.71-5.62 1.18-13.13 3.2-16.2z" clip-rule="evenodd" style="fill:#bcc0c3;fill-rule:evenodd;stroke:#000;stroke-width:.49692395;stroke-miterlimit:2.61310005" transform="translate(464.29 180.65)"/></svg>