<svg xmlns="http://www.w3.org/2000/svg" xmlns:xlink="http://www.w3.org/1999/xlink" width="300" height="425.13"><defs><radialGradient id="g" cx="57.88" cy="101.08" r="25.43" fx="57.88" fy="101.08" gradientUnits="userSpaceOnUse"><stop offset="0" style="stop-color:#75c5f0"/><stop offset="1" style="stop-color:#007cc3"/></radialGradient><radialGradient id="f" cx="68.05" cy="154.43" r="24.2" fx="68.05" fy="154.43" gradientUnits="userSpaceOnUse"><stop offset="0" style="stop-color:#84c225"/><stop offset="1" style="stop-color:#00923f"/></radialGradient><radialGradient id="e" cx="76.13" cy="100.8" r="17.31" fx="76.13" fy="100.8" gradientUnits="userSpaceOnUse"><stop offset="0" style="stop-color:#75c5f0"/><stop offset="1" style="stop-color:#0071bc"/></radialGradient><radialGradient id="d" cx="182.03" cy="101.36" r="28.32" fx="182.03" fy="101.36" gradientUnits="userSpaceOnUse"><stop offset="0" style="stop-color:#75c5f0"/><stop offset=".76" style="stop-color:#3aa0d9"/><stop offset="1" style="stop-color:#007cc3"/></radialGradient><radialGradient id="c" cx="59.94" cy="101.36" r="28.32" fx="59.94" fy="101.36" gradientUnits="userSpaceOnUse"><stop offset="0" style="stop-color:#99ae6a"/><stop offset="1" style="stop-color:#00923f"/></radialGradient><radialGradient id="b" cx="59.18" cy="101.31" r="68.01" fx="59.18" fy="101.31" gradientUnits="userSpaceOnUse"><stop offset="0" style="stop-color:white"/><stop offset="1" style="stop-color:#e3e4e5"/></radialGradient><radialGradient id="a" cx="59.37" cy="112.77" r="28.53" fx="59.37" fy="112.77" gradientUnits="userSpaceOnUse"><stop offset="0" style="stop-color:#fff500"/><stop offset="1" style="stop-color:#eac102"/></radialGradient><radialGradient xlink:href="#a" id="n" cx="59.47" cy="104.12" r="130.15" fx="59.47" fy="104.12" gradientUnits="userSpaceOnUse"/><radialGradient xlink:href="#b" id="q" cx="59.18" cy="101.31" r="68.01" fx="59.18" fy="101.31" gradientUnits="userSpaceOnUse"/><radialGradient xlink:href="#c" id="r" cx="59.94" cy="101.36" r="28.32" fx="59.94" fy="101.36" gradientUnits="userSpaceOnUse"/><radialGradient xlink:href="#a" id="s" cx="59.37" cy="112.77" r="28.53" fx="59.37" fy="112.77" gradientUnits="userSpaceOnUse"/><radialGradient xlink:href="#d" id="t" cx="182.03" cy="101.36" r="28.32" fx="182.03" fy="101.36" gradientUnits="userSpaceOnUse"/><radialGradient xlink:href="#e" id="u" cx="76.13" cy="100.8" r="17.31" fx="76.13" fy="100.8" gradientUnits="userSpaceOnUse"/><radialGradient xlink:href="#e" id="x" cx="99.79" cy="102.63" r="13.04" fx="99.79" fy="102.63" gradientUnits="userSpaceOnUse"/><radialGradient xlink:href="#e" id="y" cx="182.03" cy="111.48" r="31.59" fx="182.03" fy="111.48" gradientUnits="userSpaceOnUse"/><radialGradient xlink:href="#f" id="z" cx="68.05" cy="154.43" r="24.2" fx="68.05" fy="154.43" gradientUnits="userSpaceOnUse"/><radialGradient xlink:href="#g" id="A" cx="57.88" cy="101.08" r="25.43" fx="57.88" fy="101.08" gradientUnits="userSpaceOnUse"/><linearGradient id="m" x1="103.7" x2="122.6" y1="82.21" y2="106.69" gradientUnits="userSpaceOnUse"><stop offset="0" style="stop-color:#84c225"/><stop offset="1" style="stop-color:#00923f"/></linearGradient><linearGradient id="l" x1="83.47" x2="82.99" y1="71.49" y2="49.05" gradientUnits="userSpaceOnUse"><stop offset="0" style="stop-color:#007cc3"/><stop offset="1" style="stop-color:#75c5f0"/></linearGradient><linearGradient id="j" x1="127.65" x2="133.36" y1="43.74" y2="69.95" gradientUnits="userSpaceOnUse"><stop offset="0" style="stop-color:#75c5f0"/><stop offset="1" style="stop-color:#28166f"/></linearGradient><linearGradient xlink:href="#j" id="o" x1="127.65" x2="133.36" y1="43.74" y2="69.95" gradientUnits="userSpaceOnUse"/><linearGradient xlink:href="#l" id="p" x1="83.47" x2="82.99" y1="71.49" y2="49.05" gradientUnits="userSpaceOnUse"/><linearGradient xlink:href="#m" id="v" x1="103.7" x2="122.6" y1="82.21" y2="106.69" gradientUnits="userSpaceOnUse"/><linearGradient xlink:href="#m" id="w" x1="104.83" x2="145.13" y1="94.94" y2="147.11" gradientUnits="userSpaceOnUse"/></defs><g style="fill-rule:evenodd" transform="scale(1.55515)"><path d="M151.13 79.63v15.45h18.27l5.94-32.34-3.67.97c-1.32-6.4-3.6-10.16-6.28-12.59v28.51zm0 169.92v10.74H41.78V249.6c-23.68-3.17-32.49-16.38-32.1-39.06.76-43.05 0-77.02 0-115.46-4.62-9.43-5.44-20.9-3.92-26.25l-1.49.1c.05-8.7 2.64-16 7.6-21.98a34 34 0 0 1 3.66-15.19h-.1c-2.2-.82-4.03-1.41-5.46-3.42 1.59-1.91 3.15-3.47 5.32-4.15-2.92-4.02-2.96-9.24-1.52-15.08 2.91 4.1 6.23 7 9.86 8.93a9.7 9.7 0 0 1-2.13-7.73c2.64 1.99 5.3 3.2 8.17 3.95h35.88V0h61.8v14.26h35.54a23 23 0 0 0 8.17-3.95 9.7 9.7 0 0 1-2.13 7.73 29 29 0 0 0 9.86-8.93c1.44 5.84 1.4 11.06-1.52 15.08 2.17.68 3.73 2.24 5.32 4.15-1.43 2-3.26 2.6-5.45 3.43h-.1a34 34 0 0 1 3.65 15.18c4.96 5.98 7.56 13.27 7.6 21.98l-1.49-.1c1.52 5.34.7 16.82-3.93 26.25 0 38.44-.75 72.41 0 115.46.4 22.57-8.32 35.76-31.74 39.01M41.78 95.08V79.63H23.95V55.15a28 28 0 0 0-3.06 8.56l-3.67-.97 5.94 32.34z" class="fil0" style="fill:url(#n)"/><path d="M10.26 244.48h.05l-.01.01 31.48 18.18h109.35l31.48-18.18v-.01h.03c2.22-1.18 4.15-1.74 5.15 0l4.64 8.03-.03.02q.49.8.5 1.78a3.38 3.38 0 1 1-6.75-.25l-27.01 15.6c-3.24 1.87-7.72 3.7-10.39 3.7H44.15c-2.67 0-7.14-1.83-10.38-3.7l-27.01-15.6v.25a3.38 3.38 0 1 1-6.25-1.78l-.03-.02 4.63-8.03c1-1.74 2.93-1.18 5.15 0" class="fil1" style="fill:#eac102"/><path d="M189.68 256.44a2.2 2.2 0 0 1-2.18-2.46l-2.74.88 4.03-2.33c.66-.38 2.15-.5 2.47-.06.35.48.61.88.61 1.77 0 .9-.98 2.2-2.2 2.2" class="fil2" style="fill:#c0a062"/><path d="m80.53 254.42-.18-.54c3.18 0 5.13-2.7 8.26-2.7 1.7 0 5.2-.44 5.2 1.8 0 1.37-.04.6-.71.36-3.02-1.04-4.37 1.97-5.93 3.05-1.58 1.1-6.64-.13-6.64-1.97" class="fil3 str0" style="fill:#00894c;stroke:#1f1a17;stroke-width:.71440399;stroke-linecap:round;stroke-linejoin:round"/><path d="M70.11 233.77c.16-.15-.57.53-.36.53 5.45.19 10.9-.27 16.34 0 1.72.1 3.65.08 5.03 1.08a11 11 0 0 1 4.13 5.57c.99 3.52-.67 6.8-3.4 8.62-3.54 2.34-7.48 4.52-11.68 5.03a20.6 20.6 0 0 1-11.85-2.16c-3.71-1.95-9.39-4.62-8.98-8.8.46-4.85 7.14-6.62 10.77-9.87" class="fil1 str0" style="fill:#eac102;stroke:#1f1a17;stroke-width:.71440399;stroke-linecap:round;stroke-linejoin:round"/><path d="M95.29 243.05H60.36m35.01-1.92a123 123 0 0 0-31-2.09" class="fil4 str0" style="fill:none;stroke:#1f1a17;stroke-width:.71440399;stroke-linecap:round;stroke-linejoin:round"/><path d="M95.37 241.13a123 123 0 0 0-31-2.09m29.85-.13c-9.4-3.57-18.43-4.43-28.86-3.9m29.84 9.89a123 123 0 0 1-30.99 2.1m29.84.12c-9.39 3.57-19.32 4.52-29.76 3.98" class="fil4 str0" style="fill:none;stroke:#1f1a17;stroke-width:.71440399;stroke-linecap:round;stroke-linejoin:round"/><path d="M93.9 238.79q-1.32 4.35 0 8.38" class="fil4 str0" style="fill:none;stroke:#1f1a17;stroke-width:.71440399;stroke-linecap:round;stroke-linejoin:round"/><path d="M93.9 238.79q-1.32 4.35 0 8.38m-1.32-10.43c-2.66 2.49-3 8.76-.41 12.07" class="fil4 str0" style="fill:none;stroke:#1f1a17;stroke-width:.71440399;stroke-linecap:round;stroke-linejoin:round"/><path d="M92.58 236.74c-2.66 2.49-3 8.76-.41 12.07m-2.71-12.07c-2.67 2.49-3 10.32.49 13.63" class="fil4 str0" style="fill:none;stroke:#1f1a17;stroke-width:.71440399;stroke-linecap:round;stroke-linejoin:round"/><path d="M89.46 236.74c-2.67 2.49-3 10.32.49 13.63M86 236.74c-2.65 2.49-3 10.32.5 13.63" class="fil4 str0" style="fill:none;stroke:#1f1a17;stroke-width:.71440399;stroke-linecap:round;stroke-linejoin:round"/><path d="M86 236.74c-2.65 2.49-3 10.32.5 13.63m-3.94-13.63c-2.66 2.49-2.43 11.47 1.07 14.78" class="fil4 str0" style="fill:none;stroke:#1f1a17;stroke-width:.71440399;stroke-linecap:round;stroke-linejoin:round"/><path d="M82.56 236.74c-2.66 2.49-2.43 11.47 1.07 14.78m-4.6-14.78c-2.67 2.49-2.43 12.04 1.06 15.36" class="fil4 str0" style="fill:none;stroke:#1f1a17;stroke-width:.71440399;stroke-linecap:round;stroke-linejoin:round"/><path d="M79.03 236.74c-2.67 2.49-2.43 12.04 1.06 15.36m-4.76-15.36c-2.66 2.49-2.43 12.04 1.07 15.36" class="fil4 str0" style="fill:none;stroke:#1f1a17;stroke-width:.71440399;stroke-linecap:round;stroke-linejoin:round"/><path d="M75.33 236.74c-2.66 2.49-2.43 12.04 1.07 15.36m-4.85-15.36c-2.66 2.49-2.43 12.04 1.07 15.36" class="fil4 str0" style="fill:none;stroke:#1f1a17;stroke-width:.71440399;stroke-linecap:round;stroke-linejoin:round"/><path d="M56.82 248.13c6.38 1.82 8.83 5.9 14.73 8.08 3.74 1.4 9.96.02 12.93-1.61 1.2-.66 1.72-1.4 2.33-2.16 1.94-2.39.3-3.49-1.8-1.8-1.64 1.35-8.49 1.73-10.95.73-2.86-1.18-5.17-2.32-7-4.85-.7-.98-2.3-3.28-3.23-3.6z" class="fil3 str0" style="fill:#00894c;stroke:#1f1a17;stroke-width:.71440399;stroke-linecap:round;stroke-linejoin:round"/><path d="M56.82 235.92v.9c2.76 1.27 5.73 1.3 7.72-1.44 5.97-8.17 17.1-1.43 25.15-1.43 2.55 0 4.3-3.5 4.3-1.08 0 6.95-16.07 3.69-20.65 5.57-7.6 3.11-8.34 10.95-19.4 10.95z" class="fil3 str0" style="fill:#00894c;stroke:#1f1a17;stroke-width:.71440399;stroke-linecap:round;stroke-linejoin:round"/><path d="M168 72.32c-6.77-2.07-7.62-4.63-14.25-9.3-2.97-2.27-4.23-4.55-7.2-6.83-1.39-4.3-5.57-6.94-7.98-9.68a34 34 0 0 0-7.21-7.78q-3.6 1.14-6.46 5.31a27 27 0 0 1-5.31 8.73c-8.03 5.2-14.55 12.67-21.45 19.55z" class="fil5" style="fill:#007cc3"/><path d="M148.88 58.27c-.69-.7-1.43-1.39-2.34-2.08-1.38-4.3-5.56-6.94-7.97-9.68a34 34 0 0 0-7.21-7.78q-3.6 1.14-6.46 5.31a27 27 0 0 1-5.31 8.73 55 55 0 0 0-2.84 1.98c.23 2.02 2.62.77 3.6.3 1.14-.55 7.42.37 7.97 1.7 2.27 5.55 1.38-8.3 8.54-1.13.64.64 2.32 2.92 3.42 2.28 2.8-1.65 3.17-1.04 7.21 0z" class="fil6" style="fill:#fff"/><path d="M130.56 39.02q-3.13 1.32-5.66 5.02a27 27 0 0 1-5.31 8.73 66 66 0 0 0-8.17 6.36q-.34.72-.52 1.37l49.38 10.16c3.86 0-5.17-4.4-5.17-4.46 0-1.36-1.98-2.78-3.2-3.2-1.46-.5-1.98-2.49-3.04-1.43-.3.3-1.25.89-1.78.35-.8-.79.61-1.33-.9-1.78-1.6-2.14-1.76-4.54-3.38-6.6-.84-1.05-2.13.88-4.28-3.03-2.22-4.01-.36-.03-.36.54 0 .83-1.09 3.49-1.25 1.6 0-.07-1.94-2.85-1.96-2.85-.74-.1-1.17.96-1.42.18-.12-.36-.87-2.83-1.07-1.25-.04.33.19 2.67-.72 1.96a4 4 0 0 1-1.42-3.74c0-.01 4.06-4.68.71-3.75-.64.18-1.77 1.79-2.14 1.79 0 0 .24-2.35.36-2.5.95-1.17 1.29-.95 2.32-1.78 1.1-.9.02-1.57-1.02-1.69" class="fil7" style="fill:url(#o);fill-opacity:.50196078"/><path d="m25.9 73.08 3.47-2.23c8.03-5.6 15.47-12.5 20.84-24.06 2.51.48 4.15-.8 5.95-1.74 3.06 3.98 7.28 6.2 11.66 8.2 2.9 2.06 5.46 5.12 7.7 7.18q1.23 1.5 2.47 0 2.24-4.34 4.47-5.7.99-2.35 3.97-.75l2.23 2.49 3.22-2.49c1.16-1.07 2.32-1.15 3.48-1.48 1.81-.91 3.63-.33 5.45.74l3.48 1 3.22-2 4.22.5c4.96-1.74 8.76 0 12.4 2.24q1.73.75 3.47-.5l4.72 4.47 14.63 5.2 16.62 6.45 4.47 2.48z" class="fil8" style="fill:#0093dd"/><path d="M46.13 54.16a58 58 0 0 0 4.08-7.37c2.51.48 4.15-.8 5.95-1.74 3.06 3.98 7.28 6.2 11.66 8.2a31 31 0 0 1 3.57 3.07c-2 .36-3.85.75-5.3-.1-1.31-.77-7.24-4.68-6.2-1.99 1.18 3.07-2.2-.04-2.49-.99-.94-3.14-5.24-3.28-5.7.74-.2 1.66-.76 2.01-1 0-.59-5.13-2.3-1.6-4.57.18m34.58 2.1a8 8 0 0 1 1.75-1.53q.99-2.35 3.97-.75l2.23 2.49 3.22-2.49c1.16-1.07 2.32-1.15 3.48-1.48 1.81-.91 3.63-.33 5.45.74l3.48 1 3.22-2 4.22.5c4.96-1.74 8.76 0 12.4 2.24q1.73.75 3.47-.5l4.72 4.47 3.07 1.1c-4.64 0-9.97-.3-11.76-2.1-1.56-1.56-4.04-2.35-4.21-1.98-.46.96-2.51 5.93-4.22 3.47-1.02-1.47-8.27-3.88-9.43-2.73-3.53 3.54-6.27 3.68-10.91 0-2.32-1.83-4.7 2.24-5.95 2.24-2.17 0-4.96-4.06-5.7-2.73-.33.57-1.24.35-2.5.03" class="fil6" style="fill:#fff"/><path d="M104.78 55.22c1.41 1.53 3.15 4.05 3.72 3.48.67-.67.6.99 1.74.99 2.55 0 1.68 2.37 2.98 3.97 4.25 5.23 3.23-6.52 7.19.5.53.94 4.09.63 4.96 1.73 1.4 1.77 2.46 2.52 4.47.75.78-.7-7.98-4.58-2.24-3.23 1.5.35 2.98 1.99 4.22 1.99 2.77 0 1.8-3.92 5.95.24.67.67 1.54-1.02 1.99-.74 3.6 2.25-5.9 4.71-8.44 4.71h-11.16c-3.4 0-5.07-3.38-6.2-.5-1.13 2.9-3.88-2.12-3.97-2.23-1.1-1.34-1.85-6.12-3.47-5.95-3.83.4-5.25-3.58-1.99-5.2M25.9 73.07l3.47-2.23c7.87-5.49 15.18-12.23 20.53-23.4.05 1.06.23 2.3.8 3.31.74 1.3 2 2.32 2-.5 0-1.34 4.95.8 4.95 1.24 0 2.58.71 5.4 1.74 7.45 1.9 3.8 2.2-1.24 3.47-1.24 4.8 0-2.36 9.1-4.71 4.96-.47-.84-5.21-5.96-5.21-2.73 0 1.13-.62 5.6-.25 6.2.65 1.03 10.86 3.93 16.77 6.94zm97.24-14.63-.5.5c-.88-1.63-2.95-4.27-5.2-3.97-.18.02-.52.47-.75.24-.63-.62-.53-1.99-1.24-.74-.33.59-.25 1.02-.25 1.74 0 .84 1.69.5 2.48.5 1.78 0 .57.38 1 1.48.2.55.97.68 1.48 1 .7.43.42.38 1.24.49.35.05.85 1.05 1.49.25.17-.22.79-1.31.25-1.49m-49.27.38.12.12h-.21zm2.94 2.35q.6-.04 1.18-.75 2.24-4.34 4.47-5.7.75-1.79 2.65-1.3c-.15 2.27-.3 6.44 2.06 3.53q.45-.53.98-1.06l.5.57 3.23-2.49.48-.39q-.44.49-1.22 1.14c-4.55 3.7 1.1 3.27 2.73 0 1.92-3.84 2.08.72 2.48 1.24 1.6 2.1-.78 4-1.74 4.96-.92.92-1.12 6.45.75 6.45 5.12 0 2.4-3.8 5.7-5.46.6-.3-1 1.83-1 2.98 0 1.74.35 1.8-.49 3.47-2.76 5.53-7.3.12-9.67-.5-2.6-.67-2.34-.99-4.96-.99-2.73 0-5.59-3.19-8.13-5.7" class="fil9" style="fill:url(#p);fill-opacity:.50196078"/><path d="m55.8 74.4-2.45-2.46c8.81.38 17.01-5.07 26.3-5.07 1.82 0 12.6-5.2 13.9-6.5 3.34-3.33 12.46 4.7 18.24 4.7 5.7 0 6.6 1.47 12.28 2.88 1.11.28 12.74 6.22 11.52 5.22z" class="fil10" style="fill:#84c225"/><path d="m55.8 74.4-2.04-2.05 1.04-.4c8.26-.21 16.07-5.08 24.85-5.08 1.43 0 8.37-3.2 11.92-5.2-.78.75-1.37 1.47-1.45 2.13-.5 4.4 1.07 3.07 3.07 1.44 2.4-1.94.86 2.9 3.43 2.9 1.42 0 3.8 2.37 3.8.35 0-3.04 3.87 2.96 5.95 1.27.64-.52 6.32.48 6.32-2.17 0-3.65 1.09-1.32 1.09 1.09 0 1.72.32 1.55 1.62 1.08 2.76-1 7.9 1.63 11.1 3.55z" class="fil11" style="fill:#00923f"/><path d="m112.38 254.42.18-.54c-3.18 0-5.13-2.7-8.26-2.7-1.7 0-5.2-.44-5.2 1.8 0 1.37.04.6.71.36 3.01-1.04 4.37 1.97 5.93 3.05 1.58 1.1 6.64-.13 6.64-1.97" class="fil3 str0" style="fill:#00894c;stroke:#1f1a17;stroke-width:.71440399;stroke-linecap:round;stroke-linejoin:round"/><path d="M122.8 233.77c-.16-.15.57.53.36.53-5.45.19-10.9-.27-16.35 0-1.7.1-3.64.08-5.03 1.08a11 11 0 0 0-4.13 5.57c-.98 3.52.68 6.8 3.42 8.62 3.52 2.34 7.46 4.52 11.67 5.03 3.99.49 8.3-.29 11.85-2.16 3.71-1.95 9.38-4.62 8.98-8.8-.46-4.85-7.15-6.62-10.77-9.87" class="fil1 str0" style="fill:#eac102;stroke:#1f1a17;stroke-width:.71440399;stroke-linecap:round;stroke-linejoin:round"/><path d="M97.62 243.05h34.93m-35.01-1.92a123 123 0 0 1 31-2.09" class="fil4 str0" style="fill:none;stroke:#1f1a17;stroke-width:.71440399;stroke-linecap:round;stroke-linejoin:round"/><path d="M97.54 241.13a123 123 0 0 1 31-2.09m-29.84-.13c9.38-3.57 18.41-4.43 28.85-3.9M97.7 244.9a123 123 0 0 0 31 2.1m-29.84.12c9.39 3.57 19.32 4.52 29.75 3.98" class="fil4 str0" style="fill:none;stroke:#1f1a17;stroke-width:.71440399;stroke-linecap:round;stroke-linejoin:round"/><path d="M99.02 238.79q1.3 4.35 0 8.38" class="fil4 str0" style="fill:none;stroke:#1f1a17;stroke-width:.71440399;stroke-linecap:round;stroke-linejoin:round"/><path d="M99.02 238.79q1.3 4.35 0 8.38m1.31-10.43c2.66 2.49 3 8.76.41 12.07" class="fil4 str0" style="fill:none;stroke:#1f1a17;stroke-width:.71440399;stroke-linecap:round;stroke-linejoin:round"/><path d="M100.33 236.74c2.66 2.49 3 8.76.41 12.07m2.71-12.07c2.66 2.49 3 10.32-.5 13.63" class="fil4 str0" style="fill:none;stroke:#1f1a17;stroke-width:.71440399;stroke-linecap:round;stroke-linejoin:round"/><path d="M103.45 236.74c2.66 2.49 3 10.32-.5 13.63m3.95-13.63c2.66 2.49 3 10.32-.5 13.63" class="fil4 str0" style="fill:none;stroke:#1f1a17;stroke-width:.71440399;stroke-linecap:round;stroke-linejoin:round"/><path d="M106.9 236.74c2.66 2.49 3 10.32-.5 13.63m3.95-13.63c2.66 2.49 2.43 11.47-1.07 14.78" class="fil4 str0" style="fill:none;stroke:#1f1a17;stroke-width:.71440399;stroke-linecap:round;stroke-linejoin:round"/><path d="M110.35 236.74c2.66 2.49 2.43 11.47-1.07 14.78m4.6-14.78c2.66 2.49 2.43 12.04-1.07 15.36" class="fil4 str0" style="fill:none;stroke:#1f1a17;stroke-width:.71440399;stroke-linecap:round;stroke-linejoin:round"/><path d="M113.88 236.74c2.66 2.49 2.43 12.04-1.07 15.36m4.77-15.36c2.66 2.49 2.43 12.04-1.07 15.36" class="fil4 str0" style="fill:none;stroke:#1f1a17;stroke-width:.71440399;stroke-linecap:round;stroke-linejoin:round"/><path d="M117.58 236.74c2.66 2.49 2.43 12.04-1.07 15.36m4.85-15.36c2.66 2.49 2.42 12.04-1.07 15.36" class="fil4 str0" style="fill:none;stroke:#1f1a17;stroke-width:.71440399;stroke-linecap:round;stroke-linejoin:round"/><path d="M136.09 248.13c-6.38 1.82-8.83 5.9-14.73 8.08-3.74 1.4-9.96.02-12.93-1.61-1.2-.66-1.72-1.4-2.33-2.16-1.95-2.39-.3-3.49 1.8-1.8 1.64 1.35 8.49 1.73 10.95.73 2.86-1.18 5.17-2.32 7-4.85.7-.98 2.29-3.28 3.23-3.6z" class="fil3 str0" style="fill:#00894c;stroke:#1f1a17;stroke-width:.71440399;stroke-linecap:round;stroke-linejoin:round"/><path d="M136.09 235.92v.9c-2.76 1.27-5.73 1.3-7.73-1.44-5.97-8.17-17.09-1.43-25.14-1.43-2.55 0-4.3-3.5-4.3-1.08 0 6.95 16.07 3.69 20.64 5.57 7.6 3.11 8.35 10.95 19.4 10.95z" class="fil3 str0" style="fill:#00894c;stroke:#1f1a17;stroke-width:.71440399;stroke-linecap:round;stroke-linejoin:round"/><path d="m159.2 42.1-5.46 4.75c9.54 10.33 7.08 31.87 6.65 51.5l9.26-3.79 2.13-42.72z" class="fil12 str0" style="fill:#da251d;stroke:#1f1a17;stroke-width:.71440399;stroke-linecap:round;stroke-linejoin:round"/><path d="M182.92 95.08c5.36-10.92 5.6-24.59 3.04-28.29l-1.19-6.17-9.25 1.42-6.07 33.04h-28.13v155.24c30.87-.76 42.04-14.28 41.6-39.78-.75-43.05 0-77.02 0-115.46" class="fil1 str0" style="fill:#eac102;stroke:#1f1a17;stroke-width:.71440399;stroke-linecap:round;stroke-linejoin:round"/><path d="M159.44 45.43c9.17 16.55 12.62 33.1 3.59 49.65h-21.41v144.54h1.76c27.95 0 29.14-23.55 29.14-29.08V95.08c8.57-23.96 8.2-35.4-9.52-55.11z" class="fil5 str0" style="fill:#007cc3;stroke:#1f1a17;stroke-width:.71440399;stroke-linecap:round;stroke-linejoin:round"/><path d="M130.92 225.83h13.07v32.09h-13.07z" class="fil5 str1" style="fill:#007cc3;stroke:#1f1a17;stroke-width:.71440399"/><path d="M134.49 222.11h15.45v29.87h-15.45z" class="fil3 str0" style="fill:#00894c;stroke:#1f1a17;stroke-width:.71440399;stroke-linecap:round;stroke-linejoin:round"/><path d="M134.49 222.11h4.75v29.87h-4.75z" class="fil1 str0" style="fill:#eac102;stroke:#1f1a17;stroke-width:.71440399;stroke-linecap:round;stroke-linejoin:round"/><path d="m155.88 45.67 24.92 5.93a34.8 34.8 0 0 0-6.17-24.45c5.78-4.23 6.33-10.64 4.51-18.04-7.98 11.2-18.92 13.5-31.33 11.4l-2.14 13.29z" class="fil11 str0" style="fill:#00923f;stroke:#1f1a17;stroke-width:.71440399;stroke-linecap:round;stroke-linejoin:round"/><path d="m146.39 34.04-.95 1.66 4.27 12.58c3.8 1.74 6.64 2.53 7.12-2.61zm31.1-2.27c-9.5-.2-16.63-1.1-26.12-3.2v-2.6c8.8-1.45 15.74-1.88 25.18-2.03 2.75.44 4.55 2.19 6.39 4.4-1.44 2-3.26 2.6-5.46 3.43M181 61.35l-8.98 2.36q-2.13-10.33-7.12-16.86l4.88-2.86c-5.09-4-11.71-7.5-19.6-10.9l.95-2.85c24.15 6.46 37.4 18.94 37.5 38.69l-7.35-.48q.3-3.77-.28-7.1" class="fil10 str0" style="fill:#84c225;stroke:#1f1a17;stroke-width:.71440399;stroke-linecap:round;stroke-linejoin:round"/><path d="M147.81 19.8c4.99 6.6 6.01 12.61-1.66 17.32l-26.11-5.7-.24-2.84 17.8 2.37-18.98-4.75.23-2.37 15.67 1.19-5.22-.95v-3.8z" class="fil12 str0" style="fill:#da251d;stroke:#1f1a17;stroke-width:.71440399;stroke-linecap:round;stroke-linejoin:round"/><path d="M148.29 20.03c-3.64 0-7.52 1.66-8.79 4.99.14.71 12.61 3.65 8.78-4.99" class="fil6 str0" style="fill:#fff;stroke:#1f1a17;stroke-width:.71440399;stroke-linecap:round;stroke-linejoin:round"/><path d="M140.33 23.2a9 9 0 0 1-4.16-1.61c2.43-2.25 7.58-6.04 10.89-6.07 10.55-.1 17.5-.05 24.34-5.2.7 3.84-1.27 11.2-10.98 11.17-6.21-.01-13.49-.8-20.09 1.7" class="fil10 str0" style="fill:#84c225;stroke:#1f1a17;stroke-width:.71440399;stroke-linecap:round;stroke-linejoin:round"/><path d="m180.33 46.14-3.32-5.46-7.84 4.27 4.04 4.99z" class="fil6 str0" style="fill:#fff;stroke:#1f1a17;stroke-width:.71440399;stroke-linecap:round;stroke-linejoin:round"/><path d="M177.55 203c.02-.26-.17-.49-.41-.5-.25-.02-.46.18-.48.44-.02.27.16.5.4.51s.47-.18.49-.44m3.13 7.82c-.81.52-.81.52-1.58.47-1.34-.1-.05-2.7 0-3.28l-.04-1.35c-.36-.41-.59-1.07-1.54-1.14a.8.8 0 0 1-.76-.92c.09-1.15 1.55-.88 2.31-.83.96.07 2.06.92 2 1.69zm-.25-7.24c.02-.22-.06-.4-.17-.4-.12-.02-.22.15-.24.37s.06.4.18.4c.11.02.22-.15.23-.37m-.67-.27c.02-.27-.07-.49-.21-.5s-.27.2-.29.46.08.49.22.5c.14 0 .26-.2.28-.46m-.7-.2c.01-.26-.08-.48-.22-.49-.14 0-.27.2-.29.46-.02.27.08.49.22.5.14 0 .26-.2.28-.46m-.79-.12c.02-.26-.08-.48-.21-.5-.14 0-.27.2-.29.47s.08.48.22.5c.13 0 .26-.2.28-.47" class="fil13" style="fill:#1f1a17"/><circle cx="184.91" cy="104.17" r="6.4" class="fil13" style="fill:#1f1a17"/><circle cx="184.91" cy="104.17" r="2.8" class="fil6" style="fill:#fff"/><circle cx="184.91" cy="139.39" r="6.4" class="fil13" style="fill:#1f1a17"/><circle cx="184.91" cy="139.39" r="2.8" class="fil6" style="fill:#fff"/><circle cx="184.91" cy="177.02" r="6.4" class="fil13" style="fill:#1f1a17"/><circle cx="184.91" cy="177.02" r="2.8" class="fil6" style="fill:#fff"/><circle cx="184.91" cy="219.05" r="6.4" class="fil13" style="fill:#1f1a17"/><circle cx="184.91" cy="219.05" r="2.8" class="fil6" style="fill:#fff"/><path d="M177.93 184.72c-.02-.26.16-.49.4-.5s.47.18.49.44-.17.5-.41.51c-.25.02-.46-.18-.48-.45m-3.13 7.82c.8.52.8.52 1.57.46 1.34-.1.05-2.7.01-3.27-.01-.2.04-1.35.04-1.35.35-.42.58-1.07 1.54-1.14.38-.03.8-.35.75-.92-.08-1.15-1.54-.89-2.3-.83-.97.07-2.06.92-2 1.68zm.24-7.24c-.01-.22.07-.4.18-.41s.22.16.23.38c.02.21-.06.4-.17.4-.12.01-.22-.16-.24-.37m.67-.28c-.02-.26.08-.48.22-.5.13 0 .26.2.28.47s-.08.48-.21.5c-.14 0-.27-.2-.29-.47m.71-.19c-.02-.26.08-.48.22-.5.13 0 .26.2.28.47s-.08.48-.21.5c-.14 0-.27-.2-.29-.47m.78-.12c-.02-.27.08-.49.22-.5.14 0 .26.2.28.46.02.27-.07.49-.21.5-.14 0-.27-.2-.29-.46m.35-23.26c.02-.26-.17-.5-.41-.5-.25-.03-.46.17-.48.44-.02.26.16.49.4.5.25.03.47-.17.49-.44m3.13 7.82c-.81.52-.81.52-1.58.46-1.34-.1-.05-2.7 0-3.28l-.04-1.35c-.36-.4-.59-1.06-1.54-1.13a.8.8 0 0 1-.76-.93c.09-1.15 1.55-.88 2.31-.82.96.07 2.06.92 2 1.68zm-.25-7.25c.02-.21-.06-.4-.17-.4-.12-.01-.22.16-.24.37-.01.22.06.4.18.41s.22-.16.23-.38m-.67-.27c.02-.26-.07-.49-.21-.5-.14 0-.27.2-.29.46-.02.27.08.5.22.5.14.01.26-.2.28-.46m-.7-.19c.01-.26-.08-.48-.22-.5-.14 0-.27.2-.29.47s.08.48.22.5c.14 0 .26-.2.28-.47m-.79-.12c.02-.27-.08-.5-.21-.5-.14-.01-.27.2-.29.46s.08.49.22.5c.13 0 .26-.2.28-.46m-.33-17.36c-.02-.26.16-.5.4-.51s.47.18.49.44c.02.27-.17.5-.41.52a.47.47 0 0 1-.48-.45m-3.13 7.82c.8.51.8.51 1.57.46 1.34-.1.05-2.7.01-3.28-.01-.19.04-1.35.04-1.35.35-.41.58-1.07 1.54-1.14a.8.8 0 0 0 .75-.92c-.08-1.15-1.54-.88-2.3-.83-.97.07-2.06.92-2 1.69zm.24-7.25c-.01-.22.07-.4.18-.4.11-.01.22.16.23.37.02.22-.06.4-.17.41s-.22-.16-.24-.38m.67-.27c-.02-.26.08-.49.22-.5.13 0 .26.2.28.46.02.27-.08.49-.21.5-.14.01-.27-.2-.29-.46m.71-.19c-.02-.26.08-.49.22-.5.13 0 .26.2.28.46.02.27-.08.49-.21.5-.14.01-.27-.2-.29-.46m.78-.13c-.02-.26.08-.48.22-.5.14 0 .26.2.28.47s-.07.48-.21.5c-.14 0-.27-.2-.29-.47m.35-19.36c.02-.26-.17-.5-.41-.51-.25-.02-.46.18-.48.45-.02.26.16.49.4.5s.47-.18.49-.44m3.13 7.82c-.81.51-.81.51-1.58.46-1.34-.1-.05-2.7 0-3.28l-.04-1.35c-.36-.41-.59-1.07-1.54-1.14a.8.8 0 0 1-.76-.92c.09-1.15 1.55-.88 2.31-.83.96.07 2.06.92 2 1.69zm-.25-7.25c.02-.22-.06-.4-.17-.4-.12-.01-.22.16-.24.37-.01.22.06.4.18.41s.22-.16.23-.38m-.67-.27c.02-.26-.07-.49-.21-.5-.14 0-.27.2-.29.46-.02.27.08.49.22.5s.26-.2.28-.46m-.7-.19c.01-.26-.08-.49-.22-.5-.14 0-.27.2-.29.46-.02.27.08.49.22.5s.26-.2.28-.46m-.79-.13c.02-.26-.08-.48-.21-.5-.14 0-.27.2-.29.47s.08.48.22.5c.13 0 .26-.2.28-.47m-.33-16.14c-.02-.26.16-.49.4-.5.25-.03.47.17.49.44.02.26-.17.5-.41.5-.25.03-.46-.17-.48-.44m-3.13 7.82c.8.52.8.52 1.57.46 1.34-.1.05-2.7.01-3.27-.01-.2.04-1.36.04-1.36.35-.4.58-1.06 1.54-1.13.38-.03.8-.35.75-.92-.08-1.15-1.54-.89-2.3-.83-.97.07-2.06.92-2 1.68zm.24-7.25c-.01-.21.07-.4.18-.4.11-.01.22.16.23.37.02.22-.06.4-.17.41s-.22-.16-.24-.38m.67-.27c-.02-.26.08-.48.22-.5.13 0 .26.2.28.47s-.08.48-.21.5c-.14 0-.27-.2-.29-.47m.71-.19c-.02-.26.08-.48.22-.5.13 0 .26.2.28.47s-.08.48-.21.5c-.14 0-.27-.2-.29-.47m.78-.12c-.02-.27.08-.49.22-.5s.26.2.28.46-.07.49-.21.5c-.14 0-.27-.2-.29-.46m-10.48 130.41c.25-.1.38-.36.3-.59s-.36-.34-.61-.25-.38.35-.3.58.36.35.61.25m-5.82 6.08c-.8-.52-.8-.52-1.07-1.24-.47-1.26 2.44-1.16 2.98-1.36.18-.07 1.21-.6 1.21-.6.23-.5.73-.97.4-1.87a.8.8 0 0 1 .53-1.07c1.08-.4 1.44 1.04 1.7 1.76.34.9.02 2.25-.7 2.52zm6.5-3.22c.2-.08.33-.23.3-.33-.05-.1-.24-.13-.45-.06-.2.08-.34.22-.3.33.04.1.24.13.45.06m-.03-.72c.24-.1.4-.28.36-.4-.05-.13-.29-.17-.54-.07-.25.09-.4.27-.36.4s.29.16.54.07m-.13-.73c.25-.09.42-.27.37-.4s-.3-.16-.54-.07c-.25.1-.41.27-.36.4s.29.16.53.07m-.2-.76c.24-.1.4-.27.36-.4s-.3-.16-.54-.07-.41.27-.36.4.29.16.53.07m7.9-12.93c.08-.25.35-.39.58-.3.23.08.34.35.26.6-.1.25-.36.38-.59.3s-.34-.35-.25-.6m-6.03 5.88c.53.8.53.8 1.25 1.06 1.27.45 1.14-2.45 1.34-3 .06-.18.58-1.21.58-1.21.49-.24.96-.74 1.87-.42.36.13.86 0 1.06-.54.38-1.09-1.06-1.43-1.78-1.7-.9-.32-2.25.02-2.5.74zm3.16-6.53c.07-.2.22-.34.32-.3s.14.24.06.44c-.07.2-.22.34-.32.3s-.14-.23-.06-.44m.72.02c.09-.24.26-.41.4-.36.12.04.16.28.07.53s-.27.42-.4.37-.16-.29-.07-.54m.72.12c.1-.25.27-.42.4-.37s.16.29.07.54-.26.41-.4.36c-.12-.04-.16-.28-.07-.53m.77.2c.09-.25.27-.41.4-.37.13.05.16.29.07.54s-.27.41-.4.37c-.13-.05-.16-.3-.07-.54m4.6-137.59c.09-.25-.03-.52-.26-.6s-.5.06-.58.3c-.09.26.03.53.26.6.23.09.5-.05.58-.3m1 8.36c-.91.3-.91.3-1.64.04-1.27-.44.65-2.62.84-3.16.06-.19.31-1.32.31-1.32-.23-.49-.28-1.18-1.19-1.5a.8.8 0 0 1-.49-1.08c.38-1.1 1.72-.46 2.45-.2.9.31 1.74 1.42 1.49 2.14zm1.64-7.06c.07-.2.04-.4-.06-.44s-.26.1-.33.3c-.07.21-.04.4.07.45.1.03.25-.1.32-.3m-.57-.43c.08-.25.05-.5-.08-.54s-.31.12-.4.37-.05.5.08.54.3-.12.4-.37m-.64-.37c.09-.25.05-.5-.08-.54s-.3.12-.4.37c-.08.25-.05.5.08.54s.31-.12.4-.37m-.72-.33c.08-.25.05-.49-.08-.53s-.31.12-.4.37-.05.49.08.54c.13.04.3-.13.4-.38m4.35-14.09c.05-.27.28-.45.52-.4.24.03.4.28.37.54-.05.26-.28.44-.52.4s-.4-.28-.37-.54m-4.84 6.88c.66.7.66.7 1.42.81 1.33.22.67-2.61.76-3.18.04-.2.35-1.3.35-1.3.44-.33.82-.91 1.76-.76.38.06.86-.16.95-.72.18-1.14-1.3-1.22-2.06-1.34-.95-.16-2.2.42-2.33 1.18zm1.9-7c.04-.2.16-.37.27-.35s.18.2.14.42-.15.38-.26.36-.18-.2-.15-.42m.72-.1c.04-.26.19-.46.32-.44.14.02.22.26.17.52s-.18.45-.32.43-.21-.25-.17-.51m.73-.02c.04-.27.19-.46.33-.44.13.02.2.25.17.52-.04.26-.19.45-.33.43-.13-.02-.21-.25-.17-.51m.8.05c.03-.26.18-.45.32-.43.13.02.21.25.17.51s-.19.46-.33.44c-.13-.02-.2-.26-.17-.52" class="fil13" style="fill:#1f1a17"/><path d="m33.7 42.1 5.46 4.75c-9.54 10.33-7.08 31.87-6.64 51.5l-9.26-3.79-2.13-42.72z" class="fil12 str0" style="fill:#da251d;stroke:#1f1a17;stroke-width:.71440399;stroke-linecap:round;stroke-linejoin:round"/><path d="M10 95.08C4.62 84.16 4.37 70.5 6.94 66.8l1.19-6.17 9.25 1.42 6.07 33.04H51.6v155.24c-30.87-.76-42.04-14.28-41.6-39.78.75-43.05 0-77.02 0-115.46" class="fil1 str0" style="fill:#eac102;stroke:#1f1a17;stroke-width:.71440399;stroke-linecap:round;stroke-linejoin:round"/><path d="M33.47 45.43c-9.17 16.55-12.62 33.1-3.59 49.65h21.4v144.54h-1.75c-27.96 0-29.14-23.55-29.14-29.08V95.08c-8.57-23.96-8.2-35.4 9.52-55.11z" class="fil5 str0" style="fill:#007cc3;stroke:#1f1a17;stroke-width:.71440399;stroke-linecap:round;stroke-linejoin:round"/><path d="M48.91 225.83h13.07v32.09H48.91z" class="fil5 str1" style="fill:#007cc3;stroke:#1f1a17;stroke-width:.71440399"/><path d="M42.97 222.11h15.45v29.87H42.97z" class="fil3 str0" style="fill:#00894c;stroke:#1f1a17;stroke-width:.71440399;stroke-linecap:round;stroke-linejoin:round"/><path d="M53.67 222.11h4.75v29.87h-4.75z" class="fil1 str0" style="fill:#eac102;stroke:#1f1a17;stroke-width:.71440399;stroke-linecap:round;stroke-linejoin:round"/><path d="M37.03 45.67 12.1 51.6a34.8 34.8 0 0 1 6.17-24.45c-5.78-4.23-6.33-10.64-4.51-18.04 7.98 11.2 18.92 13.5 31.33 11.4l2.13 13.29z" class="fil11 str0" style="fill:#00923f;stroke:#1f1a17;stroke-width:.71440399;stroke-linecap:round;stroke-linejoin:round"/><path d="m46.52 34.04.95 1.66-4.27 12.58c-3.8 1.74-6.65 2.53-7.12-2.61zm-31.1-2.27c9.5-.2 16.62-1.1 26.12-3.2v-2.6c-8.8-1.45-15.74-1.88-25.18-2.03-2.75.44-4.55 2.19-6.4 4.4 1.44 2 3.27 2.6 5.46 3.43M11.9 61.35l8.99 2.36Q23.03 53.38 28 46.85L23.13 44c5.09-4 11.71-7.5 19.6-10.9l-.96-2.85C17.62 36.7 4.37 49.18 4.27 68.93l7.36-.48q-.3-3.77.27-7.1" class="fil10 str0" style="fill:#84c225;stroke:#1f1a17;stroke-width:.71440399;stroke-linecap:round;stroke-linejoin:round"/><path d="M45.1 19.8c-4.99 6.6-6.02 12.61 1.66 17.32l26.1-5.7.25-2.84-17.8 2.37 18.98-4.75-.23-2.37-15.67 1.19 5.22-.95v-3.8z" class="fil12 str0" style="fill:#da251d;stroke:#1f1a17;stroke-width:.71440399;stroke-linecap:round;stroke-linejoin:round"/><path d="M44.62 20.03c3.64 0 7.52 1.66 8.79 4.99-.14.71-12.61 3.65-8.79-4.99" class="fil6 str0" style="fill:#fff;stroke:#1f1a17;stroke-width:.71440399;stroke-linecap:round;stroke-linejoin:round"/><path d="M52.57 23.2a9 9 0 0 0 4.17-1.61c-2.43-2.25-7.59-6.04-10.9-6.07-10.54-.1-17.48-.05-24.34-5.2-.69 3.84 1.28 11.2 11 11.17 6.2-.01 13.47-.8 20.07 1.7" class="fil10 str0" style="fill:#84c225;stroke:#1f1a17;stroke-width:.71440399;stroke-linecap:round;stroke-linejoin:round"/><path d="m12.58 46.14 3.32-5.46 7.84 4.27-4.04 4.99z" class="fil6 str0" style="fill:#fff;stroke:#1f1a17;stroke-width:.71440399;stroke-linecap:round;stroke-linejoin:round"/><rect width="3.42" height="11.57" x="110.13" y="27.94" class="fil6 str1" rx="1.46" ry="1.46" style="fill:#fff;stroke:#1f1a17;stroke-width:.71440399"/><path d="M106.85 9.71a3.2 3.2 0 0 0-6.25 0h-8.47a3.4 3.4 0 0 0-6.64 0h-8.12c-1.53 0-3.49-.26-4.26 1.36-.78 1.61 1.62 2.73 1.84 4.26s-1.84 2.7-1.26 5.52c.59 2.83 5.07 1.46 6.97 3.59l7.17 13.17h17.25l7.16-13.17c1.9-2.13 6.4-.76 6.98-3.59.58-2.82-1.48-3.99-1.26-5.52s2.61-2.65 1.84-4.26c-.77-1.62-2.74-1.36-4.26-1.36z" class="fil11 str1" style="fill:#00923f;stroke:#1f1a17;stroke-width:.71440399"/><circle cx="107.1" cy="28.08" r="3.81" class="fil6 str1" style="fill:#fff;stroke:#1f1a17;stroke-width:.71440399"/><rect width="3.42" height="11.57" x="79.36" y="27.94" class="fil6 str1" rx="1.46" ry="1.46" style="fill:#fff;stroke:#1f1a17;stroke-width:.71440399"/><rect width="3.42" height="12.75" x="82.78" y="27.94" class="fil6 str1" rx="1.46" ry="1.46" style="fill:#fff;stroke:#1f1a17;stroke-width:.71440399"/><rect width="3.42" height="13.68" x="86.2" y="27.94" class="fil6 str1" rx="1.46" ry="1.46" style="fill:#fff;stroke:#1f1a17;stroke-width:.71440399"/><rect width="3.42" height="14.39" x="89.62" y="27.94" class="fil6 str1" rx="1.46" ry="1.46" style="fill:#fff;stroke:#1f1a17;stroke-width:.71440399"/><rect width="3.42" height="14.74" x="93.04" y="27.94" class="fil6 str1" rx="1.46" ry="1.46" style="fill:#fff;stroke:#1f1a17;stroke-width:.71440399"/><rect width="3.42" height="12.75" x="106.71" y="27.94" class="fil6 str1" rx="1.46" ry="1.46" style="fill:#fff;stroke:#1f1a17;stroke-width:.71440399"/><rect width="3.42" height="13.68" x="103.29" y="27.94" class="fil6 str1" rx="1.46" ry="1.46" style="fill:#fff;stroke:#1f1a17;stroke-width:.71440399"/><rect width="3.42" height="14.39" x="99.87" y="27.94" class="fil6 str1" rx="1.46" ry="1.46" style="fill:#fff;stroke:#1f1a17;stroke-width:.71440399"/><rect width="3.42" height="14.74" x="96.45" y="27.94" class="fil6 str1" rx="1.46" ry="1.46" style="fill:#fff;stroke:#1f1a17;stroke-width:.71440399"/><path d="m89.75 31.1-5-9.86c7.76-3.23 15.52-3.43 23.27 0l-4.73 10.12z" class="fil12 str1" style="fill:#da251d;stroke:#1f1a17;stroke-width:.71440399"/><path d="M84.23 35.04a6.97 6.97 0 0 0 6.95-7.43c1.4-2.47 4.2-2.61 3.04-4.8-1.18-2.22-3.71-.5-5.64-.17a6.97 6.97 0 1 0-4.36 12.4z" class="fil8 str1" style="fill:#0093dd;stroke:#1f1a17;stroke-width:.71440399"/><circle cx="84.23" cy="28.08" r="3.81" class="fil6 str1" style="fill:#fff;stroke:#1f1a17;stroke-width:.71440399"/><path d="M108.68 35.04a6.97 6.97 0 0 1-6.95-7.43c-1.4-2.47-4.2-2.61-3.04-4.8 1.18-2.22 3.7-.5 5.63-.17a6.97 6.97 0 1 1 4.36 12.4z" class="fil8 str1" style="fill:#0093dd;stroke:#1f1a17;stroke-width:.71440399"/><circle cx="108.68" cy="28.08" r="3.81" class="fil6 str1" style="fill:#fff;stroke:#1f1a17;stroke-width:.71440399"/><circle cx="81.45" cy="11.75" r="4.26" class="fil12 str1" style="fill:#da251d;stroke:#1f1a17;stroke-width:.71440399"/><circle cx="81.45" cy="11.75" r="1.55" class="fil6 str1" style="fill:#fff;stroke:#1f1a17;stroke-width:.71440399"/><circle cx="110.87" cy="11.75" r="4.26" class="fil12 str1" style="fill:#da251d;stroke:#1f1a17;stroke-width:.71440399"/><circle cx="110.87" cy="11.75" r="1.55" class="fil6 str1" style="fill:#fff;stroke:#1f1a17;stroke-width:.71440399"/><path d="M109.54 17.85a6 6 0 0 1-6-6v-.1h1.77a4.86 4.86 0 0 0 8.46 0h1.77v.1a6 6 0 0 1-6 6z" class="fil6 str1" style="fill:#fff;stroke:#1f1a17;stroke-width:.71440399"/><path d="M109.54 14.23c-1.82 0-3.4-1-4.23-2.48h8.46a4.9 4.9 0 0 1-4.23 2.48z" class="fil8 str1" style="fill:#0093dd;stroke:#1f1a17;stroke-width:.71440399"/><path d="M83.24 17.85a6 6 0 0 0 6-6v-.1h-1.77a4.86 4.86 0 0 1-8.46 0h-1.78v.1a6 6 0 0 0 6 6z" class="fil6 str1" style="fill:#fff;stroke:#1f1a17;stroke-width:.71440399"/><path d="M83.24 14.23c1.81 0 3.4-1 4.23-2.48h-8.46a4.9 4.9 0 0 0 4.23 2.48z" class="fil8 str1" style="fill:#0093dd;stroke:#1f1a17;stroke-width:.71440399"/><circle cx="96.54" cy="11.75" r="4.75" class="fil12 str1" style="fill:#da251d;stroke:#1f1a17;stroke-width:.71440399"/><circle cx="96.54" cy="11.75" r="1.73" class="fil6 str1" style="fill:#fff;stroke:#1f1a17;stroke-width:.71440399"/><path d="M96.39 19c3.94 0 7.14-3.2 7.14-7.14v-.1h-2.1a5.78 5.78 0 0 1-10.08 0h-2.1v.1c0 3.94 3.2 7.14 7.14 7.14z" class="fil6 str1" style="fill:#fff;stroke:#1f1a17;stroke-width:.71440399"/><path d="M96.39 14.7a5.8 5.8 0 0 0 5.03-2.95H91.35a5.8 5.8 0 0 0 5.04 2.95zm-6.24 19.55c-1.93 0-3.06 2.88-8.28 3.04-6.34.2-5.88-6.33 0-5.66 2.7.3 5.34-2.37 8.28-3.16h12.62c2.93.79 5.57 3.46 8.28 3.16 5.86-.67 6.33 5.86 0 5.66-5.23-.16-6.36-3.04-8.28-3.04z" class="fil8 str1" style="fill:#0093dd;stroke:#1f1a17;stroke-width:.71440399"/><path d="M15.36 203c-.02-.26.17-.49.41-.5.25-.02.46.18.48.44.02.27-.16.5-.4.51s-.47-.18-.49-.44m-3.13 7.82c.8.52.8.52 1.57.47 1.35-.1.06-2.7.01-3.28-.01-.2.04-1.35.04-1.35.36-.41.58-1.07 1.54-1.14a.8.8 0 0 0 .75-.92c-.08-1.15-1.54-.88-2.3-.83-.96.07-2.06.92-2 1.69zm.25-7.24c-.02-.22.06-.4.17-.4.12-.02.22.15.24.37s-.07.4-.18.4c-.11.02-.22-.15-.23-.37m.66-.27c-.01-.27.08-.49.22-.5s.27.2.29.46-.08.49-.22.5c-.14 0-.27-.2-.29-.46m.71-.2c-.01-.26.08-.48.22-.49.14 0 .27.2.28.46.02.27-.07.49-.21.5-.14 0-.27-.2-.29-.46m.79-.12c-.02-.26.07-.48.21-.5.14 0 .27.2.29.47s-.08.48-.22.5c-.14 0-.26-.2-.28-.47" class="fil13" style="fill:#1f1a17"/><circle cx="7.99" cy="104.17" r="6.4" class="fil13" style="fill:#1f1a17"/><circle cx="7.99" cy="104.17" r="2.8" class="fil6" style="fill:#fff"/><circle cx="7.99" cy="139.39" r="6.4" class="fil13" style="fill:#1f1a17"/><circle cx="7.99" cy="139.39" r="2.8" class="fil6" style="fill:#fff"/><circle cx="7.99" cy="177.02" r="6.4" class="fil13" style="fill:#1f1a17"/><circle cx="7.99" cy="177.02" r="2.8" class="fil6" style="fill:#fff"/><circle cx="7.99" cy="219.05" r="6.4" class="fil13" style="fill:#1f1a17"/><circle cx="7.99" cy="219.05" r="2.8" class="fil6" style="fill:#fff"/><path d="M14.98 184.72c.02-.26-.17-.49-.41-.5-.25-.02-.46.18-.48.44s.16.5.41.51.46-.18.48-.45m3.13 7.82c-.8.52-.8.52-1.57.46-1.34-.1-.05-2.7-.01-3.27.01-.2-.04-1.35-.04-1.35-.36-.42-.58-1.07-1.54-1.14a.8.8 0 0 1-.75-.92c.08-1.15 1.54-.89 2.3-.83.97.07 2.06.92 2 1.68zm-.24-7.24c.01-.22-.07-.4-.18-.41s-.22.16-.24.38c-.01.21.07.4.18.4.11.01.22-.16.24-.37m-.67-.28c.02-.26-.08-.48-.22-.5-.14 0-.26.2-.28.47s.07.48.21.5c.14 0 .27-.2.29-.47m-.71-.19c.02-.26-.08-.48-.22-.5-.14 0-.26.2-.28.47s.07.48.21.5c.14 0 .27-.2.29-.47m-.79-.12c.02-.27-.07-.49-.21-.5-.14 0-.27.2-.29.46-.02.27.08.49.22.5.14 0 .27-.2.28-.46m-.34-23.26c-.02-.26.17-.5.41-.5.25-.03.46.17.48.44.02.26-.16.49-.4.5-.25.03-.47-.17-.49-.44m-3.13 7.82c.8.52.8.52 1.57.46 1.35-.1.06-2.7.01-3.28-.01-.19.04-1.35.04-1.35.36-.4.58-1.06 1.54-1.13.39-.03.8-.35.75-.93-.08-1.15-1.54-.88-2.3-.82-.96.07-2.06.92-2 1.68zm.25-7.25c-.02-.21.06-.4.17-.4.12-.01.22.16.24.37.01.22-.07.4-.18.41s-.22-.16-.23-.38m.66-.27c-.01-.26.08-.49.22-.5.14 0 .27.2.29.46.01.27-.08.5-.22.5-.14.01-.27-.2-.29-.46m.71-.19c-.01-.26.08-.48.22-.5.14 0 .27.2.28.47s-.07.48-.21.5c-.14 0-.27-.2-.29-.47m.79-.12c-.02-.27.07-.5.21-.5.14-.01.27.2.29.46s-.08.49-.22.5c-.14 0-.26-.2-.28-.46m.34-17.36c.02-.26-.17-.5-.41-.51-.25-.02-.46.18-.48.44-.02.27.16.5.41.52.25.01.46-.19.48-.45m3.13 7.82c-.8.51-.8.51-1.57.46-1.34-.1-.05-2.7-.01-3.28.01-.19-.04-1.35-.04-1.35-.36-.41-.58-1.07-1.54-1.14a.8.8 0 0 1-.75-.92c.08-1.15 1.54-.88 2.3-.83.97.07 2.06.92 2 1.69zm-.24-7.25c.01-.22-.07-.4-.18-.4-.11-.01-.22.16-.24.37-.01.22.07.4.18.41s.22-.16.24-.38m-.67-.27c.02-.26-.08-.49-.22-.5-.14 0-.26.2-.28.46-.02.27.07.49.21.5s.27-.2.29-.46m-.71-.19c.02-.26-.08-.49-.22-.5-.14 0-.26.2-.28.46-.02.27.07.49.21.5s.27-.2.29-.46m-.79-.13c.02-.26-.07-.48-.21-.5-.14 0-.27.2-.29.47s.08.48.22.5c.14 0 .27-.2.28-.47m-.34-19.36c-.02-.26.17-.5.41-.51.25-.02.46.18.48.45.02.26-.16.49-.4.5s-.47-.18-.49-.44m-3.13 7.82c.8.51.8.51 1.57.46 1.35-.1.06-2.7.01-3.28-.01-.19.04-1.35.04-1.35.36-.41.58-1.07 1.54-1.14.39-.02.8-.34.75-.92-.08-1.15-1.54-.88-2.3-.83-.96.07-2.06.92-2 1.69zm.25-7.25c-.02-.22.06-.4.17-.4.12-.01.22.16.24.37.01.22-.07.4-.18.41s-.22-.16-.23-.38m.66-.27c-.01-.26.08-.49.22-.5.14 0 .27.2.29.46.01.27-.08.49-.22.5s-.27-.2-.29-.46m.71-.19c-.01-.26.08-.49.22-.5.14 0 .27.2.28.46.02.27-.07.49-.21.5s-.27-.2-.29-.46m.79-.13c-.02-.26.07-.48.21-.5.14 0 .27.2.29.47s-.08.48-.22.5c-.14 0-.26-.2-.28-.47m.34-16.14c.02-.26-.17-.49-.41-.5-.25-.03-.46.17-.48.44-.02.26.16.5.41.5.25.03.46-.17.48-.44m3.13 7.82c-.8.52-.8.52-1.57.46-1.34-.1-.05-2.7-.01-3.27.01-.2-.04-1.36-.04-1.36-.36-.4-.58-1.06-1.54-1.13a.8.8 0 0 1-.75-.92c.08-1.15 1.54-.89 2.3-.83.97.07 2.06.92 2 1.68zm-.24-7.25c.01-.21-.07-.4-.18-.4-.11-.01-.22.16-.24.37-.01.22.07.4.18.41s.22-.16.24-.38m-.67-.27c.02-.26-.08-.48-.22-.5-.14 0-.26.2-.28.47s.07.48.21.5c.14 0 .27-.2.29-.47m-.71-.19c.02-.26-.08-.48-.22-.5-.14 0-.26.2-.28.47s.07.48.21.5c.14 0 .27-.2.29-.47m-.79-.12c.02-.27-.07-.49-.21-.5s-.27.2-.29.46.08.49.22.5c.14 0 .27-.2.28-.46m10.49 130.41c-.25-.1-.38-.36-.3-.59s.36-.34.6-.25c.26.09.39.35.3.58-.08.23-.35.35-.6.25m5.81 6.08c.81-.52.81-.52 1.08-1.24.46-1.26-2.44-1.16-2.98-1.36-.18-.07-1.21-.6-1.21-.6-.23-.5-.73-.97-.4-1.87a.8.8 0 0 0-.53-1.07c-1.08-.4-1.44 1.04-1.71 1.76-.33.9-.01 2.25.7 2.52zm-6.49-3.22c-.2-.08-.33-.23-.3-.33s.24-.13.45-.06c.2.08.33.22.3.33-.04.1-.24.13-.45.06m.03-.72c-.25-.1-.4-.28-.36-.4.05-.13.29-.17.54-.07.24.09.4.27.36.4s-.29.16-.54.07m.12-.73c-.24-.09-.4-.27-.36-.4s.29-.16.54-.07c.25.1.4.27.36.4s-.29.16-.54.07m.21-.76c-.24-.1-.4-.27-.36-.4s.29-.16.54-.07.4.27.36.4-.29.16-.54.07m-7.89-12.93c-.09-.25-.35-.39-.58-.3-.23.08-.35.35-.26.6.1.25.35.38.58.3.24-.08.35-.35.26-.6m6.03 5.88c-.53.8-.53.8-1.25 1.06-1.27.45-1.14-2.45-1.34-3-.06-.18-.58-1.21-.58-1.21-.5-.24-.96-.74-1.87-.42a.8.8 0 0 1-1.06-.54c-.39-1.09 1.05-1.43 1.78-1.7.9-.32 2.25.02 2.5.74zM20.85 226c-.07-.2-.22-.34-.32-.3s-.14.24-.07.44.22.34.33.3c.1-.04.14-.23.06-.44m-.72.02c-.09-.24-.27-.41-.4-.36s-.16.28-.07.53.27.42.4.37.16-.29.07-.54m-.72.12c-.1-.25-.27-.42-.4-.37s-.17.29-.08.54.27.41.4.36.16-.28.08-.53m-.77.2c-.09-.25-.27-.41-.4-.37-.13.05-.16.29-.07.54s.26.41.4.37c.12-.05.16-.3.07-.54m-4.6-137.59c-.1-.25.03-.52.26-.6s.5.06.58.3c.09.26-.03.53-.26.6a.45.45 0 0 1-.58-.3m-1 8.36c.91.3.91.3 1.64.04 1.27-.44-.65-2.62-.84-3.16l-.31-1.32c.23-.49.28-1.18 1.19-1.5a.8.8 0 0 0 .48-1.08c-.37-1.1-1.72-.46-2.44-.2-.9.31-1.74 1.42-1.5 2.14zm-1.64-7.06c-.07-.2-.04-.4.06-.44s.26.1.33.3c.07.21.04.4-.07.45-.1.03-.25-.1-.32-.3m.57-.43c-.08-.25-.05-.5.08-.54s.31.12.4.37c.08.25.05.5-.08.54s-.31-.12-.4-.37m.64-.37c-.09-.25-.05-.5.08-.54s.3.12.4.37c.08.25.04.5-.09.54s-.3-.12-.4-.37m.72-.33c-.08-.25-.05-.49.08-.53s.3.12.4.37c.08.25.05.49-.08.54-.13.04-.31-.13-.4-.38M8.97 74.84c-.04-.27-.27-.45-.51-.4-.25.03-.41.28-.37.54s.28.44.52.4.4-.28.36-.54m4.85 6.88c-.67.7-.67.7-1.42.81-1.33.22-.68-2.61-.77-3.18-.03-.2-.35-1.3-.35-1.3-.44-.33-.8-.91-1.76-.76a.8.8 0 0 1-.94-.72c-.18-1.14 1.3-1.22 2.06-1.34.94-.16 2.2.42 2.33 1.18zm-1.9-7c-.04-.2-.16-.37-.27-.35s-.18.2-.14.42.15.38.26.36.18-.2.14-.42m-.72-.1c-.04-.26-.19-.46-.32-.44-.14.02-.22.26-.18.52s.2.45.33.43.21-.25.17-.51m-.73-.02c-.05-.27-.2-.46-.33-.44s-.21.25-.17.52c.04.26.19.45.32.43.14-.02.22-.25.18-.51m-.8.05c-.04-.26-.18-.45-.32-.43s-.21.25-.17.51.19.46.32.44c.14-.02.22-.26.18-.52" class="fil13" style="fill:#1f1a17"/><path d="M96.45 232.26c-1.25-1.14-4.17-2.15-6.43-2.15h-40.5c-18.44 0-19.63-14.04-19.63-19.57V72.57h133.12v137.97c0 5.53-1.19 19.57-19.63 19.57h-40.5c-2.25 0-5.17 1.01-6.43 2.15z" class="fil14 str1" style="fill:url(#q);stroke:#1f1a17;stroke-width:.71440399"/><path d="M39.4 148.57V82.08h57.05v66.49z" class="fil15 str2" style="fill:url(#r);stroke:#1f1a17;stroke-width:.178601"/><path d="M39.4 148.57V124.7h57.05v23.87z" class="fil16 str2" style="fill:url(#s);stroke:#1f1a17;stroke-width:.178601"/><path d="m61.53 92.94-3.7.12c-1.06-.98-1.46-1-1.28-2.72.46-4.48 5.03-1.97 5.73-5.73h5.96c-2.19 5.26-7.8 4.3-6.71 8.33z" class="fil13 str2" style="fill:#1f1a17;stroke:#1f1a17;stroke-width:.178601"/><path d="M56.71 92.01h4.89l1.19 20.44h-7.27z" class="fil17 str2" style="fill:#b7673c;stroke:#1f1a17;stroke-width:.178601"/><path d="m61.89 96.93.08 1.38h-2.9v-1.38zm.17 2.91.08 1.38h-2.57v-1.38zm.16 2.8.16 2.75h-3.64v-1.37h1.16v-1.38zm.17 2.86.08 1.37h-2.08v-1.37zm-6.49.55.07-1.37h1.13v1.37zm.27-4.72.08-1.38h1.67v1.38zm.39-6.7.08-1.38h2.65v1.38z" class="fil18 str2" style="fill:#8f5444;stroke:#1f1a17;stroke-width:.178601"/><path d="M57.1 94.57h4.06v1.37H57.1zm-.39 6.7h4.06v1.37h-4.06zm1.65 5.55h4.06v1.37h-4.06z" class="fil18 str2" style="fill:#8f5444;stroke:#1f1a17;stroke-width:.178601"/><path d="m73.47 92.94-3.7.12c-1.06-.98-1.46-1-1.28-2.72.46-4.48 5.03-1.97 5.73-5.73h5.96c-2.19 5.26-7.8 4.3-6.71 8.33z" class="fil13 str2" style="fill:#1f1a17;stroke:#1f1a17;stroke-width:.178601"/><path d="M68.65 92.01h4.89l1.19 20.44h-7.27z" class="fil17 str2" style="fill:#b7673c;stroke:#1f1a17;stroke-width:.178601"/><path d="m73.83 96.93.08 1.38h-2.9v-1.38zm.17 2.91.08 1.38H71.5v-1.38zm.16 2.8.16 2.75H70.7v-1.37h1.15v-1.38h2.32zm.17 2.86.08 1.37h-2.08v-1.37zm-6.5.55.08-1.37h1.13v1.37zm.28-4.72.08-1.38h1.67v1.38zm.39-6.7.08-1.38h2.65v1.38z" class="fil18 str2" style="fill:#8f5444;stroke:#1f1a17;stroke-width:.178601"/><path d="M69.04 94.57h4.06v1.37h-4.06zm-.39 6.7h4.06v1.37h-4.06zm1.65 5.55h4.06v1.37H70.3z" class="fil18 str2" style="fill:#8f5444;stroke:#1f1a17;stroke-width:.178601"/><path d="m83.88 92.94-3.7.12c-1.06-.98-1.46-1-1.28-2.72.46-4.48 5.03-1.97 5.73-5.73h5.96c-2.19 5.26-7.8 4.3-6.71 8.33z" class="fil13 str2" style="fill:#1f1a17;stroke:#1f1a17;stroke-width:.178601"/><path d="M79.06 92.01h4.89l1.19 20.44h-7.27z" class="fil17 str2" style="fill:#b7673c;stroke:#1f1a17;stroke-width:.178601"/><path d="m84.24 96.93.08 1.38h-2.9v-1.38zm.17 2.91.08 1.38h-2.57v-1.38zm.16 2.8.16 2.75H81.1v-1.37h1.15v-1.38zm.17 2.86.08 1.37h-2.08v-1.37zm-6.5.55.08-1.37h1.13v1.37zm.28-4.72.08-1.38h1.67v1.38zm.39-6.7.08-1.38h2.65v1.38z" class="fil18 str2" style="fill:#8f5444;stroke:#1f1a17;stroke-width:.178601"/><path d="M79.45 94.57h4.06v1.37h-4.06zm-.39 6.7h4.06v1.37h-4.06zm1.65 5.55h4.06v1.37h-4.06z" class="fil18 str2" style="fill:#8f5444;stroke:#1f1a17;stroke-width:.178601"/><path d="M66.62 148.57h-4.44l1.14-2.57c-1.42-1-2.62-2.29-3.5-3.78l-2.89 1.14-1.49-3.78 2.95-1.16a12 12 0 0 1 .07-4.95l-2.83-1.15 1.52-3.76 2.86 1.16A12.04 12.04 0 1 1 67 147.74zm3.6-4.65a7.8 7.8 0 1 0 0-15.6 7.8 7.8 0 0 0 0 15.6z" class="fil19 str2" style="fill:#e3e4e5;stroke:#1f1a17;stroke-width:.178601"/><path d="m53.39 119.62-.08.08v-6.8l12.57-7.25v6.13l10.62-6.13v5.83l10.11-5.83v13.8l-12.48.17-.09.08v-.22l-10.03.14-.08.08v-.23z" class="fil6 str2" style="fill:#fff;stroke:#1f1a17;stroke-width:.178601"/><path d="M51.76 118.75h31.45c3.55 0 9.06 2.9 9.06 6.45 0 3.54-5.51 6.44-9.06 6.44H51.76c-2.9 0-7.12-1.94-8.56-4.6h-1.8a1.75 1.75 0 1 1 .01-3.51h1.7c1.34-2.74 5.68-4.78 8.65-4.78z" class="fil20 str2" style="fill:#957f66;stroke:#1f1a17;stroke-width:.178601"/><path d="M84.81 131.48q-.84.16-1.6.16H51.76c-2.9 0-7.12-1.94-8.56-4.6h-1.8a1.75 1.75 0 1 1 .01-3.51h.54l.04.13c-.54.5-.97.57-.97 1.36 0 .34-.12.57.25.57.7 0 1.31.32 2 .32h1.62c1.88 2.42 4.5 4 8.2 4.35h31.72z" class="fil21 str2" style="fill:#71625b;stroke:#1f1a17;stroke-width:.178601"/><path d="M87.25 124.8h1.41a.92.92 0 0 1 0 1.85h-1.4a.9.9 0 0 1-.93-.92c0-.5.42-.92.92-.92z" class="fil13 str2" style="fill:#1f1a17;stroke:#1f1a17;stroke-width:.178601"/><path d="M55.03 122.27h24.91c2.81 0 7.18 1.32 7.18 2.93s-4.37 2.93-7.18 2.93h-24.9c-2.82 0-7.18-1.32-7.18-2.93s4.36-2.93 7.17-2.93z" class="fil6 str2" style="fill:#fff;stroke:#1f1a17;stroke-width:.178601"/><path d="M54.02 122.33c3.37.38 5.34 3.36 4.12 5.77l6.66-.08c1.29-3.05-.57-5.13-3.33-5.78z" class="fil22 str3" style="fill:#c2c1c1;fill-opacity:.23921599;stroke:#1f1a17;stroke-width:.178601;stroke-opacity:.23921599"/><path d="M47.15 124.28h1.54c.56 0 1.02.45 1.02 1 0 .56-.46 1.02-1.02 1.02h-1.54c-.56 0-1.01-.46-1.01-1.01a1 1 0 0 1 1-1.01z" class="fil13 str2" style="fill:#1f1a17;stroke:#1f1a17;stroke-width:.178601"/><path d="M63.08 122.33c3.37.38 5.34 3.36 4.12 5.77l6.66-.08c1.29-3.05-.58-5.13-3.34-5.78z" class="fil22 str3" style="fill:#c2c1c1;fill-opacity:.23921599;stroke:#1f1a17;stroke-width:.178601;stroke-opacity:.23921599"/><path d="M58.77 128c3.37-.38 5.34-3.36 4.12-5.76l6.67.07c1.28 3.05-.58 5.13-3.34 5.79zm11.46 0c3.37-.38 5.34-3.36 4.12-5.76l6.66.07c1.28 3.05-.58 5.13-3.34 5.79z" class="fil22 str3" style="fill:#c2c1c1;fill-opacity:.23921599;stroke:#1f1a17;stroke-width:.178601;stroke-opacity:.23921599"/><path d="M47.39 124.36h1.55a1 1 0 0 1 1 .93 1 1 0 0 0-.92-.61h-1.55a1 1 0 0 0-1.01 1.01v.08a1 1 0 0 1 .93-1.41zm39.64.58h1.4c.49 0 .89.38.92.85a.9.9 0 0 0-.84-.55h-1.4a.9.9 0 0 0-.93.92v.07a.92.92 0 0 1 .84-1.28z" class="fil6 str2" style="fill:#fff;stroke:#1f1a17;stroke-width:.178601"/><path d="M56.33 113.6h2.84v3.1h-2.84zm4.7 0h2.84v3.1h-2.84zm5.94 0h2.84v3.1h-2.84zm4.7 0h2.84v3.1h-2.84zm5.67 0h2.84v3.1h-2.84zm4.7 0h2.84v3.1h-2.84z" class="fil23 str2" style="fill:#969594;stroke:#1f1a17;stroke-width:.178601"/><path d="M39.4 148.57V82.08h57.05v66.49zm114.11 0V82.08H96.45v66.49z" class="fil4 str1" style="fill:none;stroke:#1f1a17;stroke-width:.71440399"/><path d="M98.35 135.78h.27l-.35.72a.3.3 0 0 1-.15.12 2 2 0 0 1-.46.04q-1.05 0-1.43.06l-.17.57q0 .18.29.3.53.23.74.42.22.2.34.51.13.3.13.72 0 1.05-.83 1.86t-1.83.82a1.4 1.4 0 0 1-.73-.15.4.4 0 0 1-.17-.3q0-.14.08-.22a.3.3 0 0 1 .18-.08l.1.01q.06.01.2.12.21.14.33.18t.31.04q.68 0 1.22-.57t.53-1.27q0-.47-.26-.84a1.7 1.7 0 0 0-.76-.58 1 1 0 0 1-.28-.17.3.3 0 0 1-.07-.21q0-.14.17-.65l.33-1.04q.19-.09.5-.12l1.06-.02q.36 0 .48-.07.12-.06.23-.2" class="fil24" style="fill:#1f1a17;fill-rule:nonzero"/><path d="M98.35 135.78h.27l-.35.72a.3.3 0 0 1-.15.12 2 2 0 0 1-.46.04q-1.05 0-1.43.06l-.17.57q0 .18.29.3.53.23.74.42.22.2.34.51.13.3.13.72 0 1.05-.83 1.86t-1.83.82a1.4 1.4 0 0 1-.73-.15.4.4 0 0 1-.17-.3q0-.14.08-.22a.3.3 0 0 1 .18-.08l.1.01q.06.01.2.12.21.14.33.18t.31.04q.68 0 1.22-.57t.53-1.27q0-.47-.26-.84a1.7 1.7 0 0 0-.76-.58 1 1 0 0 1-.28-.17.3.3 0 0 1-.07-.21q0-.14.17-.65l.33-1.04q.19-.09.5-.12l1.06-.02q.36 0 .48-.07.12-.06.23-.2z" class="fil25 str4" style="fill:none;fill-rule:nonzero;stroke:#1f1a17;stroke-width:.0771508"/><path d="M153.51 148.57V82.08H96.45v66.49z" class="fil26 str2" style="fill:url(#t);stroke:#1f1a17;stroke-width:.178601"/><path d="M96.45 105.04v19.25l40.64-19.25z" class="fil27 str4" style="fill:url(#u);stroke:#1f1a17;stroke-width:.0771508"/><path d="M118.34 148.57H139c-1.5-3.63-1.98-8.04-3.32-10.7-2.36-4.71-6.87-8.9-7.3-11.23q-1.1-6.27-6.73-8.04c-.21-.65-2.15-.23-2.24.56-.08.64-2.38.76-2.8 1.87-.5 1.26-.04 1.97-1.7.75-1.13-.85-1.8.38-2.05 1.12v.94c1.12 15.94 3.65 15.06 4.12 18.52.29 2.16 1.33 4.18 1.36 6.21z" class="fil28 str4" style="fill:#75c5f0;stroke:#1f1a17;stroke-width:.0771508"/><path d="M96.45 89.93v14.89h33.4l-1.26-3.04c-5.65-5.91-11.93-6.98-19.58-15.66-1.06-.31-1.62-2.03-3.1-.78-.84.78-1.15 1.45-1.98 2.22-1.01-.78-2.55-.5-3.56.1-.9.6-1.1 1.1-2.58 1.43-.48.1-.92.44-1.34.84z" class="fil29 str2" style="fill:url(#v);stroke:#1f1a17;stroke-width:.178601"/><path d="M153.5 148.57V97.92l-17.32 6.46-.94-1.27c-.95-1.29-2.96-.16-4.19-1.2-3-2.55-11.55-5.28-14.68-7.03-2.52-1.4-2.33 1.34-5.18 1.79-1.56.24-2.32-.24-3.83.2-2.01.6-4.43 2.1-6.45 2.68a12 12 0 0 1-4.46.47V107l36.43-.55v42.13h20.62z" class="fil30 str2" style="fill:url(#w);stroke:#1f1a17;stroke-width:.178601"/><path d="M137.63 105.82v15.71l-22.68 18.3-17.22-14.73z" class="fil31 str2" style="fill:#c2c1c1;stroke:#1f1a17;stroke-width:.178601"/><path d="m94.42 122.43.18-.18L134.77 106h3.04l-39.9 20.62z" class="fil32 str2" style="fill:#dededd;stroke:#1f1a17;stroke-width:.178601"/><path d="M153.51 148.57v-.89l-15.88-26.15-22.68 18.3.13 8.74z" class="fil33 str2" style="fill:#aaa9a9;stroke:#1f1a17;stroke-width:.178601"/><path d="M118.34 148.57H139c-1.5-3.63-1.98-8.04-3.32-10.7-2.36-4.71-6.87-8.9-7.3-11.23q-1.1-6.27-6.73-8.04c-.21-.65-2.15-.23-2.24.56-.08.64-2.38.76-2.8 1.87-.5 1.26-.04 1.97-1.7.75-1.13-.85-1.8.38-2.05 1.12v.94c1.12 15.94 3.65 15.06 4.12 18.52.29 2.16 1.33 4.18 1.36 6.21z" class="fil34 str2" style="fill:url(#x);stroke:#1f1a17;stroke-width:.178601"/><path d="M153.5 134.8v-8.94l-3.2-1.85 3.2-3.2v-4.24l-4.53 4.54v-6.16h4.53v-3H150l3.5-3.5v-4.22l-4.53 4.53v-10l4.53 2.18v-3.32l-1.46-.7 1.47-.01v-3l-4.54.02v-7.37l4.53-1.6v-2.88h-.81l-3.72 1.3v-1.3h-3v2.36l-11.5 4.04-2.79 1.98 14.3 6.86v27.1l-13.95 24.15h3.45l9.59-16.6h7.02l-16.6 16.6h4.24zm-15.2-44.5 7.68 3.7v-6.4zm10.04 36.02-1.54 2.65h6.13z" class="fil13 str4" style="fill:#1f1a17;stroke:#1f1a17;stroke-width:.0771508"/><path d="M131.75 92.43h4.27v1.71h-4.27zm0 2.14h4.27v1.71h-4.27z" class="fil13 str4" style="fill:#1f1a17;stroke:#1f1a17;stroke-width:.0771508"/><path d="M133.03 90.29h1.71v6.2h-1.71z" class="fil13 str4" style="fill:#1f1a17;stroke:#1f1a17;stroke-width:.0771508"/><path d="M153.51 148.57V82.08H96.45v66.49z" class="fil4 str1" style="fill:none;stroke:#1f1a17;stroke-width:.71440399"/><path d="M96.45 222.75c-1.25-1.14-4.17-2.15-6.43-2.15h-40.5a10.13 10.13 0 0 1-10.12-10.06v-61.97h57.05z" class="fil4 str2" style="fill:none;stroke:#1f1a17;stroke-width:.178601"/><path d="M50.82 220.6c3.31-11.96.75-23.12-6.69-33.62 3.39-.43 6.61.62 9.47 4.93-11.1-16.33-4.63-26.19 4.34-35.12q-1.88 3.26.99 4.93c1.51-5.56 4.67-7 8.29-7.3-4.41 6.38-4.48 12.76-2.57 19.14.2-3.23.72-6.06 3.55-6.12 2.78 10.18 13.57 13.18 17.76 22.3.53-2.17 1.25-3.55.4-7.1 8.09 13.86 8.94 26.41 6.32 38.33-.9-.23-1.82-.37-2.66-.37z" class="fil35 str2" style="fill:#db214c;stroke:#1f1a17;stroke-width:.178601"/><path d="m65.7 187.61-22.79-29.1-.97.07-1.35-.11 1.77-.84-.82-1.05 2.92-2.29 24.78 29.99z" class="fil32 str2" style="fill:#dededd;stroke:#1f1a17;stroke-width:.178601"/><path d="m68.2 186.57-25.26-30.6" class="fil4 str5" style="fill:none;stroke:#1f1a17;stroke-width:.35436699"/><path d="m64.79 186.44-2.24-2.88 3.57-3.05 2.48 3zm-5.73-7.36-2.24-2.87 3.37-2.88 2.46 2.98-3.6 2.77zm-8.13-10.44-2.24-2.88 3.08-2.63 2.45 2.97z" class="fil23 str2" style="fill:#969594;stroke:#1f1a17;stroke-width:.178601"/><path d="m93.4 208.43-9.38 4.79-7.15-9.52.21-.15c1.69-2.34.86-9.46 2.5-7.43l.7.86 1.04-.83c.6-.48.5-1.73 0-2.3l-6.8-7.6v-1.05l-3.36-.59-1.77 5.72c-.58 1.73-1.72.95-2.77-.25l-2.17-2.89 5-4.37c1.15-1 3.55-1.35 4.58-.21l9.58 10.62c.98 1.09.16 3.03-.42 4.37l-.62 1.46z" class="fil36 str2" style="fill:#70614e;stroke:#1f1a17;stroke-width:.178601"/><path d="m93.4 208.43-9.38 4.79-7.15-9.52.21-.15c.42-.58.69-1.46.87-2.43l7.26 9.23 7.77-2.28.41.36zm-24-18.16-.01.06c-.58 1.73-1.72.95-2.77-.25l-2.17-2.89 1.29-1.13.8.57z" class="fil37 str6" style="fill:#1f1a17;fill-opacity:.50196078;stroke:#1f1a17;stroke-width:.178601;stroke-opacity:.50196078"/><path d="m62.68 203.16.59.2c1.37-3.17-.34-13.65.4-14.6.23-.31.44-1.57.78-1.39.67.36 3.83 6.28 4.94 2.96l1.77-5.72 3.36.6v2.36l2.17 1.38.98 3.35 1.58.6c.79 3.81.2 7.36-2.17 10.65l-6.7 4.74z" class="fil38 str2" style="fill:#d9b286;stroke:#1f1a17;stroke-width:.178601"/><path d="m72.94 184.92 1.58.28v2.37l2.17 1.38.98 3.35 1.58.6c.79 3.81.2 7.36-2.17 10.65l-6.7 4.74-3.4-2.26.54-.8 1.3 1.14 3.73-2.27 3.4-3.57 2.6-6.82-1.62-1.13-.65-3.41-1.94-.65v2.6l-1.3 1.3-.49-1.63 1.14-5.03z" class="fil17 str2" style="fill:#b7673c;stroke:#1f1a17;stroke-width:.178601"/><path d="m57.94 206.91.2-1.19 5.33-3.94 7.3 6.9-4.94 6.91z" class="fil6 str2" style="fill:#fff;stroke:#1f1a17;stroke-width:.178601"/><path d="m67.37 205.46 3.4 3.22-4.94 6.91-3.86-4.25 1.01-1.08.81.49z" class="fil39 str6" style="fill:#dededd;fill-opacity:.50196078;stroke:#1f1a17;stroke-width:.178601;stroke-opacity:.50196078"/><path d="m41.55 216.72 17.38-11.99c2.43 4.54 4.6 6.98 9.67 8.88l-5.22 7H49.53c-3.23 0-6.12-1.53-7.98-3.89z" class="fil8 str2" style="fill:#0093dd;stroke:#1f1a17;stroke-width:.178601"/><path d="M62.93 210.3a17 17 0 0 0 5.67 3.31l-5.22 7H53.35z" class="fil40 str2" style="fill:#28166f;stroke:#1f1a17;stroke-width:.178601"/><path d="M96.45 222.75c-1.25-1.14-4.17-2.15-6.43-2.15h-40.5a10.13 10.13 0 0 1-10.12-10.06v-61.97h57.05z" class="fil4 str1" style="fill:none;stroke:#1f1a17;stroke-width:.71440399"/><path d="M45.23 80.07v-6h4.34v.71h-3.54v1.83h3.32v.71h-3.32v2.04h3.68v.71zm7.88 0v-6h.82l3.15 4.71v-4.71h.76v6h-.81l-3.16-4.72v4.72zm15.39 0v-6h4.34v.71h-3.55v1.83h3.32v.71h-3.32v2.04h3.69v.71zm7.85 0v-6h.8v5.29h2.95v.71zm13.71 0v-6h4.34v.71h-3.55v1.83h3.32v.71h-3.32v2.04h3.69v.71zm7.62-1.93.75-.06q.05.45.25.74t.6.46.92.18q.45 0 .8-.13.35-.15.52-.37a1 1 0 0 0 .17-.52 1 1 0 0 0-.16-.5 1 1 0 0 0-.54-.35q-.24-.1-1.07-.29a6 6 0 0 1-1.16-.37q-.43-.23-.64-.56a1.4 1.4 0 0 1-.21-.75q0-.45.26-.85t.75-.6 1.1-.2a3 3 0 0 1 1.18.21 1.7 1.7 0 0 1 1.08 1.58l-.76.06a1.2 1.2 0 0 0-.42-.86q-.35-.3-1.05-.3-.72 0-1.05.27a.8.8 0 0 0-.33.64q0 .32.24.53.23.2 1.2.43a8 8 0 0 1 1.32.38q.53.25.78.61.24.37.25.86 0 .48-.28.9-.27.42-.79.66-.5.23-1.15.23-.82 0-1.37-.24-.54-.24-.86-.7-.31-.5-.33-1.09m8.22 1.93v-6h4.05v.71h-3.26v1.85h2.82v.71h-2.82v2.73zm11.33-6h.8v3.47q0 .9-.21 1.43-.2.54-.74.87a2.6 2.6 0 0 1-1.4.33q-.84 0-1.38-.29-.54-.3-.77-.84a4 4 0 0 1-.23-1.5v-3.47h.8v3.46q0 .78.14 1.15t.5.58.87.2q.87 0 1.25-.4.37-.4.37-1.53zm4.45 6v-6h4.34v.71h-3.55v1.83h3.32v.71h-3.32v2.04h3.69v.71zm7.9 0v-6h2.66q.8 0 1.22.16t.67.57.25.9q0 .64-.42 1.08-.41.45-1.27.56.3.15.48.3.34.32.66.8l1.04 1.63h-1l-.8-1.25q-.34-.54-.57-.83t-.4-.4a1 1 0 0 0-.36-.16l-.45-.03h-.92v2.67zm.8-3.35h1.7q.55 0 .85-.12a1 1 0 0 0 .47-.36q.16-.24.16-.53a1 1 0 0 0-.31-.7q-.3-.28-.98-.28h-1.9zm7.08 3.35v-.74l3.07-3.84q.33-.41.63-.71h-3.35v-.71h4.3v.7l-3.38 4.17-.36.42h3.83v.71zm7.67-2.92q0-1.5.8-2.34a2.7 2.7 0 0 1 2.07-.85q.84 0 1.5.4.67.4 1.02 1.1.35.72.35 1.62t-.37 1.63-1.04 1.1q-.68.36-1.46.36-.85 0-1.51-.4a2.6 2.6 0 0 1-1.02-1.13 3.4 3.4 0 0 1-.34-1.5m.82 0q0 1.1.58 1.72.6.62 1.47.62.9 0 1.47-.63.58-.63.58-1.79 0-.73-.25-1.28a1.9 1.9 0 0 0-1.8-1.15q-.83 0-1.44.58-.6.59-.61 1.94m2.48 144.86v6h-4.34v-.71h3.54v-1.83h-3.32v-.71h3.32v-2.04h-3.68v-.71zm-7.49 0v6h-.81l-3.15-4.71v4.71h-.76v-6h.81l3.15 4.72v-4.72zm-12.6 0v6h-.8v-5.29h-2.95v-.71zm-5.95 0-2.3 6h-.86l-2.46-6h.9l.7 1.82h2.51l.66-1.82zm-1.73 2.47h-2.04l.63 1.66q.28.75.42 1.24.12-.57.33-1.14zm-10.65-2.47v6h-4.34v-.71h3.54v-1.83h-3.32v-.71h3.32v-2.04h-3.68v-.71zm-7.22 1.93-.75.06q-.06-.45-.25-.73-.2-.3-.6-.47a2 2 0 0 0-.93-.18q-.45 0-.8.14-.34.13-.52.37a1 1 0 0 0-.17.51q0 .28.17.5.16.2.54.35.23.1 1.07.29.82.2 1.15.37.44.23.65.56.2.34.2.75 0 .46-.25.85a1.6 1.6 0 0 1-.75.6q-.5.2-1.1.2a3 3 0 0 1-1.18-.21 1.7 1.7 0 0 1-1.08-1.58l.76-.06q.06.57.41.86.36.3 1.05.3.72 0 1.05-.27a.8.8 0 0 0 .33-.64q0-.32-.23-.53a3 3 0 0 0-1.2-.43 8 8 0 0 1-1.33-.38q-.52-.24-.77-.61a1.6 1.6 0 0 1 .03-1.76q.26-.42.78-.66.51-.23 1.16-.23.82 0 1.36.24.56.24.87.71.3.48.33 1.08M95 222.01v6h-2.26q-.6 0-.9-.05a2 2 0 0 1-.75-.29q-.3-.2-.48-.57a2 2 0 0 1-.18-.82q0-.77.48-1.3.5-.53 1.76-.53h1.54v-2.44zm-.79 3.15h-1.55q-.77 0-1.1.29-.3.29-.31.8 0 .38.19.65.18.27.5.35.2.06.74.05h1.53zm-6.73-3.15v6h-4.34v-.71h3.55v-1.83h-3.32v-.71h3.32v-2.04H83v-.71zm-7.5 0v6h-2.66q-.8 0-1.22-.16t-.67-.57a2 2 0 0 1-.25-.9q0-.65.42-1.08.41-.44 1.27-.56a2 2 0 0 1-.48-.3 4 4 0 0 1-.66-.8l-1.04-1.63h1l.8 1.25q.34.54.57.83t.4.4.36.16q.14.03.44.03h.93V222zm-.8 3.35h-1.7q-.55 0-.85.12a1 1 0 0 0-.47.36 1 1 0 0 0-.16.53q0 .43.31.7.3.28.98.28h1.9zm-6.5-3.35-2.3 6h-.86l-2.46-6h.9l.7 1.82h2.52l.66-1.82zm-1.73 2.47h-2.04l.63 1.66q.29.75.43 1.24.1-.57.32-1.14zm-6.43-2.47v6h-.81l-3.15-4.71v4.71h-.77v-6h.82l3.15 4.72v-4.72zm-7.5 0v.74l-3.07 3.84q-.33.41-.62.71h3.35v.71h-4.3v-.7l3.37-4.17.36-.42h-3.83V222zm-6.85 0-2.3 6H47l-2.46-6h.9l.7 1.82h2.51l.66-1.82zm-1.73 2.47H46.4l.63 1.66q.28.75.42 1.24.12-.57.33-1.14zm-16.82-15.42v-.8h3.47q.9 0 1.44.21t.86.74q.34.54.34 1.4t-.3 1.38q-.28.54-.84.77-.54.23-1.5.23h-3.47v-.8h3.47q.78 0 1.15-.14t.57-.5.2-.86q0-.88-.4-1.25-.4-.38-1.52-.38zm6-3.62h-6v-.82l4.71-3.15h-4.71v-.76h6v.81l-4.71 3.16h4.71zm0-7.72h-6v-.79h6zm0-3.71h-6v-2.07q0-.7.09-1.06.12-.52.43-.88.4-.48 1.02-.71a4 4 0 0 1 1.43-.24q.69 0 1.21.16.53.15.88.4.34.26.54.56t.3.71.1.97zm-.7-.8v-1.27q0-.6-.11-.94t-.32-.53a2 2 0 0 0-.76-.44q-.47-.16-1.15-.16-.94 0-1.45.3-.5.31-.68.76-.12.32-.12 1.03v1.26zm-2.22-6.53q-1.5 0-2.34-.8a2.7 2.7 0 0 1-.84-2.07q0-.84.4-1.5a2.6 2.6 0 0 1 1.1-1.02 4 4 0 0 1 1.61-.35q.92 0 1.63.37.73.38 1.1 1.04.37.68.37 1.46 0 .85-.41 1.52-.42.66-1.12 1-.7.35-1.5.35m.01-.82q1.1 0 1.71-.58.63-.59.63-1.46 0-.9-.63-1.48a2.6 2.6 0 0 0-1.8-.58q-.72 0-1.27.25a1.9 1.9 0 0 0-1.15 1.8q0 .84.58 1.45.58.6 1.93.6m.99-7.19-.07-.75q.45-.05.74-.25.3-.2.47-.6t.17-.92q0-.45-.13-.8-.14-.34-.37-.52a1 1 0 0 0-.52-.17 1 1 0 0 0-.49.16q-.21.17-.35.54-.1.24-.3 1.07a6 6 0 0 1-.37 1.16q-.23.43-.56.64t-.75.21q-.45 0-.85-.26a1.6 1.6 0 0 1-.6-.75q-.2-.5-.2-1.1a3 3 0 0 1 .21-1.18 1.7 1.7 0 0 1 1.58-1.08l.06.76q-.57.07-.86.42-.3.36-.29 1.05 0 .72.26 1.05a.8.8 0 0 0 .64.33q.33 0 .53-.24.2-.22.43-1.2a8 8 0 0 1 .38-1.32q.25-.52.62-.78.37-.25.85-.25t.9.28.66.79.24 1.15q0 .82-.24 1.37t-.72.86-1.07.33m1.92-14.38h-6v-4.34h.71v3.54h1.84v-3.32h.7v3.32h2.05v-3.68h.7zm0-7.09h-6v-.81l4.71-3.16h-4.71v-.76h6v.82l-4.71 3.15h4.71zm0-14.59h-6v-4.34h.71v3.55h1.84v-3.32h.7v3.32h2.05v-3.68h.7zm0-7.05h-6v-.8h5.3v-2.96h.7zm0-14.27h-5.29v1.97h-.71v-4.75h.71v1.98h5.29zm0-5.25h-6v-.79h6zm0-3.73h-6v-4.34h.71v3.55h1.84v-3.32h.7v3.32h2.05v-3.69h.7zm0-7.06h-6v-1.2l4.25-1.42.9-.29q-.34-.1-.97-.32l-4.18-1.43v-1.07h6v.76H32.6l5.02 1.75v.71l-5.1 1.74h5.1zm0-8.53h-6v-2.27q0-.6.06-.9.07-.45.28-.75.2-.3.58-.48t.82-.18q.75 0 1.3.48.52.5.52 1.76v1.55h2.44zm-3.14-.8v-1.55q0-.77-.3-1.1-.27-.3-.8-.31-.37 0-.64.19-.27.18-.36.5-.05.2-.05.74v1.54zm.22-6.07q-1.5 0-2.34-.8a2.7 2.7 0 0 1-.84-2.07q0-.84.4-1.5a2.6 2.6 0 0 1 1.1-1.02 4 4 0 0 1 1.61-.35q.92 0 1.63.37.73.37 1.1 1.04.37.68.37 1.46 0 .85-.41 1.52-.42.66-1.12 1-.7.35-1.5.35m.01-.82q1.1 0 1.71-.58.63-.59.63-1.47 0-.9-.63-1.47a2.6 2.6 0 0 0-1.8-.58q-.72 0-1.27.25a1.9 1.9 0 0 0-1.15 1.8q0 .84.58 1.44.58.61 1.93.61m121.06-2.84h6v4.34h-.71v-3.55h-1.84v3.32h-.7v-3.32h-2.05v3.68h-.7zm0 9.66h6v.81l-4.71 3.15h4.71v.77h-6v-.82l4.71-3.15h-4.71zm0 17.11h6v.79h-5.3v2.96h-.7zm0 8.13 6 2.3v.86l-6 2.46v-.9l1.81-.7v-2.52l-1.81-.66zm2.46 1.73v2.04l1.66-.63q.75-.29 1.25-.43a8 8 0 0 1-1.15-.32zm-.76 14.74.1.71q-.7.03-.95.26a.8.8 0 0 0-.25.63q0 .3.14.52.13.21.37.3t.75.08h4.14v.8h-4.1q-.75 0-1.16-.19a1.3 1.3 0 0 1-.63-.57 2 2 0 0 1-.22-.93q0-.8.46-1.21.45-.42 1.35-.4m4.3 12.62v.8h-3.47a4 4 0 0 1-1.44-.2 2 2 0 0 1-.86-.75 2.6 2.6 0 0 1-.34-1.4q0-.84.3-1.38.28-.53.84-.76.54-.23 1.5-.23h3.47v.8h-3.47q-.78 0-1.15.14t-.57.5-.2.86q0 .88.4 1.25t1.52.37zm-4.07 5.94.06.75q-.45.06-.74.25-.3.2-.47.6-.17.41-.17.93 0 .45.13.8.14.34.37.52.24.16.51.17.3 0 .5-.17.21-.16.35-.54.09-.23.3-1.07.2-.82.37-1.16.23-.43.56-.64.33-.2.75-.2.45 0 .85.25t.6.75.2 1.1a3 3 0 0 1-.22 1.18 1.7 1.7 0 0 1-1.57 1.08l-.06-.76q.57-.06.86-.42.3-.35.29-1.04 0-.72-.26-1.05a.8.8 0 0 0-.64-.33q-.33 0-.53.23t-.43 1.2a8 8 0 0 1-.38 1.33q-.25.52-.62.77a1.6 1.6 0 0 1-1.76-.03q-.41-.27-.65-.78a3.4 3.4 0 0 1 0-2.52q.24-.56.72-.87.47-.3 1.07-.33m-1.92 11.49h5.29v-1.98h.71v4.76h-.71v-1.99h-5.29zm0 7.82h6v.79h-6zm2.1 10.57-.2.8a2.7 2.7 0 0 1-1.5-.9 2.5 2.5 0 0 1-.5-1.6q0-.97.39-1.57t1.14-.93a4 4 0 0 1 3.25.04q.7.36 1.06 1.02t.36 1.46q0 .9-.46 1.51-.45.62-1.29.86l-.18-.78q.65-.21.95-.6.3-.4.3-1 0-.7-.33-1.16a2 2 0 0 0-.9-.66 4 4 0 0 0-1.14-.18q-.78 0-1.34.22t-.86.7q-.27.46-.28 1.01 0 .67.39 1.13.38.47 1.14.63m-2.1 6h6v.79h-6zm0 5.63 6 2.3v.86l-6 2.45v-.9l1.81-.7v-2.51l-1.81-.66zm2.46 1.73v2.03l1.66-.62q.75-.3 1.25-.43a8 8 0 0 1-1.15-.32zm-2.46 16.68h2.54l3.46-2.32v.97l-1.81 1.18q-.51.34-1.02.61.48.27 1.06.66l1.77 1.16v.93l-3.46-2.4h-2.54z" class="fil24" style="fill:#1f1a17;fill-rule:nonzero"/><path d="M96.45 222.75c1.26-1.14 4.18-2.15 6.44-2.15h40.49c5.57 0 10.12-4.53 10.12-10.06v-61.97H96.45z" class="fil41 str2" style="fill:url(#y);stroke:#1f1a17;stroke-width:.178601"/><path d="M147.76 219.6a10.1 10.1 0 0 0 5.74-9.06v-45.52c-19.01-.17-38.03 2.3-57.05 6.65v14.92z" class="fil1 str2" style="fill:#eac102;stroke:#1f1a17;stroke-width:.178601"/><path d="M96.45 222.75c1.26-1.14 4.18-2.15 6.44-2.15h40.49c4.82 0 8.88-3.39 9.88-7.89-17.52-14.8-36.07-27.58-56.8-35.5z" class="fil42 str2" style="fill:url(#z);stroke:#1f1a17;stroke-width:.178601"/><path d="M126.51 220.6c-8.97-11.17-18.96-21.51-30.06-30.26m0 .42a161 161 0 0 1 28.07 29.84m15.85 0h2.07c-12.15-14.8-28.53-30.1-45.99-38.4v.47c16.77 9.11 32.9 23.53 43.92 37.94m-31.79 0h1.52a111 111 0 0 0-13.65-23.62v1.48a99 99 0 0 1 12.13 22.15" class="fil43" style="fill:#00803a"/><path d="M153.5 184.06v-30.42c-6.97 10.52-14.62 20.46-21.59 30.98-4.29 0-7.28.55-9.44.82-4.22 1.73-7.87 5.17-12.21 10.74 1.05.76 2.39 1.13 3.2.96 4-2.33 3.1-3.38 5.75-4.12a5 5 0 0 1 1.6-.29c.17 2.2-.07 4.03-1.5 5.31l-8.32 6.08c-1.66 1.6-.23 3.07 1.91 2.7 2.25-1.66 4.84-2.63 7.1-4.28l-6.53 6.98q-1.1 4.2 3.6 2.25c.52-.23.88-.88 1.4-1.1.1 1.58 1.8 1.2 2.7.81.9-.6 1.3-.69 2.2-1.29q1 1.2 2.7.68c5.42-3.42 9.1-7.32 12.48-11.2 1.56-2.1 2.77-4.03 2.14-6.13 4.41-3.02 8.63-6.23 12.81-9.48z" class="fil38 str2" style="fill:#d9b286;stroke:#1f1a17;stroke-width:.178601"/><path d="M153.5 184.06v-2.7l-11.38 8.5-3.34-.15c1.3-2.33 2.97-3.7 6.66-7.07-4.29 3.06-4.17 3.07-8.45 6.13l-2.04-1.87c.53-.41 1.42-1.77 3.01-4.8-2.09 4.03-1.2 2.01-4.29 5.05l4.09 2.81 2.3 2.47c-1.55 2.23-1.52 3.8-3.21 5.28-.6-.82-.37.22-.97-.6-1.8.09-5.83 1.2-5.3-.42 1.59.16 4.13-.96 3.52-2.98-.98-2.14-2.81-2.11-4.6-2.22.65.49 2.2.45 2.85.93.4.25.8 1.48 1.2 1.74-.01 1.85-2.01 1.38-2.94 1.76-2.46 1-4.23-.1-6.13-.43l-1.36 1.03 1.79-.43c3.1 1.8 6.31 2.2 9.61 1.62.03.68.65 1.65.09 2.04-1.37.95-3.18 1.25-4.85 1.28-1.22.01-2.3-.3-3.75-.34s-4.3-2-4.93-2.9c-.26-.36.76-2.1.85-2.64.97-6.03-4.6-2.26-6.37-.28-1.68 1.88-3.39 1.84-4.96.87l-.34.44c1.05.76 2.39 1.13 3.2.96 4-2.33 3.1-3.38 5.75-4.12a5 5 0 0 1 1.6-.29c.17 2.2-.07 4.03-1.5 5.31l-8.32 6.08c-1.66 1.6-.23 3.07 1.91 2.7l.6-.42-1.78-1.2c2.17-2.1 3.66-4.5 7.82-5.7l1.8 1.27-1.71 1.87q1.2-.07 2.38-1.36.86-.98 1.7.43c-2.76 2.3-5.43 4.72-7.4 7.83q-.87.68-.85 1.95c-.72-1.04-1.44-.68-2.16-.13q.09.42.33.66l.3.21q.92.45 3.14-.46c.49-.21.83-.8 1.3-1.05l.24-2.12 6.3-6.3q1.6-.75 3.23.6a11.3 11.3 0 0 0-4.43 4.25c-.95.41-1.88 1-2.63 2.81l-1.28.6-.75 1.12c.6.3 1.54.05 2.13-.2.86-.57 1.25-.68 2.07-1.2l.04-1.68 5.96-5.96c2.08.34 1.65.07 2.4 2.03-1.64 1.4-2.46 2.71-4.1 4.1-1-.03-1.63.46-2.22 1.02q-.86.61-.24 1.23.45 0 .98-.15c5.42-3.42 9.1-7.32 12.48-11.2 1.33-1.85 2.6-3.67 2.14-6.13 4.41-3.02 8.63-6.23 12.81-9.48" class="fil44" style="fill:#8c7860"/><path d="M96.45 222.75c1.26-1.14 4.18-2.15 6.44-2.15h40.49c5.57 0 10.12-4.53 10.12-10.06v-61.97H96.45z" class="fil4 str1" style="fill:none;stroke:#1f1a17;stroke-width:.71440399"/><path d="M130.24 159.95c-3.42 8.4-1.29 15.29-4.2 24.7l5.2.17c2.5-11.44-.05-17.68-1-24.87z" class="fil11 str2" style="fill:#00923f;stroke:#1f1a17;stroke-width:.178601"/><path d="M130.24 159.95c-2.4 5.92-2.06 11.09-2.67 16.92l1.33 4.25 1.34-2.02c1.52-5.2 1.3-11.48-.34-17.14l.4-1.6z" class="fil11 str2" style="fill:#00923f;stroke:#1f1a17;stroke-width:.178601"/><path d="M126.2 182.47h.18c4.6-4.48 5.32-10.87 11.26-16.81-4.81 11.83-1.34 15.63-8.58 25.71l-2.85-8.9z" class="fil11 str2" style="fill:#00923f;stroke:#1f1a17;stroke-width:.178601"/><path d="M127.74 180.96q1.02-1.3 1.84-2.75l.66.39.84 6.89 3.36-12.6-2.69 13.6v.54a33 33 0 0 1-2.33 3.83l-.64-.37-.29-.9z" class="fil11 str2" style="fill:#00923f;stroke:#1f1a17;stroke-width:.178601"/><path d="M127.74 180.96q1.02-1.3 1.84-2.75l.66.39.84 6.89 3.36-12.6-2.69 13.6v.54a33 33 0 0 1-2.33 3.83l-.64-.37-.29-.9z" class="fil11 str2" style="fill:#00923f;stroke:#1f1a17;stroke-width:.178601"/><path d="M124.86 195.91v-.17c2.47 1.35 3.76 1.35 6.22 0a13 13 0 0 1-1.18-5.71c1.4-14.12-2.52-12.89-4.2-21.01-2.27 7.48-2.5 14.76 1.52 21.34-.56 1.85-1.8 3.7-2.36 5.55z" class="fil11 str2" style="fill:#00923f;stroke:#1f1a17;stroke-width:.178601"/><path d="M124.86 195.91v-.17a6.5 6.5 0 0 0 3.13 1.01c-.54-2.07.6-3.47.9-5.21l1.01-1.28v-.23l.09-.9-1.6-.11c-1.62-4.2-2.46-9.19-3.2-14.29.2 4.99.82 9.98 2.36 14.96l-3.42-9.23a21 21 0 0 0 3.09 9.9c-.56 1.85-1.8 3.7-2.36 5.55z" class="fil11 str2" style="fill:#00923f;stroke:#1f1a17;stroke-width:.178601"/><circle cx="53.67" cy="241.28" r="3.57" class="fil12 str1" style="fill:#da251d;stroke:#1f1a17;stroke-width:.71440399"/><circle cx="139.24" cy="241.28" r="3.57" class="fil12 str1" style="fill:#da251d;stroke:#1f1a17;stroke-width:.71440399"/><path d="M44.67 271.29v-6.6h.87v5.82h3.25v.78zm5.31 0v-6.6h.88v6.6zm2.38.01v-6.61h2.48q.75 0 1.21.2t.72.62q.26.4.26.87 0 .42-.23.8-.24.36-.7.6.6.18.92.6t.33 1a2 2 0 0 1-.68 1.47q-.3.23-.73.33t-1.06.11zm.88-3.84h1.42q.59 0 .84-.07a1 1 0 0 0 .5-.33 1 1 0 0 0 .17-.58q0-.33-.16-.58a.8.8 0 0 0-.45-.34q-.3-.1-1-.1h-1.32zm0 3.05h1.64q.42 0 .6-.03.3-.06.5-.18t.33-.37.13-.55q0-.37-.19-.65a1 1 0 0 0-.52-.38 3 3 0 0 0-.97-.1h-1.52zm5.32.79v-6.61h2.93q.89 0 1.34.18t.74.62q.27.45.27 1 0 .7-.46 1.18-.45.49-1.4.62.34.16.53.33.38.34.72.87l1.15 1.8h-1.1l-.87-1.37q-.39-.6-.63-.91a2 2 0 0 0-.45-.44 1 1 0 0 0-.4-.18q-.15-.03-.48-.03h-1.01v2.93zm.88-3.7h1.87q.6 0 .94-.12a1 1 0 0 0 .51-.4q.18-.27.18-.59a1 1 0 0 0-.34-.77q-.34-.3-1.08-.3h-2.08zm5.79 3.69v-6.6H70v.78h-3.9v2.02h3.65v.77H66.1v2.25h4.05v.78zm10.39.01v-2.8l-2.55-3.81h1.07l1.3 1.99q.36.55.67 1.12.3-.53.72-1.17l1.28-1.94h1.02l-2.64 3.8v2.8zm6.38-2.13.83-.07q.06.5.28.81.21.31.66.51t1.01.2q.5 0 .88-.15.39-.15.57-.4a1 1 0 0 0 .2-.57q0-.3-.19-.54a1.3 1.3 0 0 0-.6-.4q-.25-.1-1.17-.32a6 6 0 0 1-1.27-.4 2 2 0 0 1-.7-.62 1.5 1.5 0 0 1-.24-.82q0-.5.28-.94.3-.43.83-.66.55-.22 1.21-.22.74 0 1.3.23a1.9 1.9 0 0 1 1.19 1.74l-.84.06q-.07-.62-.46-.94t-1.15-.32q-.79 0-1.16.29a1 1 0 0 0-.36.7q0 .36.26.58.25.24 1.32.47 1.06.24 1.46.42.58.27.85.68.27.4.27.94t-.3.99a2 2 0 0 1-.87.73q-.56.25-1.27.25-.9 0-1.5-.26a2 2 0 0 1-.95-.78 2 2 0 0 1-.36-1.19m6.19-1.09q0-1.65.87-2.58a3 3 0 0 1 2.28-.93q.91 0 1.65.44t1.12 1.22q.38.77.38 1.77t-.4 1.8q-.4.78-1.15 1.2-.75.4-1.6.4a3 3 0 0 1-1.67-.45q-.73-.44-1.11-1.23a4 4 0 0 1-.38-1.65m.9 0q0 1.2.63 1.89.65.69 1.61.69.99 0 1.63-.7t.64-1.97q0-.8-.28-1.4a2.1 2.1 0 0 0-1.97-1.27q-.93 0-1.6.64-.67.65-.67 2.13m6.52 3.22v-6.61h2.47q.75 0 1.22.2.45.2.71.62.26.4.26.87 0 .42-.23.8-.22.36-.7.6.6.18.93.6.32.42.32 1a2 2 0 0 1-.68 1.47q-.3.23-.72.33-.44.1-1.07.11zm.87-3.84h1.43q.57 0 .83-.07a1 1 0 0 0 .5-.33 1 1 0 0 0 .17-.58q0-.33-.16-.58a.8.8 0 0 0-.45-.34q-.3-.1-1-.1h-1.32zm0 3.05h1.64q.43 0 .6-.03.3-.06.5-.18t.33-.37q.14-.24.14-.55 0-.37-.2-.65a1 1 0 0 0-.52-.38 3 3 0 0 0-.96-.1h-1.53zm5.33.78v-6.6h4.77v.78h-3.89v2.02h3.65v.77h-3.65v2.25h4.05v.78zm6.15.01v-6.61h2.93q.87 0 1.34.18.45.18.73.62.28.45.28 1 0 .7-.46 1.18-.45.49-1.4.62.34.16.52.33.39.34.73.87l1.15 1.8h-1.1l-.87-1.37q-.39-.6-.64-.91a2 2 0 0 0-.44-.44 1 1 0 0 0-.4-.18q-.15-.03-.48-.03h-1.02v2.93zm.87-3.7h1.88q.6 0 .94-.12a1 1 0 0 0 .51-.4q.18-.27.18-.59a1 1 0 0 0-.34-.77q-.35-.3-1.08-.3h-2.09zm5.05 3.7 2.54-6.61h.94l2.7 6.6h-1l-.77-2h-2.76l-.72 2zm1.9-2.72h2.24l-.69-1.83a18 18 0 0 1-.46-1.37q-.13.65-.36 1.26zm4.97 2.71v-6.6h.89l3.47 5.18v-5.18h.84v6.6h-.9l-3.46-5.19v5.19zm6.4-3.21q0-1.65.88-2.58a3 3 0 0 1 2.28-.93q.92 0 1.65.44.74.44 1.12 1.22.39.77.39 1.77t-.4 1.8q-.41.78-1.16 1.2-.75.4-1.6.4a3 3 0 0 1-1.67-.45q-.73-.44-1.11-1.23a4 4 0 0 1-.38-1.65m.9 0q0 1.2.64 1.89.65.69 1.61.69.99 0 1.63-.7t.64-1.97q0-.8-.28-1.4a2.1 2.1 0 0 0-1.97-1.27q-.93 0-1.6.64-.66.65-.67 2.13m9.1 3.22v-6.61h2.28q.77 0 1.17.1.57.12.97.47.53.45.78 1.12.26.7.26 1.57 0 .75-.17 1.34-.18.57-.45.96-.28.38-.6.6-.33.21-.8.33-.46.1-1.05.11zm.88-.79h1.4q.66 0 1.03-.12.38-.12.6-.34.3-.3.48-.84.17-.52.17-1.27 0-1.03-.34-1.6-.34-.54-.83-.74a3 3 0 0 0-1.12-.13H138zm5.8.78v-6.6h4.78v.78h-3.9v2.02h3.65v.77h-3.65v2.25h4.05v.78zm12.33-2.17-3.3-5.71 2.16-1.25q.56-.33.9-.45.46-.17.86-.14t.77.3.63.67q.42.74.25 1.5-.18.77-1.39 1.47l-1.47.85 1.35 2.32zm-.97-3.43 1.47-.86q.75-.42.89-.87t-.14-.95a1.2 1.2 0 0 0-.54-.5 1 1 0 0 0-.67-.07q-.22.06-.73.36l-1.47.84zm6.75-7.53.75-.43 1.91 3.3q.5.86.6 1.48t-.23 1.23-1.15 1.1q-.8.45-1.48.47-.66.02-1.19-.38a4 4 0 0 1-1.04-1.3l-1.91-3.3.76-.44 1.9 3.3q.43.75.77 1.01.35.27.8.27.43 0 .93-.28.83-.48.97-1.07.14-.58-.49-1.66zm5.33 4.55-3.3-5.72 4.14-2.39.38.68-3.37 1.95 1.01 1.75 3.16-1.83.39.67-3.16 1.83 1.12 1.95 3.51-2.03.39.67zm5.28-3.05-3.3-5.72 2.15-1.24q.65-.38 1.15-.43.5-.06.93.18.42.23.66.62.2.37.2.8-.01.45-.3.88.6-.15 1.1.05.48.22.77.7a2 2 0 0 1 .15 1.63q-.15.33-.46.64t-.87.63zm-1.15-3.75 1.23-.72q.5-.3.68-.48a1 1 0 0 0 .27-.54 1 1 0 0 0-.14-.58q-.16-.29-.42-.42a.8.8 0 0 0-.56-.07q-.3.06-.92.42l-1.14.66zm1.52 2.64 1.42-.83q.37-.2.5-.32.24-.2.35-.4.1-.22.1-.5 0-.27-.16-.54a1 1 0 0 0-.49-.46 1 1 0 0 0-.64-.07q-.34.08-.9.39l-1.32.76zm4.96-1.97-3.3-5.71.76-.44 2.91 5.04 2.81-1.62.39.67zm3.85-2.22-1.1-6.98.8-.47 5.65 4.36-.87.5-1.66-1.35-2.4 1.38.38 2.1zm.29-3.3 1.94-1.12-1.51-1.24q-.7-.56-1.1-.95.22.61.33 1.27zm-176 .41 3.3-5.72 4.13 2.39-.39.67-3.37-1.95-1.01 1.75 3.16 1.83-.39.67-3.16-1.83-1.12 1.95 3.51 2.03-.39.67zm6.12 1.08.75.35q-.21.45-.17.84.02.38.31.77.3.4.78.68.44.25.84.31t.7-.07.44-.4q.16-.26.12-.55t-.32-.64q-.17-.21-.86-.86a6 6 0 0 1-.9-1q-.28-.46-.3-.88-.01-.44.21-.83a1.7 1.7 0 0 1 1.76-.82q.6.08 1.16.4.64.38 1 .86a1.9 1.9 0 0 1 .16 2.1l-.75-.37q.26-.57.08-1.04t-.84-.86q-.69-.4-1.15-.32a1 1 0 0 0-.66.42.8.8 0 0 0-.07.64q.1.32.9 1.06.8.75 1.06 1.1a2 2 0 0 1 .4 1q.03.5-.23.96-.27.45-.76.7-.5.26-1.11.2a3.8 3.8 0 0 1-2.4-1.39 2 2 0 0 1-.43-1.15q-.04-.63.28-1.21m5.97 5.9 2.92-5.04-1.89-1.09.39-.67 4.53 2.61-.39.68-1.89-1.1-2.91 5.05zm2.2 1.27 5.5-4.45.82.47-.96 7.07-.86-.5.33-2.11-2.39-1.38-1.63 1.36zm3.01-1.4 1.94 1.13.32-1.93q.15-.88.28-1.42-.43.48-.94.91zm2.95 4.84 3.3-5.72 1.97 1.14q.67.39.97.67.44.39.6.9.24.63.12 1.36-.12.72-.56 1.49a5 5 0 0 1-.82 1.06q-.45.42-.87.61-.43.2-.82.22t-.85-.1a5 5 0 0 1-.97-.44zm1.15-.24 1.22.7q.57.33.95.41.38.09.68 0 .43-.1.84-.48.41-.36.78-1.01.53-.9.5-1.55a1.7 1.7 0 0 0-.34-1.06q-.23-.3-.9-.68l-1.2-.7zm6 .65a3.6 3.6 0 0 1 2.05-1.78 3 3 0 0 1 2.44.33q.8.45 1.2 1.2.42.75.37 1.62a4 4 0 0 1-.56 1.72 4 4 0 0 1-1.24 1.36q-.75.48-1.6.46a3 3 0 0 1-1.59-.45 3 3 0 0 1-1.22-1.22 3 3 0 0 1-.35-1.62q.07-.87.5-1.62m.77.46q-.6 1.04-.38 1.95.22.92 1.05 1.4.85.5 1.75.21a2.8 2.8 0 0 0 1.54-1.38q.4-.7.46-1.36a2.1 2.1 0 0 0-1.07-2.08q-.8-.46-1.7-.24-.9.21-1.65 1.5" class="fil24" style="fill:#1f1a17;fill-rule:nonzero"/><path d="M3.23 256.44a2.2 2.2 0 0 0 2.18-2.46l2.74.88-4.03-2.33c-.66-.38-2.16-.5-2.47-.06-.35.48-.62.88-.62 1.77 0 .9.99 2.2 2.2 2.2" class="fil2" style="fill:#c0a062"/><path d="M76.85 159.42h13.22v3.27H76.85z" class="fil45 str4" style="fill:#f8c300;stroke:#1f1a17;stroke-width:.0771508"/><path d="M79.75 162.7h-1.76v-1.82c0-.48.4-.88.88-.88s.88.4.88.88z" class="fil2 str4" style="fill:#c0a062;stroke:#1f1a17;stroke-width:.0771508"/><path d="M76.28 158.71h13.79v.71H76.28zm19.91.71h8.53v3.27h-8.53zm0-.71h8.96v.71h-8.96z" class="fil45 str4" style="fill:#f8c300;stroke:#1f1a17;stroke-width:.0771508"/><path d="m91.42 148.06-.3-3.96q-.1 1-.35 1.87a5 5 0 0 1-.58 1.34q-.33.47-.68.66-.33.2-.67.2a.5.5 0 0 1-.32-.09.3.3 0 0 1-.1-.2q0-.1.08-.17a.3.3 0 0 1 .2-.08l.25.04q.15.05.25.05.18 0 .36-.13a2 2 0 0 0 .56-.69q.29-.5.5-1.38.22-.9.28-1.73-.84 0-1.36.41-.42.33-.42.74 0 .18.2.44.1.13.1.22 0 .1-.05.16a.2.2 0 0 1-.15.06q-.15 0-.25-.16a1 1 0 0 1-.16-.52q0-.41.29-.8.27-.38.78-.59.5-.2 1.17-.2.36 0 .58-.07v.51l.21 2.8q.9-1.55 1.74-2.55.6-.72 1.05-.97a20 20 0 0 0-.55 1.85l-.45 1.77-.1.43-.09.4q.28.06.52.06.18 0 .4-.04l-.05.21a2 2 0 0 1-.73 0l-.41-.03q-.2 0-.43.08.2-.54.42-1.43l.28-1.13q.18-.72.32-1-.3.33-.91 1.23-.5.73-1.1 1.83zm6.01-3.31.25-.06-.28.94a16 16 0 0 0-.4 1.79q0 .1.1.11.06 0 .19-.08.23-.13.43-.34l.12.15q-.42.38-.54.46-.23.17-.44.24a1 1 0 0 1-.28.05q-.08 0-.14-.04-.05-.04-.05-.13l.03-.15.15-.5q-.32.38-.76.65a1 1 0 0 1-.5.17.4.4 0 0 1-.32-.15 1 1 0 0 1-.15-.53q0-.39.2-.87t.56-.87.74-.58q.3-.14.77-.14l.24.02zm-.45.56-.34-.04a1 1 0 0 0-.58.18q-.24.18-.46.66a2 2 0 0 0-.2.94q0 .25.08.36.08.12.22.11.25 0 .54-.27t.43-.8z" class="fil24" style="fill:#1f1a17;fill-rule:nonzero"/><path d="m98.08 145.56-.12-.18.27-.18q.4-.27.56-.35l.17-.05q.08 0 .15.1.33.4.55 1.1a4 4 0 0 1 .21 1.6q.63-1.14.62-1.82 0-.15-.06-.37-.07-.26-.07-.37a.24.24 0 0 1 .24-.25q.14 0 .21.1.08.1.08.29 0 .46-.22 1.18-.21.7-.68 1.53-.47.82-.85 1.2-.38.4-.75.58-.35.17-.68.17a.6.6 0 0 1-.36-.1q-.12-.08-.13-.2 0-.12.1-.2a.4.4 0 0 1 .26-.08q.13 0 .34.05.24.05.32.05.22 0 .47-.19.34-.25.55-.61.2-.36.2-.72 0-.51-.15-1.23t-.42-1.1q-.15-.2-.3-.2-.18 0-.51.25m4.86-.76q.36 0 .6.3.24.28.24.8 0 .81-.58 1.46-.57.66-1.22.65a.8.8 0 0 1-.63-.25 1 1 0 0 1-.24-.7q0-.78.44-1.44.55-.81 1.39-.81m-.32.28q-.3 0-.6.45t-.3 1.24q0 .48.18.75.14.2.36.2.31 0 .56-.38.33-.5.33-1.23 0-.55-.15-.79t-.38-.24" class="fil24" style="fill:#1f1a17;fill-rule:nonzero"/><path d="m91.42 148.06-.3-3.96q-.1 1-.35 1.87a5 5 0 0 1-.58 1.34q-.33.47-.68.66-.33.2-.67.2a.5.5 0 0 1-.32-.09.3.3 0 0 1-.1-.2q0-.1.08-.17a.3.3 0 0 1 .2-.08l.25.04q.15.05.25.05.18 0 .36-.13a2 2 0 0 0 .56-.69q.29-.5.5-1.38.22-.9.28-1.73-.84 0-1.36.41-.42.33-.42.74 0 .18.2.44.1.13.1.22 0 .1-.05.16a.2.2 0 0 1-.15.06q-.15 0-.25-.16a1 1 0 0 1-.16-.52q0-.41.29-.8.27-.38.78-.59.5-.2 1.17-.2.36 0 .58-.07v.51l.21 2.8q.9-1.55 1.74-2.55.6-.72 1.05-.97a20 20 0 0 0-.55 1.85l-.45 1.77-.1.43-.09.4q.28.06.52.06.18 0 .4-.04l-.05.21a2 2 0 0 1-.73 0l-.41-.03q-.2 0-.43.08.2-.54.42-1.43l.28-1.13q.18-.72.32-1-.3.33-.91 1.23-.5.73-1.1 1.83zm6.01-3.31.25-.06-.28.94a16 16 0 0 0-.4 1.79q0 .1.1.11.06 0 .19-.08.23-.13.43-.34l.12.15q-.42.38-.54.46-.23.17-.44.24a1 1 0 0 1-.28.05q-.08 0-.14-.04-.05-.04-.05-.13l.03-.15.15-.5q-.32.38-.76.65a1 1 0 0 1-.5.17.4.4 0 0 1-.32-.15 1 1 0 0 1-.15-.53q0-.39.2-.87t.56-.87.74-.58q.3-.14.77-.14l.24.02zm-.45.56-.34-.04a1 1 0 0 0-.58.18q-.24.18-.46.66a2 2 0 0 0-.2.94q0 .25.08.36.08.12.22.11.25 0 .54-.27t.43-.8z" class="fil25 str4" style="fill:none;fill-rule:nonzero;stroke:#1f1a17;stroke-width:.0771508"/><path d="m98.08 145.56-.12-.18.27-.18q.4-.27.56-.35l.17-.05q.08 0 .15.1.33.4.55 1.1a4 4 0 0 1 .21 1.6q.63-1.14.62-1.82 0-.15-.06-.37-.07-.26-.07-.37a.24.24 0 0 1 .24-.25q.14 0 .21.1.08.1.08.29 0 .46-.22 1.18-.21.7-.68 1.53-.47.82-.85 1.2-.38.4-.75.58-.35.17-.68.17a.6.6 0 0 1-.36-.1q-.12-.08-.13-.2 0-.12.1-.2a.4.4 0 0 1 .26-.08q.13 0 .34.05.24.05.32.05.22 0 .47-.19.34-.25.55-.61.2-.36.2-.72 0-.51-.15-1.23t-.42-1.1q-.15-.2-.3-.2-.18 0-.51.25zm4.86-.76q.36 0 .6.3.24.28.24.8 0 .81-.58 1.46-.57.66-1.22.65a.8.8 0 0 1-.63-.25 1 1 0 0 1-.24-.7q0-.78.44-1.44.55-.81 1.39-.81zm-.32.28q-.3 0-.6.45t-.3 1.24q0 .48.18.75.14.2.36.2.31 0 .56-.38.33-.5.33-1.23 0-.55-.15-.79t-.38-.24z" class="fil25 str4" style="fill:none;fill-rule:nonzero;stroke:#1f1a17;stroke-width:.0771508"/><path d="M92.89 150.77h.08l-.34 1.32-.29 1.23-.04.21q0 .04.04.07.05.03.2.04l.21.03-.05.12q-.53-.06-.74-.05-.3 0-.66.05l.04-.12.3-.07q.16-.03.22-.1.07-.09.17-.41l.26-1.01q.13-.6.13-.66 0-.09-.07-.09-.05 0-.5.2l-.04-.12q.63-.3.78-.4zm1.93 1.32q.42.42.42.78 0 .35-.3.65-.3.28-.74.28-.34 0-.54-.2a.6.6 0 0 1-.18-.41q0-.15.08-.31t.24-.31q.12-.12.57-.4a1 1 0 0 1-.26-.6q0-.33.24-.55a.8.8 0 0 1 .6-.23q.26 0 .42.14.17.14.17.34a.6.6 0 0 1-.15.38q-.2.24-.57.44m-.11-.13a2 2 0 0 0 .45-.39q.1-.15.1-.26 0-.15-.1-.25a.4.4 0 0 0-.27-.1.4.4 0 0 0-.32.12.4.4 0 0 0-.14.32q0 .27.28.56m-.23.33q-.4.27-.53.47a1 1 0 0 0-.13.42q0 .2.14.34.13.13.34.13.15 0 .3-.08a1 1 0 0 0 .22-.23q.08-.15.08-.3t-.08-.3q-.09-.18-.34-.45m3.42-1.5-.03.14q-.4.03-.7.16-.28.13-.48.37a2 2 0 0 0-.32.65q.14-.11.27-.16.15-.06.29-.06.27 0 .45.2t.17.56q0 .5-.3.85-.26.3-.66.3a.7.7 0 0 1-.55-.26 1 1 0 0 1-.22-.71q0-.55.28-1.04a2 2 0 0 1 1.8-1m-1.58 1.52q-.07.38-.07.63 0 .38.12.56.12.17.3.17.19 0 .3-.19.15-.24.15-.7 0-.37-.1-.54-.1-.16-.26-.16l-.2.06q-.12.06-.24.17m2.1-.78-.13-.06q.2-.39.4-.54t.47-.15q.3 0 .5.2.17.2.18.46 0 .16-.07.33a1 1 0 0 1-.22.35q-.1.12-.54.5-.6.51-.84.83l.86-.01q.18.01.25-.04.06-.03.21-.28h.17q-.2.28-.34.68a4 4 0 0 0-.78-.06q-.26 0-.74.03l.05-.16q.22-.33.66-.75.45-.4.57-.57.18-.24.27-.45a1 1 0 0 0 .06-.3.5.5 0 0 0-.12-.36.4.4 0 0 0-.3-.13q-.15 0-.28.1-.15.1-.3.38" class="fil24" style="fill:#1f1a17;fill-rule:nonzero"/><path d="M92.89 150.77h.08l-.34 1.32-.29 1.23-.04.21q0 .04.04.07.05.03.2.04l.21.03-.05.12q-.53-.06-.74-.05-.3 0-.66.05l.04-.12.3-.07q.16-.03.22-.1.07-.09.17-.41l.26-1.01q.13-.6.13-.66 0-.09-.07-.09-.05 0-.5.2l-.04-.12q.63-.3.78-.4zm1.93 1.32q.42.42.42.78 0 .35-.3.65-.3.28-.74.28-.34 0-.54-.2a.6.6 0 0 1-.18-.41q0-.15.08-.31t.24-.31q.12-.12.57-.4a1 1 0 0 1-.26-.6q0-.33.24-.55a.8.8 0 0 1 .6-.23q.26 0 .42.14.17.14.17.34a.6.6 0 0 1-.15.38q-.2.24-.57.44zm-.11-.13a2 2 0 0 0 .45-.39q.1-.15.1-.26 0-.15-.1-.25a.4.4 0 0 0-.27-.1.4.4 0 0 0-.32.12.4.4 0 0 0-.14.32q0 .27.28.56zm-.23.33q-.4.27-.53.47a1 1 0 0 0-.13.42q0 .2.14.34.13.13.34.13.15 0 .3-.08a1 1 0 0 0 .22-.23q.08-.15.08-.3t-.08-.3q-.09-.18-.34-.45zm3.42-1.5-.03.14q-.4.03-.7.16-.28.13-.48.37a2 2 0 0 0-.32.65q.14-.11.27-.16.15-.06.29-.06.27 0 .45.2t.17.56q0 .5-.3.85-.26.3-.66.3a.7.7 0 0 1-.55-.26 1 1 0 0 1-.22-.71q0-.55.28-1.04a2 2 0 0 1 1.8-1zm-1.58 1.52q-.07.38-.07.63 0 .38.12.56.12.17.3.17.19 0 .3-.19.15-.24.15-.7 0-.37-.1-.54-.1-.16-.26-.16l-.2.06q-.12.06-.24.17zm2.1-.78-.13-.06q.2-.39.4-.54t.47-.15q.3 0 .5.2.17.2.18.46 0 .16-.07.33a1 1 0 0 1-.22.35q-.1.12-.54.5-.6.51-.84.83l.86-.01q.18.01.25-.04.06-.03.21-.28h.17q-.2.28-.34.68a4 4 0 0 0-.78-.06q-.26 0-.74.03l.05-.16q.22-.33.66-.75.45-.4.57-.57.18-.24.27-.45a1 1 0 0 0 .06-.3.5.5 0 0 0-.12-.36.4.4 0 0 0-.3-.13q-.15 0-.28.1-.15.1-.3.38z" class="fil25 str4" style="fill:none;fill-rule:nonzero;stroke:#1f1a17;stroke-width:.0771508"/><path d="M83.21 162.7h-1.76v-1.82c0-.48.4-.88.88-.88.49 0 .88.4.88.88zm3.34 0H84.8v-1.82c0-.48.4-.88.88-.88.49 0 .88.4.88.88zm14.81 0h-1.77v-1.82c0-.48.4-.88.88-.88.49 0 .89.4.89.88z" class="fil2 str4" style="fill:#c0a062;stroke:#1f1a17;stroke-width:.0771508"/><path d="M96.81 179.9c-2.32-1.56-2.53-3.13-6.97-3.59-17.94-1.87-20.35-10.34-17.22-19.9 1.87-5.7 3.06-12.34 2.33-17.51-4.82.6-5.56-2.66-3.97-5.31l6.29-10.48c8.64 3.53 14.9 2.03 19.54-2.92 4.64 4.95 10.9 6.45 19.54 2.92l6.29 10.48c1.59 2.65.85 5.91-3.97 5.3-.72 5.18.46 11.81 2.33 17.52 3.13 9.56.72 18.04-17.22 19.9-4.44.46-4.65 2.03-6.97 3.58z" class="fil46 str1" style="fill:url(#A);stroke:#1f1a17;stroke-width:.71440399"/><path d="M96.81 179.9c-2.32-1.56-2.53-3.13-6.97-3.59-12.88-1.34-17.76-6.09-18.32-12.2l2.12-1.13 34.54-9.24 13.11 3.62c2.66 9.17-.17 17.15-17.51 18.95-4.44.46-4.65 2.03-6.97 3.58z" class="fil11 str4" style="fill:#00923f;stroke:#1f1a17;stroke-width:.0771508"/><path d="M77.62 159.42h13.22v3.27H77.62z" class="fil45 str4" style="fill:#f8c300;stroke:#1f1a17;stroke-width:.0771508"/><path d="M80.52 162.7h-1.77v-1.82c0-.48.4-.88.88-.88.49 0 .89.4.89.88z" class="fil2 str4" style="fill:#c0a062;stroke:#1f1a17;stroke-width:.0771508"/><path d="M77.05 158.71h13.79v.71H77.05z" class="fil45 str4" style="fill:#f8c300;stroke:#1f1a17;stroke-width:.0771508"/><path d="M90.7 154.73h6.25v10.52H90.7zm6.25 4.69h8.53v3.27h-8.53z" class="fil45 str4" style="fill:#f8c300;stroke:#1f1a17;stroke-width:.0771508"/><path d="M96.95 158.71h8.96v.71h-8.96z" class="fil45 str4" style="fill:#f8c300;stroke:#1f1a17;stroke-width:.0771508"/><path d="M110.74 151.75h4.98v3.27h-4.98z" class="fil20 str4" style="fill:#957f66;stroke:#1f1a17;stroke-width:.0771508"/><path d="M106.05 153.31h8.53v3.27h-8.53z" class="fil2 str4" style="fill:#c0a062;stroke:#1f1a17;stroke-width:.0771508"/><path d="M111.45 154.02h8.53v3.27h-8.53z" class="fil45 str4" style="fill:#f8c300;stroke:#1f1a17;stroke-width:.0771508"/><path d="m96.81 131.73 2.6 2.21 3.37-1.49 1.56 2.69 3.82-.63.38 2.93 3.89.29-.84 2.88 3.58 1.18-1.98 2.54 2.92 1.96-2.92 1.96 1.98 2.54-3.58 1.18.84 2.87-3.89.29-.38 2.93-3.82-.63-1.56 2.7-3.37-1.49-2.6 2.2-2.59-2.2-3.37 1.49-1.57-2.7-3.82.63-.38-2.93-3.89-.29.84-2.87-3.58-1.18 1.98-2.54-2.92-1.96 2.92-1.96-1.98-2.54 3.58-1.18-.84-2.88 3.89-.29.38-2.93 3.82.63 1.57-2.69 3.37 1.49z" class="fil6 str4" style="fill:#fff;stroke:#1f1a17;stroke-width:.0771508"/><path d="M88.94 150.14v-4.2h.83l1 2.97.2.62.22-.67 1-2.93h.76v4.2h-.54v-3.51l-1.22 3.51h-.5l-1.22-3.57v3.57zm4.44 0 1.62-4.2h.6l1.71 4.2h-.63l-.49-1.28h-1.76l-.46 1.27zm1.21-1.73h1.43l-.44-1.16-.3-.88q-.08.4-.22.8zm3.91 1.73v-1.78l-1.61-2.43h.67l.83 1.27q.24.35.43.71l.46-.74.81-1.24h.65l-1.68 2.43v1.77zm2.57-2.05q0-1.05.56-1.64.57-.6 1.45-.6.59 0 1.05.29.47.27.71.77.25.5.25 1.13 0 .64-.26 1.14-.25.51-.73.77t-1.02.26q-.6 0-1.06-.29t-.7-.78a2.4 2.4 0 0 1-.25-1.05m.57 0q0 .77.41 1.2.41.44 1.03.44t1.03-.44.4-1.25q0-.51-.17-.9a1.3 1.3 0 0 0-1.25-.8q-.6 0-1.02.4t-.43 1.36m-8.18 7.4h-.4v-2.59q-.15.15-.39.28t-.43.21v-.4q.34-.15.6-.38t.36-.45h.26zm1.67-1.8a1 1 0 0 1-.37-.26.7.7 0 0 1-.12-.41.8.8 0 0 1 .26-.61q.25-.24.69-.25.43 0 .7.26.26.25.26.61 0 .23-.12.4t-.37.27q.3.1.47.32.16.21.16.53 0 .42-.3.71-.3.3-.8.3-.48 0-.79-.3a1 1 0 0 1-.3-.72q0-.33.17-.55.16-.21.46-.3m-.08-.68q0 .23.15.38.16.15.4.15.23 0 .38-.15t.15-.36a.53.53 0 0 0-.54-.53.5.5 0 0 0-.38.15q-.16.15-.16.36m-.13 1.53q0 .17.08.34.09.16.25.25.15.09.35.09.3 0 .48-.2a.6.6 0 0 0 .2-.47q0-.3-.2-.49a.7.7 0 0 0-.5-.19q-.28 0-.47.2a.7.7 0 0 0-.19.47M99.2 153l-.4.03a1 1 0 0 0-.16-.35.5.5 0 0 0-.4-.17.6.6 0 0 0-.35.1 1 1 0 0 0-.3.42q-.12.27-.12.76a.95.95 0 0 1 1.5-.14q.3.3.29.78 0 .3-.14.58a1 1 0 0 1-.9.55q-.51 0-.83-.37-.33-.37-.32-1.24 0-.95.35-1.4.3-.38.84-.38.39 0 .64.22t.3.61m-1.67 1.43q0 .22.1.4.08.2.24.3t.34.1q.26 0 .45-.21a.8.8 0 0 0 .18-.57.8.8 0 0 0-.18-.54.6.6 0 0 0-.46-.2.6.6 0 0 0-.47.2q-.2.2-.2.52m4.27.68v.4h-2.19q0-.15.05-.29.08-.23.27-.44.18-.21.53-.5.54-.45.73-.7a1 1 0 0 0 .2-.5q0-.25-.18-.4a.6.6 0 0 0-.45-.17q-.3 0-.47.18a.7.7 0 0 0-.18.49l-.42-.05q.04-.46.32-.71t.75-.25.76.27.28.66q0 .2-.08.39a2 2 0 0 1-.27.4 7 7 0 0 1-.63.59q-.37.3-.47.41l-.17.22z" class="fil24" style="fill:#1f1a17;fill-rule:nonzero"/><path d="M96.81 179.9c-2.32-1.56-2.53-3.13-6.97-3.59-17.94-1.87-20.35-10.34-17.22-19.9 1.87-5.7 3.06-12.34 2.33-17.51-4.82.6-5.56-2.66-3.97-5.31l6.29-10.48c8.64 3.53 14.9 2.03 19.54-2.92 4.64 4.95 10.9 6.45 19.54 2.92l6.29 10.48c1.59 2.65.85 5.91-3.97 5.3-.72 5.18.46 11.81 2.33 17.52 3.13 9.56.72 18.04-17.22 19.9-4.44.46-4.65 2.03-6.97 3.58z" class="fil4 str4" style="fill:none;stroke:#1f1a17;stroke-width:.0771508"/><path d="M83.98 162.7h-1.76v-1.82c0-.48.4-.88.88-.88s.88.4.88.88zm3.34 0h-1.76v-1.82c0-.48.4-.88.88-.88s.88.4.88.88zm14.8 0h-1.76v-1.82c0-.48.4-.88.88-.88.49 0 .88.4.88.88zm-7.37 2.51H93v-3.7c0-.48.4-.88.88-.88.49 0 .88.4.88.88zm20.04-8h-1.77v-1.8a.88.88 0 1 1 1.76-.01v1.81zm3.27 0h-1.76v-1.8c0-.5.4-.89.88-.89s.88.4.88.88z" class="fil2 str4" style="fill:#c0a062;stroke:#1f1a17;stroke-width:.0771508"/><path d="m94.76 141.5.86-.08q.09.63.44.94t.83.31q.6 0 1-.44.4-.45.4-1.18 0-.7-.38-1.1-.39-.4-1.03-.4a1.4 1.4 0 0 0-1.2.64l-.77-.1.64-3.4h3.3v.77H96.2l-.36 1.79q.6-.42 1.26-.42.87 0 1.46.6.6.6.6 1.55 0 .9-.52 1.56-.64.8-1.75.8-.9 0-1.47-.5-.58-.51-.66-1.35" class="fil24" style="fill:#1f1a17;fill-rule:nonzero"/></g></svg>