<svg xmlns="http://www.w3.org/2000/svg" xml:space="preserve" id="Layer_1" x="0" y="0" viewBox="0 0 267.6 360.4"><style>.st18{fill:#dc5b2a}.st20{fill:#1e6cb5}.st22{fill:#fcb530}.st29{fill:#595453}.st48{fill:#3f3d3b}.st67{fill:#5f5029}</style><path d="M267.6 101.2v235.6c-.2.3-.1.6-.1.8v1.1c0 7.3-4.3 15.7-13.3 19.1-3.3 1.3-6.7 2.1-10.3 2.2-.5 0-1 .2-1.5.1h-2.6c-.5.1-1-.1-1.5.1H29.9c-.3-.2-.6-.1-.9-.1h-2.2c-4.5-.1-8.9-1.1-13.1-2.8-6.8-2.9-11.1-8-13-15-.4-1.3-.7-2.6-.7-3.9 0-.5.1-1-.1-1.5v-.5c0-.3.1-.6-.2-.8V101.2c.6-.6 1.4-.4 2.1-.4h25.8c2.4 0 2.5 0 2.5-2.6.1-4.2.7-8.4 1.3-12.5.3-1.7.7-3.5 1-5.2.3-1.5.7-1.8 2.3-1.5 4.9 1 9.8 1.9 14.5 3.3.5.1.8.3 1.2.3.4.1.7.2 1.1.2.2.2.6.2.8.4-.3-.2-.6-.2-.8-.4-.3 0-.7-.1-1-.2-.3 0-.6-.1-.9-.2-5-1.5-9.9-3.2-14.9-5-1.1-.4-1.4-.9-1-2 2.3-8.1 5.6-15.8 9.6-23.3.6-1.1.9-1.2 2.1-.6 2.8 1.4 5.5 2.9 8.2 4.3 2 1.1 4.1 2.1 6 3.4.3.2.6.4 1 .6.2.1.3.2.5.3s.2.2.4.2c.1.1.3.2.4.3s.2.2.4.2h.1-.1c-.2 0-.2-.1-.4-.2-.1-.1-.3-.2-.4-.3-.1 0-.2-.1-.3-.1-.2-.1-.4-.3-.7-.4-.3-.2-.6-.3-.9-.5-4.6-2.9-8.9-6.2-13.3-9.4-.9-.6-.9-1.2-.5-2 3-4.5 6.2-8.9 9.8-13 1.9-2.2 4-4.3 6.1-6.5 1-1.2 1.6-1.2 2.7-.1 3.4 3.4 6.9 6.7 10.1 10.2.6.5 1 1.1 1.6 1.7.1.1.2.3.3.4l.3.3.3.3c.1.1.1.2.3.3 0 0 0 .1.1.2l.1.1-.1-.1-.2-.2c-.1-.1-.2-.2-.2-.3l-.3-.3-.3-.3c-.1-.1-.1-.2-.2-.3-.6-.6-1.1-1.3-1.7-1.9-3-3.8-6-7.7-8.9-11.5-.9-1.2-.8-1.4.2-2.3 6.3-5.2 12.9-9.8 20.1-13.6.3-.2.7-.4 1-.5 1.1-.5 1.5-.4 2.1.7 2.6 4.9 5.5 9.7 7.9 14.7.1.2.2.4.2.6.1.3.2.6.4.8.1.2.1.4.2.5v.1l.1-.1c-.1 0-.2-.1-.2-.2 0-.2-.1-.4-.2-.6s-.2-.4-.2-.6c-.1-.3-.3-.5-.4-.8-2.4-5.1-4.2-10.5-6.2-15.6-.4-1 0-1.5.8-1.8 6.5-2.7 13.1-5 20-6.5 1.3-.3 2.6-.5 3.9-.8 1.8-.4 2.1-.2 2.5 1.6.9 4.5 2 9 2.7 13.6 0 .3.2.5.2.8 0 .4.1.9.1 1.3.1.2.1.3.1.5 0 .4.2.7.2 1-.1-.5-.2-1.1-.3-1.7-.2-.7-.1-1.5-.4-2.2-.5-4.7-.9-9.3-1.2-14-.1-1.5.1-1.7 1.6-1.8 1.7-.1 3.5-.2 5.2-.2h2.7c.6-.1 1.2.1 1.8-.1h6c.3.2.7.1 1 .1h2.4c2.1 0 4.2.2 6.3.2.9.1 1.3.5 1.4 1.4.1 1.5-.1 3.1-.3 4.6-.4 3.9-.6 7.9-1.2 11.9-.4.7-.2 1.5-.4 2.2-.1.4-.2.9-.2 1.3-.1.2.1.1.1 0-.2-.3 0-.6.1-.9 0-.6.2-1.1.2-1.7.8-5.4 2.2-10.8 3.2-16.1.4-2.1.6-2.1 2.7-1.7 8 1.6 15.6 4 23 7.2 1.8.8 2 1 1.3 2.8-2 4.7-3.6 9.6-5.8 14.3-.2.4-.4.9-.6 1.3-.1.2-.3.4-.3.6l-.3.3.1.1c0-.1 0-.2.1-.2.1-.3.3-.5.4-.7.2-.4.3-.7.5-1.1 2.3-4.7 5-9.3 7.5-14 .7-1.3 1-1.4 2.4-.7 6.4 3.4 12.4 7.3 18 12 1 .8 2 1.6 2.9 2.4.6.5.8 1.1.3 1.8-3.3 4.3-6.5 8.6-10.1 12.7-.3.4-.7.8-1.1 1.3-.1.1-.1.2-.3.3l-.3.3c0 .1-.1.2-.2.2v.1-.1c.1 0 .2-.1.2-.2l.3-.3.3-.3c.4-.4.8-.8 1.1-1.3 3.5-3.8 7.3-7.3 10.9-11 1.3-1.3 1.5-1.3 2.8 0 5.8 5.9 10.9 12.3 15.4 19.3.5.8.5 1.5-.4 2.1-4.1 2.9-8 5.9-12.2 8.6-.5.3-.9.6-1.4.8-.2.1-.2.1-.3.1-.2.1-.3.2-.5.3 0 0-.1.1-.2.1v.1-.1c.1 0 .2-.1.3-.1.2-.1.2-.2.3-.2.2-.1.3-.2.4-.3.5-.3.9-.6 1.4-.8 4.2-2.6 8.6-4.7 12.9-7.1 1-.5 1.4-.4 2 .6 3.4 6.5 6.4 13.2 8.5 20.3.3 1.1.7 2.2 1 3.3.2.8 0 1.3-.7 1.5-4.8 1.5-9.5 3.5-14.4 4.7-.3.1-.6.3-.8.3-.3.2-.7.2-1.1.4-.1 0-.2.1-.2.1-.1 0-.3.2-.4-.1.1.2.3.1.4 0 .2 0 .2-.1.3-.1.4 0 .7-.1 1-.3.4 0 .7-.2 1.1-.3 4.4-1.3 8.8-2.1 13.3-3 1.9-.4 2.4-.1 2.7 1.8 1.1 5.5 1.9 11.1 2.1 16.7.2 3.5.1 2.9 3 2.9H265c1.2.4 2 .2 2.6.8"/><path d="M130.7 0c-.6.4-1.2.2-1.8.2-.1-.1-.1-.1 0-.1V0z" style="fill:#3d3a39"/><path d="M238.4 360.4c.4-.4 1-.2 1.5-.2v.2s0 .1-.1.1c-.4-.1-.9-.1-1.4-.1" style="fill:#403d3c"/><path d="M126.4.2c0-.1 0-.1.1-.2h1l.1.1v.1c-.5 0-.8.1-1.2 0" style="fill:#bab7b6"/><path d="M240.7 360.1h1c.1.1.1.1.1.2l-.1.1h-1c-.2-.1-.2-.1-.2-.2.1 0 .2-.1.2-.1" style="fill:#a4a0a0"/><path d="M137.7.2c-.4 0-.7.1-1-.2h1c.1 0 .1.1 0 .2.1 0 0 0 0 0" style="fill:#4f4b4a"/><path d="M140 0v.2c-.3.1-.6 0-1 0-.1 0-.1-.1-.1-.1 0-.1.1-.1.1-.1z" style="fill:#b8b5b5"/><path d="M27.7 360.1h1c.1 0 .2.1.1.1 0 .1 0 .1-.1.1h-1s-.1 0 0-.2c0 .1 0 0 0 0" style="fill:#9f9b9b"/><path d="M241.7 360.4v-.2h.7v.2z" style="fill:#d0cecd"/><path d="M240.7 360.1v.2h-.8v-.2z" style="fill:#726d6c"/><path d="M29.2 360.1c.3 0 .6-.1.8.2h-.8c-.1 0-.1 0 0-.2-.1.1 0 0 0 0" style="fill:#4d4948"/><path d="M27.7 360.1v.2H27v-.2z" style="fill:#d0cdcd"/><path d="M267.4 337.6c0-.3-.1-.6.2-.8v.8c0 .1-.1.1-.2 0" style="fill:#5f5e5e"/><path d="M0 335.6c.3.2.3.4.2.8-.1.1-.1.1-.2 0z"/><path d="M138.9 0v.2h-.7c-.1 0-.1-.1-.1-.1l.1-.1z" style="fill:#938f8e"/><path d="M128.9 0v.2h-.8s-.1-.1 0-.1c0-.1 0-.1.1-.1z" style="fill:#6a6664"/><path d="M128.2 0c0 .1 0 .1-.1.2h-.7V0z" style="fill:#969191"/><path d="M138.2 0v.2h-.5c-.1-.1-.1-.1-.1-.2zm-109 360.1v.2h-.5v-.2z" style="fill:#6f6b6a"/><path d="M267.6 338.6h-.2v-.5c.1-.2.1-.2.2-.1z" style="fill:#c8c8c9"/><path d="M267.6 338.1c0 .1-.1.1-.2.1v-.5h.2z" style="fill:#9f9d9d"/><path d="M.1 336.5h.2v.5c.4.1.2 2.2.1 2.2-.2-.1-.3-2.5-.3-2.7"/><path d="M133.7 102H96.3c-1.6 0-1.5 0-1.5-1.6.4-7.5 2.6-14.3 6.9-20.4 6.1-8.7 14.5-14.2 25-16.1 13.1-2.3 24.6 1.3 34.1 10.6 6.3 6.1 9.9 13.6 11.2 22.2.2 1.5.4 3 .3 4.5 0 .6-.2.9-.8.9-.3-.1-.7 0-1 0-12.1-.1-24.5-.1-36.8-.1" class="st18"/><path d="M134.1 233.4H261c1.9 0 1.6-.3 1.6 1.6v97.8c0 2.8-.3 5.5-.9 8.2-1.5 6.8-5.8 10.9-12.5 12.6-4.2 1-8.6 1.3-12.9 1.3H33.4c-3.9 0-7.8-.2-11.7-1-3.3-.7-6.4-1.8-9.1-3.8-3.7-2.7-5.7-6.4-6.6-10.8-.4-2-.5-3.9-.5-5.9v-99c0-.9 0-.9 1-.9h1c42.1-.1 84.4-.1 126.6-.1" style="fill:#fbb430"/><path d="M199.4 227.9h-61.3c-1.8 0-1.7.2-1.7-1.5V108.1c0-1.7-.2-1.5 1.6-1.5h123.4c.9 0 .9 0 1 1v118.7c0 1.9.2 1.7-1.8 1.7-20.4-.1-40.8-.1-61.2-.1" class="st20"/><path d="M68.3 106.6h61.9c.9.1.9.1.9 1v118.5c0 1.9.3 1.7-1.7 1.7H7.2c-2.1 0-1.8.3-1.8-1.8V108.3c0-2.1-.3-1.8 1.8-1.8 20.4.1 40.8.1 61.1.1" style="fill:#dc5c2a"/><path d="M116.5 61.9c-1.1-2.8-2.2-5.5-3.2-8.2-5.3-13.6-10.6-27.2-16-40.9-.1-.1-.1-.2-.1-.3-.4-1-.4-1 .6-1.3 2.7-1.1 5.7-2.1 8.6-2.9 2.1-.6 4.3-1.2 6.5-1.6.9-.2.9-.2 1.1.7 1.1 5.1 2.1 10.2 3.2 15.2 2.4 11.8 4.9 23.5 7.4 35.3.1.3 0 .5.1.8.2.5-.1.7-.5.8-2.6.5-5 1.4-7.7 2.4M96.6 79.2l-44-31.4c1.2-2.6 8.5-11.6 11.2-13.8.2.3.5.8.8 1.1L101 71.5l.5.5c.5.3.4.6.1 1-1.8 1.9-3.2 3.9-4.7 6-.1.1-.2.1-.3.2m8.7-10C94.2 54.9 83.1 40.7 71.9 26.4c4.6-3.8 9.4-7 14.5-9.8.4.1.5.5.7.8 8.3 15.3 16.5 30.6 24.8 45.9.5.9.6.8-.3 1.4-2.3 1.2-4.3 2.7-6.3 4.5m28.2-64.7c2.6-.1 5.3.1 8 .3 1.2.1 1.2.1 1.1 1.2-.5 6.4-1.1 12.8-1.6 19.1-.4 4.5-.7 9-1.1 13.5-.4 5.5-.9 10.9-1.4 16.4-.1 1-.2 1.9-.2 2.9-.1.5-.2.7-.8.7-2.5-.2-4.9-.2-7.3 0-.6 0-.8-.2-.9-.8-.3-3.9-.6-7.9-1-11.8-.3-4.4-.7-8.9-1.1-13.3-.4-4.5-.7-8.9-1.1-13.4-.4-4.4-.8-8.8-1.1-13.2-.2-1.2-.2-1.2.9-1.3 2.6-.3 5.1-.4 7.6-.3m17.6 57.7c-2.6-1.2-5.4-2.1-8.2-2.8.7-3.5 1.4-6.8 2.1-10.2 2.5-11.7 4.9-23.5 7.4-35.3.4-2.1.9-4.1 1.3-6.2.2-1 .3-1 1.2-.8 5 1.2 10 2.7 14.9 4.7 1 .4 1 .4.6 1.5-6.4 16.2-12.7 32.4-19 48.5-.1.1-.1.3-.3.6m11.1 7.4a56 56 0 0 0-6.4-4.8c-.6-.4-.3-.8-.1-1.2 1.9-3.4 3.7-6.8 5.5-10.2 6.4-11.8 12.7-23.6 19.1-35.3.2-.4.3-.8.7-1.1q7.5 4.2 14.4 9.9c-11 14.2-22 28.4-33.2 42.7M94.3 83.4l-.3.6c-.9 2-1.8 4-2.5 6.1-.3 1-.4 1-1.3.7-5.4-1.8-10.8-3.7-16-5.5-11-3.8-22-7.5-33.1-11.3-.2-.1-.4-.1-.6-.2-.5-.1-.5-.3-.4-.8l1.8-5.1c1.2-3.3 2.6-6.4 4.1-9.5.7-1.3.5-1.1 1.6-.5C58.9 64 70.1 70.1 81.3 76.1c4.1 2.2 8.1 4.4 12.2 6.6.3.2.7.3.8.7m120.2-35.3c-.1.4-.4.5-.7.7-2.3 1.7-4.6 3.3-7 4.9-11.7 8.4-23.4 16.7-35.2 25.1-1.1.8-1.1.8-1.9-.4-1.1-1.8-2.4-3.5-3.8-5.1-.4-.4-.5-.7 0-1.1.2-.1.3-.3.4-.4 12.1-12.1 24.2-24.1 36.2-36.3 1.1-1.1 1.1-1.1 2.1.1a95 95 0 0 1 9.9 12.5m5.8 9.9c1 2 2 4 2.9 6.1 1.3 2.9 2.4 5.8 3.3 8.8.3 1.2.3 1.2-.8 1.6-10.3 3.5-20.7 7.1-31 10.6-5.7 2-11.4 3.9-17.2 5.9-.4.1-.7.3-1 .4-.4.1-.6.1-.8-.4-.7-2.3-1.6-4.6-2.6-6.8-.2-.4-.1-.6.2-.8.8-.4 1.5-.8 2.2-1.2 14.5-7.8 29.1-15.7 43.6-23.5.4-.4.7-.7 1.2-.7M37.5 84.6c3.2.6 6.5 1.3 9.7 2L73.1 92c5.4 1.1 10.8 2.3 16.2 3.4.9.2.9.2.7 1.1-.2 1.4-.3 2.7-.5 4.1-.1.5-.3.7-.8.7H37c-1.3 0-1.3.2-1.3-1.3.1-4.9.7-9.9 1.5-14.8.1-.2 0-.5.3-.6m166.8 16.6h-25.4c-1.3 0-1.3 0-1.5-1.4-.1-1-.3-2.1-.4-3.1-.2-1-.2-1 .8-1.2 3.3-.7 6.6-1.4 9.8-2 9.7-2 19.5-4.1 29.3-6.1l11.6-2.4c.8-.1.9-.1 1 .7.3 1.6.5 3.3.7 4.9.4 3.1.7 6.3.8 9.5 0 1.2 0 1.2-1.2 1.2-8.4-.1-16.9-.1-25.5-.1" class="st22"/><path d="M74.7 38.8c.1-.1.2-.3.3-.4.7.6 1.2 1.4 1.7 2.1q-.15.15-.3 0c-.7-.5-1.2-1.1-1.7-1.7" style="fill:#dfe0e2"/><path d="M146.2 18.4c.1.3 0 .6.2.8-.1.6-.2 1.1-.2 1.7-.2.1-.3 0-.3-.2.1-.7 0-1.5.3-2.3" style="fill:#bebab9"/><path d="M120.7 17.2c.3-.3.2-.8.2-1.1.3.8.2 1.6.3 2.4-.1 0-.1.1-.2.1l-.1-.1c0-.4-.2-.8-.2-1.3" style="fill:#fdfeff"/><path d="M191.2 40c.1.1.2.2.3.2-.4.5-.7.9-1.3 1.2.1-.6.6-1 1-1.4" style="fill:#b6b5b5"/><path d="M121.2 18.5c.4.6.2 1.2.1 1.8-.3-.4-.3-.8-.4-1.3.2-.1.1-.3.2-.5z" style="fill:#989392"/><path d="M207.7 59c.1.1.2.2.3.2-.5.3-.9.8-1.6.7h.1c.2-.4.7-.6 1.2-.9" style="fill:#cdd1d3"/><path d="M145.9 20.7c.1.1.2.1.3.2.1.4-.2.7-.3 1-.2-.3-.3-.8 0-1.2" class="st29"/><path d="m170.4 25.7.3.3c0 .4-.3.7-.5 1q-.15.15-.3 0c.1-.5.3-.9.5-1.3" style="fill:#d0cfd0"/><path d="M51 82.5c.3.1.7.2 1 .2.1.1.1.1.1.2v.1c-.4 0-.7 0-1-.2-.2-.1-.2-.2-.1-.3q-.15 0 0 0" style="fill:#989ea1"/><path d="M60 59.5c.1-.1.1-.1.3-.2.2.1.5.3.8.5.1.1.1.1.1.2H61c-.4-.1-.7-.3-1-.5" style="fill:#e0ebf0"/><path d="M216.4 82.8c-.3.3-.6.2-.9.2.2-.4.7-.3 1-.4.1.1.2.1.1.1s-.2.1-.2.1" style="fill:#9ea8ad"/><path d="M51 82.5v.3c-.4 0-.7 0-1-.2 0-.1.1-.2.2-.2.2-.1.5 0 .8.1" style="fill:#cddae1"/><path d="M216.4 82.8v-.2c.2-.1.5-.2.7-.2.1 0 .2.1.3.2-.3.2-.6.2-1 .2" style="fill:#c2c8cb"/><path d="M52 83v-.3c.2.1.5.2.7.3-.2.4-.5.2-.7 0" style="fill:#5c5c5c"/><path d="M77.8 41.7c.2.1.4.3.4.6-.3-.1-.5-.3-.7-.6q0-.15.3 0" class="st29"/><path d="M97 26.2c.1-.1.2-.2.2-.3.3.2.3.5.4.8-.1.1-.2.1-.4 0-.1-.1-.3-.3-.2-.5" style="fill:#c5c5c6"/><path d="M97.2 26.7h.4c.2.1.2.3.2.5.1.1.1.3-.1.4-.2-.2-.4-.6-.5-.9" style="fill:#c0bdbc"/><path d="M169.9 27h.3c-.1.3-.2.6-.5.8-.1-.1-.1-.2 0-.4 0-.1 0-.3.2-.4" style="fill:#b4b0b0"/><path d="M169.6 27.4v.4c.1.2 0 .4-.2.4h-.1c.1-.3.1-.5.3-.8" style="fill:#898888"/><path d="M97.7 27.6c0-.1.1-.3.1-.4.2.2.2.5.2.8v.1c-.3-.2-.3-.3-.3-.5" style="fill:#9e9d9d"/><path d="M61 60v-.3c.2.1.5.2.5.5-.3.1-.4.1-.5-.2" style="fill:#99a1a4"/><path d="M206.2 60.2c-.1.3-.3.3-.5.3h.1c0-.3.3-.4.5-.5 0 0 0 .1-.1.2" style="fill:#83888a"/><path d="M62.3 60.8c-.3-.1-.5-.1-.5-.3-.1 0-.1-.1-.1-.1s0-.1.1-.1c.2 0 .3.2.5.5" style="fill:#67696b"/><path d="M205.4 60.7c-.1.2-.3.3-.4.2-.1-.2.2-.3.4-.4.1 0 .1.1 0 .2" style="fill:#4d4d4d"/><path d="M215.5 82.9c-.1.1-.2.1-.2.2-.1.1-.4.1-.4 0-.1-.2.2-.1.3-.1.1-.1.1 0 .3-.1" style="fill:#666a6b"/><path d="M121.1 18.5c.1.2 0 .3-.2.5v-.5z" style="fill:#d1cbc9"/><path d="M62.7 61c-.2 0-.4 0-.5-.2l.1-.1c.2 0 .3.1.4.3" class="st48"/><path d="M98.3 28.5c-.3-.1-.3-.3-.3-.5v-.1c.3.1.2.3.2.5h.1z" style="fill:#8c8988"/><path d="M169.4 28.2c-.1.1-.1.2-.1.3-.1 0-.1-.1-.1-.1s.1-.2.2-.2" style="fill:#757271"/><path d="M98.1 28.5c.2 0 .2.1.2.2s-.1.1-.1.1v-.3z" style="fill:#5f5c5b"/><path d="M76.4 40.5h.3c.1 0 .2.1.1.2v.1c-.3-.1-.3-.2-.4-.3" style="fill:#e9e8e7"/><path d="M76.9 41c-.2.1-.2 0-.2-.2v-.1c.2 0 .3.1.2.3" style="fill:#dbddde"/><path d="M76.9 41c.3 0 .3.1.3.2-.2.1-.3 0-.3-.2" style="fill:#c5cace"/><path d="M77.2 41.2c.1 0 .2.1.2.2h.1c-.2.1-.3 0-.3-.2" style="fill:#a6afb3"/><path d="M77.8 41.7h-.3c0-.1.1-.2.1-.3h-.1z" style="fill:#818a8e"/><path d="M190.2 41.5c0 .2 0 .2-.2.2 0-.1 0-.3.2-.2" style="fill:#ada9a9"/><path d="M189.7 42c0-.2 0-.3.3-.3 0 .2-.2.3-.3.3" style="fill:#909192"/><path d="M189.7 42c-.1.1-.2.2-.3.2 0-.1.2-.2.3-.2" style="fill:#6f7072"/><path d="m189.4 42.2-.1.1c.1 0 .1 0 .1-.1q0 .15 0 0" style="fill:#4d4f4f"/><path d="M206.2 60.2V60h.2-.1c.2.2 0 .2-.1.2" style="fill:#ced8de"/><path d="M61.7 60.2v.2c-.2 0-.3 0-.3-.2z" style="fill:#b0b4b6"/><path d="M205.4 60.7v-.2h.2-.1c.1.1.1.2-.1.2" style="fill:#878484"/><path d="M62.7 61q.15 0 0 0 .15.15 0 0" class="st48"/><path d="M134.1 235.1h125.5c1.9 0 1.7-.2 1.7 1.6v96.2c0 3.6-.7 7-2.1 10.3-1.5 3.8-4.2 6.4-8 7.9-3.4 1.3-6.8 2-10.4 2H26.9c-10.9 0-18.6-8.4-19.9-17.2-.1-.9-.2-1.8-.2-2.6v-97.4c-.1-.6.1-.9.7-.8z"/><path d="M199.4 226.2h-59.8c-1.7 0-1.6.3-1.6-1.5V109.8c0-1.8-.2-1.6 1.5-1.6h119.8c1.7 0 1.5-.1 1.5 1.5v115c0 1.7.2 1.5-1.4 1.5zm-131.3-.1H8c-1.2 0-1.2 0-1.2-1.2V110.1c0-2.2-.3-1.9 1.8-1.9h119.1c2 0 1.8-.2 1.8 1.8v114.5c0 1.9.2 1.7-1.7 1.7-19.9-.1-39.8-.1-59.7-.1m65.9 11.5h122.9c2.1 0 1.8-.3 1.8 1.8v93.2q0 4.95-1.8 9.6c-1.3 3.3-3.6 5.5-6.8 6.7-3 1.1-6 1.7-9.2 1.8H26.8c-4.3 0-8.1-1.2-11.3-4-4.1-3.5-6.3-8-6.3-13.4-.1-31.4-.1-62.8-.1-94.2v-.2c.1-1.4-.2-1.3 1.3-1.3z" class="st22"/><path d="M199.4 110.5h57.4c1.8 0 1.6-.1 1.6 1.5v110.6c-.1 1.1-.1 1.1-1.1 1.1H142.1c-1.9 0-1.6.2-1.6-1.5V112.1c0-1.7-.3-1.5 1.5-1.5 19.2-.1 38.3-.1 57.4-.1" class="st20"/><path d="M68.2 110.5h57.6c1.4 0 1.4 0 1.4 1.4v110.2c0 1.8.2 1.6-1.6 1.6H10.8c-1.7 0-1.5.1-1.5-1.5V112.1c0-1.7-.1-1.6 1.7-1.6z" class="st18"/><path d="M133.9 306.4h98.7c.6 0 1.2-.1 1.9.1 1.3.4 2.1 1.3 2.2 2.6.1.3.1.5.1.8v15c0 .3 0 .5-.1.8-.1 1.6-1.3 2.7-2.9 2.8h-28.6c-2 0-1.7-.2-1.7 1.6v10.5c0 .5 0 .9-.1 1.4-.3 1.2-1.4 2.1-2.7 2.3H68.4c-3.2 0-4.2-1.7-4.1-4.1.1-3.4 0-6.8 0-10.2 0-1.6.2-1.4-1.5-1.4H34.4c-2.1 0-3.4-1.3-3.4-3.3v-15.4c0-2.2 1.3-3.5 3.5-3.5zm-66.5-9.5H51.5c-.6 0-1.2.1-1.8-.2-1.6-.6-2.4-2.3-1.8-4.1.3-1.1.7-2.2 1.1-3.3 5.1-14.5 10.1-28.9 15.2-43.4.1-.3.2-.6.4-1 .6-1.2 1.5-1.8 2.9-1.8s2.4.7 2.9 2 .9 2.5 1.4 3.8c5 14.3 10.1 28.7 15.1 43 .3.6.5 1.3.5 1.9-.1 1.7-1.2 2.9-2.8 3h-1.3c-5.4.1-10.6.1-15.9.1m66.6 0h-16.9c-1.8-.1-3.1-1.8-2.8-3.6l.3-1.2c5.3-15.4 10.7-30.8 16.1-46.1.2-.3.3-.6.4-.9.5-1.2 1.5-1.9 2.8-1.9s2.3.6 2.9 1.8c.2.4.2.7.4 1.1 5.3 15.3 10.7 30.6 16.1 45.9.1.2.2.5.2.7.7 2.4-1 4.3-3.1 4.3-5.4-.1-10.9-.1-16.4-.1m66.4 0h-16c-.6 0-1.1.1-1.7-.1-1.6-.6-2.5-2.3-1.9-4.1.9-2.8 1.9-5.6 2.9-8.4 4.5-12.7 8.9-25.5 13.4-38.3l.3-.9c.5-1.2 1.5-1.9 2.8-2 1.4-.1 2.4.6 3 1.9l.7 1.7c5.2 14.9 10.4 29.9 15.6 44.8.1.4.3.8.4 1.3.6 2.1-.7 3.9-2.9 4-1.5.1-3 0-4.5 0-4 .1-8 .1-12.1.1M159.7 153c4.3.3 8.2.6 12.3.9l7.8.6c3.1.2 6.2.5 9.4.7 2 .1 1.6.3 2-1.4l6.9-26.9c.1-.2.1-.5.2-.7.5-1.3 1.3-1.9 2.6-1.9 1.2 0 2.1.7 2.4 2 .7 2.6 1.3 5.1 2 7.7 1.7 6.7 3.3 13.5 5 20.2.3 1.3.1 1.2 1.5 1.1l15.2-1.2 8.7-.6c1.7-.1 3.3-.2 4.9-.4.5-.1 1-.1 1.5-.1 1.3 0 2.4.7 2.7 1.9.4 1.3-.1 2.3-1.3 3-4.8 2.8-9.6 5.7-14.5 8.5-3.7 2.1-7.3 4.3-11 6.5-1.1.7-1.1.4-.6 1.7 3.6 8.4 7.1 16.8 10.7 25.2.2.6.5 1.1.6 1.8.2 1.3-.2 2.2-1.2 2.8s-2 .5-2.9-.2l-4.4-3.5c-6.2-4.9-12.2-9.9-18.4-14.8-1.5-1.2-1-1.1-2.4 0-7.6 6-15.1 12-22.6 18-.8.6-1.7 1.1-2.8.8-1.3-.5-2.1-1.7-1.7-3.1.1-.4.3-.9.5-1.3 3.7-8.5 7.3-17 11-25.6.4-1 .7-.9-.5-1.6-8.1-4.8-16.3-9.7-24.5-14.5-.4-.2-.7-.4-1.1-.6-1.1-.7-1.5-1.8-1.1-2.9a2.7 2.7 0 0 1 2.6-1.9c.4-.2.5-.2.5-.2m-85.6 39c1.3 0 2.7-.2 4.1-.5 3.5-.8 6.1-2.7 7.8-5.8q3.15-5.55 1.5-11.7c-.6-2.2-2-3.9-4.2-4.6-.5-.2-1-.5-1.6-.9-2-1.5-4.4-1.4-6.3.3-.4.3-.6.7-.8 1.1-.7 1.9-1.8 2.4-3.7 2.1-1.6-.3-2.9-1.7-2.9-3.3-.1-.8.2-1.6.4-2.3.5-1.2 1-2.3 1.6-3.4.5-1 1-2 1.3-3.1.2-.6.1-1.2-.5-1.6-1.2-.8-1.6-2-1.3-3.4.4-1.4 1.5-2.1 2.9-2.4 1.7-.3 3.4.1 5.1.5 3.9.9 7.7 2.2 11.6 3.2 1.6.4 3.1.8 4.8 1.1 2.4.4 4.6-.3 6.9-.8 1.3-.3 2.5-.8 3.8-1 .9-.1 1.8-.1 2.7.2 2.7.8 3.5 4.6 1.7 6.3-2.8 2.7-4.8 6-6.2 9.7-2 5.4-1.9 10.9-.7 16.5 1.3 5.4 3.6 10.4 6.3 15.3.4.6.7 1.3 1.1 2 .6 1 .6 2.1.3 3.3-.5 1.8-2.2 2.8-4 2.4-1.2-.2-2.2-.8-3.2-1.5-5.4-3.9-11.4-6.2-18-7.3q-6.15-1.05-12.3-.6c-6.3.4-12.5 1.7-18.5 3.7-3.2 1.1-6.4 2.4-9.5 3.9-1.3.6-2.6 1-4.1.9-.8-.1-1.5-.4-2.2-.9-1.3-1.1-1.6-2.5-.8-4 2.3-4 4.4-8.1 6-12.5 2.1-5.4 3.4-10.9 3.5-16.7.1-5.6-1-11-3.8-16-1.4-2.7-2.8-5.4-4.3-8-4.1-7.5-9.2-14.3-14.9-20.6-.4-.4-.7-.8-1.1-1.3-.6-1-.4-2.4.3-3.2.8-.9 2.1-1.1 3.2-.5l.9.6c13.6 10.9 27.3 21.7 40.9 32.6 1.9 1.5 1.9 3.1.1 4.7-2 1.8-3.9 3.6-5.6 5.8-1 1.2-1.7 2.5-2.4 3.8a10.8 10.8 0 0 0-.2 8.8c1 2.5 2.5 4.7 4.3 6.7.3.4.8.6 1.2.8 2.8 1 5.7 1.6 8.8 1.6"/><path d="M133.8 309.6H232c1.9 0 1.7-.2 1.7 1.7v12.5c0 1.7.2 1.6-1.6 1.6H202c-1.6 0-1.5-.1-1.5 1.5v13.3c0 .9 0 .9-1 1H69.3c-2 0-1.8.3-1.8-1.8V326q0-.6-.6-.6H35.7c-1.5 0-1.5 0-1.5-1.4v-13.6c0-.5.2-.7.7-.7H36c32.5-.1 65.1-.1 97.8-.1m-66.4-63c.4.2.4.6.5 1 4.1 11.6 8.2 23.2 12.2 34.8l3.6 10.2c.4 1.1.4 1.1-.7 1.2H52.3c-1.5 0-1.6 0-1-1.5 5.2-15 10.5-30 15.7-45 .1-.2.1-.6.4-.7m66.7 0c.6 1.5 1.1 2.9 1.6 4.4 4.2 12.2 8.5 24.4 12.8 36.6.6 1.8 1.2 3.5 1.8 5.3.3.7.2.8-.6.8h-30.8c-.4 0-.8.1-1.4-.2 5.4-15.7 10.9-31.4 16.3-47 .1.1.2.1.3.1m66.2 0c.5.2.4.7.6 1 2.9 8.2 5.7 16.3 8.5 24.5 2.4 6.8 4.8 13.7 7.2 20.5.4 1.3.4 1.3-.9 1.3h-30.5c-1.3 0-1.3 0-.9-1.4 1.8-5.2 3.7-10.5 5.5-15.8 2.5-7.1 4.9-14.1 7.4-21.2 1-3 2-6 3.1-8.9" style="fill:#168d4e"/><path d="M200.9 127.2c.5 1.9.9 3.8 1.4 5.7 2.1 8 4 16 6.1 24.1.3 1 .3 1.1 1.3 1 3.1-.2 6.1-.4 9.1-.7l8.2-.6c4.4-.3 8.9-.6 13.3-1 .5 0 1 0 1.7-.1-.3.5-.7.6-1.1.9l-25.5 15-.9.6c-.5.2-.6.5-.4 1 .5 1.1 1 2.3 1.5 3.4 3.4 8 6.8 15.9 10.1 23.9.2.4.3.8.3 1.3-.3-.3-.6-.5-.9-.8-7.8-6.2-15.6-12.5-23.4-18.8-1-.8-.7-.7-1.7.1-8 6.3-15.9 12.7-23.8 19-.2.2-.5.3-.8.6-.1-.5.2-.9.3-1.2 3.8-9 7.7-17.9 11.6-26.9v-.1c.5-1 .5-1-.5-1.6-4.5-2.7-9.2-5.4-13.8-8.1-4-2.4-8.1-4.8-12.2-7.2-.3-.2-.6-.4-.9-.8l5.2.3c1.6.1 3.2.3 4.8.4 5.4.4 10.7.7 16.1 1.1 1.9.1 3.8.3 5.7.4 1.2.1 1.2 0 1.5-1.2 2-7.8 3.9-15.5 5.9-23.3.5-2.1 1-4.1 1.6-6.2.1-.2.1-.2.2-.2" style="fill:#9da2aa"/><path d="m27 130.3 8.1 6.3c10.1 8.1 20.1 16.1 30.3 24.1.4.3.8.7 1.2 1 0 .5-.4.6-.7.8-2.5 2.3-4.8 4.6-6.6 7.4-1.9 2.9-3 5.9-2.8 9.4.2 2.2.9 4.3 1.9 6.3 1.1 2.1 2.6 4 4.2 5.8.3.3.5.5.9.7 5.6 2.7 11.3 3.4 17.2 1.4 4.7-1.7 7.6-5.2 9.2-9.9 1.2-3.5 1.3-7 .2-10.5-1-2.9-2.7-5.1-5.7-6.1-.4-.2-.8-.5-1.2-.8a7.5 7.5 0 0 0-10.2 1.3c-.3.4-.6.8-.8 1.3-.1.2-.1.6-.5.6-.4-.1-.8-.2-.9-.7s0-.9.2-1.3c.5-1 .9-1.9 1.5-2.9.6-1.2 1.2-2.4 1.5-3.7.4-1.8.2-3.4-1.3-4.6-.2-.1-.5-.3-.4-.6s.4-.5.7-.5c.8-.1 1.7-.1 2.5.1 3.5.7 6.9 1.8 10.4 2.8 2.8.8 5.7 1.6 8.7 2 1.2.1 2.4.1 3.7-.1 2-.4 4.1-1.1 6.1-1.6.6-.1 1.2-.2 1.8-.2s1.1.2 1.4.8c.2.6 0 1-.5 1.4-2 2.2-3.8 4.6-5.2 7.3q-3.75 7.35-3 15.6c.6 6.1 2.7 11.8 5.3 17.2.9 1.9 1.9 3.7 2.9 5.5.2.3.3.5.5.8.2.5.3 1-.2 1.4-.4.4-.9.2-1.2.1-.8-.3-1.5-.7-2.2-1.2-5.8-4-12.3-6.3-19.3-7.4-9.6-1.4-19.1-.3-28.4 2.4-4.3 1.2-8.4 2.8-12.4 4.8-.7.3-1.3.6-2 .7-.3.1-.7.1-1 .1-1-.1-1.2-.6-.7-1.5 2.3-3.9 4.3-8 5.9-12.3 2.3-6.1 3.8-12.4 3.6-19-.1-6.6-1.9-12.8-5.4-18.4-.4-.8-.8-1.5-1.2-2.2-3.7-7.3-8.3-14-13.4-20.3l-2.4-3c-.5-.3-.4-.4-.3-.6" class="st22"/><path d="M27 130.3c-.1.1-.1.3-.1.4-.3-.2-.6-.5-.8-.8q.15-.15.3 0c.3.1.5.2.6.4" style="fill:#dca131"/><path d="M25.2 128.9c.3 0 .6.2.8.5-.1.2-.2.2-.3.1-.2-.2-.4-.3-.5-.6" class="st67"/><path d="M25.7 129.5c.1 0 .2-.1.3-.1.2.2.4.3.5.5h-.3c-.3 0-.4-.3-.5-.4" style="fill:#ab8333"/><path d="m25.2 128.9-.1-.1c.1 0 .1 0 .1.1" class="st67"/></svg>