<svg xmlns="http://www.w3.org/2000/svg" id="Layer_1" viewBox="0 0 434.7 506.6"><defs><style>.st3,.st4{fill-rule:evenodd}.st10,.st4{fill:#fff}.st3{stroke:#000}.st14,.st3{fill:#fff008}.st15{fill:#0093d0}.st3{stroke-linecap:round;stroke-linejoin:round;stroke-width:2px}.st17{fill:#794500}.st18{fill:#e8d3ac}.st20{fill:#939598}</style></defs><path id="path48" d="M259.9 2.4H2.5v436.3c0 30 26.6 54.5 59.1 54.5h133.7c8 0 17.9 3.9 21.9 9.2 4.5-5.5 13.3-9.2 21.1-9.2h135c32.5 0 59.1-24.6 59.1-54.5V2.4H260.1Z" style="fill-rule:evenodd;stroke:#000;stroke-miterlimit:10;fill:#08338f;stroke-width:4.8px"/><path id="path481" d="M250.8 40.8H43.6v351c0 24.1 21.4 43.9 47.5 43.9h107.6c6.4 0 14.4 3.1 17.6 7.4 3.6-4.4 10.7-7.4 17-7.4H342c26.2 0 47.5-19.8 47.5-43.9v-351z" style="fill-rule:evenodd"/><path d="M48 250.9v138c0 23.4 20.5 42.7 45.5 42.7h103.3c6.2 0 13.8.3 16.9 4.5V250.9z" style="fill-rule:evenodd;fill:#fff008"/><path d="m222.4 44.7 163.4 196v-196z" style="fill-rule:evenodd;fill:#ce1126"/><path d="M48 44.7v195.6L211.2 44.7z" style="fill-rule:evenodd;fill:#00aa4f"/><path d="M216.8 44.7 48 246.8h337.8z" class="st4"/><path d="M230.3 87.5c.9-.7 1.4-1.7 1.1-2.6-.2-.5-.5-.8-.7-1 .9-2.3 2.1-3.4 3.1-4 .4-.2 1.1-.6 1.8-1.4.4-.5 1.2-1.4 1-2.3-.2-.8-1.2-1.2-2.2-1.6-1.2-.5-1.6-.4-1.8-.7-.3-.7.9-1.3 1-2.8 0-.3.1-1.6-.6-2.1-.6-.4-1.3-.2-2.1 0-1.2.3-1.2.6-1.7.7-1.7.2-2.3-2.7-4.3-2.8-1 0-2 .6-2.3 1.4-.4 1 .3 2.1 1 3 1.6 2.4 3.1 2.5 3.8 4.2.3.7.5 1.8-.1 3.4-.1-.1-.9-1-1.8-.9-1.2 0-2 1.5-2 2.6 0 1 .9 1.4 1.1 2.7.1.7 0 1.3-.1 1.6-1-.7-2.6-1.7-4.7-2.1-4.4-1.1-8 .4-9.3 1 .6-1 1.3-2.9 1-4.8-.2-1.1-.6-1.4-.7-1.4-.4-.2-1.1-.1-2.4 0-.6 0-.7.1-.8 0-.6-.4.4-2.6.4-2.8 1.4-3 3.1-3 3.6-5.2.2-1.2.1-2.9-.9-3.5-.9-.5-2.5 0-3.1.9-.6.8-.4 1.5-.9 1.7-.7.3-1.4-1.2-3-1.4-.9 0-2.1.2-2.4 1-.5 1.2 1.6 2.4 1.2 3.9 0 .3-.8.9-2.1 2.1-1 .9-1.4 1.2-1.4 1.7 0 .2 0 .8.9 1.9 1.4 1.6 2.6 1.7 3.6 2.5.9.7 1.6 2.3 1.2 5.5-.2 0-1.8-.7-3.5.3-1 .7-1.8 1.8-1.8 3.1 0 1.7 1.5 2.8 2.8 3.7 3.3 2.5 5.4 1.6 6.2 3.2.8 1.7-1 2.9-.9 6.7 0 1.6.4 2.8.7 3.6-1.3 3.1-2 5-2.4 6.2-.3.9-.6 1.7-1.1 2.9-.6 1.3-.7 1.3-.7 1.7-.1 1.5 1.2 2.1 1.2 3.8 0 .5 0 1.2-.7 2.1-9-.3-14 1.8-16.9 4.1-.5.4-3.4 2.6-6.6 5-3.9 2.9-4.7 3.6-6.2 4.2-.7.3-2.1.6-3.3 1.7l-1.3 1.3c-.7.7-1.3 1-2 1.6-1.8 1.4-2.6 2-3.1 2.6-.9 1.2-.4 1.5-1.4 3.3-.9 1.5-1.4 1.5-2.1 2.9-.9 1.5-.7 2.4-1.1 4.1-.6 2.6-1.8 4.1-2.5 5.3-2.1 3.9.5 6.7.6 16.1 0 7.2-.9 13.7-.9 13.7-.4 2.6-.7 3.8-.2 5.3 1.2 4.3 6.4 6.6 10.6 7.9-.4 2.1-.6 3.9-.6 5.2 0 1.9-.1 2.9.1 4.1.6 2.5 1.5 2.8 1.4 4.7 0 .8-.1 2.5-1.2 3.4-.4.4-.9.6-1.1 1.3 0 .2-.3.8 0 1.4s.7.6 1 1.2c0 .1.3.6.2 1.2s-.6.6-.7 1.1c-.1.7.9 1 1 2 0 .4-.1.5-.4 1.2 0 0-.3.9-.5 2.1-.2 1.5.9 2.8 2.1 4.2.4.4 1.7 1.9 4.1 3.6 2.4 1.6 3.6 2.5 5.5 2.6 1.7.2 2.9-.3 4.8-.9 2.5-.9 3.7-1.2 3.9-2.1.4-1.3-1.5-2.1-4.8-6.6-2.2-2.9-2.4-4-2.3-4.8.1-1.2.6-1.5.8-3.1.1-1.6-.4-2-.4-3.6 0-1.3.2-1.8.9-4.7.2-1.2.7-2.8 1-4.8-.2 2.1-.4 4-.4 5.3s0 1.7.3 3.2c.3 1.4.5 2.3 1.2 2.6s2-.2 2.3-.4c.1.2.6 1 1.6 1.3s2.1 0 2.9-.9c.5 1.2 1.5 2 2.5 2 .5 0 .9-.2 1.2-.4a3.3 3.3 0 0 0 4.4.3c.2.4.7.7 1.2.8.7 0 1.2-.5 1.2-.6-.3.9-.1 2 .5 2.6s.9.6 1.2.6c-.2.7-.6 1.9-.6 3.4.1 3.1 1.8 5.3 2.9 6.8 1.3 1.6 2.5 2.6 3.2 3.1 1.8 1.4 2.9 2.2 4.8 2.3 2 .1 3.5-.9 3.7-1 .4-.3 1-.7 1.4-1.2 1.3-2-.6-5.5-1.8-7.7-1.5-2.8-2.7-3.7-2.5-5.6.1-.8.3-.7.6-2.1.2-1.3.2-2.3.2-4.3 0-1.5-.1-2-.5-2.7-.2-.5-.6-.8-.8-1 .6-.8 1.4-1.9 1.9-3.4.6-1.6.9-2.9.9-4 1 .5 3.4 1.5 6.2 1 4.2-.7 8.3-4.5 8.5-9.6.2-5-3.4-9.5-8.5-10.4a4 4 0 0 0-1.9-2.5c.1-.6 1.1-6.5 1.2-11.2 0-1.8 0-3.7-.9-5.7-.2-.4-.3-.6-.3-.7-1.6-3.4.7-10.4 1.4-12.5 2.1-6.4 3.1-9.6 3.4-12.5.2-2.3.6-5-.1-8.5-.9-4.2-2.2-4.2-2-6.5.4-4.3 5.2-7.6 4.6-10.1 0-.1-.2-.9-.5-2.2-.2-.9-.3-1.4-.4-1.7-.3-1.8.5-2.5.4-4 0-.7-.2-1.2-1-2.9-.5-1.1-1.3-2.9-2.3-5.2.2-.9.6-2.2 1-3.8 1-4.2.8-4.4 1.3-5 1.7-2.2 4.6-.7 7.2-3.2.3-.3 2-1.9 1.6-3.4-.4-1.4-2.5-2.3-5.2-2.1Zm-17 101c-5.2-4.6-9.4-8.6-12.8-11.7-1.2-1.2-3.1-2.9-4-5.8-.6-1.8-.6-3.4-.5-4.5a19.8 19.8 0 0 0 5.8-12.3c.9 0 2.1 0 3.4-.4 2.6-.7 4.4-2.2 5.3-3.1.2.4.4.9.5 1.5.2 1.3-.2 2.3-.6 3.3 0 0-.1.4-.6 4.1-.6 3.9.9 5.6 1.1 10.8.2 5.7-1.5 7 0 9.9.6 1 1.4 2.1 1.8 4.1.4 1.7.4 3.1.4 4.1Z"/><path d="M169 146.4c1.2 2.5 5.2 4.4 6.1 4.8 3.4 1.7 3.7.6 5.3 2 1.8 1.6 2 3.4 4.2 4.5.8.4 1.5.5 2.1.6 0-.7.1-1.3.2-1.9 0-1.9.4-4.8 1.6-9.2-.9-.4-4.2-1.8-6.1-5.5-1.5-2.9-1.4-5.7-1.4-6.8-.5.3-1.2.8-2 1.5-2.1 1.8-2 2.5-3.4 3.1-1.8.9-2.9 0-3.7 1.1-.6.8 0 1.5-.8 2.1-.7.7-1.4 0-2.5.8-.4.2-.7.6-.9.9.8 1 1.2 1.8 1.3 2m7.9-7c.2-.1.7 1.6 2.5 3.3 1.2 1.2 2.4 1.8 2.3 2 0 .2-.9 0-1.4-.2-1.9-.7-2.8-2.5-2.9-2.9-.5-.9-.7-2.1-.5-2.1Zm-4.9 3.5c0-.3.4-.7.7-.7s.7.7 1 1.2c1.4 2.3 3.9 2.8 3.7 3.4 0 .2-.6.4-.8.4-2.2.2-5-2.7-4.6-4.3" class="st14"/><path d="M184.7 158.4c-2.4-1.2-2.3-3-4.3-4.3-1.4-.9-1.6-.1-4.2-1-2.8-.9-4.6-2.5-6-3.6-1.6-1.4-2.7-2.3-3.3-4-.2-.6-.3-1.1-.4-1.5-.3 0-.7.4-.7.5-.7.9.4 2 0 3.3-.4 1.4-1.7 1.3-1.9 2.5-.1 1 .7 2 .7 2 1 1.2 2.8.9 4.1 1 2.5.1 2.4 1.4 7.6 4.1 1.1.6 8.5 4.4 8.5 5.6s0 .4.2.6c.2.3.6.6.8.5.5-.1.5-1.5.7-2.8.1-.9.2-1.7.3-2.3-.6.1-1.8-.5-2-.6Z" class="st14"/><path d="M224.2 137.1c-.1-.2-.7-1.2-1-2.8-.3-1.2-.3-2.3-.2-2.9a6.8 6.8 0 0 1-3.3 3.3c-4.2 1.7-9.5-2.3-10.6-5.8-.2-.7-.4-2-.2-2.1s1 1.1 1.5 2c.6.8 3.8 5.9 6.8 5.6 1.9-.2 3.1-2 4.4-4.1 3.2-4.9 4.5-11.6 2.7-12.6-.3-.2-.7-.1-1.4 0-2.1.3-2.7 1.9-4.2 2-.6 0-.7-.2-2.5-1.2-2.6-1.3-4.2-2.1-5.4-1.5-.9.5-1.2 1.8-1.4 2.3-.4 1.7.4 2.5-.2 3.8-.1.2-.7 1.3-1.5 1.3s-1.3-1-1.4-1.1c-.1.4-.3 1-.8 1.6-1.7 2-4.8.9-9 1.6-3.3.6-5.6 2-7.7 3.4-2.6 1.7-5.7 3.7-6.1 7-.1 1.2.1 2 .3 2.8 1.1 4.1 4.8 6.3 6.1 6.9.3-.7.6-1.5.9-2.3.9-2 1.8-3.7 2.8-5.3-.2.9-.5 2.4-1 4.1-1 3.4-2 5.4-2.5 6.8-2 4.9-.9 6.4-2.5 14.2-1.2 6-1.8 4.5-2.5 8.9-.9 5.6-.6 12.7-1.8 16.9-.2.5-.2.8-.4 1.4-.3 1.2-1.2 5-.1 5.6.4.2.9-.2 1.3.2.4.3.1.7.6 1 .4.3.7.1 1.2.4.2.1.6.4.8 1 .3-.6.9-1.5 1.8-2.4s1.7-1.4 2.3-1.7c.1-.4.2-.9 0-1.5-.3-1-1.2-1.5-1.5-1.8-.9-.7-1.5-2.6.4-10 1.8-6.8 2.9-7.7 2.9-10.9s0-2.1.4-4.1c.4-1.7 1-2.9 1.4-3.5 1.3-2.5 4.3-8.2 8.5-15.7-.6 1.7-1.2 3.5-1.9 5.2 2.1-.2 6.3-1.2 9.9-4.5 1-1 1.8-2 2.4-2.9-.1.4-.3.8-.5 1.2-.5 1-1 1.8-1.5 2.5 1.8-.6 2.8-1.5 3.4-2.1 1.8-2 1.7-4.1 3.9-6.1.7-.7 1.5-1.1 2-1.4-.3.5-.8 1.2-1.4 2.1-1.2 2.2-1.5 3.3-2.1 4.2-.7 1.2-2 2.6-4.8 3.7.2.1.6.4.9.8.7 1 .6 2.2.3 3.3-.6 2.9-1 3.7-1.2 5.2-.3 2 .2 3.4.6 5 1.5 6.3-.6 7.4.7 14.1.9 4.4 2 5 2.3 9.5.2 2.5.1 4.5 0 5.9.7-.6 2.2-1.5 4.2-1.7.7 0 1.4 0 1.8.1 0-.3.1-.7 0-1.2-.2-.6-.9-.9-1-1-1.8-1 1.4-9.3-.1-16.4-.4-2-.7-1.4-1.2-3.4-1-4.2 0-7.3 2.1-14.7 1.5-5.3 4.6-15.4 2.9-18.5Zm-19.7-.4c-.2.2-.4.4-.6.5-.2-2.3-1.5-4.2-3.6-5-2.2-.9-4.2 0-4.6.1 0-.4 0-.8.2-1.2 1.1-1.5 5.7-1.1 7.7 1.4.9 1.1 1.6 3.1.9 4.2m11 3.7c-.6.7-1 1.2-1.7 1.3-.5 0-1.2-.1-1.2-.4s.4-.4.9-.7c.6-.4.7-.7 2.3-2.6 1-1.3 1.6-2 1.7-1.9.2.1-.6 2.5-2 4.4Z" class="st18"/><path d="M200.9 153.9c-.2-.1-.6 0-.8.2-1.4.8-1.1 2.4-1.9 4.4-1.2 3.1-4.1 4.3-3.6 5.4 0 0 .2.4.5.5.4 0 .9-.6 1-.9 1.5-2.2 5.8-8.9 4.7-9.6Z" class="st14"/><path d="M186.1 205.3c-.4-2-.3-3.6-.1-4.7-.4 0-1-.2-1.4-.7-.4-.4-.4-.7-.8-1-.6-.4-1-.2-1.7-.5s-.7-.6-1-1.5-.7-2-.7-3.5 0-.9.2-1.8c.2-1.7.6-3.2.8-4.2.1-.4.1-.5.2-.9.4-1.5.4-2.1.4-2.6v-.4c-.1-1.5-.1-4.7 0-6.5.2-4 1.4-7.4 2.3-10.1.4-1 .7-1.8.9-2.5-3.3-1.8-5.8-3.4-7.6-4.6-4.5-3.1-4.5-3.7-6.8-4.5-2.4-.8-4.4-.7-6.8-2.4-.9-.7-1.6-1.4-2-1.8-.9 2.6-1.7 5.2-2.6 7.8.9-1.6 1.8-3.3 2.7-4.8-.7 1.8-1.6 4.4-2.1 7.7-.4 2.3-.4 3.8-.2 10.7.5 14.5.8 15.7 0 18.6-.2.7-.5 1.5-.3 2.6.5 3.6 5.1 5.8 9 7.2 1.4-12.4-.4-19.6-2.3-23.9-.6-1.4-2.6-5.2-2.3-10.2.2-3.1 1.1-5.6 1.9-7.2-.6 2.4-1 6.1-.3 10.4.6 3.3 1.6 5.6 1.9 6.3 1.7 3.9 3.3 11.8 2.6 29 2.6 1.5 4.8 2.5 6.4 3.3 1 .4 2 .9 3.2.7s1.7-.8 2.8-1.2c1-.4 2.5-.6 4.7.1-.4-.5-.9-1.5-1.2-2.8h-.1Zm-21.3-22.9c1 5.8.2 10.7-.7 14.1q-.6-5.1-.6-11.1c0-2.6 0-5.2.1-7.6.5 1.4.9 2.9 1.2 4.6" class="st15"/><path d="M196 194.5c-4.5-.1-8.5 3.4-8.8 8-.3 4.7 3.4 8.9 8 9.1 5.1.3 9.4-4.4 9-9.3-.4-4.1-3.8-7.7-8.2-7.9Zm24.8-1.7c-4.2.4-7.6 3.9-7.6 8.2s4 8.3 8.5 8.2c4.4-.1 8.1-3.9 8-8.3 0-4.7-4.4-8.4-9-8Zm-42.1 26.9c.1 0 0 .3 0 .6 0 .9 1.2 1.3 1.1 1.8s-1.2.5-1.2 1 .6.4.7 1c.1.4-.2 1-.6 1.2-.5.2-.9 0-1 .1-.1.2.6.9.6 1 .4.4.7.5.7.6 0 .2-.6.1-1.5.4-.2 0-.3.1-.4.1-.4.4 0 1.2-.3 1.4-.2.2-.7-.1-1-.4-.4-.4-.4-.7-.7-.8-.4 0-.6 1-1 1s-.3-.7-.9-1.1c-.3-.2-.6-.2-1.7-.3-1.1-.2-1.7-.2-1.8-.5-.1-.4.4-1.1.9-1.2.2 0 .3 0 .5-.1.1-.1.2-.3.2-.5-.1-.3-.9-.1-1-.4-.2-.4.6-.8.5-1.5 0-.3-.2-.6-.5-.7-.6-.2-1 .3-1.4 0-.3-.2-.4-.9-.1-1.4.5-1 2.2-1 2.5-1 1.6 0 1.6.9 3.2 1 .4 0 2.2 0 3.4-.9.1-.2.6-.6.7-.5Z" class="st14"/><path d="M170.1 207.1c1.4 1 3.9 2.5 7.4 2.9 1.4.1 2.5 0 3.5 0-.7 3.3-1.5 6.5-2.2 9.8-.7.5-1.4.9-1.5.8 0 0 .7-.6.6-.9s-1.3.2-2.9 0c-1.4-.1-2.1-.7-2.3-.4-.2.2 0 .7.1 1-.5-.1-.9-.2-1.4-.4.1-.9.2-2.3 0-3.9-.3-1.8-.8-2.5-1.1-4.1-.3-1-.5-2.7-.1-4.8Zm.6 20.8c.2-.1.4 0 .7-.1s.6-.3.7-.5c-.1 1 .1 1.5.4 1.7.5.4 1.2 0 2.5.5.5.2.5.2.8.2.7 0 1-.4 2-.7.4-.1.7-.2 1-.2.4.9 1.1 2.2 2 3.8.7 1.2 1 1.8 1.3 2.1 1.5 1.7 3.1 1.7 3.4 3.1.1.4.1 1-.1 1.2-.5.3-1.4-.8-2.3-.6-.6.2-.6.9-1.1 1.4-1.3 1.1-4.6-.3-6.8-2.1-1.4-1.2-.7-1.2-2.9-3.3-1.5-1.4-2.5-2.1-2.4-3.2 0-.7.6-.8.7-1.8 0-.7-.2-1.4.2-1.5Z" class="st18"/><path d="M205.4 225.9c-.2.1-.6.3-1 .3s-1.2-.4-1.2-.6.3-.2 1.1-.8c.6-.4.7-.6.7-.7.1-.3.2-.8 0-.9-.2-.2-.7.3-1 .1s-.4-.6-.2-.8.3-.2.6-.4c.4-.4.4-1.1 0-1.4-.2-.2-.6 0-.7-.1-.3-.3.2-1.8 1.3-2.3 1-.4 1.5.6 3.3.9 2.4.4 3.6-1 4.8-.1.6.4 1 1.2.8 1.4-.2.3-1 0-1.6.4-.3.2-.5.7-.4 1 .2.4 1.2-.2 1.7.2.4.4.2 1.5-.3 1.7-.4.2-.9-.2-1 0s0 .6.3.8.6-.1.9 0c.2.2.2.9 0 1.2-.5.4-1.2-.2-1.8.1-.5.4-.2 1-.6 1.2s-.8-.5-1.4-.3c-.4.1-.4.7-.8.7s-.5-.7-.9-.7-.5.6-1 .7c-.3 0-.7-.2-.9-.5-.1-.3.1-.6 0-.9 0-.1-.3-.2-.5-.2Z" class="st14"/><path d="M204.1 208.5q1.2-.15 2.7-.9c2.3-1.1 3.7-2.8 4.4-3.8h.9a9.6 9.6 0 0 0 4 5.4 9 9 0 0 0-1.6 3.9c0 .2 0 .7-.3 1.2-.4.8-1 .9-1.4 1.4-.4.4-.8 1.3-.4 3.1-.1-.4-.3-.9-.7-1.1-.5-.2-1.1.2-1.5.4-.8.4-2 .6-4.2-.3-.2.1-.5.3-.7.4 0-.4 0-1 .3-1.7s.5-.7.7-1.1c.3-.7.2-1.5-.6-3.4-.2-1-.8-2.3-1.4-3.6Zm1.4 17.4c-.2.1-.5.3-.7.7-.4.7-.2 1.4-.2 1.7.4 2.1-.2 2.5.3 4.4.9 3.5 3.7 5.7 4.3 6.1 1 .7 1.5.9 2.7 1.9.7.6.9 1 1.5 1 1 0 2-1 1.9-1.5 0-.2-.3-.4-.2-.6 0-.1 0-.2.2-.2.4-.2 1.3.9 1.6.7.4-.2 0-2.1-.9-4-1.4-2.8-2.7-3.4-3.2-5.6-.2-1.2-.1-2.2 0-2.8-.1.1-.7.9-1.8 1-.7 0-1.4-.3-1.5-.4-.2.2-.5.4-1 .6-1.1.3-2.5-.3-2.9-1.5a2 2 0 0 1-.1-1.5" class="st18"/><path d="M224.4 109.5c-.6-1.4-1.2-2.5-1.7-3.4-1.4 2.8-4 4.3-6.1 3.7-.4-.1-1.4-.4-2.2-1.6-1 .3-1.6.1-2 0-.6-.4-.7-1.1-1.2-1.2-.1 0-.4 0-.9.4-1.2 1-4.7 6-3.1 7.6.3.3 1.6.4 4.2.6 2.6.1 2.9 0 3.7.4 1.8.7 1.8 1.7 3.2 1.8 1.2.2 1.5-.6 4-1.3s3.1-.2 3.6-.9c.8-1-.1-3.1-1.5-6.2Zm-9.4 5.7c-1.5-1-1.8-2.4-3.7-3.1-1.2-.4-2-.3-2-.5s1.7-.8 3.2-.3c1.1.4 1.5 1 2.5 2 .9.8 2.1 1.8 4 2.8-2 .1-3.3-.4-4-.8Zm9.2-2.7c-.2 0-.2-.2-.5-.4-.7-.4-1.8 1-3.3 1.2-1.2.1-2.5-.7-2.5-1s1.5 0 3.5-.9c.8-.3 1.4-.7 2.1-.6 0 0 .9.2.9.8.1.4 0 .9-.3.9Z" class="st10"/><path d="M228.6 88.2c-2.9-.9-2.9-1.5-5.3-2.3-1.4-.5-4.9-1.8-8.9-1.1-4.7.7-5.5 3.4-9.6 3.1-1.7-.1-3.1-.7-3.4 0-.4.7.7 2.3 2 3.4 2.7 2.2 5.3 1.2 6.4 3.2.2.4.2 1.2.3 2.9 0 2.1 0 2.9-.2 5.8 0 .4-.1 4.3.3 4.4.2 0 .2-.9.9-1.1.5-.2 1.1.1 1.4.3.5.3.8.7 1 .9-.6-1.3-1.2-2.9-1.7-4.7-.7-2.5-.9-4.7-.9-6.5.7 3.4 1.6 6.1 2.3 8 .7 2 1.4 3.3 2.8 3.9.2.1 1.4.7 2.6.3 1.1-.3 2.3-1.4 4.4-7.6 1.8-5.4 1.8-7.4 3.7-9a7.4 7.4 0 0 1 4.1-1.5c0 .2 0 .4-.1.7-.4.9-1.4 1.2-1.5 1.2.4 0 2 .2 3.3-.9.4-.4 1-.8.9-1.4.1-.9-2-1.1-4.7-2Zm-20.2 4c-2.3-.4-3.3-.2-4.2-.9-.4-.3-1-.9-1.3-2.1 1.2.8 2.3 1.2 3.1 1.4 1.9.4 3.4.1 4.3 1.2.3.3.4.7.5.9z" class="st17"/><path d="M211.1 94.6c0-.2.3-.7 1-1 .4-.2.9-.1 1.3 0 .5 0 1.2.2 1.7.9.2.3.5 1 .1 1.5s-1.3.4-1.7 0-.1-1-.5-1.2-.3 0-.9 0h-1Zm1.9 27.3c0-.2.2-.5.5-.7s.7-.2 1.4-.2 1 0 1.2.2c.5.4.8 1.3.3 1.8s-1.1.4-1.4 0 0-.8-.4-1c-.1-.1-.2 0-.7 0h-.8Zm11.1 0c0-.2-.2-.5-.5-.7s-.7-.2-1.4-.2-1 0-1.2.2c-.5.4-.8 1.3-.3 1.8s1.1.4 1.4 0 0-.8.4-1c.1-.1.2 0 .7 0h.8Zm.2-27.3c0-.2-.3-.7-1-1-.4-.2-.9-.1-1.3 0-.5 0-1.2.2-1.7.9-.2.3-.5 1-.1 1.5s1.3.4 1.7 0 .1-1 .5-1.2.3 0 .9 0h1Zm-8.4 8.7c.2-.2.6-.2 1.4-.2 1.2 0 1.8 0 2 .2.4.7-1 2.8-2.1 2.6-1-.2-1.7-2.1-1.2-2.6Z"/><path d="M210.1 68.8c-.2.4-.9 1.4-2.1 1.8-2.1.8-4.1-.6-4.2-.7.2.2 1.4 1.4 1.2 3.1s-1.8 3.1-3.9 3.3c1.5.3 2.2.9 2.6 1.5 1 1.2.5 2.2 1.7 3.6.7.8 1.1.8 1.4 1.5.3.9 0 2 .4 2.1.2.1.3 0 .6 0 .6.2 0 2 .5 2.9.3.6 1.2 1 3.3.9-.5-.5-2-2.1-2.3-4.7-.2-2 .4-3.6.8-4.3-1 .8-1.8.7-2 .7-1.5-.2-2.1-2.3-2.3-3.4 0-.4-.2-1.4.3-2.5.9-2.2 3.3-2.4 4.1-4.8 0-.2.1-.6.2-.7Zm15.4.4c.2.4.9 1.4 2.1 1.8 2.1.8 4.1-.6 4.2-.7-.2.2-1.4 1.4-1.2 3.1s1.8 3.1 3.9 3.3c-1.5.3-2.2.9-2.6 1.5-1 1.2-.5 2.2-1.7 3.6-.7.8-1.1.8-1.4 1.5-.3.9 0 2-.4 2.1-.2.1-.3 0-.6 0-.6.2 0 2-.5 2.9-.3.6-1.2 1-3.3.9.5-.5 2-2.1 2.3-4.7.2-2-.4-3.6-.8-4.3 1 .8 1.8.7 2 .7 1.5-.2 2.1-2.3 2.3-3.4 0-.4.2-1.4-.3-2.5-.9-2.2-3.3-2.4-4.1-4.8 0-.2-.1-.6-.2-.7Z" style="stroke:#000;stroke-miterlimit:10;fill:#e8d3ac;stroke-width:.6px"/><path d="M219.6 124c-.1 0-.2.6-.3 1.7 0 .8 0 .9-.2 1.2-.3.7-.7.9-.6 1.2s.7.4 1 .2.4-.4.6-.9c.3-1.7-.2-3.4-.5-3.4"/><path d="M184.9 209.7c-1.2 0-1.4-.1-1.4-.2 0-.2 2.2-.9 4.2-.3s2.6 1.9 3.8 2.7c1.6 1 4.5 1.4 10.4-1.8.1 1.3.2 2.7.2 4.2-.1 2.9 0 8-1.5 8.4-.2 0-.6 0-.8-.2-.4-.4-.1-1.3.2-3.7.2-1.1.2-1.5 0-1.7-.4-.3-1.2-.3-1.7.1-1.2 1 .6 3.7-.7 5.2-.4.5-1.1.7-1.4.5-.4-.4.9-1.7.9-4s0-1.7-.7-2.2c-.6-.4-1.4-.4-2 0-1.1.9.6 3.3-.7 4.7-.6.6-1.5.9-1.8.6-.2-.2 0-.6.3-1.6.9-2.6 1.3-3.3 1-4.2 0-.2-.2-.7-.7-1s-1.3-.2-1.7 0c-1.6 1-.2 4.5-1.7 5.3-.4.2-.9.1-1.2-.1-.4-.5.3-1.5.7-3.7.2-1.1.2-1.8-.2-2.2-.5-.5-1.5-.5-2.1-.1-1.3.7-1.8 3.1-1.4 4.8.1.5.4 1 .2 1.2s-1-.2-1.4-.7c-1-1.4.9-3.5 1.2-7.1.1-1.3 0-2.3-.2-2.9Z" class="st20"/><path d="M221.1 129.6c0-.3-.7-.2-2.6-.3-1.5 0-2.1 0-2.3.3-.1.2 0 .6 0 .7.3.3.9-.1 1.4.1 0 .6.4.9.9.9h.3c.2-.1.4-.4.4-.7.4 0 1 0 1.4-.3.2-.2.5-.5.4-.7z"/><path d="M194.6 166.5c-.2 0-.6.2-.9.5-1.3 1.2-.2 3.6-.2 5.9 0 2.6-1.2 2.5-3.1 7.6-1.6 4.2-2.6 9.4-1 10.9.2.2.8.7 1.1 1.5.2.7.1 1.5 0 1.9.9-.4 2.4-1 4.3-1.2 1.4 0 5.8 0 8.4 3.4 2.1 2.8 2.3 6.8.5 10.1 1.4-.1 2.3-.6 2.8-1 1.4-1 1.5-2.5 3.1-3.2.6-.3 1.2-.4 1.6-.4 0-.9 0-2.6.7-4.5.8-2 2-3.3 2.6-3.8-.4-1.5-.7-2.3-.7-2.3l-5-5c-10.2-10.1-14.2-12.7-14.5-17.8 0-1.1.1-2.1.2-2.6Z" class="st15"/><path d="M91.4 149.4c-1.5.4-3.6 1-6.1 1.6-3.7.9-5.6 1.3-7.3 1.4-4.7.2-5.2-1.6-12.3-2.8-5.3-.9-6.3 0-8.6-1.5-2.9-1.8-4.7-5-5-8.1-.4-2.9.7-5 3.5-10.4 6-11 10-17.6 10-17.6 3-4.9 5.5-8.8 6.9-11.2 3.4-4.2 6.6-7.4 8.8-9.6 5.8-5.6 7.5-5.8 9.3-9.4 1.9-3.7 1.4-5.8 4.2-9.9 1-1.4 2.5-3.1 3.6-4.5 2.1-2.6 2.4-2.6 3.9-4.5 2.9-3.6 2.7-4.1 4.1-5.3 2.3-1.9 5.2-2.1 6.5-2.2h.6c5 .1 9.3 3.3 10.9 4.5s1.5 1.4 3.2 2.6c1.8 1.3 2.6 1.5 4.3 2.8 0 0 1.7 1.2 3.3 2.8 5.3 5.3 2.4 14.9 8.2 18.4.9.5.8.2 1.7.8 3.6 2.1 3 5.4 6.6 10 1.6 2 2.1 2 2.9 3.6.9 1.8.7 3.1 1.7 5.3.6 1.5 1.4 2.6 1.8 3.3-10.6 13.9-21.1 27.8-31.7 41.7-1.2-.1-2.4-.2-3.6-.4h-1.4c-2.9-.1-6.6 1-6.6 1-1.7.6-4.7.6-10.7.6-6.9 0-9.5-.6-11.8-2.1-.4-.4-.7-.6-1-.8Z"/><path d="M78.7 147.7c.4-2.5.9-4.4 1.3-5.9 1.2-4.1 2-6.6 4.1-7.6 1.6-.7 3.3-.4 3.6-.3 3.8 1 6.5 6.8 7 14.4 4.8.5 9 .7 12.5.9 6.6.2 9.2 0 11.8-1.6 1.8-1.2 3.1-2.6 3.8-3.7h-1c-1.8-.2-2.8-1.7-5-3.6-.7-.7-.2-.2-2.3-1.8-4.2-3.5-8-7-8-7-6.9-6.4-9.9-8.6-23.3-21-2.1-1.9-4.8-4.5-8.2-7.6-.8.9-1.9 2.1-3 3.9-1.7 2.6-2.4 4.7-3 6.1-1 2.3-2.6 5.6-5.3 9.3 0 0-4 5.6-7.3 15.3-.5 1.5-1.3 4.1 0 5.8.4.6 1 1 5.3 2 5.2 1.2 5.5.7 7.6 1.6 2.6 1 2.9 2 4.9 2.2 1.8.1 3.5-.7 4.6-1.4Z" class="st17"/><path d="M121.6 143.9c-1.8-.2-2.8-1.7-5-3.6-.7-.7-.2-.2-2.3-1.8-4.2-3.5-8-7-8-7-6.9-6.4-9.9-8.6-23.3-21-1.3-1.2-2.8-2.6-4.6-4.3-.7.7-1.7 1.6-2.6 2.8-2 2.6-1.8 4.1-3.9 8.5-1.8 4.1-2.5 4.1-4 7.7-1 2.6-1.5 4.7-1.9 6.2-1.7 5.7-3 10.5-3.9 14 4.6 1 5 .6 7 1.5 2.6 1 2.9 2 4.9 2.2 1.9.2 3.6-.6 4.7-1.4.4-2.5.9-4.4 1.3-5.9 1.2-4.1 2-6.6 4.1-7.6 1.6-.7 3.3-.4 3.6-.3 3.8 1 6.5 6.8 7 14.4 4.8.5 9 .7 12.5.9 6.6.2 9.2 0 11.8-1.6 1.8-1.2 3.1-2.6 3.8-3.7-.4.1-.7.1-1.2 0" class="st10"/><path d="M79.4 97.3c4.5 4 9 8 13.4 12 6.9-6.1 13.8-12.3 20.7-18.4-4.3-2.7-6.9-6.4-6.2-9.3.6-2.3 3-3.5 6.9-5.4 3.3-1.7 6.3-2.5 8.5-3 0-1.1 0-2.5-.3-4.1-.1-.6-.2-1-.4-1.5-.7-.2-1.4-.4-2-.7 0-.4-.1-.9-.5-1.4-.6-.8-1.1-.7-1.6-1.4-.8-1.1 0-2.6-.6-2.8-.2-.1-.7 0-.9.3-.7.8.4 2-.1 3.5-.2.7-.6.8-1.1 1.5-1.8 2.7.9 6.5-.8 8-.1 0-.4.4-.7.3-.6-.1-.9-1.3-1.2-3.4-.2-1.3-.4-3.1-.5-5.2-.9.6-1.4 1.2-1.7 1.7-1.2 1.9-.4 3.3-1.8 5.2-.7 1-1.2.8-1.4 1.6-.5 1.4.7 2.3.4 4.1 0 .6-.4 1.1-1 2.3-1.2 2.3-1.7 2.2-2.1 3.4-.9 2.3.4 3.9-.6 4.5-.6.4-1.5.2-2-.3-.4-.3-.9-1.1-.2-3.8.7-2.9 1.8-4.4 2.8-6.3 1.7-3.4.6-3.7 2-7 2.3-5.3 7.1-8.6 6.6-11.4 0-.4-.2-.7-.4-.8-.9-1-3.3-.6-4.8.4-2.5 1.5-1.9 3.9-4.6 7.2-1.5 1.8-2.4 2.1-3.8 3.4-.7.7-3.5 3.4-5.2 11.8-2.1 10.9-.1 20.1-3 21.9-.2.1-.7.4-1.2.3-1-.3-.9-2.3-1.6-5.9-.8-3.9-1.4-4.4-1.8-4.7-1.2-.7-2.8 0-3.7.4a8.5 8.5 0 0 0-3.4 2.8Zm52.3-23.9c-.6-.1-1.3-.2-2.2-.3-2.5-.2-3.6.2-3.9-.2-.2-.4.4-1.2 1.8-2.9.7-1 1.3-1.5 2-1.5s.4 0 .7.2c.6.4.5 1.3.7 2.3.1.6.3 1.5.9 2.5Z" class="st17"/><path d="M114.4 88.8c-1-.2-1.5-1-2.2-1.9-.9-1-2.1-2.4-3.4-4.2 2.7-2.6 9.4-8.1 18.2-7.9 2.3 0 4.7.1 6.5 1.8 4.1 3.8 2.1 13.1-1.7 18.8-2 3.1-4.5 4.9-6 5.9-1.2-.9-3.2-2.5-4.9-4.2-.4-.4-.9-.9-.9-1.7s.8-1.8 1-2.1c1-1 2.1-3 3.1-7.3-4.1.4-6.3 1.4-7.6 2.1-.4.3-1.2.9-2.3.7Z" class="st20"/><path d="M63.5 141.1c-.4 0-.8-.2-1.1-.5-.6-.6-.5-1.5.1-2l56.7-50.2c.6-.6 1.5-.5 2 .1.6.6.5 1.5-.1 2l-56.7 50.2c-.2.2-.6.4-.9.4Zm59.6-1.6-27.6-25-2.1 1.9 27.9 25.2c.2.2.6.4.9.4s.8-.2 1-.5c.5-.6.5-1.5-.1-2Zm-33.4-26.3 2.1-1.9-24.3-22c-.6-.6-1.5-.5-2 .1s-.5 1.5.1 2z" style="stroke:#000;stroke-miterlimit:10;fill:#e8d3ac;stroke-width:4.8px"/><path d="M63.5 141.1c-.4 0-.8-.2-1.1-.5-.6-.6-.5-1.5.1-2l56.7-50.2c.6-.6 1.5-.5 2 .1.6.6.5 1.5-.1 2l-56.7 50.2c-.2.2-.6.4-.9.4m59.6-1.6-27.6-25-2.1 1.9 27.9 25.2c.2.2.6.4.9.4s.8-.2 1-.5c.5-.6.5-1.5-.1-2m-33.4-26.3 2.1-1.9-24.3-22c-.6-.6-1.5-.5-2 .1s-.5 1.5.1 2z" class="st18"/><path d="M54.1 106.3a51.3 51.3 0 0 1 28-29.9c-1.7 0-3.7.3-5.8.9-6.2 1.7-10.4 5.2-12.6 7.4-.3-.2-.7-.6-1.2-.9s-.7-.5-.9-.6c-1-.2-2.6 1.4-2.4 2.2 0 .2.1.2.5.6.6.5 1.2 1 1.7 1.3a28.3 28.3 0 0 0-7.2 19Z" class="st20"/><path d="M54 107.6c-.7 0-1.3-.6-1.4-1.4 0-2.1.1-4.2.6-6.2.9-4.5 2.9-8.8 5.9-12.5-.2-.1-.3-.2-.5-.4-.4-.4-.8-.7-1-1.3-.2-.9 0-1.9.9-2.8.7-.8 2-1.5 3.3-1.3.4.1.8.3 1.4.7 0 0 .2.1.2.2 3.6-3.3 7.9-5.7 12.4-6.9 2-.6 4.1-.9 6.1-.9.2 0 .6.2.8.6.4.6.4 1.5-.2 2.3-6 2.6-11.4 6.3-16 11-4.9 5.1-8.8 11.3-11.1 17.9-.3.7-.9 1.1-1.5 1Zm6.7-22.5c.4.4.9.7 1.4 1.1l1.3.9-1 1.2c-1.9 2.1-3.4 4.5-4.5 7.1 2-3.1 4.2-6 6.8-8.7 2.2-2.3 4.5-4.3 7.1-6.1a27 27 0 0 0-7.1 5.2l-.9.9-1-.8c-.4-.3-.7-.6-1.2-.9-.1 0-.2-.2-.4-.2 0 .1-.2.2-.4.4Zm.5-.4"/><path d="M54.1 106.3a51.3 51.3 0 0 1 28-29.9c-1.7 0-3.7.3-5.8.9-6.2 1.7-10.4 5.2-12.6 7.4-.3-.2-.7-.6-1.2-.9s-.7-.5-.9-.6c-1-.2-2.6 1.4-2.4 2.2 0 .2.1.2.5.6.6.5 1.2 1 1.7 1.3a28.3 28.3 0 0 0-7.2 19Z" class="st20"/><path d="m118.6 96-20.3 17.9c5.3 5 10.6 9.9 15.8 14.9-.9-2.3-1.5-4.1-2-5.3-.4-1-.5-1.6-1.1-2.1-1.2-1.1-2.4-.6-3.2-1.5-.7-1 0-2-.7-2.8-.4-.6-1.5-1-4-.5-.2-3.3.6-4.8 1.4-5.6.5-.4 1.1-.7 1.7-1.7s.6-1.4 1.3-2.3c.3-.4 1.2-1.5 1.8-1.4.7.2.1 1.8 1.2 3.1s2.7.8 3.4 2.1c.3.5.2 1 .2 1.8-.2 2.8-.5 5.1-.5 5.2-.3 3 .9 7.3 3.6 8.8 1.2.7 2.3.6 2.9 1.7.6 1 .4 2.2 1.4 3.1.4.3.5.2.8.5.8.9-.3 2.2.1 3.7s2 1.4 2.6 2.8c.3.7.4 2-.7 4.1.6 0 1.4-.2 2-.8.8-.9.3-2.1.2-4.2-.2-4.1 1.5-4.7.8-8-.3-1.4-1-2.8-1.2-3.2-.8-1.7-1.2-1.9-1.7-3-.7-1.7 0-2.1-.3-5.2-.2-2.6-.7-2.6-1-5.8-.2-2.8.1-2.6-.2-3.9-.8-2.7-2.7-3.4-2.6-5.3 0-.7.3-1.6 1.4-2.6-.7-.6-1.6-1.5-2.3-2.9-.5-.6-.7-1.2-.9-1.7Zm5.4 6.8c.4.4 1.4 1 2.5.9.8-.1 1.4-.7 1.7-1 1.2-1.3 2.7-2.8 4.4-4.7.7 6.6.6 11.6.1 15-.4 3.1.1 6.2 0 9.3 0 1.4-.2 4.2 1.4 5.3.2.2.9.6 1.6 1.4.6.6.9 1.2 1.2 1.5a8 8 0 0 0 .7-3.2c0-2-.8-3.1-1.3-4.7-.8-2.5.2-2.8.1-7.6-.1-4.4-.7-5.5-.5-8.3.2-3.5 1.2-2.9 1.2-6s-.9-4.5.3-6.6c.2-.4.7-1.3 1.4-1.2 1 0 1.7 2.3 1.9 2.8 1.5 4.7-1 7.4-.1 11.7.6 2.9 2.3 5.4 2.9 5.2.4-.1.1-1.4-.1-4.7-.4-4.9 0-4.3-.4-10.7-.2-4-.5-5.6-.1-5.7.5-.1 1.5 2.5 2.5 4.9 1.4 3.6 2.1 5.4 2.6 7.9.5 2.6.4 4.7.4 8.8 0 3.1 0 4.6-.2 5.8-.7 4.3-3.1 6.3-9 13.3-6.3 7.4-8.2 10.6-9.3 10-.9-.4-.6-2.9-.2-7.1.5-4.7 1.2-5.6.5-7.8-.9-2.5-2.2-2.3-2.6-4.7-.4-2 .5-2.9-.2-5.4-.2-.7-.3-.9-.8-2.3-.4-1.4-.5-1.9-.9-3.1-.5-1.7-.9-2.3-1.1-3.1-.4-1.2-.7-3.2 0-6Z" class="st17"/><path d="M307.3 138.9c1.4-.8 0-3.6 1.6-7.5.5-1.2.7-1.1 1.6-3 1.2-2.4 1.8-4.5 2.1-6 .1 4.2-.9 6.9-1.8 8.7 0 0-2.3 4.4-2.3 7 0 .2 0 .8.4 1.4.4.7 1.1 1.4 1.5 1.3.2-.1.1-.8.1-1.4 0-1.9 1.1-3.3 1.5-3.9.8-1.3 2.2-5.2 4.9-15.9v3.5c.1-.5 2.8-8.8 3.1-10.8.1-.9-.2-1.2-.3-1.3-.4-.4-.9-.3-1.1-.3-1.1 0-3.9-.2-8.1-.7l-2.6 8.8c-2.1 7.1-2 7.1-2.5 8-1.2 2.4-3.6 5.8-3.1 7.5.1.4.3 1.1.9 1.4s.6 0 .9.2c0 0 .4.2.7.6.6.8 0 1.8.4 2.3.5.3 1.4.4 2 .1h0Zm12.7-18.6c-3.4 9.8-5.1 14.7-6.3 16.5-.4.7-1.8 2.8-1 4.1.6 1 2.2.6 2.8 1.8.6 1-.2 2 .3 2.7.5.6 1.5.6 2.3.4q.15-2.25.9-5.4c.1-.6.7-2.9 1.8-6.1.7-2 1.8-4.5 3.4-7.3-.5 4.1-1.5 7.1-2.3 9.1-.9 2.1-1.4 4.4-2.2 6.4-.4 1-.9 2.1-.6 3.4.2 1.4 1.2 2.8 2.1 2.8s.6-.3 1.7-.8c.6-.2 1-.4 1.4-.6 0-2.1.1-4.7.5-7.9.2-2.1.7-5.2 1.8-9 .6-2.1 1.6-4.7 3.1-7.7-.4 1.9-.8 3.9-1.2 5.9-.8 4.2-1.5 8.4-2.2 12.5.1-.3.2-.6.4-.9 2.8-6.8 4.8-14.5 5.8-23.5-.2 0-1-.2-1.5-1-.6-.9-.6-1.8-.6-2-1 0-2.2-.2-3.4-.4-1.8-.3-3.5-.7-5-1.1-.6 3.4-1.5 6.1-2.1 7.9h0Zm12.2 10c-1.8 6-4 10.8-4.7 18.7-.1 1.2-.1 2.3-.2 2.9.4 0 1.3 0 2.3.3.4.2.8.4 1 .7 0-.2 0-.5.2-.8.4-.6.9-.7 1.1-.8v3.9c1 0 2 .1 2.9.2-.1-.9-.1-1.9 0-3.1.4-2.8 1.5-4.8 2.3-5.9.6 2.2.4 3.9.1 5.1-.4 1.8-1.1 2.7-.7 4.2.1.4.4 1.7 1.7 2.2 1.4.5 2.6-.4 2.7-.4-.2-2-.4-4.2-.6-6.4-.3-4.6-.4-9-.2-13 .5 1.5.9 3.2 1.3 5 1 5.5 1 10.4.6 14.3.8.5 1.5 1 2.3 1.5.1-1 .2-2 .4-3.1.2-1.2.4-2.2.7-3.2.2.4.3.8.5 1.2.7 2.3.6 4.5.2 6 .6-.3 1.4-.7 2.5-.9s2-.4 2.7-.4c-.9-3.7-.9-6.6-.7-8.5 0-.9.2-1.4.4-2.9.4-3.1.5-5.6.6-7.3.1.5.3 1.2.4 2.1.5 2.7.5 4.8.6 6.6 0 3.7 0 7-.1 9.8.6-.2 1.4-.4 2 0 .7.4.7 1.1 1.3 1.4.4.1.9.1 1.7-.6-.1-3.5-.3-7.1-.7-10.9-.6-6.6-1.5-12.6-2.6-18.2.8 2.1 1.7 4.8 2.5 8 .8 3.1 1.4 5.3 1.7 8.2.7 7.4-1.2 11.4 1.1 13.3.1.1 1.5 1.2 2.9.8.9-.3 1.5-1.2 2-2 .3-.5.7-1.1.9-1.8.2-1.4-.6-2.6-1-3.3-1.3-2.1-.3-2.6-1.5-6.8-1.2-4.3-2.5-5-2.7-8.3 0-1.5 0-2.7.2-3.4.8 2.2 1.4 4 1.8 5.3 2.3 6.9 3.4 10.3 3.6 12.2.2 2.5-.1 4.5 1 5.1.7.4 1.8 0 2.5-.6.8-.9.9-2.3.2-3.4.4 0 2.5.1 3.3-1.2.5-.9.2-1.9 0-2.5-.9-2.9-1.4-4.4-3.1-8.3-.8-1.7-1.7-4.2-2-7.7-.8-.1-2-.5-3.4-1.3-1.7-1-2-2-4.5-4.7-1.7-1.8-2.5-2.6-3.5-3.2-1.9-1-3.3-.8-4-2-.5-.9-.3-1.9-.1-2.6-.5-.3-1-.6-1.5-1-.7-.5-1.3-.9-1.9-1.4-1.6 0-4.3.2-7.6 0 0 0-2.9-.1-5.8-.6h-.1c-1 5.8-2.1 10.3-3.1 13.4h.1Zm-23-25.2c-.3.4-.8.4-1 .8-.2.5.3 1.1.4 1.4 1.2 1.7 8.7 2 9.9 2.1 0-.7.1-1.4.2-2.1-1.7-.2-3.4-.5-5-.8 2 0 3.9-.1 5.8-.2.2-.6.3-1.3.5-1.9-3.6-.1-7.1-.2-10.7-.4 0 .3 0 .7-.2 1.1h0Zm12.5.5c-.1.7-.4 1.1-.6 1.4-.3.5-.6.7-.7 1.2 0 0-.1.4 0 1 .3 1.1 2.5 1.7 3.9 2.1 5.9 1.5 6.6 1.2 7 .8s.7-1.2.5-1.7c-.4-.8-1.9.1-4.1-.8-.4-.2-1-.5-1.4-.2-.3.2-.1.7-.4 1-.5.5-2.1 0-3.1-.9-1.5-1.4-1.2-3.6-1.2-3.9h0Zm4.8 3.1h4.1l.3-2.4c-.8.2-2 .3-3.3-.1-.3-.1-.6-.2-.8-.3-.1.4-.2.8-.2 1.4v1.4h0Zm6.1-.8c1 .7 1.3 1.3 1.4 1.7.2 1-.6 1.5-1 3-.2 1-.2 1.8 0 2.5 2.6.3 4.8.5 6.5.6 1.8.1 7.3.6 7.4-.2 0-.2-.3-.3-.4-.7-.2-.6.2-1.4.8-2-1 .2-2.6.3-4.5 0-1.9-.4-3.3-1-4.2-1.5 2.5.4 4.5.4 6 .4 2.5 0 3.5-.3 4-1 .4-.6.4-1.3.3-1.8-2.5 0-5.2 0-8-.2s-5.5-.4-8.1-.7h0Zm5.5-13.9c6 0 11.5 4.7 12.6 10.7.9 5-1.8 9-2.5 9.9 1.7 1.4 3.3 2.8 5 4.2l1.8-1.5c-1.2-1.2-2.3-2.5-3.4-3.7 1-1.5 2.7-4.5 2.6-8.5-.1-6.8-5.5-13.8-13.1-14.9-5.5-.8-11.4 1.6-14.6 6.4-3.3 5-2.3 10.4-2.1 11.5.3-8 6.8-14.2 13.8-14.1h0Zm16.8 28.1c1.3 1.1 2.5 1.2 3.5 1.7.7.3.9.6 3.6 3.4 3.6 3.8 4 4.3 4.8 4.3 1.7 0 3.7-1.8 3.7-3.4-.1-2.6-5.9-4.7-6.6-5-1.7-.6-2.9-.8-3.7-2-.6-.9-.7-1.7-1.6-2.6-.7-.7-1.4-1-1.9-1.2 0 .4-.2 1.2-.8 2-.7 1-1.7 1.5-2.1 1.7.2.2.6.7 1.2 1.2h0Zm-.1-10.8c1.5 0 2.9.1 4.4.1-.4.3-1 .8-2 1.1-1.4.4-2.6.1-3.1 0-.1.4-.2.8-.4 1.2.1.2.3.6.7.9.8.7 1.8.6 4.7.2 3.3-.4 3.7-.6 4.2-.9 1-.6 2.2-1.8 2-2.8-.1-.5-.6-.7-.9-1.6-.1-.4-.2-.8-.2-1.1-2.8 0-5.6.1-8.5.2-.2.9-.5 1.8-.8 2.6h0Zm-44.3-8.5 10.4.3c-3.9-8.6-7.9-17.2-11.8-25.8 1.5 7 1.7 8.7 1.4 8.7-.4.1-2.5-5.6-3.8-11.8-.5-2.3-.8-4.2-.9-5.6-.5.1-1.2.3-2.1.2-.8-.1-1.3-.4-1.5-.1-.3.3 0 1 .3 1.5 0 0 .5 1 1.7 4.2.4 1 .7 2.5.4 4.6-.8-1.7-1.5-3.7-2.2-5.9-.3-1.1-.6-2.2-.9-3.2-2.1-.4-2.8-.1-2.9.2-.1.2.2.5.2 1.1s-.6 1.4-.9 1.7c-.9.9-1.6.9-2 1.3-1.6 1.5 4.7 10.5 7.6 15.2 1.9 3.1 4.5 7.7 7 13.6h0Zm3.7-39.9c-.4 0-1.1-.1-1.9.2-.4.1-.7.2-1 .5-.6.7 0 1.5-.4 2.5-.5 1.2-2.1.9-2.8 1.8-1.2 1.5 1 5 1.2 5.5 2.5 4.2 7.1 13.4 13.3 26.9.4-1.5 1.4-4.8 4.3-7.6 1.6-1.5 3.3-2.4 4.4-2.9-.7-5.3-.9-9.6-.9-12.6s0-6.8-.7-12.2l-.5-2.9-2.2.6q.75 4.65 1.2 9.9c.3 3.8.5 7.4.5 10.7a45 45 0 0 1-2.8-17.6c0-1.2.2-2.5.4-3.6-.6-.2-1.3-.5-2.2-1-.7-.4-1-.7-1.4-.7-.6-.1-1.4 0-2.5 1 .5 2 1.2 4.8 1.9 8.3.6 3.1 2.5 13.3 1.9 13.4s-3.3-7.2-4.3-15.6c-.3-2.5-.4-4.5-.4-6-.8.6-1.4.6-1.7.5-.6-.1-.8-.4-1.4-.4-.4 0-.9.3-1 .6-.7.9 1.2 2.8 2.1 5.2.6 1.3 1 3.3.6 6.2-.9-1.4-1.9-3.3-2.6-5.7-.6-1.8-.8-3.6-.9-5Zm20 25.9c7-1.6 14.1.6 18.1 5.8 3.7 4.8 3.4 10.3 3.3 11.8 2.1 0 4.4 0 6.5.1 2.1-5.2 4.1-9.1 5.6-11.6 0 0 7.9-13.9 13.2-25.9.3-.7.8-1.8.3-2.9-.6-1.3-2-1.1-2.7-2.5-.6-1.2 0-2.1-.6-2.9s-1.9-.9-3.1-.7c-.2 2.8-.9 6.6-3.4 10.4-.5.7-.9 1.4-1.4 2 0-1.4 0-3.1.2-4.9.6-3.7 2-6.5 3.1-8.3-.6-.3-1-.4-1.3-.6-.9-.2-1.3 0-2.2-.3-.4-.1-.8-.2-1-.4 0 3.9-.6 9.1-2.3 14.9-1.2 4.1-2.8 7.6-4.2 10.3 1.2-5.7 2.5-11.5 3.7-17.2.6-2.8 1.2-5.5 1.9-8.2-.7-.7-1.4-1-1.9-1-.8 0-1.3.3-2.8 1-.9.4-1.7.7-2.3.9.3 4.1.2 9.5-1.1 15.6-.7 3.4-1.7 6.4-2.8 8.8.4-6.3 1.1-12.8 2-19.5l.6-4.5c-.8-.2-1.7-.5-2.6-.9-.7-.3-1.4-.7-2-1 0 .7-.1 1.6-.2 2.8-.1 1.5-.5 6.1-.9 9.6-.4 2.8-1 6.7-2.1 11.5.2-5.1.5-10.3.9-15.5l.6-7.2c-.3.4-.9 1-1.6 1.3-1.2.4-2-.2-3.4-.3-.9 0-2.1.2-3.6 1.2.9 5 1.4 11.1.6 18.1-.2 2.3-.6 4.5-1 6.4-.4-6.3-.7-12.7-.9-19.3v-5.4c-.6-.2-1.5-.5-2.5-1-.7-.4-.9-.6-1.2-.6-1.2-.1-1.8 1.4-3.1 2-.8.3-2.1.3-4.2-1 .5 1.5.9 3.1 1.4 4.7 1.7 6.6 2.6 12.8 3.1 18.5-1.4-4.7-2.9-9.4-4.3-14.1 0 2.9 0 6 .3 9.3.3 3.9.9 7.5 1.5 10.8h0Z" style="stroke:#000;stroke-linecap:round;stroke-linejoin:round;fill:none;stroke-width:5.1px"/><path d="M334.2 88.8c7-1.6 14.1.6 18.1 5.8 3.7 4.8 3.4 10.3 3.3 11.8 2.1 0 4.4 0 6.5.1 2.1-5.2 4.1-9.1 5.6-11.6 0 0 7.9-13.9 13.2-25.9.3-.7.8-1.8.3-2.9-.6-1.3-2-1.1-2.7-2.5-.6-1.2 0-2.1-.6-2.9s-1.9-.9-3.1-.7c-.2 2.8-.9 6.6-3.4 10.4-.5.7-.9 1.4-1.4 2 0-1.4 0-3.1.2-4.9.6-3.7 2-6.5 3.1-8.3-.6-.3-1-.4-1.3-.6-.9-.2-1.3 0-2.2-.3-.4-.1-.8-.2-1-.4 0 3.9-.6 9.1-2.3 14.9-1.2 4.1-2.8 7.6-4.2 10.3 1.2-5.7 2.5-11.5 3.7-17.2.6-2.8 1.2-5.5 1.9-8.2-.7-.7-1.4-1-1.9-1-.8 0-1.3.3-2.8 1-.9.4-1.7.7-2.3.9.3 4.1.2 9.5-1.1 15.6-.7 3.4-1.7 6.4-2.8 8.8.4-6.3 1.1-12.8 2-19.5l.6-4.5c-.8-.2-1.7-.5-2.6-.9-.7-.3-1.4-.7-2-1 0 .7-.1 1.6-.2 2.8-.1 1.5-.5 6.1-.9 9.6-.4 2.8-1 6.7-2.1 11.5.2-5.1.5-10.3.9-15.5l.6-7.2c-.3.4-.9 1-1.6 1.3-1.2.4-2-.2-3.4-.3-.9 0-2.1.2-3.6 1.2.9 5 1.4 11.1.6 18.1-.2 2.3-.6 4.5-1 6.4-.4-6.3-.7-12.7-.9-19.3v-5.4c-.6-.2-1.5-.5-2.5-1-.7-.4-.9-.6-1.2-.6-1.2-.1-1.8 1.4-3.1 2-.8.3-2.1.3-4.2-1 .5 1.5.9 3.1 1.4 4.7 1.7 6.6 2.6 12.8 3.1 18.5-1.4-4.7-2.9-9.4-4.3-14.1 0 2.9 0 6 .3 9.3.3 3.9.9 7.5 1.5 10.8Zm-28.7 49.8c-.5-.6.2-1.5-.4-2.3-.2-.4-.7-.6-.7-.6-.4-.2-.7-.1-.9-.2-.6-.2-.8-1-.9-1.4-.5-1.7 1.9-5.1 3.1-7.5.4-.9.4-.9 2.5-8 .6-2.1 1.5-5.1 2.6-8.8 4.2.5 7 .7 8.1.7.2 0 .7 0 1.1.3 0 0 .4.4.3 1.3-.2 2-2.9 10.3-3.1 10.8v-3.5c-2.7 10.7-4.1 14.6-4.9 15.9-.4.7-1.5 2.1-1.5 3.9s.1 1.2-.1 1.4c-.3.2-1.1-.6-1.5-1.3s-.4-1.2-.4-1.4c0-2.6 2.3-7 2.3-7 .9-1.8 1.9-4.5 1.8-8.7-.4 1.4-1 3.6-2.1 6-.9 1.9-1.1 1.8-1.6 3-1.5 3.9-.2 6.7-1.6 7.5-.7.4-1.6.3-2-.1Zm16.8-26.1a45 45 0 0 0 8.4 1.5c0 .2-.1 1.1.6 2 .6.7 1.3.9 1.5 1-.9 9-3.1 16.7-5.8 23.5-.1.3-.2.6-.4.9.7-4.1 1.4-8.3 2.2-12.5l1.2-5.9c-1.5 2.9-2.5 5.6-3.1 7.7-1.2 3.9-1.6 6.9-1.8 9-.4 3.1-.5 5.8-.5 7.9-.3.1-.8.2-1.4.6-1.1.6-1.3.8-1.7.8-.9 0-1.9-1.5-2.1-2.8s.2-2.5.6-3.4c.9-2.1 1.4-4.4 2.2-6.4.9-2 1.8-5 2.3-9.1-1.6 2.8-2.6 5.3-3.4 7.3-1.2 3.1-1.7 5.5-1.8 6.1-.5 2.1-.7 3.9-.9 5.4-.8.1-1.8.2-2.3-.4-.6-.7.2-1.7-.3-2.7-.6-1.2-2.2-.9-2.8-1.8-.7-1.2.6-3.3 1-4.1 1.1-1.8 2.8-6.7 6.3-16.5.4-1.8 1.3-4.5 2.1-7.9Zm12.8 4.4h.1c2.9.4 5.8.6 5.8.6 3.2.2 6 0 7.6 0 .6.5 1.2.9 1.9 1.4.5.4 1 .7 1.5 1-.2.7-.4 1.8.1 2.6.7 1.2 2.1 1 4 2 1 .5 1.8 1.4 3.5 3.2 2.5 2.6 2.8 3.6 4.5 4.7 1.3.8 2.6 1.2 3.4 1.3.3 3.4 1.2 6 2 7.7 1.8 3.9 2.3 5.3 3.1 8.3.2.6.5 1.7 0 2.5-.8 1.2-2.8 1.2-3.3 1.2.7 1.2.6 2.6-.2 3.4-.6.6-1.7 1-2.5.6-1.1-.6-.8-2.6-1-5.1-.1-1.8-1.2-5.3-3.6-12.2-.4-1.3-1-3.1-1.8-5.3-.2.8-.3 2-.2 3.4.2 3.3 1.5 4 2.7 8.3 1.2 4.2.2 4.7 1.5 6.8.4.7 1.2 1.8 1 3.3-.1.7-.5 1.4-.9 1.8-.5.7-1.1 1.7-2 2-1.4.4-2.8-.7-2.9-.8-2.4-1.9-.4-5.9-1.1-13.3-.2-2.8-.9-5-1.7-8.2s-1.7-5.8-2.5-8c1.1 5.6 2 11.7 2.6 18.2.4 3.8.6 7.4.7 10.9-.9.6-1.4.7-1.7.6-.6-.2-.6-1-1.3-1.4-.6-.4-1.4-.2-2 0 0-2.8.1-6.1.1-9.8s0-3.9-.6-6.6c-.2-.9-.3-1.7-.4-2.1 0 1.7-.2 4.2-.6 7.3-.2 1.5-.3 2-.4 2.9-.2 2-.2 4.8.7 8.5-.7 0-1.7 0-2.7.4-1 .2-1.8.6-2.5.9.3-1.5.5-3.6-.2-6-.1-.4-.3-.9-.5-1.2-.2 1-.5 2.1-.7 3.2s-.4 2.1-.4 3.1c-.8-.5-1.5-1-2.3-1.5.4-3.9.6-8.8-.6-14.3-.4-1.8-.8-3.5-1.3-5-.1 4-.1 8.3.2 13 .1 2.2.4 4.3.6 6.4-.1 0-1.4 1-2.7.4-1.2-.5-1.6-1.8-1.7-2.2-.4-1.5.3-2.5.7-4.2.2-1.2.4-2.9-.1-5.1-.8 1.1-2 3.1-2.3 5.9-.1 1.2-.1 2.3 0 3.1-1 0-2-.1-2.9-.2v-3.9c-.2 0-.7.2-1.1.8-.2.3-.2.6-.2.8-.2-.2-.6-.5-1-.7-.9-.4-1.8-.4-2.3-.3 0-.7 0-1.7.2-2.9.7-7.9 2.9-12.7 4.7-18.7 1.1-3 2.3-7.6 3.1-13.4h-.1Z" class="st14"/><path d="M309.3 104c3.6.1 7.1.2 10.7.4-.2.6-.3 1.3-.5 1.9-2 0-3.9.1-5.8.2 1.7.2 3.4.5 5 .8 0 .7-.1 1.4-.2 2.1-1.2 0-8.7-.5-9.9-2.1-.1-.2-.7-.9-.4-1.4.2-.4.7-.3 1-.8.2-.4.2-.8.2-1.1Zm12.4 1.6c-.1.7-.4 1.1-.6 1.4-.3.5-.6.7-.7 1.2 0 0-.1.4 0 1 .3 1.1 2.5 1.7 3.9 2.1 5.9 1.5 6.6 1.2 7 .8s.7-1.2.5-1.7c-.4-.8-1.9.1-4.1-.8-.4-.2-1-.5-1.4-.2-.3.2-.1.7-.4 1-.5.5-2.1 0-3.1-.9-1.5-1.4-1.2-3.6-1.2-3.9Z" class="st18"/><path d="M326.5 108.7h4.1l.3-2.4c-.8.2-2 .3-3.3-.1-.3-.1-.6-.2-.8-.3-.1.4-.2.8-.2 1.4v1.4Zm6.1-.8c1 .7 1.3 1.3 1.4 1.7.2 1-.6 1.5-1 3-.2 1-.2 1.8 0 2.5 2.6.3 4.8.5 6.5.6 1.8.1 7.3.6 7.4-.2 0-.2-.3-.3-.4-.7-.2-.6.2-1.4.8-2-1 .2-2.6.3-4.5 0-1.9-.4-3.3-1-4.2-1.5 2.5.4 4.5.4 6 .4 2.5 0 3.5-.3 4-1 .4-.6.4-1.3.3-1.8-2.5 0-5.2 0-8-.2s-5.5-.4-8.1-.7Z" class="st18"/><path d="M324.4 108.3c-.2-1.2-1.2-6.5 2.1-11.5 3.2-4.8 9.1-7.2 14.6-6.4 7.6 1.1 12.9 8 13.1 14.9 0 3.9-1.7 7-2.6 8.5 1.2 1.2 2.3 2.5 3.4 3.7l-1.8 1.5c-1.7-1.4-3.3-2.8-5-4.2.7-.9 3.3-4.9 2.5-9.9-1-6-6.7-10.6-12.6-10.7-7.1-.2-13.5 6-13.8 14.1Z" class="st20"/><path d="M353.7 120.9c.4-.2 1.4-.6 2.1-1.7.6-.8.7-1.6.8-2 .5.2 1.2.6 1.9 1.2.9 1 1 1.8 1.6 2.6.9 1.2 2.1 1.4 3.7 2 .8.3 6.5 2.5 6.6 5 0 1.6-2 3.4-3.7 3.4-.8 0-1.2-.5-4.8-4.3-2.7-2.9-3-3.1-3.6-3.4-1.1-.4-2.2-.6-3.5-1.7-.6-.4-.9-.9-1.2-1.2Z" class="st17"/><path d="M354.8 111.3c1.5 0 2.9.1 4.4.1-.4.3-1 .8-2 1.1-1.4.4-2.6.1-3.1 0-.1.4-.2.8-.4 1.2.1.2.3.6.7.9.8.7 1.8.6 4.7.2 3.3-.4 3.7-.6 4.2-.9 1-.6 2.2-1.8 2-2.8-.1-.5-.6-.7-.9-1.6-.1-.4-.2-.8-.2-1.1-2.8 0-5.6.1-8.5.2-.2.9-.5 1.8-.8 2.6Z" class="st18"/><path d="m310.5 102.8 10.4.3c-3.9-8.6-7.9-17.2-11.8-25.8 1.5 7 1.7 8.7 1.4 8.7-.4.1-2.5-5.6-3.8-11.8-.5-2.3-.8-4.2-.9-5.6-.5.1-1.2.3-2.1.2-.8-.1-1.3-.4-1.5-.1-.3.3 0 1 .3 1.5 0 0 .5 1 1.7 4.2.4 1 .7 2.5.4 4.6-.8-1.7-1.5-3.7-2.2-5.9-.3-1.1-.6-2.2-.9-3.2-2.1-.4-2.8-.1-2.9.2-.1.2.2.5.2 1.1s-.6 1.4-.9 1.7c-.9.9-1.6.9-2 1.3-1.6 1.5 4.7 10.5 7.6 15.2 1.9 3.1 4.5 7.7 7 13.6Zm3.7-39.9c-.4 0-1.1-.1-1.9.2-.4.1-.7.2-1 .5-.6.7 0 1.5-.4 2.5-.5 1.2-2.1.9-2.8 1.8-1.2 1.5 1 5 1.2 5.5 2.5 4.2 7.1 13.4 13.3 26.9.4-1.5 1.4-4.8 4.3-7.6 1.6-1.5 3.3-2.4 4.4-2.9-.7-5.3-.9-9.6-.9-12.6s0-6.8-.7-12.2l-.5-2.9-2.2.6q.75 4.65 1.2 9.9c.3 3.8.5 7.4.5 10.7a45 45 0 0 1-2.8-17.6c0-1.2.2-2.5.4-3.6-.6-.2-1.3-.5-2.2-1-.7-.4-1-.7-1.4-.7-.6-.1-1.4 0-2.5 1 .5 2 1.2 4.8 1.9 8.3.6 3.1 2.5 13.3 1.9 13.4s-3.3-7.2-4.3-15.6c-.3-2.5-.4-4.5-.4-6-.8.6-1.4.6-1.7.5-.6-.1-.8-.4-1.4-.4-.4 0-.9.3-1 .6-.7.9 1.2 2.8 2.1 5.2.6 1.3 1 3.3.6 6.2-.9-1.4-1.9-3.3-2.6-5.7-.6-1.8-.8-3.6-.9-5Z" class="st14"/><path d="M187.9 281.4c-1.8-.9-6.7-3-13.4-4.5-3.3-.7-5-.8-6.6-.9-1.5 0-2.8-.1-5.5-.7-4.3-.9-6.6-1.9-8.7-2.8-1.3-.6-2.5-1.1-4.1-1.5-1.8-.6-3.3-.7-4.3-.8h-.2c-9.5-1.1-18.8 2-22.8 4-.3.1-.7.4-1.4.6-1.9.6-4 .6-6.2 0-.2 0-.4-.1-.6-.2-.8-.2-1.8-.6-3.3-.7-1.8-.1-3.3.2-4.4.4-2.8.7-4.8 1.7-6.5 2.6-.6.3-1.2.6-1.7.9-1.7.8-2.5.9-3.7 1-.5 0-1 .1-1.7.2-.3 0-.6.1-.9.2-1 .2-1.9.4-2.8.7-1.2.4-2.1.6-2.8.7-1 .2-1.8.4-3.1 1-2.8 1.5-4.5 3.8-5.2 4.7-.2.4-.7 1-1.1 1.8-.4.9-.6 1.7-.9 2.7-.3 1.2-.7 2.6-1.5 4.8-1.3 3.3-2.9 5.9-6 11.1-2.2 3.7-3.6 5.7-4.7 7.2-1.3 1.9-2 2.9-2.7 5-1.4 3.8-1.6 7.6-.9 13.6 1.2 10.1 4.3 21.1 9.3 32.8.4 1.1.9 2 1.2 2.6s4.2 9.2 10.3 15.5c.4.4.9.9 1.5 1.2 2.9 1.7 6.4.4 7.6.1 6.4-1.8 17.4 3.1 23.3 8.8 6 5.8 5.3 11 11.8 13.7 1.2.5 3.9 1.5 6.9.8 2.5-.6 4.5-2.3 10-10.2 2-2.8 4.6-6.9 7.3-11.9 2.1-3.4 5-11.7 7.1-15.2.6-.9 1-1.7 1.5-2.3 1.2-1.8 2-3 2.3-5.2 0-.3 0-.6.1-.9.2-1.3.4-2.6 1.3-4.2.4-.6.9-1.2 1.4-1.7 1.4-1.3 2.8-1.7 4.2-2.1.5-.1 1-.3 1.6-.5 6.1-2.3 8.2-10.3 8.9-13.6.4-1.8.9-5-.4-8.2-.5-1.2-.9-1.7-1.4-2.1-.4-.4-.7-.8-1.2-1.7-.6-1-2.3-4.7-1.3-8.5.3-1.1.7-1.8.9-2.3 1.9-3.6 2.9-8.3 3.3-14.4 5.6.9 11.4.5 16.5-1.2 3.9-1.3 8.3-2.8 9-6.3.8-4.1-4.3-8.8-15.2-14.1Z"/><path d="M121.3 276.1c.8-.2 1.4-.5 1.6-.7 3.3-1.6 12.5-4.9 22-3.8 1 .1 2.5.2 4.3.8 3.9 1.1 5.8 2.9 12.9 4.4 5.8 1.2 5.9.2 12.1 1.5 7.1 1.5 12 3.8 13.1 4.4 2.6 1.3 15.4 7.4 14.5 12.6-.5 2.6-4.5 4-8 5.2-7.4 2.5-13.9 1.7-17.5.9-.2 8.2-1.7 12.7-3.1 15.4-.2.4-.7 1.4-1.1 2.7-1.2 4.5 1 8.7 1.4 9.6 1.2 2.2 1.8 1.9 2.5 3.7 1.2 2.8.7 5.5.3 7.4-.2 1.3-2 10.3-8 12.5-1.8.7-4.1.8-6.3 2.9-.9.8-1.4 1.6-1.6 1.9-1.4 2.1-1.4 4.1-1.7 5.6-.4 2.6-1.5 3.5-3.6 7-4.2 7.1-3.1 8.5-7.1 15.2-2.8 4.5-4.1 6.8-6.4 8-5 2.6-12.5 1.3-17.1-2.5-4.1-3.3-4.4-7.1-9.1-8.7-2.4-.8-3 0-5.4-1-4.7-2-6.6-6.8-6.8-7.4-1.5-4.1.7-4.6-.7-9.1-1.5-5-4.8-6-5.8-10.6-.1-.6-.4-2.1-1.5-3.7-1.2-1.9-1.8-2.3-2-2.4-1.4-.5-2.8.6-3.6 1.1-3.3 2.3-2.6 4.8-5.8 7.8-1.8 1.7-3.8 2.6-4.4 2.8-2.6 1.1-4.1.9-6 2.2-1.4.9-2.3 2.1-2.7 2.9-3.2-7.4-7.7-19.5-9.2-32.4-.7-5.9-.4-9.5.8-13 1.2-3.4 2.1-3.4 7.2-11.8 3.2-5.3 4.8-8 6.1-11.4 1.7-4.2 1.5-5.8 2.3-7.4.4-.8.8-1.3 1-1.5.6-.9 2.1-2.9 4.7-4.2 2-1 2.8-.7 5.8-1.7.3-.1 1.3-.4 2.6-.7.2 0 .5-.1.8-.1 2.2-.4 3.1 0 5.8-1.3 2.4-1.2 4.4-2.5 8-3.4 1-.2 2.3-.5 3.9-.4 1.7.1 2.6.6 3.6.8 1.8.4 4.4.8 7.1 0Z" style="fill:#543019"/><path d="M117.9 290.1c-2.3.1-4.7.5-7.4 1.2-11.9 3.2-19.1 11.8-22.1 16.1v-1.6s0-5.8 3.3-11.7c3.7-6.6 14.6-16.9 21.3-13.6.9.5 4 2.3 5 9.6Zm58.2-.1c-.2-.4-.6-1.2-.9-2.1-.5-1.8-.1-2.7-.5-4.3-.2-.7-.6-1.8-1.4-2.9 6.3.6 19 2.8 24.2 12.2.3.5.6 1 .8 1.6-2.7-1.2-5.8-2.4-9.2-3.7-3.3-1.3-4.8-1.8-7-1.9-2.6 0-4.7.7-6.1 1.2Z" class="st18"/><path d="M176.7 292.4c.2.3.7.7 1.2.8.9 0 1.4-.8 2.1-1.2.9-.5 1.8-.4 4.2.2 6.4 1.7 8.3 3.2 9.2 3.9 1.3 1.2 1.4 1.6 1.3 1.9-.2 1.4-4 1.8-5.5 1.9-2.9.3-7.4.3-13.1-1.4.2-.6.4-1.3.5-2.1.2-1.7.2-3.1.1-4.1Zm-22.5 64.8c-.7-.6-2-.6-4.7-.6-1.8 0-2.4.1-3.6-.2-1.3-.3-2.2-.8-3.1-1.4-5.5-3.2-6-4.8-8.6-5.2-1.7-.2-2.1.3-3.6-.3-.2-.1-2.4-.9-3.3-3.1-.6-1.2-.5-2.3-.5-2.7 0-3.6-5-6.4-11.8-13-6.2-6-9.3-9-9.8-10-.2-.4-1.1-2.2-2.5-2.3-.4 0-.9 0-1.2.4-.6.8.6 2.5 1.4 3.4 1.5 1.7 2.5 1.5 3.6 3 .8 1.2 1 2.3 1 2.7.3 2.1-.7 3.5-2.3 6.9-1.2 2.5-1.8 3.7-2.1 5-.3 1-2.1 7.6 1 11.1 1.5 1.7 2.6.9 5.7 3.2 1.4 1 3.3 2.5 4.4 5 1.5 3.5-.7 4.6.9 7.9.8 1.7 1.5 1.7 4.6 6.2.7 1 1.1 1.6 1.4 2.1 2.1 3.7 1.6 5.8 2.6 7.6 2.3 4 10.3 3.4 10.7 3.3 7-.6 12.3-6 14.5-10.3.8-1.5.8-2.1 2.3-4.8 2.3-4.3 3.3-5 3.9-7.6.1-.4 1-4.8-1-6.4Zm-11.3 16.2c-.6 2.4-1.4 3-1.8 3s-.7-.8-1.7-1.1c-.2 0-.5-.1-1.3 0-2.1.1-2.3.5-2.8.3-1.1-.4-.5-2.4-2.1-5-.5-.8-1-1.5-1.8-1.7-1.2-.2-1.8 1-2.8.7s-.7-1.7-1.7-2c-1-.4-1.7.6-2.5.2-.7-.4-.1-1.7-.7-3.3-.6-1.5-1.4-1.5-2.5-3.2-.3-.5-.4-.7-1.6-4.4s-1.4-4.3-1.4-5.3c.1-1.8.8-2.9 1-3.3.5-.7.7-1 1-1.2 2.3-.6 5.4 9.9 9.7 9.8 1.5 0 2.3-1.4 3.6-.9 1.4.6 1 2.2 2.5 3.2 1.7 1.2 3.1-.2 4.8.5 3.5 1.5 3 9.5 2 13.5Z" class="st10"/><path d="M169.3 324.4c-6.4-1-11.5-.2-14.5.5-1.8.4-16.5 4.4-19 14.5-.2 1-1.4 5.6 1.2 8.3.9 1 2.6 2.3 4.3 1.9.9-.2 1.4-1 1.8-1.5 1.4-1.7 3.2-2.3 6.8-3.6 3.7-1.4 11.7-1.7 20.9 1.6 4.4-8 4-11.5 2.7-13.2-.9-1.2-2.5-2-3.6-4.5-.6-1.6-.6-3.1-.6-4.1Z" class="st10"/><path d="M151.3 336.3c-.8-.5-2 .9-2.8.4-.4-.2-.6-1-.4-1.5.4-1.1 2.3-1.4 3.4-1.2.6 0 2.1.2 2.9 1.4.8 1.4.1 3.1-.7 4.1-1.1 1.2-3.3 1.9-4.1 1.1s-.6-1.5-.2-2c.6-.6 1.7 0 2.2-.6.3-.4.1-1.4-.4-1.7Zm17.2 0c.8-.5 2 .9 2.8.4.4-.2.6-1 .4-1.5-.4-1.1-2.3-1.4-3.4-1.2-.6 0-2.1.2-2.9 1.4-.8 1.4-.1 3.1.7 4.1 1.1 1.2 3.3 1.9 4.1 1.1.5-.5.6-1.5.2-2-.6-.6-1.7 0-2.2-.6-.3-.4-.1-1.4.4-1.7Z"/><path d="M171.9 287.8c1 3.2 3.7 3.6 3.7 5.9s-.5 1.3-1.2 2.8c-1.3 2.7-.5 4-.9 10.9-.2 4.1-.6 5.3-.7 5.9-.4 1.2-1.1 3.9-2.9 5.3-4 3.1-8-1.5-16 0-4.1.8-7.1 2.8-13.2 6.9-2 1.4-3.1 2.1-4.1 3.5-.9 1.3-1 2.1-1.9 2.6-1.9 1-4.4-.3-4.8-.6-1.8-.9-1.8-1.8-3.8-3.7-2.3-2.2-2.8-1.7-5.5-4-2-1.8-3.7-3.3-4.2-5.5-.3-1.4.2-1.4 0-4.1 0-1.5-.2-6.2-2.2-6.9-.5-.2-.9 0-1.7 0-1.5.3-2.3 1-2.9 1.4-2.3 1.4-6.2.3-8.5-1.4-1-.7-2.6-2-2.6-3.7 0-2.9 4.3-5.1 6.7-5.8.7-.2 2.8-.9 5.3-.5 3.9.5 5.8 2.7 7.6 1.6.7-.4 1.2-1.2 1.1-1.8-.2-.8-1.7-.9-1.8-1.5q0-.6 1.5-1.5c2.9-1.7 5.1-1.6 5.5-2.7.2-.5 0-1-.4-1.6-1.7-3.2-5.2-3.3-5.8-5.6-.2-.9 0-1.8.3-2.3.8-1.8 3.1-3.7 13.8-5.2 8.4-1.2 12.6-1.8 17.2-.7 1.7.4 2.9.9 2.9.9 2.3.7 3 1.1 4.7 1.6 1.5.4 2.8.7 3.3.9 3.1.6 5.3.7 7.3 1.7.6.3 1 .6 1.1.7 0 0 1.2.8 2 1.9 1 1.5.2 2.7 1 4.8Z" class="st10"/><path d="M122 310.9c-.6.1-1.4-.2-1.6-.7-.4-.9 1.1-2.3 2.3-2.9 1.7-1 4.3-1.4 6.5-.3.4.2 3.1 1.6 2.9 3.7-.1 1.4-1.4 2.5-2.6 2.8-1 .2-1.9 0-3-.6-.9-.4-2.1-.9-2.3-1.9-.1-.6 0-1.2.4-1.4.3-.2.7.1 1.8.8 1.8 1 2.3.9 2.5.8.3-.1.6-.4.6-.7 0-.9-2.3-1.4-2.5-1.4-1-.2-1.8-.4-2.7 0-1.3.6-1.2 1.7-2.3 1.8"/><path d="M158.8 288.2c0-.5 2.1-.4 2.1-1 0-.4-.6-.7-1.1-1-3.3-2.1-3.3-3.1-5.3-3.7-.9-.2-1.5-.4-2.2-.2-2.5.6-3.6 4.1-3.7 4.4-.2.6-.2 1-.7 2.7-.3 1.2-.4 1.2-.4 1.5-.2 1.7.6 2.1.3 3.1s-1.4 1-1.7 2c-.3.9.3 2 .6 2.3.5.8.8.8 1.2 1.4.7 1.2.2 2.1.5 3.3.4 1.8 2.4 2.2 4 3.5 1.4 1.1 2.8 3.2 3.2 7.6.4 0 1-.1 1.8 0 1.5.2 2.1.8 2.8.5.6-.2.4-.7 1.1-1.5 1-1.2 2-1 2.1-1.7.2-1-1.8-1.8-1.6-2.9.2-1.2 2.5-1.2 2.6-2.5 0-.5-.3-1-.7-1.5-.8-1-1.5-1-1.5-1.5s1.7-.7 1.8-1.7c.1-.6-.6-1.3-.7-1.5-.8-.8-1.7-.6-1.8-1-.3-.8 2.1-1.8 2-2.9-.1-1.2-3.1-1.3-3.4-2.7-.2-1.1 1.4-1.8 1.1-2.9-.3-1.2-2.5-1.3-2.5-1.8Z" class="st17"/><path d="M126.3 293.3c0 .2.2.6.5 1 .7 1 1.7 1.2 4.1 2.1 2.2.8 2.6 1.1 3.1 1.5s1.4 1.7 1 2.3c-.6 1-3.8-.3-4.7 1-.4.6-.1 1.5 0 1.7.4 1.2 1.8 1.5 3.4 2.5.5.2 4.5 2.6 4.2 4.4-.1.8-1.2 1.8-2.3 2-.5 0-.9 0-1 .2-.3.4 0 1.3.5 1.9.9 1.3 2 .9 2.5 1.9.6 1.2-.2 2.8-.2 2.8-.3.6-.6.7-.7 1.1-.2.7.1 1.5 1.4 2.7" style="stroke-linecap:round;stroke-linejoin:round;stroke:#543019;stroke-width:1.9px;fill:none"/><path d="M145.9 348.8c1.6 1 4.7 2.7 8.9 3 7.1.6 12.2-3.1 13.6-4.1-2-.9-5.7-2.2-10.4-2.1-5.7 0-10 2.1-12 3.3Z" class="st10"/><path d="M54.8 445v9.3H60c1.4 0 2.2-.2 2.7-.6.6-.6.9-1.5 1-2.8h.6v8.2h-.6c-.2-1.2-.3-1.9-.5-2.2-.2-.4-.6-.7-1-1-.5-.2-1.2-.4-2.2-.4h-5.2v7.7c0 1 0 1.7.1 1.9s.2.4.5.6.7.2 1.3.2h4c1.4 0 2.3-.1 2.9-.3s1.2-.6 1.7-1.1 1.5-1.8 2.2-3.3h.7l-2 5.9H48.1v-.6h.9c.6 0 1.1-.1 1.6-.4.4-.2.6-.5.7-.9s.2-1.1.2-2.3v-15.3c0-1.5-.1-2.4-.4-2.8-.4-.5-1.1-.7-2.1-.7h-.9v-.6h18.1l.2 5.2h-.7c-.2-1.2-.5-2.1-.8-2.6s-.7-.8-1.3-1c-.5-.2-1.3-.2-2.5-.2h-6.3zm30.6-1.9v8.2h-.6c-.2-1.5-.6-2.8-1.1-3.7-.6-.9-1.3-1.7-2.3-2.2-1-.6-2-.8-3.1-.8s-2.2.4-3 1.1-1.2 1.6-1.2 2.5.2 1.4.7 2c.7.9 2.4 2 5.1 3.5q3.3 1.8 4.5 2.7c1.2.9 1.4 1.4 1.8 2.2.4.9.7 1.8.7 2.7 0 1.8-.7 3.3-2.1 4.6s-3.2 2-5.3 2-1.4 0-1.9-.2c-.4 0-1.1-.2-2.2-.6s-1.8-.6-2.1-.6-.5 0-.7.2-.3.6-.4 1.1h-.6v-8h.6c.3 1.7.7 2.9 1.2 3.8s1.3 1.5 2.3 2.1 2.2.9 3.4.9 2.6-.4 3.4-1.2c.9-.7 1.2-1.7 1.2-2.7s-.2-1.2-.5-1.8-.8-1.2-1.5-1.7c-.4-.4-1.7-1.1-3.7-2.2s-3.4-2-4.3-2.7-1.5-1.4-2-2.2a6 6 0 0 1-.7-2.7c0-1.7.7-3.1 2-4.4s2.9-1.8 5-1.8 2.6.3 4 .9c.7.3 1.1.4 1.4.4s.6 0 .7-.2c.2-.2.4-.6.4-1.1h.6Zm24.1.6.2 5.5h-.7c-.1-1-.3-1.7-.5-2.1-.4-.7-.9-1.2-1.4-1.5-.6-.3-1.4-.5-2.3-.5h-3.3v18c0 1.5.2 2.3.5 2.7.4.5 1.1.7 2 .7h.8v.6h-10v-.6h.9q1.5 0 2.1-.9c.2-.4.4-1.2.4-2.5v-18h-2.8c-1.1 0-1.9 0-2.3.2-.6.2-1.1.6-1.5 1.3-.4.6-.7 1.5-.7 2.5h-.7l.3-5.5h19.2Zm14.5 15.6h-9.1l-1.6 3.7c-.4.9-.6 1.6-.6 2s.2.7.5.9c.4.2 1.1.4 2.2.6v.6H108v-.6c1-.2 1.6-.4 1.9-.7.6-.6 1.2-1.7 2-3.4l8.3-19.3h.6l8.2 19.6c.7 1.6 1.2 2.6 1.8 3.1s1.3.7 2.3.8v.6h-9.3v-.6c.9 0 1.6-.2 1.9-.5.3-.2.5-.6.5-1s-.2-1.3-.7-2.4l-1.4-3.4Zm-.5-1.3-4-9.5-4.1 9.5zm10.5 9.2v-.6h.9c1 0 1.7-.3 2.1-1 .2-.4.4-1.2.4-2.6v-15.2c0-1.5-.2-2.4-.5-2.8-.4-.5-1.1-.7-2-.7h-.9v-.6h9.6c3.5 0 6.2.4 8 1.2s3.3 2.1 4.4 4 1.7 4 1.7 6.4-1 6-3 8.2c-2.2 2.5-5.6 3.7-10.2 3.7h-10.4Zm6.7-1.7c1.5.3 2.7.5 3.7.5 2.7 0 4.9-.9 6.7-2.8s2.6-4.4 2.6-7.7-.9-5.8-2.6-7.7c-1.8-1.9-4.1-2.8-6.8-2.8s-2.2.2-3.6.5zm31.4-22.4c3.1 0 5.7 1.2 7.9 3.5s3.4 5.2 3.4 8.7-1.1 6.6-3.4 8.9-5 3.6-8.2 3.6-6-1.2-8.2-3.4q-3.3-3.45-3.3-9c0-5.55 1.3-6.8 3.8-9.1 2.2-2 4.8-3.1 7.9-3.1Zm-.4 1.3c-2.1 0-3.8.8-5.1 2.3-1.6 2-2.4 4.8-2.4 8.5s.8 6.8 2.5 8.8c1.3 1.6 2.9 2.3 5 2.3s4.1-.9 5.5-2.6 2.1-4.4 2.1-8.2-.8-7-2.4-9c-1.1-1.5-2.9-2.3-5.2-2.3Zm27.9 22.8v-.4h.6c.7 0 1.2-.2 1.5-.7.2-.2.2-.9.2-1.8v-10.7c0-1-.1-1.7-.4-2-.3-.4-.8-.6-1.4-.6h-.6v-.4h6.8c2.5 0 4.4.3 5.6.9s2.3 1.5 3.1 2.8q1.2 1.95 1.2 4.5c0 2.55-.7 4.2-2.1 5.8-1.6 1.7-4 2.6-7.2 2.6zm4.8-1.2c1 .2 1.9.4 2.6.4 1.9 0 3.5-.7 4.7-2s1.9-3.1 1.9-5.4-.6-4.1-1.9-5.5c-1.2-1.4-2.9-2-4.8-2s-1.6.1-2.5.4zm18.2-14.5v6.6h3.7c.9 0 1.6-.1 1.9-.4.4-.4.7-1 .7-2h.4v5.8h-.4c-.1-.8-.2-1.4-.4-1.5-.1-.3-.4-.5-.7-.7s-.9-.2-1.5-.2h-3.7v5.5c0 .7 0 1.2.1 1.4s.2.3.4.4.5.1.9.1h2.8c.9 0 1.6 0 2-.2.4-.1.9-.4 1.2-.8.5-.5 1-1.3 1.5-2.3h.5l-1.4 4.2h-12.8v-.4h.6c.4 0 .7-.1 1.1-.3q.3-.15.6-.6c.1-.2.1-.8.1-1.6v-10.8c0-1-.1-1.7-.3-2-.3-.3-.8-.5-1.5-.5h-.6v-.4h12.8l.2 3.6h-.5q-.3-1.35-.6-1.8c-.3-.45-.5-.6-.9-.7-.3-.1-.9-.2-1.7-.2h-4.6Zm37.4-7.8v8.2h-.6c-.2-1.5-.6-2.8-1.1-3.7s-1.3-1.7-2.3-2.2c-1-.6-2-.8-3.1-.8s-2.2.4-3 1.1-1.2 1.6-1.2 2.5.2 1.4.7 2c.7.9 2.4 2 5.1 3.5q3.3 1.8 4.5 2.7c1.2.9 1.4 1.4 1.8 2.2.4.9.7 1.8.7 2.7 0 1.8-.7 3.3-2.1 4.6s-3.2 2-5.3 2-1.4 0-1.9-.2c-.4 0-1.1-.2-2.2-.6q-1.65-.6-2.1-.6c-.45 0-.5 0-.7.2s-.3.6-.4 1.1h-.6v-8h.6c.3 1.7.7 2.9 1.2 3.8s1.3 1.5 2.3 2.1 2.2.9 3.4.9 2.6-.4 3.4-1.2c.9-.7 1.2-1.7 1.2-2.7s-.2-1.2-.5-1.8-.8-1.2-1.5-1.7c-.4-.4-1.7-1.1-3.7-2.2s-3.4-2-4.3-2.7-1.5-1.4-2-2.2a6 6 0 0 1-.7-2.7c0-1.7.7-3.1 2-4.4s2.9-1.8 5-1.8 2.6.3 4 .9c.7.3 1.1.4 1.4.4s.6 0 .7-.2c.2-.2.4-.6.4-1.1h.6Zm16.4 0c3.1 0 5.7 1.2 7.9 3.5s3.4 5.2 3.4 8.7-1.1 6.6-3.4 8.9-5 3.6-8.2 3.6-6-1.2-8.2-3.4q-3.3-3.45-3.3-9c0-5.55 1.3-6.8 3.8-9.1 2.2-2.1 4.8-3.1 7.9-3.1Zm-.3 1.2c-2.1 0-3.8.8-5.1 2.3-1.6 2-2.4 4.8-2.4 8.5s.8 6.8 2.5 8.8c1.3 1.6 2.9 2.3 5 2.3s4.1-.9 5.5-2.6 2.1-4.4 2.1-8.2-.8-7-2.4-9c-1.2-1.5-2.9-2.3-5.2-2.3Zm12.6-.7h6.4l14.4 17.7v-13.6c0-1.5-.2-2.3-.5-2.7-.4-.5-1.1-.7-2-.7h-.8v-.6h8.2v.6h-.9q-1.5 0-2.1.9c-.2.4-.4 1.2-.4 2.5v19.8h-.6l-15.5-19v14.5c0 1.5.2 2.3.5 2.7.4.5 1.1.7 2 .7h.9v.6h-8.2v-.6h.8q1.5 0 2.1-.9c.2-.4.4-1.2.4-2.5v-16.4c-.7-.8-1.2-1.4-1.5-1.6-.4-.2-.9-.5-1.5-.7-.3-.1-.9-.2-1.5-.2v-.6Zm39.1-.5c3.1 0 5.7 1.2 7.9 3.5s3.4 5.2 3.4 8.7-1.1 6.6-3.4 8.9-5 3.6-8.2 3.6-6-1.2-8.2-3.4q-3.3-3.45-3.3-9c0-5.55 1.3-6.8 3.8-9.1 2.2-2.1 4.8-3.1 7.9-3.1Zm-.3 1.2c-2.1 0-3.8.8-5.1 2.3-1.6 2-2.4 4.8-2.4 8.5s.8 6.8 2.5 8.8c1.3 1.6 2.9 2.3 5 2.3s4.1-.9 5.5-2.6 2.1-4.4 2.1-8.2-.8-7-2.4-9c-1.1-1.5-2.9-2.3-5.2-2.3Zm37 22.8h-6.3l-8-11h-2.5v6.8c0 1.5.2 2.4.5 2.8.4.5 1.1.7 2 .7h.9v.6H341v-.6h.9c1 0 1.7-.3 2.1-1 .2-.4.4-1.2.4-2.6v-15.2c0-1.5-.2-2.4-.5-2.8-.4-.5-1.1-.7-2-.7h-.9v-.6h8.6c2.5 0 4.4.2 5.5.6 1.2.4 2.2 1 3 2s1.2 2.1 1.2 3.5-.5 2.7-1.4 3.7-2.4 1.8-4.4 2.3l4.8 6.8c1.1 1.5 2.1 2.6 2.9 3.1s1.8.9 3.1 1v.6Zm-16.7-12.1h1c2.3 0 3.9-.5 5.1-1.5s1.7-2.2 1.7-3.7-.4-2.6-1.4-3.6-2.1-1.4-3.7-1.4-1.6.1-2.7.3v9.8Z" class="st14"/><path d="M380.4 459.8h-9.1l-1.6 3.7c-.4.9-.6 1.6-.6 2s.2.7.5.9c.4.2 1.1.4 2.2.6v.6h-7.4v-.6c1-.2 1.6-.4 1.9-.7.6-.6 1.2-1.7 2-3.4l8.3-19.3h.6l8.2 19.6c.7 1.6 1.2 2.6 1.8 3.1s1.3.7 2.3.8v.6h-9.3v-.6c.9 0 1.6-.2 1.9-.5.3-.2.5-.6.5-1s-.2-1.3-.7-2.4l-1.4-3.4Zm-.5-1.3-4-9.5-4.1 9.5z" class="st14"/><path d="M388.3 250.9v138c0 23.4-21.1 42.7-46.9 42.7H235.2c-6.3 0-14.2.8-17.4 5V251h170.5Z" style="fill-rule:evenodd;fill:#0093d0"/><path d="M228.4 250.5c-.2.6-.4 1.4-.1 2.3.4 1.8 1.8 1.8 2.1 3.3.4 1.8-1.7 2.6-1.8 5.7 0 .8 0 1.5.4 2.1 1 1.3 2.9.4 4.7 1 2.6.9 2.5 4.5 4.7 9.8.4.9 2.3 5.5 6 9.8 3.6 4.2 6 4.7 7.9 9 .8 1.7 1.5 3.5 1 5.5s-2.1 2.7-2.5 5.2c-.1.8-.2 1.7.2 2.5.9 1.7 3.2 2 4.2 2.1 2.8.4 3.7-.6 5.3.2 1.2.6 1.7 1.6 2.3 2.8 4.2 8.4 6.2 12.6 4.8 13.7-.2.2-.7.3-.9.8-.3.7.3 1.4.7 2.4.8 1.9-.2 2.6.4 5.9.2 1.2.5 1.7.9 2 .7.4 1.3 0 2.1.2 1.4.4 1.7 2.2 2.8 4 .7 1.1 1.8 2.5 4.1 3.8 5.5 6 11 12.3 16.7 19.1 3.4 4.2 6.8 8.3 9.9 12.4 0 .7.3 1.6 1 2.3.9.9 1.7.4 3.7 1 2.7.7 2.6 2 5.1 2.3 1 .1 1.8 0 2.1.5.2.5-.6.9-.7 1.7-.3 1.5 1.8 2.2 3.2 5.1 1 2 .5 2.8 1.6 3.7 1 .9 1.9.7 2.5 1.6.5.9-.2 1.5.3 2.5.5 1.1 1.4.9 2.1 2 .5.8.2 1 .7 2.9.5 2 1.2 2.9 1.5 3.3.9 1.1 1.5 1.2 1.6 1.2.7.1 1-.2 1.5-.1 1 .2.7 2.1 1.9 3.6.9 1.1 1.4.7 3.9 2.3s2.5 2.4 3.7 2.5c1.5.1 1.8-1 4.2-1.4 1.2-.2 2.6-.4 3.5.4 1.2 1 .1 2.8 1.4 4.4 1 1.3 2.8 1.9 4.3 1.5 1.2-.4 2.2-1.5 2-2.1-.2-.7-1.8-.5-1.9-1-.1-.7 2.5-1.4 2.6-2.8 0-.7-.5-1.3-.3-1.5s.7 0 1 .3c.3.9.7 1.6 1.1 2.3 4.3 6.8 13 7.5 15.1 7.4 2.7-2.6 5.9-6.3 8.7-11.3 5.6-10 6.3-19.6 6.2-24.8V251c-26.6 0-53.3 0-79.9-.1-26.6 0-53.3-.1-79.9-.2Z" class="st3"/><path d="M259.1 317.1c-.5-.2-.7.2-3.7 1.2-2 .7-2.9 1-4.1 1.4-1.4.3-1.8.2-2.5.7-.9.7-1 1.8-1.2 2.9-1.4 8.3-1.1 9.5-.7 10.5.4.8.6 1 .7 1.8.3 2.4-1.7 4.4-2.2 4.8-1.4 1.4-3 2-4 2.1 1.4 1.9 2.5 2.4 3.4 2.5.7 0 1.4-.2 2 .2.8.5.6 1.3 1.2 2 .8 1 1.8.5 3.8 1 2.3.7 2.4 1.7 5.4 2.6 2.2.7 2.7.3 2.9.1.5-.5.2-1.3.2-2.5 0-1.8.7-2.6 1.5-4.4.3-.8.3-1 1.6-8.4.8-4.7.9-4.9.7-5.5-.6-3.2-2.9-3.1-4.1-6.6-1.2-3.4.2-6-1-6.6h0Zm-16.5 37.7c-.1-.2-.7-1-1.5-1s-2 1.2-2.2 2.2c-.2.9-.2 2.4.9 3.1.8.4 1.8.2 2.5-.2 1.2-.9 1.2-2.9.4-4.1Z" class="st3"/><path d="M297.1 334.5c-9 4.1-16.1 8.7-21.2 12.5-8.2 6.1-15.8 13.5-19.3 18.4-.4.5-16.1 19.4-15.8 23.6 0 .6.2 2.8 1.8 4.4 2 2 5.8 1.4 13.3.3 5.4-.8 8.1-1.2 10.3-2.6.7-.5 2-1.5 4-2.1 2-.7 3.4-.6 4.6-.7 2.3-.2 4.3-1 8.2-2.6 10.3-4.4 15.4-6.6 16.8-7.3 13.4-6.8 25-15.6 29.5-19 2.3 0 7.2 0 12.6-2.8 4.6-2.4 7.4-5.6 8.8-7.4l-6.6.3c1.9-1.4 13.9-10.4 17.1-21.5.7-2.3 1.7-7.2 2-12.8 0-.9.2-3.4 0-6.6-.2-5-.4-7.6-1.5-9.9-2-4-4.1-2.7-6.2-6.9-1.7-3.3-1.6-6.6-4.1-7.7-.7-.3-1.2-.2-1.4-.2-.4 0-1.8.5-2.8 4.8-1 4.2-2.5 10.8 1.7 17.1 2.3 3.5 5.5 5.3 7.4 6.3-2.9.6-4.6 1.8-5.6 2.7-2.6 2.4-2.4 4.9-5.3 7.8 0 0-1.4 1.4-4.1 2.8-7.8 4.1-22.5 1.8-23.6 1.6l-1.2-13.4c-2 .6-4.3 1.4-6.6 2.8-9.1 5.5-12 15.2-12.8 18.5Z" style="fill-rule:evenodd;stroke:#000;stroke-miterlimit:10;stroke-width:2px;fill:#58585a"/><path d="M266.4 371.3c.5.6 5.6-3.9 14.5-9.3 8.3-5 9.5-4.5 18.7-9.8 8.5-4.9 17.1-10.9 16.7-11.6 0-.1-.7-.1-7.7 3.1-8.7 3.9-17.3 8.3-27.5 14.4-2 1.2-5.3 3.3-9 6.6-2.8 2.5-6.1 6.1-5.7 6.6m94.4-51.8a239 239 0 0 1-35 25.8c-19.1 11.4-51.6 26.9-57.9 30 0 0-25.2 12-23.9 15.2 0 0 .1.2.3.5s1.2 1.4 3.8 1.4c10.6.2 18.6-4.7 18.6-4.8 1.6-1 3.7-2.5 6.1-4.7.5.6 1.3 1.4 2.5 1.7 2.1.6 4-.7 7.4-2.4 3.3-1.5 4.2-1.6 6.6-2.6 4.8-2.1 18.2-9.5 35.5-20.6-2.3.7-5.2 1.4-8.7 1.6-3.2.2-6 0-8.2-.3a226 226 0 0 0 47.7-33.4c-5 5.6-9.3 9.9-12.5 12.9-3.3 3.1-7.3 6.6-6.4 8.2.3.6 1.2.7 1.8.8 3.3-2.2 5.8-4.2 7.6-5.6 7.2-6.1 15.1-12.8 15.1-21.4-.1-.9-.2-1.7-.3-2.1Zm-85 58.7c-.5 0-1-.4-1.1-.9 0-.6.7-1.2 1.4-1.1.6 0 1.1.6 1 1.1 0 .6-.7 1-1.3.9m74.7-90.5c-.9 1.5-2.6 5.1-2.1 9.7 1.2 9.1 10.5 13 10.9 13.1.4-1.9.6-4.1.5-6.5 0-.6 0-1.2-.1-1.8-.4.4-1 1-1.4 2-.6 1.5-.3 2.8-.2 3.4-1.4-.5-2.4-1.1-3.3-1.7-6.8-5.3-4.6-17.2-4.4-18.2Zm-39.6 30.1c.2.1-1.1 1.5-4.6 6.9-4.4 6.7-5.5 9.4-4.4 11 .1.2.2.2.2.3 1.8 1.3 6.6-5.8 13.2-5.6h1.1c-2.3 1.3-4.1 2.3-5.2 3.1 0 0-8.4 5.3-10.3 4.7-.8-.2-1.2-.7-1.2-.7-1.6-2.1 2.8-9.2 2.8-9.2 3.4-5.8 8.2-10.7 8.5-10.4Z" class="st4"/><path d="M189.6 204.8c.4-.3 2.7.4 4 1.4.4.3.7.7.9.9.3-.3 1.6-1.6 4.4-2.1.4 0 2.6-.5 2.9-.1.6.6-3.1 3.8-7.4 3.2-3.5-.4-5.3-3.1-4.7-3.4Zm26.1-2.1c.4-.2 2.7.4 4 1.4q.6.45.9.9c.3-.3 1.6-1.5 4.4-2 .3 0 2.6-.4 2.9 0 .5.5-3.7 3.4-7.8 2.8-3.2-.4-4.9-2.7-4.3-3Z" style="fill-rule:evenodd;fill:#fff;stroke:#000;stroke-miterlimit:10"/></svg>