<svg xmlns="http://www.w3.org/2000/svg" width="350" height="455.81"><path d="M-414.6 282.33h-1.77v11.52a21.5 21.5 0 0 0-11.13 18.68v90.15c0 7.77 6.25 14.09 13.93 14.09h547.14c7.68 0 13.93-6.32 13.93-14.09l-.08-86.96.08-3.19a21.5 21.5 0 0 0-11.14-18.68v-11.52h-4.96c-5.66 0-10.26 4.6-10.26 10.26v18.83l-522.28-.07v-18.76c0-5.66-4.6-10.26-10.26-10.26z" style="fill:#006250;fill-opacity:1;fill-rule:nonzero;stroke:none" transform="translate(260.22 202.12)scale(.6087)"/><path d="m142.46 316.38-565-.08v86.38a9.07 9.07 0 0 0 8.97 9.13h547.14c4.93 0 8.97-4.1 8.97-9.13z" style="fill:#eabe38;fill-opacity:1;fill-rule:nonzero;stroke:none" transform="translate(260.22 202.12)scale(.6087)"/><path d="M-366.48 331.29v1.56q-7.43-.16-7.43 2.77 0 1.41 1.76 3.48l15.6 18.76 15.27-19.05q1.56-1.9 1.56-3.15 0-1.8-2.43-2.4-1.5-.36-4.96-.41v-1.56h23.29v1.56q-3.24.13-5.8 1.54-4 2.25-8.9 8.18l-15.77 19.2v16.53q0 4.94 2.38 6.35 1.81 1.03 8.55 1.33v1.56h-32.34v-1.56q7.02-.33 8.82-1.75 1.8-1.4 1.8-6.92v-14.76l-13.92-16.3q-6.54-7.65-7.1-8.24-5.14-4.95-10.07-5.16v-1.56zm75.14 0v1.56q-6.08.33-7.85 1.58-2 1.41-2 6.08v27.26q0 6.74 2.3 10.44 4.2 6.83 16.15 6.83 13.03 0 17.5-7 2.5-3.9 2.5-12.06v-22.19q0-5.98-1.39-7.9-1.89-2.5-8.46-3.04v-1.56h24.38v1.56q-6.62.58-8.46 3.08-1.39 1.82-1.39 7.85v22.15q0 8.81-3.37 13.76-6.24 9.1-23.68 9.1-17.25 0-23.48-8.98-3.37-4.86-3.37-12.72v-26.6q0-4.6-1.9-6.02-1.7-1.25-7.63-1.62v-1.56zm83.23-.94q4.1 0 10.71 1.35t7.92 1.34q3.73 0 4.72-2.69h2.23l.98 19.06-2.44-.01q-5.86-15.77-23.13-15.77-12.72 0-19.57 8.5-5.76 7.22-5.75 17.97 0 10.38 6.53 17.3 7.22 7.64 19.77 7.64a37 37 0 0 0 15.2-3.14q4.05-1.81 8.77-5.36l1.97 1.58a33 33 0 0 1-8.77 6.26 42 42 0 0 1-19.35 4.56q-17.12 0-27.18-8.75-9.3-8.08-9.29-20.2 0-12.89 10.27-21.26t26.41-8.38m77.42 35.31-12.25-23.25-12.08 23.25zm-45.76 21.88v-1.56q5.09-.45 8.62-5.4.1-.15 4.56-8.57l22.15-41.66h2.08l26.46 48.14q2.28 4.14 3.33 5.13 1.98 1.9 6.24 2.36v1.56h-27.03v-1.56a42 42 0 0 0 4.8-.46q2.55-.58 2.54-2.7 0-1.87-1.94-5.5l-4.52-8.22h-27.74q-5.75 11.59-5.75 13.13 0 2.17 2.2 3 1.29.5 5.1.75v1.56zm76.08-56.25h60.03l.57 14.37h-2.55q-1.94-6.84-4.98-8.81t-11.97-1.97h-5.94v43.43q0 4.85 2.18 6.21 1.71 1.08 8.13 1.46v1.56h-30.78v-1.56q6.65-.42 8.33-1.85t1.67-6.81v-42.44h-5.91q-8.72 0-11.96 2.05-3.23 2.05-4.85 8.73h-2.59zM8.4 365.66l-12.25-23.25-12.08 23.25zm-45.75 21.88v-1.56q5.08-.45 8.6-5.4.12-.15 4.57-8.57l22.16-41.66H.04l26.46 48.14q2.29 4.14 3.33 5.13 1.98 1.9 6.24 2.36v1.56H9.04v-1.56a42 42 0 0 0 4.81-.46q2.53-.58 2.53-2.7 0-1.86-1.94-5.5l-4.51-8.22h-27.75q-5.74 11.59-5.74 13.13 0 2.17 2.18 3 1.3.5 5.11.75v1.56zM37.78 386q7-.58 8.86-2.95 1.45-1.83 1.45-8.01v-37.5l-1.38-1.4a12 12 0 0 0-3.84-2.6q-1.65-.6-5.09-.69v-1.56h18.21l40.85 40.93V343.8q0-7.02-2.59-9.14-1.71-1.36-7.56-1.79v-1.57h25v1.57q-6.72.55-8.65 3.07-1.5 1.92-1.51 7.84v44.7l-1.74-.01-47.01-46.67V375q0 7 2.51 9.11 1.65 1.38 7.33 1.88v1.54H37.78z" style="fill:#006250;fill-opacity:1;fill-rule:nonzero;stroke:none" transform="translate(260.22 202.12)scale(.6087)"/><path d="M-416.26-330.27V43.48c0 82.03 46.6 140.89 74.4 168.67 25.38 25.16 55.32 46.36 86.6 61.33 36.2 17.33 73.81 26.44 111.76 27.06h6.6c77.44 0 143.6-27.33 202.3-83.55 27.95-26.45 74.85-84.34 74.85-174.82l.44-373.77-556.95-.44z" style="fill:#006250;fill-opacity:1;fill-rule:evenodd;stroke:none" transform="translate(260.22 202.12)scale(.6087)"/><path d="M-410.56 43.48v-369.82l545.55.44-.44 368.07c0 91.36-48.96 147.75-73 170.92-51.15 48.95-114.53 81.74-198.46 81.74h-6.56c-79.12-1.3-147.75-40.65-194.08-86.55-28.85-28.41-73-87-73-164.8" style="fill:#eabe38;fill-opacity:1;fill-rule:evenodd;stroke:none" transform="translate(260.22 202.12)scale(.6087)"/><path d="M-312.64 43.48c0 41.1 24.05 75.63 43.72 95.3 33.22 33.21 79.55 57.7 127.64 58.57 56.83.87 97.92-19.24 135.07-55.08a135.6 135.6 0 0 0 42.84-100.1l.44-270.15-350.15-.44z" style="fill:#006250;fill-opacity:1;fill-rule:evenodd;stroke:none" transform="translate(260.22 202.12)scale(.6087)"/><path d="M-170.57-173.78c-2.19 3.5-5.68 6.12-8.74 9.62-1.31 1.75-2.62 3.5-2.62 5.68 7.43 8.74 15.3 17.93 20.98 28.42.43 1.3 1.3 2.18 1.75 3.5l1.3 3.93c4.82 10.05 14.43 17.05 23.61 24.04l42.84 23.17c4.8 2.18 10.06 2.62 14.86 4.8q2.63.66 5.25 2.63c3.5 3.06 7 6.56 9.61 10.49 3.5 4.8 4.38 10.5 4.38 16.17l-1.31 17.93c-.44 2.62.87 4.8 2.62 6.55 2.19 2.63 6.12 3.06 9.18 4.81 4.37 2.2 6.56 7.43 7.43 12.25.87.43 1.31.43 1.75.87a34 34 0 0 0 3.06 6.99c1.31 2.19 3.06 3.5 3.93 5.25a21.5 21.5 0 0 1 3.06 8.3c0 2.19 1.75 3.06 2.19 4.81l-.44 4.8c0 .89-1.3 1.32-1.75.45-2.18-3.5-3.5-7.87-4.8-11.8-5.26-10.94-13.13-21-22.75-28-6.56-4.8-13.54-8.3-20.98-11.8-2.62-2.18-4.37-5.24-5.68-8.3-3.94-7-7-14.43-10.93-21.42l-3.06-3.06h-2.62c0 .87.87.87 1.3 1.75v.44c-3.48 1.74-7.42.87-11.36.43-16.61-1.75-33.22-5.68-48.08-13.55-2.62-.87-5.25-2.18-6.56-4.8a7.4 7.4 0 0 1 1.75-6.13c0-.87-.87-.87-1.75-1.3-2.18-1.32-5.24-.88-7.43-.88l-15.3 10.93c-.87.87-2.18 1.74-3.06 2.62 0 .87-.44 1.31-.44 1.75 2.19 7.87 7.87 14.42 14.43 19.67 1.31.87 3.06 1.74 3.93 3.06.44.43.44.87.44 1.31-.44.87-1.75.43-2.19 0l-1.3.87c-2.2 0-4.38-.87-6.13-2.18l-15.3-19.24-1.74-3.5c3.5-8.3 8.74-15.73 14.86-23.16.87.44 1.75 0 2.18-.87.44-2.2-2.18-2.63-3.05-3.94-.44-.88-.44-1.75-.44-3.06a15 15 0 0 0-2.63-5.25c-.43-1.3-.43-2.62-.43-3.5l.43-18.35c-.43-1.31.44-2.62.44-3.94.44-2.18-.44-6.12-1.31-8.74-.44-2.62-4.81 2.62-11.8-2.18-1.31-.44-1.75.43-3.5.43q-5.25.66-10.49 0c-2.19 0-4.81-.87-5.68-2.62-.44-1.31 0-2.19.43-3.5 1.75-3.06 5.69-4.37 8.75-5.68 3.05-2.19 4.8-2.62 9.18-6.12 1.74-1.75 3.93-4.37 6.99-6.12 1.3-.44 1.75-.87 3.06-.87.44.43.44.87 1.31.87s.88-.87 1.75-1.31 1.31-1.31 1.75-2.19 1.31-1.3 2.19-2.62c4.36-5.25 6.11-12.24 6.55-19.67h.44c.43 0 .43 2.18 1.75 5.24 0 .44.43 1.32 1.3 1.75 1.76.44 2.2-2.18 3.07-3.93l3.5-12.68v7c0 3.93-2.19 9.61-3.94 12.67m-24.92 326.1-7 .88c-1.3 0-1.3-3.5-.86-3.94 1.3-.43 3.06-.43 3.5-1.3.87-1.76 2.62-.88 4.36-1.32l9.18-5.24c.88-.88 2.19-.44 3.5 0 1.31 0 2.19 0 2.62.87 2.19 1.75 5.25 2.63 7.87 3.06.88 2.63 5.25 2.19 7.87 1.31l7.87.44c.87 0 .87.88 1.31 1.31.44 0 .88-.43 1.75 0 2.18 0 3.06 2.63 4.8 3.5a16 16 0 0 0 7 3.06l.44.44 4.8.43c.88 0 .45 1.32 1.32 1.75.43.44 1.75 0 2.62.44.87 0 1.75.87 1.75 1.75 0 .44.44 1.3.88 1.75h1.74c.44 3.05 2.63 4.8 4.81 6.11l2.63 1.31c.87.44 1.74-.43 2.62.44 1.74 1.75 1.74 4.38 2.61 6.56l3.5 1.31c0 1.31-.43 3.06-1.74 2.63l-1.76-1.76c-.87-.43-.87-1.3-1.74-1.74-1.31-.88-3.06.44-3.93-.88-.44 0-.44-.44-.44-.87l-3.5-1.31-.43-.88c-1.75-1.75-4.37-2.18-6.56-1.75a5 5 0 0 1-5.25 1.75c-1.74-.44-1.3-2.18-2.18-3.06-3.5-.87-7.87.88-8.75-2.18-2.18-1.32-3.06-3.94-4.37-6.12l-3.93-.44c-.44 0-.44-.43-.44-.43-.44-.44-1.3-.44-1.75-.88a9 9 0 0 0-2.62-1.75l-5.68-.43c-.88 0-.88-.88-1.75-1.75-2.19.43-4.8 0-7.43-.44v-1.31c-2.63.44-5.25.44-7.87-.44z" style="fill:#eabe38;fill-opacity:1;fill-rule:evenodd;stroke:none" transform="translate(260.22 202.12)scale(.6087)"/><path d="M-164.88-311.48h-9.19v8.75H-164l-16.18 20.1-.43 50.72h86.99v-51.15l-18.8-19.67h8.75v-8.3h-8.75l5.68-10.06H-171zm1.3 521.5h-9.18v8.32h10.06l-16.18 20.1v50.71h86.56v-51.14l-18.8-19.67h9.18v-8.31h-9.18l5.68-10.06-64.25.44zM81.66-90.27h2.62v2.62h-3.93v5.25h-4.37l-2.63 4.8h-3.5v-1.74H63.3v32.78h-4.8v-1.75h-2.2v-1.31h-2.18v1.31h-2.2v1.75H46.7v42.84h79.11v-42.84h-5.24v-1.75h-2.18v-1.31h-2.63v1.31h-2.18v1.75h-4.81v-32.78h-7v1.74h-3.93l-3.06-4.8h-4.8v-5.25h-3.94v-2.63h2.63v-1.3h-2.63v-2.63h-1.75v2.62h-2.62zm-448.5 0h2.62v2.62h-3.5v5.25h-4.37l-3.06 4.8h-3.5v-1.74h-6.12v32.78H-390v-1.75h-2.19v-1.31h-2.18v1.31h-2.19v1.75h-5.24v42.84h79.12v-42.84h-5.25v-1.75h-2.18v-1.31h-2.62v1.31h-1.75v1.75h-5.25v-32.78h-7v1.74h-3.93l-3.06-4.8h-4.8v-5.25h-3.94v-2.63h2.62v-1.3h-2.62v-2.63h-1.75v2.62h-2.62z" style="fill:#006250;fill-opacity:1;fill-rule:evenodd;stroke:none" transform="translate(260.22 202.12)scale(.6087)"/><path d="m-155.27 106-67.32-39.8 73.44 34.1c5.68 2.63 2.19 4.82.44 6.56-2.19 2.2-4.81.44-6.56-.87m12.68-1.32 69.94-77.81-62.51 84.36c-2.19 3.06-5.68 2.62-8.3 1.32-2.2-1.76-.88-6.13.87-7.87m-66.45-57.27 68.63 45.03c1.32 1.3-2.18 7-4.37 5.68l-16.17-7.86zM-75.27 165c-1.32 0-12.25 1.3-13.56.43l-4.8-1.3c-.44-.45-.44-.89-.44-1.32l-7.43.43-3.5 5.25-6.56.43c-.87 0-1.3-.87-1.75-1.74l-2.19-2.19c-1.74 0-3.05.44-4.36 0-1.31 0-2.62 0-3.5-.87-.43-.44-.43-1.31 0-2.2l3.06-.42c.87 0 .44-1.31 1.31-1.75s2.2-.44 3.06-.88c.87-.87 1.75-2.18 2.62-3.06 3.94-2.62 7.87-5.24 11.37-8.74l3.5-.88c4.8.88 10.05.88 14.86.44l.87-1.74h9.18c.44 0 0 .43.44.43l3.94 1.75c1.3 0 2.18 1.31 3.06 2.18.44.88 1.3.88 1.74.88.88 2.62 1.32 5.25 3.5 7l-2.62 5.24-7.87.87c-.43 0-.43.44-.43.88-.88.87-2.63 0-3.5.87m-78.69 10.48 11.8.44c.44 0 .44.44.44.44 1.31 1.74 3.94.44 6.12.44 1.75 0 3.93.43 6.12 0 .88 0 .88 1.74 1.75 2.18 3.94.88 8.3-.44 11.36 1.75v1.75q1.97 0 3.94 1.3l-2.19 7.44c-6.11.87-12.23 1.31-18.8.87-.43.88-1.3.44-2.18.44a26 26 0 0 0-8.3 0l-14.87-1.75c-.87 0-1.75-.43-2.18 0l-14-3.5c0-1.3.88-2.18 2.2-2.18.87-.44 2.18.44 3.06 0 .87 0 1.3-.87 1.74-1.31 2.19-1.31 3.94-2.62 5.25-4.37h4.37c.44-2.19 2.62-2.62 4.37-3.94M-121.6 99c1.75-2.18.88-1.31 3.5-2.61l51.14-21-56.39 32.35c-1.31.88-5.24.88-3.5-1.3zm-62.95 56.83c2.19 0 4.37.44 6.12.88l8.3 4.8 3.5.44.44.88 3.94 1.31c.87.43.87 1.3 1.3 1.74 1.32.44 2.63.44 3.5 0 0 1.32 1.32 1.75 2.2 2.2.43.43.87 1.74.43 2.61l-7 .44-3.93 2.63-.87 2.18-6.56.88q.64 1.3 0 2.62c-.44 1.3-1.75 1.75-2.63 2.62h-4.37c.44 1.75-.43 3.94-2.18 4.38l-3.5-.88-20.55-9.18-3.93-2.19 1.75-3.93c.44-.88 3.93-4.81 4.8-6.56l3.5-1.75c.44 0 .44-.43.44-.87.44-.87 1.75-1.75 1.75-2.62.44-.44-.44-1.31 0-2.2l1.75-.43zm-13.99-135.07 48.96 49.83c2.19 2.62 3.94 5.69 3.06 8.74-.43 1.31-.87 2.62-2.18 3.5-2.19.88-3.94-1.75-5.68-3.06zm191.9-203.7-4.8-5.25a29.4 29.4 0 0 1-5.68-25.36c1.3-3.5 3.06-6.55 4.8-9.62l44.15-.43v35.84c0 4.38-3.93 7.87-8.3 9.62-10.06 3.94-22.3 2.19-30.16-4.8m-60.33 236.9L-116.37 92l16.62-20.98zm-18.8 114.96c3.06.88 15.74-3.5 17.93 1.32.87 1.31 2.19 1.74 2.19 3.06.43.87.43 2.18 1.74 2.18l-5.68 3.06-28.41 9.62-9.18 1.75c-.88 0-1.76-.43-2.19-1.75 0-.44.43-.87.87-1.31.44-1.75.44-3.5 1.32-5.25.43-2.62 1.74-5.24 3.5-7.86-.44-1.32.86-2.63 2.18-3.94l4.8-.44c.88 0 .88-.87 1.32-1.3.44-.45 1.31 0 1.75.43 1.75 2.18 5.24 1.31 7.86.43m-57.7-86.55 7.87-95.73 5.25 79.12 29.29-55.95h.44l-18.8 59.45c-.88 1.75-1.75 3.93-3.5 6.12l-12.24 12.67c-2.62 2.2-8.74-1.3-8.3-5.68m-65.13 79.13c-1.31.87-5.68 9.17-6.56 10.05a125 125 0 0 1-29.28-17.92c.87-.88 1.3-1.75 2.18-2.2l6.12-.42c1.31 0 1.75-.88 2.19-1.76 1.3.44 2.18 0 3.06-.43a9 9 0 0 1 4.37-2.63l.43-.43c2.19-.44 4.37-.87 6.12 0 2.19.87 3.5 3.93 6.13 3.06 2.18-.87 4.8-3.06 6.55-.87.87.87-.44 2.18.44 3.49 2.62 5.25 4.8 6.12-1.75 10.06m55.08 92.67h7l9.17-25.36h3.06l9.62 25.36h7v27.98h-35.85zm-1.31-521.5h6.99l9.18-25.36h3.06l9.62 25.36h7v28.4h-35.85zM-61.3-214l.88-.44c.43-.44.87-1.31 1.75-1.31h7c1.3-.44 3.05.87 3.48 1.75.44.43.88.43 1.32.43 3.94-.43 7.43.88 10.5-.87a9.6 9.6 0 0 1 6.11-.87c.88-.44 1.75-.44 2.62.43 1.31 4.37 0 9.62-4.37 10.93l-3.93-.44-.43.44c-3.07.88-6.56 0-8.75-2.18-2.19-1.75-3.5-3.94-6.12-5.25-3.5-1.75-7.87-.88-10.93.87 0-.43-.43-.87-.87-1.31-.44-.87.44-1.75 1.74-2.18m23.6 195.83-1.3-.43c-3.06-1.31-5.25-3.06-8.75-4.37-.44-.44-.87-1.32-1.3-2.2-.88-3.49-1.76-6.55-2.2-10.04.88 0 1.32.87 2.2 1.3 2.62 1.76 6.12 1.32 8.74 2.63 4.37 5.25 7 11.8 10.5 17.92C-25.89-7.23-20.2-2.42-18 4.57c0 1.32 0 2.19-.45 3.5 0 1.31-.87 3.06-2.18 2.63-.88-4.81-3.5-8.75-6.12-13.12zm-183.59-43.27 2.19-11.37c.44-.88.44-2.18.87-3.5v-18.35l14.87-3.94 6.55-3.5c.44 0 .88 0 1.31.44s.88-.44 1.32-.44c3.5.88 5.24 4.81 4.37 7.87-.44 2.19-3.06 3.93-5.69 4.8-1.74.88-4.37.45-6.55.88-.88 0-1.31.44-2.19.44-1.31 0-2.19-1.31-3.06-.87-.87 0-1.75 0-2.62.87a16 16 0 0 0-3.06 7.43v11.37c0 1.31-.44 2.18-.87 3.06-.44.44-1.32.87-1.75 1.75-.44.87.43 1.3.43 2.18 0 1.75-.43 3.5-.43 5.25a9 9 0 0 1-1.32 4.8c-1.3.44-2.62.44-3.5-.43-2.18-2.19-1.3-5.68-.87-8.74m76.5 114.96-.87 11.37c0 .87-1.31 1.3-2.19.87a31 31 0 0 1-5.24-7.86l-23.17-62.08 29.72 52.9c.44 1.74 1.75 3.05 1.75 4.8m86.55 105.35 2.63-4.36 8.3-8.32a15.6 15.6 0 0 1 7 4.82l1.3 1.3c.44.44 1.32.44 2.2.44h4.8l.44 1.32c-7 8.3-16.62 13.54-26.23 17.91-.87.88-1.75 1.32-3.06 2.2-.44-.44-.44-.88-.44-1.32 1.31-3.5 2.2-7 2.2-10.5.43-.86.43-2.17.86-3.49m32.35-327.85 2.2-6.12c1.3-3.5 6.98-2.62 8.73.88l-1.75 1.75-6.12 10.05c-1.3 1.75-3.5 2.62-5.68 3.06-3.06.87-6.12 1.75-8.74 3.06-1.32.87-2.19 1.31-3.5 2.19-1.31-1.32-.88-3.94.44-5.25 1.3-.88 2.18-2.63 3.5-3.06 1.74-.88 3.93 0 5.24-.88a12 12 0 0 0 5.68-5.68M-121.6 142.7l7.43 1.76c2.18.87 3.5 2.62 5.24 2.18l.88 1.32c-.88.43-1.31 1.74-2.18 2.62-.88.87-2.2 0-3.5.87l-1.32 2.19-7.42 4.37c-.44 0-3.94-1.75-4.37-2.19l-4.82-2.62c0 .88 0 1.32-.43 1.75l-2.63-.43-.43-.88zm75.63-326.53 7.42-2.62c.88-.44.88-1.75 1.76-2.63.87-1.3 1.74-2.62 3.06-3.5l8.3-2.18 1.75 7.87c-1.31.87-2.63 1.31-3.94 1.75-.87 0-1.74-.44-2.62 0-2.19 1.31-3.5 3.06-5.24 4.8-3.94.44-7.43-1.3-10.5-3.49m-119.78 18.8 3.93-.44c1.31 0 3.06.43 4.37.87l-10.49 7c-1.74.43-3.93 0-5.68-.88v.88h-1.75c0-.88.44-1.31.88-1.31a68 68 0 0 0 5.68-5.25 8 8 0 0 1 3.06-.88m-37.6-32.79 3.5 4.37a49 49 0 0 1 5.69 11.8c2.18 5.69 3.93 11.37 3.05 17.05a4.5 4.5 0 0 1-2.62 2.19c-1.31-7.87-7-15.3-13.11-20.98v-1.31l5.24 3.93c.88.87 3.06.44 3.06-.88.44-.43 0-1.74-.43-2.18zM-369.9-48.32v-13.99h14.86v13.99zm448.5 0v-13.99h14.86v13.99zm-292.44-119.34 1.74-.44c5.25.44 9.62 3.06 12.68 7a5 5 0 0 1-5.25 2.62c-1.3.44-3.06 0-4.37 0l-.43-.43a24 24 0 0 1-4.37-8.75" style="fill:#eabe38;fill-opacity:1;fill-rule:evenodd;stroke:none" transform="translate(260.22 202.12)scale(.6087)"/><path d="M-198.98-147.55c1.75 1.75 3.93 2.19 6.12 2.19a5.1 5.1 0 0 0 4.37-.88c1.75-.87 3.5-3.06 3.06-4.8-1.75-1.32-3.5-.88-5.69-.88-3.5 0-8.74 3.5-7.86 4.37" style="fill:#006250;fill-opacity:1;fill-rule:evenodd;stroke:none" transform="translate(260.22 202.12)scale(.6087)"/><path d="M-351.98-13.35v-16.61h12.68v16.61zm-33.22 0v-16.61h12.67v16.61zm481.72 0v-16.61h12.68v16.61zm-33.22 0v-16.61h12.24v16.61zm-192.78 156.93-1.75 1.75c0 .44-2.62.87-3.93.44-1.75 0-3.93.43-5.68 0l1.3-2.19zM18.71-164.16l-.87 1.31c-.44 3.5.44 7 1.3 10.93.88 2.62 2.63 5.68 1.76 8.74-1.75 4.37-5.68 7.43-7.44 11.8-.44 1.75-1.3-.87-1.74-2.18-.44-4.37 4.8-8.3 3.93-13.11-.43-1.75-1.75-3.5-2.63-5.25-.43-1.31-.87-2.18-1.3-3.5-.44-1.75-1.76-3.93-1.76-5.68v-2.62h6.56c.88 0 1.76-1.32 2.63-1.32 0 .44-.44.88-.44.88m-27.1 13.11-.88-6.99c-.43-2.62-.43-5.25.88-7.43.88-1.75 2.62-3.06 4.37-2.63l4.8 2.63-2.62 3.93c-.44 4.37-1.31 9.18-3.05 13.12-.88 1.75-2.62 3.5-4.38 3.5 0-2.2.88-3.94.88-6.13m-144.7 269.28.44-.44c.44-.44.44-.87.44-.87l.87-1.31 8.75.43v2.63l-3.5.87c-.44.44-.44.87-.87.87l-2.19.44c-.87 0-2.62 0-3.5-.44zm7.87 12.24h8.75l.44 2.62-.44.88-9.18-.44c-.44 0-.88-.44-.44-1.31.44-1.75.44-1.31.87-1.75m1.32-7 3.06-2.18h6.55l-.44 3.06-1.74.44v2.18l-3.5-.43h-2.19zm93.98-187.09v.88l-2.19.43-1.74 1.75c-1.32 1.31-8.3 1.31-3.94-.87l2.19-.88zm-89.17 212.45.87.87c0 .44-.44.88-.87 1.32-1.75.43-3.94.43-5.69 0l-1.75-2.19zm12.24-31.91v3.5h-2.63l-3.06-1.31-.87-2.63zm-24.49 20.1h5.25c.44 0 .87 0 .87.44l-1.3 2.19-1.76 1.31-3.5-.88c-.87-.43-.43-2.18.44-3.06m18.8-5.67h5.69v2.62l-1.32.43h-3.93c-.44-.43-1.31-.87-1.31-1.75.44-.43.44-.87.87-1.3m-3.93 6.11.87.88c.44.87 0 1.3-.43 1.74-2.19 0-3.94 0-6.13-.43l.44-1.75zm-10.06 6.12.88.88c0 .44 0 1.31-.44 1.31a15 15 0 0 1-6.12 0l.44-1.75zm19.68-17.92.87.88c0 .87-.44 1.3-.87 1.75-1.75 0-3.94 0-5.69-.44v-1.75zm-20.11-1.31.87.88c0 .87-.44 1.3-.87 1.74-1.75 0-3.94 0-5.69-.43v-1.75zm20.1 12.67.88 1.32c0 .43-.44 1.3-.87 1.3-1.75.44-2.63.44-4.82 0v-1.74zm-23.16-6.11.43.44c.44.87 0 1.3-.43 1.74-1.75 0-.44 0-2.63-.44l.44-1.74z" style="fill:#eabe38;fill-opacity:1;fill-rule:evenodd;stroke:none" transform="translate(260.22 202.12)scale(.6087)"/></svg>