<svg xmlns="http://www.w3.org/2000/svg" xml:space="preserve" id="Layer_1" x="0" y="0" viewBox="0 0 456 482.9"><style>.st1{fill:#61a3cf}.st2{fill:#51823c}.st4{fill:#ffc42f}.st5{fill:#d8912f}.st6{fill:#fff}.st7{fill:#bcbec0}.st8{fill:#1d8fce}.st9{fill:#fccec5}.st12{fill:#56595e}.st14{fill:#768a97}.st15{fill:#f3735b}.st16{fill:#ee3531}.st20{fill:#e5cdc1}.st23{fill:#f26439}.st24{fill:#993d20}.st26{fill:#6d6e71}</style><path d="M360.4 16.2c3.5 0 4-.6 4-2.9s0-4-5.8-4-5.8 4-5.8 4c.7 1.8 4.1 2.9 7.6 2.9M99.5 13.3c4-.6 4.6 0 4.6-2.3s-1.7-3.5-6.3-3.5-4 3.5-4 3.5c-.1 2.3 1.6 2.9 5.7 2.3m327.7 156.4c-.5-5.1-4.6-6.1-4.6-6.1s-4.1-1-6.6-1.5-3.6 3.1-3.6 3.1l-.5 16.3-1 63.2c12.2-11.9 16.8-69.9 16.3-75m-26.1 231.8c-3-9.8 3.4-20.8 8.3-20.8s2.3 15.5 2.3 15.5l3.8-1.1 1.1 5.3 2.6-3.8 4.5 4.2v-4.5l4.9-.4c-3-4.9-.8-6.8-.8-6.8l-5.3-.4c5.3-9.1-2.3-20.8-2.3-20.8s-1.9 5.3-3.8 3-2.7-12.1-2.7-12.1l-6 2.3-.8-4.5s-10.6 1.1-17.4 13.2-10.6 32.9 2.3 45 24.6 3.4 24.6 3.4c-7-.8-12.3-6.9-15.3-16.7M40.7 235.7l.4-72s1.6-5.8-5.5-5.8c-7 0-10.1 20.6-7 42.4s7.8 34.6 7.8 34.6 5.1 10.5 4.3.8m-4.9 130.8c0 2.3-2 1.4-2 1.4 0 2-2.6 2.9-2.6 2.9s1.7 3.5.9 10.7c-.9 7.2-7.2 6.6-7.2 6.6 1.1 2.3-5.5 4.9-6.9 5.5s-1.4 1.1 2.3 1.1 9.5 4 9.5 4c-.3-3.5 4.6-3.7 4.6-3.7v-3.2c0-3.2.3-6 1.1-7.5.9-1.4 3.2 2.9 3.2 2.9s0-1.4.6-5.5c.6-4 4.6-7.8 4.6-7.8s1.4-1.7 1.2 4.3c-.3 6 4.9 16.4 4.3 23.9s-4.6 10.7-9.5 12.7-7.2 3.2-7.2 3.2c32 8.1 36-28.8 36-28.8.9-32.2-24.2-31.4-24.2-31.4l-.9 5.2c-.9 5.2-5.5 7.8-5.5 7.8s-2.3-6.6-2.3-4.3m239.3 84.4-32.5 4.8s1.6 7.9 0 15.1c-1.6 7.1-12.7 10.3-15.1 10.3s-6.3 1.9-13.5-1.6c-3.3-1.6-4-5.5-4-5.5s0-4-3.2-6.3c-3.2-2.4 4-13.5 4-13.5l-37.3-4.8c-11.1 12.7-.8 11.9-.8 11.9l11.9-.8s13.5-3.2 12.7 3.2c-.8 6.3-4.8 13.1-35.7 13.1-31 0-46.8-14.7-46.8-14.7-1.6 8.7-15.1 8.7-15.1 8.7l4 2.4c4 2.4 11.1-3.2 11.1-3.2v4s-7.9 7.9-15.9 6.3c-7.9-1.6-8.7-17.5-8.7-17.5-31 31.7-56.3-.8-56.3-.8l-27-34.9c-.8-5.6 8.7-15.1 8.7-15.1-4.8-3.2-9.5-16.7-9.5-16.7C3.7 374 22 354.9 22 354.9H9.3l3.2-27.8c31.7-15.9 29.4-43.6 29.4-43.6s-6.4 14.3-14.3 22.2-21.4 5.6-21.4 5.6 4.8-4 7.9-6.3c3.2-2.4 6.4-2.4 6.4-2.4s-1.6-4-3.2-7.1c-1.6-3.2 6.4-.8 6.4-.8 0-3.2 4-3.2 4-3.2s-6.3-4-6.3-7.9c0-4 12.7-3.2 12.7-3.2l-6.4-2.4c0-4 8.7-9.5 8.7-9.5-23.8-12.7-26.2-53.2-26.2-53.2-4-42.8 4-50 4.8-59.5s8.7-10.3 8.7-10.3 12.7 5.6 19.8-10.3-.8-27.8-.8-27.8-.8 10.3-1.6 15.1-4 14.3-15.1 15.1-16.7-7.9-16.7-7.9h13.5c3.2 0 .8-5.6.8-5.6s2.4 3.2 4.8 2.4-1.6-7.1-1.6-7.1l2.4-6.3c-4 3.2-11.9-1.6-11.9-1.6s-6.3-34.1-7.9-42 4-27 4-27c9.5-25.4 27-23.8 27-23.8l2.4-8.7 7.9-.8s5.6-7.9 16.7-7.9 12.7 7.1 11.9 10.3-4 5.6-4 5.6S84 26.7 87.2 22c3.2-4.8.8-7.9-.8-10.3C84.7 9.1 91.1 1.1 95 1.1c4 0 16.7 4.8 16.7 11.1 0 0-5.6 2.4-5.6 5.6s3.2 3.2 5.6 3.2 9.5.8 9.5-5.6c0-6.3-4-9.5-4-9.5l19.8-.8s3.2-1.6 4 4 4.8 11.1 17.5 11.1 10.3-10.3 19.8-13.5 36.5-10.3 42.9 1.6l8.7.8s8.7-5.6 17.5-5.6H272s12.7.8 12.7 5.6.8 9.5 4 9.5h7.1v5.5s19.8-6.5 20.2-17.5l18.5-.4s1.9 0 1.9 2.6c0 2.7-7.9 14-7.9 14s-.4.4 8.3.4 11.3-1.5 11.7-3.8-4.5-3.4-4.5-7.6 7.2-7.9 14.4-7.9 13.2 4.9 13.2 8.7-4.5 6-5.7 8.3c-1.1 2.3-1.9 3.8 1.9 3.4s11-2.6 11-2.6 3-3.8 2.7-4.9c-.4-1.1-3-1.9-2.7-7.2.4-5.3 2.7-6.4 9.8-6.4 7.2 0 12.5-1.5 14 1.5s.4 7.2 3.8 7.2 8.7-1.1 8.7.8-.4 7.9 1.9 9.1c2.3 1.1 28 4.5 28 35.5l-6 48.7s.4 4.2-5.7 5.7-10.2 1.5-10.2 1.5l-2.6 1.9 3.8 1.9-3.8 4.2 8.3 3-4.5 7.9 8.7-2.6.4 3.4 3-3.8 7.2.4s-5.3 12.5-14.8 12.5-18.1-15.9-18.1-15.9-1.1 14 8.7 18.9l11.3 1.9s6-1.1 7.9 8.7 9.5 17.4 2.6 58.9c0 0-4.9 34-15.5 51 0 0 6.4 3.4 2.6 13.6 0 0 4.5 2.6 4.5 4.9s1.1 4.9 1.1 4.9-3 .8-5.3.8h-2.3s-2.7 3.8-1.1 4.9c1.5 1.1 7.2 3.8 7.2 3.8l-1.5 3.8s3.4.8 4.2 1.9 3 7.2 6 7.9c3 .8 6.1 1.9 6.1 1.9s-4.2 1.9-8.3 1.9c-4.2 0-22.7-6.4-27.2-32.9 0 0-3.8 6.8-2.6 16.3 0 0 9.1 29.1 26.1 31.4 0 0 1.5 3.4 1.9 7.2s5.3 18.5 5.3 18.5.8 2.7-5.7 2.7c-6.4 0-9.8-1.5-9.8-1.5s15.9 14.4 14.4 38.9c0 0-.8 14.4-7.6 17 0 0 9.1 9.4 7.9 12.8-1.1 3.4-23 32.9-23 32.9s-9.5 21.2-32.1 19.3c-22.7-1.9-23.8-9.4-23.8-9.4h-3s-.8 14-18.1 11.7c0 0-11-1.1-12.1-9.1l5.3.4 2.6 1.1 1.1-2.6 3.4 1.5s1.5 0 4.9-.4 4.2-3 4.2-3-3.8 1.5-7.2-.8-7.2-3.4-7.2-3.4-23.1 19.6-57.8 17.4c0 0-31.4-2.3-30.2-14.4 0 0-.4-6.8 9.1-7.2s14 2.6 15.9 1.5 2.3-4.5 1.9-7.2c-.7-2.8-.4-3.6-.4-3.6" style="fill:#939598"/><path d="M284.2 482.9c-1.9 0-3.7-.1-5.7-.2-.9-.1-22.6-1.7-29.3-9.6a8 8 0 0 1-2-6s-.1-2.7 2-5c1.8-2 4.5-3 8.2-3.2 5.4-.2 9.3.6 11.9 1.3 1.7.4 3 .6 3.4.4 1.3-.8 1.7-3.7 1.4-6.1-.1-1-.2-1.8-.2-2.4l-29.9 4.5c.4 2.5 1.1 8.6-.2 14.4-1.7 7.7-13.4 11.2-16.2 11.2-.5 0-1 .1-1.6.2-1 .1-2.2.3-3.6.3-2.8 0-5.7-.7-8.8-2.2-3.7-1.8-4.6-6.2-4.6-6.4s-.1-3.7-2.7-5.7c-3.2-2.4.5-9.7 2.8-13.5l-35-4.5c-4.8 5.6-4.7 7.8-4.3 8.5.5 1 2.4 1.1 2.8 1.1l12.2-.8s3.4-.8 6.7-.8c3 0 5.1.7 6.3 1.9q1.2 1.35.9 3.3c-.9 7.3-6 14.1-36.9 14.1-26.3 0-41.7-10.3-46.2-13.9-2 5.2-8.1 7-12.1 7.6l1 .6c.5.3 1.1.4 1.8.4 2.9 0 6.8-2.5 8.1-3.5.3-.3.8-.3 1.2-.1s.6.6.6 1v4c0 .3-.1.6-.3.8-.3.3-7 6.9-14.5 6.9-.8 0-1.6-.1-2.4-.2-7-1.3-9-11.3-9.6-16-8.7 8.3-17.8 12.5-27.1 12.5-17.3 0-28.8-14.5-29.3-15.1L6 427.8c-.1-.2-.2-.3-.2-.5-.7-5.1 5.7-12.5 8.2-15.1-4.6-4.3-8.7-15.9-8.9-16.4-2-18.2 9.9-34.3 14.4-39.7H9.3a.9.9 0 0 1-.8-.4c-.2-.2-.3-.6-.3-.9l3.2-27.8c0-.4.3-.7.6-.9 22.4-11.2 27.5-28.6 28.5-37.3-2.6 4.9-7 12.5-12.1 17.7-5.1 5.1-12.4 6.2-17.5 6.2-2.9 0-4.8-.3-4.9-.3-.4-.1-.8-.4-.9-.8s0-.9.4-1.2c0 0 4.8-4 8-6.4 2-1.5 4.1-2.2 5.4-2.4-.6-1.4-1.6-3.7-2.6-5.7-.5-1.1-.3-1.8-.1-2.2.7-1.1 2.1-1.1 2.6-1.1 1.3 0 2.8.3 3.9.6.4-1.1 1.2-1.9 2.2-2.3-2-1.6-4.8-4.4-4.8-7.4q0-3.6 7.8-4.2l-.7-.3c-.4-.2-.7-.6-.7-1.1 0-3.5 5.1-7.5 7.7-9.4C11.6 254.8 9.1 217 9 215.4c-3-31.9.7-44.2 3.1-52.3.8-2.8 1.5-5 1.7-7.3.9-10.3 9.7-11.3 9.7-11.3.2 0 .4 0 .6.1 0 0 11.8 4.9 18.4-9.7 4.5-10.1 2.7-18.5 1-23.1-.3 3.4-.8 8.2-1.3 11-.6 3.5-3.5 15.1-16.1 16-11.6.8-17.5-8.1-17.7-8.5-.2-.3-.2-.8 0-1.1.2-.4.6-.6 1-.6h13.5c.3 0 .4-.1.4-.1.4-.6 0-2.5-.6-3.9-.2-.5 0-1.1.5-1.4s1.1-.2 1.5.3c.5.6 2.2 2.4 3.5 2 .3-.5-.8-3.2-2.2-5.5-.2-.3-.2-.7-.1-1l1.5-3.9c-.5.1-1 .1-1.6.1-4.2 0-8.8-2.7-9-2.8-.3-.2-.5-.4-.5-.8-.1-.3-6.4-34.2-7.9-42-1.6-8.1 3.8-26.7 4-27.5C21 19.2 36 17.5 39.6 17.5l2.2-7.9c.1-.5.5-.8 1-.8L50 8c1.4-1.7 7.1-8 17.3-8 6.5 0 9.7 2.4 11.3 4.4 2 2.5 2.2 5.5 1.7 7.3-.6 2.4-2.3 4.3-3.4 5.4 2.4 2.4 7.6 6.7 9.3 4.1 2.6-3.9.9-6.5-.6-8.8l-.2-.3c-.7-1.1-.6-2.7.5-4.7C87.5 4.3 91.6 0 95 0c4.4 0 17.8 4.9 17.8 12.2 0 .4-.3.9-.7 1-1.3.5-4.9 2.5-4.9 4.5 0 1.8 1.3 2 4.4 2h1.9c4.5 0 6.5-1.3 6.5-4.5 0-5.7-3.4-8.5-3.6-8.6-.4-.3-.5-.8-.4-1.2s.6-.8 1-.8l19.8-.6c.3-.1.7-.2 1.2-.2 1.3 0 3.5.7 4.1 5.1 1 6.7 6.5 10.1 16.3 10.1 6.6 0 8.7-2.9 11.1-6.3 1.9-2.6 4-5.6 8.4-7.1C181.5 4.4 194 .5 205.1.5c8.4 0 14 2.3 16.7 6.7l7.8.7c1.7-1 9.6-5.5 17.7-5.5H272c2.4.1 13.8 1.1 13.8 6.7 0 2.5.3 8.4 2.8 8.4h7.1c.6 0 1.1.5 1.1 1.1v3.9c4.5-1.7 17.7-7.5 18-15.9 0-.6.5-1.1 1.1-1.1l18.5-.4c.9 0 3 .7 3 3.8 0 2.4-4.6 9.4-7.1 13.1 1.1.1 3.1.1 6.3.1 10.1 0 10.5-2.1 10.6-2.8.1-.4-.7-1-1.4-1.7-1.3-1.2-3.2-2.9-3.2-5.7 0-5.2 8.2-9.1 15.5-9.1 7.7 0 14.4 5.4 14.4 9.8 0 2.9-2.1 5-3.9 6.6-.8.8-1.6 1.6-1.9 2.2s-.7 1.4-.8 1.8h.6c.3 0 .6 0 .9-.1 3.2-.3 9-2.1 10.4-2.5 1.2-1.5 2.2-3.2 2.2-3.7 0 .1-.2-.2-.4-.4-1-1-2.6-2.7-2.3-7.1.5-6.3 3.9-7.5 11-7.5 2 0 3.8-.1 5.4-.2 1.4-.1 2.6-.2 3.7-.2 2.3 0 4.8.3 5.9 2.5.6 1.2.8 2.5 1 3.7.4 2.4.7 2.9 1.7 2.9.9 0 2-.1 3-.2 1.1-.1 2.2-.2 3.1-.2 2.5 0 3.7.7 3.7 2.2v.7c-.1 4.4.4 6.9 1.3 7.3.2.1.7.2 1.4.4 18.1 5.1 27.2 17.3 27.2 36.1l-6.1 48.9c.2 1.5-1 5.2-6.5 6.6a45 45 0 0 1-10.1 1.5l-.8.6 2.1 1c.3.2.5.5.6.8s0 .7-.3 1l-2.6 2.9 6.7 2.4c.3.1.6.4.7.7s.1.7-.1 1l-3.1 5.5 6-1.8c.3-.1.7-.1.9.1.3.2.5.5.5.8l.1.7 1.3-1.7c.2-.3.6-.5.9-.4l7.2.4c.4 0 .7.2.9.5s.2.7.1 1c-.2.5-5.7 13.1-15.8 13.1-7.1 0-13.6-8-16.9-12.8.4 4.2 2.1 10.7 7.8 13.7l11 1.8h.6c1.6 0 6.8.7 8.5 9.6.4 1.9 1 3.7 1.6 5.8 2.7 8.5 6.5 20.1 1 53.5-.2 1.4-4.9 33.3-15.1 50.5 1.8 1.5 5.1 5.6 2.5 13.4 1.5 1 4.3 3.1 4.3 5.4 0 2 1 4.4 1 4.5.1.3.1.7 0 .9-.1.3-.4.5-.7.6-.1 0-3.2.8-5.6.8H427c-.8 1.3-1.2 2.6-1.1 2.9 1.2.9 5.4 2.9 7 3.6.5.3.8.9.6 1.4l-1 2.6c1.3.4 2.9 1 3.6 2 .2.3.4.8.8 1.4.9 1.8 2.8 5.6 4.6 6 3.1.8 6.1 1.9 6.2 1.9.4.2.7.6.7 1 0 .5-.2.9-.7 1.1-.2.1-4.4 2-8.8 2-3.5 0-21.8-5.3-27.6-30.1a29 29 0 0 0-1.2 12.2c0 .1 9 28.2 25.1 30.4.4.1.7.3.9.7.1.1 1.6 3.6 2 7.5.4 3.6 5.2 18.1 5.2 18.3.2.6.1 1.4-.5 2.2-1 1.3-3 1.9-6.3 1.9-2.6 0-4.7-.2-6.3-.5 4.6 5.5 13.1 18.2 12 36.9 0 .6-.8 13.2-6.8 17.2 2.9 3.1 8.3 9.6 7.2 12.9-1.2 3.5-21 30.2-23.2 33.2 0 0-9.9 21.7-33.1 19.7-19-1.6-23.5-7.1-24.5-9.4h-1.2c-.6 3.1-3.3 12-15.5 12-1.2 0-2.5-.1-3.8-.3-.5 0-11.8-1.3-13.1-10v-.5c-9.1 5.9-24.6 12.5-44 12.5m-25.1-21.7h-1.6c-3.5.1-5.9 1.2-7.1 3.1-.9 1.4-.9 2.9-.9 2.9-.1 1.7.3 3.1 1.5 4.5 6.1 7.2 27.5 8.8 27.7 8.8 33.8 2.2 56.8-16.9 57-17.1.3-.2.7-.3 1.1-.2.2 0 4 1.2 7.5 3.5 1.1.7 2.3 1.1 3.6 1.1 1.4 0 2.5-.4 2.5-.4.4-.2.8-.1 1.2.2.3.3.4.7.3 1.1 0 .1-1 3.4-5.1 3.8-3.4.4-5 .4-5 .4-.2 0-.3 0-.5-.1l-2.4-1-.7 1.6c-.2.6-.9.8-1.5.6l-2.5-1.1-3.6-.3c2 5.7 10.7 6.7 10.8 6.7 1.2.2 2.4.2 3.5.2 12.6 0 13.4-10.5 13.4-10.9 0-.6.5-1.1 1.1-1.1h3c.6 0 1 .4 1.1 1 0 0 1.6 6.7 22.8 8.5 21.7 1.8 30.9-18.4 31-18.6 8.9-12 22.2-30.4 23-32.8.6-1.7-3.5-7.4-7.7-11.7-.3-.3-.4-.7-.3-1 .1-.4.3-.7.7-.8 5-2 6.6-12.2 6.8-16 1.5-23.8-13.8-37.9-14-38-.4-.4-.5-1-.2-1.5s.9-.6 1.4-.4c0 0 3.3 1.4 9.4 1.4 3.2 0 4.2-.7 4.4-1 .1-.2.1-.3.1-.3-.2-.5-4.9-14.8-5.3-18.6-.3-2.7-1.2-5.2-1.6-6.3-17.1-3-26-30.8-26.4-32-1.2-9.9 2.6-16.8 2.7-17.1.2-.4.7-.6 1.2-.6.5.1.8.5.9.9 4.5 26 22.9 31.9 26.1 31.9 1.7 0 3.5-.4 4.9-.7-.9-.3-1.9-.6-2.9-.8-2.9-.7-4.9-4.8-6.1-7.2-.3-.5-.5-1-.6-1.2-.3-.4-1.9-1.1-3.5-1.4-.3-.1-.6-.3-.8-.6q-.3-.45 0-.9l1.1-2.8c-1.7-.8-5.2-2.5-6.4-3.4-2.3-1.7.3-5.7.9-6.5.2-.3.6-.5.9-.5h2.3c1.2 0 2.8-.2 3.8-.4-.3-1.1-.8-2.6-.8-4.1 0-1.1-2.3-3-4-3.9-.5-.3-.7-.9-.5-1.4 3.4-9.1-1.9-12.1-2.1-12.2-.3-.1-.5-.4-.6-.7s0-.6.1-.9c10.3-16.6 15.3-50.2 15.3-50.6 5.4-32.9 1.7-44.2-.9-52.5-.7-2.1-1.3-4-1.7-6.1-1.4-7.1-4.8-7.8-6.3-7.8h-.8L419 146c-.1 0-.2-.1-.3-.1-10.4-5.2-9.4-19.4-9.3-20 0-.5.4-.9.9-1s1 .1 1.2.6c.1.2 8.5 15.3 17.2 15.3 6.7 0 11.3-7.1 13-10.3l-4.9-.3-2.7 3.3c-.3.4-.7.5-1.2.4-.4-.1-.8-.5-.8-1l-.2-2-7.4 2.2c-.4.1-.9 0-1.2-.4s-.3-.9-.1-1.3l3.9-6.8-7.1-2.6c-.4-.1-.6-.4-.7-.8s0-.8.3-1l2.8-3.1-2.5-1.2q-.6-.3-.6-.9c0-.4.1-.8.5-1l2.6-1.9c.2-.1.4-.2.7-.2 0 0 4.1 0 9.9-1.5 5-1.2 4.8-4.4 4.8-4.5l6.1-49c0-26.5-19.3-32-25.6-33.8q-1.35-.3-1.8-.6c-2.5-1.2-2.6-5.5-2.5-9.4v-.6c-.1.1-.5 0-1.5 0-.9 0-1.9.1-2.9.2-1.1.1-2.2.2-3.2.2-3.2 0-3.6-2.7-4-4.7-.2-1.1-.4-2.1-.8-3.1-.5-.7-1.6-1.1-3.9-1.1-1.1 0-2.3.1-3.6.2-1.7.1-3.5.2-5.5.2-7.2 0-8.4 1.2-8.7 5.4-.2 3.4.9 4.6 1.7 5.4.4.4.7.8.9 1.3.4 1.1-.6 3.2-2.8 6-.1.2-.3.3-.5.4-.3.1-7.3 2.3-11.2 2.7-.4 0-.8.1-1.1.1-.8 0-2-.1-2.6-1.1-.7-1.1 0-2.5.7-4 .5-1 1.4-1.9 2.4-2.8 1.6-1.5 3.2-3 3.2-5 0-3-5.4-7.6-12.1-7.6-6.6 0-13.2 3.4-13.2 6.8 0 1.8 1.2 2.9 2.4 4 1.2 1 2.3 2.1 2.1 3.7-.6 3.3-4.4 4.7-12.8 4.7-8.9 0-9-.3-9.4-1.1-.2-.4-.1-.9.2-1.2 3.6-5.2 7.6-11.8 7.6-13.2 0-1.5-.7-1.5-.8-1.5l-17.5.4C315.6 18.7 297 25 296.2 25.3c-.3.1-.7.1-1-.2-.3-.2-.5-.6-.5-.9v-4.4h-6c-3.4 0-5.1-3.6-5.1-10.6 0-2.5-6.9-4.1-11.6-4.4h-24.5c-8.3 0-16.8 5.3-16.9 5.4-.2.1-.5.2-.7.2l-8.7-.8c-.4 0-.7-.3-.9-.6-2.1-4-7.2-6-15-6-10.7 0-23 3.8-26.5 5-3.8 1.2-5.5 3.7-7.3 6.3-2.5 3.6-5.1 7.3-12.9 7.3-13.9 0-17.8-6.6-18.6-12.1-.2-1.5-.7-3.5-1.9-3.5-.3 0-.5.1-.5.1-.1.1-.3.1-.4.1l-17.4.7c1.2 1.7 2.7 4.5 2.7 8.5 0 4.5-2.9 6.7-8.7 6.7h-1.9c-2.3 0-6.7 0-6.7-4.3 0-3.1 3.8-5.4 5.5-6.2-1.1-5.1-12.1-9.3-15.7-9.3-2 0-5.5 3.1-7.2 6.2-.7 1.3-.8 2.2-.6 2.4l.2.3c1.6 2.4 4.1 6.1.6 11.3-.8 1.2-2 1.8-3.4 1.8-4.2 0-9.7-5.8-10.3-6.5q-.3-.3-.3-.9c0-.3.2-.6.4-.8 0 0 2.9-2.2 3.5-4.9.4-1.4.1-3.6-1.3-5.4-1.8-2.3-5.1-3.5-9.5-3.5-10.3 0-15.7 7.4-15.7 7.4-.2.3-.5.4-.8.5l-7.2.7-2.2 8c-.1.5-.6.9-1.2.8h-.5c-2.8 0-17.1 1.1-25.3 23.1 0 .1-5.4 18.8-3.9 26.4 1.5 7.3 7 37.2 7.8 41.5 1.2.6 4.5 2.3 7.4 2.3 1.2 0 2.1-.3 2.8-.8.4-.3 1-.3 1.4 0s.6.8.4 1.3l-2.2 5.8c.9 1.6 2.8 5 2.1 7-.2.6-.7 1.1-1.4 1.3-1 .3-2.2.1-3.2-.3.1.9 0 1.8-.5 2.4-.3.5-1 1.1-2.3 1.1H11.7c2.2 2.4 7 6.2 14.2 5.7 10.7-.8 13.4-10.1 14-14.1.8-4.7 1.6-14.9 1.6-15 0-.5.4-.9.8-1 .5-.1 1 .1 1.2.5.3.5 8.2 12.6.9 28.9-6.9 15.2-18.9 11.8-21 11-1.3.2-6.8 1.6-7.5 9.2-.2 2.6-.9 5-1.8 7.8-2.4 7.9-5.9 20-3 51.5 0 .4 2.6 40 25.6 52.3.4.2.6.6.6 1s-.2.8-.5 1c-2.9 1.8-7.3 5.4-8.1 7.8l5.5 2.1c.5.2.8.7.7 1.3-.1.5-.6.9-1.2.9 0 0-1-.1-2.4-.1-6.2 0-9 1.1-9 2.1 0 2.7 4.2 6 5.8 7 .4.3.6.8.5 1.3s-.6.8-1.1.8c-.3 0-2.8.1-2.8 2 0 .4-.2.7-.5.9s-.7.3-1 .2c0 0-2.7-.8-4.5-.8h-.5c1.6 3.3 3.1 7.1 3.2 7.2.1.3.1.7-.1 1.1-.2.3-.6.5-.9.5 0 0-2.9.1-5.7 2.2-1.8 1.3-4.1 3.2-5.8 4.6h1.9c4.7 0 11.4-1 15.9-5.6 7.7-7.7 14-21.7 14.1-21.9.2-.5.7-.7 1.2-.7.5.1.9.5.9 1 0 .3 2.1 28.4-29.4 44.5l-3 25.9H22c.5 0 .9.3 1 .7.2.4.1.9-.2 1.2-.2.2-17.9 18.9-15.6 39.6 1.2 3.4 5.4 13.4 9 15.8.3.2.5.5.5.8s-.1.7-.3.9c-2.5 2.5-8.7 9.7-8.4 13.8l26.8 34.6c.1.1 11.3 14.3 27.5 14.3 9.2 0 18.4-4.6 27.1-13.6.3-.3.8-.4 1.2-.3.4.2.7.6.7 1 .2 4.2 2 15.2 7.8 16.4.6.1 1.3.2 1.9.2 5.7 0 11.2-4.6 12.6-5.9v-1.3c-1.9 1.2-4.9 2.8-7.6 2.8-1.1 0-2.1-.3-2.9-.8l-4-2.4c-.4-.3-.6-.8-.5-1.3s.6-.8 1.1-.8c.1 0 12.6-.1 14-7.8.1-.4.4-.7.7-.9.4-.1.8 0 1.1.2.2.1 15.9 14.4 46 14.4 33.1 0 34.1-7.9 34.6-12.2.1-.9-.2-1.3-.4-1.5-.7-.8-2.3-1.2-4.6-1.2-3.1 0-6.4.8-6.4.8l-12.1.8s-4 .3-5.2-2.4c-1.1-2.5.6-6.2 5.1-11.4.2-.3.6-.4 1-.4l37.5 5q.6.15.9.6c.2.4.1.8-.1 1.1-3.1 4.8-5.6 10.9-4.2 12 3.6 2.7 3.6 7 3.6 7.2 0 0 .7 3.3 3.3 4.5 2.8 1.3 5.3 2 7.8 2 1.3 0 2.3-.2 3.2-.3.8-.1 1.4-.2 2-.2 2.3 0 12.6-3.1 14-9.4 1.5-6.8 0-14.5 0-14.6-.1-.3 0-.6.2-.9s.5-.4.8-.5l32.5-4.8c.4-.1.8.1 1 .4.3.3.3.7.2 1.1 0 0-.2.8.1 3 .4 2.9 0 6.8-2.4 8.3-.5.3-1 .4-1.7.4-.9 0-2-.2-3.4-.6-2.3-.4-5.4-1.1-9.7-1.1m70.5 9.1 5.1.4c.1 0 .2 0 .4.1l1.6.7.7-1.6q.15-.45.6-.6t.9 0l3.2 1.4c.5 0 2-.1 4.6-.4.5 0 .8-.1 1.2-.3-1.7 0-3.3-.5-4.7-1.4-2.5-1.6-5.2-2.7-6.3-3.1-1.2.8-3.7 2.6-7.3 4.8m76.9-48c-5.4 0-10.5-2.3-15.3-6.7-13.7-12.9-9-34.8-2.5-46.3 7-12.5 17.8-13.7 18.2-13.8.6-.1 1.1.3 1.2.9l.5 3.2 4.8-1.8c.3-.1.7-.1 1 .1s.5.5.5.9c.3 3.7 1.2 10 2.4 11.4.5 0 1.4-1.4 1.8-2.7.1-.4.5-.7.9-.7.5 0 .8.2 1.1.5.3.5 7.1 11.2 3.1 20.4l3.6.3c.5 0 .9.3 1 .8.1.4 0 .9-.4 1.2-.5.5-.9 2.2 1 5.3.2.3.2.8 0 1.1q-.3.6-.9.6l-3.9.3v3.5c0 .4-.3.9-.7 1-.4.2-.9.1-1.2-.2l-3.6-3.3-1.9 2.7c-.3.4-.7.6-1.1.5s-.8-.4-.9-.9l-.9-4.1-2.6.8c-.4.1-.8 0-1.1-.2-.3-.3-.4-.6-.4-1 .7-4.3 1.3-11.8-.4-13.8-.2-.3-.4-.4-.7-.4-1.3 0-2.9 1.2-4.4 3.1-2.8 3.7-4.7 10.2-2.8 16.2 2.1 6.7 6.3 15 14.5 15.8.5 0 .8.4 1 .8.1.5 0 .9-.4 1.2.1.2-4.2 3.3-10.5 3.3m-.3-64.4c-2.7.7-10.3 3.2-15.5 12.5-6.2 10.9-10.7 31.6 2.1 43.6 4.3 4.1 8.9 6.1 13.7 6.1 2.8 0 5.2-.7 6.8-1.4-6-1.9-10.6-7.7-13.4-16.8-2.1-6.8.1-14 3.2-18.2 1.9-2.6 4.1-4 6.2-4 1 0 1.8.4 2.5 1.2 2.3 2.7 1.6 10.3 1.2 13.8l2.1-.6c.3-.1.6 0 .9.1.3.2.5.4.5.7l.6 2.8 1.2-1.7c.2-.3.5-.4.8-.5q.45 0 .9.3l2.6 2.4v-2c0-.6.5-1.1 1-1.1l3.2-.2c-1-2.1-1-3.7-.7-4.8l-3.6-.3c-.4 0-.7-.3-.9-.6s-.2-.8 0-1.1c3.7-6.3.6-14.2-1.2-17.7-.7 1.1-1.6 2.2-2.9 2.2-.5 0-1.2-.2-1.9-1-1.7-2-2.5-8.2-2.8-11.2l-4.7 1.7c-.3.1-.7.1-1-.1s-.5-.5-.5-.8zM41.3 420.3c-2.8 0-5.8-.4-8.9-1.2-.5-.1-.8-.5-.8-1-.1-.5.2-.9.6-1.1.1 0 2.4-1.2 7.3-3.2 4-1.7 8.2-4.4 8.8-11.7.3-3.8-1-8.5-2.3-13.1-1.1-4-2.2-7.8-2-10.8.1-1.3 0-2.1 0-2.7-1.2 1.3-3.1 3.8-3.5 6.3-.6 3.9-.6 5.3-.6 5.3 0 .5-.4 1-.9 1.1s-1-.1-1.3-.6c-.5-.8-1-1.7-1.5-2.2-.3.9-.7 2.8-.7 6.3v3.2c0 .6-.5 1.1-1.1 1.1s-2.4.3-3.2 1.2c-.3.4-.4.8-.4 1.3 0 .4-.2.9-.6 1.1s-.9.2-1.2-.1c-1.5-1.1-6.1-3.8-8.9-3.8-2.7 0-4.1-.2-4.3-1.4s1.1-1.7 1.6-1.9c5.3-2.1 6.2-3.4 6.3-3.8-.2-.4-.1-.9.1-1.2s.6-.6 1-.6c1.8 0 5.3-.6 6-5.6.8-6.7-.7-10-.8-10q-.15-.45 0-.9c.1-.3.4-.5.7-.6 0 0 1.8-.7 1.8-1.8 0-.4.2-.7.5-.9s.7-.2 1.1-.1c0 0 .2.1.3.1 0 0 .1-.2.1-.5 0-1.5 1.1-1.6 1.3-1.6.7 0 1.2 0 2.7 4.2 1.3-1.1 3.3-3.1 3.8-6.2l.9-5.2c.1-.5.5-.9 1.1-.9 2 0 10.7.4 17.4 7.3 5.5 5.7 8.2 14.2 7.9 25.2.1.4-3.5 31-28.3 31m-5.1-2.7c1.8.3 3.5.4 5.1.4 22.8 0 26.1-27.7 26.2-28.9.3-10.3-2.2-18.3-7.3-23.5-5.4-5.6-12.3-6.5-14.9-6.6l-.7 4.2c-.9 5.7-5.8 8.5-6 8.6-.3.2-.6.2-1 .1-.3-.1-.5-.4-.7-.7-.3-.8-.6-1.7-.9-2.5-.4.4-.9.5-1.4.5-.4 1-1.2 1.7-2 2.2.5 1.6 1.2 5 .6 10.2s-3.9 7.3-7.1 7.6c0 .1-.1.2-.1.3-.5 1.3-2.2 2.6-5.2 4.1 2.8.2 6.3 2.1 8.2 3.3.1-.4.4-.7.6-1 1-1.2 2.6-1.7 3.7-1.9v-2.2c0-4 .4-6.6 1.3-8.1.6-1.1 2-1.2 3.3.2.1-.7.2-1.4.3-2.4.6-4.4 4.8-8.3 5-8.4 0 0 .5-.5 1.2-.5.4 0 .8.2 1.1.5.5.5.9 1.5.8 5.2-.1 2.6.9 6.2 2 10.1 1.3 4.7 2.7 9.6 2.4 13.8-.7 8.6-5.8 11.8-10.2 13.6-1.8.8-3.2 1.4-4.3 1.8m374.6-171.9c-.2 0-.3 0-.5-.1-.4-.2-.7-.6-.7-1l1-63.2.5-16.3c.5-1.9 2.1-4.7 4.9-4.1 2.6.5 6.7 1.5 6.7 1.5.2.1 4.9 1.3 5.4 7.1.4 4.5-3.7 63.4-16.7 75.8 0 .2-.3.3-.6.3m4.7-82.6c-1.1 0-1.8 1.8-2 2.3l-.5 16-1 59.9c10.1-15.1 14.6-66.1 14-71.6-.4-4.2-3.7-5.1-3.7-5.1s-4-1-6.6-1.5zM40 241c-1.3 0-2.9-1.9-4.6-5.6-.1-.2-4.8-13.3-7.9-35-2.6-18.4-.9-35.9 4-41.6 1.2-1.4 2.6-2.1 4.1-2.1 2.6 0 4.5.7 5.7 2.2 1.4 1.9 1.1 4.2.9 4.9l-.4 71.9c.3 3.3-.1 4.2-.6 4.7q-.45.6-1.2.6m-4.4-82c-.8 0-1.6.4-2.4 1.3-4.5 5.2-6 22.3-3.5 39.8 3.1 21.4 7.7 34.3 7.7 34.4.7 1.4 1.5 2.8 2.2 3.6 0-.5 0-1.2-.1-2.3l.4-72.1v-.3s.5-1.8-.5-3.1c-.6-.9-1.9-1.3-3.8-1.3M360.4 17.3c-3.5 0-7.7-1.1-8.6-3.6 0-.1-.1-.2-.1-.4 0-.1.1-5.2 6.9-5.2 6.4 0 6.9 2.2 6.9 5.2 0 3.4-1.6 4-5.1 4m-6.4-4.2c.5.9 3 1.9 6.3 1.9 2.9 0 2.9-.2 2.9-1.7 0-2 0-2.9-4.6-2.9-3.8 0-4.5 2-4.6 2.7M97 14.7c-2.9 0-4.4-1.2-4.4-3.6 0 0-.2-1.6.9-3 .9-1.1 2.3-1.6 4.3-1.6s7.5 0 7.5 4.6c0 2.7-1.2 2.9-3.5 3.2-.6.1-1.3.1-2.1.2-1.1.1-2 .2-2.7.2m.7-6c-.8 0-2 .1-2.5.8-.5.6-.4 1.4-.4 1.4 0 .9 0 1.6 2.2 1.6.7 0 1.4-.1 2.3-.2s1.6-.2 2.2-.3 1.2-.1 1.4-.2v-.7c0-.9 0-2.4-5.2-2.4"/><path d="M78.4 59.1h297.9v151.8H78.4z" class="st1"/><path d="M84.1 188.8s19.9-1.5 29.8-1.5 13-5.3 19.1-5.3 7.6 1.5 13-1.5c5.3-3.1 5.3-3.8 11.5-6.1 6.1-2.3 6.9-11.5 13-16.8s9.2-11.5 9.9-15.3c.8-3.8 9.2-15.3 10.7-19.1s11.5-11.5 13.7-13.7c2.3-2.3 12.8-8.2 22-9s17.8 3.6 20.1 5.2c2.3 1.5 10.7 9.9 13.7 11.5 3.1 1.5 9.2 6.1 10.7 12.2s3.8 10.7 5.3 13 4.6 9.9 4.6 16.8 6.9 1.5 9.2 8.4 8.4 16 13.7 18.3c5.4 2.3 9.9 3.8 14.5 3s9.9-2.3 16.8-1.5 9.2 2.3 13.7 3.8c4.6 1.5 6.1-2.3 10.7 1.5s5.4 5.3 9.2 5.3h3.8s46.1 229.5-154.6 229.5c0 0-139.5-14.9-139.5-121l.3-111z" class="st2"/><path d="M84.7 197.8s25.2 0 32.1-2.3 8-3.4 12-3.4 9.7 1.1 14.3-.6 3.4-3.4 8-5.7 8-3.4 10.3-6.9c2.3-3.4 8-11.5 9.2-13.2 1.1-1.7 1.7-2.3 3.4 0s3.4 5.7 4.6 2.9c1.1-2.9-5.2-4.6-2.9-9.2s2.9-8 5.2-5.7l2.3 2.3s1.1-4.6 2.3-8 1.7-6.9 2.3-11.5 1.7-2.9 5.7-8.6 11.3-14.4 21.7-18.4 6.9-5.1 16.1-4.5 19.5 6.9 21.2 10.3-2 7.7 4.5 9c6.4 1.3 8.7 7.6 9.9 13.3 1.1 5.7 1.1 6.9 3.4 11.5s6.3 6.9 6.3 10.3-.6 5.7.6 12c1.1 6.3 0 14.3-2.3 16.6s2.3 4.6 3.4.6 2.3-9.2 2.3-13.2 0-8 2.3-8 2.3 1.7 5.1 6.9c2.9 5.2 12.6 15.5 20.1 16 7.4.6 16.6-.6 21.8 0s12 1.7 18.3 4.6 5.2 2.3 9.7 2.9c4.6.6 10.3 3.4 10.9 6.9l2.9 10.9v64.7s-22.3-.6-32.7 5.7c-10.3 6.3-12 10.3-24.6 10.3s-12.6-2.9-20.6 1.1-14.3 6.9-19.5 6.9c-5.1 0-13.7 0-23.5-1.7-9.7-1.7-13.7-5.7-20.6-2.3s-16.6 1.7-16.6 1.7 2.3.6 9.7 1.7c7.5 1.1 6.9-1.1 14.3 0s1.7 1.7 12.6 3.4 10.3 1.7 20.1.6c9.7-1.1 4.6-1.7 18.9-1.7s11.5 2.9 22.9-1.1c11.5-4 7.4-6.9 18.9-7.4 11.5-.6 12.6-3.4 22.9-4s14.9-.6 14.9-.6-3.4 20.6-9.7 25.8-15.5 2.9-20.1 5.2-2.9 2.3-12.6 2.3-8.6 0-15.5 1.7-9.2 0-19.5 1.7-24.6 3.4-32.1 5.7c-7.4 2.3-14.3 2.9-20 6.3s-6.3 6.3-14.3 5.2-24.1-2.3-35.5-4c-8.6-1.3-14.3-3.2-20.9-4.1-2.2-.3-4.5-.5-7.1-.5-10.3 0-12.6 1.1-22.9 0-10.3-1.2-11.5-5.7-22.3-12-10.9-6.3-14.3-5.7-21.2-5.7s-9.7-2.3-9.7-2.3l4 7.5 6.3 1.1c6.3 1.1 9.7-1.7 12.6 5.2s7.5 6.9 10.9 12c3.4 5.2 2.3 6.3 6.3 9.7s2.3 5.2 8.6 4.6 4.6-2.3 11.5-2.9 7.4-2.3 12.6 0 5.2 1.7 9.7 4.6c4.6 2.9 8 6.9 6.9 2.9s-3.4-3.4-5.7-12-4.6-6.9 2.3-6.9c0 0 17.8 1.7 27.5 2.9 9.7 1.1 9.2 3.4 19.5 4.6 10.3 1.1 8.6 1.1 16.6 5.2 8 4 17.2 6.3 22.9 10.3s1.7 4.6 9.7 4.6 24.1 5.2 15.5-1.1-39-22.3-33.2-25.2c5.7-2.9 4-5.2 14.9-5.7 10.9-.6 17.2-3.4 25.8-1.1s5.2 4.6 11.5 9.2 6.3 4.6 11.5 6.3 16.6 5.2 14.3-1.1-16.6-20.6-12-21.8c4.6-1.1 20.1-4 28.1-5.2s15.5-3.4 18.9-5.7-45.3 89.9-135.2 83.1c-89.9-6.9-106.6-47.6-110.6-54.4-4-6.9-9.7-11.5-12-14.9s-16.6-14.3-16.6-22.9c-.4-9.1-3.8-113.3-3.8-113.3" style="fill:#66a84c"/><path d="M97.3 290.7s5.3 1.3 19.8-1.3 15.8-6.6 21.1-7.9 23.7-2.6 31.6 0 10.5 3.9 22.4 9.2 13.2 10.5 27.7 11.9c14.5 1.3 15.8 0 29 1.3s31.6 3.9 39.5-1.3c7.9-5.3 19.8-11.9 35.6-11.9h22.4s-29-2.6-36.9 6.6-7.9 14.5-22.4 15.8-32.9 2.6-39.5 1.3-5.3 3.9-5.3 3.9-10.5-1.3-25-2.6-31.6-13.2-31.6-13.2l6.6 14.5s-29-27.7-59.3-22.4c-30.4 5.3-35.7-3.9-35.7-3.9" class="st2"/><path d="M130.6 84.6 134 82l2.3 3.7 4.1-1.4.9 4.2 4.3.2-.6 4.2 3.9 1.7-1.9 3.8 3.1 2.8-3.1 2.9 1.9 3.8-3.9 1.6.6 4.3-4.3.1-.9 4.2-4.1-1.3-2.3 3.7-3.4-2.7-3.4 2.7-2.3-3.7-4 1.3-1-4.2-4.2-.1.5-4.3-3.9-1.6 2-3.8-3.2-2.9 3.2-2.8-2-3.8 3.9-1.7-.5-4.2 4.2-.2 1-4.2 4 1.4 2.3-3.7z" class="st4"/><path d="m130.6 89 4.8-11.9-.1 12.8 9-9.1-5 11.8 11.7-5-9 8.9 12.7-.1-11.8 4.8 11.8 4.8-12.7-.1 9 9-11.7-5 5 11.8-9-9.1.1 12.7-4.8-11.8-4.8 11.8.1-12.7-8.9 9.1 4.9-11.8-11.7 5 9.1-9-12.8.1 11.8-4.8-11.8-4.8 12.8.1-9.1-8.9 11.7 5-4.9-11.8 8.9 9.1-.1-12.8z" class="st5"/><path d="M146 101.2a15.4 15.4 0 1 1-30.81-.01 15.4 15.4 0 0 1 30.81.01" class="st4"/><path d="M130.3 110.3c2.3-.1 4.3-1.5 4.3-1.5s-2.1.3-3.8.3-3.8-.4-3.8-.4l8.3-.3s-1.6-.5-2.5-.6-.7.1-1.6.3-1.7 0-2.4-.2c-.8-.2-2.8.6-2.8.6s2 1.9 4.3 1.8m-5.5-2s1.8-.3 2.7-.6 1-.5 2-.3.7.4 1.7.2 1-.5 2.1-.3 1.9 1 2.9.9-2.6 1.8-3.3 2.1c-.8.3-2.3.5-3.8.2-1.4-.3-1.9-.7-2.2-1-.5-.3-1.3-1.3-2.1-1.2m5-3.2c0 .1-.3.2-.6.2s-.6-.1-.6-.2.3-.3.6-.3.6.2.6.3m2.3 0c0 .1-.3.2-.6.2s-.6-.1-.6-.2.3-.3.6-.3c.4 0 .6.2.6.3m-12.8-9.4s1.9-1.3 2.7-1.3 1.4-.1 2.6-.1c1.1 0 2.9.6 3.2.9s1.2 1.6 1.3 2.3.7 3.9.6 4.4-.6.9-.6.9-1.4 1.1-1 1.7c0 0-.8-.4.2-1.7s.6-2.7.6-3.6 0-.9-.7-2.3-1.7-1.9-2.3-1.8c-.7.1-.2.3-1.7.1-1.4-.2-3.2-.5-4.9.5m14.1.7s.1-1.1 1.1-1.4 3.2-.2 3.9-.2 2.2.4 2.4.8.1 1.8-.2 1.2.2-1-2.1-1.3-2.5.4-3.2.7-1.8 1.3-1.8 1.3z" class="st5"/><path d="M125.3 98.1c-.9-.7-2.7-.6-3.3-.5-.7.1-2.1 1-2.1 1l1 .4c.3-.5 1-.6 1.4-.6 0 .1-.1.2-.1.3 0 .5.5.9 1 .9s1-.4 1-.9c0-.1 0-.3-.1-.4v-.1c.3 0 1.3.7 1.3.7l.1.6.7-.7zm9.2.3c.9-.7 2.7-.6 3.3-.5.7.1 2.1 1 2.1 1l-1 .4c-.3-.5-1-.6-1.4-.6 0 .1.1.2.1.3 0 .5-.4.9-1 .9s-1-.4-1-.9c0-.1 0-.3.1-.4v-.1c-.3 0-1.3.7-1.3.7l-.1.6-.7-.7z" class="st5"/><path d="m90.8 334 9.9-7.1S134.8 407 240 407c0 0 82-9.9 100.4-69.6l13.7 8s-21.8 80.2-129.5 79.5C114.6 424 90.8 334 90.8 334" class="st6"/><path d="M109 233.7s11.9-1.3 23.7 0c11.9 1.3 29 0 42.1 0 13.2 0 7.9-5.3 23.7-3.9 15.8 1.3 22.4 3.9 36.9 2.6s20.7-6 26.2-10.2c5.4-4.2 10.7-4.2 10.7-4.2s5.3-17.1 14.5-17.1h9.2s14.5-3.9 23.7-3.9 7.9 9.2 7.9 14.5-5.3-7.9-15.8-7.9-11.9 6.6-11.9 10.5c0 4-1.3-13.2-9.2-7.9s-17.1 15.8-18.4 29-7.9 9.2-7.9 9.2 11.9-21.1 0-15.8-13.2 7.9-26.3 9.2c-13.2 1.3-29 0-40.8 0s-17.1 1.3-26.3 1.3c-9.3-.1-62-5.4-62-5.4" class="st2"/><path d="M298.1 284.6s4.3-6 5.4-6.9.6-2.9 1.1-4.9c.6-2 .6-3.7.6-3.7l-1.7-3.7s-.3.6-.9 2.6-6 16.6-6 16.6zm-53.9-20.1c1.4-1.1.3-1.1-.3-3.1s-.9-2.3-.3-3.4 4.6 2.6 4.6 2.6l3.1 4.3L265 266c.3-7.2 3.4-12.6 3.4-12.6l-1.1-3.7c1.1-9.5 8.6-7.2 8.6-7.2s.6-1.4.9-2.6c.3-1.1 2.9-.9 2.6-1.7-.3-.9 0-5.2 1.7-6.6s3.7-7.2 3.7-7.2-2.3-2.6-3.4-3.7c-1.1-1.2-.9-4 1.4-3.4s6 1.4 6 1.4 1.7-2.9 2-4.6 2.9-2.6 2.9-2.6c3.2.6 5.2 2.3 5.2 2.3s2-1.1.9-2 .9-3.4 1.4-5.2c.6-1.7 3.7-1.1 5.7 2 2 3.2 3.2 2.3 3.2 2.3l12.6-43.5s1.1-3.1.6-5.4c-.6-2.3 1.1-4.3 1.1-4.3l-.9-6.3 7.2-11.2 2 11.7-4.9 6.3-1.7 6-13.8 48.4s0 4.3 4 6.9 1.4 11.5-2 14.9-7.5-1.7-7.5-1.7l-3.1 9.7s2-.3 5.4 2 3.4 9.2 3.4 9.2l3.7 17.5v4.6c0 4.6-4 7.4-4 7.4l-12.3 11.7 2 7.2 13.5 34.7-.3.9c-.3.9-2 1.1-2 1.1s-12.9-34.9-13.2-32.4c-.3 2.6-2.6 3.7-2.6 3.7s-.9 8.6-1.1 11.8c-.3 3.1-1.1 9.5-1.1 12.3 0 2.9-1.1 6.9-1.1 6.9s1.4.3 1.4 8-2.6 20.1-2.6 20.1 3.7 6 4.6 8.3 0 2.6-1.1 3.4c-1.1.9-4 .9-4 .9s-3.4-4.3-6.3-6.6-.6-6.6-.6-6.6c-.6-3.2-1.1-25.2-1.7-27.5s.6-6.9.6-6.9l-2.9-7.2-3.7 18.9s-2.3 15.2-3.1 18.3c-.9 3.2 0 4.6.3 7.2s.6 3.7-.9 5.4c-1.4 1.7-6.6 3.4-6.6 3.4l-.6 1.7c-.6 1.7-2.9 4-2.9 4l.9-3.4H262c-2.9 0-4.9-4-4-5.4s6.9-4.6 7.5-6.3.9-5.7.9-5.7c-1.7-6 0-26.6 0-26.6-2.3-1.4-1.4-6-1.4-6s-.6-14.3-.6-18.3.9-10.9.9-10.9c-3.7-3.7-2.6-9.7-2.6-9.7v-2.6c0-1.2 2.9-4.3 4-6.9s2-5.4 2-5.4-1.4-.3-3.4-.6-19.2-5.2-19.2-5.2 0-2-.3-2.9-4.9-1.4-4.9-1.4 1.9-2.8 3.3-4"/><path d="M149.8 138.7s-.8-1.3 1-3l3.1 3.5c-.1.1-2.7 2-4.1-.5m151.1 3.2s-1.4.4-2.6-1.8l4.2-2c0 .1 1.1 3.1-1.6 3.8" class="st7"/><path d="M244.5 222.9c-2-3.8 4.9-6.7 4.9-6.7-1.2-2.3 4.1-5.2 4.1-5.2-.9-5.8 6.1-9 6.1-9-2.9-5.2 4.3-12.8 4.3-12.8-1.4-3.5 2.6-14.8 2.6-14.8-1.7-4.6 2.3-17.4 2.3-17.4-4.9-3.2-4.1-19.4-4.1-19.4-4.4 0-7.8-13.3-7.8-13.3-4.6 0-7.2-9.6-7.2-9.6-3.2 0-7.8-5.2-7.8-5.2-3.8.9-7.8-2.6-7.8-2.6l-5.5.6-5.5-.6s-4.1 3.5-7.8 2.6c0 0-4.6 5.2-7.8 5.2 0 0-2.6 9.6-7.3 9.6 0 0-3.5 13.3-7.8 13.3 0 0 .9 16.2-4.1 19.4 0 0 4.1 12.8 2.3 17.4 0 0 4.1 11.3 2.6 14.8 0 0 7.2 7.5 4.4 12.8 0 0 7 3.2 6.1 9 0 0 5.2 2.9 4.1 5.2 0 0 7 2.9 4.9 6.7z" class="st4"/><path d="M218.7 212s-6.9 1.1-9.2 5-10.2 5.2-10.2 5.2 8.1-.1 11-3.7 7.7-4.6 9-3.6zm4.8-7.9s-6.9 1.1-9.2 5-10.2 5.2-10.2 5.2 8.1-.1 11-3.7 7.7-4.6 9-3.6z" class="st5"/><path d="M223.8 203.9s-6.9-1-10.2 2.1c-3.3 3-11.2 1.9-11.2 1.9s7.8 2.3 11.7-.3 8.8-2.1 9.6-.8z" class="st5"/><path d="M221.8 202.2s-6.7-2-10.4.5-11.4.2-11.4.2 7.3 3.5 11.6 1.5c4.2-2 9-.8 9.7.7z" class="st5"/><path d="M216.7 199.4s-6.4-2.8-10.4-.8-11.3-1.2-11.3-1.2 6.8 4.4 11.3 2.9c4.4-1.4 9 .3 9.5 1.9zm1.3-5s-6.4-2.8-10.4-.8-11.3-1.2-11.3-1.2 6.9 4.4 11.3 2.9c4.4-1.4 9 .3 9.5 1.9zm-4-5.2s-6.4-2.8-10.4-.8-11.3-1.2-11.3-1.2 6.9 4.4 11.3 2.9c4.4-1.4 9 .3 9.5 1.9zm.2-7.3s-6.7-2.1-10.4.3c-3.8 2.4-11.4 0-11.4 0s7.3 3.6 11.5 1.7 9-.7 9.6.8zm-.9-5.7s-6.7-2.1-10.4.3c-3.8 2.4-11.4 0-11.4 0s7.3 3.6 11.5 1.7 9-.7 9.6.8zm-.8-5.3s-6.6-2.1-10.4.3-11.4 0-11.4 0 7.3 3.6 11.5 1.7 9-.7 9.6.8z" class="st5"/><path d="M210 167.2s-6.4-2.8-10.4-.7c-4 2-11.3-1.1-11.3-1.1s6.9 4.3 11.3 2.8 9 .3 9.5 1.8z" class="st5"/><path d="M209.8 164s-5.6-4.2-10-3.1c-4.4 1-10.8-3.7-10.8-3.7s5.7 5.8 10.3 5.4 8.7 2.4 8.8 4zm2.8-6.1s-5.6-4.2-10-3.1c-4.4 1-10.8-3.7-10.8-3.7s5.7 5.8 10.3 5.4 8.7 2.4 8.8 4zm.5-4.6s-5.4-4.4-9.8-3.6c-4.4.9-10.6-4.2-10.6-4.2s5.4 6 10.1 5.8 8.6 2.7 8.6 4.4zm.9-4.1s-5-4.9-9.4-4.4c-4.5.5-10.2-5.1-10.2-5.1s4.9 6.5 9.5 6.7 8.3 3.5 8.2 5.1zm.6-4.4s-4.6-5.3-9.1-5.1c-4.5.1-9.8-5.9-9.8-5.9s4.4 6.9 9 7.4c4.6.6 8 4.1 7.8 5.7zm4.6-3.3s-4.4-5.4-8.9-5.4-9.5-6.2-9.5-6.2 4.1 7 8.7 7.7 7.9 4.4 7.6 6zm2.1-3.1s-3.3-6.2-7.7-7.1-8.2-8-8.2-8 2.7 7.7 7.1 9.3 6.9 5.8 6.3 7.3zm4.6-3.4s-3.3-6.2-7.7-7.1-8.2-7.9-8.2-7.9 2.7 7.7 7.1 9.3 6.9 5.8 6.3 7.3zm4-4.4s-3.3-6.2-7.7-7.1-8.2-8-8.2-8 2.7 7.7 7.1 9.3 6.9 5.8 6.3 7.3zm4.2-3s-3.3-6.2-7.7-7.1-8.2-8-8.2-8 2.7 7.7 7.1 9.3 6.9 5.8 6.3 7.3z" class="st5"/><path d="M232 128.4s-.1-7-3.6-9.8-3.6-10.8-3.6-10.8-1.1 8 2.1 11.5c3.2 3.4 3.5 8.3 2.3 9.4zm10.3 83.6s6.9 1.1 9.2 5 10.2 5.2 10.2 5.2-8.1-.1-11.1-3.7c-2.9-3.6-7.7-4.6-9-3.6zm-4.8-7.9s6.9 1.1 9.2 5 10.2 5.2 10.2 5.2-8.1-.1-11-3.7-7.7-4.6-9-3.6z" class="st5"/><path d="M237.2 203.9s6.9-1 10.2 2.1c3.3 3 11.2 1.9 11.2 1.9s-7.8 2.3-11.6-.3c-3.9-2.6-8.8-2.1-9.6-.8z" class="st5"/><path d="M239.2 202.2s6.7-2 10.4.5 11.4.2 11.4.2-7.3 3.5-11.6 1.5c-4.2-2-9-.8-9.6.7z" class="st5"/><path d="M244.3 199.4s6.4-2.8 10.4-.8 11.3-1.2 11.3-1.2-6.8 4.4-11.3 2.9c-4.4-1.4-9 .3-9.5 1.9zm-1.4-5s6.4-2.8 10.4-.8 11.3-1.2 11.3-1.2-6.9 4.4-11.3 2.9c-4.4-1.4-9 .3-9.5 1.9zm4.1-5.2s6.4-2.8 10.4-.8 11.3-1.2 11.3-1.2-6.9 4.4-11.3 2.9c-4.4-1.4-9 .3-9.5 1.9zm-.3-7.3s6.7-2.1 10.4.3c3.8 2.4 11.4 0 11.4 0s-7.3 3.6-11.5 1.7-9-.7-9.6.8zm1-5.7s6.7-2.1 10.4.3c3.8 2.4 11.4 0 11.4 0s-7.3 3.6-11.5 1.7-9-.7-9.6.8zm.7-5.3s6.7-2.1 10.4.3c3.8 2.4 11.4 0 11.4 0s-7.3 3.6-11.5 1.7-9-.7-9.6.8zm1.6-5.5s6.8-1.7 10.4.9 11.4.7 11.4.7-7.5 3.2-11.6 1-8.9-1.2-9.7.3zm.7-5s6.7-2 10.4.5 11.4.2 11.4.2-7.3 3.5-11.6 1.5c-4.2-2-9-.8-9.7.6zm-2.4-2.5s5.6-4.2 10-3.1c4.4 1 10.8-3.7 10.8-3.7s-5.7 5.8-10.3 5.4-8.7 2.4-8.8 4zm-.4-4.6s5.4-4.4 9.8-3.6c4.4.9 10.6-4.2 10.6-4.2s-5.4 6-10.1 5.8c-4.6-.2-8.6 2.7-8.6 4.4zm-1-4.1s5-4.9 9.5-4.4 10.2-5.1 10.2-5.1-4.9 6.5-9.5 6.7-8.3 3.5-8.2 5.1zm-.6-4.4s4.6-5.3 9.1-5.1c4.5.1 9.8-5.9 9.8-5.9s-4.4 6.9-9 7.4c-4.6.6-8 4.1-7.8 5.7zm-4.6-3.3s4.4-5.4 8.9-5.4 9.6-6.2 9.6-6.2-4.1 7-8.7 7.7-7.9 4.4-7.6 6zm-2-3.1s3.3-6.2 7.7-7.1 8.1-8 8.1-8-2.7 7.7-7.1 9.3-6.9 5.8-6.3 7.3zm-4.6-3.4s3.3-6.2 7.7-7.1 8.2-7.9 8.2-7.9-2.7 7.7-7.1 9.3-6.9 5.8-6.3 7.3zm-4-4.4s3.3-6.2 7.7-7.1 8.2-8 8.2-8-2.7 7.7-7.1 9.3-6.9 5.8-6.3 7.3zm-4.2-3s3.3-6.2 7.7-7.1 8.2-8 8.2-8-2.7 7.7-7.1 9.3-6.9 5.8-6.3 7.3z" class="st5"/><path d="M228.9 128.4s.1-7 3.6-9.8 3.7-10.8 3.7-10.8 1.1 8-2.1 11.5c-3.2 3.4-3.5 8.3-2.3 9.4zm-.4-10.5 1.5-9.7.4 10.8s-1 1.8-1.9-1.1" class="st5"/><path d="M208.1 181.3s2.1-1.1.6-1.7-2.5.4-3.4-.6c-.8-1.1-1.1-1.7-1.7-2.5s-1.3-1.7-1.1-4.4c.2-2.8 1.5-9.1 2.1-10.8s2.3-5.9 3.4-8 1.3-.6 1.9-2.8c.6-2.1.2-5.5 1.3-7s3.2-3.4 4.4-3.8c1.3-.4 2.5-.4 3-3.4.4-3 .2-3 1.1-5.3s3-7.2 3-8.5 2.7-5.1 5.5-5.3 7.8-.6 9.3 5.7 1.7 9.5 3.2 11 7.6 6.1 8.7 7.6 3 9.3 3 11.2-.4 9.3-1.7 14.2c0 0-.2 7.8-2.1 11.4 0 0 1.9 9.7 1.1 15.4s-1.3 9.5-2.5 11c-1.3 1.5-1.7 4-1.7 4.9s-3.6 6.3-3.4 9.3.2 3.8.2 3.8-5.9-1.3-7-3.2-2.3-2.1-4-1.9-2.1.2-4.4.2-7 0-7.8.2c-.9.2-1.7.2-1.7.2s.4-2.3-.6-4.4c-1.1-2.1-1.9-4.7-1.9-7v-5.1s-.4 0-.4-2.3-1.1-1.7-.8-4c.2-2.3.8-4.6.8-4.6s-1.1-1.1-2.1-1.5c-1.1-.4-4-1.1-4.4-2.8-.8-1.6-1-4.8.1-5.2"/><path d="M216.9 140s2.1 1.7 3 .8c.8-.8-.6 0 .8-.8 1.5-.8 1.7-1.1 3-.4 1.3.6 3.2 1.1 4.4 1.1 1.3 0 1.3-1.1 3 .4s2.1 1.3 3.4 1.5 2.5 2.8 4.2 4.2c1.7 1.5 4 3.4 4.9 4.4.8 1.1 2.1 3 2.5 4.2.4 1.3 2.3 1.1 1.5 4-.8 3-3.4 3.6-4.4 3.8-1.1.2-3.8 1.3-4.7 1.5-.8.2-1.7.2-1.7 2.1s-1.1 17.4-1.1 17.4 3.8 2.7 5.1 4 2.5 2.5 2.5 3.4c0 .8-4.4-.6-2.7 1.3s3.8 1.3 4 2.3c.2 1.1-1.5 1.7-1.5 4.2s1.7 7.4 1.7 7.4 2.3-3.6 3.2-8.7 1.7-12.1-.6-20.1c0 0 2.1-3 2.5-11.4 0 0 2.5-10.6 1.5-15.2-1.1-4.7-1.5-8.5-5.3-11.6 0 0-7.4-5.1-7.4-7s-2.1-17.8-8.7-14.6c0 0-3-1.7-6.3 3.8 0 0-1.3 2.5-1.3 4s-1.5 3.6-1.7 4.7-1.1 2.3-.8 3.8c.2 1.5-.6 5.3-3 5.5" class="st8"/><path d="M228.2 121s4.9-.7 5.3 3.8c.5 5.5-.2 9.5-5.1 9.5s-4.7-7.2-4.7-8c0-.9 1.1-4.7 4.5-5.3" class="st9"/><path d="M227.2 130.4s1.9-.3 2.8 0l.4.5s-.7-.3-.8-.1-.7.3-1 .3-.4-.2-.7-.3c-.3 0-.2-.4-.7-.4m-1.9-6.3 2.4.1s.5-.1.5.7-.2 3.1-.2 3.1.2.2.7.2c.4 0 1.1-.1 1.1-.1s-.4.9-1 .9-1.3-.3-1.3-.7.2-3.4.2-3.4-.6-1-2.4-.8m4.2.2s.7-.4 1.2-.4c.6 0 1.1-.1 1.3.1s.5.5.2.5c-.1 0-1.1-.5-2.7-.2m.3 1.5h2s-.6.5-1 .5c-.2 0-.7 0-1-.5"/><path d="M224.9 125.7h2s-.6.5-1 .5c-.3 0-.8 0-1-.5"/><path d="M219.9 142.2s1.5-1.7 2.5-1.9 3.2 1 4.6 1.1c1.3.2 2.1-.4 2.7-.2s2.3 2.5 3.2 2.3c1-.2 2.5 0 2.9.8s3.8 4 5 5.3c1.1 1.3 2.7 3.1 3.2 4 .6 1 1.7 2.7 1.9 3.2.2.6 1.7 1.2.2 3.4-1.5 2.3-8.2 3.8-9.4 4.2-1.1.4-.8 2.3-.8 4s-1.1 16.4-1.1 16.4 7.4 5 7.4 6.3c0 0-2.9-.4-2.9.6s2.3 3.6 3.2 3.6c1 0 0 .6 0 1.5 0 1-.4 3.6 0 5.7s1.5 4.8 1.5 4.8-1.1 4.4-1.7 5.3c-.6 1-1.5 4.6-1.5 5.7s-.4 2.3-.4 2.3-2.5.2-3.6-1.5-1.7-2.3-1.3-3.2c.4-1 1.7-10.7 1.7-14.9s-2.7-11.1-2.7-11.1 1 4.8 1 8.6.2 15.7-2.1 17.8c0 0-2.1 1-2.5 0s1.5-10.7 1.5-13 0-5.2-.6-7.1-1.2-4-1.2-7.6-1-4.2-1-2.5.2 6.3.4 8 .2 3.4.2 5c0 1.5-.8 6.7-.8 6.7s-1.9 5-1.9 7.5v3.2s-1.7.8-2.7 0-1.3-1.3-1.2-3.1c.2-1.7.8-6.1.8-6.1s.6-3.8.6-5.2.2-4.4.2-5.5 1-9.7 1-9.7-.8.9-.8 1.7-1.7 9.5-1.9 12-1 11.6-1.1 13.4c-.2 1.7-1.5 2.9-2.5 2.9s-.2 2.1-1 0-1.3-2.7-1.5-3.6c-.2-1-.6-2.3-.8-5s-.6-3.4.4-5.2c1-1.7 3.6-4.4 3.6-6.1s1-7.3.8-9.7c-.2-2.5 0-9.6.2-11.7s.6-3.8-.4-5.2c-1-1.3-1.5-.8-1.5-3.1s-.6-4.2.2-4.8 1.5-1.1 3.6-1.1 3.4 1 4.6 1.1c1.1.2 3.3.2 4 .2.8 0 3.2 1.5 3.6.8.4-.8 1-1.3-1-1.5-1.9-.2-2.5 0-5-.8s-3.6 0-4-1.9-2.9-3.2-.2-4.6c2.7-1.3 1.7-2.5 3.4-2.5s3.8.2 5 .4c1.1.2.8.2 2.1 1.5s2.7 2.9 2.3 1.3c-.4-1.5-3.1-4.4-3.1-6.1s.6-4.2 0-1.7.4 4.2-1.3 4-5.9-.6-5.9-.6-1.9-4.8-4.6-5.5l-2.7-.8c.3.4-1-1.7-.8-2.5" style="fill:#f27385"/><path d="M210.7 153.3s-1.9 0-2.9 3.4-2.7 6.5-3.2 10.3c-.6 3.8-1 5.3-1 6.3s2.3 5.2 2.7 4.4 0-2.1.4-3.6 1-3.1 1.5-4.4c.6-1.3 1.5-4.4 1.5-4.4s1.3.2.8 1.7c-.6 1.5-1.7 5-2.1 6.7s-.8 3.1-.4 3.6c.4.6 1.9 2.7 2.5 1.5.6-1.1.8-6.3.8-6.3s1-6.3 1-4.4 0 9.7-.4 10.9c-.4 1.1-1.5 1.9-2.1 2.7s-1.2 1.9-1.2 3.2 1.5 2.7 2.7 3.1c1.1.4 3.4 2.5 3.8 1.1.4-1.3 1.3-16.2 1.3-16.2s1.7-3.2 1.3 1-1.3 14.7-1.3 16-1.1 3.1-1.1 3.1-.4 1.7-.6 3.4 1.1 3.8 1.1 4.8-.4 4.6-.4 5 .8-3.1 1.7-4.6c1-1.5 3.4-1.7 3.2-10.3s.8-18.5.8-18.5-1.5-2.1-1.7-3.2-1.3-4-.6-5.4c.8-1.3 2.1-.9.8-1.3s-2.1 1-3.6.8-4.4-1.2-4.4-2.7-.4 2.7-.4 2.7-1.7 1.7-1.5-.4 1.5-3.2 1.7-5.3c.3-2.2.6-5.5-.7-4.7" class="st8"/><path d="M217.8 162.2s-4 1.5-3.6-.8 3.2-3.8 3.8-4.6 2.3-2.9 1.9-1.7c-.4 1.1-1.1 2.9-1.1 2.9s3.2-3.1 2.9-2.3c-.4.8-2.1 3.1-2.1 3.1s3.6-2.9 3.4-2.1-2.3 3.1-2.3 3.1 3.8-1.9 3.2-1.2c-.6.8-6.1 3.6-6.1 3.6m2.5-14.9s.4-.1.1-1.4-.9-2.6-1.7-2.6c-.9 0-2.2-.4-2.9.4-.7.9-.1 3.9 1.3 4l1.4.1s-.3 2.7 1 2.9c1.3.1 2.3-.7 2.9.1.6.9.9 2.4 1.9 2.6 1 .1 1 .9 2.1.3s1.6-1.6.9-2-.4-2.6-2-3.7-2.1-1.8-5-.7" class="st9"/><path d="M215.3 143s2.2-.6 3.2-.3.9-.7.9-.7-2.4-1-2.9-1.3c-.4-.3-1.7 0-2.7 1.3s-2.4 2.4-2.4 3.6c0 1.1 1.1 2.7 2.7 3s2.3 1 3 1.7 1.4 1.6 1.4 2.6 0 3.2-.6 1.4c-.6-1.7.6-2.6-2.9-4.1l-3.4-1.6s-.7 1.4-.3 2.3 1.1.4 1.3 1.3c.1.9.3 3.9.1 4.7-.1.9-.1 3.2-.1 3.2l.3 1.4s1.4-1.7 2-2.4 3-3.4 3-3.4 1.2-1.1 1.9-1.1.1-.6.7 0-.4 1.4-.4 1.4l1.9-.7.1 1.3.9-.4-.3 2h1.6s1 1.3.1 1.6-1.4.3-1.4.3h2.6s-1.3-2.9-1.4-3.6.1-1 .4-1.6-.8-.3-1.4-1.4c-.6-1.2-1.1-2-1.1-2s-1.1.1-2.3 0c-1.1-.1-1.7-1.1-1.9-2l-.1-.9c-.2-.1-3.7-.4-2.5-5.6" class="st6"/><path d="M149.8 138.7s4.7 4.1 6.1-1.9c1.9-8 6.1-42.4 24.1-58.4 21-18.7 49.2-17 56.5-16 17.9 2.3 45.6 15.4 55.5 45.3l3.9 16.9s1.4 16.9 4.4 17.7c0 0-11.5 2.3-15.7-6.5s-4.6-56.5-58.4-57.3c0 0-24.1-.8-38.6 21-12.8 19.2-24.8 56.4-37.8 39.2" class="st6"/><path d="M234.8 83.9h-4.7v-3.4h-3.7v3.4h-4.7v3.8h4.7v15.4h3.7V87.7h4.7z" style="fill:#858990"/><path d="M170.1 115.9c1.6.7 2.5 1 2.8.9s.5-.4.9-1.4c.3-.7.5-1.2.3-1.6-.1-.2-.4-.5-.6-.7-.1-.1-.2-.1-.1-.2q0-.15.3 0c.1.1 1.1.5 1.4.8.2.2.3.3 0 .9q-.6 1.35-.9 2.1c-.3.6-.5 1-.7 1.5-.1.1-.2.4-.3.7l-.3.9c-.1.2-.1.2-.2.2s-.1-.1 0-.2c.1-.2.1-.3.1-.5.1-.3-.2-.5-.5-.7-.5-.3-1.5-.7-2.7-1.2l-2.2-.9c-1.9-.8-2.3-1-2.7-1.1-.4-.2-.7-.1-1 .2-.1.1-.1.2-.2.4-.1.1-.1.2-.2.2q-.15 0 0-.3c.2-.6.6-1.4.8-1.7.1-.3.5-1.2.7-1.7.1-.2.1-.3.2-.2q.15 0 0 .3c-.1.1-.1.3-.2.5-.1.4.1.6.5.8s.7.3 2.7 1.1z"/><path d="M173.9 106.9q0-.15 0 0l-3.6-.5h-.1s0 .1.1.1l2.5 2.6h.1zm-.6 2.8v.2l1.4 1.5c.2.3.5.5.7.6s.4.1.6-.3l.1-.2c.1-.1.1-.2.2-.1q.15 0 0 .3c-.2.4-.5.9-.7 1.3-.1.1-.4.8-.7 1.5-.1.2-.1.2-.2.2s-.1-.1 0-.2.1-.3.2-.4c.2-.6-.1-1-.6-1.6l-6.2-6.9q-.45-.45-.3-.6c.1-.1.2-.1.5-.1.8 0 6.8.5 9.1.7 1.3.1 1.7-.2 1.9-.4.1-.2.2-.3.3-.5.1-.1.1-.2.2-.1s.1.2-.2.6c-.2.4-.7 1.3-1.2 2.3-.1.2-.2.4-.3.3-.1 0-.1-.1 0-.2 0-.1 0-.2-.2-.2l-3.1-.3c-.1 0-.1 0-.2.1z"/><path d="M177.7 98.3c-.3.1-.6.4-.9.8-.1.2-.2.3-.3.5v.1l2.8 1.6c.8.5 1 .5 1.4.3.3-.2.5-.5.7-.8.3-.5.6-1.6-.7-2.3-.7-.4-1.9-.7-3-.2m-1.9 1c.1.1.1 0 .2 0 .1-.1.2-.3.4-.5.2-.4.3-.7.3-1-.1-.5-.4-.9-1-1.2-.8-.5-2.1-.6-2.7.4-.1.2-.2.3-.2.4s0 .2.1.2zm-1 1.3c-1.8-1.1-2.1-1.3-2.5-1.5s-.7-.2-1 .1c-.1.1-.2.3-.3.4s-.1.2-.2.1q-.15 0 0-.3c.4-.6.8-1.4 1-1.6.3-.6.6-1.1.8-1.5 1.3-2.1 2.6-1.8 3.3-1.5 1 .6 1.2 1.5 1.4 2.4.9-.8 2.4-1.5 3.8-.7 1.3.8 2 2.5.7 4.7-.1.1-.3.5-.5.8s-.5.7-.6.9c-.1.1-.2.4-.4.7s-.3.6-.5.8c-.1.2-.2.2-.3.2s-.1-.1 0-.2c.1-.2.2-.3.2-.5.1-.3-.1-.5-.4-.7-.5-.3-1.4-.9-2.5-1.5zm27.3-29.2c-.5-.6-.8-.7-1.3-.7-.2 0-.4.1-.5.1s-.2 0-.2-.1.1-.2.3-.2c.7-.2 1.5-.4 1.9-.6.3-.1.9-.3 1.6-.6q.3-.15.3 0c0 .1 0 .1-.2.2s-.4.1-.5.3q-.15.15 0 .3.15.3.6.9l4.2 5.2h.1c.1-1.6.4-6.4.5-7.4v-.5c0-.1-.1-.2-.3-.2s-.4.1-.5.1-.2.1-.2 0 .1-.2.3-.2c.6-.2 1.2-.4 1.4-.4.2-.1.8-.3 1.2-.4q.3-.15.3 0c0 .1 0 .1-.2.2-.1 0-.4.1-.6.4-.1.2-.3.5-.3 1.4-.1 1.4-.2 2.2-.4 4.1-.2 2.2-.4 3.8-.4 4.6-.1.9-.1 1.1-.3 1.2s-.3-.1-.8-.6zm11.7-.5c-.4-2.1-.4-2.4-.5-2.9s-.3-.7-.6-.7h-.5c-.1 0-.2 0-.2-.1s.1-.1.3-.2c.5-.1 1.4-.2 1.8-.3.3-.1 1.1-.2 1.6-.3.2 0 .3 0 .3.1s-.1.2-.2.2-.2.1-.4.1c-.4.1-.4.4-.4.9 0 .4.1.8.5 2.9l.4 2.4c.2 1.3.4 2.4.6 3 .1.4.2.6.6.6.2 0 .5 0 .7-.1.1 0 .2 0 .2.1s-.1.2-.2.2c-.9.1-1.8.2-2.1.3s-1.2.2-1.7.3c-.2 0-.3 0-.3-.1s0-.1.2-.1.4-.1.5-.1c.3-.1.3-.3.3-.7 0-.6-.2-1.7-.4-3zm7 3.6c0 1.1.2 1.4.5 1.5.2.1.5.1.7.1s.2 0 .2.1-.1.1-.3.1h-1.7c-.1 0-.8.1-1.5.1-.2 0-.3 0-.3-.1s.1-.1.2-.1c.2 0 .4 0 .6-.1.3-.1.4-.5.4-1.7l-.1-8.1c0-.3 0-.5.2-.5.1 0 .3.2.5.4s2.3 2.4 4.4 4.3c1 .9 2.9 2.8 3.1 3.1h.1l-.3-6.2c0-.8-.2-1.1-.5-1.2-.2-.1-.5-.1-.7-.1s-.2 0-.2-.1.1-.1.4-.1h1.7c.1 0 .7-.1 1.3-.1.2 0 .3 0 .3.1s-.1.1-.2.1h-.4c-.4.1-.5.4-.5 1.2l.1 8.7c0 .3 0 .4-.2.4-.1 0-.3-.1-.5-.3-.9-.8-2.7-2.6-4.2-3.9-1.5-1.4-3.1-3.1-3.4-3.4h-.1zm11.6.6c-1.2-1.3-1.4-2.9-1.2-4.2.1-.9.6-2.5 2.1-3.5 1.1-.8 2.5-1.2 4.5-.9.8.1 1.3.2 2 .4.5.1.9.3 1.3.4.2 0 .2.1.2.2s-.1.3-.2.7-.2 1.2-.2 1.5c0 .2-.1.3-.2.3s-.1-.1-.1-.3c0-.4-.1-.9-.4-1.3-.4-.5-1.4-1-2.7-1.2-1.2-.1-2 .1-2.7.5-1.1.8-1.5 2.1-1.7 3.4-.4 3.3 1.9 5.2 3.7 5.4 1.2.1 2 .1 2.6-.5.3-.2.5-.6.6-.8s.1-.3.2-.3.1.1.1.2c0 .2-.3 1.3-.5 1.8-.1.2-.2.3-.4.4-.6.1-1.6.1-2.5 0-1.8-.4-3.3-1-4.5-2.2m11.3-3.3c.6-2 .7-2.4.7-2.8.1-.5 0-.7-.2-.9-.1-.1-.3-.1-.5-.2-.1 0-.2-.1-.2-.2s.1-.1.4 0c.5.1 1.3.4 1.7.5.3.1 1.1.3 1.6.4.2 0 .3.1.2.2 0 .1-.1.1-.2.1s-.2 0-.4-.1c-.4 0-.5.2-.7.6-.1.4-.2.8-.8 2.8l-.6 2.3c-.4 1.3-.6 2.3-.8 2.9-.1.4 0 .6.4.8.2.1.5.2.7.2s.2.1.2.2-.1.1-.3.1c-.9-.2-1.7-.5-2.1-.6-.3-.1-1.2-.3-1.7-.4-.2 0-.3-.1-.2-.2 0-.1.1-.1.2-.1.2.1.4.1.5.1.3 0 .4-.2.6-.6.2-.5.5-1.6.9-2.9zm8.8-.4-1.9-.7c-.7-.3-1.1-.4-1.4-.1-.2.1-.3.3-.4.3-.1.1-.1.1-.2.1q-.15 0 0-.3c.1-.2.8-1.3.9-1.3.1-.1.2-.2.3-.2s.2.2.5.4.8.4 1.2.6l5 2.1q.6.3.9.3c.2 0 .3.1.4.1q.15 0 0 .3c-.1.3-.5 1.1-.7 1.5-.1.1-.1.2-.2.2q-.15 0 0-.3v-.1c.1-.3-.1-.8-1.2-1.3l-1.6-.7-2.2 5.2c-.5 1.2-.9 2.2-1.1 2.7-.1.4-.1.7.2.9l.6.3c.1.1.2.1.2.2s-.2.1-.3 0c-.8-.4-1.6-.7-2-.9-.3-.1-1.1-.4-1.6-.6-.2-.1-.2-.1-.2-.2s.1-.1.2 0c.2.1.4.1.5.1.3.1.5-.2.7-.5.3-.5.7-1.5 1.2-2.7zm24.7 30.8c-1 .5-1.2.8-1.2 1.1 0 .2.1.5.2.7q.15.15 0 .3c-.1.1-.2 0-.3-.2-.4-.8-.6-1.3-.7-1.6 0-.1-.4-.7-.7-1.3q-.15-.3 0-.3c.1 0 .1 0 .2.1.1.2.2.4.3.5.3.3.6.2 1.7-.3l7.4-3.3c.3-.1.4-.2.5 0 .1.1 0 .3-.2.6-.1.2-1.2 3.1-2.2 5.7-.5 1.2-1.5 3.8-1.6 4.1v.1l5.5-2.7c.8-.4.9-.6.9-.9 0-.2-.2-.5-.2-.7-.1-.2-.1-.2 0-.3q.15 0 .3.3c.3.7.5 1.3.7 1.5.1.1.3.6.6 1.2q.15.3 0 .3c-.1 0-.2 0-.2-.2-.1-.1-.1-.2-.2-.4-.3-.3-.6-.3-1.3 0L279 110c-.3.1-.4.1-.5 0s0-.4.1-.5l2-5.4c.7-2 1.6-4.1 1.8-4.4zm9 8.7c1.9-.9 2.2-1 2.6-1.2s.6-.4.5-.8c0-.2-.1-.3-.2-.5q-.15-.15 0-.3c.1 0 .1.1.2.3.2.5.5 1.3.7 1.6.1.3.5 1 .7 1.5q.15.3 0 .3c-.1.1-.2 0-.2-.1-.1-.1-.1-.2-.2-.4-.2-.3-.5-.3-.9-.1s-.8.3-2.7 1.2l-2.2 1c-1.2.6-2.2 1-2.7 1.3-.3.2-.5.4-.4.8 0 .2.2.5.2.7.1.1.1.2 0 .2s-.2 0-.2-.2c-.4-.8-.7-1.6-.9-2-.1-.3-.5-1.1-.8-1.6q-.15-.3 0-.3c.1 0 .1 0 .2.2s.2.3.3.4c.2.2.4.2.8.1.5-.2 1.5-.6 2.7-1.2z"/><path d="M288 120.1q0 .15 0 0l2.7-2.4.1-.1h-.1l-3.6.1c-.1 0-.1 0-.1.1zm-1.7-2.3c0-.1-.1-.1-.2-.1l-2.1.1c-.4 0-.7.1-.8.1-.2.1-.3.3-.2.7l.1.2c.1.2 0 .2 0 .2-.1 0-.2 0-.2-.2-.2-.4-.4-1-.5-1.4-.1-.1-.4-.8-.7-1.5-.1-.2-.1-.2 0-.3.1 0 .1 0 .2.1s.1.3.2.4c.3.6.9.6 1.6.6l9.3-.2c.4 0 .6 0 .7.1s0 .2-.3.5c-.6.6-4.9 4.8-6.5 6.4-.9 1-1 1.4-.9 1.7 0 .2.1.4.2.6 0 .1.1.2 0 .2s-.2-.1-.4-.5c-.2-.5-.6-1.4-1-2.4-.1-.2-.1-.4-.1-.4.1 0 .1 0 .2.1q.15.15.3 0l2.3-2.1c.1-.1.1-.1 0-.2zM185.5 87.3c-2.4-1.9-5-1.6-6.4.2-1 1.3-1.4 3.2 1.4 5.3 2.3 1.7 5 1.9 6.6-.2.6-.8 1.6-2.9-1.6-5.3m-5.9 7.2c-1.9-1.4-3.3-4.5-.8-7.8 2.1-2.7 5-3.2 7.5-1.3a5.4 5.4 0 0 1 1 7.9c-2.4 3.3-5.7 2.7-7.7 1.2m10.2-12c.1.1.2.1.3.1q.45-.15.9-.6c.4-.3.5-.5.6-.8.1-.5 0-1.2-.7-2.1-1.2-1.5-2.6-1.1-3.2-.6-.3.2-.4.4-.5.5v.2zm-1.9.2c-1.3-1.6-1.6-1.9-1.9-2.2s-.5-.5-1-.2c-.1 0-.3.2-.4.3q-.15.15-.3 0c-.1-.1 0-.2.1-.3.6-.5 1.2-1 1.5-1.2.4-.3 1.1-1 1.5-1.3.7-.6 1.4-1.1 2.3-1.2.5 0 1.3.1 1.9.9.7.8.9 1.8.6 3.5 1.9.4 3.4.7 4.6.9 1.1.1 1.6-.2 1.8-.3.1-.1.2-.1.3-.2s.1-.1.2 0 0 .2-.1.3l-1 .8c-.6.5-.9.7-1.3.7-.7.1-1.5 0-2.7-.4-.9-.2-2-.6-2.3-.6-.1 0-.2 0-.3.1l-.9.7c-.1 0-.1.1 0 .2l.1.1c.8 1 1.5 1.8 1.9 2.2.3.3.5.5.9.2.2-.1.4-.3.6-.4.1-.1.2-.1.2 0 .1.1 0 .2-.1.3-.6.5-1.4 1.1-1.6 1.3s-.8.8-1.3 1.1c-.1.1-.2.1-.3.1 0-.1 0-.1.1-.2.2-.1.3-.3.3-.4.2-.2 0-.5-.2-.8-.3-.5-1-1.3-1.8-2.3zm79.4 2.8c1.8-2.5 1.5-5.1-.3-6.4-1.3-.9-3.2-1.3-5.3 1.5-1.7 2.3-1.8 5.1.4 6.6.8.6 2.8 1.5 5.2-1.7m-7.4-5.7c1.4-1.9 4.4-3.4 7.8-1 2.8 2 3.3 4.9 1.4 7.4s-5.1 3.3-7.9 1.2a5.24 5.24 0 0 1-1.3-7.6m15.5 5.7c.2-.1.4-.1.4-.1.1.1.1.2-.1.6l-3.4 7.9 8.4-2.3c.2-.1.4-.1.5 0s0 .2-.2.5l-5.6 6.5c-.6.7-.8 1-.6 1.4s.3.6.5.7c.1.1.1.2.1.2-.1.1-.2 0-.3-.2-.2-.3-1.4-1.7-1.8-2.2-.2-.3-.2-.3-.1-.4h.2c.1 0 .2 0 .5-.3l4-4.6-6.7 1.8c-.7.2-.8.2-.9.1s0-.4.2-.8c.3-.7 1.1-2.9 1.3-3.2.1-.3.9-2 1.4-3.1l-4.6 3c-.2.1-.4.2-.5.4-.2.2-.2.4-.1.6s.2.4.3.5.1.2.1.2c-.1.1-.2 0-.3-.2-.4-.4-.7-.9-.9-1.1s-.6-.7-.9-1q-.15-.15 0-.3c.1 0 .1 0 .2.1s.1.2.3.3c.3.2.8 0 1.2-.3z"/><path d="M349.4 103.4c0 14.5-11.7 26.2-26.2 26.2S297 117.9 297 103.4s11.7-26.2 26.2-26.2c14.4 0 26.2 11.7 26.2 26.2" class="st12"/><path d="M345.2 103.2c0 13.3-10.8 24.2-24.2 24.2s-24.2-10.8-24.2-24.2S307.6 79 321 79c13.3.1 24.2 10.9 24.2 24.2" class="st6"/><path d="M321 127.7c-13.5 0-24.5-11-24.5-24.5s11-24.5 24.5-24.5 24.5 11 24.5 24.5-11 24.5-24.5 24.5m0-48.3a23.9 23.9 0 1 0 0 47.8 23.9 23.9 0 0 0 0-47.8" class="st12"/><path d="m337.9 99.8 4.4 1.6s.2.6-.1.7c-.3.2-4 1.2-4 1.2s-.2-.6.3-.6h.6s-.6-.5-.3-2l-.7-.6c-.1.1-.6.1-.2-.3" class="st12"/><path d="M340 101.4c0 .2-.2.4-.4.4s-.4-.2-.4-.4.2-.4.4-.4.4.2.4.4" class="st6"/><path d="M337.3 97.9s1.1-.8 2.6-.4l1.9.5s-1.6-1.1-1.9-1.2c-.3-.2-1.5-.4-2.4-.2-.8.3-1.1 1.3-.2 1.3m-3.4 12s2.8-.7 2.9-1c.3-.8.3-1 .3-1.4s-.3-1.1 0-1.1.6.3.6.7c.1.3.2 1 .2 1.3s-.2 1-.7 1.3-3.1.6-3.1.6-.1 0-.2-.4" class="st12"/><path d="M334.5 111.8c-2.6 6.4-9.2 10.7-16.5 10.7a18.1 18.1 0 1 1 17.8-21.4s.1.8-.4 1.5-2.9 5.5-2.9 5.5-.5 1.5.7 2.1l1.3.1s.5.5 0 1.5" class="st1"/><path d="M318 122.8c-10.1 0-18.4-8.3-18.4-18.4S307.9 86 318 86c8.9 0 16.5 6.3 18.1 15 0 .1.1.9-.4 1.7-.4.5-2.1 3.8-2.9 5.4 0 0-.4 1.2.5 1.7l1.4.1.1.1s.6.6.1 1.9c-2.7 6.6-9.5 10.9-16.9 10.9m0-36.2c-9.8 0-17.8 8-17.8 17.8s8 17.8 17.8 17.8c7.2 0 13.7-4.2 16.3-10.5.3-.6.2-1 .1-1.2l-1.3-.1c-1.1-.6-1.1-1.9-.9-2.5.1-.2 2.5-4.8 3-5.5.4-.6.3-1.3.3-1.3-1.5-8.4-8.9-14.5-17.5-14.5" class="st12"/><path d="M336.4 113.9s-2.1-.8-2.5-1.4c-.3-.6-1.6-.3-1.5.7l.1 1.1s-1-.3-1.3.7 1.1 1.3 2.2 1c1.2-.4 2.6-.7 3-2.1" class="st12"/><path d="M256 245.1c0 16.2-13.1 29.3-29.3 29.3s-29.3-13.1-29.3-29.3 13.1-29.3 29.3-29.3 29.3 13.1 29.3 29.3" style="fill:#ffd02c"/><path d="M226.7 274.9c-16.5 0-29.9-13.4-29.9-29.9s13.4-29.9 29.9-29.9 29.9 13.4 29.9 29.9c-.1 16.5-13.5 29.9-29.9 29.9m0-58.6c-15.8 0-28.7 12.9-28.7 28.7s12.9 28.7 28.7 28.7a28.7 28.7 0 0 0 28.7-28.7c0-15.8-12.9-28.7-28.7-28.7"/><path d="M208.9 239.8c0-6 0-7.1-.1-8.4s-.4-2-1.7-2.2c-.3-.1-1-.1-1.5-.1-.4 0-.7-.1-.7-.4s.3-.4.9-.4c2.1 0 4.6.1 5.7.1 1.6 0 3.9-.1 5.7-.1 4.9 0 6.7 1.7 7.3 2.2.9.8 2 2.6 2 4.7 0 5.6-4.1 9.5-9.7 9.5h-3.1c-.2 0-.5-.1-.5-.4s2.5-.4 3.3-.4c2.2 0 5.3-2.5 5.3-6.5 0-1.3-.1-3.9-2.3-5.9-1.4-1.3-3-1.5-3.9-1.5-.6 0-1.2 0-1.5.2-.2.1-.3.3-.3.8v15.8c0 3.6 0 1.5.2 3.2.1 1.1.4 2 1.5 2.1.6.1 1.4 1.4 2 1.4q.6 0 .6.3c0 .3-.3.4-.8.4-2.6 0-5.1-.1-6.1-.1-.9 0-3.4.1-5 .1-.5 0-.8-.1-.8-.4q0-.3.6-.3c.6 0 1.1-1.4 1.4-1.4.8-.2 1-1 1.1-2.2.2-1.7.2.5.2-3.1v-7z"/><path d="M233.1 244.8c0 5 .8 5 1.6 5.7.7.6 2.1 1.6 4 1.6 2.1 0 11 0 12-1.1.5-.5.9-1.6 1-2.4 0-.4.1-.6.4-.6s.3.2.3.7c0 .4-.3 3.4-.6 4.5-.2.9-.4 1.1-2.5 1.1-2.8 0-12.2-.1-14-.1-1.8-.1-3.2-.1-4.8-.1h-2.3c-.9 0-1.9.1-2.7.1-.5 0-.8-.1-.8-.4q0-.3.6-.3c.6 0 1.1-.1 1.4-.2.8-.2 1-1 1.1-2.2.2-1.7.2-.8.2-4.4v-6.9c0-6 0-7.1-.1-8.4s-.4-2-1.7-2.2c-.3-.1-.8-.1-1.3-.1-.4 0-.7-.1-.7-.4s.3-.4.9-.4c1.9 0 4.3.1 5.4.1 1 0 3.8-.1 5.4-.1.6 0 .8.1.8.4s-.2.4-.7.4c-.4 0-1.1 0-1.5.1-1.1.2-1.4.9-1.4 2.2-.1 1.3-.1 2.4-.1 8.4v5z"/><path d="m241.8 243.4-2.7 3.2c.5.3 1 .5 1.5.4.5 0 .9-.3 1.2-.7.3-.3.4-.6.5-1 0-.3-.2-1-.5-1.9m1.7-3.9 2.2-2.6c-.9-.4-1.5-.3-2.1.3-.5.6-.6 1.4-.1 2.3m-6.2 7.3a7 7 0 0 1-1.7-2.4c-.3-.8-.2-1.4.2-1.9.2-.2.5-.4.8-.4q.45-.15.9.3c.4.4.6.9.4 1.6-.2.8-.1 1.5.2 1.9l3.1-3.7c-.8-1.5-1.1-2.7-1-3.6q.15-1.35.9-2.1c.6-.7 1.4-1.1 2.3-1.3 1-.2 2 .1 3 .8l3-3-1.3 3-.7.8c.8.7 1.3 1.4 1.6 2.4.3.9.2 1.6-.3 2.2-.2.3-.5.4-.8.4s-.6-.1-.8-.2c-.4-.4-.5-1-.1-2 .2-.7.1-1.2-.3-1.8l-2.6 3.1c.9 1.7 1.3 3 1.3 4 0 .9-.3 1.8-.9 2.5-.7.8-1.6 1.3-2.7 1.4s-2.3-.2-3.5-1l-3.3 3.9-.9-.8zm-8.3 19.7h-4.3v-.6c.4 0 .6 0 .8-.1s.3-.2.4-.3.1-.3.1-.6V258c0-.4-.1-.6-.2-.8-.1-.1-.5-.2-1-.2v-.6h4.3v.6c-.4 0-.6 0-.8.1s-.3.2-.4.3-.1.3-.1.6v6.8c0 .2 0 .4.1.6.1.1.2.3.3.3.2.1.4.1.8.1zm4.9 0h-4.3v-.6c.4 0 .6 0 .8-.1s.3-.2.4-.3.1-.3.1-.6V258c0-.4-.1-.6-.2-.8-.2-.1-.5-.2-1-.2v-.6h4.3v.6c-.4 0-.6 0-.8.1s-.3.2-.4.3-.1.3-.1.6v6.8c0 .2 0 .4.1.6.1.1.2.3.4.3.2.1.4.1.8.1v.7zm-89.8 8.2 6.1 4.6 3.1.4s-6.5-5.7-5.7-15.7l-5 4.2c-.1 0 3 4.2 1.5 6.5m5.3 26.4s-3.8-1.5-1.5-12.2l-11.5-8.4-3.1-3-5-5 4.2-5s2.3-13.8 10.3-19.5c0 0-.8-6.1 6.9-8.4l.8-5.7s1.9-.4 3.1-.4c1.1 0-1.1-6.5-1.1-6.5l-3.4-.4-2.7-3.4 4.6-.8s-7.3-2.7-5.3-6.9l1.9-4.2s-1.9-3.8 3.1-5.7 6.5-.8 6.5-.8.8-2.7 4.2-1.9 4.2 4.6 4.2 4.6 3.4-2.7 5.7-.8-.8 6.5-.8 6.5l-1.9 3.4s3.8 3.1 6.5 1.5c0 0 .4 4.2-5 5l1.5 7.3s1.5 1.9 0 5.7 2.7 1.9 2.7 1.9v2.3s5.7.8 6.1 7.6c.4 6.9.4 3.1.4 3.1s3.4 9.5 3.1 16.4l14.1-.8 3.4-4.2 3.4-5.4s1.9-.8 1.9 1.1-1.1 5-1.1 5l4.6 3.4-7.6 3.4-.4 2.7s-11.5 6.1-18.3 6.5l-6.9.4 7.6 8.8-2.3 2.3s2.7 5.7 0 7.6c0 0 3.8 9.6 4.2 20.6 0 0 4.2 7.3-.8 8.8 0 0 4.6 15.3-2.3 31.3l8 10.7s.8 3.1-3.4 3.1-11.1-6.9-11.1-6.9l-.8-4.6-.8-6.9s-1.9-16.4.4-28.3c0 0-8.8-18.7-8.8-23.3 0 0-3.1 14.1-6.5 19.1 0 0 2.3 6.9-1.5 8.8 0 0 5.3 13.4 0 25.6l-.4 3.8s1.9 2.3.4 4.6-4.6 9.9-9.5 9.9c-5 0-1.5-5-1.5-5l3.4-8.8-2.7-29.4v-12.6l-16 14.1s-4.6 0 0-5 15.7-15.3 15.7-15.3-1.6-5.3 1.1-11.4"/><path d="m148.1 223.9 5.7-1.3-2.9-2.1s.3.3.4-2.2 1.9-.9 2.1-2.9c.1-2.1 2.2-2.6 2.2-2.6l3.1-.1s3.8.6 5.1 1.8 5.1 4.5 6.2 4.8c1 .3 2.6.6 3.5.4 0 0-.9 2.6-4.7 2.3s-6.2.9-7.6 1.6c-1.5.8-8.4 6-13.1.3" class="st14"/><path d="M148.3 211.8s-2.1 4.2-1.8 5.3c.3 1 4 3.7 4 3.7s-.1-2.5.3-3.7 2.2-1.2 2.2-1.2.3-3.2 1.8-3.7c1.5-.4 3.8-.3 3.8-.3l2.9.4 2.6 1.5 3.4 2.1s5.9-7.5 2.5-8.5-5.1 2.1-5.1 2.1-.4-5.7-5-5.7l-2 2.8s-2.2-1.2-4.5-.6c-2.4.6-4.8 1.2-4.8 2.8-.2 1.5-.3 3-.3 3" class="st15"/><path d="M158.8 228.9s-.6-2.5.9-2.9 3.2 0 4.1-.9 1.6-1.5 3.1-1.6 2.5 0 2.5 0 1.8 6.3 1.8 7.1c0 .7-1.2.8-2.8.9s-3-.2-3.9 1.4-2.3 1.6-2.3 1.6l-2.2-2.3s-4 1.2-3.7-1.2c.2-2.4 1.5-2.4 2.5-2.1m6.6 5.9s.1-1.2 1.5-1.5c1.3-.3 2.6-.3 2.6-.3s.7-.6.7.4-.7 2.3-.7 2.3l-1-1.2-1.2.3.4 1.5c.1.1-2.3.7-2.3-1.5" class="st9"/><path d="m150.8 239.9.7-5.1s.1-.1.7-.2 2.3-.3 2.7-.3 1.2.3 2 1 2.2 2 3.8 2.4 2.4.2 3.2.9c.9.7 1.3 1 2.7 1 1.3 0 3.3-.6 3.8-1s-.1-.2.6.3 2 .5 2 .5.2-.1.3.8.1 2.1.1 2.1.8.9-.4.9c-1.1 0-1.9.1-1.9.1V240s-.7-.6-.7.3v4s.5.3-.9.3h-2.1v-4.2s-.8-.8-.9 0-.2 4.4-.2 4.4-1.5.2-2.3.2-.9-.7-.9-1.1c0-.5.1-3.9.1-3.9s-.7-.6-.8 0 0 4.7 0 4.7-1 .2-1.6.2c-.7 0-2.2-1-2.2-1l.3-5s-1.1-1.1-1.2-.1c-.1 1.1-.7 4.4-.7 4.4s-.8-.1-1.3-.3c-.6-.2-1.1.1-1.1-1v-5.4s-.9-.6-.9.2-.3 4.8-.3 4.8-2.6.6-2.6-1.6" class="st6"/><path d="M144.1 247.3s4.7 3.4 6.3 3.4 1.6 1.3 3.1-.2c1.4-1.5 2.1-2.8 2.1-3.8s.7-1.8-.3-2.7-2.6-1.2-3.3-1.6c-.8-.5-1.6-1.3-1.7-1.7s-3.6.4-4.7 2c-1.2 1.7-1.7 3.6-1.5 4.6m27.1-2.1s.4-1 1.5-1.5c1.2-.6 1.3-1 1.3-1.7 0-.8.6-.8 1.6-.4 1.1.4 3.3 2.4 3.6 3.8s.6 4.5.6 4.5v1.8s-.7.1-1.9.1-3.6.2-4.6-.9c-.9-1-2.1-3.7-2.1-5.7" class="st14"/><path d="M156.5 244.8s3.8.7 5.2.6c1.3-.1 3.9 1.6 4.9 2.6s3.1 3.6 3.1 5.3c0 1.6.2 18.7.2 18.7s.6 8.7-3.4 9.3-10.7-.3-12-1.6-6.9-7.9-5.9-15.8c1-7.8 4.5-12.5 6.2-13.4 1.5-.9 1.9-5.2 1.7-5.7" class="st14"/><path d="M170.6 245.1s.4 7.2 4.3 7.5l3.9.3s-.2 9.1-.3 10c-.1 1-2 14.2-3.8 16.4s-5.3 2-5.3 2 0-1.1.8-3.8.6-17.1.6-18.9-.6-6-1-7.6c-.5-1.6-3.2-4.1-3.7-4.7-.6-.6-.4-.7.6-.8zm-26.9 3.5s6.7 3.3 7.6 3.9c0 0-3.2 7.6-3.3 9.9s-5.6 5.3-5.6 5.3l-2.1.9-7.6-1.1c-.1 0 5.3-16.3 11-18.9m-11.5 19.6s7.3.7 8.3.9c1 .1 1.6-.6 1.9.6.3 1.1 1.6.1 1 5.3s-7 2-7.7 1.9-4.3-1.6-5-2.7c-.7-1.2-1.3-1.6-1.3-1.6z" class="st14"/><path d="M133.2 276.4s6.6 4.4 9.6 1.4l1.6-2.6 11.3 10s-.7 5.4-2.9 5.7c.1.1-16.7-9.6-19.6-14.5m46.2-22.9s.8-1.5.8-.4 2.9 7.4 3.1 15.1l14.1-1h1.5l2.9 2.9-.2 2.1s-14.5 8-24.6 5.7c0 0 1.4-1.7 2-6.3.5-4.5 1-10.4.4-18.1m-26 28.3s2.5.2 5.5.4c3.1.2 4.6.2 7.1.2s3.1.6 6.3-.4 3.8-1.9 3.8-1.9l7.6 8.2s-5 3.8-7.5 1.3l-3.4-3.4s.2-.2-2.5-.2-3.6.4-3.6 1.7-1.5 1.9-1.5 1.9l-1.1-.2s2.3-1.5-.2-2.3-5.2-1.1-5.2-1.1l-2.5-1.1c.1 0-.7-2.3-2.8-3.1m-4.6 8.2 4.6 2.3s1.7 2.1 2.7 2.5 1.1 1.7 1.1 1.7-5-.4-7.1-.8c-2-.4-2.6-1.9-1.3-5.7m.8 11.7s13.7 3.8 16.2.2c0 0 .4-.4.4 1.3s-4 16.8-5.7 18.9-10.3-2.3-10.9.4c0 0-2.5-13.8-.2-21.4" class="st14"/><path d="M149.4 323.4s2.1-1.3 4.6-.8c2.5.6 5 1.9 6.3.8 0 0 1.5 5.9-1.3 7.4 0 0-6.5 2.1-9.2-.8z" class="st14"/><path d="M149.2 331.1s5.2 3.2 9.4.9c0 0 2.5 6.9 2.3 15.3 0 0-1.4 7.4-1.9 9.2-.6 1.7-.4 3.8-.4 3.8l-7.3.8zm18.4-28.5 8.2 23.7s2.1-.4 2.1-2.1-.2-2.9 1.1-3.8 7.4-1.3 7.4-1.3-3.6-18.1-4.2-20.6c0 0-2.1 1.5-4 1.2l-1.9-.4s-1.9.8-4.2 1.7c-2.3 1-5.5 1-5.2 2.1" class="st14"/><path d="M179.2 323.4s.4-2.5 3.8-2.7 4.6-.2 4.6 2.9-1.1 3.8-2.9 4c-1.7.2-5.4 1-5.7-1.1-.4-2.1-1.3-1.7.2-3.1" class="st14"/><path d="m175.9 327.4 2.1-.8s2.3 3.2 7.3 2.1c0 0 2.7 19.3-1.9 30.4 0 0-5.5-1.5-6.7 1.3 0 .1-2.8-17.5-.8-33" class="st14"/><path d="M147.7 295.1c0-.1 2.2 1.6 2.9 1.6s1.1.1 1.1.1 3.5 5.1 3.9 5.5l.4.4s-5.7-1.3-6.3-2c-.6-.8-2.5-2.3-2-5.6m5.6 1.7s3.3 5.4 4.1 5.6c.9.2 1.7.3 3.1.2 1.5-.1 2.1-.3 2.1-.3l-3.6-5.4c.1.1-4.8.8-5.7-.1m7.5.6s1.7.3 2.5-.3c.7-.6.8-1.4.8-1.4s.2-.5.7-.7c.6-.2 1 0 1 0l3.1 6-1.6.6s-1.4-.3-1.6-.1-1.3.7-1.9.8c-.4.1-3.4-4.3-3-4.9m4.9-7.2s1.7-.9 1.7-1.4.2-2 1-2c.9-.1 3.6-.2 3.9 0 .4.2 1.4 1.4 1.4 2.6s.3 8.9.3 8.9-.4 1.2-1.2 1.5c-.8.2-2.9 1.3-3.3 1.2-.4-.2-2.9-5.4-2.9-5.4s.1.3.5-.9c.4-1.3.1-2.2-.4-2.5-.5-.2-1-.2-.9-.6.1-.5-.1-1.4-.1-1.4m8.5-1.2s.6 7.1.6 7.3-.5 2.2.1 2.2 1-.2 1-.2 3.6.5 4.6.2c1-.2 1.4-.3 1.7-.8s.9-1.6.9-2.5-1.5-4.7-1.5-4.7-1.5 0-2.2.2-1.2.5-2 .3-2.7-2.1-2.7-2.1-.5-.4-.5.1" class="st16"/><path d="M156.3 285.9s1.7.7 2.6.9c.9.1 4.9 1.3 4.9 1.3s.9 1.3-.7 1.4-2.4-.3-2.4-.3 4.7 1.6 4.7 2.3-.9.7-.9.7l-4-1.4s5 2.1 5.9 2.1 1 1.4 0 1.4-2.9-.1-2.9-.1l-3.2-1.3 3.3 1.9s1 1.4-.3 1.3-3.7-2.4-3.7-2.4 2.6 2.6 1.9 2.6-1.2.3-2.4-.4c-1.3-.7-4.2-3-4.6-4s1.1-2.1 1.6-3.6c.3-1.6.2-2.4.2-2.4m43.2-19.5s1.9 3 2.7 2.7c.9-.3 6.2-2.7 6.2-2.7l-3.6-3.2s1.1-2.9 1.1-4 .1-2.2-.4-1.9c-.6.3-3.2 5.3-4.9 6.3-1.6 1.1-1.5 2.5-1.1 2.8" class="st9"/><path d="m148.5 314.4.3 3.2-16.7 14.4s-.4-1.1 1-2.6c1.3-1.4 15.4-15 15.4-15" style="fill:#baccd5"/><path d="M167 231.1s1.8.3 2-.1c.2-.5-.8-4.4-.8-4.4l-.5.7.6 3.2s-1.5.5-1.5-.6c0 0-.5.2 0 1"/><path d="M163.6 228s1.5-1.1 2.6-1.1 1.6.3 1.6.3l-1.9.5-2.1.8s-1 0-.2-.5"/><path d="M168.3 226.6s2.2-.1 2.4.3l-.1.6s-1.6-.7-2.3-.2-.5 0-.5 0-.1-.7.5-.7"/><path d="m250.5 266.5 15.5.6s2-11.2 3.7-13.5-1.1-.3-1.1-.3l4.3 2.3-.9 11.2-.9 8.9s-.9 2-4 1.4-19.2-5.2-19.2-5.2 1.8-4.5 2.6-5.4m18.6-16 4.6 3.4 5.4-5.7s-2-5.7-6.3-4.9c-4.2.9-4.8 6-3.7 7.2m13.8-30.7s3.1 3.4 4.6 4.6c1.4 1.1 7.7 2.3 7.7 2.3s3.2 1.1 5.7 1.1 3.7-.3 3.7-.3l-2-1.7.9-4.3s-.3-3.4-2.3-4.9l-6.9-4s-2 0-2.3 2.9-1.7 5.4-2.6 5.4-3.4-1.4-3.4-1.4-3.1-1.4-3.1.3" class="st14"/><path d="M282.6 231.9s.9 2 3.4 2.3c2.6.3 4.9 2 7.4.9 2.6-1.1 3.2-4 3.2-4s1.2-2-.9-2.6c-2-.6-5.7-1.7-6.9-2s-2.6-1.1-2.9-.3c-.1.8-2.1 5.7-3.3 5.7m2 3.7s2.6 0 2.6 1.4-1.7 2.3-2.6 2c-.8-.3-2-2.6 0-3.4" class="st9"/><path d="M302.1 214.1s-.9-2-.9-4 1.7-2.6 2.6-2.3 4.3 3.7 4.3 3.7l.6 2.9-3.2 11.7s-2.6 1.1-1.7-2.3 2-4.9.3-6.3-1.2.6-1.7-1.4m6 15.5s.9-3.2 1.1-4c.3-.9 2-11.2 2-11.2s3.2 3.7 4 4.3c.9.6 2.3 2.9.9 6.6s-1.7 7.4-4.6 7.2c-2.8-.4-3.4-2.9-3.4-2.9" class="st15"/><path d="m279.2 248.2 5.2 1.7-1.7 7.4s-2.9 0-5.1-.9l-2.3-.9c-.1.1 4.7-3.6 3.9-7.3m5.4 2.3s10.3.3 12.3-1.4l2-1.7-3.4 8.9s-5.4 1.7-11.5 1.1zm-10.6 6s5.1 2 7.2 2l-2.9 23.8s-4.6.3-6.9-1.1c0 0 1.4-8 1.4-10.3.1-2.4 1.2-14.4 1.2-14.4m9.5 3.1-3.4 22.6s2.6 2.6 5.7 2.6h3.2l7.2-27.2c-.1 0-11.6 2.9-12.7 2m18.9-6 2-9.5s5.7 0 6.3 4.6l.6 4.6s-5.5 2-5.5.6-3.1 1.1-3.1 1.1zm-8.9 31.3 3.1-.3s4-15.8 5.2-18.9l1.1-6.6v-2.6l-2.9 1.1zm-29.8 5.4s-1.4 1.7 1.1 1.7h4.9s3.4-3.4 5.2-3.7c1.7-.3 4 0 4 0s2.3 1.2 2.9 3.4c.6 2.3.3 4 1.7 4h3.2l1.7-9.5s-3.7.6-6.3-1.1-3.7-1.7-3.7-1.7h-9.1s-2.9 6.6-6.6 7.4m35.1-5.1s1.7 4.6 1.1 6.6 13.5-11.5 13.5-11.5-4.3-3.7-5.7-4c-1.5-.3-5.8 8.1-8.9 8.9m8.6-10.6 6.6 4s1.7-.9 2-3.2l.3-2.3s-7.5-.6-8-1.7c-.6-1.1-2.3 1.2-.9 3.2m-2-19.5s-1.1 5.2 1.1 8.3c2.3 3.1 1.7 5.7 1.7 5.7s5.4 4.3 7.7 2.3l-3.4-17.2c0 .1-6 2.4-7.1.9m-37.3 49.9s8.6 2.9 10.3 2.3 1.4 10.9 1.4 10.9l-2.9 15.5-9.7-2.3c.1-.1-2.2-21.6.9-26.4m-1.4 28.9s1.2-1.1 4.3-.9c3.2.3 5.4 1.7 5.4 1.7l-1.2 5.2s-2 1.7-4-.3c-1.9-2-5.1-2.3-4.5-5.7m2.3 5.7s3.4 2.9 4.9 2.3c1.4-.6 1.2 1.7 1.2 1.7l-5.7 21.5c-.1 0-3.5-4-.4-25.5m14.6-15.7 3.4 9.5s6.9-1.4 7.7 1.4l2.6-24.9s-4.3 0-6.3-1.4-3.4-1.7-3.4-1.7l-3.4 15.7" class="st14"/><path d="M284.9 338.7s1.4-3.2 4.3-3.4c2.9-.3 4.6-.9 4.6 2.3 0 3.1-1.4 4.3-3.4 4.3-2.1 0-5.5 0-5.5-3.2" class="st14"/><path d="M284.9 341.8s6.6 3.2 8.6.3c0 0 1.1 13.2-2 27.2l-4.3-1.7s-2.6-17.4-2.3-25.8" class="st14"/><path d="M272 366.8s4.3-13.7 4.3-16.9c0 0-2.9 5.7-4.3 16.9" style="fill:#9ebccb"/><path d="M264.9 293.4s5.4.9 7.2-.6c0 0-2 2.3-1.7 5.4.3 3.2 1.1 4.9 2.9 6.6 0 0-2.9 1.4-4-.6s-3.2-5.7-2.9-7.4-.6-3.7-.9-1.4.9 6.3.9 6.3-4-6-2.6-8.3" class="st16"/><path d="M273.5 291.2s2-.9 3.4-1l1.4-.1s-1.6 2.1-2.1 5.8c-.4 3.7-1.2 6.1 1.8 9.1l-4.6-.1s-2.2-4.2-1.8-8.5c.5-4.3 1.9-5.2 1.9-5.2" class="st16"/><path d="M279.5 292.3s-1.4 3.7-1.4 7.4 1.7 5.7 1.7 5.7l3.2.6s0-7.2.3-8.9c0 0-1.4-.3-1.7-2-.4-1.7-2.1-2.8-2.1-2.8m5.7 5.4-1.1 7.4c-.1.1 2.8-5.9 1.1-7.4m4.3.6h1.2s0 7.2-2 8.3l-1.4-.9c-.1.1 2.5-5.7 2.2-7.4m2.8-.3s4.3.6 4.9-1.1l-1.7 11.4s-4.3 0-4.3-1.4.9-4.6 1.1-8.9m4.6 9.5s1.7-.3 2.3-2.9 0-7.4 0-7.4l-1.2 2z" class="st16"/><path d="m242.8 267.4 3.4 1.2 4-3.7s-4-4.6-4.9-5.4c-.9-.9-1.1.6-.3 2.3.9 1.7 2 .6.9 1.7a33 33 0 0 0-3.1 3.9m54.1 19.7s-8.9-2.9-8.6-.9 4.6 2.3 4.6 2.3-.3.9-2.6.9-1.7 1.7-1.7 1.7l5.1.9s-1.7.6-3.1.6h-1.4l2.6 1.7-2.3.6s2.3 1.7 4.6 1.1 3.4-.9 3.4-2.9 1.2-5.7-.6-6" class="st9"/><path d="m266 380.8 17.2-61.6 6.3-24.3-.6-1.2-1.4-1.4-22.9 87.1zm22.9-95.9s2.5-.2 2.7.5c.3.7.9-1 .9-1l14.3-55.6 6-20.5 14.4-50.1 4.8-6.4-1.6-9.9-6.1 9.5 1 6.6s-1.6 1.5-1.6 3.1.4 2.6.4 2.6l-14.3 48.4z" style="fill:#d4e6f1"/><path d="M277.1 243.4s0-.1.1-.4c.2-.8.5-2.5.9-2.8.6-.3 1.5-.6 1.7-.6s.1.4.7 1.2c.6.7 1.3 1.4 2.8 1.6s2.5.4 4.7.1 3.1-.3 4.6-1.2 3.2-1.8 3.2-1.8 1.3-1.1 2.1-.8 2.7.3 2.8.2c.2-.1.5-.2.5.1s-.6 5.4-1.5 5.9-1.2-.5-1.2-.5l-.9-2.1s-1.5-.2-1.6.4.6 3.2.6 3.2.6 1.6-.3 1.8-1.5.2-1.5.2l-.7-3.5s-1.1-.5-1.2.2c-.2.7-.2 3.8-.2 3.8s-.3.9-1.5.8c-1.1-.1-1.2-.5-1.2-1.4s-.1-2.9-.1-2.9-.8-.9-1.1-.1c-.2.8-.6 4-.6 4s-.3.1-1.3 0-2.6.2-2.6-1.4v-2.7s-1.2-.7-1.2-.1c0 .7-.2 3.3-.5 3.4s-2-.1-2.1-.4-.3-1-.2-2.2.4-1.3.1-1.6-.7-1-.8-.4-.2 3.3-.5 2.9c-.2-.4-1.1-1.3-1.6-1.9-.4-.5-.4-1-.4-1" class="st6"/><path d="M284.9 227.7s1.3-.5 1.9.5c.5 1.1-.5 4-.5 4l1.6.5s-2.9 1.1-2.9-.3c0-1.3 1.1-3.2 1.1-3.2s.9-1.5-1.2-1.5m4.8 1.6s2.1-.5 3.2.5l-1.6.8H290zm40.7 22.9-2.3 5.7s-.8 1.7-.8 3.1-.9 2.9.3 3.4c1.1.6 4 2.6 4 2.6zm-.2-66c0-1.1.6-1.6 0-3.9s-2.4-4.2-2.4-4.2l2.4-10.6 4.3 10.2s-.9 2.4-1.3 4.2c-.4 1.7-.4 3.7.3 4s1.3 1.6 1.3 1.6L337 227s.7-.7 1-1.6.7-2.7.9-4.4c.1-1.7 0-4 0-4-3.4-.9-2.3-5.2-2.3-5.2s1.4-1.6 2.4.1 3.9-1 3.9-1l2.2-2.1s-1.3-1.7-4.2-3.4-.9-4.6-.4-8.3c.4-3.7 3.4-2.6 3.4-2.6s1.3 2.1 4.2 2.3c2.9.1 2.1-3.6 7.7-4.7s4.6 4.7 5.9 9.2c1.3 4.4 6.9 5.2 6.9 5.2s-.7.4-1.3 3-4 1.6-4 1.6l-.3 1.9c-.3 1.9-2.9.7-2.9.7 0 1.4-1 4.9-1 4.9s.4 1.4.4 3.6c0 2.1 4.3 2.1 4.3 2.1s-1 .6-2.4 1.7-5.9.6-5.9.6l-.3 2c1.4-.1.9 1.6.9 1.6v3c4.9 0 7.3 3 8.5 4.4 1.1 1.4 2.1 1.4 2.1 1.4l-1.6 1.6c8.6 3.7 6.4 17.9 6.4 17.9 0 20.1-12.7 22.3-12.7 22.3 0 1.9 1.6 4 1.6 4l-.9.1s.6.7.6 2.9c0 2.1-1 3.9-1 3.9l.1 20.5s0 1.9.9 3.7c.9 1.9-.4 6-.4 6l.9 9.4-6 15.5-2.1-3-3.3-7.6s-5.6-39.4-5.9-41.4-1.4-.9-1.4-.9-7.2 19-7.6 21.1c-.4 2-2.3 6.4-2.3 6.4s0 4.7.4 9-4.3 18-4.3 18L327 353l-1 3.7c-.3 1.1-4.7 3.1-5.9 3.3-1.1.1-2 2.7-6.7 2.4s-1.9-3.2-1.4-4.4c.4-1.3 7.6-8.7 7.6-8.7-.3-5.3 1.3-28.1 1.3-28.1-2.3-3.9.7-6.7.7-6.7-.6-2.1 2.9-22.6 2.9-22.6-2.7-1.3-1-7.2-1-7.2-1.2-.3-1.6-2.6-1.6-2.6l3-8.9c-4.7-.4-7.5-7.5-7.5-7.5-3.2-3.2-.9-8.7-.9-8.7 0-4.6 7.5-16.9 7.5-16.9 0-7.2 9.5-9.2 9.5-9.2s-3.3-43.6-3.3-44.7"/><path d="M346.9 207.6s1.2-.9 4.2-.9 3.3-2.4 3.3-2.4 0 2.1 1.8 3.3 2.1 4.5 2.1 4.5 1.2.6 2.1.3 1.8-3 1.8-3 2.7 1.5 3.3 0l.6-1.5s-5.1-2.7-6-6.9-.6-9-3.9-7.5-4.5 5.1-7.8 4.5-5.4-2.4-5.4-2.4-1.2 1.2-1.5 3.3-1.8 3.3-1.2 4.2c.6.8 6.6 4.5 6.6 4.5" class="st15"/><path d="M338.3 212.7s1.8 1.3 2.7 1c.9-.2 2.9.9 3.8 1.6s9.7 5.3 9.7 5.3 2.5 2.1 3.2 2.5c.7.5 3.4 1.4 3.4 1.4s-1.4.9-2.9.6c-1.6-.2-3-.5-3-.5l-9.8-5.5-7-4c0 .1-.6-.8-.1-2.4m3.5.3s3.2.8 3.7 1.6c.6.8 2.2 1.4 2.2 1.4l6.4-8.8-.1-1.1s-1 1.3-3.3 1.2c-2.3-.2-3.7.7-4.1 1.1s-3.4 4.6-4.8 4.6" class="st14"/><path d="m348.9 216.3 8.5 5.7s1.3 1.5 1.2.3c-.2-1.2-.6-3-.6-3.8-.1-.8.2-.7.4-2.1.2-1.3.2-3.7.2-3.7s-.8-2.3-1.4-3.2c-.5-.9-2.5-2.1-2.5-2.1z" class="st14"/><path d="M339.3 225.8s-.3-1.4.4-2.8c.7-1.3.5-2.4.8-2.9.2-.6.9-.6 1.5-.6s1.2-.6 2.2.2c1 .7 3.9 1.7 4.7 2.2s1.3.3 1.5 1.7 0 2.7-.6 3.6c-.5 1-.2 2.7-1.3 2.3s-1.5-.6-2.9-1.7-1.8-1.2-3-1.1c-1.3 0-3.3-.9-3.3-.9m1.5 2.6s-.1-.6 1.1-.3c1.2.2 1.5 0 2.1.6s1 .9.9 1.5-.5.8-1.5.7-1.1.3-1.7-.5-.9-2-.9-2" class="st20"/><path d="M332.4 232.9s-5.9 1.9-6.9 5.5 2.5 4.4 2.5 4.4.4-.2 2.3-.6 3.8-.2 4.4-1.9.8-3.4.8-4.2c-.1-.7-.7-3.2-3.1-3.2" class="st14"/><path d="M324.7 241.3s3.6 3.2 5.3 2.9c1.7-.4.8 3.8.8 3.8s-.4 2.3-1.3 3.4c-1 1.1-3.1 7.6-3.1 7.6s-3.2-1.3-6.1-1.5l-2.9-.2c.1 0 1.2-6.1 7.3-16m-7.6 17.6s5-1.1 8.4 1v3.1s-4.8.2-5.7 1.1l-.9 1c-.1-.1-3.3-.5-1.8-6.2m1.7 7.6s3.2-2.9 6.7-2.3c0 0 6.5 4.4 7.4 5.5 1 1.1 1.1 2.1 1.1 2.1s-2.3 1-1.7 3.2c.6 2.4-13.3-5.2-13.5-8.5m12.8-23.7 3.4-1 2.1 27.1s-2.9 1.1-3.1.2c-.2-1-1-3.1-1-3.1l-1.5-14.7c.1.1 1.6-8.5.1-8.5m6.1-5.3 3.3 1.1s1 .8 2.3.6.4.6 2.9.6 3.1.2 4.2-.8 4.4-1.7 4.4-1.7l1.9-3.1s2.9-.2 3.6 1c.8 1.1 4 3.6 4 3.6l-.8 1.5s-10.5-3.1-15.3 3.1c-4.8 6.1-6.9 17.4-5.1 24.8l-2.1.2z" class="st14"/><path d="M356.2 279.7s-13-2.5-12-22.5c0 0 1.1-16.2 15.1-16.4 0 0 12.8-1.3 11.1 19.9 0-.1-.8 18-14.2 19" class="st14"/><path d="M357.5 265.6s-3.4-.7-3.2-5.9c0 0 .3-4.2 4-4.3 0 0 3.4-.4 2.9 5.2 0 0-.2 4.8-3.7 5m-31.8 8.9 5.9 1.9 2.1-.4s.8 1 2.1 1.1c1.3.2 2.1.8 2.1.8l-2.1 5.7s1 .6-1.5.6-10.3-1.1-10.3-1.1l-.6-1.7z" class="st14"/><path d="m344.4 278.4 3.1 5.4h10.8l-1-2.9s-5.9 0-7.4-1.1-1.9-2.3-1.9-2.3-1.9 1.2-3.6.9" style="fill:#bac6d3"/><path d="M325.7 292.3s2.3 1.1 4-.2c0 0 3.4 1.9 5 .2 0 0 3.6 1.9 6.1 1l-9 23.5s-1.7-1.7-4.8-2.1l-4.4-.6zm-4.2 28.1s-1.5-2.5 1-5.3c0 0 7.6.4 8.4 3.1 0 0 1.1 1.3 0 2.1s-1 .4-2.7.4c-1.8-.1-6.7-.3-6.7-.3m.4 1.5h8s1.3 5.2 1.3 8.4-4.8 19.3-4.8 19.3-1.5 1.9-3.4.8-2.7-1.5-2.7-1.5zm24.4-29 2.1-.4s2.3 1.3 4.2.2c0 0 3.2 1 4.8-.4l.8 21.2s-1.5 0-3.8.6-4.6-.2-4.8 1.7zm3.6 23.8s1-1.1 3.6-1.3c2.7-.2 4.4-1 4.8-.4s1.1 1.9.6 3.4c-.6 1.5.4 3.3-.8 3.3-1.1 0-1.5.6-3.2.6s-2.9-.6-4-1.1c-1.2-.6-1.4-3.5-1-4.5m0 5.8s6.1 1.9 8.4.2l1.3 8.4-5 13.9s-3.6-5.9-3.6-7.4c.1-1.6-1.1-15.1-1.1-15.1" class="st14"/><path d="m324.3 285.4 5 .2.6 4.2s-.8 2.1-2.5 2.1-3.4-2.1-3.4-3.2c0-1.2.3-3.3.3-3.3m6.5.8 3.4-.2.2 4.8s-.2 1.1-1.9 1.1-1.9-1.7-1.9-1.7zm5.2.2s-.4 5.3 3 5.5 2.5-1.1 2.5-1.1l-.6-9.4-.4-2.1-1.3-.2s-1.3 7.3-3.2 7.3m7.4-5.8 1.9 11.1s2.3-1.1 2.9-4-.4-2.9-.4-2.9h-1.3l-1.9-4s-1.3-.9-1.2-.2m5 9s.2 2.1 2.1 2.1 2.7-4.2 2.7-4.8v-.6s1-1 1 1c0 1.9-.6 4 1.2 4 1.7 0 3.8-2.5 3.8-4s-1-2.3-1-2.3l-7.8-.2s-.6.4-.6 1.5c-.1 1.2-.3 2.6-1.4 3.3" class="st16"/><path d="M335.2 270.7s-2.1 2.1-1.3 3.4 2.3 1.5 4 2.3 3.2 2.3 3.2 1-1.5-1.3 0-1.3 4.4 1.1 3.4 0-1.9-1.3-1.9-1.3 2.1-.6 2.1-1.1c0-.6-1.1-1.5-1.1-1.5s1-1.5-.4-1.7c-1.3-.2-6.5-.4-6.5-.4s-.9 0-1.5.6" class="st20"/><path d="M338.3 233.3s1 0 2.3.6 1 .6 4 .8c3.1.2 3.6.6 5.7-.9s2.9-3.1 2.9-3.1 1.9-2.5 1.9-1.3v3.2s.4 1.5 0 2.1l-.4.6s-.6-4-.6-3c0 .9-.6 1.3-.4 2.7.2 1.3 1.5.4.2 1.3-1.3 1-2.5 1-2.5 1s.4-3.2 0-2.5c-.4.8.2-.6-.4.8-.6 1.3-.8 2.7-.8 2.7l-2.1.6s0-3.2-.4-2.5c-.4.8.2 1.7-.6 2.1s-1.7.6-2.5.4-.6-1.5-.6-2.1-1-1.1-1 .2v1.3s-1.7 1.5-2.3.6c-.6-1-2.3-1.9-2.3-1.9s-.7-3.1-.1-3.7m-7.9-63.6-2.7 8.4s2.9 1.1 2.9 3.4c0 0 .8 2.3.6 3.6s-.4 1.5-.4 3.1c0 1.5 3.4 43.9 3.4 43.9l3.6 36.9s2.1.8 2.3-.4l-6.3-80.8s-1.3-.8-1.5-2.5 0-3 .6-4.4l.8-3.2zm10.6 109h2l4.8 29.4 1.2 11 1 16.6z" class="st6"/><path d="M340.6 223.1s1.8-.7 2.5 0c.7.6 0 .6 0 .6h-1.2zm4.3 1s1.9 0 2.3.9c.4.8-.2.6-.2.6l-1.1-.4zm-1-1.1s-.5 1.5-.5 2.1c0 .5-.5.9 1.2.9l-.5-1 .5-1.8c-.1-.1-.3-1-.7-.2M84.1 172.9s3.3-.4 4-5.5-.4-14.3 5.2-16.9l5.5-2.6.4-3.3-1.8-4.4 4.8-13.2 4.8 13.2-3.7 6.3.4 52.2s6.6 1.5 7 4c.4 2.6 3.3 2.9 5.5 3.7 2.2.7 3.3 3.7 2.9 5.9s-2.9 4.4-2.9 4.4l.7 3.3 6.3 2.9-3.3 2.9s-.3 2.4-.4 3.4-.2 1.5 0 2.4 1.1 2.4 1.1 3.4-.2 3.4-.2 3.4 4.8 1.8 5.6 2.8 1.8 3.6 1.8 3.6 1 2.5 1 4.8 1.6 15 .9 19c0 0 2.5 4.3.8 7.2s-4.8 2.6-4.8 2.6 1.9 5.5 3.4 6c1.6.5-1.1 2.2-1.1 2.2s1.9 3.1 1.9 5.4-2.3 3.8-2.3 3.8.8 15.6.2 20.1c0 0 1.3 4.7 1.2 6.7s-1.4 4-1.4 4 3.2 8.4 2.9 12.8 1.9 13.3 1.9 13.3 4.6 5.1 5.8 5.6 6 5 5.4 6-1.8 1.8-3.4 1.8c-1.7 0-2.9-.4-4.8-.6s-2.5-.7-4.1-1-4.9-.9-5.3-1.9c-.4-.9-2.2-.6-1.2-7.1 0 0-.2-2.2-.7-2.9s-8.2-12.8-7.7-20.6-.4-6.8-.4-8-1-7.2-1.7-9.5c-.6-2.3-5.6-14-5.6-14l-1.4-3h-1l.1 33.5s-3.1-1.8-2.9-3.5l-.1-28.5s-1.7 3.8-1.8 4.9c-.1 1-4.8 14.9-5.1 15.2s-1.7 1.6-1.8 3.1c-.1 1.6-1 9.1-2.3 9.7 0 0-7.3-12.9-7.3-19.1s1.5-6.9 1.5-6.9l3.6-12.2s-1.2-3.1-.5-5.6c0 0-1.9-.9-2-1.9 0 0 2.4-3 2.6-4.8s3.1-4.4 3.1-4.4l-.3-4.5s-2.7 1.4-4.1 2.1-4 1-4 1l-.7-10.3 2.2-.4s-.5-6.1 1.8-10.1 3.5-7 3.5-7 1-4.7 3.1-5.3 3.9-2.1 5-2.1 2.2-.3 2.2-.3l-.2-8.5s-2.8.5-3.1 1.3-4.2 2.5-5.2 3.5-7.2 8.7-8.9 9.3h-2l.3-73z"/><path d="m85.7 266.5.6 8.3s5.5-1.5 6.3-3.5c0 0-2.4-4.8-4.6-5.2zm1.9-2.2s6.2 2.5 6.6 4.9l.4 2.4s4.9-10.7 5.1-16.9c0 0-1.8-4.2-5.5-6.3 0 0-.8-.4-1.3.4-.4.8-3.5 6.1-3.9 7-.4 1-2.5 6.2-1.4 8.5M98.3 250c.1 1.3 2.7 3.8 2.7 3.4l.8-6.8-.1-5.1s-2.2 0-3.9 1.7c0 0-2.3-.3-3.1 1.3-.8 1.5-1 2.2-1 2.2s4.5 1.7 4.6 3.3m-3.6 23.7s-1.1 2.7.7 3.5 7 1 7 1l.4-14.1s-1.4 0-1.4-2.4 1-4.4 1-4.4v-3l-.8.1s-.7.6-1 1.3.3 3.4-.3 4.8c-.6 1.5-4.4 13.2-5.6 13.2m11-28.6s3 1 4.4.6 2.1 1.1 3.7 1.1c1.5 0 1.7 1 1.7 1s.1 3.1 1 4.1c.8 1 1.1 2 1.1 2s-.1 2.3.3 3.8c.4 1.6.8 7 .8 7l-3.9-2.4s-.4-1.7-2.1-2.4-2.3-1.8-3.4-2.1-2.4-.7-3-.7-.6-12-.6-12m11.4.2s-.6 2.8.4 4.6 1 2.5 3.2 2c2.2-.6 5.3-2.7 5.5-4.5.1-1.8 0-3.7-1-4.5s-2.3-1.4-2.8-1.5c-.6-.1-2.7-.7-2.7-.7s-.7.7-.8 1.5c-.2.8-.9 3.3-1.8 3.1m1.9 8.8s6.9-1.6 8.2-5.4c0 0 2 13.2 1.3 19.6 0 0-.3 1.1-1.3.1s-4.5-2.7-6.1-3c-1.5-.3-1.5-1-1.5-1zm-5 9.9s10.9 3.8 11.5 5.1 1.8.9 1.8.9-1.2 2.4-1.2 3.7-.1 2.3-1.2 2.9h-2.4l-9.3-7.4c.1 0-.8-3.6.8-5.2" class="st14"/><path d="M125.2 277.4c-.6 0 1.8-.1 1.8-2.4 0-2.2 1-3.8 1.4-4.5s.8 1.1 1 1.6c.2.3 2.3 4.8-4.2 5.3m-19.8-11.7s3.5-.7 4.5.7 2 2 2 2 .4 1.7.8 2.2c.4.6 7.9 5.8 7.9 5.8s1.3 1.1.1 1.3c-1.1.1-11 .7-13.4.3s-1.7-3.4-1.7-4.6c0-1.4-.2-7.7-.2-7.7m1 13.2s12.7 1.4 15.2 0l2.8-.3s1.7 5.5 2.5 6.1 1.4.3-.4.8c-1.8.6-8.9 2.4-12.1 2.3s-3.2-.8-3.7-2.3c-.4-1.4-3.1-3.2-3.4-4.1-.2-.8-.9-2.5-.9-2.5m-12.2-.7s6.1 2.4 8.3 1.1l-.1 2s-3.4 6.8-4.8 7c-1.4.3-1.3.3-3.1 0s-5.1-2.1-5.1-2.1 1-1.4 1.4-2.8.4-2.7 1.1-3.2c.8-.6 2.3-2 2.3-2m-2.5 16s2.8 2.5 5.6.6c0 0 .4 3.2 3.9 2.4 0 0 .8.6.6 1.6-.3 1-5.1 18.4-5.6 19.3-.6.8-2 .7-2 1.8s-.1 3.9-.6 4.9c-.4 1-1 4.5-1 4.5s-7.2-12.8-6.5-17.5c.7-4.6 1.5-5.6 1.5-5.6zm17.5 3.3 1.5-1.3s1.4 1.1 3.4.4 3.4-.8 3.4-.8.1.7 2.8.4 3.2-1.1 3.2-1.1l2.8.4s1.1 15.2-.3 20.7c0 0-6.3-2.4-9 1.7 0 0-1.7-4.5-2.2-6.2-.6-1.7-5.6-14.2-5.6-14.2" class="st14"/><path d="M113.4 262.7s-.7-1.7-2.1-2.1-1.3-1.7-2.7-1.8-2.7-1-3.7-.8c-1 .1-2.1.6-2.2 1.4l.1-.8s0 1.3 1.1 1.3 1.8-.4 2.1 0 .7.6-.6.7-3.4-.3-3.2.4c.1.7 1.7.8 2.4.8s2.1.6.8.7-3-.7-2.5.3c.4 1 1.1 1.1 2.7 1.1s1.8 0 2.5.3 1.7 0 2.1.7 1.5 1.8 1.5 1.8.9-3.6 1.7-4" class="st9"/><path d="M91 288.7s-.1 4.1 2.3 4.9 2.5.3 3.1-.3.4-3.8.4-3.8-5.3.2-5.8-.8m7.2.9s2.8-1.3 3.9-3.7l.3 9.6s-1.8 2-3 .1c-1-1.8-1.5-4.5-1.2-6m7.6-6.9s2.2.3 2.8 1.5c.6 1.3.7 2 1.1 3.1s.3 1.6.4 2.5c.1 1 .1 3.8-.1 4.5-.3.7-1.3 1.5-2.3 1.5s-2.1-.1-2.1-.1zm5.5 5.9s2 .8 3.4.4c0 0 .6 4.8-.1 5.9s-1.7 1.1-2.4.8-1.1-1.7-1.1-1.7.3-4.1.2-5.4m4.7.3s2 .6 2.7-.3c0 0 .6 4.9-.4 5.5s-2.1.8-2.1.8-.3-.8-.3-2.2c-.1-1.4.1-3.8.1-3.8m4-.7s0 5.6-.8 6.8c0 0 4.1.4 4.5-1.8l.4-5.8zm5.4-.6s-.1 5.9-.7 6.6c0 0 3.7.8 3.9-1.5.3-2.4-1.4-5.1-1.4-5.1s-1.8-1.3-1.8 0" class="st16"/><path d="m103.6 256.8 1.5-.2-2.5-109.6h-1.7l1.7 83.2zm-2.9-111.2 1.5-.2 3.7-5.5-3.9-10.5-4 10.7zm-1.1 3.5s-8.2 2.1-8.6 6.7-.4 13.2-1.5 15.1-5.7 3.2-5.7 3.2l-.9 71.9s5.8-4.3 7.3-7.7 9.9-8.4 11.1-8.4c1.1 0-1.1-3.1-1.1-6.9s1.3-12.8 1.3-12.8v-5.9s-2.9-9.9-.8-14.1c0 0-3.1-4-1.7-11.6 1.3-7.6 2.1-12.4 2.1-12.4zm6.1 89.2s1.1-.3 2.3.4c1.1.7.8 1.1 2.4 1.1s2.7.3 3.8 0 2.7 0 3.3-.7 1.7-.4 1.5.1c-.1.6-.6 2.1-1.1 2.8-.6.7.4 1.3-.9 1.3s-1.6 1.1-1.8 0c-.3-1.1.1-2.3-.3-2.3s-.9.1-.9 1.1.3 1.6-.3 1.7-.8.1-1.8.1-1.1.3-1.1-.8v-2s-.8-.7-1 .1c-.1.8 0 2.4-.6 2.4s-2 .4-2.4-.6-.9-.7-1-2.1c-.1-1.1-.1-2.6-.1-2.6" class="st6"/><path d="M108.1 226.9s-.3-.7 2.4-1 3.5 0 5.2-.4 3-.6 3-.6.3 2-.1 3.8-.4 2.5-.4 3.5.9.6-1 .4c-1.8-.1-1.6-.8-3.1-.3-1.6.6-2.5 2.5-4 2.1-1.4-.4-1.8 0-2.1-2.7-.3-2.6.1-4.8.1-4.8" class="st9"/><path d="M111.3 224.2s4 .4 6-.3 2.4-.1 2.4-.1c.4 0 1.1-.7 1.1-.7l-4.2-2s-3.5 2.6-5.2 2.4c-1.8-.2-.1.7-.1.7m-.5-1.7s4.5-1.1 5-2.5l-.8-3.3s-1.3.3-2.3-.8-.6-1.4-2.1-1.4h-2.4l-1.6-.1-1.1 1.7v6.1c-.1-.1.7 1.1 5.3.3" class="st14"/><path d="M114.8 234.7s-2.1 0-1.4 1.4.4 1.3 1.8 1 1.8-1.3 1.8-1.7c.1-.5-1.4-.9-2.2-.7" class="st9"/><path d="M117.3 322.4s.6-3.8 2.6-4.4 6.1-1.2 6.7 1.2c.6 2.3 1.5 5.3-.3 7-1.8 1.8-4.1 1.8-5.8 0s-3.8-1.5-3.2-3.8" class="st14"/><path d="M118.2 326.8s6.7 2.3 8.5 1.2c0 0 2.9 6.7 2.9 10.5s1.2 13.4 1.2 13.4-.6-.3-2 1.2a6.5 6.5 0 0 1-2.9 1.8l-.6-2.9s-7.6-12.3-7.6-16.6c-.1-4.5.5-8.6.5-8.6" class="st14"/><path d="m104.7 328.2 1 1.1-.2-36.2-1-28.3h-1.1l.4 20.2z" class="st6"/><path d="M104.2 200.1s5.3.6 5.3 2.6 1.2 3.5 2.6 4.1c1.5.6 4.4 0 5 1.7.6 1.8 1.8 3.8.6 5s-2.7 3.1-2.7 3.1-.2-1.4-2.3-2c-2-.6-2.6.6-4.5-.3l-1.9-.9h-1.8z" class="st15"/><path d="M371.6 291.6V64.5c0-4.3-3.1-5.6-3.1-5.6H90c-1.9 0-3.7 2.5-3.7 2.5l-.6 220.9v28s16 111.5 140.5 111.5c0 0 119 8.5 145.4-130.2m-315-264h343s3.8 1.5 3.8 6.9v257.4s-3.8 162.7-179.5 162.7c0 0-158.1 4.6-172.6-165L52 30.7s2.3-3.1 4.6-3.1" style="fill:#8f0507"/><path d="M69.1 223.5h4.7s1.4-.6.5-1.7c-.2-.2-.5-.6-.9-1h-4.3z" class="st23"/><path d="M72.4 216.6c.6 1 1.5 1.9 1.8 2.3.2.2.3.5.3.6v3.1s.2-.5-.8-1.5l-.4-.5c-.7-.8-1.4-1.9-1.6-2.8v-1c.1.1.2-.2.7-.2" class="st24"/><path d="M71.8 214.7s0-.1.1-.2c.2-.6 1-1.1 2.8-1.1h2.8l-1.4 1.3 1.4 1.5h-2.8c-1.1 0-1.8.2-2.3.4 0 0-.6.1-.6 1.3z" class="st23"/><path d="M66.8 220.3h-4.7s-1.4.6-.5 1.7c.2.2.5.6.9 1h4.3z" class="st24"/><path d="M63.5 227.1c-.6-1-1.5-1.9-1.8-2.3q-.3-.3-.3-.6V221s-.2.5.8 1.5l.4.5c.7.8 1.5 1.9 1.6 2.8v1c-.1 0-.2.3-.7.3" class="st23"/><path d="M64.2 229s0 .1-.1.2c-.2.6-1 1.1-2.8 1.1h-2.8l1.4-1.3-1.4-1.5h2.8c1.1 0 1.8-.2 2.3-.4 0 0 .6-.1.6-1.3z" class="st24"/><path d="m70 223.7-3.8-.5-.4-3.2 3.8.5z" class="st23"/><path d="m66.2 223.2 3.8.5-.4-3.2z" class="st24"/><path d="M389.3 223.5h4.7s1.4-.6.5-1.7c-.2-.2-.5-.6-.9-1h-4.3z" class="st23"/><path d="M392.7 216.6c.6 1 1.5 1.9 1.8 2.3.2.2.3.5.3.6v3.1s.2-.5-.8-1.5l-.4-.5c-.7-.8-1.5-1.9-1.6-2.8v-1c0 .1.2-.2.7-.2" class="st24"/><path d="M392 214.7s0-.1.1-.2c.2-.6 1-1.1 2.8-1.1h2.8l-1.4 1.3 1.4 1.5H395c-1.1 0-1.8.2-2.3.4 0 0-.6.1-.6 1.3v-3.2z" class="st23"/><path d="M387.1 220.3h-4.7s-1.4.6-.5 1.7c.2.2.5.6.9 1h4.3z" class="st24"/><path d="M383.8 227.1c-.6-1-1.5-1.9-1.8-2.3q-.3-.3-.3-.6V221s-.2.5.8 1.5l.4.5c.7.8 1.5 1.9 1.6 2.8v1c-.1 0-.2.3-.7.3" class="st23"/><path d="M384.4 229s0 .1-.1.2c-.2.6-1 1.1-2.8 1.1h-2.8l1.4-1.3-1.4-1.5h2.8c1.1 0 1.8-.2 2.3-.4 0 0 .6-.1.6-1.3z" class="st24"/><path d="m390.3 223.7-3.8-.5-.4-3.2 3.8.5z" class="st23"/><path d="m386.5 223.2 3.8.5-.4-3.2z" class="st24"/><path d="M225 435.8v-4.7s-.6-1.4-1.7-.5c-.2.2-.6.5-1 .9v4.3z" class="st23"/><path d="M218.1 432.5c1-.6 1.9-1.5 2.3-1.8q.3-.3.6-.3h3.1s-.5-.2-1.5.8l-.5.4c-.8.7-1.9 1.5-2.8 1.6h-1c.1-.1-.2-.2-.2-.7" class="st24"/><path d="M216.2 433.1s-.1 0-.2-.1c-.6-.2-1.1-1-1.1-2.8v-2.8l1.3 1.4 1.5-1.4v2.8c0 1.1.2 1.8.4 2.3 0 0 .1.6 1.3.6z" class="st23"/><path d="M221.7 438.1v4.7s.6 1.4 1.7.5c.2-.2.6-.5 1-.9v-4.3z" class="st24"/><path d="M228.6 441.4c-1 .6-1.9 1.5-2.3 1.8q-.3.3-.6.3h-3.1s.5.2 1.5-.8l.5-.4c.8-.7 1.9-1.5 2.8-1.6h1c-.1.1.2.2.2.7" class="st23"/><path d="M230.5 440.8s.1 0 .2.1c.6.2 1 1 1 2.8v2.8l-1.3-1.4-1.5 1.4v-2.8c0-1.1-.2-1.8-.4-2.3 0 0-.1-.6-1.3-.6z" class="st24"/><path d="m225.2 434.9-.6 3.8-3.1.4.5-3.8z" class="st23"/><path d="m224.6 438.7.6-3.8-3.2.4z" class="st24"/><path d="M332.7 41.7V37s-.6-1.4-1.7-.5c-.2.2-.6.5-1 .9v4.3z" class="st23"/><path d="M325.8 38.3c1-.6 1.9-1.5 2.3-1.8q.3-.3.6-.3h3.1s-.5-.2-1.5.8l-.5.4c-.8.7-1.9 1.5-2.8 1.6h-1c.1 0-.2-.2-.2-.7" class="st24"/><path d="M323.9 39s-.1 0-.2-.1c-.6-.2-1.1-1-1.1-2.8v-2.8l1.3 1.4 1.5-1.4V36c0 1.1.2 1.8.4 2.3 0 0 .1.6 1.3.6h-3.2z" class="st23"/><path d="M329.4 43.9v4.7s.6 1.4 1.7.5c.2-.2.6-.5 1-.9v-4.3z" class="st24"/><path d="M336.3 47.2c-1 .6-1.9 1.5-2.3 1.8q-.3.3-.6.3h-3.1s.5.2 1.5-.8l.5-.4c.8-.7 1.9-1.5 2.8-1.6h1c-.1.1.2.2.2.7" class="st23"/><path d="M338.2 46.6s.1 0 .2.1c.6.2 1.1 1 1.1 2.8v2.8l-1.3-1.4-1.5 1.4v-2.8c0-1.1-.2-1.8-.4-2.3 0 0-.1-.6-1.3-.6z" class="st24"/><path d="m332.9 40.7-.5 3.8-3.2.4.5-3.8z" class="st23"/><path d="m332.4 44.5.5-3.8-3.2.4z" class="st24"/><path d="M130.4 42.8v-4.7s.6-1.4 1.7-.5c.2.2.6.5 1 .9v4.3z" class="st23"/><path d="M137.2 39.5c-1-.6-1.9-1.5-2.3-1.8q-.3-.3-.6-.3h-3.1s.5-.2 1.5.8l.5.4c.8.7 1.9 1.5 2.8 1.6h1c0-.1.2-.2.2-.7" class="st24"/><path d="M139.1 40.1s.1 0 .2-.1c.6-.2 1.1-1 1.1-2.8v-2.8l-1.3 1.4-1.5-1.4v2.8c0 1.1-.2 1.8-.4 2.3 0 0-.1.6-1.3.6z" class="st23"/><path d="M133.6 45v4.7s-.6 1.4-1.7.5c-.2-.2-.6-.5-1-.9V45z" class="st24"/><path d="M126.8 48.4c1 .6 1.9 1.5 2.3 1.8q.3.3.6.3h3.1s-.5.2-1.5-.8l-.5-.4c-.8-.7-1.9-1.5-2.8-1.6h-1s-.3.2-.2.7" class="st23"/><path d="M124.9 47.7s-.1 0-.2.1c-.6.2-1.1 1-1.1 2.8v2.8l1.3-1.4 1.5 1.4v-2.8c0-1.1.2-1.8.4-2.3 0 0 .1-.6 1.3-.6z" class="st24"/><path d="m130.2 41.9.5 3.8 3.2.4-.6-3.8z" class="st23"/><path d="m130.7 45.7-.5-3.8 3.1.4z" class="st24"/><path d="M73.6 248 70 229.1l7 17.8-.7 2 2.3 5.6 1.2-2.3 2.5.8-2.2-5.6-1.8-.9-9.6-24.1-.1-.7L79 195.5l.9.4-.1-4.3-3 3 1 .4-8.3 21.1 4.2-22.3 1 .2-.9-4.2-2.3 3.6 1 .2-4.3 22.2v-22.7h1.1l-1.7-3.9-1.7 3.9H67v20l-3.7-19.5 1-.2-2.4-3.6-.9 4.2 1-.2 4.2 22.3-8.3-21.1 1-.4-3-3-.1 4.3 1-.4L67 221.4v1l-9.5 24.1-1.9.9-2.2 5.6 2.5-.8 1.3 2.3 2.2-5.6-.7-2 7-17.8-3.6 18.9-1.6 1.2-1.1 5.9 2.2-1.3 1.7 2.1 1.1-6-1-1.8 3.6-18.8v19.2l-1.4 1.5v6.1l2-1.7 2 1.7V250l-1.4-1.6v-21.8l4.1 21.5-1 1.8 1.1 6 1.7-2.1 2.3 1.3-1.2-5.9zm326.7-.6-1.8-.9-9.5-24.1-.1-.7 10.3-26.2 1 .4-.1-4.3-3 3 1 .4-8.4 21.1 4.3-22.3 1 .2-.9-4.2-2.4 3.6 1 .2-4.2 22.2v-22.7h1l-1.6-3.9-1.7 3.9h1v20l-3.7-19.5 1-.2-2.3-3.6-.9 4.2 1-.2 4.2 22.3-8.3-21.1 1-.4-3-3-.1 4.3.9-.4 10.2 25.9v1.1l-9.5 24-1.8.9-2.2 5.6 2.4-.8 1.3 2.3 2.2-5.6-.7-2 7.1-17.8-3.6 18.9-1.6 1.2-1.2 5.9 2.3-1.3 1.7 2.1 1.1-6-1-1.8 3.5-18.8v19.2l-1.3 1.5v6.1l1.9-1.7 2.1 1.7V250l-1.4-1.6v-21.8l4.1 21.5-1.1 1.8 1.2 6 1.7-2.1 2.2 1.3-1.1-5.9-1.6-1.2-3.6-18.9 7 17.8-.7 2 2.2 5.6 1.3-2.3 2.5.8zM251.5 435.3l-1.6 1.4h-21.8l21.5-4.1 1.8 1 6-1.1-2.1-1.7 1.3-2.3-5.9 1.2-1.3 1.6-18.8 3.6 17.8-7 2 .7 5.6-2.2-2.3-1.3.8-2.5-5.6 2.2-.9 1.9-24.1 9.5-.7.1-26.2-10.4.3-.9-4.2.1 3 3 .4-1 21 8.3-22.2-4.2.2-1-4.2.9 3.6 2.4.2-1 22.2 4.2h-22.7v-1.1l-3.9 1.7 3.9 1.7v-1.1h20l-19.5 3.7-.2-1-3.6 2.4 4.2.9-.2-1 22.3-4.2-21.1 8.3-.4-1-3 3 4.2.1-.3-.9 25.9-10.3h1l24.1 9.5.9 1.9 5.6 2.2-.8-2.5 2.3-1.3-5.6-2.2-2 .7-17.8-7 18.8 3.6 1.3 1.6 5.9 1.1-1.3-2.2 2.1-1.7-6-1.1-1.8 1-18.8-3.6H250l1.5 1.4h6l-1.6-2 1.6-2zm79.1-391.5h1l24.1 9.5.9 1.8 5.6 2.2-.8-2.4 2.3-1.3-5.6-2.2-2 .7-17.8-7.1 18.8 3.6 1.3 1.7 5.9 1.1-1.3-2.3 2.1-1.7-6-1.1-1.8 1.1-18.8-3.6h19.2l1.5 1.4h6l-1.6-2 1.6-2.1h-6l-1.6 1.4h-21.9l21.6-4.1 1.8 1.1 6-1.2-2.1-1.7 1.3-2.2-5.9 1.1-1.3 1.7-18.8 3.5 17.8-7 2 .7 5.6-2.2-2.3-1.3.8-2.5-5.6 2.3-.9 1.8-24.1 9.5-.7.1-26.2-10.3.4-1-4.3.1 3 3 .4-.9 21 8.3L303 37l.2-1-4.2.9 3.6 2.4.2-1 22.2 4.2h-22.7v-1l-3.9 1.6 3.9 1.7v-1h20l-19.5 3.7-.2-1-3.6 2.3 4.2.9-.2-1 22.3-4.2-21.1 8.3-.4-1-3 3 4.3.1-.4-.9zm-166 .5-3.9-1.7v1.1h-22.6l22.2-4.3.2 1 3.5-2.3-4.1-.9.2 1-22.3 4.2 21-8.3.4 1 3-3-4.2-.1.4.9-26.3 10.4-.7-.2-24.1-9.5-.9-1.8-5.6-2.2.8 2.4-2.3 1.3 5.6 2.3 2-.8 17.9 7.1-18.9-3.6-1.2-1.6-6-1.2 1.3 2.3-2 1.7 5.9 1.1 1.8-1 21.6 4.1h-21.9l-1.6-1.4h-6l1.7 2-1.7 2h6l1.6-1.4h19.2l-18.9 3.6-1.8-1.1-5.9 1.2 2 1.7-1.3 2.2 6-1.1 1.2-1.6 18.9-3.6-17.9 7-2-.7-5.6 2.2 2.3 1.3-.8 2.5 5.6-2.2.9-1.9 24.1-9.5h1.1l25.9 10.2-.4 1 4.2-.1-3-3-.4 1-21-8.3 22.3 4.2-.2 1 4.1-.9-3.5-2.4-.2 1-19.5-3.7h19.9V46zM59.3 79.5c-3.7 7.4-2.4 9.6-1.3 14.5 1.1 5 12.2 10.2 13.2 12.8 1.1 2.6-1.5 2.6-2.2 3.9s2 2.8 2 2.8c3.7 1.5 4.1-3.9 4.1-3.9v-75h1.5v-1.5h-1.5l-1.3-1.5c-2.8 0-2 2-2 2s-1.1 0-1.7 1.7 1.7 2 1.7 2l-.2 2.4s-.9 2-4.8 4.3c-3.9 2.4-8 8.9-9.1 13.9s.6 8.9.6 10 2 1.5 2 1.5v9.1zm3.9 3.1c.2-2.4.9-4.8.9-4.8v-7.6c0-3-.7-2.2-.9-9.5C63 53.3 71.7 44 71.7 44c1.3-1.7 1.1 1.3 1.1 1.3l.4 57.7s-4.3-3-5.9-3.9c-1.5-.9-1.3-4.1-2.8-6.3S63 85 63.2 82.6m68.4 318.3L84 342.8s-3.8-3.9-5.7-.4c0 0-1 2.8.3 3.4s3.3-1.1 4.2 1.6c.8 2.7-4.4 13.7-2.1 18.3 2.3 4.5 2.7 7 10.2 10.4l1.5.1 5.8 7.1s-1.2 1.6-.5 2.4 1.8 5 5.8 8.1c4 3.2 11.3 5.6 15.9 5 4.5-.6 6.4.3 6.4.3l1.7 1.7s-1.7 1.7-.1 2.6 2.4.2 2.4.2.6 2.1 2.7.3v-2l1.2-1-1-1.2zm-8.6-5s-12.6-1.7-17.1-7.6c-4.5-5.8-3.5-5.6-5.4-7.9-1.9-2.4-4.8-5.9-4.8-5.9s-2-1.4-3.7-3.1-5.2-6.1-5.5-8.7c-.2-2.6-2.4-5-1.8-6.7.6-1.6 2-6.7 2-6.7l36.3 44.9s2.1 2.2 0 1.7M268 50.2s0-1.1-1.7-1.7c-1.7-.7-2 1.7-2 1.7l-2.4-.2s-2-.9-4.3-4.8c-2.4-3.9-8.9-8-13.9-9.1s-8.9.7-10 .7-1.5 1.9-1.5 1.9h-9.1l-1.1-1.1c-7.4-3.7-9.5-2.4-14.5-1.3s-10.2 12.2-12.8 13.2c-2.6 1.1-2.6-1.5-3.9-2.2s-2.8 2-2.8 2c-1.5 3.7 3.9 4.1 3.9 4.1H267V55h1.5v-1.5l1.5-1.3c-.1-2.9-2-2-2-2m-11.7.9-57.7.4s3-4.3 3.9-5.9c.9-1.5 4.1-1.3 6.3-2.8s7.8-1.5 10.2-1.3 4.8.9 4.8.9h7.6c3 0 2.2-.7 9.6-.9s16.7 8.5 16.7 8.5c1.6 1.3-1.4 1.1-1.4 1.1m124.1 64.2c2.8 0 2-2 2-2s1.1 0 1.7-1.7c.7-1.7-1.7-2-1.7-2l.2-2.4s.9-2 4.8-4.3c3.9-2.4 8-8.9 9.1-13.9s-.7-8.9-.7-10-2-1.5-2-1.5v-9.1l1.1-1.1c3.7-7.4 2.4-9.6 1.3-14.5-1.1-5-12.2-10.2-13.2-12.8-1.1-2.6 1.5-2.6 2.2-3.9s-2-2.8-2-2.8c-3.7-1.5-4.1 3.9-4.1 3.9v75.1h-1.5v1.5h1.5zm6.5-67.5c1.5.9 1.3 4.1 2.8 6.3s1.5 7.8 1.3 10.2-.9 4.8-.9 4.8v7.6c0 3 .7 2.2.9 9.5.2 7.4-8.5 16.7-8.5 16.7-1.3 1.7-1.1-1.3-1.1-1.3l-.4-57.7s4.4 3 5.9 3.9m-22 295.1L317.3 401l-1.2-1-1 1.2 1.2 1v2c2.2 1.8 2.7-.3 2.7-.3s.8.7 2.4-.2-.1-2.6-.1-2.6l1.7-1.7s1.9-1 6.4-.3c4.5.6 11.8-1.8 15.9-5 4-3.2 5.1-7.3 5.8-8.1s-.6-2.4-.6-2.4l5.8-7.1 1.5-.2c7.5-3.4 7.9-5.9 10.2-10.4 2.3-4.6-2.9-15.6-2.1-18.3s2.8-1 4.2-1.6c1.3-.6.3-3.4.3-3.4-1.7-3.7-5.5.3-5.5.3m-2.5 19.8c-.2 2.6-3.8 7-5.5 8.7s-3.7 3.1-3.7 3.1-2.9 3.5-4.8 5.9-.9 2.1-5.4 7.9c-4.5 5.9-17.1 7.6-17.1 7.6-2.1.5 0-1.7 0-1.7l36.3-44.9s1.4 5.1 2 6.7c.6 1.7-1.6 4-1.8 6.7" style="fill:#a7a9ac"/><path d="m36.6 101.7-1.8 9s.6.6-1.2 1.6-2.3 1.4-2.5 2-1.4 2.1-.4 2.1 3.1.2 3.1.2-2.1 2.3-2.9 2.9-1 1-.8 1.8 2.9 6.2-.2 7.2c-1.8.6-2.5.3-2.7 0 .2.9.3 3.1-3.2 3.2-4.5.2-10.3-.4-10.3-.4s5.7 6.4 13.5 5.1c7.8-1.2 15-5.7 15.6-30.8-.1.2-5.4-4.5-6.2-3.9" class="st7"/><path d="M27.1 128.6c-.1-.3-.1-.4-.1-.4s-.1.2.1.4m1.4-48.5c10.7-.5 13.7-7.7 14.5-12s-4-10-9.3-10-5.3 5-5.1 6.2-.2 2.5 1.9 2.2c2-.2 1.4-1.7 2.9-1.4 1.4.2 2.3 1.2 2.3 3.1s-1 3.9-7.2 3.3-7.4-9.4-7.3-14.7c.2-5.3 1.3-18.1 10-24.6s9.1-10.5 9.1-10.5l-3.1-.2s-17.6 4.6-22 26.6c0 0-2.2 9.6-2 15.4.3 5.7 4.7 17.1 15.3 16.6M62.4 4.5c6.2.4 8 1.8 8.2 6.8.2 4.9-3.5 6.1-3.5 6.1l7.6-.2c4.3-1.6 3.5-6.8 3.5-6.8-.8-9.2-15.8-5.9-15.8-5.9M34.1 265.1s-1.4-8.6-2.4-12.4-12-25.1-11.4-54.7c.7-29.6 5.2-42 5.2-42s2.4-7.9 1-7.9c0 0-2.4-1-4.5.3-2.1 1.4-3.8 5.5-4.5 7.6s-2.1 7.6-3.1 11-4.5 27.2-1.7 44c2.8 16.9 3.5 37.2 21.4 54.1m-21.7 45.4c12.4-.3 20.6-12 22-14.1s4.5-7.9 5.2-10.7c.7-2.7 0-8.3 0-11.3 0-3.1-1.4-3.4-3.1-3.1s-5.5 5.2-5.5 5.2 2.4 1 4 3.8c.5.9.9 1.4 1.2 1.7-2.2-.3-9.3-1-11 .8-3.2 3.2 6.2 9.3 6.2 9.3s-4.5 1-5.2 2.4-.3 2.1-2.4 1.4-3.1-.3-3.1-.3l2.1 7.6c-9.7 3.1-10.4 7.3-10.4 7.3M44 377.2c-1.7 2.4-3.4 12.7-3.4 12.7s-.3-1.7-2.4-3.8-1.7 8.9-1.7 8.9 2.4 2.7-1 2.1c-3.4-.7-2.4 3.8-2.4 3.8h-2.7l-2.8-2.7c-2.8-2.8-10.7-4.8-10.7-4.8s5.5-4.5 7.2-5.8c1-.8-1.2-1.7-3.1-2.2 1.8.2 4.6.2 8.3-.9 6.9-2.1 1.4-15.8 1.4-15.8l2.1-1.4c1.1-.8.9-2.1.5-3.1.4.4 1.1.8 1.9.7 2.1-.3 1.4-7.2 1.4-7.2s.7 1.7 1 4.8 1.4 5.9 3.1 3.8 2.8-8.9 3.1-12.4c.3-3.4.3-14.5.3-14.5s-3.1 4.1-5.8 6.9c-2.8 2.7-18.9 14.4-18.9 14.4C8.9 373.4 9.6 392 9.6 392c1.4 15.5 18.2 22.4 18.2 22.4 10 .7 15.8-3.4 18.6-8.9s1.4-13.1 0-16.2c-1.3-3.1-.6-14.5-2.4-12.1m-22.3 37.2c-2.1-1-3.1-2.4-3.1-2.4s-7.6 6.2-9.3 12.7L31 452.9s-.3-18.6 12-21.3l4.1-1.7-17.9-13.4c0-.1-5.5-1.1-7.5-2.1M99 467.2l-5.3-3.8s.4 13 6.9 13.8 13.4-4.6 13.4-4.6-4.2 1.1-8.8 1.9c-4.7.7-6.2-7.3-6.2-7.3M206.9 3.7c-21.8.5-29.1 4.8-31.5 7.4 1.6-.9 4.9-2 11.8-2.8 15.3-1.8 19.2 5.9 19.2 5.9s2.3 5.4-4.6 5.9-2.8-6.9-2.8-6.9c-10.7 6.9 1 11.8 4.3 11.8s17.4 2 17.4-9.7c0-11.9-13.8-11.6-13.8-11.6m-32.7 9.4s.1-.9 1.2-2c-1.9 1.1-1.2 2-1.2 2M244.5 6c-5.4.5-9.7 1-12.5 6.1s2.8 10.2 2.8 10.2l17.6.8c-1-1.5-1-5.4-1-5.4.5-10.7 25.8-10.5 25.8-10.5-10.4-1.5-27.3-1.8-32.7-1.2" class="st7"/><path d="M259.9 13.4c3.3-.8 10.5-3.6 10.5-3.6s-.5-1.3-2.6-1.3c-2 0-13.3 3.3-15.1 9.7 0 0-.5 5.9 5.4 5.4 0 0 1.8 1 3.1-2.8 0 0-6.4-.3-5.1-3.3 1.2-3.1.4-3.4 3.8-4.1" class="st26"/><path d="M427.5 29s-1-.3 1.5 3.3c2.6 3.6 12.3 18.4 6.9 33 0 0-1 10.5-10 10.2 0 0-6.1-1.5-5.9-5.4 0 0 0-3.1 1.8-3.1s2.3 2 2.3 2-2 0-2 1.3 1.3 1.5 1.3 1.5 3.5 1.5 3.5-3.5-4.2-6.8-8.6-6.3c-4.3.5-7.9 5.9-7.2 10.5.8 4.6 6.4 10.7 15.6 10.7s15.6-12.3 15.6-27.6c.1.2 2.4-14.9-14.8-26.6m-.7 111.9c8.9.5 13.6-9.7 13.6-9.7h-4.1l-5.4 4.6-.8-3.6h-.8l-7.9 1.5 4.1-8.2-9.2-3.6 4.3-4.3-3.6-1.5 4.3-3.6-1.8-5.6c-9.7 4.9-9.7 14.3-9.7 14.3-.9 5.4 8 19.2 17 19.7m11.7 23.8c-.8-3.1-3.6-10.5-5.6-13.8s-7.4-1.8-7.4-1.8c-3.3 2.6 2.8 7.4 2.8 7.4 5.1 10.7 7.2 22 4.9 51.4s-16.4 54.2-18.4 57.3 2.6 2.6 2.6 2.6l5.6-5.4c5.1-4.6 13.6-35.8 13.6-35.8s5.4-37.6 4.9-41.9c-.7-4.4-2.2-16.9-3-20m-4.3 143.1c-1.5-2.8-1.3-1.8-3.1-3.1s-2.6-1.8-2.6-3.6v-2.6s-3.1-.8-4.6-1.5c-1.5-.8-2-1.8-2-4.1s0-2.8 1.3-3.8.5-2.3 1-3.3 1.5.8 3.1 1.5c1.5.8 3.1 0 3.1 0s0-1.5-.8-3.3-.5-1.5-1.5-2.8-1.3-1.5-4.1-1.5-1.3-3.3-1.3-3.3c1.3 3.3 3.6 0 3.6 0 2-6.6-2.8-9.7-2.8-9.7-2 .3-5.9 2.8-5.9 2.8-6.4 4.6-5.1 12.3-5.1 12.3.5 13.5 12.5 25.8 17.4 28.9s10.5 2.3 10.5 2.3c-3.7-.3-4.7-2.4-6.2-5.2m-26.6 36.1.2 14.1 5.9-1.8 1.8 7.7s0 3.6 1 4.3c1 .8 2.6-3.8 2.6-3.8s5.9 8.7 6.1 16.4L424 386l5.4.8s-1.5 2-1 4.6 2.3 5.9 2.3 5.9h-5.9l-.5 5.1-6.1-5.1-3.1 5.1-1.5-7.2-3.6 2s1-15.6-1.3-15.6-7.9 3.3-7.7 13.3c.3 10 7.4 23.8 21 19.9 0 0 17.4.3 17.1-22.8-.1.2-.3-29.2-31.5-48.1m22.2 71.3c-6.4 1-7.9 1.8-7.9 1.8l-22 19.4s19.9 1 17.4 18.1l21.7-30.2c0 .1-2.8-10.1-9.2-9.1m-75.9 50.6c-1.5 0-1 .2-1.3 2s-3.6 2.8-5.4 3.8-3.3.5-5.1.5-2.6-.5-2.6-.5-.8 0-1 1c-.3 1-1.5 1.5-3.3.5s-3.8-1-3.8-1c1.8 5.6 6.9 6.1 15.8 5.4 9-.8 9.7-8.4 9.5-10.5-.2-2-1.2-1.2-2.8-1.2" class="st7"/><path d="M61.2 7.6c2.3.2 2.7 1 2.7 2.5 0 1.4-1 3.1-3.3 2.9s-3.1 0-2.7 1 3.5 3.9 6.4 3.3 5.3-2.9 5.3-6.1c0-3.3-2.7-5.1-6.4-5.1s-7.4 1.4-8.2 4.5c.1-.2 3.9-3.3 6.2-3M384.6 18l12-.5s1.3-1.5-1-2.3-3.8-5.1-1.8-6.6 8.4-.3 8.4-.3-.5-1.8-3.1-2c-2.6-.3-13-.5-13-.5s-4.9 2-4.9 4.3c.1 2.2 1.2 6.6 3.4 7.9M41.1 76.5c-2.7 4.1-7.6 5.1-7.6 5.1C14.2 86.9 12 65.8 12 65.8c-1 1.4.8 8 .8 8l6.4 36.1s-.8 1.6 5.1 2.7c5.9 1 9-2.5 9-2.5s6.6-27.1 7.4-31.2.4-2.4.4-2.4m1.7 374.7s-.4-8 6.9-8.4 3.4 6.1.4 6.5l-3.1.4s-1.1 6.9 8 5.3c9.2-1.5 8-11.5 8-11.5s-1.1-12.6-13.4-12.2c-12.2.4-17.6 16.8-16 23.3 1.5 6.5 24.4 30.6 47.4 13 0 0-37.8 5-38.2-16.4M175.2 463c-22.9 6.9-51.6.6-51.6.6s10.3 12.6 39.5 12.6c33.8 0 32.1-10.3 32.1-14.3s-20 1.1-20 1.1M424.5 84.4s-9.5-.8-12.8-7.2l11.5 35.3s12.3-1.5 13.3-5.4l3.6-32c0 .1-2.1 9.8-15.6 9.3m-26.6 353.3s-8.7 0-8.7 9.7 8.4 9.2 10.7 7.4c0 0-5.1-3.8-1.5-8.9 0 0 10.2-2.8 9.7 5.9s-6.1 17.6-19.4 17.6-23.8-2.6-23.8-2.6 6.6 9.5 24.5 8.2 26.6-13.5 26.6-22.2c0 0 .8-14.1-18.1-15.1m-106.6 31.7c-13.5-1.3-22-8.4-29.6-8.4 0 0-11-1.5-11.2 5.4-.3 6.9 17.9 13 35.3 12.5s43.2-13.3 43.2-13.3-24.2 5.1-37.7 3.8m-78.9-15.2s-5.3 8-4.6 9.9c.8 1.9 5 3.8 5.3 6.9.4 3.1 1.5 3.8 4.6 5 3.1 1.1 5 2.7 9.2 1.1 4.2-1.5 11.8-1.9 12.6-7.3.8-5.3.8-14.9.8-14.9s-23.3 2.8-27.9-.7" class="st26"/><path d="M102.1 339.6c-.2.1-.2.1 0 .6.4.7.9.7 1.4.5.7-.4.8-1 .5-1.6-.2-.4-.3-.4-.6-.2zm-1.9 1c-.6.3-1 .6-.7 1.2s.9.7 1.6.3 1-1 .6-1.8c-.2-.4-.2-.4-.6-.3zm2.1-2.5c.8-.4.9-.5.8-.8l-.1-.3c0-.1.2-.2.3-.1.4.6.7 1.2 1.1 2s.6 1.3.6 1.8-.3.8-.7 1.1c-.7.4-1.2-.1-1.4-.3-.1-.1-.1-.1-.2-.1v.1c.2.7.1 1.5-.7 1.9-.7.4-1.4.2-1.9-.2-.4-.4-.8-1-1.1-1.5-.2-.3-.3-.6-.4-.8-.2-.4-.4-.8-.7-1.2 0-.1.2-.2.3-.2l.2.2c.3.3.3.3 1.1 0zm1.9 7.7q.15.3.3 0l.5-.6c.3-.3.5-.6.7-.8-.2 0-.6.1-1.1.2l-.7.1c-.3 0-.3.1-.1.3zm-.9-.6c-.1-.2-.1-.2-.3-.2l-1.1.2c-.2 0-.3.1-.3.1s-.1.1 0 .4l.1.3c0 .1-.2.2-.3.1-.1-.3-.3-.6-.5-.9s-.3-.4-.5-.8c0-.1.2-.2.3-.2l.1.2c.1.2.3.3.7.3.4-.1.9-.1 1.5-.2l2.4-.4c.6-.1 1-.1 1.2-.3.3.3.9.4.9.4.1.1.1.2-.1.3-.2.2-.4.5-.9 1l-2.5 2.9c-.4.4-.5.6-.4.9l.1.3c0 .1-.2.2-.3.2-.2-.4-.4-.8-.7-1.2-.2-.4-.4-.7-.6-1.1 0-.1.1-.2.3-.2l.2.2c.1.2.2.2.3.1.1 0 .2-.2.4-.5l.6-.6c.1-.1.1-.2-.1-.5zm4.5 5.5c-.7.4-1.6.2-2-.4-.4-.7-.2-1.5.5-2 .7-.4 1.5-.2 2 .4.4.7.2 1.6-.5 2m2 2c-.2.1-.2.2.1.6.4.7 1 .6 1.5.3.7-.4.7-1.1.4-1.6-.2-.4-.3-.3-.6-.1zm-1.7 1.2c-.6.4-.9.7-.5 1.3s1 .6 1.6.1c.7-.5.9-1.1.4-1.9-.3-.4-.3-.4-.6-.2zm1.8-2.8c.8-.5.8-.6.7-.9l-.1-.2c0-.1.2-.3.3-.2.4.5.8 1.1 1.4 1.8.5.7.7 1.3.8 1.7q0 .75-.6 1.2c-.6.4-1.2.1-1.5-.1-.1-.1-.1-.1-.2-.1v.1c.3.7.2 1.5-.5 2s-1.4.4-1.9 0-.9-.9-1.2-1.4c-.2-.3-.4-.6-.5-.8-.3-.4-.5-.7-.8-1.2 0-.1.2-.2.3-.2l.2.2c.3.3.4.3 1.1-.2zm2.8 7.5q.15.3.3 0l.5-.6c.2-.3.5-.7.6-.8-.2 0-.6.2-1 .3l-.7.2c-.2.1-.2.1-.1.3zm-1-.5c-.1-.2-.2-.2-.3-.1l-1 .4c-.2.1-.3.1-.3.1s0 .1.1.4l.1.2c0 .1-.2.2-.3.2l-.6-.9c-.2-.3-.3-.4-.6-.7 0-.1.1-.2.2-.2l.2.2c.2.2.3.3.7.2s.8-.2 1.5-.4l2.3-.7c.6-.2 1-.2 1.1-.4.3.3.9.3.9.3q.15.15 0 .3c-.2.2-.4.5-.8 1.1l-2.1 3.2c-.3.5-.4.7-.3 1l.2.3c0 .1-.2.2-.3.2-.2-.4-.5-.8-.8-1.2s-.5-.6-.8-1c0-.1.1-.2.2-.2l.2.2c.2.1.2.1.3.1s.2-.2.4-.5l.5-.7c.1-.1.1-.2-.1-.4z"/><path d="M120 360.9c-.3-.3-.5-.4-1-.3-.1 0-.2-.2-.2-.3.2-.1.7-.2.9-.2.3 0 .4.1.6.3l.4.4c.2.2.4.4.8.2.1.1.2.2.2.3-.3.1-.6.2-.8.3q-.3 0-.6-.3zm-2.5 5.2c-.5.4-.9.7-1.1 1-.1 0-.4-.1-.5-.3 0 0 .2-.5.3-1.2l.7-3.3q.3-1.2.3-1.5c-.1 0-.2.1-.5.3l-1.4 1.1c-.6.5-1.1.9-1.2 1.2-.1.2 0 .4.1.6l.1.2c0 .1-.2.2-.2.2-.3-.4-.5-.7-.8-1-.2-.3-.4-.5-.7-.8 0-.1.1-.2.3-.2l.1.1c.2.2.4.3.6.2.3-.1.8-.5 1.4-1l1.8-1.5c.4-.3.5-.4.6-.6s.1-.3-.1-.6h-.3c0-.1.2-.2.3-.2.3.3.5.7.8 1 .2.2.4.4.5.6-.3.3-.4 1.2-.6 2.5l-.2 1.2c-.1.6-.2 1-.2 1.3.1 0 .2-.1.3-.2l1-.8c.6-.5 1.1-.9 1.2-1.2.1-.2 0-.4-.1-.6l-.1-.2c0-.1.2-.2.3-.2.3.4.5.7.8 1 .2.3.4.5.7.8 0 .1-.1.2-.3.2l-.1-.1c-.2-.2-.3-.2-.6-.2-.3.1-.8.5-1.4 1z"/><path d="M121.5 369.5c-1.1.4-1.8.7-2.4.9-.1 0-.2-.1-.3-.2s-.1-.2-.1-.2c.1-.2.4-.7.5-1l1.7-3.6c.4-.8.4-.9.3-1.2l-.2-.3c0-.1.2-.2.3-.2.3.3.5.6.8.9l1 1c0 .1-.1.2-.2.2l-.2-.2q-.15-.15-.3 0c-.1 0-.2.4-.5 1l-1 2c-.2.3-.3.5-.3.7.2-.1.4-.1.7-.2l.9-.3c.6-.2 1.6-.6 1.9-.7.2-.1.3-.1.3-.2q.15 0 0-.3l-.1-.2c0-.1.1-.2.3-.2.3.3.5.6.7.9l.6.6c0 .1-.1.2-.2.2l-.2-.1c-.2-.2-.4-.2-.6-.2-.4 0-.9.2-1.6.5z"/><path d="M125.3 371.5c-.2.2-.2.2 0 .4l.4.4c.3.3.5.4.8.1l.2-.1c.1 0 .3.2.2.2-.2.2-.5.4-.7.7s-.5.5-.7.7c-.1 0-.3-.1-.3-.2l.1-.2c.2-.4.2-.5-.1-.8l-.5-.4c-.2-.2-.2-.2-.4 0l-.8.8c-.3.3-.5.5-.5.7s0 .4.5.8c.6.6.8.8 1.9.4.1 0 .3.2.2.3-.4.3-1 .7-1.3.8-.3-.4-1-1-1.5-1.5l-.8-.8-1.1-1.1c0-.1.1-.2.2-.2l.4.3c.3.2.4.2 1-.3l2.4-2.4c.6-.6.6-.7.4-1l-.1-.2c0-.1.1-.2.2-.2l.9.9 1.4 1.4c.4.4.8.8.9.8-.1.1-.5.6-.9 1.1-.1 0-.3-.1-.3-.2.2-.3.3-.6.3-.8s-.1-.5-.4-.8l-.5-.5c-.2-.2-.2-.2-.5 0zm2.5 5.3c-.3.3-.5.6-.5.7 0 .2 0 .4.5.8.6.6.8.7 1.9.3.1 0 .3.1.2.3-.4.3-1 .7-1.3.8-.3-.3-1-.9-1.5-1.4l-.9-.8c-.3-.3-.7-.6-1.1-1 0-.1.1-.3.2-.3l.3.2c.3.2.4.2 1-.4l2.3-2.5c.6-.6.6-.7.3-1l-.2-.2c0-.1.1-.3.2-.2l1 1c.3.3.7.6 1 .9 0 .1-.1.2-.2.2v-.2c-.4-.2-.4-.2-1 .4zm7.6 1c-.9-.7-2-.3-3 .9-.7.9-1.6 2.5-.4 3.4.9.8 2 .2 3-1s1.3-2.6.4-3.3m.8 4.2c-1.3 1.5-3.1 1.6-4.6.4-1.4-1.2-1.7-3-.4-4.4a3.2 3.2 0 0 1 4.6-.4c1.4 1.1 1.6 2.9.4 4.4m24.2 17.8c-.2.5-.4.8-.3 1q.15.3.6.6c1.4.7 2.5-.3 3.1-1.4.7-1.5.4-2.7-1.1-3.5-.2-.1-.4-.1-.5-.1s-.2.2-.3.4zm.1-3.2c.4-.8.5-.9.1-1.2l-.1-.1c-.1-.1.1-.3.2-.3.7.3 1.4.6 2.2 1q1.05.45 1.8 1.2c.9.9 1 2.2.5 3.2-.6 1.1-1.5 1.7-2.7 1.7-.7 0-1.4-.2-2.3-.6-.4-.2-.8-.4-1.1-.6-.4-.2-.8-.4-1.3-.6 0-.1.1-.3.1-.3l.3.1c.4.1.5.1.9-.7zm6.4 6.7c-.4.8-.3.9 0 1.1l.2.1c.1.1-.1.3-.1.3-.4-.2-.9-.4-1.2-.6-.4-.2-.8-.4-1.3-.5 0-.1 0-.3.1-.3l.3.1c.4.1.5.1.8-.7l1.4-3.1c.3-.8.3-.9 0-1.1l-.2-.1c0-.1 0-.3.1-.3.4.2.9.4 1.3.6s.8.4 1.3.6c0 .1 0 .3-.1.3l-.3-.1c-.4-.1-.5-.1-.8.7zm4.1-.8c-.1.2-.1.3.1.4l.6.2c.4.2.6.2.8-.2l.1-.2c.1 0 .3 0 .3.1-.1.3-.3.6-.4.9s-.3.6-.4.9c-.1.1-.3 0-.3-.1v-.2c.1-.4 0-.6-.4-.7l-.6-.2c-.2-.1-.2-.1-.4.2l-.4 1c-.2.4-.2.7-.2.9s.2.3.8.6c.7.3 1 .4 1.9-.4.1-.1.3.1.3.2-.2.4-.7 1-.9 1.2-.4-.2-1.2-.5-1.9-.8l-1.1-.4c-.4-.2-.8-.3-1.5-.6 0-.1 0-.3.1-.3l.4.1c.4.1.5.1.8-.7l1.3-3.2c.3-.8.3-.9-.1-1.1l-.2-.1c-.1-.1 0-.3.1-.3.4.2.8.4 1.2.5l1.8.7c.5.2 1 .4 1.2.4-.1.1-.2.8-.4 1.4-.1.1-.3 0-.3-.1v-.8c-.1-.2-.3-.4-.7-.6l-.7-.3c-.3-.1-.3-.1-.4.2zm7.8 5.6c-.1.4-.2.5 0 .6 0 0 0 .2-.1.2-.2 0-.4-.1-.7-.1s-1.1-.2-1.6-.3c-.6-.2-1.1-.4-1.6-.9-.9-.8-1.2-2-.8-3.2.4-1.1 1.2-1.9 2.4-2.1.7-.1 1.4 0 2.2.3 1 .3 1.4.7 1.6.8-.1.3-.3.9-.4 1.4-.1.1-.3 0-.3-.1q0-1.35-1.2-1.8c-1.4-.5-2.4.4-2.9 1.8-.4 1.2-.3 2.1.2 2.7.3.4.7.6 1.1.7.5.2.6.1.8-.4l.2-.6c.2-.5.1-.5-.3-.7l-.4-.2c-.1-.1 0-.3.1-.3.6.2 1 .4 1.4.6.4.1.8.3 1.1.4 0 .1 0 .3-.1.3h-.2c-.3 0-.4 0-.5.5zm5.5-3.2c-1.1-.3-2 .5-2.4 2-.3 1.1-.4 2.9 1 3.3 1.1.3 1.9-.7 2.4-2.1.4-1.5.1-2.9-1-3.2m2.4 3.5c-.6 1.9-2.2 2.7-4.1 2.1-1.8-.5-2.7-2.1-2.2-3.9a3.2 3.2 0 0 1 4-2.2c1.9.6 2.8 2.2 2.3 4m5.1 3c-.2.8-.2.9.2 1.1l.4.1c.1.1 0 .3-.1.3-.6-.2-1-.3-1.4-.4s-.9-.2-1.4-.3c-.1-.1 0-.3.1-.3h.3c.4 0 .5 0 .7-.9l.1-.5c.1-.4.1-.6 0-1.1l-.6-2.4c-.1-.4-.1-.6-.4-.7l-.3-.1c-.1-.1 0-.3.1-.3.4.1.7.2 1.3.3.5.1 1 .2 1.3.3.1 0 0 .3-.1.3h-.5c0 .1 0 .2.1.7l.2 1.1c.1.3.2.7.2 1 .4-.4.7-.8 1.1-1.2.5-.6.7-.8.7-.9s-.1-.1-.3-.2l-.2-.1c-.1-.1 0-.3.1-.3.4.1.7.2 1 .3s.6.1.9.2c.1.1 0 .3 0 .3h-.2c-.2 0-.4 0-.5.1-.2.1-.5.4-1.1 1.1l-.8.9c-.3.4-.5.6-.6 1.1z"/><path d="M196.4 410c0 .2 0 .3.4.3.8.1 1.2-.3 1.3-.8.1-.8-.3-1.3-.9-1.4-.4-.1-.5 0-.5.4zm-.4 2.1c-.1.7-.1 1.2.6 1.3s1.1-.3 1.3-1c.1-.8-.2-1.4-1.1-1.6-.5-.1-.5-.1-.6.3zm-.6-3.2c.2-.9.2-1-.2-1.1l-.2-.1c-.1-.1 0-.3.1-.3.7.1 1.4.2 2.3.3.9.2 1.4.4 1.8.7.3.3.5.7.4 1.3-.1.8-.8.9-1.1.9-.1 0-.2 0-.2.1 0 0 0 .1.1.1.7.3 1.2.9 1 1.8-.2.8-.7 1.2-1.4 1.3-.6.1-1.3 0-1.8-.1-.3-.1-.7-.2-.9-.2-.4-.1-.9-.2-1.4-.2-.1-.1 0-.3.1-.3h.3c.4 0 .5-.1.6-.9zm7.2 3.3c.2 0 .3 0 .2-.2l-.1-.8c-.1-.4-.1-.8-.2-1-.1.2-.3.5-.5.9l-.3.6c-.1.2-.1.3.2.3zm-1 .4c-.2 0-.2 0-.3.1l-.5 1c-.1.2-.1.2-.1.3 0 0 .1.1.3.2l.3.1c0 .1 0 .3-.1.3-.3-.1-.7-.1-1.1-.2-.3-.1-.5-.1-.9-.1-.1-.1 0-.3 0-.3h.3c.2 0 .4 0 .6-.4.2-.3.4-.8.8-1.4l1.2-2.1c.3-.5.5-.8.5-1.1.4 0 .9-.4.9-.4.1 0 .2.1.2.2 0 .3.1.6.2 1.3l.7 3.7c.1.6.2.8.5.9l.3.1c0 .1 0 .3-.1.3-.4-.1-.9-.2-1.4-.2-.5-.1-.8-.1-1.2-.2-.1-.1-.1-.3 0-.3h.3c.2 0 .3-.1.3-.1 0-.1 0-.3-.1-.6l-.1-.8c0-.2-.1-.2-.4-.2zm6.1-.5c0 .3 0 .4.5.4.3 0 .5 0 .7-.2.2-.1.4-.4.5-.9.1-.8-.3-1.4-1-1.5-.4-.1-.4 0-.4.4zm-1.1-1.3c.1-.9.1-1-.3-1.1l-.2-.1c-.1-.1-.1-.3.1-.3.7 0 1.4.1 2.3.2.8.1 1.4.3 1.7.5.5.4.7.9.6 1.4-.1.8-.7 1.1-1.1 1.3-.1 0-.1.1-.1.2.5 1.3.8 2 1.2 2.4q.3.3.6.3c.1.1.1.2 0 .2h-.7c-.8-.1-1.3-.5-1.7-1.2-.2-.5-.4-1-.5-1.5-.1-.3-.2-.3-.4-.4-.3 0-.3 0-.4.2l-.1 1.1c-.1.8-.1.9.3 1l.2.1c.1.1 0 .3 0 .3-.5-.1-.9-.1-1.3-.2-.5-.1-.9-.1-1.3-.1-.1-.1 0-.3 0-.3h.2c.4 0 .5-.1.6-.9z"/><path d="M214.1 413.6c.2 0 .3 0 .2-.2l-.2-.8c-.1-.4-.2-.8-.3-1l-.5 1-.3.7c-.1.2-.1.3.2.3zm-1 .4c-.2 0-.3 0-.3.2l-.4 1c-.1.2-.1.3-.1.3 0 .1.1.1.3.2l.3.1v.3c-.3 0-.7-.1-1.1-.1h-1c-.1-.1-.1-.3 0-.3h.3c.2 0 .4-.1.6-.4l.7-1.4 1-2.2c.3-.5.5-.9.5-1.1.5-.1.8-.5.8-.5.1 0 .2.1.2.2.1.3.1.6.3 1.3l1 3.7c.1.6.2.8.5.9l.3.1c.1.1.1.3 0 .3-.4-.1-.9-.1-1.4-.1s-.8-.1-1.2-.1c-.1-.1-.1-.3 0-.3h.3c.2 0 .3-.1.3-.1 0-.1 0-.3-.1-.6l-.2-.8c0-.2-.1-.2-.4-.2zm35.7-2.9c-.2-.8-.2-.9-.6-.9h-.3c-.1 0-.1-.2-.1-.3.6-.1 1-.2 1.5-.2.4-.1.9-.2 1.4-.3.1 0 .1.2 0 .3l-.2.1c-.4.2-.4.2-.3 1.1l.6 3.3c.1.7.2 1.3.1 1.8-.2.9-.7 1.6-1.9 1.8-.3.1-.7.1-.7-.2 0-.2 0-.4.1-.6.1-.1.1-.2.2-.2.2 0 .3.1.5.1.2.1.3.2.4.2.2 0 .2-.5.2-.8 0-.2-.1-.8-.2-1.8z"/><path d="m255.5 412.2-.4 2.5c-.1.1-.2.1-.3.1h-.3c-.1-.2-.4-.7-.6-.9l-2.2-3.3c-.5-.8-.6-.8-.9-.8h-.4q-.15-.15 0-.3c.5-.1.8-.1 1.2-.2s.8-.2 1.4-.3c.1 0 .1.2.1.3l-.3.1c-.2.1-.2.1-.2.2q0 .15.6.9l1.2 1.9c.2.3.3.5.4.6 0-.2.1-.4.2-.7l.2-.9c.1-.6.3-1.7.3-2v-.3c0-.1 0-.1-.3-.1h-.3q-.15-.15 0-.3c.4-.1.8-.1 1.1-.2s.6-.1.8-.2c.1 0 .1.2.1.3l-.2.1c-.2.1-.3.2-.4.4-.1.3-.3.9-.4 1.7z"/><path d="M259.4 412c.1.5.2.8.4 1 .2.1.5.2.8.1 1.5-.4 1.7-1.9 1.4-3.1-.4-1.6-1.5-2.3-3.1-1.9-.2.1-.4.1-.4.2s0 .3.1.5zm-1.9-2.5c-.2-.8-.3-1-.7-1h-.2c-.1 0-.2-.3-.1-.3l2.4-.7c.7-.2 1.5-.3 2.1-.2 1.3.1 2.2 1 2.4 2.1.3 1.2 0 2.3-.9 3.1-.5.5-1.2.8-2.1 1-.4.1-.9.2-1.2.2-.4.1-.9.2-1.4.4-.1 0-.1-.2-.1-.3l.3-.1c.4-.2.4-.2.2-1.1zm7.8-2.9c-.1-.2-.1-.3-.3-.2l-.5.2c-.6.2-.7.6-.8 1.3-.1.1-.3.1-.3 0 0-.7-.1-1.2-.1-1.6l.1-.1h.1c.1.1.1.2.8 0l3.3-.9c.6-.2.7-.2.7-.4 0 0 .1 0 .1-.1h.2c0 .3.1 1.1.3 1.5 0 .1-.3.2-.3.1-.3-.5-.6-.9-1.2-.7l-.5.2c-.2.1-.2.1-.2.3l1.1 3.9c.2.8.3.9.7.8l.4-.1c.1 0 .1.2.1.3-.6.1-1 .3-1.4.4s-.9.3-1.5.5c-.1 0-.1-.2-.1-.3l.4-.2c.4-.2.4-.2.2-1.1zm6.3-2.4c-1.1.4-1.3 1.5-.8 3 .4 1.1 1.3 2.6 2.7 2.2 1.1-.4 1.2-1.6.7-3-.5-1.5-1.5-2.5-2.6-2.2m4 1.6c.6 1.9-.3 3.5-2.1 4.1-1.7.6-3.4-.1-4-2-.6-1.7.3-3.5 2.1-4.1 1.7-.6 3.4.2 4 2m3.1.4c.2.4.3.7.5.8s.3.1 1-.1c.8-.3 1-.4 1.1-1.6 0-.1.3-.1.4-.1.1.5.2 1.3.2 1.5-.5.2-1.3.5-2 .7l-1.2.4c-.4.2-.8.3-1.3.5-.1 0-.2-.2-.1-.3l.3-.2c.4-.2.4-.3.1-1.1l-1.2-3.2c-.3-.8-.4-.9-.8-.8l-.3.1c-.1 0-.2-.2-.1-.3.5-.1.9-.3 1.3-.5s.8-.3 1.2-.5c.1 0 .2.2.1.3l-.2.1c-.4.2-.4.3-.1 1.1zm4.3-6.3c-1 .4-1.2 1.7-.6 3.1.4 1 1.5 2.5 2.9 1.9 1.1-.5 1.1-1.7.5-3.1-.7-1.5-1.8-2.4-2.8-1.9m4.1 1.2c.8 1.8 0 3.5-1.8 4.3-1.7.7-3.4.2-4.2-1.6-.7-1.7 0-3.5 1.7-4.2 1.8-.9 3.5-.2 4.3 1.5m3.6 1.8c-.8.4-1.3.4-1.6.4-.2-.1-.6-.6-.9-1.2 0-.1.2-.2.3-.2.4.5 1.3.9 2.1.6.6-.3.7-.8.5-1.3-.3-.7-1.1-.8-1.8-.8s-1.6-.2-2-1c-.5-.9 0-1.9 1.2-2.5.3-.1.6-.3 1-.3.1 0 .2 0 .3-.1.1.1.4.6.7 1.1 0 .1-.2.2-.3.2-.3-.4-1-.8-1.6-.5-.5.3-.7.8-.5 1.2s.7.6 1.2.6h.7c.6 0 1.5.2 2 1.1.4 1-.1 2.1-1.3 2.7m3.8-5c.2-.1.2-.1 0-.3l-.6-.5-.7-.7c0 .2.1.6.1 1.1l.1.7c.1.3.1.3.3.1zm-.7.9c-.2.1-.2.1-.2.3l.2 1.1c0 .2.1.3.1.3s.1.1.4 0l.3-.1c.1 0 .2.2.1.3-.3.1-.6.3-1 .5-.3.1-.5.3-.8.5-.1 0-.2-.2-.2-.3l.2-.1c.2-.1.3-.3.3-.7s-.1-.9-.2-1.6l-.3-2.4c-.1-.6-.1-1-.2-1.2.3-.3.4-.9.4-.9.1-.1.2 0 .3.1.2.2.4.4 1 .9l2.8 2.6c.4.4.6.5.9.4l.3-.1c.1 0 .2.2.1.3-.4.2-.8.4-1.3.6-.4.2-.7.4-1.1.6-.1 0-.2-.2-.2-.3l.2-.2c.2-.1.2-.2.1-.2 0-.1-.2-.2-.5-.5l-.6-.6c-.1-.1-.2-.1-.5.1z"/><path d="M259.2 410.1c.1.2.1.2.3.2l.6-.1c.4-.1.5-.2.5-.6v-.2c0-.1.3-.1.3-.1.1.3.1.6.2.9l.3.9c0 .1-.2.1-.3.1l-.1-.2c-.2-.4-.3-.4-.7-.3l-.6.1c-.2.1-.2.1-.2.3l.2 1c.1.4.2.6.3.8.1.1.3.1.9 0 .7-.2 1-.3 1.3-1.4 0-.1.3-.1.3 0 .1.4-.1.8-.2 1-.5.1-1.1.7-1.8.9l-1.1.3c-.4.1-.8.2-1.5.4-.1 0-.1-.2-.1-.3l.4-.2c.4-.2.4-.2.2-1l-.8-3.2c-.2-.8-.3-.8-.6-.8h-.2c-.1 0-.1-.2-.1-.3l1.2-.3 1.8-.4c.5-.1.9 0 1.1-.1 0 .1.3.5.5 1 0 .1.1.1 0 .1-.2-.3-.7-.5-.8-.6-.2-.1-.5-.2-.9-.1l-.7.2c-.3.1-.3.1-.2.4zm56.7-25.6q.3-.15 0-.3l-.7-.4c-.4-.2-.7-.4-.9-.5.1.2.2.6.4 1l.3.7c.1.2.1.2.3.1zm-.4 1c-.2.1-.2.2-.1.3l.4 1c.1.2.1.2.2.3 0 0 .1 0 .4-.1l.2-.1c.1 0 .2.2.2.3-.3.2-.5.4-.8.7-.2.2-.4.4-.7.6-.1 0-.2-.1-.2-.2l.2-.2c.1-.2.3-.3.1-.7-.1-.4-.3-.8-.5-1.5l-.8-2.3c-.2-.6-.3-.9-.5-1.1.3-.4.3-.9.3-.9q.15-.15.3 0c.2.2.5.4 1.1.7l3.2 2c.5.3.7.4 1 .2l.3-.2c.1 0 .2.2.2.3-.4.3-.8.6-1.1.9-.4.3-.6.5-.9.8-.1 0-.3-.1-.2-.2l.2-.2c.1-.2.1-.2.1-.3s-.2-.2-.5-.4l-.7-.4c-.1-.1-.2-.1-.4.1zm2.1-5c-.6-.7-.7-.8-1-.5l-.2.2c-.1 0-.2-.1-.2-.2l1.5-1.5c.6-.5 1-.8 1.4-1 .5-.2 1.3-.2 1.9.4 1 1.1 0 2.3-.3 2.6l-.2.2c-.1 0-.2-.1-.2-.2.4-.7.2-1.2-.3-1.7-.4-.5-1.2-.8-1.8-.3-.3.2-.2.3.1.6l2.6 2.9c.6.6.7.7 1 .4l.2-.2c.1 0 .3.1.2.2-.4.3-.7.6-1.1.9-.3.3-.6.6-1 .9-.1 0-.3-.1-.2-.2l.2-.2c.3-.3.2-.4-.3-1zm11.2-13.3c-.7.9-.3 2 .9 3 .9.7 2.5 1.6 3.5.4.8-.9.2-2-1-3-1.3-.9-2.7-1.2-3.4-.4m4.2-.7c1.5 1.3 1.6 3.1.3 4.6-1.2 1.4-3 1.7-4.4.4a3.2 3.2 0 0 1-.4-4.6c1.2-1.5 3-1.6 4.5-.4m-.7-5.5c-.3.4-.3.6-.1 1 0 .1-.1.2-.2.2-.1-.2-.4-.6-.5-.9s0-.4.1-.7l.3-.5c.2-.2.3-.5 0-.8 0-.1.2-.2.2-.2.2.2.4.5.5.8.1.2 0 .4-.1.6zm5.7 1.2q.75.6 1.2.9c.1.1 0 .4-.1.6h-1.2l-3.4.2c-.8 0-1.3.1-1.5.1 0 .1.2.2.4.4l1.4 1.1c.6.4 1.2.8 1.4.9.2 0 .4-.1.6-.2l.2-.2c.1 0 .2.1.3.2-.3.4-.5.7-.7 1s-.4.5-.6.8c-.1 0-.2-.1-.3-.2l.1-.1c.1-.2.2-.4.1-.6s-.7-.7-1.3-1.1l-1.9-1.4c-.4-.3-.5-.4-.7-.4s-.3 0-.6.2l-.2.2c-.1 0-.3-.1-.2-.2.3-.3.5-.7.8-1 .2-.3.3-.5.4-.6.4.2 1.3.1 2.6 0l1.2-.1c.6 0 1-.1 1.3-.1 0-.1-.2-.2-.3-.3l-1-.8c-.6-.4-1.2-.8-1.4-.9-.2 0-.4.1-.5.3l-.2.2c-.1 0-.2-.1-.3-.2.3-.4.5-.7.8-1 .2-.3.4-.5.6-.8.1 0 .2.1.3.2l-.1.1c-.1.2-.2.4-.1.6s.7.7 1.3 1.1zm1.3-3.9c.1-.2.1-.2-.1-.3l-.8-.2c-.4-.1-.8-.2-1-.2.1.2.4.5.6.9l.5.6c.2.2.2.2.3 0zm-.1 1.1c-.1.2-.1.2 0 .4l.7.9.2.2s.1 0 .3-.2l.2-.2c.1 0 .3.1.3.2l-.6.9c-.2.3-.3.4-.5.8-.1 0-.3-.1-.3-.1l.1-.2c.1-.2.1-.4-.1-.7s-.5-.7-.9-1.3l-1.4-1.9c-.4-.5-.5-.8-.8-.9.2-.4 0-1 0-1 .1-.1.1-.1.3-.1.3.1.6.2 1.3.3l3.7.9c.6.1.8.2 1-.1l.2-.3c.1 0 .3.1.3.2-.3.4-.5.8-.8 1.2s-.4.7-.7 1c-.1.1-.3 0-.3-.2l.1-.3c.1-.2 0-.3 0-.3-.1 0-.3-.1-.6-.2l-.8-.2c-.1 0-.2 0-.4.3zm.1-6.3c-.2-.1-.2-.1-.3.1l-.3.5c-.3.6-.1.9.3 1.5 0 .1-.1.3-.2.3-.5-.5-.9-.8-1.2-1v-.1l.1-.1c.1 0 .2 0 .5-.6l1.7-2.9c.3-.5.4-.6.2-.8v-.1l.1-.1c.2.2.8.7 1.3.9.1.1-.1.3-.1.3-.6-.2-1-.3-1.4.3l-.3.5c-.1.2-.1.2.1.3l3.5 2c.7.4.8.4 1.1.1l.2-.3c.1 0 .3.1.3.2-.3.5-.6.9-.8 1.3s-.5.8-.8 1.4c-.1 0-.3-.1-.3-.2l.2-.4c.2-.4.1-.5-.6-.9zm4.4-4.4c.2.1.2.1.4-.1l.3-.6c.2-.4.2-.5-.1-.8l-.2-.1c0-.1.1-.3.2-.3.2.1.5.3.8.5s.6.3.9.4c.1.1 0 .3-.2.3l-.2-.1c-.4-.1-.5-.1-.8.4l-.3.6c-.1.2-.1.2.1.4l1 .5c.4.2.7.3.8.3.2 0 .3-.1.7-.7.4-.7.5-1-.2-1.9-.1-.1.1-.3.2-.3.4.2 1 .8 1.1 1-.2.4-.7 1.2-1 1.9l-.5 1-.7 1.4c-.1 0-.3-.1-.3-.1l.1-.4c.1-.4.1-.5-.6-.9l-3-1.6c-.7-.4-.8-.4-1.1 0l-.1.2c-.1.1-.3-.1-.3-.2l.6-1.2.9-1.7c.3-.5.5-1 .5-1.1.1.1.8.3 1.3.5.1.1 0 .3-.1.3-.3-.1-.6-.1-.8 0s-.5.3-.7.7l-.3.6c-.1.3-.1.3.2.4zm-17.3 27.5c.4.3.6.6.9.6.2 0 .5-.1.7-.4 1.1-1.2.4-2.5-.5-3.4-1.2-1.1-2.5-1.2-3.6 0-.2.2-.3.3-.2.4 0 .1.1.2.3.4zm-3-1.1c-.6-.6-.8-.7-1.1-.4l-.1.1c-.1 0-.3-.2-.2-.2.5-.6 1-1.1 1.6-1.8.5-.5 1.1-1 1.7-1.4 1.1-.6 2.4-.3 3.2.5.9.8 1.2 1.9.9 3.1-.2.7-.6 1.3-1.3 2-.3.3-.7.6-.9.8-.3.3-.6.7-1 1.1-.1 0-.3-.1-.2-.2l.2-.2c.2-.3.2-.4-.4-1z"/><path d="M325.2 374.6c.2.2.2.2.4 0l.4-.4c.3-.3.3-.4.1-.8l-.1-.2c0-.1.1-.2.2-.2l.7.7c.2.2.5.4.7.6 0 .1-.1.3-.2.2l-.2-.1c-.4-.2-.5-.2-.8.1l-.4.4c-.2.2-.2.2 0 .4l.8.7c.3.3.5.5.7.5s.4 0 .8-.5c.5-.5.7-.8.3-1.8 0-.1.2-.3.3-.2.3.3.3.7.4.9-.3.3-.6 1.2-1.1 1.7l-.8.8c-.3.3-.6.6-1 1.1-.1 0-.2-.1-.2-.2l.3-.3c.2-.3.2-.4-.4-1l-2.4-2.3c-.6-.5-.7-.5-1-.3l-.2.1c-.1 0-.2-.1-.2-.2l.9-.9 1.3-1.3c.4-.4.8-.5.9-.6.1.1.5.2 1 .6 0 .1.2.1.1.1-.3-.1-.8 0-1 0s-.5.1-.8.4l-.5.5c-.2.2-.2.2 0 .5zM110.3 229.1s1.3-.6 2.4-.4c0 0 .4.3 0 .3s-.3 0-.6.2-.7.7-.9.4c-.3-.3-.5-.5-.7-.3s-.7 0-.2-.2m5-.4s1.6-.3 2.1.3c0 0 .1.2-.1.2s-.4-.1-.4-.1-.3.1-.5.1c-.3 0-.2-.2-.5-.2h-.5s-.2 0-.1-.3m-1.3 3s.1.3.9.3c.8-.1.8.1 1-.1.1-.2-.1-1.6-.5-2.2 0 0-.1 0-.1.3s.2 1.2.2 1.6c0 .3 0 .2-.4.2s-.8 0-.8-.1c-.1-.2-.3-.2-.3 0m.7 4.1s-.6 1.3-1 1.4c-.5.1 1.3.3 1.4.3s1.9-.3 1.9-.3-1.3-.6-1.3-1.1c0-.6-.7-.8-1-.3"/></svg>